0
SECTION
2
HEADER
9
$INSUNITS
70
4
9
$ACADVER
1
AC1014
9
$HANDSEED
5
FFFF
0
ENDSEC
0
SECTION
2
TABLES
0
TABLE
2
VPORT
5
8
100
AcDbSymbolTable
0
ENDTAB
0
TABLE
2
LTYPE
5
5
100
AcDbSymbolTable
0
LTYPE
5
14
100
AcDbSymbolTableRecord
100
AcDbLinetypeTableRecord
2
BYBLOCK
70
0
0
LTYPE
5
15
100
AcDbSymbolTableRecord
100
AcDbLinetypeTableRecord
2
BYLAYER
70
0
0
ENDTAB
0
TABLE
2
LAYER
5
2
100
AcDbSymbolTable
70
2
0
LAYER
5
50
100
AcDbSymbolTableRecord
100
AcDbLayerTableRecord
2
0
70
0
6
CONTINUOUS
0
ENDTAB
0
TABLE
2
STYLE
5
3
100
AcDbSymbolTable
70
1
0
STYLE
5
11
100
AcDbSymbolTableRecord
100
AcDbTextStyleTableRecord
2
STANDARD
70
0
0
ENDTAB
0
TABLE
2
VIEW
5
6
100
AcDbSymbolTable
70
0
0
ENDTAB
0
TABLE
2
UCS
5
7
100
AcDbSymbolTable
70
0
0
ENDTAB
0
TABLE
2
APPID
5
9
100
AcDbSymbolTable
70
2
0
APPID
5
12
100
AcDbSymbolTableRecord
100
AcDbRegAppTableRecord
2
ACAD
70
0
0
ENDTAB
0
TABLE
2
DIMSTYLE
5
A
100
AcDbSymbolTable
70
1
0
ENDTAB
0
TABLE
2
BLOCK_RECORD
5
1
100
AcDbSymbolTable
70
1
0
BLOCK_RECORD
5
1F
100
AcDbSymbolTableRecord
100
AcDbBlockTableRecord
2
*MODEL_SPACE
0
BLOCK_RECORD
5
1B
100
AcDbSymbolTableRecord
100
AcDbBlockTableRecord
2
*PAPER_SPACE
0
ENDTAB
0
ENDSEC
0
SECTION
2
BLOCKS
0
BLOCK
5
20
100
AcDbEntity
100
AcDbBlockBegin
2
*MODEL_SPACE
0
ENDBLK
5
21
100
AcDbEntity
100
AcDbBlockEnd
0
BLOCK
5
1C
100
AcDbEntity
100
AcDbBlockBegin
2
*PAPER_SPACE
0
ENDBLK
5
1D
100
AcDbEntity
100
AcDbBlockEnd
0
ENDSEC
0
SECTION
2
ENTITIES
0
CIRCLE
5
100
100
AcDbEntity
8
0
100
AcDbCircle
10
-1.7204147893837751
20
117.2936467000001
30
-6.9277916736609768e-13
40
2.0000000000000062
210
0
220
0
230
1
0
CIRCLE
5
101
100
AcDbEntity
8
0
100
AcDbCircle
10
-41.745315796834355
20
-116.19364671490129
30
6.3948846218409017e-13
40
1.25
210
0
220
0
230
1
0
CIRCLE
5
102
100
AcDbEntity
8
0
100
AcDbCircle
10
41.954585218066725
20
-116.19364671490129
30
6.3948846218409017e-13
40
1.2499999999999911
210
0
220
0
230
1
0
CIRCLE
5
103
100
AcDbEntity
8
0
100
AcDbCircle
10
-41.745315796834355
20
116.19364671490125
30
-6.2172489379008766e-13
40
1.25
210
0
220
0
230
1
0
CIRCLE
5
104
100
AcDbEntity
8
0
100
AcDbCircle
10
41.954585218066725
20
116.19364671490125
30
-6.2172489379008766e-13
40
1.2499999999999911
210
0
220
0
230
1
0
CIRCLE
5
105
100
AcDbEntity
8
0
100
AcDbCircle
10
-41.495315789383781
20
5.5511151231257827e-16
30
0
40
1.25
210
0
220
0
230
1
0
CIRCLE
5
106
100
AcDbEntity
8
0
100
AcDbCircle
10
0.10463471061618712
20
-125.19364670000019
30
7.460698725481052e-13
40
1.25
210
0
220
0
230
1
0
CIRCLE
5
107
100
AcDbEntity
8
0
100
AcDbCircle
10
41.704585210616152
20
5.5511151231257827e-16
30
0
40
1.25
210
0
220
0
230
1
0
CIRCLE
5
108
100
AcDbEntity
8
0
100
AcDbCircle
10
0.10463471061618712
20
125.19364670000016
30
-7.460698725481052e-13
40
1.25
210
0
220
0
230
1
0
CIRCLE
5
109
100
AcDbEntity
8
0
100
AcDbCircle
10
19.154585210616226
20
90.043646700000096
30
-4.7961634663806763e-13
40
1.0000000000000009
210
0
220
0
230
1
0
CIRCLE
5
110
100
AcDbEntity
8
0
100
AcDbCircle
10
-27.14531578938378
20
44.693646700000038
30
-2.3092638912203256e-13
40
0.99999999999999645
210
0
220
0
230
1
0
CIRCLE
5
111
100
AcDbEntity
8
0
100
AcDbCircle
10
0.054585210616227009
20
-16.64364670000003
30
1.0658141036401503e-13
40
0.99999999999999645
210
0
220
0
230
1
0
CIRCLE
5
112
100
AcDbEntity
8
0
100
AcDbCircle
10
-27.345315789383786
20
-60.893646700000055
30
3.3750779948604759e-13
40
0.99999999999998757
210
0
220
0
230
1
0
CIRCLE
5
113
100
AcDbEntity
8
0
100
AcDbCircle
10
21.45458521061623
20
-89.193646700000144
30
4.9737991503207013e-13
40
1.0000000000000009
210
0
220
0
230
1
0
CIRCLE
5
114
100
AcDbEntity
8
0
100
AcDbCircle
10
19.154585210616226
20
13.843646700000019
30
-7.1054273576010019e-14
40
0.99999999999999201
210
0
220
0
230
1
0
CIRCLE
5
115
100
AcDbEntity
8
0
100
AcDbCircle
10
-15.595315789383779
20
91.593646700000093
30
-4.9737991503207013e-13
40
0.99999999999999645
210
0
220
0
230
1
0
LINE
5
116
100
AcDbEntity
8
0
100
AcDbLine
10
37.704585225517313
20
123.19364671490123
30
0
11
7.1046347106161889
21
123.19364671490126
31
0
0
ARC
5
117
100
AcDbEntity
8
0
100
AcDbCircle
10
7.1046347106161889
20
125.19364671490123
30
0
40
2.0000000000000018
210
0
220
0
230
1
100
AcDbArc
50
180
51
270
0
LINE
5
118
100
AcDbEntity
8
0
100
AcDbLine
10
5.1046347106161871
20
125.19364671490123
30
0
11
5.1046347106161871
21
125.6936467000002
31
0
0
ARC
5
119
100
AcDbEntity
8
0
100
AcDbCircle
10
3.1046347106161853
20
125.6936467000002
30
0
40
2.0000000000000018
210
0
220
-0
230
1
100
AcDbArc
50
0
51
90
0
LINE
5
120
100
AcDbEntity
8
0
100
AcDbLine
10
3.1046347106161853
20
127.69364670000019
30
0
11
-2.8953652893838111
21
127.69364670000019
31
0
0
ARC
5
121
100
AcDbEntity
8
0
100
AcDbCircle
10
-2.8953652893838111
20
125.6936467000002
30
0
40
1.9999999999999929
210
0
220
-0
230
1
100
AcDbArc
50
89.999999999999986
51
180
0
LINE
5
122
100
AcDbEntity
8
0
100
AcDbLine
10
-4.895365289383804
20
125.6936467000002
30
0
11
-4.8953652893838129
21
125.19364671490126
31
0
0
ARC
5
123
100
AcDbEntity
8
0
100
AcDbCircle
10
-6.8953652893838147
20
125.19364671490126
30
0
40
1.9999999999999929
210
-0
220
0
230
1
100
AcDbArc
50
-90
51
0
0
LINE
5
124
100
AcDbEntity
8
0
100
AcDbLine
10
-6.8953652893838147
20
123.19364671490128
30
0
11
-37.495315804284928
21
123.19364671490128
31
0
0
ARC
5
125
100
AcDbEntity
8
0
100
AcDbCircle
10
-37.495315804284921
20
121.19364671490131
30
0
40
1.9999999999999751
210
0
220
0
230
1
100
AcDbArc
50
90.000000000000199
51
150.00000000000045
0
ARC
5
126
100
AcDbEntity
8
0
100
AcDbCircle
10
-40.959417419422707
20
123.19364671490123
30
0
40
1.9999999999999929
210
-0
220
0
230
1
100
AcDbArc
50
270
51
330.00000000000165
0
LINE
5
127
100
AcDbEntity
8
0
100
AcDbLine
10
-40.959417419422707
20
121.19364671490125
30
0
11
-41.995315789383781
21
121.19364671490125
31
0
0
ARC
5
128
100
AcDbEntity
8
0
100
AcDbCircle
10
-41.995315789383781
20
119.19364671490126
30
0
40
1.9999999999999929
210
0
220
-0
230
1
100
AcDbArc
50
90
51
180
0
LINE
5
129
100
AcDbEntity
8
0
100
AcDbLine
10
-43.995315789383781
20
119.19364671490126
30
0
11
-43.995315789383781
21
113.19364671490122
31
0
0
ARC
5
130
100
AcDbEntity
8
0
100
AcDbCircle
10
-41.995315789383781
20
113.19364671490122
30
0
40
1.9999999999999929
210
0
220
0
230
1
100
AcDbArc
50
180
51
270
0
LINE
5
131
100
AcDbEntity
8
0
100
AcDbLine
10
-41.995315789383781
20
111.19364671490123
30
0
11
-41.495315804284935
21
111.19364671490123
31
0
0
ARC
5
132
100
AcDbEntity
8
0
100
AcDbCircle
10
-41.495315804284935
20
109.19364671490122
30
0
40
2.0000000000000018
210
-0
220
0
230
1
100
AcDbArc
50
0
51
90
0
LINE
5
133
100
AcDbEntity
8
0
100
AcDbLine
10
-39.495315804284928
20
109.19364671490122
30
0
11
-39.495315804284928
21
6.9999999999999751
31
0
0
ARC
5
134
100
AcDbEntity
8
0
100
AcDbCircle
10
-41.495315804284935
20
6.9999999999999831
30
0
40
1.9999999999999996
210
-0
220
0
230
1
100
AcDbArc
50
270
51
360
0
LINE
5
135
100
AcDbEntity
8
0
100
AcDbLine
10
-41.495315804284935
20
4.9999999999999831
30
0
11
-42.204585210616159
21
4.9999999999999831
31
0
0
ARC
5
136
100
AcDbEntity
8
0
100
AcDbCircle
10
-42.204585210616159
20
2.9999999999999849
30
0
40
1.9999999999999978
210
0
220
-0
230
1
100
AcDbArc
50
90
51
180
0
LINE
5
137
100
AcDbEntity
8
0
100
AcDbLine
10
-44.204585210616152
20
2.9999999999999827
30
0
11
-44.204585210616152
21
-3.0000000000000169
31
0
0
ARC
5
138
100
AcDbEntity
8
0
100
AcDbCircle
10
-42.204585210616159
20
-3.0000000000000195
30
0
40
1.9999999999999929
210
0
220
0
230
1
100
AcDbArc
50
180
51
270
0
LINE
5
139
100
AcDbEntity
8
0
100
AcDbLine
10
-42.204585210616159
20
-5.0000000000000124
30
0
11
-41.495315804284942
21
-5.0000000000000178
31
0
0
ARC
5
140
100
AcDbEntity
8
0
100
AcDbCircle
10
-41.495315804284942
20
-7.0000000000000213
30
0
40
2.0000000000000018
210
0
220
-0
230
1
100
AcDbArc
50
0
51
90
0
LINE
5
141
100
AcDbEntity
8
0
100
AcDbLine
10
-39.495315804284942
20
-7.0000000000000107
30
0
11
-39.495315804284928
21
-109.19364671490129
31
0
0
ARC
5
142
100
AcDbEntity
8
0
100
AcDbCircle
10
-41.495315804284928
20
-109.19364671490129
30
0
40
1.9999999999999929
210
-0
220
0
230
1
100
AcDbArc
50
-90
51
0
0
LINE
5
143
100
AcDbEntity
8
0
100
AcDbLine
10
-41.495315804284928
20
-111.19364671490129
30
0
11
-41.995315789383781
21
-111.19364671490126
31
0
0
ARC
5
144
100
AcDbEntity
8
0
100
AcDbCircle
10
-41.995315789383781
20
-113.19364671490126
30
0
40
1.9999999999999929
210
0
220
-0
230
1
100
AcDbArc
50
90
51
180
0
LINE
5
145
100
AcDbEntity
8
0
100
AcDbLine
10
-43.995315789383781
20
-113.19364671490126
30
0
11
-43.995315789383781
21
-119.19364671490129
31
0
0
ARC
5
146
100
AcDbEntity
8
0
100
AcDbCircle
10
-41.995315789383781
20
-119.19364671490129
30
0
40
1.9999999999999929
210
0
220
0
230
1
100
AcDbArc
50
180
51
270
0
LINE
5
147
100
AcDbEntity
8
0
100
AcDbLine
10
-41.995315789383781
20
-121.19364671490129
30
0
11
-40.959417419422692
21
-121.19364671490129
31
0
0
ARC
5
148
100
AcDbEntity
8
0
100
AcDbCircle
10
-40.959417419422692
20
-123.19364671490128
30
0
40
1.9999999999999978
210
0
220
-0
230
1
100
AcDbArc
50
30.000000000000014
51
90
0
ARC
5
149
100
AcDbEntity
8
0
100
AcDbCircle
10
-37.495315804284971
20
-121.19364671490133
30
0
40
1.9999999999999405
210
0
220
0
230
1
100
AcDbArc
50
209.99999999999903
51
270.0000000000008
0
LINE
5
150
100
AcDbEntity
8
0
100
AcDbLine
10
-37.495315804284942
20
-123.19364671490128
30
0
11
-6.8953652893838147
21
-123.19364671490128
31
0
0
ARC
5
151
100
AcDbEntity
8
0
100
AcDbCircle
10
-6.8953652893838147
20
-125.19364671490126
30
0
40
2.0000000000000018
210
-0
220
0
230
1
100
AcDbArc
50
0
51
90
0
LINE
5
152
100
AcDbEntity
8
0
100
AcDbLine
10
-4.8953652893838129
20
-125.19364671490126
30
0
11
-4.8953652893838129
21
-125.6936467000002
31
0
0
ARC
5
153
100
AcDbEntity
8
0
100
AcDbCircle
10
-2.8953652893838111
20
-125.6936467000002
30
0
40
2.0000000000000018
210
0
220
0
230
1
100
AcDbArc
50
180
51
270
0
LINE
5
154
100
AcDbEntity
8
0
100
AcDbLine
10
-2.8953652893838111
20
-127.69364670000019
30
0
11
3.1046347106161853
21
-127.69364670000019
31
0
0
ARC
5
155
100
AcDbEntity
8
0
100
AcDbCircle
10
3.1046347106161853
20
-125.6936467000002
30
0
40
1.9999999999999929
210
0
220
0
230
1
100
AcDbArc
50
-90
51
0
0
LINE
5
156
100
AcDbEntity
8
0
100
AcDbLine
10
5.1046347106161782
20
-125.6936467000002
30
0
11
5.1046347106161871
21
-125.19364671490126
31
0
0
ARC
5
157
100
AcDbEntity
8
0
100
AcDbCircle
10
7.1046347106161889
20
-125.19364671490126
30
0
40
1.9999999999999929
210
0
220
-0
230
1
100
AcDbArc
50
90
51
180
0
LINE
5
158
100
AcDbEntity
8
0
100
AcDbLine
10
7.1046347106161889
20
-123.19364671490128
30
0
11
37.704585225517313
21
-123.19364671490128
31
0
0
ARC
5
159
100
AcDbEntity
8
0
100
AcDbCircle
10
37.70458522551727
20
-121.19364671490125
30
0
40
2.0000000000000284
210
-0
220
0
230
1
100
AcDbArc
50
270.00000000000119
51
330.00000000000006
0
ARC
5
160
100
AcDbEntity
8
0
100
AcDbCircle
10
41.168686840655077
20
-123.19364671490128
30
0
40
1.9999999999999929
210
0
220
-0
230
1
100
AcDbArc
50
90
51
149.99999999999997
0
LINE
5
161
100
AcDbEntity
8
0
100
AcDbLine
10
41.168686840655077
20
-121.19364671490129
30
0
11
42.204585210616152
21
-121.19364671490129
31
0
0
ARC
5
162
100
AcDbEntity
8
0
100
AcDbCircle
10
42.204585210616152
20
-119.19364671490129
30
0
40
1.9999999999999929
210
-0
220
0
230
1
100
AcDbArc
50
-90
51
0
0
LINE
5
163
100
AcDbEntity
8
0
100
AcDbLine
10
44.204585210616145
20
-119.19364671490129
30
0
11
44.204585210616152
21
-113.19364671490126
31
0
0
ARC
5
164
100
AcDbEntity
8
0
100
AcDbCircle
10
42.204585210616159
20
-113.19364671490126
30
0
40
1.9999999999999929
210
0
220
-0
230
1
100
AcDbArc
50
0
51
90.000000000000199
0
LINE
5
165
100
AcDbEntity
8
0
100
AcDbLine
10
42.204585210616152
20
-111.19364671490126
30
0
11
41.70458522551732
21
-111.19364671490126
31
0
0
ARC
5
166
100
AcDbEntity
8
0
100
AcDbCircle
10
41.70458522551732
20
-109.19364671490128
30
0
40
2.0000000000000018
210
0
220
0
230
1
100
AcDbArc
50
180
51
270
0
LINE
5
167
100
AcDbEntity
8
0
100
AcDbLine
10
39.704585225517313
20
-109.19364671490129
30
0
11
39.704585225517313
21
-100.69364668509893
31
0
0
ARC
5
168
100
AcDbEntity
8
0
100
AcDbCircle
10
37.70458522551732
20
-100.69364668509893
30
0
40
1.9999999999999929
210
0
220
-0
230
1
100
AcDbArc
50
0
51
90
0
LINE
5
169
100
AcDbEntity
8
0
100
AcDbLine
10
37.70458522551732
20
-98.69364668509894
30
0
11
31.204585210616152
21
-98.693646685098912
31
0
0
ARC
5
170
100
AcDbEntity
8
0
100
AcDbCircle
10
31.204585210616145
20
-97.693646700000102
30
0
40
0.99999998509882282
210
0
220
0
230
1
100
AcDbArc
50
180
51
270.0000000000004
0
LINE
5
171
100
AcDbEntity
8
0
100
AcDbLine
10
30.20458522551732
20
-97.693646700000087
30
0
11
30.20458522551732
21
-86.693646700000073
31
0
0
ARC
5
172
100
AcDbEntity
8
0
100
AcDbCircle
10
31.20458521061618
20
-86.693646700000102
30
0
40
0.99999998509886723
210
0
220
0
230
1
100
AcDbArc
50
90.000000000001634
51
180
0
LINE
5
173
100
AcDbEntity
8
0
100
AcDbLine
10
31.204585210616152
20
-85.693646714901234
30
0
11
37.704585225517313
21
-85.693646714901234
31
0
0
ARC
5
174
100
AcDbEntity
8
0
100
AcDbCircle
10
37.704585225517327
20
-83.693646714901263
30
0
40
1.9999999999999751
210
0
220
0
230
1
100
AcDbArc
50
269.99999999999983
51
360
0
LINE
5
175
100
AcDbEntity
8
0
100
AcDbLine
10
39.704585225517299
20
-83.693646714901291
30
0
11
39.704585225517313
21
-7.0000000000000107
31
0
0
ARC
5
176
100
AcDbEntity
8
0
100
AcDbCircle
10
41.70458522551732
20
-7.0000000000000213
30
0
40
2.0000000000000009
210
0
220
-0
230
1
100
AcDbArc
50
90
51
180
0
LINE
5
177
100
AcDbEntity
8
0
100
AcDbLine
10
41.70458522551732
20
-5.0000000000000213
30
0
11
42.204585210616152
21
-5.0000000000000178
31
0
0
ARC
5
178
100
AcDbEntity
8
0
100
AcDbCircle
10
42.204585210616152
20
-3.0000000000000182
30
0
40
1.9999999999999996
210
-0
220
0
230
1
100
AcDbArc
50
-90
51
0
0
LINE
5
179
100
AcDbEntity
8
0
100
AcDbLine
10
44.204585210616152
20
-3.000000000000016
30
0
11
44.204585210616152
21
2.9999999999999827
31
0
0
ARC
5
180
100
AcDbEntity
8
0
100
AcDbCircle
10
42.204585210616152
20
2.9999999999999809
30
0
40
2.0000000000000018
210
0
220
-0
230
1
100
AcDbArc
50
0
51
90
0
LINE
5
181
100
AcDbEntity
8
0
100
AcDbLine
10
42.204585210616152
20
4.9999999999999813
30
0
11
41.70458522551732
21
4.9999999999999831
31
0
0
ARC
5
182
100
AcDbEntity
8
0
100
AcDbCircle
10
41.70458522551732
20
6.9999999999999831
30
0
40
2.0000000000000018
210
0
220
0
230
1
100
AcDbArc
50
180
51
270
0
LINE
5
183
100
AcDbEntity
8
0
100
AcDbLine
10
39.704585225517313
20
6.9999999999999751
30
0
11
39.704585225517313
21
109.19364671490126
31
0
0
ARC
5
184
100
AcDbEntity
8
0
100
AcDbCircle
10
41.70458522551732
20
109.19364671490123
30
0
40
1.9999999999999929
210
0
220
-0
230
1
100
AcDbArc
50
90
51
180
0
LINE
5
185
100
AcDbEntity
8
0
100
AcDbLine
10
41.70458522551732
20
111.19364671490123
30
0
11
42.204585210616152
21
111.19364671490123
31
0
0
ARC
5
186
100
AcDbEntity
8
0
100
AcDbCircle
10
42.204585210616159
20
113.19364671490122
30
0
40
1.9999999999999929
210
0
220
0
230
1
100
AcDbArc
50
-90.000000000000199
51
0
0
LINE
5
187
100
AcDbEntity
8
0
100
AcDbLine
10
44.204585210616152
20
113.19364671490122
30
0
11
44.204585210616145
21
119.19364671490126
31
0
0
ARC
5
188
100
AcDbEntity
8
0
100
AcDbCircle
10
42.204585210616152
20
119.19364671490126
30
0
40
2.0000000000000018
210
0
220
-0
230
1
100
AcDbArc
50
0
51
90
0
LINE
5
189
100
AcDbEntity
8
0
100
AcDbLine
10
42.204585210616152
20
121.19364671490125
30
0
11
41.168686840655077
21
121.19364671490125
31
0
0
ARC
5
190
100
AcDbEntity
8
0
100
AcDbCircle
10
41.168686840655077
20
123.19364671490123
30
0
40
2.0000000000000013
210
0
220
0
230
1
100
AcDbArc
50
209.99999999999957
51
270
0
ARC
5
191
100
AcDbEntity
8
0
100
AcDbCircle
10
37.704585225517349
20
121.19364671490131
30
0
40
1.9999999999999443
210
0
220
-0
230
1
100
AcDbArc
50
29.999999999999027
51
90.000000000001009
0
ENDSEC
0
SECTION
2
OBJECTS
0
DICTIONARY
5
C
100
AcDbDictionary
3
ACAD_GROUP
350
D
3
ACAD_MLINESTYLE
350
17
0
DICTIONARY
5
D
100
AcDbDictionary
0
DICTIONARY
5
1A
330
C
100
AcDbDictionary
0
DICTIONARY
5
17
100
AcDbDictionary
0
ENDSEC
0
EOF
