0
SECTION
2
HEADER
9
$INSUNITS
70
4
9
$ACADVER
1
AC1014
9
$HANDSEED
5
FFFF
0
ENDSEC
0
SECTION
2
TABLES
0
TABLE
2
VPORT
5
8
100
AcDbSymbolTable
0
ENDTAB
0
TABLE
2
LTYPE
5
5
100
AcDbSymbolTable
0
LTYPE
5
14
100
AcDbSymbolTableRecord
100
AcDbLinetypeTableRecord
2
BYBLOCK
70
0
0
LTYPE
5
15
100
AcDbSymbolTableRecord
100
AcDbLinetypeTableRecord
2
BYLAYER
70
0
0
ENDTAB
0
TABLE
2
LAYER
5
2
100
AcDbSymbolTable
70
2
0
LAYER
5
50
100
AcDbSymbolTableRecord
100
AcDbLayerTableRecord
2
0
70
0
6
CONTINUOUS
0
ENDTAB
0
TABLE
2
STYLE
5
3
100
AcDbSymbolTable
70
1
0
STYLE
5
11
100
AcDbSymbolTableRecord
100
AcDbTextStyleTableRecord
2
STANDARD
70
0
0
ENDTAB
0
TABLE
2
VIEW
5
6
100
AcDbSymbolTable
70
0
0
ENDTAB
0
TABLE
2
UCS
5
7
100
AcDbSymbolTable
70
0
0
ENDTAB
0
TABLE
2
APPID
5
9
100
AcDbSymbolTable
70
2
0
APPID
5
12
100
AcDbSymbolTableRecord
100
AcDbRegAppTableRecord
2
ACAD
70
0
0
ENDTAB
0
TABLE
2
DIMSTYLE
5
A
100
AcDbSymbolTable
70
1
0
ENDTAB
0
TABLE
2
BLOCK_RECORD
5
1
100
AcDbSymbolTable
70
1
0
BLOCK_RECORD
5
1F
100
AcDbSymbolTableRecord
100
AcDbBlockTableRecord
2
*MODEL_SPACE
0
BLOCK_RECORD
5
1B
100
AcDbSymbolTableRecord
100
AcDbBlockTableRecord
2
*PAPER_SPACE
0
ENDTAB
0
ENDSEC
0
SECTION
2
BLOCKS
0
BLOCK
5
20
100
AcDbEntity
100
AcDbBlockBegin
2
*MODEL_SPACE
0
ENDBLK
5
21
100
AcDbEntity
100
AcDbBlockEnd
0
BLOCK
5
1C
100
AcDbEntity
100
AcDbBlockBegin
2
*PAPER_SPACE
0
ENDBLK
5
1D
100
AcDbEntity
100
AcDbBlockEnd
0
ENDSEC
0
SECTION
2
ENTITIES
0
LWPOLYLINE
5
100
100
AcDbEntity
8
0
100
AcDbPolyline
90
88
70
1
43
0.0
10
-232.14408892277916
20
-48.459178221773477
42
-0.27795123602523997
10
-231.13141363547069
20
-47.57905045742416
42
0.36432799313801278
10
-229.72450000000003
20
-45.904505628843275
10
-229.72450000000003
20
-39.904505628843268
42
-0.41421356237310014
10
-227.42449999999997
20
-37.604505628843263
10
-218.42449999999999
20
-37.604505628843292
42
-0.41421356237310014
10
-216.12449999999998
20
-39.90450562884326
10
-216.12449999999998
20
-45.904505628843275
42
0.41421356237309659
10
-214.42450000000002
20
-47.60450562884327
10
-196.66354452250363
20
-47.60450562884327
42
-0.32520708299900475
10
-195.42675405428548
20
-48.504069194780818
10
-195.04922682367533
20
-49.670102154305802
42
0.72733115373926138
10
-187.53623366697934
20
-49.670160378844493
10
-187.15866140920878
20
-48.504050024957962
42
-0.32520279827098103
10
-185.92187714778049
20
-47.604505628843299
10
-136.60347278093926
20
-47.604505628843242
42
-0.32520538614570549
10
-135.36668477071879
20
-48.50406160307331
10
-134.98881020461621
20
-49.671142899452235
42
0.72734397884238022
10
-127.43667737969506
20
-49.671028379065959
10
-127.05889113767441
20
-48.504099112513089
42
-0.32521377001621804
10
-125.82209098337285
20
-47.60450562884327
10
-76.503578720958174
20
-47.604505628843285
42
-0.32521377001621071
10
-75.26677856665664
20
-48.504099112513082
10
-74.88899232463595
20
-49.671028379065959
42
0.72734397884238378
10
-67.336859499714706
20
-49.671142899452249
10
-66.9589849336122
20
-48.504061603073296
42
-0.32520538614571021
10
-65.722196923391721
20
-47.604505628843285
10
-31.503578720958174
20
-47.60450562884327
42
-0.32521377001621882
10
-30.266778566656608
20
-48.504099112513117
10
-29.88899232463595
20
-49.67102837906598
42
0.72734397884238289
10
-22.336859499714702
20
-49.671142899452256
10
-21.958984933612236
20
-48.504061603073303
42
-0.32520538614569938
10
-20.722196923391749
20
-47.604505628843263
10
-9.1749999999999687
20
-47.60450562884327
42
0.41421356237309404
10
-6.2999999999999794
20
-44.729505628843278
10
-6.2999999999999803
20
-11.427199498541416
42
-0.32520538614568761
10
-5.4004440257699935
20
-10.190411488320946
10
-4.2330585293910872
20
-9.812438429128532
42
0.72733238582222959
10
-4.2330585293910863
20
-2.2965728285580349
10
-5.400444025770029
20
-1.9185997693655956
42
-0.3252053861456794
10
-6.2999999999999803
20
-0.68181175914514114
10
-6.2999999999999545
20
32.620494371156781
42
0.41421356237309531
10
-9.1749999999999687
20
35.495494371156809
10
-20.722196923391749
20
35.495494371156703
42
-0.3252053861457031
10
-21.958984933612239
20
36.395050345386757
10
-22.336859499714699
20
37.562131641765717
42
0.72734397884238389
10
-29.888992324635971
20
37.562017121379384
10
-30.266778566656608
20
36.395087854826528
42
-0.32521377001622714
10
-31.503578720958178
20
35.495494371156681
10
-65.722196923391778
20
35.49549437115683
42
-0.32520538614568334
10
-66.958984933612228
20
36.3950503453868
10
-67.336859499714805
20
37.562131641765788
42
0.72733238582222171
10
-74.852725100285198
20
37.562131641765724
10
-75.359998111688924
20
35.995397871156953
10
-75.45573238838432
20
35.995397871156911
42
-0.23093589675820225
10
-76.480352118180662
20
35.495494371156816
10
-125.82209098337285
20
35.495494371156688
42
-0.32521377001620927
10
-127.05889113767439
20
36.395087854826528
10
-127.43667737969501
20
37.562017121379441
42
0.72734397884237512
10
-134.9888102046163
20
37.56213164176566
10
-135.36668477071879
20
36.395050345386721
42
-0.3252053861457081
10
-136.60347278093926
20
35.495494371156681
10
-185.94528344860527
20
35.49549437115683
42
-0.27468840952876339
10
-187.08708039886201
20
36.173964223549774
10
-187.53654398346865
20
37.562140282942771
42
0.7273315066439211
10
-195.05064050028525
20
37.562131641765745
10
-195.49982088502168
20
36.174819362103364
42
-0.27488974172083419
10
-196.64208290975
20
35.495494371156802
10
-230.92183163323145
20
35.495494371156695
42
-0.32521377001620333
10
-232.15863178753301
20
36.395087854826549
10
-232.53641802955366
20
37.562017121379441
42
0.72734397884238355
10
-240.08855085447493
20
37.56213164176566
10
-240.46642542057737
20
36.395050345386736
42
-0.32520538614571431
10
-241.70321343079789
20
35.495494371156688
10
-253.21250000000003
20
35.495494371156781
42
0.41421356237310186
10
-256.08749999999998
20
32.620494371156795
10
-256.08749999999998
20
-0.6818117591451498
42
-0.32520538614568895
10
-256.98705597422997
20
-1.9185997693656243
10
-258.15444147060884
20
-2.2965728285580123
42
0.72733238582221704
10
-258.15444147060896
20
-9.8124384291285267
10
-256.98705597423003
20
-10.190411488320887
42
-0.32520538614567335
10
-256.08750000000003
20
-11.427199498541372
10
-256.08749999999998
20
-44.72950562884327
42
0.41421356237310047
10
-253.21249999999998
20
-47.604505628843285
10
-241.70321343079792
20
-47.604505628843242
42
-0.32520538614569666
10
-240.46642542057742
20
-48.504061603073332
10
-240.08855085447487
20
-49.671142899452235
42
0.72734397884238422
10
-232.53641802955366
20
-49.671028379065973
0
CIRCLE
5
101
100
AcDbEntity
8
0
100
AcDbCircle
10
-236.31253154489963
20
-49.754505628843262
30
0
40
1.0000000000000142
210
0
220
0
230
1
0
CIRCLE
5
102
100
AcDbEntity
8
0
100
AcDbCircle
10
-26.112878809290017
20
37.645494371156822
30
0
40
1.0000000000000009
210
0
220
0
230
1
0
CIRCLE
5
103
100
AcDbEntity
8
0
100
AcDbCircle
10
-131.212790895041
20
-49.754505628843262
30
0
40
0.99999999999999645
210
0
220
0
230
1
0
CIRCLE
5
104
100
AcDbEntity
8
0
100
AcDbCircle
10
-26.112878809290017
20
-49.754505628843262
30
0
40
1.0000000000000009
210
0
220
0
230
1
0
CIRCLE
5
105
100
AcDbEntity
8
0
100
AcDbCircle
10
-236.31253154489963
20
37.645494371156822
30
0
40
0.99999999999997868
210
0
220
0
230
1
0
CIRCLE
5
106
100
AcDbEntity
8
0
100
AcDbCircle
10
-131.212790895041
20
37.645494371156822
30
0
40
0.99999999999999645
210
0
220
0
230
1
0
LWPOLYLINE
5
107
100
AcDbEntity
8
0
100
AcDbPolyline
90
30
70
1
43
0.0
10
-212.41296771846982
20
-29.727742994648022
42
-0.080456532489292479
10
-211.39052701850824
20
-36.040606292195946
10
-211.39052701850829
20
-44.604505628843285
42
-0.41421356237309681
10
-214.39052701850829
20
-47.604505628843242
10
-231.24607547054569
20
-47.604505628843285
42
0.25375856260567559
10
-232.14408892277919
20
-48.459178221773485
10
-232.53641802955372
20
-49.671028379065973
42
-0.72734397884238322
10
-240.08855085447487
20
-49.671142899452235
10
-240.46642542057748
20
-48.504061603073339
42
0.32520538614570149
10
-241.70321343079792
20
-47.60450562884327
10
-253.21249999999998
20
-47.604505628843285
42
-0.41421356237310952
10
-256.08749999999998
20
-44.72950562884327
10
-256.08750000000009
20
-11.427199498541377
42
0.32520538614567929
10
-256.98705597423003
20
-10.190411488320903
10
-258.15444147060896
20
-9.8124384291285303
42
-0.72733238582222348
10
-258.15444147060884
20
-2.296572828558018
10
-256.98705597422997
20
-1.918599769365632
42
0.32520538614569128
10
-256.08749999999998
20
-0.68181175914515002
10
-256.08749999999998
20
32.620494371156795
42
-0.41421356237310863
10
-253.21250000000003
20
35.495494371156774
10
-241.70321343079789
20
35.49549437115671
42
0.32520538614572131
10
-240.46642542057739
20
36.395050345386736
10
-240.08855085447493
20
37.562131641765667
42
-0.72734397884237989
10
-232.53641802955366
20
37.562017121379448
10
-232.15863178753301
20
36.395087854826535
42
0.32521377001620277
10
-230.92183163323148
20
35.495494371156695
10
-214.3905270185077
20
35.495494371156752
42
-0.41421356237308943
10
-211.3905270185077
20
32.495494371156738
10
-211.39052701850775
20
23.93159503450919
42
-0.080456532489289898
10
-212.41296771846945
20
17.618731736961269
42
0.16196148273300542
0
CIRCLE
5
108
100
AcDbEntity
8
0
100
AcDbCircle
10
-236.31253154489963
20
37.645494371156822
30
0
40
0.99999999999997868
210
0
220
0
230
1
0
CIRCLE
5
109
100
AcDbEntity
8
0
100
AcDbCircle
10
-236.31253154489963
20
-49.754505628843262
30
0
40
1.0000000000000142
210
0
220
0
230
1
0
LWPOLYLINE
5
110
100
AcDbEntity
8
0
100
AcDbPolyline
90
30
70
1
43
0.0
10
-51.034883335681407
20
-36.040606292195939
42
-0.080456532489286331
10
-50.0124426357198
20
-29.727742994648011
42
0.16196148273300681
10
-50.012442635720184
20
17.618731736961312
42
-0.080456532489285998
10
-51.034883335681869
20
23.93159503450919
10
-51.03488333568194
20
32.495494371156738
42
-0.41421356237309681
10
-48.034883335681933
20
35.495494371156752
10
-31.503578720958139
20
35.495494371156695
42
0.3252137700161904
10
-30.266778566656605
20
36.395087854826535
10
-29.888992324635989
20
37.562017121379448
42
-0.72734397884238244
10
-22.336859499714699
20
37.562131641765667
10
-21.958984933612236
20
36.395050345386736
42
0.32520538614571071
10
-20.722196923391749
20
35.49549437115671
10
-9.2129103541896047
20
35.495494371156774
42
-0.41421356237310186
10
-6.3379103541896242
20
32.620494371156795
10
-6.3379103541896242
20
-0.68181175914515135
42
0.32520538614568945
10
-5.4383543799596623
20
-1.918599769365632
10
-4.2709688835807569
20
-2.2965728285580154
42
-0.72733238582221682
10
-4.2709688835806858
20
-9.8124384291285303
10
-5.4383543799595913
20
-10.190411488320905
42
0.32520538614567357
10
-6.3379103541895532
20
-11.427199498541377
10
-6.3379103541896065
20
-44.72950562884327
42
-0.41421356237310047
10
-9.2129103541896384
20
-47.604505628843285
10
-20.722196923391714
20
-47.60450562884327
42
0.32520538614569611
10
-21.958984933612165
20
-48.504061603073339
10
-22.336859499714752
20
-49.671142899452235
42
-0.72734397884238289
10
-29.88899232463595
20
-49.67102837906598
10
-30.281321431410433
20
-48.459178221773485
42
0.25375856260566748
10
-31.179334883643932
20
-47.60450562884327
10
-48.034883335681329
20
-47.604505628843228
42
-0.41421356237309243
10
-51.0348833356813
20
-44.604505628843285
0
CIRCLE
5
111
100
AcDbEntity
8
0
100
AcDbCircle
10
-26.112878809290017
20
37.645494371156822
30
0
40
0.99999999999997868
210
0
220
-0
230
1
0
CIRCLE
5
112
100
AcDbEntity
8
0
100
AcDbCircle
10
-26.112878809290017
20
-49.754505628843262
30
0
40
1.0000000000000142
210
0
220
-0
230
1
0
ENDSEC
0
SECTION
2
OBJECTS
0
DICTIONARY
5
C
100
AcDbDictionary
3
ACAD_GROUP
350
D
3
ACAD_MLINESTYLE
350
17
0
DICTIONARY
5
D
100
AcDbDictionary
0
DICTIONARY
5
1A
330
C
100
AcDbDictionary
0
DICTIONARY
5
17
100
AcDbDictionary
0
ENDSEC
0
EOF
