0
SECTION
2
HEADER
9
$INSUNITS
70
4
9
$ACADVER
1
AC1014
9
$HANDSEED
5
FFFF
0
ENDSEC
0
SECTION
2
TABLES
0
TABLE
2
VPORT
5
8
100
AcDbSymbolTable
0
ENDTAB
0
TABLE
2
LTYPE
5
5
100
AcDbSymbolTable
0
LTYPE
5
14
100
AcDbSymbolTableRecord
100
AcDbLinetypeTableRecord
2
BYBLOCK
70
0
0
LTYPE
5
15
100
AcDbSymbolTableRecord
100
AcDbLinetypeTableRecord
2
BYLAYER
70
0
0
ENDTAB
0
TABLE
2
LAYER
5
2
100
AcDbSymbolTable
70
2
0
LAYER
5
50
100
AcDbSymbolTableRecord
100
AcDbLayerTableRecord
2
0
70
0
6
CONTINUOUS
0
ENDTAB
0
TABLE
2
STYLE
5
3
100
AcDbSymbolTable
70
1
0
STYLE
5
11
100
AcDbSymbolTableRecord
100
AcDbTextStyleTableRecord
2
STANDARD
70
0
0
ENDTAB
0
TABLE
2
VIEW
5
6
100
AcDbSymbolTable
70
0
0
ENDTAB
0
TABLE
2
UCS
5
7
100
AcDbSymbolTable
70
0
0
ENDTAB
0
TABLE
2
APPID
5
9
100
AcDbSymbolTable
70
2
0
APPID
5
12
100
AcDbSymbolTableRecord
100
AcDbRegAppTableRecord
2
ACAD
70
0
0
ENDTAB
0
TABLE
2
DIMSTYLE
5
A
100
AcDbSymbolTable
70
1
0
ENDTAB
0
TABLE
2
BLOCK_RECORD
5
1
100
AcDbSymbolTable
70
1
0
BLOCK_RECORD
5
1F
100
AcDbSymbolTableRecord
100
AcDbBlockTableRecord
2
*MODEL_SPACE
0
BLOCK_RECORD
5
1B
100
AcDbSymbolTableRecord
100
AcDbBlockTableRecord
2
*PAPER_SPACE
0
ENDTAB
0
ENDSEC
0
SECTION
2
BLOCKS
0
BLOCK
5
20
100
AcDbEntity
100
AcDbBlockBegin
2
*MODEL_SPACE
0
ENDBLK
5
21
100
AcDbEntity
100
AcDbBlockEnd
0
BLOCK
5
1C
100
AcDbEntity
100
AcDbBlockBegin
2
*PAPER_SPACE
0
ENDBLK
5
1D
100
AcDbEntity
100
AcDbBlockEnd
0
ENDSEC
0
SECTION
2
ENTITIES
0
CIRCLE
5
100
100
AcDbEntity
8
0
100
AcDbCircle
10
105.11878154489962
20
43.699999999999989
30
-2.2204460492503131e-14
40
1.0000000000000142
210
0
220
0
230
1
0
CIRCLE
5
101
100
AcDbEntity
8
0
100
AcDbCircle
10
-105.08087119070998
20
-43.700000000000088
30
2.2204460492503131e-14
40
0.99999999999999645
210
0
220
0
230
1
0
CIRCLE
5
102
100
AcDbEntity
8
0
100
AcDbCircle
10
0.019040895040998151
20
43.699999999999989
30
-2.2204460492503131e-14
40
0.99999999999999645
210
0
220
0
230
1
0
CIRCLE
5
103
100
AcDbEntity
8
0
100
AcDbCircle
10
-105.08087119070998
20
43.699999999999989
30
-2.2204460492503131e-14
40
0.99999999999999645
210
0
220
0
230
1
0
CIRCLE
5
104
100
AcDbEntity
8
0
100
AcDbCircle
10
105.11878154489962
20
-43.700000000000088
30
2.2204460492503131e-14
40
0.99999999999997868
210
0
220
0
230
1
0
CIRCLE
5
105
100
AcDbEntity
8
0
100
AcDbCircle
10
0.019040895040998151
20
-43.700000000000088
30
2.2204460492503131e-14
40
0.99999999999999645
210
0
220
0
230
1
0
LINE
5
106
100
AcDbEntity
8
0
100
AcDbLine
10
-109.23476506638777
20
-42.449555974230023
30
0
11
-108.8568905002853
21
-43.61663727060899
31
0
0
ARC
5
107
100
AcDbEntity
8
0
100
AcDbCircle
10
-110.47155307660825
20
-42.849999999999966
30
0
40
1.2999999999999945
210
0
220
-0
230
1
100
AcDbArc
50
17.94078200365065
51
90
0
LINE
5
108
100
AcDbEntity
8
0
100
AcDbLine
10
-122.01875000000003
20
-41.550000000000097
30
0
11
-110.47155307660825
21
-41.549999999999976
31
0
0
ARC
5
109
100
AcDbEntity
8
0
100
AcDbCircle
10
-122.01875000000001
20
-38.675000000000068
30
0
40
2.875000000000032
210
0
220
0
230
1
100
AcDbArc
50
180
51
269.99999999999972
0
LINE
5
110
100
AcDbEntity
8
0
100
AcDbLine
10
-124.89375000000003
20
-5.3726938696981295
30
0
11
-124.89375000000004
21
-38.675000000000047
31
0
0
ARC
5
111
100
AcDbEntity
8
0
100
AcDbCircle
10
-126.19375000000002
20
-5.3726938696981295
30
0
40
1.3000000000000078
210
-0
220
0
230
1
100
AcDbArc
50
0
51
72.059217996344273
0
LINE
5
112
100
AcDbEntity
8
0
100
AcDbLine
10
-126.96069147060891
20
-3.7579328002852295
30
0
11
-125.79330597422997
21
-4.1359058594776785
31
0
0
ARC
5
113
100
AcDbEntity
8
0
100
AcDbCircle
10
-125.74395770000001
20
1.7763568394002505e-14
30
0
40
3.9499999999999842
210
0
220
0
230
1
100
AcDbArc
50
107.94078200365402
51
252.05921799634598
0
LINE
5
114
100
AcDbEntity
8
0
100
AcDbLine
10
-125.79330597423001
20
4.1359058594776776
30
0
11
-126.96069147060891
21
3.7579328002852641
31
0
0
ARC
5
115
100
AcDbEntity
8
0
100
AcDbCircle
10
-126.19375000000002
20
5.3726938696981463
30
0
40
1.2999999999999994
210
-0
220
0
230
1
100
AcDbArc
50
-72.059217996346248
51
0
0
LINE
5
116
100
AcDbEntity
8
0
100
AcDbLine
10
-124.89375000000001
20
38.675000000000004
30
0
11
-124.89375000000001
21
5.3726938696981463
31
0
0
ARC
5
117
100
AcDbEntity
8
0
100
AcDbCircle
10
-122.01875000000001
20
38.675000000000004
30
0
40
2.8749999999999964
210
0
220
0
230
1
100
AcDbArc
50
90.000000000000298
51
180
0
LINE
5
118
100
AcDbEntity
8
0
100
AcDbLine
10
-110.47155307660825
20
41.549999999999997
30
0
11
-122.01875000000003
21
41.550000000000004
31
0
0
ARC
5
119
100
AcDbEntity
8
0
100
AcDbCircle
10
-110.47155307660825
20
42.850000000000001
30
0
40
1.3000000000000078
210
-0
220
0
230
1
100
AcDbArc
50
270
51
342.05921799634848
0
LINE
5
120
100
AcDbEntity
8
0
100
AcDbLine
10
-108.8568905002853
20
43.61663727060899
30
0
11
-109.23476506638777
21
42.449555974230044
31
0
0
ARC
5
121
100
AcDbEntity
8
0
100
AcDbCircle
10
-105.08084262642271
20
42.394038248291182
30
0
40
3.9690409313931996
210
0
220
-0
230
1
100
AcDbArc
50
17.939044339619159
51
162.05921799634513
0
LINE
5
122
100
AcDbEntity
8
0
100
AcDbLine
10
-100.9269714333434
20
42.449593483669844
30
0
11
-101.30475767536404
21
43.616522750222714
31
0
0
ARC
5
123
100
AcDbEntity
8
0
100
AcDbCircle
10
-99.69017127904182
20
42.850000000000009
30
0
40
1.3000000000000165
210
0
220
0
230
1
100
AcDbArc
50
197.93904433961873
51
270
0
LINE
5
124
100
AcDbEntity
8
0
100
AcDbLine
10
-65.471553076608288
20
41.550000000000011
30
0
11
-99.69017127904182
21
41.550000000000004
31
0
0
ARC
5
125
100
AcDbEntity
8
0
100
AcDbCircle
10
-65.471553076608245
20
42.849999999999966
30
0
40
1.2999999999999545
210
0
220
0
230
1
100
AcDbArc
50
269.99999999999812
51
342.05921799634893
0
LINE
5
126
100
AcDbEntity
8
0
100
AcDbLine
10
-63.856890500285289
20
43.616637270608976
30
0
11
-64.234765066387794
21
42.449555974230023
31
0
0
ARC
5
127
100
AcDbEntity
8
0
100
AcDbCircle
10
-60.080842626422715
20
42.394038248291174
30
0
40
3.9690409313931885
210
0
220
-0
230
1
100
AcDbArc
50
17.939044339618992
51
162.05921799634521
0
LINE
5
128
100
AcDbEntity
8
0
100
AcDbLine
10
-55.926971433343354
20
42.449593483669815
30
0
11
-56.304757675364044
21
43.616522750222693
31
0
0
ARC
5
129
100
AcDbEntity
8
0
100
AcDbCircle
10
-54.69017127904182
20
42.850000000000001
30
0
40
1.2999999999999909
210
0
220
0
230
1
100
AcDbArc
50
197.93904433962018
51
270
0
LINE
5
130
100
AcDbEntity
8
0
100
AcDbLine
10
-5.3716590166271594
20
41.550000000000004
30
0
11
-54.69017127904182
21
41.550000000000004
31
0
0
ARC
5
131
100
AcDbEntity
8
0
100
AcDbCircle
10
-5.3716590166271416
20
42.849999999999994
30
0
40
1.2999999999999901
210
0
220
0
230
1
100
AcDbArc
50
269.9999999999992
51
342.06095566038044
0
LINE
5
132
100
AcDbEntity
8
0
100
AcDbLine
10
-3.7570726203049354
20
43.6165227502227
30
0
11
-4.1348588623256077
21
42.449593483669823
31
0
0
ARC
5
133
100
AcDbEntity
8
0
100
AcDbCircle
10
0.019012330753689355
20
42.394038248291167
30
0
40
3.9690409313931556
210
0
220
-0
230
1
100
AcDbArc
50
17.940782003654988
51
162.06095566038064
0
LINE
5
134
100
AcDbEntity
8
0
100
AcDbLine
10
4.1729347707187792
20
42.449555974230044
30
0
11
3.7950602046162274
21
43.616637270608969
31
0
0
ARC
5
135
100
AcDbEntity
8
0
100
AcDbCircle
10
5.4097227809392656
20
42.849999999999973
30
0
40
1.2999999999999921
210
0
220
0
230
1
100
AcDbArc
50
197.94078200364996
51
269.99999999999994
0
LINE
5
136
100
AcDbEntity
8
0
100
AcDbLine
10
54.728127147780498
20
41.550000000000026
30
0
11
5.4097227809392656
21
41.549999999999983
31
0
0
ARC
5
137
100
AcDbEntity
8
0
100
AcDbCircle
10
54.728127147780455
20
42.85000000000003
30
0
40
1.2999999999999989
210
-0
220
0
230
1
100
AcDbArc
50
270.00000000000188
51
342.05868162459717
0
LINE
5
138
100
AcDbEntity
8
0
100
AcDbLine
10
56.342483666979334
20
43.615654750001227
30
0
11
55.96491140920881
21
42.449544396114682
31
0
0
ARC
5
139
100
AcDbEntity
8
0
100
AcDbCircle
10
60.098970819380156
20
42.399350194698371
30
0
40
3.94849243349951
210
0
220
-0
230
1
100
AcDbArc
50
17.940430308486569
51
162.05868162459751
0
LINE
5
140
100
AcDbEntity
8
0
100
AcDbLine
10
64.233004054285473
20
42.449563565937545
30
0
11
63.855476823675318
21
43.615596525462536
31
0
0
ARC
5
141
100
AcDbEntity
8
0
100
AcDbCircle
10
65.469794522503634
20
42.84999999999998
30
0
40
1.2999999999999823
210
0
220
0
230
1
100
AcDbArc
50
197.94043030848266
51
270
0
LINE
5
142
100
AcDbEntity
8
0
100
AcDbLine
10
83.230750000000015
20
41.549999999999997
30
0
11
65.469794522503634
21
41.549999999999997
31
0
0
ARC
5
143
100
AcDbEntity
8
0
100
AcDbCircle
10
83.230750000000015
20
39.850000000000009
30
0
40
1.6999999999999815
210
-0
220
0
230
1
100
AcDbArc
50
0
51
90
0
LINE
5
144
100
AcDbEntity
8
0
100
AcDbLine
10
84.930749999999989
20
33.849999999999994
30
0
11
84.930749999999989
21
39.850000000000001
31
0
0
ARC
5
145
100
AcDbEntity
8
0
100
AcDbCircle
10
87.230749999999958
20
33.849999999999987
30
0
40
2.2999999999999687
210
0
220
0
230
1
100
AcDbArc
50
180
51
270.00000000000108
0
LINE
5
146
100
AcDbEntity
8
0
100
AcDbLine
10
96.230749999999986
20
31.549999999999994
30
0
11
87.23075
21
31.549999999999997
31
0
0
ARC
5
147
100
AcDbEntity
8
0
100
AcDbCircle
10
96.230750000000015
20
33.849999999999994
30
0
40
2.2999999999999998
210
0
220
0
230
1
100
AcDbArc
50
-90.000000000000711
51
0
0
LINE
5
148
100
AcDbEntity
8
0
100
AcDbLine
10
98.530749999999955
20
39.850000000000001
30
0
11
98.530749999999983
21
33.849999999999994
31
0
0
ARC
5
149
100
AcDbEntity
8
0
100
AcDbCircle
10
100.23075
20
39.84999999999998
30
0
40
1.7000000000000286
210
0
220
0
230
1
100
AcDbArc
50
99.927607308846206
51
180
0
ARC
5
150
100
AcDbEntity
8
0
100
AcDbCircle
10
99.713538768477633
20
42.805079109260404
30
0
40
1.3000000000000207
210
-0
220
0
230
1
100
AcDbArc
50
279.92760730884822
51
342.06095566037965
0
LINE
5
151
100
AcDbEntity
8
0
100
AcDbLine
10
101.34266802955372
20
43.6165227502227
30
0
11
100.95033892277917
21
42.404672592930211
31
0
0
ARC
5
152
100
AcDbEntity
8
0
100
AcDbCircle
10
105.11875298061233
20
42.394038248291182
30
0
40
3.9690409313931498
210
0
220
-0
230
1
100
AcDbArc
50
17.940782003654757
51
162.06095566038064
0
LINE
5
153
100
AcDbEntity
8
0
100
AcDbLine
10
109.27267542057743
20
42.449555974230066
30
0
11
108.89480085447487
21
43.616637270608969
31
0
0
ARC
5
154
100
AcDbEntity
8
0
100
AcDbCircle
10
110.50946343079795
20
42.850000000000009
30
0
40
1.3000000000000311
210
0
220
0
230
1
100
AcDbArc
50
197.94078200365007
51
269.99999999999875
0
LINE
5
155
100
AcDbEntity
8
0
100
AcDbLine
10
122.01875
20
41.549999999999997
30
0
11
110.50946343079792
21
41.550000000000004
31
0
0
ARC
5
156
100
AcDbEntity
8
0
100
AcDbCircle
10
122.01875000000003
20
38.675000000000011
30
0
40
2.8749999999999787
210
-0
220
0
230
1
100
AcDbArc
50
0
51
90.000000000000583
0
LINE
5
157
100
AcDbEntity
8
0
100
AcDbLine
10
124.89375000000004
20
5.3726938696981064
30
0
11
124.89375000000001
21
38.675000000000004
31
0
0
ARC
5
158
100
AcDbEntity
8
0
100
AcDbCircle
10
126.19375000000011
20
5.3726938696981357
30
0
40
1.3000000000000611
210
0
220
0
230
1
100
AcDbArc
50
180
51
252.05921799634447
0
LINE
5
159
100
AcDbEntity
8
0
100
AcDbLine
10
126.96069147060895
20
3.7579328002852641
30
0
11
125.79330597423004
21
4.1359058594776332
31
0
0
ARC
5
160
100
AcDbEntity
8
0
100
AcDbCircle
10
125.74395769999994
20
1.5543122344752192e-14
30
0
40
3.9500000000000184
210
-0
220
0
230
1
100
AcDbArc
50
-72.059217996345524
51
72.059217996344429
0
LINE
5
161
100
AcDbEntity
8
0
100
AcDbLine
10
125.79330597422997
20
-4.1359058594776439
30
0
11
126.96069147060888
21
-3.7579328002852557
31
0
0
ARC
5
162
100
AcDbEntity
8
0
100
AcDbCircle
10
126.19374999999999
20
-5.3726938696980913
30
0
40
1.2999999999999838
210
0
220
0
230
1
100
AcDbArc
50
107.94078200365468
51
180
0
LINE
5
163
100
AcDbEntity
8
0
100
AcDbLine
10
124.89375000000001
20
-38.675000000000068
30
0
11
124.89375000000001
21
-5.3726938696981197
31
0
0
ARC
5
164
100
AcDbEntity
8
0
100
AcDbCircle
10
122.01875000000007
20
-38.675000000000097
30
0
40
2.8749999999999476
210
0
220
0
230
1
100
AcDbArc
50
-90.000000000000867
51
0
0
LINE
5
165
100
AcDbEntity
8
0
100
AcDbLine
10
110.50946343079788
20
-41.549999999999955
30
0
11
122.01875000000003
21
-41.550000000000047
31
0
0
ARC
5
166
100
AcDbEntity
8
0
100
AcDbCircle
10
110.50946343079785
20
-42.849999999999923
30
0
40
1.2999999999999634
210
0
220
-0
230
1
100
AcDbArc
50
89.999999999998749
51
162.05921799634984
0
LINE
5
167
100
AcDbEntity
8
0
100
AcDbLine
10
108.89480085447494
20
-43.616637270608933
30
0
11
109.2726754205774
21
-42.449555974230009
31
0
0
ARC
5
168
100
AcDbEntity
8
0
100
AcDbCircle
10
105.11875298061233
20
-42.394038248291146
30
0
40
3.9690409313932107
210
0
220
0
230
1
100
AcDbArc
50
197.93904433961964
51
342.05921799634569
0
LINE
5
169
100
AcDbEntity
8
0
100
AcDbLine
10
100.96488178753303
20
-42.449593483669815
30
0
11
101.34266802955365
21
-43.616522750222714
31
0
0
ARC
5
170
100
AcDbEntity
8
0
100
AcDbCircle
10
99.728081633231426
20
-42.85000000000003
30
0
40
1.3000000000000667
210
0
220
-0
230
1
100
AcDbArc
50
17.939044339620441
51
89.999999999998749
0
LINE
5
171
100
AcDbEntity
8
0
100
AcDbLine
10
65.448332909750008
20
-41.550000000000068
30
0
11
99.728081633231454
21
-41.549999999999955
31
0
0
ARC
5
172
100
AcDbEntity
8
0
100
AcDbCircle
10
65.44833290975005
20
-42.850000000000115
30
0
40
1.3000000000000522
210
0
220
0
230
1
100
AcDbArc
50
90.00000000000189
51
151.48151163241099
0
LINE
5
173
100
AcDbEntity
8
0
100
AcDbLine
10
63.85689050028526
20
-43.616637270609019
30
0
11
64.306070885021654
21
-42.229324990946623
31
0
0
ARC
5
174
100
AcDbEntity
8
0
100
AcDbCircle
10
60.099840842962479
20
-42.400189441746221
30
0
40
3.9490717197759571
210
0
220
0
230
1
100
AcDbArc
50
197.94091378342918
51
342.05921799634581
0
LINE
5
175
100
AcDbEntity
8
0
100
AcDbLine
10
55.893330398862005
20
-42.22846985239304
30
0
11
56.342793983468638
21
-43.616645911786037
31
0
0
ARC
5
176
100
AcDbEntity
8
0
100
AcDbCircle
10
54.751533448605315
20
-42.850000000000051
30
0
40
1.2999999999999483
210
0
220
-0
230
1
100
AcDbArc
50
28.561390786717386
51
90.000000000001251
0
LINE
5
177
100
AcDbEntity
8
0
100
AcDbLine
10
5.4097227809392656
20
-41.549999999999947
30
0
11
54.751533448605286
21
-41.550000000000097
31
0
0
ARC
5
178
100
AcDbEntity
8
0
100
AcDbCircle
10
5.4097227809392479
20
-42.849999999999923
30
0
40
1.2999999999999723
210
0
220
-0
230
1
100
AcDbArc
50
89.999999999999218
51
162.05921799634979
0
LINE
5
179
100
AcDbEntity
8
0
100
AcDbLine
10
3.7950602046162984
20
-43.616637270608933
30
0
11
4.1729347707187792
21
-42.449555974229995
31
0
0
ARC
5
180
100
AcDbEntity
8
0
100
AcDbCircle
10
0.019012330753689355
20
-42.39403824829111
30
0
40
3.9690409313932244
210
0
220
0
230
1
100
AcDbArc
50
197.93904433962021
51
342.05921799634501
0
LINE
5
181
100
AcDbEntity
8
0
100
AcDbLine
10
-4.1348588623256077
20
-42.449593483669794
30
0
11
-3.7570726203049887
21
-43.616522750222714
31
0
0
ARC
5
182
100
AcDbEntity
8
0
100
AcDbCircle
10
-5.3716590166271772
20
-42.84999999999998
30
0
40
1.3000000000000247
210
0
220
-0
230
1
100
AcDbArc
50
17.939044339619713
51
89.999999999999218
0
LINE
5
183
100
AcDbEntity
8
0
100
AcDbLine
10
-54.713397881819347
20
-41.550000000000082
30
0
11
-5.3716590166271594
21
-41.549999999999955
31
0
0
ARC
5
184
100
AcDbEntity
8
0
100
AcDbCircle
10
-54.713397881819354
20
-42.850000000000072
30
0
40
1.2999999999999812
210
0
220
-0
230
1
100
AcDbArc
50
89.999999999999702
51
142.01473156357477
0
LINE
5
185
100
AcDbEntity
8
0
100
AcDbLine
10
-55.83375188831107
20
-42.049903500000227
30
0
11
-55.738017611615675
21
-42.049903500000184
31
0
0
LINE
5
186
100
AcDbEntity
8
0
100
AcDbLine
10
-56.341024899714817
20
-43.61663727060899
30
0
11
-55.83375188831107
21
-42.049903500000227
31
0
0
ARC
5
187
100
AcDbEntity
8
0
100
AcDbCircle
10
-60.098957700000014
20
-42.3999035000001
30
0
40
3.9499999999999358
210
0
220
0
230
1
100
AcDbArc
50
197.94078200365527
51
342.05921799634592
0
LINE
5
188
100
AcDbEntity
8
0
100
AcDbLine
10
-64.234765066387766
20
-42.449555974230066
30
0
11
-63.856890500285189
21
-43.616637270609061
31
0
0
ARC
5
189
100
AcDbEntity
8
0
100
AcDbCircle
10
-65.471553076608217
20
-42.850000000000094
30
0
40
1.2999999999999854
210
0
220
-0
230
1
100
AcDbArc
50
17.940782003654302
51
90
0
LINE
5
190
100
AcDbEntity
8
0
100
AcDbLine
10
-99.69017127904182
20
-41.549999999999947
30
0
11
-65.471553076608217
21
-41.550000000000097
31
0
0
ARC
5
191
100
AcDbEntity
8
0
100
AcDbCircle
10
-99.690171279041834
20
-42.84999999999993
30
0
40
1.2999999999999901
210
0
220
-0
230
1
100
AcDbArc
50
89.999999999998749
51
162.06095566038198
0
LINE
5
192
100
AcDbEntity
8
0
100
AcDbLine
10
-101.30475767536403
20
-43.616522750222657
30
0
11
-100.92697143334341
21
-42.449593483669794
31
0
0
ARC
5
193
100
AcDbEntity
8
0
100
AcDbCircle
10
-105.08084262642271
20
-42.394038248291153
30
0
40
3.9690409313932138
210
0
220
0
230
1
100
AcDbArc
50
197.94078200365522
51
342.0609556603813
0
ENDSEC
0
SECTION
2
OBJECTS
0
DICTIONARY
5
C
100
AcDbDictionary
3
ACAD_GROUP
350
D
3
ACAD_MLINESTYLE
350
17
0
DICTIONARY
5
D
100
AcDbDictionary
0
DICTIONARY
5
1A
330
C
100
AcDbDictionary
0
DICTIONARY
5
17
100
AcDbDictionary
0
ENDSEC
0
EOF
