0
SECTION
2
HEADER
9
$INSUNITS
70
4
9
$ACADVER
1
AC1014
9
$HANDSEED
5
FFFF
0
ENDSEC
0
SECTION
2
TABLES
0
TABLE
2
VPORT
5
8
100
AcDbSymbolTable
0
ENDTAB
0
TABLE
2
LTYPE
5
5
100
AcDbSymbolTable
0
LTYPE
5
14
100
AcDbSymbolTableRecord
100
AcDbLinetypeTableRecord
2
BYBLOCK
70
0
0
LTYPE
5
15
100
AcDbSymbolTableRecord
100
AcDbLinetypeTableRecord
2
BYLAYER
70
0
0
ENDTAB
0
TABLE
2
LAYER
5
2
100
AcDbSymbolTable
70
2
0
LAYER
5
50
100
AcDbSymbolTableRecord
100
AcDbLayerTableRecord
2
0
70
0
6
CONTINUOUS
0
ENDTAB
0
TABLE
2
STYLE
5
3
100
AcDbSymbolTable
70
1
0
STYLE
5
11
100
AcDbSymbolTableRecord
100
AcDbTextStyleTableRecord
2
STANDARD
70
0
0
ENDTAB
0
TABLE
2
VIEW
5
6
100
AcDbSymbolTable
70
0
0
ENDTAB
0
TABLE
2
UCS
5
7
100
AcDbSymbolTable
70
0
0
ENDTAB
0
TABLE
2
APPID
5
9
100
AcDbSymbolTable
70
2
0
APPID
5
12
100
AcDbSymbolTableRecord
100
AcDbRegAppTableRecord
2
ACAD
70
0
0
ENDTAB
0
TABLE
2
DIMSTYLE
5
A
100
AcDbSymbolTable
70
1
0
ENDTAB
0
TABLE
2
BLOCK_RECORD
5
1
100
AcDbSymbolTable
70
1
0
BLOCK_RECORD
5
1F
100
AcDbSymbolTableRecord
100
AcDbBlockTableRecord
2
*MODEL_SPACE
0
BLOCK_RECORD
5
1B
100
AcDbSymbolTableRecord
100
AcDbBlockTableRecord
2
*PAPER_SPACE
0
ENDTAB
0
ENDSEC
0
SECTION
2
BLOCKS
0
BLOCK
5
20
100
AcDbEntity
100
AcDbBlockBegin
2
*MODEL_SPACE
0
ENDBLK
5
21
100
AcDbEntity
100
AcDbBlockEnd
0
BLOCK
5
1C
100
AcDbEntity
100
AcDbBlockBegin
2
*PAPER_SPACE
0
ENDBLK
5
1D
100
AcDbEntity
100
AcDbBlockEnd
0
ENDSEC
0
SECTION
2
ENTITIES
0
CIRCLE
5
100
100
AcDbEntity
8
0
100
AcDbCircle
10
104.75500000000011
20
42.862499999999969
30
0
40
2.4500000149011569
210
0
220
0
230
1
0
CIRCLE
5
101
100
AcDbEntity
8
0
100
AcDbCircle
10
104.75500000000011
20
33.337499999999977
30
0
40
2.4500000149011569
210
0
220
0
230
1
0
CIRCLE
5
102
100
AcDbEntity
8
0
100
AcDbCircle
10
128.58750000000009
20
30.956249999999983
30
0
40
2.7499999999999858
210
0
220
0
230
1
0
CIRCLE
5
103
100
AcDbEntity
8
0
100
AcDbCircle
10
166.68750000000014
20
30.956249999999983
30
0
40
2.7499999999999858
210
0
220
0
230
1
0
CIRCLE
5
104
100
AcDbEntity
8
0
100
AcDbCircle
10
166.68750000000014
20
-7.1437500000000309
30
0
40
2.7499999999999858
210
0
220
0
230
1
0
CIRCLE
5
105
100
AcDbEntity
8
0
100
AcDbCircle
10
147.63750000000013
20
-26.193750000000023
30
0
40
2.7499999999999858
210
0
220
0
230
1
0
CIRCLE
5
106
100
AcDbEntity
8
0
100
AcDbCircle
10
-66.674999999999926
20
-35.718750000000014
30
0
40
2.7500000000000036
210
0
220
0
230
1
0
CIRCLE
5
107
100
AcDbEntity
8
0
100
AcDbCircle
10
-42.862499999999919
20
-35.718750000000014
30
0
40
2.7500000000000036
210
0
220
0
230
1
0
CIRCLE
5
108
100
AcDbEntity
8
0
100
AcDbCircle
10
128.58750000000009
20
-7.1437500000000309
30
0
40
2.7499999999999858
210
0
220
0
230
1
0
LINE
5
109
100
AcDbEntity
8
0
100
AcDbLine
10
169.21250000000003
20
-3.5317500000000379
30
0
11
168.71250000000006
21
-3.5317500000000113
31
0
0
ARC
5
110
100
AcDbEntity
8
0
100
AcDbCircle
10
168.71250000000015
20
-3.0317499999999864
30
0
40
0.50000000000004263
210
0
220
0
230
1
100
AcDbArc
50
180
51
269.99999999998698
0
LINE
5
111
100
AcDbEntity
8
0
100
AcDbLine
10
168.21250000000009
20
-3.0317500000000397
30
0
11
168.21250000000009
21
2.9682499999999656
31
0
0
ARC
5
112
100
AcDbEntity
8
0
100
AcDbCircle
10
168.71250000000006
20
2.9682500000000012
30
0
40
0.4999999999999627
210
0
220
-0
230
1
100
AcDbArc
50
90
51
180
0
LINE
5
113
100
AcDbEntity
8
0
100
AcDbLine
10
168.71250000000006
20
3.4682499999999639
30
0
11
169.21250000000003
21
3.4682499999999639
31
0
0
LINE
5
114
100
AcDbEntity
8
0
100
AcDbLine
10
169.21250000000003
20
3.4682499999999639
30
0
11
169.21250000000003
21
20.34424999999997
31
0
0
LINE
5
115
100
AcDbEntity
8
0
100
AcDbLine
10
169.21250000000003
20
20.34424999999997
30
0
11
168.71250000000006
21
20.344249999999995
31
0
0
ARC
5
116
100
AcDbEntity
8
0
100
AcDbCircle
10
168.71250000000015
20
20.844250000000024
30
0
40
0.50000000000004263
210
0
220
0
230
1
100
AcDbArc
50
180
51
269.99999999998698
0
LINE
5
117
100
AcDbEntity
8
0
100
AcDbLine
10
168.21250000000009
20
20.844249999999967
30
0
11
168.21250000000009
21
26.844249999999974
31
0
0
ARC
5
118
100
AcDbEntity
8
0
100
AcDbCircle
10
168.71250000000006
20
26.844250000000009
30
0
40
0.4999999999999627
210
0
220
-0
230
1
100
AcDbArc
50
90
51
180
0
LINE
5
119
100
AcDbEntity
8
0
100
AcDbLine
10
168.71250000000006
20
27.344249999999974
30
0
11
169.21250000000003
21
27.344249999999974
31
0
0
LINE
5
120
100
AcDbEntity
8
0
100
AcDbLine
10
169.21250000000003
20
27.344249999999974
30
0
11
169.21250000000012
21
27.931249999999981
31
0
0
ARC
5
121
100
AcDbEntity
8
0
100
AcDbCircle
10
169.71249999999995
20
27.931250000000123
30
0
40
0.49999999999985612
210
0
220
-0
230
1
100
AcDbArc
50
89.999999999983714
51
180
0
LINE
5
122
100
AcDbEntity
8
0
100
AcDbLine
10
169.71250000000009
20
28.431249999999977
30
0
11
182.71250000000006
21
28.431250000000013
31
0
0
ARC
5
123
100
AcDbEntity
8
0
100
AcDbCircle
10
182.71250000000006
20
27.931249999999981
30
0
40
0.50000000000004263
210
0
220
-0
230
1
100
AcDbArc
50
0
51
90
0
LINE
5
124
100
AcDbEntity
8
0
100
AcDbLine
10
183.21250000000009
20
27.931249999999981
30
0
11
183.21250000000009
21
-4.1187500000000288
31
0
0
ARC
5
125
100
AcDbEntity
8
0
100
AcDbCircle
10
182.7125000000002
20
-4.1187500000001087
30
0
40
0.49999999999992717
210
0
220
0
230
1
100
AcDbArc
50
-90.000000000016286
51
0
0
LINE
5
126
100
AcDbEntity
8
0
100
AcDbLine
10
182.71250000000006
20
-4.6187500000000359
30
0
11
169.71250000000009
21
-4.6187500000000181
31
0
0
ARC
5
127
100
AcDbEntity
8
0
100
AcDbCircle
10
169.71250000000015
20
-4.1187499999999488
30
0
40
0.50000000000004263
210
0
220
0
230
1
100
AcDbArc
50
180
51
269.99999999999346
0
LINE
5
128
100
AcDbEntity
8
0
100
AcDbLine
10
169.21250000000012
20
-4.1187500000000288
30
0
11
169.21250000000003
21
-3.5317500000000379
31
0
0
LINE
5
129
100
AcDbEntity
8
0
100
AcDbLine
10
65.524500000000046
20
33.481249999999989
30
0
11
64.937500000000085
21
33.481249999999989
31
0
0
LINE
5
130
100
AcDbEntity
8
0
100
AcDbLine
10
65.524500000000046
20
32.981249999999996
30
0
11
65.524500000000046
21
33.481249999999989
31
0
0
ARC
5
131
100
AcDbEntity
8
0
100
AcDbCircle
10
66.024500000000117
20
32.981250000000045
30
0
40
0.50000000000007816
210
0
220
0
230
1
100
AcDbArc
50
180
51
269.99999999999511
0
LINE
5
132
100
AcDbEntity
8
0
100
AcDbLine
10
72.024500000000103
20
32.481249999999989
30
0
11
66.024500000000074
21
32.48124999999996
31
0
0
ARC
5
133
100
AcDbEntity
8
0
100
AcDbCircle
10
72.024500000000131
20
32.981250000000003
30
0
40
0.50000000000001599
210
0
220
0
230
1
100
AcDbArc
50
269.99999999999676
51
360
0
LINE
5
134
100
AcDbEntity
8
0
100
AcDbLine
10
72.524500000000074
20
33.481249999999989
30
0
11
72.524500000000131
21
32.981249999999996
31
0
0
LINE
5
135
100
AcDbEntity
8
0
100
AcDbLine
10
89.400500000000108
20
33.481249999999974
30
0
11
72.524500000000074
21
33.481249999999989
31
0
0
LINE
5
136
100
AcDbEntity
8
0
100
AcDbLine
10
89.400500000000108
20
32.981249999999996
30
0
11
89.400500000000108
21
33.481249999999974
31
0
0
ARC
5
137
100
AcDbEntity
8
0
100
AcDbCircle
10
89.900500000000108
20
32.981249999999996
30
0
40
0.50000000000000711
210
0
220
0
230
1
100
AcDbArc
50
180
51
269.99999999999676
0
LINE
5
138
100
AcDbEntity
8
0
100
AcDbLine
10
95.900500000000022
20
32.481249999999989
30
0
11
89.900500000000079
21
32.481249999999989
31
0
0
ARC
5
139
100
AcDbEntity
8
0
100
AcDbCircle
10
95.900500000000051
20
32.981249999999996
30
0
40
0.50000000000000711
210
0
220
0
230
1
100
AcDbArc
50
269.99999999999676
51
360
0
LINE
5
140
100
AcDbEntity
8
0
100
AcDbLine
10
96.400500000000051
20
33.481249999999974
30
0
11
96.400500000000051
21
32.981249999999989
31
0
0
LINE
5
141
100
AcDbEntity
8
0
100
AcDbLine
10
96.987500000000153
20
33.481249999999974
30
0
11
96.400500000000051
21
33.481249999999974
31
0
0
ARC
5
142
100
AcDbEntity
8
0
100
AcDbCircle
10
96.987500000000068
20
33.981250000000031
30
0
40
0.50000000000005151
210
-0
220
0
230
1
100
AcDbArc
50
270.00000000000978
51
360
0
LINE
5
143
100
AcDbEntity
8
0
100
AcDbLine
10
97.487500000000125
20
46.981249999999974
30
0
11
97.487500000000125
21
33.981249999999974
31
0
0
ARC
5
144
100
AcDbEntity
8
0
100
AcDbCircle
10
96.987500000000153
20
46.981249999999982
30
0
40
0.49999999999997158
210
-0
220
0
230
1
100
AcDbArc
50
0
51
90
0
LINE
5
145
100
AcDbEntity
8
0
100
AcDbLine
10
64.937500000000085
20
47.481249999999982
30
0
11
96.987500000000153
21
47.481249999999953
31
0
0
ARC
5
146
100
AcDbEntity
8
0
100
AcDbCircle
10
64.937500000000128
20
46.981249999999939
30
0
40
0.50000000000004263
210
0
220
0
230
1
100
AcDbArc
50
90.000000000004889
51
180
0
LINE
5
147
100
AcDbEntity
8
0
100
AcDbLine
10
64.437500000000114
20
33.981249999999982
30
0
11
64.437500000000085
21
46.981249999999982
31
0
0
ARC
5
148
100
AcDbEntity
8
0
100
AcDbCircle
10
64.937500000000128
20
33.981249999999989
30
0
40
0.50000000000000711
210
0
220
0
230
1
100
AcDbArc
50
180
51
269.99999999999511
0
LINE
5
149
100
AcDbEntity
8
0
100
AcDbLine
10
168.21250000000009
20
-41.131750000000011
30
0
11
168.21250000000009
21
-35.131750000000011
31
0
0
ARC
5
150
100
AcDbEntity
8
0
100
AcDbCircle
10
168.7125000000002
20
-41.131749999999904
30
0
40
0.50000000000011369
210
0
220
0
230
1
100
AcDbArc
50
180
51
269.99999999998369
0
LINE
5
151
100
AcDbEntity
8
0
100
AcDbLine
10
169.21250000000003
20
-41.631750000000054
30
0
11
168.71250000000006
21
-41.631750000000018
31
0
0
LINE
5
152
100
AcDbEntity
8
0
100
AcDbLine
10
169.21250000000012
20
-42.218750000000036
30
0
11
169.21250000000003
21
-41.631750000000054
31
0
0
ARC
5
153
100
AcDbEntity
8
0
100
AcDbCircle
10
169.71250000000015
20
-42.218749999999979
30
0
40
0.50000000000004263
210
0
220
0
230
1
100
AcDbArc
50
180
51
269.99999999998698
0
LINE
5
154
100
AcDbEntity
8
0
100
AcDbLine
10
182.71250000000006
20
-42.718750000000043
30
0
11
169.71250000000009
21
-42.718750000000021
31
0
0
ARC
5
155
100
AcDbEntity
8
0
100
AcDbCircle
10
182.71250000000012
20
-42.218750000000036
30
0
40
0.50000000000000711
210
0
220
0
230
1
100
AcDbArc
50
-90.000000000006523
51
0
0
LINE
5
156
100
AcDbEntity
8
0
100
AcDbLine
10
183.21250000000009
20
-10.168750000000033
30
0
11
183.21250000000009
21
-42.218750000000036
31
0
0
ARC
5
157
100
AcDbEntity
8
0
100
AcDbCircle
10
182.71250000000006
20
-10.168750000000015
30
0
40
0.50000000000004263
210
-0
220
0
230
1
100
AcDbArc
50
0
51
90
0
LINE
5
158
100
AcDbEntity
8
0
100
AcDbLine
10
169.71250000000009
20
-9.6687500000000437
30
0
11
182.71250000000006
21
-9.6687499999999726
31
0
0
ARC
5
159
100
AcDbEntity
8
0
100
AcDbCircle
10
169.71250000000001
20
-10.168749999999944
30
0
40
0.49999999999990052
210
0
220
-0
230
1
100
AcDbArc
50
89.999999999990237
51
180
0
LINE
5
160
100
AcDbEntity
8
0
100
AcDbLine
10
169.21250000000003
20
-10.755750000000033
30
0
11
169.21250000000012
21
-10.168750000000033
31
0
0
LINE
5
161
100
AcDbEntity
8
0
100
AcDbLine
10
168.71250000000006
20
-10.755750000000015
30
0
11
169.21250000000003
21
-10.755750000000033
31
0
0
ARC
5
162
100
AcDbEntity
8
0
100
AcDbCircle
10
168.71250000000006
20
-11.255750000000004
30
0
40
0.49999999999998934
210
0
220
-0
230
1
100
AcDbArc
50
90
51
180
0
LINE
5
163
100
AcDbEntity
8
0
100
AcDbLine
10
168.21250000000009
20
-17.255750000000035
30
0
11
168.21250000000009
21
-11.255750000000022
31
0
0
ARC
5
164
100
AcDbEntity
8
0
100
AcDbCircle
10
168.7125000000002
20
-17.255749999999949
30
0
40
0.50000000000011369
210
0
220
0
230
1
100
AcDbArc
50
180
51
269.99999999998369
0
LINE
5
165
100
AcDbEntity
8
0
100
AcDbLine
10
169.21250000000003
20
-17.755750000000027
30
0
11
168.71250000000006
21
-17.755750000000063
31
0
0
LINE
5
166
100
AcDbEntity
8
0
100
AcDbLine
10
169.21250000000003
20
-34.631750000000025
30
0
11
169.21250000000003
21
-17.755750000000027
31
0
0
LINE
5
167
100
AcDbEntity
8
0
100
AcDbLine
10
168.71250000000006
20
-34.631750000000004
30
0
11
169.21250000000003
21
-34.631750000000025
31
0
0
ARC
5
168
100
AcDbEntity
8
0
100
AcDbCircle
10
168.71250000000006
20
-35.131749999999997
30
0
40
0.49999999999998934
210
0
220
-0
230
1
100
AcDbArc
50
90
51
180
0
ARC
5
169
100
AcDbEntity
8
0
100
AcDbCircle
10
-183.33749999999998
20
-47.606250000000038
30
0
40
2.3999999999999844
210
0
220
0
230
1
100
AcDbArc
50
180
51
270
0
LINE
5
170
100
AcDbEntity
8
0
100
AcDbLine
10
-183.33749999999995
20
-50.006250000000037
30
0
11
183.33750000000003
21
-50.006250000000023
31
0
0
ARC
5
171
100
AcDbEntity
8
0
100
AcDbCircle
10
183.33749999999998
20
-47.606250000000017
30
0
40
2.4000000000000021
210
-0
220
0
230
1
100
AcDbArc
50
270
51
360
0
LINE
5
172
100
AcDbEntity
8
0
100
AcDbLine
10
185.73750000000001
20
-47.606250000000038
30
0
11
185.73750000000001
21
47.606250000000017
31
0
0
ARC
5
173
100
AcDbEntity
8
0
100
AcDbCircle
10
183.33749999999998
20
47.606249999999989
30
0
40
2.4000000000000199
210
0
220
-0
230
1
100
AcDbArc
50
0
51
90
0
LINE
5
174
100
AcDbEntity
8
0
100
AcDbLine
10
183.33749999999998
20
50.006250000000009
30
0
11
-183.33749999999992
21
50.006250000000023
31
0
0
ARC
5
175
100
AcDbEntity
8
0
100
AcDbCircle
10
-183.33749999999995
20
47.606250000000031
30
0
40
2.3999999999999844
210
0
220
-0
230
1
100
AcDbArc
50
89.999999999999332
51
180
0
LINE
5
176
100
AcDbEntity
8
0
100
AcDbLine
10
-185.73749999999993
20
47.606250000000031
30
0
11
-185.73749999999995
21
-47.606250000000045
31
0
0
ARC
5
177
100
AcDbEntity
8
0
100
AcDbCircle
10
36.362500000000111
20
27.931249999999963
30
0
40
0.50000000000003375
210
0
220
-0
230
1
100
AcDbArc
50
90
51
180
0
LINE
5
178
100
AcDbEntity
8
0
100
AcDbLine
10
35.862500000000068
20
14.931249999999991
30
0
11
35.862500000000068
21
27.931249999999999
31
0
0
ARC
5
179
100
AcDbEntity
8
0
100
AcDbCircle
10
36.362500000000004
20
14.931249999999974
30
0
40
0.49999999999993605
210
0
220
0
230
1
100
AcDbArc
50
180
51
270.00000000000813
0
LINE
5
180
100
AcDbEntity
8
0
100
AcDbLine
10
49.362500000000118
20
14.431249999999993
30
0
11
36.362500000000075
21
14.431250000000038
31
0
0
ARC
5
181
100
AcDbEntity
8
0
100
AcDbCircle
10
49.362500000000047
20
14.931250000000027
30
0
40
0.50000000000003375
210
-0
220
0
230
1
100
AcDbArc
50
270.00000000000813
51
360
0
LINE
5
182
100
AcDbEntity
8
0
100
AcDbLine
10
49.86250000000009
20
27.931249999999999
30
0
11
49.86250000000009
21
14.931249999999991
31
0
0
ARC
5
183
100
AcDbEntity
8
0
100
AcDbCircle
10
49.362500000000082
20
27.931249999999999
30
0
40
0.50000000000000711
210
0
220
-0
230
1
100
AcDbArc
50
0
51
89.999999999995936
0
LINE
5
184
100
AcDbEntity
8
0
100
AcDbLine
10
36.362500000000111
20
28.431249999999999
30
0
11
49.362500000000118
21
28.431249999999977
31
0
0
LINE
5
185
100
AcDbEntity
8
0
100
AcDbLine
10
-54.624999999999915
20
-4.1187499999999932
30
0
11
-54.624999999999915
21
8.8812500000000139
31
0
0
ARC
5
186
100
AcDbEntity
8
0
100
AcDbCircle
10
-54.124999999999943
20
8.8812500000000316
30
0
40
0.49999999999998046
210
0
220
-0
230
1
100
AcDbArc
50
89.999999999995936
51
180
0
LINE
5
187
100
AcDbEntity
8
0
100
AcDbLine
10
-54.124999999999908
20
9.3812500000000121
30
0
11
-41.124999999999936
21
9.3812500000000298
31
0
0
ARC
5
188
100
AcDbEntity
8
0
100
AcDbCircle
10
-41.124999999999936
20
8.8812500000000139
30
0
40
0.50000000000000711
210
0
220
-0
230
1
100
AcDbArc
50
0
51
90
0
LINE
5
189
100
AcDbEntity
8
0
100
AcDbLine
10
-40.624999999999929
20
8.8812500000000139
30
0
11
-40.624999999999929
21
-4.1187499999999932
31
0
0
ARC
5
190
100
AcDbEntity
8
0
100
AcDbCircle
10
-41.124999999999936
20
-4.1187500000000021
30
0
40
0.49999999999999822
210
-0
220
0
230
1
100
AcDbArc
50
-90
51
0
0
LINE
5
191
100
AcDbEntity
8
0
100
AcDbLine
10
-41.124999999999936
20
-4.6187500000000004
30
0
11
-54.124999999999908
21
-4.6187500000000092
31
0
0
ARC
5
192
100
AcDbEntity
8
0
100
AcDbCircle
10
-54.124999999999908
20
-4.1187499999999932
30
0
40
0.50000000000000711
210
0
220
0
230
1
100
AcDbArc
50
180
51
270
0
LINE
5
193
100
AcDbEntity
8
0
100
AcDbLine
10
-7.2874999999999446
20
27.931250000000006
30
0
11
-7.2874999999999091
21
14.93125
31
0
0
ARC
5
194
100
AcDbEntity
8
0
100
AcDbCircle
10
-7.7874999999999162
20
14.931250000000027
30
0
40
0.50000000000002487
210
0
220
0
230
1
100
AcDbArc
50
269.99999999999591
51
360
0
LINE
5
195
100
AcDbEntity
8
0
100
AcDbLine
10
-7.7874999999999517
20
14.431250000000002
30
0
11
-20.787499999999923
21
14.431249999999984
31
0
0
ARC
5
196
100
AcDbEntity
8
0
100
AcDbCircle
10
-20.787499999999923
20
14.93125
30
0
40
0.50000000000000711
210
0
220
0
230
1
100
AcDbArc
50
180
51
270
0
LINE
5
197
100
AcDbEntity
8
0
100
AcDbLine
10
-21.28749999999993
20
14.93125
30
0
11
-21.28749999999993
21
27.931250000000006
31
0
0
ARC
5
198
100
AcDbEntity
8
0
100
AcDbCircle
10
-20.787499999999923
20
27.931250000000006
30
0
40
0.49999999999999822
210
0
220
-0
230
1
100
AcDbArc
50
90
51
180
0
LINE
5
199
100
AcDbEntity
8
0
100
AcDbLine
10
-20.787499999999923
20
28.431250000000006
30
0
11
-7.7874999999999517
21
28.431250000000013
31
0
0
ARC
5
200
100
AcDbEntity
8
0
100
AcDbCircle
10
-7.7874999999999162
20
27.931250000000063
30
0
40
0.49999999999997158
210
-0
220
0
230
1
100
AcDbArc
50
0
51
90.000000000004079
0
LINE
5
201
100
AcDbEntity
8
0
100
AcDbLine
10
131.1125000000001
20
-23.168750000000003
30
0
11
131.11250000000001
21
-10.168750000000033
31
0
0
ARC
5
202
100
AcDbEntity
8
0
100
AcDbCircle
10
131.61250000000007
20
-10.168750000000051
30
0
40
0.50000000000002487
210
0
220
-0
230
1
100
AcDbArc
50
90
51
180
0
LINE
5
203
100
AcDbEntity
8
0
100
AcDbLine
10
131.61250000000007
20
-9.6687500000000259
30
0
11
144.6125000000001
21
-9.6687500000000437
31
0
0
ARC
5
204
100
AcDbEntity
8
0
100
AcDbCircle
10
144.61249999999995
20
-10.168750000000122
30
0
40
0.50000000000011369
210
0
220
-0
230
1
100
AcDbArc
50
0
51
89.999999999983714
0
LINE
5
205
100
AcDbEntity
8
0
100
AcDbLine
10
145.11250000000007
20
-10.168750000000033
30
0
11
145.11250000000007
21
-23.168750000000003
31
0
0
ARC
5
206
100
AcDbEntity
8
0
100
AcDbCircle
10
144.6125000000001
20
-23.168750000000024
30
0
40
0.49999999999998934
210
-0
220
0
230
1
100
AcDbArc
50
-90
51
0
0
LINE
5
207
100
AcDbEntity
8
0
100
AcDbLine
10
144.6125000000001
20
-23.66875000000001
30
0
11
131.61250000000007
21
-23.668749999999974
31
0
0
ARC
5
208
100
AcDbEntity
8
0
100
AcDbCircle
10
131.61250000000007
20
-23.168750000000003
30
0
40
0.49999999999997158
210
0
220
0
230
1
100
AcDbArc
50
180
51
270
0
LINE
5
209
100
AcDbEntity
8
0
100
AcDbLine
10
55.412500000000087
20
28.431249999999999
30
0
11
68.412500000000136
21
28.431250000000023
31
0
0
ARC
5
210
100
AcDbEntity
8
0
100
AcDbCircle
10
68.412500000000051
20
27.931249999999981
30
0
40
0.50000000000004263
210
0
220
-0
230
1
100
AcDbArc
50
0
51
89.999999999990237
0
LINE
5
211
100
AcDbEntity
8
0
100
AcDbLine
10
68.912500000000108
20
27.931249999999991
30
0
11
68.912500000000108
21
14.931249999999991
31
0
0
ARC
5
212
100
AcDbEntity
8
0
100
AcDbCircle
10
68.412500000000051
20
14.931250000000027
30
0
40
0.50000000000003375
210
-0
220
0
230
1
100
AcDbArc
50
270.00000000000978
51
360
0
LINE
5
213
100
AcDbEntity
8
0
100
AcDbLine
10
68.412500000000136
20
14.431249999999993
30
0
11
55.412500000000087
21
14.43124999999994
31
0
0
ARC
5
214
100
AcDbEntity
8
0
100
AcDbCircle
10
55.412500000000122
20
14.931250000000018
30
0
40
0.50000000000007816
210
0
220
0
230
1
100
AcDbArc
50
180
51
269.99999999999591
0
LINE
5
215
100
AcDbEntity
8
0
100
AcDbLine
10
54.912500000000044
20
14.931249999999991
30
0
11
54.912500000000115
21
27.931249999999999
31
0
0
ARC
5
216
100
AcDbEntity
8
0
100
AcDbCircle
10
55.412500000000158
20
27.931249999999963
30
0
40
0.50000000000003375
210
0
220
0
230
1
100
AcDbArc
50
90.000000000008143
51
180
0
LINE
5
217
100
AcDbEntity
8
0
100
AcDbLine
10
30.812500000000078
20
27.931249999999999
30
0
11
30.812500000000078
21
14.93125
31
0
0
ARC
5
218
100
AcDbEntity
8
0
100
AcDbCircle
10
30.312500000000036
20
14.931250000000027
30
0
40
0.50000000000002487
210
-0
220
0
230
1
100
AcDbArc
50
270.00000000000813
51
360
0
LINE
5
219
100
AcDbEntity
8
0
100
AcDbLine
10
30.312500000000107
20
14.431250000000002
30
0
11
17.312500000000099
21
14.431249999999993
31
0
0
ARC
5
220
100
AcDbEntity
8
0
100
AcDbCircle
10
17.312500000000064
20
14.931249999999947
30
0
40
0.49999999999997158
210
0
220
0
230
1
100
AcDbArc
50
180
51
270.00000000000409
0
LINE
5
221
100
AcDbEntity
8
0
100
AcDbLine
10
16.812500000000092
20
14.93125
30
0
11
16.812500000000057
21
27.931249999999999
31
0
0
ARC
5
222
100
AcDbEntity
8
0
100
AcDbCircle
10
17.312500000000099
20
27.931249999999963
30
0
40
0.50000000000003375
210
0
220
-0
230
1
100
AcDbArc
50
90
51
180
0
LINE
5
223
100
AcDbEntity
8
0
100
AcDbLine
10
17.312500000000099
20
28.431249999999999
30
0
11
30.312500000000107
21
28.431249999999977
31
0
0
ARC
5
224
100
AcDbEntity
8
0
100
AcDbCircle
10
30.312500000000071
20
27.931249999999999
30
0
40
0.50000000000000711
210
0
220
-0
230
1
100
AcDbArc
50
0
51
89.999999999995936
0
LINE
5
225
100
AcDbEntity
8
0
100
AcDbLine
10
26.337500000000063
20
33.981249999999996
30
0
11
26.337500000000063
21
46.981250000000003
31
0
0
ARC
5
226
100
AcDbEntity
8
0
100
AcDbCircle
10
26.837500000000141
20
46.981249999999918
30
0
40
0.50000000000007816
210
0
220
0
230
1
100
AcDbArc
50
90.000000000008143
51
180
0
LINE
5
227
100
AcDbEntity
8
0
100
AcDbLine
10
26.83750000000007
20
47.481250000000003
30
0
11
39.837500000000077
21
47.481250000000003
31
0
0
ARC
5
228
100
AcDbEntity
8
0
100
AcDbCircle
10
39.837500000000112
20
46.981250000000045
30
0
40
0.49999999999997158
210
-0
220
0
230
1
100
AcDbArc
50
0
51
90.000000000004079
0
LINE
5
229
100
AcDbEntity
8
0
100
AcDbLine
10
40.337500000000084
20
46.981249999999989
30
0
11
40.337500000000084
21
33.981249999999989
31
0
0
ARC
5
230
100
AcDbEntity
8
0
100
AcDbCircle
10
39.837500000000112
20
33.981249999999989
30
0
40
0.49999999999998046
210
0
220
0
230
1
100
AcDbArc
50
-90.000000000004079
51
0
0
LINE
5
231
100
AcDbEntity
8
0
100
AcDbLine
10
39.837500000000077
20
33.481250000000003
30
0
11
26.83750000000007
21
33.481250000000003
31
0
0
ARC
5
232
100
AcDbEntity
8
0
100
AcDbCircle
10
26.837499999999999
20
33.98124999999996
30
0
40
0.49999999999993605
210
0
220
0
230
1
100
AcDbArc
50
180
51
270.00000000000813
0
LINE
5
233
100
AcDbEntity
8
0
100
AcDbLine
10
-150.16249999999997
20
46.981250000000017
30
0
11
-150.16249999999991
21
33.981250000000017
31
0
0
ARC
5
234
100
AcDbEntity
8
0
100
AcDbCircle
10
-150.66249999999994
20
33.981250000000017
30
0
40
0.49999999999999822
210
-0
220
0
230
1
100
AcDbArc
50
-90
51
0
0
LINE
5
235
100
AcDbEntity
8
0
100
AcDbLine
10
-150.66249999999994
20
33.481250000000024
30
0
11
-163.66249999999991
21
33.481249999999967
31
0
0
ARC
5
236
100
AcDbEntity
8
0
100
AcDbCircle
10
-163.66249999999991
20
33.981250000000017
30
0
40
0.50000000000004263
210
0
220
0
230
1
100
AcDbArc
50
180
51
270
0
LINE
5
237
100
AcDbEntity
8
0
100
AcDbLine
10
-164.16249999999994
20
33.981250000000017
30
0
11
-164.16249999999991
21
46.981250000000017
31
0
0
ARC
5
238
100
AcDbEntity
8
0
100
AcDbCircle
10
-163.66249999999991
20
46.981250000000031
30
0
40
0.49999999999999822
210
0
220
-0
230
1
100
AcDbArc
50
90
51
180
0
LINE
5
239
100
AcDbEntity
8
0
100
AcDbLine
10
-163.66249999999991
20
47.481250000000017
30
0
11
-150.66249999999994
21
47.481249999999982
31
0
0
ARC
5
240
100
AcDbEntity
8
0
100
AcDbCircle
10
-150.66249999999994
20
46.981250000000031
30
0
40
0.49999999999997158
210
-0
220
0
230
1
100
AcDbArc
50
0
51
90
0
ARC
5
241
100
AcDbEntity
8
0
100
AcDbCircle
10
93.519250000000085
20
-5.1187499999999986
30
0
40
0.50000000000001599
210
0
220
0
230
1
100
AcDbArc
50
269.99999999999676
51
360
0
LINE
5
242
100
AcDbEntity
8
0
100
AcDbLine
10
94.019250000000028
20
8.8812499999999961
30
0
11
94.019250000000085
21
-5.1187500000000075
31
0
0
ARC
5
243
100
AcDbEntity
8
0
100
AcDbCircle
10
93.519250000000014
20
8.8812499999999961
30
0
40
0.50000000000000711
210
0
220
-0
230
1
100
AcDbArc
50
0
51
89.999999999995111
0
LINE
5
244
100
AcDbEntity
8
0
100
AcDbLine
10
87.519250000000113
20
9.3812499999999943
30
0
11
93.519250000000056
21
9.3812500000000032
31
0
0
ARC
5
245
100
AcDbEntity
8
0
100
AcDbCircle
10
87.51925000000017
20
8.8812499999999694
30
0
40
0.50000000000002487
210
0
220
0
230
1
100
AcDbArc
50
90.000000000006523
51
180
0
LINE
5
246
100
AcDbEntity
8
0
100
AcDbLine
10
87.019250000000142
20
-5.1187500000000075
30
0
11
87.019250000000142
21
8.8812499999999961
31
0
0
ARC
5
247
100
AcDbEntity
8
0
100
AcDbCircle
10
87.519250000000142
20
-5.1187500000000075
30
0
40
0.50000000000000711
210
0
220
0
230
1
100
AcDbArc
50
180
51
269.99999999999676
0
LINE
5
248
100
AcDbEntity
8
0
100
AcDbLine
10
93.519250000000056
20
-5.6187500000000146
30
0
11
87.519250000000113
21
-5.6187499999999879
31
0
0
LINE
5
249
100
AcDbEntity
8
0
100
AcDbLine
10
22.075000000000067
20
9.3812500000000032
30
0
11
35.075000000000074
21
9.3812500000000032
31
0
0
ARC
5
250
100
AcDbEntity
8
0
100
AcDbCircle
10
35.075000000000109
20
8.8812500000000405
30
0
40
0.49999999999997158
210
-0
220
0
230
1
100
AcDbArc
50
0
51
90.000000000004079
0
LINE
5
251
100
AcDbEntity
8
0
100
AcDbLine
10
35.575000000000081
20
8.881250000000005
30
0
11
35.575000000000081
21
-4.1187499999999932
31
0
0
ARC
5
252
100
AcDbEntity
8
0
100
AcDbCircle
10
35.075000000000109
20
-4.1187500000000465
30
0
40
0.49999999999995381
210
0
220
0
230
1
100
AcDbArc
50
-90.000000000004079
51
0
0
LINE
5
253
100
AcDbEntity
8
0
100
AcDbLine
10
35.075000000000074
20
-4.6187500000000004
30
0
11
22.075000000000067
21
-4.6187499999999826
31
0
0
ARC
5
254
100
AcDbEntity
8
0
100
AcDbCircle
10
22.074999999999996
20
-4.1187500000000288
30
0
40
0.49999999999993605
210
0
220
0
230
1
100
AcDbArc
50
180
51
270.00000000000813
0
LINE
5
255
100
AcDbEntity
8
0
100
AcDbLine
10
21.57500000000006
20
-4.1187499999999932
30
0
11
21.575000000000095
21
8.881250000000005
31
0
0
ARC
5
256
100
AcDbEntity
8
0
100
AcDbCircle
10
22.075000000000138
20
8.8812499999999694
30
0
40
0.50000000000003375
210
0
220
0
230
1
100
AcDbArc
50
90.000000000008143
51
180
0
LINE
5
257
100
AcDbEntity
8
0
100
AcDbLine
10
163.66250000000005
20
-4.6187500000000359
30
0
11
150.66250000000008
21
-4.6187500000000181
31
0
0
ARC
5
258
100
AcDbEntity
8
0
100
AcDbCircle
10
150.66250000000014
20
-4.1187499999999488
30
0
40
0.50000000000004263
210
0
220
0
230
1
100
AcDbArc
50
180
51
269.99999999999022
0
LINE
5
259
100
AcDbEntity
8
0
100
AcDbLine
10
150.16250000000011
20
-4.1187500000000288
30
0
11
150.16250000000011
21
8.8812499999999872
31
0
0
ARC
5
260
100
AcDbEntity
8
0
100
AcDbCircle
10
150.66249999999994
20
8.8812500000001293
30
0
40
0.49999999999985612
210
0
220
-0
230
1
100
AcDbArc
50
89.999999999983714
51
180
0
LINE
5
261
100
AcDbEntity
8
0
100
AcDbLine
10
150.66250000000008
20
9.3812499999999854
30
0
11
163.66250000000005
21
9.381249999999941
31
0
0
ARC
5
262
100
AcDbEntity
8
0
100
AcDbCircle
10
163.66249999999997
20
8.8812499999998984
30
0
40
0.50000000000004263
210
0
220
-0
230
1
100
AcDbArc
50
0
51
89.999999999990237
0
LINE
5
263
100
AcDbEntity
8
0
100
AcDbLine
10
164.16250000000002
20
8.8812499999999872
30
0
11
164.16250000000008
21
-4.1187500000000288
31
0
0
ARC
5
264
100
AcDbEntity
8
0
100
AcDbCircle
10
163.66250000000019
20
-4.1187500000001087
30
0
40
0.49999999999992717
210
0
220
0
230
1
100
AcDbArc
50
-90.000000000016286
51
0
0
ARC
5
265
100
AcDbEntity
8
0
100
AcDbCircle
10
-82.699999999999903
20
-10.168750000000015
30
0
40
0.50000000000002487
210
0
220
0
230
1
100
AcDbArc
50
90.000000000003254
51
180
0
LINE
5
266
100
AcDbEntity
8
0
100
AcDbLine
10
-83.199999999999903
20
-23.168750000000003
30
0
11
-83.199999999999932
21
-10.168749999999998
31
0
0
ARC
5
267
100
AcDbEntity
8
0
100
AcDbCircle
10
-82.699999999999932
20
-23.168750000000003
30
0
40
0.49999999999997158
210
0
220
0
230
1
100
AcDbArc
50
180
51
270
0
LINE
5
268
100
AcDbEntity
8
0
100
AcDbLine
10
-69.69999999999996
20
-23.668749999999974
30
0
11
-82.699999999999932
21
-23.668749999999974
31
0
0
ARC
5
269
100
AcDbEntity
8
0
100
AcDbCircle
10
-69.69999999999996
20
-23.168750000000003
30
0
40
0.49999999999997158
210
-0
220
0
230
1
100
AcDbArc
50
-90
51
0
0
LINE
5
270
100
AcDbEntity
8
0
100
AcDbLine
10
-69.199999999999989
20
-10.168749999999998
30
0
11
-69.199999999999989
21
-23.168750000000003
31
0
0
ARC
5
271
100
AcDbEntity
8
0
100
AcDbCircle
10
-69.69999999999996
20
-10.168749999999998
30
0
40
0.49999999999997158
210
0
220
-0
230
1
100
AcDbArc
50
0
51
90
0
LINE
5
272
100
AcDbEntity
8
0
100
AcDbLine
10
-82.699999999999932
20
-9.6687499999999904
30
0
11
-69.69999999999996
21
-9.6687500000000259
31
0
0
LINE
5
273
100
AcDbEntity
8
0
100
AcDbLine
10
-106.51249999999993
20
47.481250000000017
30
0
11
-93.512499999999903
21
47.481249999999982
31
0
0
ARC
5
274
100
AcDbEntity
8
0
100
AcDbCircle
10
-93.512499999999903
20
46.98125000000001
30
0
40
0.49999999999997158
210
0
220
-0
230
1
100
AcDbArc
50
0
51
90
0
LINE
5
275
100
AcDbEntity
8
0
100
AcDbLine
10
-93.012499999999932
20
46.98125000000001
30
0
11
-93.012499999999875
21
33.98125000000001
31
0
0
ARC
5
276
100
AcDbEntity
8
0
100
AcDbCircle
10
-93.512499999999861
20
33.98125000000001
30
0
40
0.49999999999999378
210
0
220
0
230
1
100
AcDbArc
50
-90.000000000004889
51
0
0
LINE
5
277
100
AcDbEntity
8
0
100
AcDbLine
10
-93.512499999999903
20
33.481250000000017
30
0
11
-106.51249999999993
21
33.481249999999967
31
0
0
ARC
5
278
100
AcDbEntity
8
0
100
AcDbCircle
10
-106.51249999999992
20
33.981250000000031
30
0
40
0.5000000000000604
210
0
220
0
230
1
100
AcDbArc
50
180
51
269.99999999999835
0
LINE
5
279
100
AcDbEntity
8
0
100
AcDbLine
10
-107.01249999999999
20
33.98125000000001
30
0
11
-107.01249999999995
21
46.981250000000017
31
0
0
ARC
5
280
100
AcDbEntity
8
0
100
AcDbCircle
10
-106.51249999999993
20
46.98125000000001
30
0
40
0.50000000000000711
210
0
220
-0
230
1
100
AcDbArc
50
90
51
180
0
LINE
5
281
100
AcDbEntity
8
0
100
AcDbLine
10
-11.762499999999925
20
33.981250000000003
30
0
11
-11.762499999999925
21
46.981250000000003
31
0
0
ARC
5
282
100
AcDbEntity
8
0
100
AcDbCircle
10
-11.262499999999953
20
46.981250000000031
30
0
40
0.49999999999998046
210
0
220
-0
230
1
100
AcDbArc
50
89.999999999995936
51
180
0
LINE
5
283
100
AcDbEntity
8
0
100
AcDbLine
10
-11.262499999999918
20
47.481250000000003
30
0
11
1.737500000000054
21
47.481250000000003
31
0
0
ARC
5
284
100
AcDbEntity
8
0
100
AcDbCircle
10
1.7375000000000895
20
46.981250000000045
30
0
40
0.49999999999997158
210
-0
220
0
230
1
100
AcDbArc
50
0
51
90.000000000004079
0
LINE
5
285
100
AcDbEntity
8
0
100
AcDbLine
10
2.2375000000000611
20
46.981250000000003
30
0
11
2.2375000000000966
21
33.981250000000003
31
0
0
ARC
5
286
100
AcDbEntity
8
0
100
AcDbCircle
10
1.737500000000054
20
33.981250000000038
30
0
40
0.50000000000003375
210
-0
220
0
230
1
100
AcDbArc
50
270
51
360
0
LINE
5
287
100
AcDbEntity
8
0
100
AcDbLine
10
1.737500000000054
20
33.481250000000003
30
0
11
-11.262499999999918
21
33.481250000000003
31
0
0
ARC
5
288
100
AcDbEntity
8
0
100
AcDbCircle
10
-11.262499999999989
20
33.981249999999946
30
0
40
0.49999999999993605
210
0
220
0
230
1
100
AcDbArc
50
180
51
270.00000000000813
0
LINE
5
289
100
AcDbEntity
8
0
100
AcDbLine
10
-162.06874999999994
20
8.8812500000000227
30
0
11
-162.06874999999991
21
-4.1187499999999932
31
0
0
ARC
5
290
100
AcDbEntity
8
0
100
AcDbCircle
10
-162.56874999999991
20
-4.118750000000011
30
0
40
0.49999999999998934
210
-0
220
0
230
1
100
AcDbArc
50
-90
51
0
0
LINE
5
291
100
AcDbEntity
8
0
100
AcDbLine
10
-162.56874999999991
20
-4.6187500000000004
30
0
11
-180.33124999999995
21
-4.6187499999999648
31
0
0
ARC
5
292
100
AcDbEntity
8
0
100
AcDbCircle
10
-180.33124999999995
20
-4.1187499999999932
30
0
40
0.49999999999997158
210
0
220
0
230
1
100
AcDbArc
50
180
51
270
0
LINE
5
293
100
AcDbEntity
8
0
100
AcDbLine
10
-180.83124999999993
20
-4.1187499999999932
30
0
11
-180.83124999999995
21
8.8812500000000139
31
0
0
ARC
5
294
100
AcDbEntity
8
0
100
AcDbCircle
10
-180.33124999999995
20
8.8812500000000139
30
0
40
0.49999999999999822
210
0
220
-0
230
1
100
AcDbArc
50
90
51
180
0
LINE
5
295
100
AcDbEntity
8
0
100
AcDbLine
10
-180.33124999999995
20
9.3812500000000121
30
0
11
-162.56874999999991
21
9.3812499999999943
31
0
0
ARC
5
296
100
AcDbEntity
8
0
100
AcDbCircle
10
-162.56874999999991
20
8.8812500000000316
30
0
40
0.49999999999997158
210
-0
220
0
230
1
100
AcDbArc
50
0
51
90
0
LINE
5
297
100
AcDbEntity
8
0
100
AcDbLine
10
-73.674999999999898
20
-4.1187499999999932
30
0
11
-73.674999999999926
21
8.8812500000000139
31
0
0
ARC
5
298
100
AcDbEntity
8
0
100
AcDbCircle
10
-73.174999999999955
20
8.8812500000000316
30
0
40
0.49999999999998046
210
0
220
-0
230
1
100
AcDbArc
50
89.999999999996746
51
180
0
LINE
5
299
100
AcDbEntity
8
0
100
AcDbLine
10
-73.174999999999926
20
9.3812500000000121
30
0
11
-60.174999999999947
21
9.3812500000000565
31
0
0
ARC
5
300
100
AcDbEntity
8
0
100
AcDbCircle
10
-60.174999999999947
20
8.8812500000000139
30
0
40
0.50000000000004263
210
0
220
-0
230
1
100
AcDbArc
50
0
51
90
0
LINE
5
301
100
AcDbEntity
8
0
100
AcDbLine
10
-59.674999999999905
20
8.8812500000000139
30
0
11
-59.67499999999994
21
-4.1187499999999932
31
0
0
ARC
5
302
100
AcDbEntity
8
0
100
AcDbCircle
10
-60.174999999999947
20
-4.1187500000000021
30
0
40
0.49999999999999822
210
-0
220
0
230
1
100
AcDbArc
50
-90
51
0
0
LINE
5
303
100
AcDbEntity
8
0
100
AcDbLine
10
-60.174999999999947
20
-4.6187500000000004
30
0
11
-73.174999999999926
21
-4.6187499999999648
31
0
0
ARC
5
304
100
AcDbEntity
8
0
100
AcDbCircle
10
-73.174999999999926
20
-4.1187499999999932
30
0
40
0.49999999999997158
210
0
220
0
230
1
100
AcDbArc
50
180
51
270
0
LINE
5
305
100
AcDbEntity
8
0
100
AcDbLine
10
-30.312499999999893
20
47.48125000000001
30
0
11
-17.312499999999922
21
47.481250000000024
31
0
0
ARC
5
306
100
AcDbEntity
8
0
100
AcDbCircle
10
-30.312499999999911
20
46.981250000000031
30
0
40
0.49999999999998046
210
0
220
-0
230
1
100
AcDbArc
50
89.999999999997954
51
180
0
LINE
5
307
100
AcDbEntity
8
0
100
AcDbLine
10
-30.812499999999936
20
33.981250000000003
30
0
11
-30.812499999999901
21
46.981250000000003
31
0
0
ARC
5
308
100
AcDbEntity
8
0
100
AcDbCircle
10
-30.312499999999893
20
33.981249999999996
30
0
40
0.50000000000004263
210
0
220
0
230
1
100
AcDbArc
50
180
51
270
0
LINE
5
309
100
AcDbEntity
8
0
100
AcDbLine
10
-26.354521833108375
20
33.481249999999996
30
0
11
-30.312499999999893
21
33.481249999999953
31
0
0
ARC
5
310
100
AcDbEntity
8
0
100
AcDbCircle
10
-26.354521833108393
20
32.981249999999982
30
0
40
0.50000000000001843
210
-0
220
0
230
1
100
AcDbArc
50
-38.54117750825904
51
89.999999999997954
0
ARC
5
311
100
AcDbEntity
8
0
100
AcDbCircle
10
-23.812499999999908
20
30.956249999999983
30
0
40
2.7500000000000142
210
0
220
0
230
1
100
AcDbArc
50
-218.54117750825688
51
38.541177508258052
0
ARC
5
312
100
AcDbEntity
8
0
100
AcDbCircle
10
-21.270478166891493
20
32.981249999999982
30
0
40
0.50000000000000711
210
0
220
-0
230
1
100
AcDbArc
50
90
51
218.54117750825779
0
LINE
5
313
100
AcDbEntity
8
0
100
AcDbLine
10
-17.312499999999922
20
33.481250000000003
30
0
11
-21.270478166891493
21
33.481249999999989
31
0
0
ARC
5
314
100
AcDbEntity
8
0
100
AcDbCircle
10
-17.312499999999993
20
33.981250000000038
30
0
40
0.50000000000003375
210
-0
220
0
230
1
100
AcDbArc
50
270.00000000000813
51
360
0
LINE
5
315
100
AcDbEntity
8
0
100
AcDbLine
10
-16.812499999999915
20
46.98125000000001
30
0
11
-16.81249999999995
21
33.98125000000001
31
0
0
ARC
5
316
100
AcDbEntity
8
0
100
AcDbCircle
10
-17.312499999999922
20
46.981250000000017
30
0
40
0.50000000000000711
210
-0
220
0
230
1
100
AcDbArc
50
0
51
90
0
LINE
5
317
100
AcDbEntity
8
0
100
AcDbLine
10
-97.487499999999983
20
14.931250000000009
30
0
11
-97.48749999999994
21
27.931250000000016
31
0
0
ARC
5
318
100
AcDbEntity
8
0
100
AcDbCircle
10
-96.987499999999926
20
27.931250000000006
30
0
40
0.50000000000000711
210
0
220
-0
230
1
100
AcDbArc
50
90
51
180
0
LINE
5
319
100
AcDbEntity
8
0
100
AcDbLine
10
-96.987499999999926
20
28.431250000000013
30
0
11
-93.02952183310839
21
28.431250000000013
31
0
0
ARC
5
320
100
AcDbEntity
8
0
100
AcDbCircle
10
-93.02952183310839
20
28.93125000000002
30
0
40
0.50000000000000711
210
-0
220
0
230
1
100
AcDbArc
50
-90
51
38.541177508255096
0
ARC
5
321
100
AcDbEntity
8
0
100
AcDbCircle
10
-90.487499999999926
20
30.956249999999983
30
0
40
2.75
210
-0
220
0
230
1
100
AcDbArc
50
-38.541177508257107
51
218.54117750825725
0
ARC
5
322
100
AcDbEntity
8
0
100
AcDbCircle
10
-87.945478166891476
20
28.931250000000013
30
0
40
0.4999999999999879
210
0
220
0
230
1
100
AcDbArc
50
141.45882249174224
51
270.00000000000159
0
LINE
5
323
100
AcDbEntity
8
0
100
AcDbLine
10
-87.945478166891462
20
28.431250000000023
30
0
11
-83.987499999999898
21
28.431249999999999
31
0
0
ARC
5
324
100
AcDbEntity
8
0
100
AcDbCircle
10
-83.987499999999912
20
27.931250000000016
30
0
40
0.49999999999998934
210
0
220
-0
230
1
100
AcDbArc
50
0
51
89.99999999999838
0
LINE
5
325
100
AcDbEntity
8
0
100
AcDbLine
10
-83.487499999999926
20
27.931250000000016
30
0
11
-83.487499999999883
21
14.931250000000009
31
0
0
ARC
5
326
100
AcDbEntity
8
0
100
AcDbCircle
10
-83.987499999999898
20
14.931250000000018
30
0
40
0.50000000000000711
210
-0
220
0
230
1
100
AcDbArc
50
270
51
360
0
LINE
5
327
100
AcDbEntity
8
0
100
AcDbLine
10
-83.987499999999898
20
14.431250000000011
30
0
11
-96.987499999999926
21
14.431249999999958
31
0
0
ARC
5
328
100
AcDbEntity
8
0
100
AcDbCircle
10
-96.987499999999926
20
14.93125
30
0
40
0.50000000000004263
210
0
220
0
230
1
100
AcDbArc
50
180
51
270.00000000000159
0
ARC
5
329
100
AcDbEntity
8
0
100
AcDbCircle
10
-132.70624999999993
20
-42.21875
30
0
40
0.50000000000004263
210
0
220
0
230
1
100
AcDbArc
50
180
51
270
0
LINE
5
330
100
AcDbEntity
8
0
100
AcDbLine
10
-119.70624999999995
20
-42.718749999999972
30
0
11
-132.70624999999993
21
-42.718750000000043
31
0
0
ARC
5
331
100
AcDbEntity
8
0
100
AcDbCircle
10
-119.70624999999995
20
-42.218749999999979
30
0
40
0.49999999999998934
210
-0
220
0
230
1
100
AcDbArc
50
-90
51
0
0
LINE
5
332
100
AcDbEntity
8
0
100
AcDbLine
10
-119.20624999999998
20
-29.218749999999972
30
0
11
-119.20624999999995
21
-42.218749999999979
31
0
0
ARC
5
333
100
AcDbEntity
8
0
100
AcDbCircle
10
-119.70624999999993
20
-29.218749999999972
30
0
40
0.49999999999995381
210
0
220
-0
230
1
100
AcDbArc
50
0
51
90.000000000003254
0
LINE
5
334
100
AcDbEntity
8
0
100
AcDbLine
10
-132.70624999999993
20
-28.718749999999964
30
0
11
-119.70624999999995
21
-28.718750000000021
31
0
0
ARC
5
335
100
AcDbEntity
8
0
100
AcDbCircle
10
-132.70624999999993
20
-29.218749999999972
30
0
40
0.50000000000000711
210
0
220
-0
230
1
100
AcDbArc
50
90
51
180
0
LINE
5
336
100
AcDbEntity
8
0
100
AcDbLine
10
-133.20624999999995
20
-42.218749999999979
30
0
11
-133.20624999999993
21
-29.218749999999957
31
0
0
LINE
5
337
100
AcDbEntity
8
0
100
AcDbLine
10
-61.268749999999912
20
-28.71875
30
0
11
-48.268749999999905
21
-28.718749999999964
31
0
0
ARC
5
338
100
AcDbEntity
8
0
100
AcDbCircle
10
-48.268749999999926
20
-29.218749999999993
30
0
40
0.50000000000002487
210
0
220
-0
230
1
100
AcDbArc
50
0
51
89.999999999997556
0
LINE
5
339
100
AcDbEntity
8
0
100
AcDbLine
10
-47.768749999999898
20
-29.218749999999972
30
0
11
-47.768749999999898
21
-42.21875
31
0
0
ARC
5
340
100
AcDbEntity
8
0
100
AcDbCircle
10
-48.268749999999905
20
-42.21875
30
0
40
0.50000000000000711
210
-0
220
0
230
1
100
AcDbArc
50
-90
51
0
0
LINE
5
341
100
AcDbEntity
8
0
100
AcDbLine
10
-48.268749999999905
20
-42.718750000000007
30
0
11
-61.268749999999947
21
-42.718749999999986
31
0
0
ARC
5
342
100
AcDbEntity
8
0
100
AcDbCircle
10
-61.268749999999926
20
-42.218749999999964
30
0
40
0.50000000000002487
210
0
220
0
230
1
100
AcDbArc
50
180
51
269.99999999999756
0
LINE
5
343
100
AcDbEntity
8
0
100
AcDbLine
10
-61.768749999999955
20
-42.218749999999979
30
0
11
-61.76874999999994
21
-29.218749999999972
31
0
0
ARC
5
344
100
AcDbEntity
8
0
100
AcDbCircle
10
-61.268749999999969
20
-29.218749999999972
30
0
40
0.49999999999997158
210
0
220
-0
230
1
100
AcDbArc
50
89.999999999993491
51
180
0
ARC
5
345
100
AcDbEntity
8
0
100
AcDbCircle
10
92.22500000000008
20
14.931250000000009
30
0
40
0.50000000000002487
210
-0
220
0
230
1
100
AcDbArc
50
270
51
360
0
LINE
5
346
100
AcDbEntity
8
0
100
AcDbLine
10
92.725000000000051
20
27.931249999999991
30
0
11
92.725000000000108
21
14.931249999999991
31
0
0
ARC
5
347
100
AcDbEntity
8
0
100
AcDbCircle
10
92.225000000000037
20
27.931249999999991
30
0
40
0.50000000000000711
210
0
220
-0
230
1
100
AcDbArc
50
0
51
89.999999999995111
0
LINE
5
348
100
AcDbEntity
8
0
100
AcDbLine
10
79.225000000000108
20
28.431249999999988
30
0
11
92.22500000000008
21
28.431249999999999
31
0
0
ARC
5
349
100
AcDbEntity
8
0
100
AcDbCircle
10
79.225000000000165
20
27.931249999999963
30
0
40
0.50000000000002487
210
0
220
0
230
1
100
AcDbArc
50
90.000000000006523
51
180
0
LINE
5
350
100
AcDbEntity
8
0
100
AcDbLine
10
78.725000000000051
20
14.931249999999991
30
0
11
78.725000000000136
21
27.931249999999991
31
0
0
ARC
5
351
100
AcDbEntity
8
0
100
AcDbCircle
10
79.225000000000136
20
14.931250000000018
30
0
40
0.50000000000007816
210
0
220
0
230
1
100
AcDbArc
50
180
51
269.99999999999676
0
LINE
5
352
100
AcDbEntity
8
0
100
AcDbLine
10
92.22500000000008
20
14.431249999999984
30
0
11
79.225000000000108
21
14.43124999999994
31
0
0
ARC
5
353
100
AcDbEntity
8
0
100
AcDbCircle
10
125.56250000000003
20
14.931250000000009
30
0
40
0.50000000000002487
210
-0
220
0
230
1
100
AcDbArc
50
270.00000000000648
51
360
0
LINE
5
354
100
AcDbEntity
8
0
100
AcDbLine
10
126.06250000000014
20
27.931249999999991
30
0
11
126.06250000000006
21
14.931249999999983
31
0
0
ARC
5
355
100
AcDbEntity
8
0
100
AcDbCircle
10
125.56250000000006
20
27.931249999999945
30
0
40
0.50000000000007816
210
0
220
-0
230
1
100
AcDbArc
50
0
51
89.999999999993491
0
LINE
5
356
100
AcDbEntity
8
0
100
AcDbLine
10
112.56250000000006
20
28.431249999999988
30
0
11
125.56250000000009
21
28.431250000000023
31
0
0
ARC
5
357
100
AcDbEntity
8
0
100
AcDbCircle
10
112.56250000000011
20
27.931249999999963
30
0
40
0.50000000000002487
210
0
220
0
230
1
100
AcDbArc
50
90.000000000006523
51
180
0
LINE
5
358
100
AcDbEntity
8
0
100
AcDbLine
10
112.06250000000009
20
14.931249999999983
30
0
11
112.06250000000009
21
27.931249999999991
31
0
0
ARC
5
359
100
AcDbEntity
8
0
100
AcDbCircle
10
112.56250000000009
20
14.931249999999983
30
0
40
0.50000000000000711
210
0
220
0
230
1
100
AcDbArc
50
180
51
269.99999999999676
0
LINE
5
360
100
AcDbEntity
8
0
100
AcDbLine
10
125.56250000000009
20
14.431249999999984
30
0
11
112.56250000000006
21
14.431250000000002
31
0
0
LINE
5
361
100
AcDbEntity
8
0
100
AcDbLine
10
11.262500000000095
20
14.431250000000002
30
0
11
-1.7374999999999119
21
14.431249999999993
31
0
0
ARC
5
362
100
AcDbEntity
8
0
100
AcDbCircle
10
-1.7374999999999474
20
14.931249999999947
30
0
40
0.49999999999997158
210
0
220
0
230
1
100
AcDbArc
50
180
51
270.00000000000409
0
LINE
5
363
100
AcDbEntity
8
0
100
AcDbLine
10
-2.237499999999919
20
14.93125
30
0
11
-2.2374999999999545
21
27.931249999999999
31
0
0
ARC
5
364
100
AcDbEntity
8
0
100
AcDbCircle
10
-1.7374999999999119
20
27.931249999999963
30
0
40
0.50000000000003375
210
0
220
-0
230
1
100
AcDbArc
50
90
51
180
0
LINE
5
365
100
AcDbEntity
8
0
100
AcDbLine
10
-1.7374999999999119
20
28.431249999999999
30
0
11
11.262500000000095
21
28.431249999999977
31
0
0
ARC
5
366
100
AcDbEntity
8
0
100
AcDbCircle
10
11.262500000000166
20
27.931250000000016
30
0
40
0.49999999999993605
210
-0
220
0
230
1
100
AcDbArc
50
0
51
90.000000000008143
0
LINE
5
367
100
AcDbEntity
8
0
100
AcDbLine
10
11.762500000000102
20
27.931249999999999
30
0
11
11.762500000000067
21
14.93125
31
0
0
ARC
5
368
100
AcDbEntity
8
0
100
AcDbCircle
10
11.262500000000024
20
14.931250000000027
30
0
40
0.50000000000002487
210
-0
220
0
230
1
100
AcDbArc
50
270.00000000000813
51
360
0
LINE
5
369
100
AcDbEntity
8
0
100
AcDbLine
10
-31.099999999999923
20
-10.168749999999998
30
0
11
-31.099999999999959
21
-23.168750000000003
31
0
0
ARC
5
370
100
AcDbEntity
8
0
100
AcDbCircle
10
-31.59999999999993
20
-23.168750000000003
30
0
40
0.49999999999997158
210
-0
220
0
230
1
100
AcDbArc
50
-90
51
0
0
LINE
5
371
100
AcDbEntity
8
0
100
AcDbLine
10
-31.59999999999993
20
-23.668749999999974
30
0
11
-44.599999999999937
21
-23.66875000000001
31
0
0
ARC
5
372
100
AcDbEntity
8
0
100
AcDbCircle
10
-44.599999999999923
20
-23.168749999999989
30
0
40
0.50000000000002487
210
0
220
0
230
1
100
AcDbArc
50
180
51
269.99999999999835
0
LINE
5
373
100
AcDbEntity
8
0
100
AcDbLine
10
-45.099999999999945
20
-23.168750000000003
30
0
11
-45.099999999999945
21
-10.168749999999998
31
0
0
ARC
5
374
100
AcDbEntity
8
0
100
AcDbCircle
10
-44.599999999999923
20
-10.168750000000015
30
0
40
0.50000000000002487
210
0
220
0
230
1
100
AcDbArc
50
90.000000000001634
51
180
0
LINE
5
375
100
AcDbEntity
8
0
100
AcDbLine
10
-44.599999999999937
20
-9.6687499999999904
30
0
11
-31.59999999999993
21
-9.6687499999999904
31
0
0
ARC
5
376
100
AcDbEntity
8
0
100
AcDbCircle
10
-31.599999999999948
20
-10.168750000000015
30
0
40
0.50000000000002487
210
0
220
-0
230
1
100
AcDbArc
50
0
51
89.999999999997954
0
LINE
5
377
100
AcDbEntity
8
0
100
AcDbLine
10
-173.24424999999994
20
-24.668749999999989
30
0
11
-179.24424999999997
21
-24.668749999999953
31
0
0
ARC
5
378
100
AcDbEntity
8
0
100
AcDbCircle
10
-179.24424999999997
20
-24.168749999999982
30
0
40
0.49999999999997158
210
0
220
0
230
1
100
AcDbArc
50
180
51
270
0
LINE
5
379
100
AcDbEntity
8
0
100
AcDbLine
10
-179.74424999999994
20
-24.168749999999982
30
0
11
-179.74424999999994
21
-10.168749999999962
31
0
0
ARC
5
380
100
AcDbEntity
8
0
100
AcDbCircle
10
-179.24424999999997
20
-10.168749999999962
30
0
40
0.49999999999997158
210
0
220
-0
230
1
100
AcDbArc
50
90
51
180
0
LINE
5
381
100
AcDbEntity
8
0
100
AcDbLine
10
-179.24424999999997
20
-9.6687499999999904
30
0
11
-173.24424999999994
21
-9.6687499999999016
31
0
0
ARC
5
382
100
AcDbEntity
8
0
100
AcDbCircle
10
-173.24424999999994
20
-10.168749999999944
30
0
40
0.50000000000004263
210
-0
220
0
230
1
100
AcDbArc
50
0
51
90
0
LINE
5
383
100
AcDbEntity
8
0
100
AcDbLine
10
-172.74424999999991
20
-10.16874999999998
30
0
11
-172.74424999999994
21
-24.168749999999982
31
0
0
ARC
5
384
100
AcDbEntity
8
0
100
AcDbCircle
10
-173.24424999999997
20
-24.168749999999946
30
0
40
0.50000000000004263
210
-0
220
0
230
1
100
AcDbArc
50
270.00000000000324
51
360
0
LINE
5
385
100
AcDbEntity
8
0
100
AcDbLine
10
101.75000000000009
20
-47.481250000000024
30
0
11
88.750000000000114
21
-47.481249999999989
31
0
0
ARC
5
386
100
AcDbEntity
8
0
100
AcDbCircle
10
88.750000000000114
20
-46.981250000000017
30
0
40
0.49999999999997158
210
0
220
0
230
1
100
AcDbArc
50
180
51
270
0
LINE
5
387
100
AcDbEntity
8
0
100
AcDbLine
10
88.250000000000142
20
-46.981250000000017
30
0
11
88.250000000000142
21
-33.98125000000001
31
0
0
ARC
5
388
100
AcDbEntity
8
0
100
AcDbCircle
10
88.750000000000114
20
-33.98125000000001
30
0
40
0.49999999999997158
210
0
220
-0
230
1
100
AcDbArc
50
90
51
180
0
LINE
5
389
100
AcDbEntity
8
0
100
AcDbLine
10
88.750000000000114
20
-33.481250000000038
30
0
11
101.75000000000009
21
-33.481250000000038
31
0
0
ARC
5
390
100
AcDbEntity
8
0
100
AcDbCircle
10
101.75000000000009
20
-33.98125000000001
30
0
40
0.49999999999997158
210
0
220
-0
230
1
100
AcDbArc
50
0
51
90
0
LINE
5
391
100
AcDbEntity
8
0
100
AcDbLine
10
102.25000000000006
20
-33.98125000000001
30
0
11
102.25000000000011
21
-46.981250000000017
31
0
0
ARC
5
392
100
AcDbEntity
8
0
100
AcDbCircle
10
101.75000000000009
20
-46.981250000000003
30
0
40
0.50000000000002487
210
-0
220
0
230
1
100
AcDbArc
50
270
51
360
0
LINE
5
393
100
AcDbEntity
8
0
100
AcDbLine
10
-26.049999999999933
20
-23.168750000000003
30
0
11
-26.049999999999933
21
-10.168749999999998
31
0
0
ARC
5
394
100
AcDbEntity
8
0
100
AcDbCircle
10
-25.549999999999908
20
-10.168750000000015
30
0
40
0.50000000000002487
210
0
220
0
230
1
100
AcDbArc
50
90.000000000002032
51
180
0
LINE
5
395
100
AcDbEntity
8
0
100
AcDbLine
10
-25.549999999999926
20
-9.6687499999999904
30
0
11
-21.59202183310839
21
-9.6687499999999904
31
0
0
ARC
5
396
100
AcDbEntity
8
0
100
AcDbCircle
10
-21.59202183310839
20
-9.1687499999999833
30
0
40
0.50000000000000711
210
-0
220
0
230
1
100
AcDbArc
50
-90
51
38.541177508256553
0
ARC
5
397
100
AcDbEntity
8
0
100
AcDbCircle
10
-19.049999999999869
20
-7.1437500000000309
30
0
40
2.7499999999999893
210
-0
220
0
230
1
100
AcDbArc
50
-38.541177508256851
51
218.5411775082562
0
ARC
5
398
100
AcDbEntity
8
0
100
AcDbCircle
10
-16.507978166891455
20
-9.1687500000000011
30
0
40
0.49999999999997125
210
0
220
0
230
1
100
AcDbArc
50
141.45882249173815
51
270.00000000000409
0
LINE
5
399
100
AcDbEntity
8
0
100
AcDbLine
10
-16.507978166891419
20
-9.6687499999999726
30
0
11
-12.549999999999919
21
-9.6687500000000082
31
0
0
ARC
5
400
100
AcDbEntity
8
0
100
AcDbCircle
10
-12.549999999999955
20
-10.168750000000051
30
0
40
0.50000000000004263
210
0
220
-0
230
1
100
AcDbArc
50
0
51
89.999999999995936
0
LINE
5
401
100
AcDbEntity
8
0
100
AcDbLine
10
-12.049999999999912
20
-10.168749999999998
30
0
11
-12.049999999999876
21
-23.168750000000003
31
0
0
ARC
5
402
100
AcDbEntity
8
0
100
AcDbCircle
10
-12.549999999999919
20
-23.168749999999989
30
0
40
0.50000000000002487
210
-0
220
0
230
1
100
AcDbArc
50
270
51
360
0
LINE
5
403
100
AcDbEntity
8
0
100
AcDbLine
10
-12.549999999999919
20
-23.66875000000001
30
0
11
-25.549999999999926
21
-23.66875000000001
31
0
0
ARC
5
404
100
AcDbEntity
8
0
100
AcDbCircle
10
-25.549999999999908
20
-23.168749999999989
30
0
40
0.50000000000002487
210
0
220
0
230
1
100
AcDbArc
50
180
51
269.99999999999795
0
LINE
5
405
100
AcDbEntity
8
0
100
AcDbLine
10
121.30000000000007
20
-33.98125000000001
30
0
11
121.30000000000007
21
-46.981250000000017
31
0
0
ARC
5
406
100
AcDbEntity
8
0
100
AcDbCircle
10
120.80000000000005
20
-46.981250000000017
30
0
40
0.50000000000000711
210
-0
220
0
230
1
100
AcDbArc
50
-90
51
0
0
LINE
5
407
100
AcDbEntity
8
0
100
AcDbLine
10
120.80000000000005
20
-47.481250000000024
30
0
11
107.80000000000013
21
-47.481249999999989
31
0
0
ARC
5
408
100
AcDbEntity
8
0
100
AcDbCircle
10
107.80000000000013
20
-46.981250000000017
30
0
40
0.49999999999997158
210
0
220
0
230
1
100
AcDbArc
50
180
51
270
0
LINE
5
409
100
AcDbEntity
8
0
100
AcDbLine
10
107.30000000000015
20
-46.981250000000017
30
0
11
107.30000000000015
21
-33.98125000000001
31
0
0
ARC
5
410
100
AcDbEntity
8
0
100
AcDbCircle
10
107.80000000000013
20
-33.98125000000001
30
0
40
0.49999999999997158
210
0
220
-0
230
1
100
AcDbArc
50
90
51
180
0
LINE
5
411
100
AcDbEntity
8
0
100
AcDbLine
10
107.80000000000013
20
-33.481250000000038
30
0
11
120.8000000000001
21
-33.481250000000038
31
0
0
ARC
5
412
100
AcDbEntity
8
0
100
AcDbCircle
10
120.8000000000001
20
-33.98125000000001
30
0
40
0.49999999999997158
210
0
220
-0
230
1
100
AcDbArc
50
0
51
90
0
ARC
5
413
100
AcDbEntity
8
0
100
AcDbCircle
10
-156.5187499999999
20
-29.218750000000007
30
0
40
0.50000000000004263
210
0
220
0
230
1
100
AcDbArc
50
90.000000000003254
51
180
0
LINE
5
414
100
AcDbEntity
8
0
100
AcDbLine
10
-156.51874999999993
20
-28.718749999999964
30
0
11
-145.41702183310844
21
-28.718749999999915
31
0
0
ARC
5
415
100
AcDbEntity
8
0
100
AcDbCircle
10
-145.41702183310844
20
-28.218749999999922
30
0
40
0.49999999999998934
210
-0
220
0
230
1
100
AcDbArc
50
-90
51
38.541177508256503
0
ARC
5
416
100
AcDbEntity
8
0
100
AcDbCircle
10
-142.87499999999991
20
-26.193750000000044
30
0
40
2.749999999999988
210
-0
220
0
230
1
100
AcDbArc
50
-83.706855339843173
51
218.541177508255
0
ARC
5
417
100
AcDbEntity
8
0
100
AcDbCircle
10
-142.5187499999999
20
-29.424165753041748
30
0
40
0.50000000000001188
210
0
220
0
230
1
100
AcDbArc
50
96.293144660159911
51
180
0
LINE
5
418
100
AcDbEntity
8
0
100
AcDbLine
10
-143.01874999999993
20
-29.424165753041727
30
0
11
-143.01874999999995
21
-42.218749999999979
31
0
0
ARC
5
419
100
AcDbEntity
8
0
100
AcDbCircle
10
-143.51874999999995
20
-42.218749999999979
30
0
40
0.49999999999998934
210
-0
220
0
230
1
100
AcDbArc
50
-90
51
0
0
LINE
5
420
100
AcDbEntity
8
0
100
AcDbLine
10
-143.51874999999995
20
-42.718749999999972
30
0
11
-156.51874999999993
21
-42.718750000000043
31
0
0
ARC
5
421
100
AcDbEntity
8
0
100
AcDbCircle
10
-156.51874999999993
20
-42.21875
30
0
40
0.50000000000004263
210
0
220
0
230
1
100
AcDbArc
50
180
51
270
0
LINE
5
422
100
AcDbEntity
8
0
100
AcDbLine
10
-157.01874999999998
20
-42.218749999999964
30
0
11
-157.01874999999995
21
-29.218749999999972
31
0
0
LINE
5
423
100
AcDbEntity
8
0
100
AcDbLine
10
125.56250000000009
20
-23.66875000000001
30
0
11
112.56250000000006
21
-23.668749999999974
31
0
0
ARC
5
424
100
AcDbEntity
8
0
100
AcDbCircle
10
112.56250000000006
20
-23.168750000000003
30
0
40
0.49999999999997158
210
0
220
0
230
1
100
AcDbArc
50
180
51
270
0
LINE
5
425
100
AcDbEntity
8
0
100
AcDbLine
10
112.06250000000009
20
-23.168750000000003
30
0
11
112.06250000000009
21
-10.168749999999998
31
0
0
ARC
5
426
100
AcDbEntity
8
0
100
AcDbCircle
10
112.56250000000006
20
-10.168749999999998
30
0
40
0.49999999999997158
210
0
220
-0
230
1
100
AcDbArc
50
90
51
180
0
LINE
5
427
100
AcDbEntity
8
0
100
AcDbLine
10
112.56250000000006
20
-9.6687500000000259
30
0
11
125.56250000000009
21
-9.6687499999999904
31
0
0
ARC
5
428
100
AcDbEntity
8
0
100
AcDbCircle
10
125.56250000000009
20
-10.168750000000033
30
0
40
0.50000000000004263
210
0
220
-0
230
1
100
AcDbArc
50
0
51
90
0
LINE
5
429
100
AcDbEntity
8
0
100
AcDbLine
10
126.06250000000014
20
-10.168750000000033
30
0
11
126.06250000000014
21
-23.168750000000003
31
0
0
ARC
5
430
100
AcDbEntity
8
0
100
AcDbCircle
10
125.56250000000009
20
-23.168749999999989
30
0
40
0.50000000000002487
210
-0
220
0
230
1
100
AcDbArc
50
270
51
360
0
LINE
5
431
100
AcDbEntity
8
0
100
AcDbLine
10
182.71250000000006
20
33.481249999999989
30
0
11
169.71250000000009
21
33.481249999999989
31
0
0
ARC
5
432
100
AcDbEntity
8
0
100
AcDbCircle
10
169.71250000000015
20
33.981250000000053
30
0
40
0.50000000000004263
210
0
220
0
230
1
100
AcDbArc
50
180
51
269.99999999999346
0
LINE
5
433
100
AcDbEntity
8
0
100
AcDbLine
10
169.21250000000012
20
33.981249999999974
30
0
11
169.21250000000012
21
46.981249999999982
31
0
0
ARC
5
434
100
AcDbEntity
8
0
100
AcDbCircle
10
169.71249999999995
20
46.981250000000124
30
0
40
0.49999999999985612
210
0
220
-0
230
1
100
AcDbArc
50
89.999999999983714
51
180
0
LINE
5
435
100
AcDbEntity
8
0
100
AcDbLine
10
169.71250000000009
20
47.481249999999982
30
0
11
182.71250000000006
21
47.481250000000017
31
0
0
ARC
5
436
100
AcDbEntity
8
0
100
AcDbCircle
10
182.71250000000006
20
46.981249999999974
30
0
40
0.50000000000004263
210
0
220
-0
230
1
100
AcDbArc
50
0
51
90
0
LINE
5
437
100
AcDbEntity
8
0
100
AcDbLine
10
183.21250000000009
20
46.981249999999974
30
0
11
183.21250000000003
21
33.981249999999974
31
0
0
ARC
5
438
100
AcDbEntity
8
0
100
AcDbCircle
10
182.7125000000002
20
33.981249999999825
30
0
40
0.49999999999983835
210
0
220
0
230
1
100
AcDbArc
50
-90.000000000016286
51
0
0
ARC
5
439
100
AcDbEntity
8
0
100
AcDbCircle
10
112.56250000000009
20
-4.1187500000000288
30
0
40
0.50000000000000711
210
0
220
0
230
1
100
AcDbArc
50
180
51
269.99999999999676
0
LINE
5
440
100
AcDbEntity
8
0
100
AcDbLine
10
125.56250000000009
20
-4.6187500000000359
30
0
11
112.56250000000006
21
-4.6187500000000092
31
0
0
ARC
5
441
100
AcDbEntity
8
0
100
AcDbCircle
10
125.56250000000013
20
-4.1187500000000199
30
0
40
0.50000000000001599
210
0
220
0
230
1
100
AcDbArc
50
269.99999999999511
51
360
0
LINE
5
442
100
AcDbEntity
8
0
100
AcDbLine
10
126.06250000000006
20
8.8812499999999872
30
0
11
126.06250000000014
21
-4.1187500000000288
31
0
0
ARC
5
443
100
AcDbEntity
8
0
100
AcDbCircle
10
125.56250000000006
20
8.8812499999999872
30
0
40
0.50000000000000711
210
0
220
-0
230
1
100
AcDbArc
50
0
51
89.999999999996746
0
LINE
5
444
100
AcDbEntity
8
0
100
AcDbLine
10
112.56250000000006
20
9.3812499999999943
30
0
11
125.56250000000009
21
9.3812499999999677
31
0
0
ARC
5
445
100
AcDbEntity
8
0
100
AcDbCircle
10
112.56250000000011
20
8.8812499999999694
30
0
40
0.50000000000002487
210
0
220
0
230
1
100
AcDbArc
50
90.000000000006523
51
180
0
LINE
5
446
100
AcDbEntity
8
0
100
AcDbLine
10
112.06250000000009
20
-4.1187500000000288
30
0
11
112.06250000000009
21
8.8812499999999961
31
0
0
ARC
5
447
100
AcDbEntity
8
0
100
AcDbCircle
10
163.66250000000019
20
-42.218750000000156
30
0
40
0.49999999999984723
210
0
220
0
230
1
100
AcDbArc
50
-90.000000000016286
51
0
0
LINE
5
448
100
AcDbEntity
8
0
100
AcDbLine
10
164.16250000000002
20
-29.218750000000007
30
0
11
164.16250000000002
21
-42.218750000000014
31
0
0
ARC
5
449
100
AcDbEntity
8
0
100
AcDbCircle
10
163.66249999999991
20
-29.218750000000099
30
0
40
0.50000000000011369
210
0
220
-0
230
1
100
AcDbArc
50
0
51
89.999999999983714
0
LINE
5
450
100
AcDbEntity
8
0
100
AcDbLine
10
150.66250000000008
20
-28.71875
30
0
11
163.66250000000005
21
-28.718750000000021
31
0
0
ARC
5
451
100
AcDbEntity
8
0
100
AcDbCircle
10
150.66249999999994
20
-29.218749999999922
30
0
40
0.49999999999991829
210
0
220
-0
230
1
100
AcDbArc
50
89.999999999983714
51
180
0
LINE
5
452
100
AcDbEntity
8
0
100
AcDbLine
10
150.16250000000011
20
-42.218750000000014
30
0
11
150.16250000000002
21
-29.218750000000007
31
0
0
ARC
5
453
100
AcDbEntity
8
0
100
AcDbCircle
10
150.66250000000022
20
-42.218749999999929
30
0
40
0.50000000000011369
210
0
220
0
230
1
100
AcDbArc
50
180
51
269.99999999998369
0
LINE
5
454
100
AcDbEntity
8
0
100
AcDbLine
10
163.66250000000005
20
-42.718750000000007
30
0
11
150.66250000000008
21
-42.718750000000007
31
0
0
LINE
5
455
100
AcDbEntity
8
0
100
AcDbLine
10
-144.6124999999999
20
47.481250000000017
30
0
11
-131.61249999999993
21
47.481249999999982
31
0
0
ARC
5
456
100
AcDbEntity
8
0
100
AcDbCircle
10
-131.61249999999993
20
46.981250000000031
30
0
40
0.49999999999997158
210
-0
220
0
230
1
100
AcDbArc
50
0
51
90
0
LINE
5
457
100
AcDbEntity
8
0
100
AcDbLine
10
-131.11249999999995
20
46.981250000000017
30
0
11
-131.11249999999995
21
33.981250000000017
31
0
0
ARC
5
458
100
AcDbEntity
8
0
100
AcDbCircle
10
-131.61249999999993
20
33.981250000000003
30
0
40
0.49999999999998046
210
-0
220
0
230
1
100
AcDbArc
50
-90
51
0
0
LINE
5
459
100
AcDbEntity
8
0
100
AcDbLine
10
-131.61249999999993
20
33.481250000000024
30
0
11
-144.6124999999999
21
33.481249999999967
31
0
0
ARC
5
460
100
AcDbEntity
8
0
100
AcDbCircle
10
-144.61249999999987
20
33.981250000000031
30
0
40
0.5000000000000604
210
0
220
0
230
1
100
AcDbArc
50
180
51
269.99999999999676
0
LINE
5
461
100
AcDbEntity
8
0
100
AcDbLine
10
-145.11249999999993
20
33.981250000000017
30
0
11
-145.1124999999999
21
46.981250000000017
31
0
0
ARC
5
462
100
AcDbEntity
8
0
100
AcDbCircle
10
-144.6124999999999
20
46.981250000000031
30
0
40
0.49999999999999822
210
0
220
-0
230
1
100
AcDbArc
50
90
51
180
0
LINE
5
463
100
AcDbEntity
8
0
100
AcDbLine
10
40.625000000000071
20
-42.21875
30
0
11
40.625000000000036
21
-29.218750000000007
31
0
0
ARC
5
464
100
AcDbEntity
8
0
100
AcDbCircle
10
41.125000000000078
20
-29.218750000000028
30
0
40
0.50000000000002487
210
0
220
-0
230
1
100
AcDbArc
50
90
51
180
0
LINE
5
465
100
AcDbEntity
8
0
100
AcDbLine
10
41.125000000000078
20
-28.71875
30
0
11
54.12500000000005
21
-28.718750000000036
31
0
0
ARC
5
466
100
AcDbEntity
8
0
100
AcDbCircle
10
54.12500000000005
20
-29.218750000000007
30
0
40
0.49999999999997158
210
0
220
-0
230
1
100
AcDbArc
50
0
51
90
0
LINE
5
467
100
AcDbEntity
8
0
100
AcDbLine
10
54.625000000000021
20
-29.218750000000007
30
0
11
54.625000000000021
21
-42.21875
31
0
0
ARC
5
468
100
AcDbEntity
8
0
100
AcDbCircle
10
54.125000000000085
20
-42.218750000000085
30
0
40
0.49999999999991829
210
0
220
0
230
1
100
AcDbArc
50
-90.000000000004079
51
0
0
LINE
5
469
100
AcDbEntity
8
0
100
AcDbLine
10
54.12500000000005
20
-42.718750000000007
30
0
11
41.125000000000078
21
-42.718750000000021
31
0
0
ARC
5
470
100
AcDbEntity
8
0
100
AcDbCircle
10
41.125000000000078
20
-42.218750000000014
30
0
40
0.50000000000000711
210
0
220
0
230
1
100
AcDbArc
50
180
51
270
0
LINE
5
471
100
AcDbEntity
8
0
100
AcDbLine
10
71.581250000000097
20
-4.1187500000000288
30
0
11
71.581250000000097
21
8.8812499999999961
31
0
0
ARC
5
472
100
AcDbEntity
8
0
100
AcDbCircle
10
72.081250000000125
20
8.8812499999999694
30
0
40
0.50000000000002487
210
0
220
0
230
1
100
AcDbArc
50
90.000000000006523
51
180
0
LINE
5
473
100
AcDbEntity
8
0
100
AcDbLine
10
72.081250000000068
20
9.3812499999999943
30
0
11
85.081250000000097
21
9.3812499999999766
31
0
0
ARC
5
474
100
AcDbEntity
8
0
100
AcDbCircle
10
85.081250000000068
20
8.8812499999999961
30
0
40
0.50000000000000711
210
0
220
-0
230
1
100
AcDbArc
50
0
51
89.999999999996746
0
LINE
5
475
100
AcDbEntity
8
0
100
AcDbLine
10
85.581250000000068
20
8.8812499999999961
30
0
11
85.581250000000068
21
-4.1187500000000288
31
0
0
ARC
5
476
100
AcDbEntity
8
0
100
AcDbCircle
10
85.081250000000068
20
-4.1187500000000021
30
0
40
0.49999999999999822
210
0
220
0
230
1
100
AcDbArc
50
269.99999999999676
51
360
0
LINE
5
477
100
AcDbEntity
8
0
100
AcDbLine
10
85.08125000000004
20
-4.6187500000000004
30
0
11
72.081250000000068
21
-4.6187500000000092
31
0
0
ARC
5
478
100
AcDbEntity
8
0
100
AcDbCircle
10
72.081250000000097
20
-4.1187500000000288
30
0
40
0.50000000000000711
210
0
220
0
230
1
100
AcDbArc
50
180
51
269.99999999999676
0
ARC
5
479
100
AcDbEntity
8
0
100
AcDbCircle
10
-50.649999999999942
20
-23.168750000000003
30
0
40
0.49999999999997158
210
-0
220
0
230
1
100
AcDbArc
50
-90
51
0
0
LINE
5
480
100
AcDbEntity
8
0
100
AcDbLine
10
-50.149999999999935
20
-10.168749999999998
30
0
11
-50.14999999999997
21
-23.168750000000003
31
0
0
ARC
5
481
100
AcDbEntity
8
0
100
AcDbCircle
10
-50.649999999999963
20
-10.168750000000015
30
0
40
0.50000000000002487
210
0
220
-0
230
1
100
AcDbArc
50
0
51
89.999999999997556
0
LINE
5
482
100
AcDbEntity
8
0
100
AcDbLine
10
-63.649999999999913
20
-9.6687499999999904
30
0
11
-50.649999999999942
21
-9.6687499999999904
31
0
0
ARC
5
483
100
AcDbEntity
8
0
100
AcDbCircle
10
-63.649999999999892
20
-10.168750000000015
30
0
40
0.50000000000002487
210
0
220
0
230
1
100
AcDbArc
50
90.000000000002444
51
180
0
LINE
5
484
100
AcDbEntity
8
0
100
AcDbLine
10
-64.149999999999892
20
-23.168750000000003
30
0
11
-64.14999999999992
21
-10.168749999999998
31
0
0
ARC
5
485
100
AcDbEntity
8
0
100
AcDbCircle
10
-63.649999999999913
20
-23.168750000000003
30
0
40
0.49999999999997158
210
0
220
0
230
1
100
AcDbArc
50
180
51
270
0
LINE
5
486
100
AcDbEntity
8
0
100
AcDbLine
10
-50.649999999999942
20
-23.668749999999974
30
0
11
-63.649999999999913
21
-23.668749999999974
31
0
0
ARC
5
487
100
AcDbEntity
8
0
100
AcDbCircle
10
12.550000000000061
20
-10.168750000000015
30
0
40
0.50000000000002487
210
0
220
-0
230
1
100
AcDbArc
50
90
51
180
0
LINE
5
488
100
AcDbEntity
8
0
100
AcDbLine
10
12.05000000000009
20
-23.168750000000003
30
0
11
12.050000000000018
21
-10.168749999999998
31
0
0
ARC
5
489
100
AcDbEntity
8
0
100
AcDbCircle
10
12.550000000000061
20
-23.168750000000003
30
0
40
0.49999999999997158
210
0
220
0
230
1
100
AcDbArc
50
180
51
270
0
LINE
5
490
100
AcDbEntity
8
0
100
AcDbLine
10
25.550000000000068
20
-23.66875000000001
30
0
11
12.550000000000061
21
-23.668749999999974
31
0
0
ARC
5
491
100
AcDbEntity
8
0
100
AcDbCircle
10
25.550000000000068
20
-23.168750000000003
30
0
40
0.50000000000000711
210
-0
220
0
230
1
100
AcDbArc
50
-90
51
0
0
LINE
5
492
100
AcDbEntity
8
0
100
AcDbLine
10
26.050000000000075
20
-10.168749999999998
30
0
11
26.050000000000075
21
-23.168750000000003
31
0
0
ARC
5
493
100
AcDbEntity
8
0
100
AcDbCircle
10
25.550000000000068
20
-10.168749999999998
30
0
40
0.50000000000000711
210
0
220
-0
230
1
100
AcDbArc
50
0
51
90
0
LINE
5
494
100
AcDbEntity
8
0
100
AcDbLine
10
12.550000000000061
20
-9.6687499999999904
30
0
11
25.550000000000068
21
-9.6687499999999904
31
0
0
LINE
5
495
100
AcDbEntity
8
0
100
AcDbLine
10
-169.21249999999998
20
46.981250000000031
30
0
11
-169.21249999999992
21
33.981250000000024
31
0
0
ARC
5
496
100
AcDbEntity
8
0
100
AcDbCircle
10
-169.71249999999995
20
33.981250000000017
30
0
40
0.49999999999999822
210
-0
220
0
230
1
100
AcDbArc
50
-90
51
0
0
LINE
5
497
100
AcDbEntity
8
0
100
AcDbLine
10
-169.71249999999995
20
33.481250000000024
30
0
11
-182.71249999999992
21
33.481249999999996
31
0
0
ARC
5
498
100
AcDbEntity
8
0
100
AcDbCircle
10
-182.71249999999992
20
33.981250000000045
30
0
40
0.50000000000004263
210
0
220
0
230
1
100
AcDbArc
50
180
51
270
0
LINE
5
499
100
AcDbEntity
8
0
100
AcDbLine
10
-183.21249999999995
20
33.981250000000031
30
0
11
-183.21249999999995
21
46.981250000000031
31
0
0
ARC
5
500
100
AcDbEntity
8
0
100
AcDbCircle
10
-182.71249999999995
20
46.981250000000031
30
0
40
0.50000000000000711
210
0
220
-0
230
1
100
AcDbArc
50
90
51
180
0
LINE
5
501
100
AcDbEntity
8
0
100
AcDbLine
10
-182.71249999999995
20
47.481250000000024
30
0
11
-169.71249999999995
21
47.481249999999989
31
0
0
ARC
5
502
100
AcDbEntity
8
0
100
AcDbCircle
10
-169.71249999999995
20
46.981250000000031
30
0
40
0.49999999999997158
210
-0
220
0
230
1
100
AcDbArc
50
0
51
90
0
LINE
5
503
100
AcDbEntity
8
0
100
AcDbLine
10
-157.30624999999992
20
-10.168750000000015
30
0
11
-157.30624999999998
21
-23.168749999999967
31
0
0
ARC
5
504
100
AcDbEntity
8
0
100
AcDbCircle
10
-157.80625000000001
20
-23.168749999999932
30
0
40
0.50000000000004263
210
-0
220
0
230
1
100
AcDbArc
50
270.00000000000324
51
360
0
LINE
5
505
100
AcDbEntity
8
0
100
AcDbLine
10
-157.80624999999998
20
-23.668749999999974
30
0
11
-170.80624999999995
21
-23.668750000000031
31
0
0
ARC
5
506
100
AcDbEntity
8
0
100
AcDbCircle
10
-170.80624999999995
20
-23.168749999999989
30
0
40
0.50000000000004263
210
0
220
0
230
1
100
AcDbArc
50
180
51
270
0
LINE
5
507
100
AcDbEntity
8
0
100
AcDbLine
10
-171.30624999999998
20
-23.168749999999953
30
0
11
-171.30624999999992
21
-10.168749999999962
31
0
0
ARC
5
508
100
AcDbEntity
8
0
100
AcDbCircle
10
-170.80624999999995
20
-10.168749999999962
30
0
40
0.49999999999997158
210
0
220
-0
230
1
100
AcDbArc
50
90
51
180
0
LINE
5
509
100
AcDbEntity
8
0
100
AcDbLine
10
-170.80624999999995
20
-9.6687499999999904
30
0
11
-157.80624999999998
21
-9.6687499999999371
31
0
0
ARC
5
510
100
AcDbEntity
8
0
100
AcDbCircle
10
-157.80624999999998
20
-10.16874999999998
30
0
40
0.50000000000004263
210
-0
220
0
230
1
100
AcDbArc
50
0
51
90
0
LINE
5
511
100
AcDbEntity
8
0
100
AcDbLine
10
-92.224999999999937
20
9.3812500000000121
30
0
11
-79.224999999999966
21
9.3812500000000565
31
0
0
ARC
5
512
100
AcDbEntity
8
0
100
AcDbCircle
10
-92.224999999999966
20
8.8812500000000316
30
0
40
0.49999999999998046
210
0
220
-0
230
1
100
AcDbArc
50
89.999999999996746
51
180
0
LINE
5
513
100
AcDbEntity
8
0
100
AcDbLine
10
-92.724999999999909
20
-4.1187499999999932
30
0
11
-92.724999999999937
21
8.8812500000000139
31
0
0
ARC
5
514
100
AcDbEntity
8
0
100
AcDbCircle
10
-92.224999999999937
20
-4.1187499999999932
30
0
40
0.49999999999997158
210
0
220
0
230
1
100
AcDbArc
50
180
51
270
0
LINE
5
515
100
AcDbEntity
8
0
100
AcDbLine
10
-88.267021833108316
20
-4.6187499999999737
30
0
11
-92.224999999999937
21
-4.6187499999999648
31
0
0
ARC
5
516
100
AcDbEntity
8
0
100
AcDbCircle
10
-88.267021833108316
20
-5.1187499999999719
30
0
40
0.49999999999998512
210
-0
220
0
230
1
100
AcDbArc
50
-38.541177508261384
51
90
0
ARC
5
517
100
AcDbEntity
8
0
100
AcDbCircle
10
-85.724999999999923
20
-7.1437500000000131
30
0
40
2.7500000000000058
210
0
220
0
230
1
100
AcDbArc
50
-218.54117750825836
51
38.541177508258436
0
ARC
5
518
100
AcDbEntity
8
0
100
AcDbCircle
10
-83.182978166891502
20
-5.1187499999999897
30
0
40
0.49999999999999822
210
0
220
0
230
1
100
AcDbArc
50
90.000000000001634
51
218.54117750825807
0
LINE
5
519
100
AcDbEntity
8
0
100
AcDbLine
10
-79.224999999999966
20
-4.6187500000000004
30
0
11
-83.182978166891516
21
-4.6187499999999915
31
0
0
ARC
5
520
100
AcDbEntity
8
0
100
AcDbCircle
10
-79.224999999999966
20
-4.1187500000000021
30
0
40
0.49999999999999822
210
-0
220
0
230
1
100
AcDbArc
50
-90
51
0
0
LINE
5
521
100
AcDbEntity
8
0
100
AcDbLine
10
-78.724999999999909
20
8.8812500000000139
30
0
11
-78.724999999999952
21
-4.1187499999999932
31
0
0
ARC
5
522
100
AcDbEntity
8
0
100
AcDbCircle
10
-79.224999999999966
20
8.8812500000000139
30
0
40
0.50000000000004263
210
0
220
-0
230
1
100
AcDbArc
50
0
51
90
0
ARC
5
523
100
AcDbEntity
8
0
100
AcDbCircle
10
54.929521833108481
20
32.981249999999996
30
0
40
0.49999999999998934
210
0
220
-0
230
1
100
AcDbArc
50
89.999999999995936
51
218.54117750826128
0
LINE
5
524
100
AcDbEntity
8
0
100
AcDbLine
10
58.887500000000124
20
33.481249999999996
30
0
11
54.929521833108517
21
33.481249999999989
31
0
0
ARC
5
525
100
AcDbEntity
8
0
100
AcDbCircle
10
58.887500000000053
20
33.981250000000017
30
0
40
0.50000000000002043
210
-0
220
0
230
1
100
AcDbArc
50
270.00000000000813
51
360
0
LINE
5
526
100
AcDbEntity
8
0
100
AcDbLine
10
59.387500000000095
20
46.981249999999989
30
0
11
59.38750000000006
21
33.981249999999989
31
0
0
ARC
5
527
100
AcDbEntity
8
0
100
AcDbCircle
10
58.887500000000088
20
46.981249999999989
30
0
40
0.50000000000000711
210
0
220
-0
230
1
100
AcDbArc
50
0
51
89.999999999995936
0
LINE
5
528
100
AcDbEntity
8
0
100
AcDbLine
10
45.887500000000152
20
47.481250000000003
30
0
11
58.887500000000124
21
47.481250000000003
31
0
0
ARC
5
529
100
AcDbEntity
8
0
100
AcDbCircle
10
45.887500000000045
20
46.981249999999974
30
0
40
0.50000000000002487
210
0
220
-0
230
1
100
AcDbArc
50
89.999999999987793
51
180
0
LINE
5
530
100
AcDbEntity
8
0
100
AcDbLine
10
45.387500000000038
20
33.981249999999996
30
0
11
45.387500000000038
21
46.981250000000003
31
0
0
ARC
5
531
100
AcDbEntity
8
0
100
AcDbCircle
10
45.887500000000117
20
33.981250000000038
30
0
40
0.50000000000007816
210
0
220
0
230
1
100
AcDbArc
50
180
51
269.99999999999591
0
LINE
5
532
100
AcDbEntity
8
0
100
AcDbLine
10
49.845478166891652
20
33.481249999999946
30
0
11
45.887500000000081
21
33.48124999999996
31
0
0
ARC
5
533
100
AcDbEntity
8
0
100
AcDbCircle
10
49.845478166891652
20
32.981249999999946
30
0
40
0.49999999999997685
210
-0
220
0
230
1
100
AcDbArc
50
-38.541177508256503
51
90
0
ARC
5
534
100
AcDbEntity
8
0
100
AcDbCircle
10
52.387500000000102
20
30.95624999999999
30
0
40
2.75
210
0
220
0
230
1
100
AcDbArc
50
-218.54117750825711
51
38.541177508258073
0
ARC
5
535
100
AcDbEntity
8
0
100
AcDbCircle
10
59.692021833108448
20
-24.168750000000003
30
0
40
0.49999999999997158
210
0
220
-0
230
1
100
AcDbArc
50
89.999999999995936
51
218.54117750825833
0
ARC
5
536
100
AcDbEntity
8
0
100
AcDbCircle
10
57.15000000000007
20
-26.193750000000023
30
0
40
2.7499999999999818
210
0
220
0
230
1
100
AcDbArc
50
-263.70685533984431
51
38.541177508258976
0
ARC
5
537
100
AcDbEntity
8
0
100
AcDbCircle
10
56.793750000000109
20
-22.963334246958304
30
0
40
0.50000000000003142
210
-0
220
0
230
1
100
AcDbArc
50
276.29314466015973
51
360
0
LINE
5
538
100
AcDbEntity
8
0
100
AcDbLine
10
57.293750000000152
20
-22.963334246958318
30
0
11
57.293750000000152
21
-10.168749999999998
31
0
0
ARC
5
539
100
AcDbEntity
8
0
100
AcDbCircle
10
57.793750000000124
20
-10.168749999999998
30
0
40
0.49999999999997158
210
0
220
-0
230
1
100
AcDbArc
50
90
51
180
0
LINE
5
540
100
AcDbEntity
8
0
100
AcDbLine
10
57.793750000000124
20
-9.6687500000000259
30
0
11
70.793750000000102
21
-9.6687500000000259
31
0
0
ARC
5
541
100
AcDbEntity
8
0
100
AcDbCircle
10
70.793750000000102
20
-10.168749999999998
30
0
40
0.49999999999997158
210
0
220
-0
230
1
100
AcDbArc
50
0
51
90
0
LINE
5
542
100
AcDbEntity
8
0
100
AcDbLine
10
71.293750000000074
20
-10.168749999999998
30
0
11
71.293750000000131
21
-23.168750000000003
31
0
0
ARC
5
543
100
AcDbEntity
8
0
100
AcDbCircle
10
70.793750000000102
20
-23.168749999999989
30
0
40
0.50000000000002487
210
-0
220
0
230
1
100
AcDbArc
50
270
51
360
0
LINE
5
544
100
AcDbEntity
8
0
100
AcDbLine
10
70.793750000000102
20
-23.66875000000001
30
0
11
59.692021833108484
21
-23.668750000000031
31
0
0
LINE
5
545
100
AcDbEntity
8
0
100
AcDbLine
10
45.082978166891685
20
-4.6187500000000092
30
0
11
41.125000000000078
21
-4.6187499999999648
31
0
0
ARC
5
546
100
AcDbEntity
8
0
100
AcDbCircle
10
41.125000000000007
20
-4.1187500000000288
30
0
40
0.49999999999993605
210
0
220
0
230
1
100
AcDbArc
50
180
51
270.00000000000813
0
LINE
5
547
100
AcDbEntity
8
0
100
AcDbLine
10
40.625000000000071
20
-4.1187499999999932
30
0
11
40.625000000000107
21
8.881250000000005
31
0
0
ARC
5
548
100
AcDbEntity
8
0
100
AcDbCircle
10
41.125000000000149
20
8.8812499999999694
30
0
40
0.50000000000003375
210
0
220
0
230
1
100
AcDbArc
50
90.000000000008143
51
180
0
LINE
5
549
100
AcDbEntity
8
0
100
AcDbLine
10
41.125000000000078
20
9.3812500000000032
30
0
11
54.12500000000005
21
9.3812500000000032
31
0
0
ARC
5
550
100
AcDbEntity
8
0
100
AcDbCircle
10
54.125000000000014
20
8.8812499999999961
30
0
40
0.50000000000000711
210
0
220
-0
230
1
100
AcDbArc
50
0
51
89.999999999995936
0
LINE
5
551
100
AcDbEntity
8
0
100
AcDbLine
10
54.625000000000021
20
8.8812499999999961
30
0
11
54.625000000000021
21
-4.1187500000000288
31
0
0
ARC
5
552
100
AcDbEntity
8
0
100
AcDbCircle
10
54.12500000000005
20
-4.1187500000000377
30
0
40
0.4999999999999627
210
-0
220
0
230
1
100
AcDbArc
50
-90
51
0
0
LINE
5
553
100
AcDbEntity
8
0
100
AcDbLine
10
54.12500000000005
20
-4.6187500000000004
30
0
11
50.167021833108478
21
-4.6187500000000004
31
0
0
ARC
5
554
100
AcDbEntity
8
0
100
AcDbCircle
10
50.167021833108478
20
-5.1187499999999986
30
0
40
0.49999999999999822
210
0
220
-0
230
1
100
AcDbArc
50
90
51
218.54117750826029
0
ARC
5
555
100
AcDbEntity
8
0
100
AcDbCircle
10
47.625000000000064
20
-7.1437500000000309
30
0
40
2.7499999999999893
210
0
220
0
230
1
100
AcDbArc
50
-218.54117750825918
51
38.541177508258194
0
ARC
5
556
100
AcDbEntity
8
0
100
AcDbCircle
10
45.082978166891721
20
-5.1187499999999808
30
0
40
0.49999999999996569
210
-0
220
0
230
1
100
AcDbArc
50
-38.541177508261079
51
90.000000000004079
0
LINE
5
557
100
AcDbEntity
8
0
100
AcDbLine
10
112.56250000000006
20
47.481249999999989
30
0
11
125.56250000000009
21
47.481250000000003
31
0
0
ARC
5
558
100
AcDbEntity
8
0
100
AcDbCircle
10
125.56250000000006
20
46.981249999999989
30
0
40
0.50000000000000711
210
0
220
-0
230
1
100
AcDbArc
50
0
51
89.999999999996746
0
LINE
5
559
100
AcDbEntity
8
0
100
AcDbLine
10
126.06250000000006
20
46.981249999999989
30
0
11
126.06250000000006
21
33.981249999999989
31
0
0
ARC
5
560
100
AcDbEntity
8
0
100
AcDbCircle
10
125.56250000000003
20
33.981250000000017
30
0
40
0.50000000000003375
210
-0
220
0
230
1
100
AcDbArc
50
270.00000000000648
51
360
0
LINE
5
561
100
AcDbEntity
8
0
100
AcDbLine
10
125.56250000000009
20
33.481249999999989
30
0
11
112.56250000000006
21
33.481250000000024
31
0
0
ARC
5
562
100
AcDbEntity
8
0
100
AcDbCircle
10
112.56250000000006
20
33.981249999999989
30
0
40
0.49999999999997158
210
0
220
0
230
1
100
AcDbArc
50
180
51
270
0
LINE
5
563
100
AcDbEntity
8
0
100
AcDbLine
10
112.06250000000009
20
33.981249999999996
30
0
11
112.0625
21
46.981249999999982
31
0
0
ARC
5
564
100
AcDbEntity
8
0
100
AcDbCircle
10
112.56250000000001
20
46.981249999999974
30
0
40
0.50000000000002487
210
0
220
-0
230
1
100
AcDbArc
50
89.999999999995111
51
180
0
LINE
5
565
100
AcDbEntity
8
0
100
AcDbLine
10
45.100000000000016
20
-10.168749999999998
30
0
11
45.100000000000087
21
-23.168750000000003
31
0
0
ARC
5
566
100
AcDbEntity
8
0
100
AcDbCircle
10
44.600000000000044
20
-23.168749999999989
30
0
40
0.50000000000002487
210
-0
220
0
230
1
100
AcDbArc
50
270
51
360
0
LINE
5
567
100
AcDbEntity
8
0
100
AcDbLine
10
44.600000000000044
20
-23.66875000000001
30
0
11
31.600000000000072
21
-23.668749999999996
31
0
0
ARC
5
568
100
AcDbEntity
8
0
100
AcDbCircle
10
31.600000000000108
20
-23.168749999999953
30
0
40
0.50000000000004263
210
0
220
0
230
1
100
AcDbArc
50
180
51
269.99999999999591
0
LINE
5
569
100
AcDbEntity
8
0
100
AcDbLine
10
31.100000000000065
20
-23.168750000000003
30
0
11
31.10000000000003
21
-10.168749999999998
31
0
0
ARC
5
570
100
AcDbEntity
8
0
100
AcDbCircle
10
31.600000000000037
20
-10.168749999999998
30
0
40
0.50000000000000711
210
0
220
-0
230
1
100
AcDbArc
50
90
51
180
0
LINE
5
571
100
AcDbEntity
8
0
100
AcDbLine
10
31.600000000000037
20
-9.6687499999999904
30
0
11
44.600000000000044
21
-9.6687500000000259
31
0
0
ARC
5
572
100
AcDbEntity
8
0
100
AcDbCircle
10
44.600000000000044
20
-10.168749999999998
30
0
40
0.49999999999997158
210
0
220
-0
230
1
100
AcDbArc
50
0
51
90
0
LINE
5
573
100
AcDbEntity
8
0
100
AcDbLine
10
-121.58749999999995
20
27.931250000000016
30
0
11
-121.58749999999991
21
14.931250000000018
31
0
0
ARC
5
574
100
AcDbEntity
8
0
100
AcDbCircle
10
-122.08749999999989
20
14.93125
30
0
40
0.49999999999998934
210
0
220
0
230
1
100
AcDbArc
50
-90.000000000003254
51
0
0
LINE
5
575
100
AcDbEntity
8
0
100
AcDbLine
10
-122.08749999999992
20
14.431250000000011
30
0
11
-135.08749999999989
21
14.431249999999975
31
0
0
ARC
5
576
100
AcDbEntity
8
0
100
AcDbCircle
10
-135.08749999999986
20
14.931250000000036
30
0
40
0.5000000000000604
210
0
220
0
230
1
100
AcDbArc
50
180
51
269.99999999999676
0
LINE
5
577
100
AcDbEntity
8
0
100
AcDbLine
10
-135.58749999999992
20
14.931250000000018
30
0
11
-135.58749999999989
21
27.931250000000016
31
0
0
ARC
5
578
100
AcDbEntity
8
0
100
AcDbCircle
10
-135.08749999999989
20
27.931250000000016
30
0
40
0.49999999999999822
210
0
220
-0
230
1
100
AcDbArc
50
90
51
180
0
LINE
5
579
100
AcDbEntity
8
0
100
AcDbLine
10
-135.08749999999989
20
28.431250000000013
30
0
11
-122.08749999999992
21
28.431249999999988
31
0
0
ARC
5
580
100
AcDbEntity
8
0
100
AcDbCircle
10
-122.08749999999992
20
27.931250000000027
30
0
40
0.49999999999997158
210
-0
220
0
230
1
100
AcDbArc
50
0
51
90.000000000001634
0
ARC
5
581
100
AcDbEntity
8
0
100
AcDbCircle
10
-180.3312499999999
20
-29.218750000000007
30
0
40
0.50000000000004263
210
0
220
0
230
1
100
AcDbArc
50
90.000000000006523
51
180
0
LINE
5
582
100
AcDbEntity
8
0
100
AcDbLine
10
-180.83124999999993
20
-42.218749999999979
30
0
11
-180.83124999999995
21
-29.218749999999972
31
0
0
ARC
5
583
100
AcDbEntity
8
0
100
AcDbCircle
10
-180.33124999999995
20
-42.218749999999979
30
0
40
0.49999999999997158
210
0
220
0
230
1
100
AcDbArc
50
180
51
270
0
LINE
5
584
100
AcDbEntity
8
0
100
AcDbLine
10
-167.33124999999998
20
-42.718749999999972
30
0
11
-180.33124999999995
21
-42.71874999999995
31
0
0
ARC
5
585
100
AcDbEntity
8
0
100
AcDbCircle
10
-167.33124999999998
20
-42.218749999999979
30
0
40
0.49999999999998934
210
-0
220
0
230
1
100
AcDbArc
50
-90
51
0
0
LINE
5
586
100
AcDbEntity
8
0
100
AcDbLine
10
-166.83124999999993
20
-29.218749999999993
30
0
11
-166.83124999999995
21
-42.218749999999979
31
0
0
ARC
5
587
100
AcDbEntity
8
0
100
AcDbCircle
10
-167.33124999999998
20
-29.218749999999957
30
0
40
0.50000000000004263
210
-0
220
0
230
1
100
AcDbArc
50
0
51
90
0
LINE
5
588
100
AcDbEntity
8
0
100
AcDbLine
10
-180.33124999999995
20
-28.718749999999964
30
0
11
-167.33124999999998
21
-28.718749999999915
31
0
0
LINE
5
589
100
AcDbEntity
8
0
100
AcDbLine
10
164.16250000000008
20
27.931249999999981
30
0
11
164.16250000000008
21
14.931249999999983
31
0
0
ARC
5
590
100
AcDbEntity
8
0
100
AcDbCircle
10
163.66250000000019
20
14.931249999999903
30
0
40
0.49999999999992717
210
0
220
0
230
1
100
AcDbArc
50
-90.000000000016286
51
0
0
LINE
5
591
100
AcDbEntity
8
0
100
AcDbLine
10
163.66250000000005
20
14.431249999999975
30
0
11
150.66250000000008
21
14.43125000000002
31
0
0
ARC
5
592
100
AcDbEntity
8
0
100
AcDbCircle
10
150.66250000000014
20
14.931250000000063
30
0
40
0.50000000000004263
210
0
220
0
230
1
100
AcDbArc
50
180
51
269.99999999999022
0
LINE
5
593
100
AcDbEntity
8
0
100
AcDbLine
10
150.16250000000011
20
14.931249999999983
30
0
11
150.16250000000011
21
27.931249999999981
31
0
0
ARC
5
594
100
AcDbEntity
8
0
100
AcDbCircle
10
150.66249999999994
20
27.931250000000123
30
0
40
0.49999999999985612
210
0
220
-0
230
1
100
AcDbArc
50
89.999999999983714
51
180
0
LINE
5
595
100
AcDbEntity
8
0
100
AcDbLine
10
150.66250000000008
20
28.431249999999977
30
0
11
163.66250000000005
21
28.431250000000013
31
0
0
ARC
5
596
100
AcDbEntity
8
0
100
AcDbCircle
10
163.66250000000005
20
27.931249999999981
30
0
40
0.50000000000004263
210
0
220
-0
230
1
100
AcDbArc
50
0
51
90
0
LINE
5
597
100
AcDbEntity
8
0
100
AcDbLine
10
-130.82499999999993
20
-4.1187499999999932
30
0
11
-130.82499999999996
21
8.8812500000000227
31
0
0
ARC
5
598
100
AcDbEntity
8
0
100
AcDbCircle
10
-130.32499999999996
20
8.8812500000000227
30
0
40
0.49999999999999822
210
0
220
-0
230
1
100
AcDbArc
50
90
51
180
0
LINE
5
599
100
AcDbEntity
8
0
100
AcDbLine
10
-130.32499999999996
20
9.381250000000021
30
0
11
-117.32499999999999
21
9.3812500000000743
31
0
0
ARC
5
600
100
AcDbEntity
8
0
100
AcDbCircle
10
-117.325
20
8.8812500000000139
30
0
40
0.5000000000000604
210
0
220
-0
230
1
100
AcDbArc
50
0
51
89.99999999999838
0
LINE
5
601
100
AcDbEntity
8
0
100
AcDbLine
10
-116.82499999999993
20
8.8812500000000227
30
0
11
-116.82499999999997
21
-4.1187499999999932
31
0
0
ARC
5
602
100
AcDbEntity
8
0
100
AcDbCircle
10
-117.32499999999996
20
-4.118750000000011
30
0
40
0.49999999999998934
210
0
220
0
230
1
100
AcDbArc
50
-90.000000000003254
51
0
0
LINE
5
603
100
AcDbEntity
8
0
100
AcDbLine
10
-117.32499999999999
20
-4.6187500000000004
30
0
11
-130.32499999999996
21
-4.6187499999999648
31
0
0
ARC
5
604
100
AcDbEntity
8
0
100
AcDbCircle
10
-130.32499999999996
20
-4.1187500000000021
30
0
40
0.49999999999997158
210
0
220
0
230
1
100
AcDbArc
50
180
51
270.00000000000324
0
LINE
5
605
100
AcDbEntity
8
0
100
AcDbLine
10
-111.77499999999992
20
-4.1187499999999932
30
0
11
-111.77499999999995
21
8.8812500000000227
31
0
0
ARC
5
606
100
AcDbEntity
8
0
100
AcDbCircle
10
-111.27499999999995
20
8.8812500000000227
30
0
40
0.49999999999999822
210
0
220
-0
230
1
100
AcDbArc
50
90
51
180
0
LINE
5
607
100
AcDbEntity
8
0
100
AcDbLine
10
-111.27499999999995
20
9.381250000000021
30
0
11
-98.274999999999892
21
9.3812500000000032
31
0
0
ARC
5
608
100
AcDbEntity
8
0
100
AcDbCircle
10
-98.27499999999992
20
8.8812500000000227
30
0
40
0.49999999999998934
210
0
220
-0
230
1
100
AcDbArc
50
0
51
89.999999999996746
0
LINE
5
609
100
AcDbEntity
8
0
100
AcDbLine
10
-97.77499999999992
20
8.8812500000000227
30
0
11
-97.774999999999892
21
-4.1187499999999932
31
0
0
ARC
5
610
100
AcDbEntity
8
0
100
AcDbCircle
10
-98.274999999999892
20
-4.1187500000000021
30
0
40
0.49999999999999822
210
-0
220
0
230
1
100
AcDbArc
50
-90
51
0
0
LINE
5
611
100
AcDbEntity
8
0
100
AcDbLine
10
-98.274999999999892
20
-4.6187500000000004
30
0
11
-111.27499999999995
21
-4.6187499999999648
31
0
0
ARC
5
612
100
AcDbEntity
8
0
100
AcDbCircle
10
-111.27499999999995
20
-4.1187500000000021
30
0
40
0.49999999999997158
210
0
220
0
230
1
100
AcDbArc
50
180
51
270.00000000000324
0
ARC
5
613
100
AcDbEntity
8
0
100
AcDbCircle
10
144.61250000000018
20
-4.118750000000162
30
0
40
0.49999999999987388
210
0
220
0
230
1
100
AcDbArc
50
-90.000000000016286
51
0
0
LINE
5
614
100
AcDbEntity
8
0
100
AcDbLine
10
145.11250000000007
20
8.8812499999999872
30
0
11
145.11250000000007
21
-4.1187500000000288
31
0
0
ARC
5
615
100
AcDbEntity
8
0
100
AcDbCircle
10
144.61250000000004
20
8.8812499999998984
30
0
40
0.50000000000004263
210
0
220
-0
230
1
100
AcDbArc
50
0
51
89.999999999993491
0
LINE
5
616
100
AcDbEntity
8
0
100
AcDbLine
10
131.61250000000007
20
9.3812499999999854
30
0
11
144.6125000000001
21
9.3812499999999766
31
0
0
ARC
5
617
100
AcDbEntity
8
0
100
AcDbCircle
10
131.61250000000013
20
8.8812499999999517
30
0
40
0.50000000000003375
210
0
220
0
230
1
100
AcDbArc
50
90.000000000006523
51
180
0
LINE
5
618
100
AcDbEntity
8
0
100
AcDbLine
10
131.1125000000001
20
-4.1187500000000288
30
0
11
131.1125000000001
21
8.8812499999999872
31
0
0
ARC
5
619
100
AcDbEntity
8
0
100
AcDbCircle
10
131.6125000000001
20
-4.1187500000000288
30
0
40
0.50000000000000711
210
0
220
0
230
1
100
AcDbArc
50
180
51
269.99999999999676
0
LINE
5
620
100
AcDbEntity
8
0
100
AcDbLine
10
144.61250000000004
20
-4.6187500000000359
30
0
11
131.61250000000007
21
-4.6187500000000092
31
0
0
ARC
5
621
100
AcDbEntity
8
0
100
AcDbCircle
10
144.61250000000024
20
33.981249999999854
30
0
40
0.49999999999986944
210
0
220
0
230
1
100
AcDbArc
50
-90.000000000022794
51
0
0
LINE
5
622
100
AcDbEntity
8
0
100
AcDbLine
10
145.11250000000007
20
46.981249999999982
30
0
11
145.11250000000007
21
33.981249999999989
31
0
0
ARC
5
623
100
AcDbEntity
8
0
100
AcDbCircle
10
144.61250000000004
20
46.981249999999903
30
0
40
0.50000000000004263
210
0
220
-0
230
1
100
AcDbArc
50
0
51
89.999999999993491
0
LINE
5
624
100
AcDbEntity
8
0
100
AcDbLine
10
131.61250000000007
20
47.481249999999982
30
0
11
144.6125000000001
21
47.48124999999996
31
0
0
ARC
5
625
100
AcDbEntity
8
0
100
AcDbCircle
10
131.61250000000013
20
46.981249999999918
30
0
40
0.5000000000000604
210
0
220
0
230
1
100
AcDbArc
50
90.000000000006523
51
180
0
LINE
5
626
100
AcDbEntity
8
0
100
AcDbLine
10
131.1125000000001
20
33.981249999999989
30
0
11
131.11250000000007
21
46.981249999999982
31
0
0
ARC
5
627
100
AcDbEntity
8
0
100
AcDbCircle
10
131.6125000000001
20
33.981249999999989
30
0
40
0.50000000000000711
210
0
220
0
230
1
100
AcDbArc
50
180
51
269.99999999999676
0
LINE
5
628
100
AcDbEntity
8
0
100
AcDbLine
10
144.61250000000004
20
33.481249999999989
30
0
11
131.61250000000007
21
33.481250000000003
31
0
0
LINE
5
629
100
AcDbEntity
8
0
100
AcDbLine
10
-120.79999999999995
20
-9.6687499999999904
30
0
11
-107.79999999999998
21
-9.6687499999999371
31
0
0
ARC
5
630
100
AcDbEntity
8
0
100
AcDbCircle
10
-107.79999999999998
20
-10.16874999999998
30
0
40
0.50000000000004263
210
-0
220
0
230
1
100
AcDbArc
50
0
51
90
0
LINE
5
631
100
AcDbEntity
8
0
100
AcDbLine
10
-107.29999999999993
20
-10.168749999999998
30
0
11
-107.29999999999997
21
-23.168749999999989
31
0
0
ARC
5
632
100
AcDbEntity
8
0
100
AcDbCircle
10
-107.79999999999998
20
-23.168749999999967
30
0
40
0.50000000000000711
210
-0
220
0
230
1
100
AcDbArc
50
270
51
360
0
LINE
5
633
100
AcDbEntity
8
0
100
AcDbLine
10
-107.79999999999998
20
-23.668749999999974
30
0
11
-120.79999999999995
21
-23.668749999999925
31
0
0
ARC
5
634
100
AcDbEntity
8
0
100
AcDbCircle
10
-120.79999999999997
20
-23.168749999999967
30
0
40
0.49999999999995381
210
0
220
0
230
1
100
AcDbArc
50
180
51
270.00000000000159
0
LINE
5
635
100
AcDbEntity
8
0
100
AcDbLine
10
-121.29999999999993
20
-23.168749999999967
30
0
11
-121.29999999999995
21
-10.16874999999998
31
0
0
ARC
5
636
100
AcDbEntity
8
0
100
AcDbCircle
10
-120.79999999999995
20
-10.168749999999998
30
0
40
0.50000000000000711
210
0
220
-0
230
1
100
AcDbArc
50
90
51
180
0
ARC
5
637
100
AcDbEntity
8
0
100
AcDbCircle
10
-68.412499999999909
20
46.98125000000001
30
0
40
0.50000000000000711
210
0
220
-0
230
1
100
AcDbArc
50
90
51
180
0
LINE
5
638
100
AcDbEntity
8
0
100
AcDbLine
10
-68.912499999999966
20
33.98125000000001
30
0
11
-68.912499999999923
21
46.98125000000001
31
0
0
ARC
5
639
100
AcDbEntity
8
0
100
AcDbCircle
10
-68.412499999999909
20
33.981250000000017
30
0
40
0.50000000000004263
210
0
220
0
230
1
100
AcDbArc
50
180
51
269.99999999999835
0
LINE
5
640
100
AcDbEntity
8
0
100
AcDbLine
10
-55.412499999999945
20
33.481250000000003
30
0
11
-68.412499999999909
21
33.481249999999967
31
0
0
ARC
5
641
100
AcDbEntity
8
0
100
AcDbCircle
10
-55.412499999999945
20
33.981250000000003
30
0
40
0.49999999999999822
210
-0
220
0
230
1
100
AcDbArc
50
-90
51
0
0
LINE
5
642
100
AcDbEntity
8
0
100
AcDbLine
10
-54.912499999999937
20
46.98125000000001
30
0
11
-54.912499999999937
21
33.98125000000001
31
0
0
ARC
5
643
100
AcDbEntity
8
0
100
AcDbCircle
10
-55.412499999999945
20
46.98125000000001
30
0
40
0.50000000000000711
210
0
220
0
230
1
100
AcDbArc
50
0
51
89.99999999999919
0
LINE
5
644
100
AcDbEntity
8
0
100
AcDbLine
10
-68.412499999999909
20
47.48125000000001
30
0
11
-55.412499999999945
21
47.481250000000017
31
0
0
ARC
5
645
100
AcDbEntity
8
0
100
AcDbCircle
10
-101.74999999999994
20
-10.168749999999998
30
0
40
0.50000000000000711
210
0
220
-0
230
1
100
AcDbArc
50
90
51
180
0
LINE
5
646
100
AcDbEntity
8
0
100
AcDbLine
10
-102.24999999999991
20
-23.168749999999967
30
0
11
-102.24999999999994
21
-10.16874999999998
31
0
0
ARC
5
647
100
AcDbEntity
8
0
100
AcDbCircle
10
-101.74999999999996
20
-23.168749999999967
30
0
40
0.49999999999995381
210
0
220
0
230
1
100
AcDbArc
50
180
51
270.00000000000159
0
LINE
5
648
100
AcDbEntity
8
0
100
AcDbLine
10
-88.749999999999972
20
-23.668749999999974
30
0
11
-101.74999999999994
21
-23.668749999999925
31
0
0
ARC
5
649
100
AcDbEntity
8
0
100
AcDbCircle
10
-88.749999999999972
20
-23.168750000000003
30
0
40
0.49999999999997158
210
-0
220
0
230
1
100
AcDbArc
50
-90
51
0
0
LINE
5
650
100
AcDbEntity
8
0
100
AcDbLine
10
-88.249999999999915
20
-10.168749999999998
30
0
11
-88.25
21
-23.168750000000003
31
0
0
ARC
5
651
100
AcDbEntity
8
0
100
AcDbCircle
10
-88.749999999999986
20
-10.16874999999998
30
0
40
0.5000000000000604
210
-0
220
0
230
1
100
AcDbArc
50
0
51
89.99999999999838
0
LINE
5
652
100
AcDbEntity
8
0
100
AcDbLine
10
-101.74999999999994
20
-9.6687499999999904
30
0
11
-88.749999999999972
21
-9.6687499999999371
31
0
0
ARC
5
653
100
AcDbEntity
8
0
100
AcDbCircle
10
-6.4999999999999147
20
-23.168750000000003
30
0
40
0.50000000000000711
210
0
220
0
230
1
100
AcDbArc
50
180
51
270
0
LINE
5
654
100
AcDbEntity
8
0
100
AcDbLine
10
6.5000000000000924
20
-23.66875000000001
30
0
11
-6.4999999999999147
21
-23.66875000000001
31
0
0
ARC
5
655
100
AcDbEntity
8
0
100
AcDbCircle
10
6.5000000000000924
20
-23.168749999999989
30
0
40
0.50000000000002487
210
-0
220
0
230
1
100
AcDbArc
50
270
51
360
0
LINE
5
656
100
AcDbEntity
8
0
100
AcDbLine
10
7.0000000000000995
20
-10.168749999999998
30
0
11
7.000000000000135
21
-23.168750000000003
31
0
0
ARC
5
657
100
AcDbEntity
8
0
100
AcDbCircle
10
6.5000000000000568
20
-10.168750000000051
30
0
40
0.50000000000004263
210
0
220
-0
230
1
100
AcDbArc
50
0
51
89.999999999995936
0
LINE
5
658
100
AcDbEntity
8
0
100
AcDbLine
10
-6.4999999999999147
20
-9.6687499999999904
30
0
11
6.5000000000000924
21
-9.6687500000000082
31
0
0
ARC
5
659
100
AcDbEntity
8
0
100
AcDbCircle
10
-6.4999999999999147
20
-10.168749999999998
30
0
40
0.50000000000000711
210
0
220
-0
230
1
100
AcDbArc
50
90
51
180
0
LINE
5
660
100
AcDbEntity
8
0
100
AcDbLine
10
-6.9999999999999218
20
-23.168750000000003
30
0
11
-6.9999999999999218
21
-10.168749999999998
31
0
0
LINE
5
661
100
AcDbEntity
8
0
100
AcDbLine
10
-87.46249999999992
20
47.481250000000017
30
0
11
-74.462499999999892
21
47.481249999999989
31
0
0
ARC
5
662
100
AcDbEntity
8
0
100
AcDbCircle
10
-74.462499999999892
20
46.98125000000001
30
0
40
0.49999999999997158
210
-0
220
0
230
1
100
AcDbArc
50
0
51
90
0
LINE
5
663
100
AcDbEntity
8
0
100
AcDbLine
10
-73.96249999999992
20
46.98125000000001
30
0
11
-73.962499999999864
21
33.98125000000001
31
0
0
ARC
5
664
100
AcDbEntity
8
0
100
AcDbCircle
10
-74.462499999999849
20
33.98125000000001
30
0
40
0.49999999999999378
210
0
220
0
230
1
100
AcDbArc
50
-90.000000000004889
51
0
0
LINE
5
665
100
AcDbEntity
8
0
100
AcDbLine
10
-74.462499999999892
20
33.481250000000017
30
0
11
-87.46249999999992
21
33.481250000000038
31
0
0
ARC
5
666
100
AcDbEntity
8
0
100
AcDbCircle
10
-87.46249999999992
20
33.98125000000001
30
0
40
0.49999999999997158
210
0
220
0
230
1
100
AcDbArc
50
180
51
270
0
LINE
5
667
100
AcDbEntity
8
0
100
AcDbLine
10
-87.962499999999892
20
33.98125000000001
30
0
11
-87.962499999999935
21
46.981250000000017
31
0
0
ARC
5
668
100
AcDbEntity
8
0
100
AcDbCircle
10
-87.462499999999963
20
46.981250000000045
30
0
40
0.49999999999997158
210
0
220
-0
230
1
100
AcDbArc
50
89.999999999995111
51
180
0
LINE
5
669
100
AcDbEntity
8
0
100
AcDbLine
10
-149.36824999999996
20
-24.668749999999989
30
0
11
-155.36824999999996
21
-24.668749999999953
31
0
0
ARC
5
670
100
AcDbEntity
8
0
100
AcDbCircle
10
-155.36824999999996
20
-24.168749999999982
30
0
40
0.49999999999997158
210
0
220
0
230
1
100
AcDbArc
50
180
51
270
0
LINE
5
671
100
AcDbEntity
8
0
100
AcDbLine
10
-155.86824999999993
20
-24.168749999999982
30
0
11
-155.8682499999999
21
-10.168749999999998
31
0
0
ARC
5
672
100
AcDbEntity
8
0
100
AcDbCircle
10
-155.36824999999988
20
-10.168750000000033
30
0
40
0.50000000000004263
210
0
220
0
230
1
100
AcDbArc
50
90.000000000003254
51
180
0
LINE
5
673
100
AcDbEntity
8
0
100
AcDbLine
10
-155.3682499999999
20
-9.6687499999999904
30
0
11
-149.36824999999996
21
-9.6687499999999371
31
0
0
ARC
5
674
100
AcDbEntity
8
0
100
AcDbCircle
10
-149.36824999999996
20
-10.16874999999998
30
0
40
0.50000000000004263
210
-0
220
0
230
1
100
AcDbArc
50
0
51
90
0
LINE
5
675
100
AcDbEntity
8
0
100
AcDbLine
10
-148.8682499999999
20
-10.168750000000015
30
0
11
-148.86824999999993
21
-24.168749999999982
31
0
0
ARC
5
676
100
AcDbEntity
8
0
100
AcDbCircle
10
-149.36824999999999
20
-24.168749999999946
30
0
40
0.50000000000004263
210
-0
220
0
230
1
100
AcDbArc
50
270.00000000000324
51
360
0
LINE
5
677
100
AcDbEntity
8
0
100
AcDbLine
10
-164.4499999999999
20
27.931250000000027
30
0
11
-164.44999999999993
21
14.931250000000018
31
0
0
ARC
5
678
100
AcDbEntity
8
0
100
AcDbCircle
10
-164.94999999999993
20
14.931250000000018
30
0
40
0.49999999999999822
210
-0
220
0
230
1
100
AcDbArc
50
-90
51
0
0
LINE
5
679
100
AcDbEntity
8
0
100
AcDbLine
10
-164.94999999999993
20
14.43125000000002
30
0
11
-177.9499999999999
21
14.431249999999975
31
0
0
ARC
5
680
100
AcDbEntity
8
0
100
AcDbCircle
10
-177.9499999999999
20
14.931250000000036
30
0
40
0.50000000000004263
210
0
220
0
230
1
100
AcDbArc
50
180
51
270
0
LINE
5
681
100
AcDbEntity
8
0
100
AcDbLine
10
-178.44999999999996
20
14.931250000000018
30
0
11
-178.44999999999993
21
27.931250000000027
31
0
0
ARC
5
682
100
AcDbEntity
8
0
100
AcDbCircle
10
-177.9499999999999
20
27.931250000000027
30
0
40
0.49999999999999822
210
0
220
0
230
1
100
AcDbArc
50
90.000000000009777
51
180
0
LINE
5
683
100
AcDbEntity
8
0
100
AcDbLine
10
-177.94999999999999
20
28.431250000000023
30
0
11
-164.94999999999993
21
28.43125000000007
31
0
0
ARC
5
684
100
AcDbEntity
8
0
100
AcDbCircle
10
-164.94999999999993
20
27.931250000000006
30
0
40
0.50000000000004263
210
0
220
-0
230
1
100
AcDbArc
50
0
51
90
0
LINE
5
685
100
AcDbEntity
8
0
100
AcDbLine
10
150.16250000000002
20
33.981249999999989
30
0
11
150.16250000000011
21
46.981249999999982
31
0
0
ARC
5
686
100
AcDbEntity
8
0
100
AcDbCircle
10
150.66249999999994
20
46.981250000000124
30
0
40
0.49999999999985612
210
0
220
-0
230
1
100
AcDbArc
50
89.999999999983714
51
180
0
LINE
5
687
100
AcDbEntity
8
0
100
AcDbLine
10
150.66250000000008
20
47.481249999999982
30
0
11
163.66250000000005
21
47.48124999999996
31
0
0
ARC
5
688
100
AcDbEntity
8
0
100
AcDbCircle
10
163.66249999999997
20
46.981249999999903
30
0
40
0.50000000000004263
210
0
220
-0
230
1
100
AcDbArc
50
0
51
89.999999999990237
0
LINE
5
689
100
AcDbEntity
8
0
100
AcDbLine
10
164.16250000000002
20
46.981249999999982
30
0
11
164.16250000000002
21
33.981249999999989
31
0
0
ARC
5
690
100
AcDbEntity
8
0
100
AcDbCircle
10
163.66250000000019
20
33.981249999999839
30
0
40
0.49999999999985167
210
0
220
0
230
1
100
AcDbArc
50
-90.000000000016286
51
0
0
LINE
5
691
100
AcDbEntity
8
0
100
AcDbLine
10
163.66250000000005
20
33.481249999999989
30
0
11
150.66250000000008
21
33.481249999999953
31
0
0
ARC
5
692
100
AcDbEntity
8
0
100
AcDbCircle
10
150.66250000000008
20
33.981249999999989
30
0
40
0.50000000000004263
210
0
220
0
230
1
100
AcDbArc
50
180
51
270
0
ARC
5
693
100
AcDbEntity
8
0
100
AcDbCircle
10
25.550000000000068
20
-29.218750000000007
30
0
40
0.50000000000000711
210
0
220
-0
230
1
100
AcDbArc
50
0
51
90
0
LINE
5
694
100
AcDbEntity
8
0
100
AcDbLine
10
12.550000000000061
20
-28.71875
30
0
11
25.550000000000068
21
-28.71875
31
0
0
ARC
5
695
100
AcDbEntity
8
0
100
AcDbCircle
10
12.550000000000061
20
-29.218750000000028
30
0
40
0.50000000000002487
210
0
220
-0
230
1
100
AcDbArc
50
90
51
180
0
LINE
5
696
100
AcDbEntity
8
0
100
AcDbLine
10
12.05000000000009
20
-42.21875
30
0
11
12.050000000000018
21
-29.218750000000007
31
0
0
ARC
5
697
100
AcDbEntity
8
0
100
AcDbCircle
10
12.550000000000061
20
-42.21875
30
0
40
0.49999999999997158
210
0
220
0
230
1
100
AcDbArc
50
180
51
270
0
LINE
5
698
100
AcDbEntity
8
0
100
AcDbLine
10
25.550000000000068
20
-42.718749999999986
30
0
11
12.550000000000061
21
-42.718749999999972
31
0
0
ARC
5
699
100
AcDbEntity
8
0
100
AcDbCircle
10
25.550000000000068
20
-42.218749999999979
30
0
40
0.50000000000000711
210
-0
220
0
230
1
100
AcDbArc
50
270
51
360
0
LINE
5
700
100
AcDbEntity
8
0
100
AcDbLine
10
26.050000000000075
20
-29.218750000000007
30
0
11
26.050000000000075
21
-42.21875
31
0
0
LINE
5
701
100
AcDbEntity
8
0
100
AcDbLine
10
-135.87499999999994
20
8.8812500000000227
30
0
11
-135.87499999999991
21
-4.1187499999999932
31
0
0
ARC
5
702
100
AcDbEntity
8
0
100
AcDbCircle
10
-136.37499999999991
20
-4.118750000000011
30
0
40
0.49999999999998934
210
0
220
0
230
1
100
AcDbArc
50
-90
51
0
0
LINE
5
703
100
AcDbEntity
8
0
100
AcDbLine
10
-136.37499999999991
20
-4.6187500000000004
30
0
11
-149.37499999999997
21
-4.6187499999999648
31
0
0
ARC
5
704
100
AcDbEntity
8
0
100
AcDbCircle
10
-149.37499999999997
20
-4.1187500000000021
30
0
40
0.49999999999997158
210
0
220
0
230
1
100
AcDbArc
50
180
51
270.00000000000324
0
LINE
5
705
100
AcDbEntity
8
0
100
AcDbLine
10
-149.87499999999994
20
-4.1187499999999932
30
0
11
-149.87499999999997
21
8.8812500000000227
31
0
0
ARC
5
706
100
AcDbEntity
8
0
100
AcDbCircle
10
-149.37499999999997
20
8.8812500000000227
30
0
40
0.49999999999999822
210
0
220
-0
230
1
100
AcDbArc
50
90
51
180
0
LINE
5
707
100
AcDbEntity
8
0
100
AcDbLine
10
-149.37499999999997
20
9.381250000000021
30
0
11
-136.37499999999991
21
9.3812499999999943
31
0
0
ARC
5
708
100
AcDbEntity
8
0
100
AcDbCircle
10
-136.37499999999991
20
8.8812500000000316
30
0
40
0.49999999999997158
210
-0
220
0
230
1
100
AcDbArc
50
0
51
90.000000000003254
0
ARC
5
709
100
AcDbEntity
8
0
100
AcDbCircle
10
20.78750000000003
20
33.981250000000038
30
0
40
0.50000000000003375
210
-0
220
0
230
1
100
AcDbArc
50
270.00000000000813
51
360
0
LINE
5
710
100
AcDbEntity
8
0
100
AcDbLine
10
21.287500000000108
20
46.981250000000003
30
0
11
21.287500000000072
21
33.981250000000003
31
0
0
ARC
5
711
100
AcDbEntity
8
0
100
AcDbCircle
10
20.787500000000101
20
46.981250000000031
30
0
40
0.50000000000000711
210
-0
220
0
230
1
100
AcDbArc
50
0
51
90
0
LINE
5
712
100
AcDbEntity
8
0
100
AcDbLine
10
7.7875000000000938
20
47.481250000000003
30
0
11
20.787500000000101
21
47.481250000000017
31
0
0
ARC
5
713
100
AcDbEntity
8
0
100
AcDbCircle
10
7.7875000000000938
20
46.98124999999996
30
0
40
0.50000000000004263
210
0
220
-0
230
1
100
AcDbArc
50
90
51
180
0
LINE
5
714
100
AcDbEntity
8
0
100
AcDbLine
10
7.2875000000000867
20
33.981250000000003
30
0
11
7.2875000000000512
21
46.981250000000003
31
0
0
ARC
5
715
100
AcDbEntity
8
0
100
AcDbCircle
10
7.7875000000000227
20
33.981249999999946
30
0
40
0.49999999999993605
210
0
220
0
230
1
100
AcDbArc
50
180
51
270.00000000000813
0
LINE
5
716
100
AcDbEntity
8
0
100
AcDbLine
10
20.787500000000101
20
33.481250000000003
30
0
11
7.7875000000000938
21
33.481250000000003
31
0
0
ARC
5
717
100
AcDbEntity
8
0
100
AcDbCircle
10
63.64325000000008
20
-5.1187500000000075
30
0
40
0.50000000000000711
210
0
220
0
230
1
100
AcDbArc
50
180
51
269.99999999999591
0
LINE
5
718
100
AcDbEntity
8
0
100
AcDbLine
10
69.643250000000052
20
-5.6187500000000146
30
0
11
63.643250000000045
21
-5.6187500000000146
31
0
0
ARC
5
719
100
AcDbEntity
8
0
100
AcDbCircle
10
69.643250000000137
20
-5.1187500000000075
30
0
40
0.50000000000000711
210
0
220
0
230
1
100
AcDbArc
50
-90.000000000009777
51
0
0
LINE
5
720
100
AcDbEntity
8
0
100
AcDbLine
10
70.143250000000108
20
8.8812499999999961
30
0
11
70.143250000000137
21
-5.1187500000000075
31
0
0
ARC
5
721
100
AcDbEntity
8
0
100
AcDbCircle
10
69.643250000000094
20
8.8812499999999961
30
0
40
0.50000000000000711
210
0
220
-0
230
1
100
AcDbArc
50
0
51
89.999999999995111
0
LINE
5
722
100
AcDbEntity
8
0
100
AcDbLine
10
63.643250000000045
20
9.3812499999999943
30
0
11
69.643250000000137
21
9.3812499999999766
31
0
0
ARC
5
723
100
AcDbEntity
8
0
100
AcDbCircle
10
63.643250000000116
20
8.8812499999999694
30
0
40
0.50000000000002487
210
0
220
0
230
1
100
AcDbArc
50
90.000000000008143
51
180
0
LINE
5
724
100
AcDbEntity
8
0
100
AcDbLine
10
63.143250000000073
20
-5.1187500000000075
30
0
11
63.143250000000073
21
8.8812499999999961
31
0
0
LINE
5
725
100
AcDbEntity
8
0
100
AcDbLine
10
-140.34999999999994
20
-23.168749999999967
30
0
11
-140.34999999999997
21
-10.16874999999998
31
0
0
ARC
5
726
100
AcDbEntity
8
0
100
AcDbCircle
10
-139.84999999999997
20
-10.168749999999998
30
0
40
0.50000000000000711
210
0
220
-0
230
1
100
AcDbArc
50
90
51
180
0
LINE
5
727
100
AcDbEntity
8
0
100
AcDbLine
10
-139.84999999999997
20
-9.6687499999999904
30
0
11
-126.84999999999991
21
-9.6687500000000437
31
0
0
ARC
5
728
100
AcDbEntity
8
0
100
AcDbCircle
10
-126.84999999999989
20
-10.168749999999998
30
0
40
0.49999999999995381
210
0
220
-0
230
1
100
AcDbArc
50
0
51
90.000000000001634
0
LINE
5
729
100
AcDbEntity
8
0
100
AcDbLine
10
-126.34999999999994
20
-10.168749999999998
30
0
11
-126.34999999999991
21
-23.168749999999989
31
0
0
ARC
5
730
100
AcDbEntity
8
0
100
AcDbCircle
10
-126.84999999999991
20
-23.168749999999967
30
0
40
0.50000000000000711
210
-0
220
0
230
1
100
AcDbArc
50
270
51
360
0
LINE
5
731
100
AcDbEntity
8
0
100
AcDbLine
10
-126.84999999999991
20
-23.668749999999974
30
0
11
-139.84999999999997
21
-23.668749999999925
31
0
0
ARC
5
732
100
AcDbEntity
8
0
100
AcDbCircle
10
-139.84999999999997
20
-23.168749999999967
30
0
40
0.49999999999995381
210
0
220
0
230
1
100
AcDbArc
50
180
51
270
0
ARC
5
733
100
AcDbEntity
8
0
100
AcDbCircle
10
-147.63749999999993
20
30.956249999999983
30
0
40
2.75
210
-0
220
0
230
1
100
AcDbArc
50
-38.541177508256958
51
218.54117750825711
0
ARC
5
734
100
AcDbEntity
8
0
100
AcDbCircle
10
-145.09547816689147
20
28.931250000000013
30
0
40
0.50000000000000178
210
0
220
0
230
1
100
AcDbArc
50
141.45882249174224
51
270
0
LINE
5
735
100
AcDbEntity
8
0
100
AcDbLine
10
-145.09547816689147
20
28.431250000000013
30
0
11
-141.13749999999993
21
28.431249999999999
31
0
0
ARC
5
736
100
AcDbEntity
8
0
100
AcDbCircle
10
-141.13749999999993
20
27.931250000000016
30
0
40
0.49999999999998934
210
0
220
-0
230
1
100
AcDbArc
50
0
51
90
0
LINE
5
737
100
AcDbEntity
8
0
100
AcDbLine
10
-140.63749999999996
20
27.931250000000016
30
0
11
-140.63749999999993
21
14.931250000000018
31
0
0
ARC
5
738
100
AcDbEntity
8
0
100
AcDbCircle
10
-141.1374999999999
20
14.93125
30
0
40
0.49999999999998934
210
0
220
0
230
1
100
AcDbArc
50
-90.000000000003254
51
0
0
LINE
5
739
100
AcDbEntity
8
0
100
AcDbLine
10
-141.13749999999993
20
14.431250000000011
30
0
11
-154.1374999999999
21
14.431249999999975
31
0
0
ARC
5
740
100
AcDbEntity
8
0
100
AcDbCircle
10
-154.1374999999999
20
14.931250000000027
30
0
40
0.50000000000004263
210
0
220
0
230
1
100
AcDbArc
50
180
51
270
0
LINE
5
741
100
AcDbEntity
8
0
100
AcDbLine
10
-154.63749999999993
20
14.931250000000018
30
0
11
-154.6374999999999
21
27.931250000000027
31
0
0
ARC
5
742
100
AcDbEntity
8
0
100
AcDbCircle
10
-154.1374999999999
20
27.931250000000027
30
0
40
0.49999999999999822
210
0
220
-0
230
1
100
AcDbArc
50
90
51
180
0
LINE
5
743
100
AcDbEntity
8
0
100
AcDbLine
10
-154.1374999999999
20
28.431250000000023
30
0
11
-150.1795218331084
21
28.431250000000023
31
0
0
ARC
5
744
100
AcDbEntity
8
0
100
AcDbCircle
10
-150.1795218331084
20
28.931250000000013
30
0
40
0.49999999999998934
210
-0
220
0
230
1
100
AcDbArc
50
-90
51
38.54117750825808
0
ARC
5
745
100
AcDbEntity
8
0
100
AcDbCircle
10
-125.56249999999994
20
46.981250000000031
30
0
40
0.49999999999998934
210
0
220
-0
230
1
100
AcDbArc
50
90
51
180
0
LINE
5
746
100
AcDbEntity
8
0
100
AcDbLine
10
-126.06249999999991
20
33.981250000000017
30
0
11
-126.06249999999991
21
46.981250000000017
31
0
0
ARC
5
747
100
AcDbEntity
8
0
100
AcDbCircle
10
-125.56249999999999
20
33.98125000000001
30
0
40
0.49999999999993605
210
0
220
0
230
1
100
AcDbArc
50
180
51
270.00000000000159
0
LINE
5
748
100
AcDbEntity
8
0
100
AcDbLine
10
-112.56249999999991
20
33.481250000000017
30
0
11
-125.56249999999994
21
33.48125000000006
31
0
0
ARC
5
749
100
AcDbEntity
8
0
100
AcDbCircle
10
-112.56249999999991
20
33.981250000000024
30
0
40
0.50000000000001155
210
-0
220
0
230
1
100
AcDbArc
50
270
51
360
0
LINE
5
750
100
AcDbEntity
8
0
100
AcDbLine
10
-112.06249999999994
20
46.981250000000017
30
0
11
-112.0624999999999
21
33.98125000000001
31
0
0
ARC
5
751
100
AcDbEntity
8
0
100
AcDbCircle
10
-112.56249999999991
20
46.981250000000031
30
0
40
0.49999999999997158
210
-0
220
0
230
1
100
AcDbArc
50
0
51
90.000000000001634
0
LINE
5
752
100
AcDbEntity
8
0
100
AcDbLine
10
-125.56249999999994
20
47.481250000000017
30
0
11
-112.56249999999991
21
47.481249999999989
31
0
0
LINE
5
753
100
AcDbEntity
8
0
100
AcDbLine
10
-2.5249999999999062
20
8.881250000000005
30
0
11
-2.5249999999998707
21
-4.1187499999999932
31
0
0
ARC
5
754
100
AcDbEntity
8
0
100
AcDbCircle
10
-3.0249999999998778
20
-4.1187499999999844
30
0
40
0.50000000000001599
210
0
220
0
230
1
100
AcDbArc
50
269.99999999999591
51
360
0
LINE
5
755
100
AcDbEntity
8
0
100
AcDbLine
10
-3.0249999999999133
20
-4.6187500000000004
30
0
11
-16.02499999999992
21
-4.6187500000000004
31
0
0
ARC
5
756
100
AcDbEntity
8
0
100
AcDbCircle
10
-16.024999999999956
20
-4.1187500000000465
30
0
40
0.49999999999997158
210
0
220
0
230
1
100
AcDbArc
50
180
51
270.00000000000409
0
LINE
5
757
100
AcDbEntity
8
0
100
AcDbLine
10
-16.524999999999928
20
-4.1187499999999932
30
0
11
-16.524999999999963
21
8.881250000000005
31
0
0
ARC
5
758
100
AcDbEntity
8
0
100
AcDbCircle
10
-16.02499999999992
20
8.8812499999999694
30
0
40
0.50000000000003375
210
0
220
-0
230
1
100
AcDbArc
50
90
51
180
0
LINE
5
759
100
AcDbEntity
8
0
100
AcDbLine
10
-16.02499999999992
20
9.3812500000000032
30
0
11
-3.0249999999999133
21
9.3812499999999854
31
0
0
ARC
5
760
100
AcDbEntity
8
0
100
AcDbCircle
10
-3.0249999999998423
20
8.8812500000000227
30
0
40
0.49999999999993605
210
-0
220
0
230
1
100
AcDbArc
50
0
51
90.000000000008143
0
LINE
5
761
100
AcDbEntity
8
0
100
AcDbLine
10
-26.837499999999928
20
14.431250000000002
30
0
11
-39.837499999999899
21
14.431249999999993
31
0
0
ARC
5
762
100
AcDbEntity
8
0
100
AcDbCircle
10
-39.837499999999878
20
14.931250000000018
30
0
40
0.50000000000002487
210
0
220
0
230
1
100
AcDbArc
50
180
51
269.99999999999756
0
LINE
5
763
100
AcDbEntity
8
0
100
AcDbLine
10
-40.337499999999906
20
14.931250000000009
30
0
11
-40.337499999999906
21
27.931250000000006
31
0
0
ARC
5
764
100
AcDbEntity
8
0
100
AcDbCircle
10
-39.837499999999935
20
27.931250000000027
30
0
40
0.49999999999998046
210
0
220
-0
230
1
100
AcDbArc
50
89.999999999995936
51
180
0
LINE
5
765
100
AcDbEntity
8
0
100
AcDbLine
10
-39.837499999999899
20
28.431250000000006
30
0
11
-26.837499999999928
21
28.431250000000023
31
0
0
ARC
5
766
100
AcDbEntity
8
0
100
AcDbCircle
10
-26.837499999999928
20
27.931250000000006
30
0
40
0.50000000000000711
210
0
220
-0
230
1
100
AcDbArc
50
0
51
90
0
LINE
5
767
100
AcDbEntity
8
0
100
AcDbLine
10
-26.33749999999992
20
27.931250000000006
30
0
11
-26.33749999999992
21
14.93125
31
0
0
ARC
5
768
100
AcDbEntity
8
0
100
AcDbCircle
10
-26.837499999999892
20
14.931249999999983
30
0
40
0.49999999999998046
210
0
220
0
230
1
100
AcDbArc
50
-90.000000000004079
51
0
0
ARC
5
769
100
AcDbEntity
8
0
100
AcDbCircle
10
-58.887499999999946
20
27.931250000000027
30
0
40
0.49999999999998046
210
0
220
-0
230
1
100
AcDbArc
50
89.999999999995936
51
180
0
LINE
5
770
100
AcDbEntity
8
0
100
AcDbLine
10
-59.387499999999918
20
14.931250000000009
30
0
11
-59.387499999999918
21
27.931250000000006
31
0
0
ARC
5
771
100
AcDbEntity
8
0
100
AcDbCircle
10
-58.88749999999991
20
14.931250000000009
30
0
40
0.50000000000000711
210
0
220
0
230
1
100
AcDbArc
50
180
51
270
0
LINE
5
772
100
AcDbEntity
8
0
100
AcDbLine
10
-45.887499999999939
20
14.431250000000011
30
0
11
-58.88749999999991
21
14.431250000000002
31
0
0
ARC
5
773
100
AcDbEntity
8
0
100
AcDbCircle
10
-45.887499999999939
20
14.931250000000018
30
0
40
0.50000000000000711
210
-0
220
0
230
1
100
AcDbArc
50
270
51
360
0
LINE
5
774
100
AcDbEntity
8
0
100
AcDbLine
10
-45.387499999999932
20
27.931250000000006
30
0
11
-45.387499999999932
21
14.931250000000009
31
0
0
ARC
5
775
100
AcDbEntity
8
0
100
AcDbCircle
10
-45.887499999999939
20
27.931250000000006
30
0
40
0.50000000000000711
210
0
220
-0
230
1
100
AcDbArc
50
0
51
90
0
LINE
5
776
100
AcDbEntity
8
0
100
AcDbLine
10
-58.88749999999991
20
28.431250000000006
30
0
11
-45.887499999999939
21
28.431250000000023
31
0
0
LINE
5
777
100
AcDbEntity
8
0
100
AcDbLine
10
16.52500000000007
20
8.881250000000005
30
0
11
16.52500000000007
21
-4.1187499999999932
31
0
0
ARC
5
778
100
AcDbEntity
8
0
100
AcDbCircle
10
16.025000000000098
20
-4.1187500000000465
30
0
40
0.49999999999995381
210
0
220
0
230
1
100
AcDbArc
50
-90.000000000004079
51
0
0
LINE
5
779
100
AcDbEntity
8
0
100
AcDbLine
10
16.025000000000063
20
-4.6187500000000004
30
0
11
3.0250000000000554
21
-4.6187499999999648
31
0
0
ARC
5
780
100
AcDbEntity
8
0
100
AcDbCircle
10
3.0249999999999844
20
-4.1187500000000288
30
0
40
0.49999999999993605
210
0
220
0
230
1
100
AcDbArc
50
180
51
270.00000000000813
0
LINE
5
781
100
AcDbEntity
8
0
100
AcDbLine
10
2.5250000000000483
20
-4.1187499999999932
30
0
11
2.5250000000000838
21
8.881250000000005
31
0
0
ARC
5
782
100
AcDbEntity
8
0
100
AcDbCircle
10
3.0250000000001265
20
8.8812499999999694
30
0
40
0.50000000000003375
210
0
220
0
230
1
100
AcDbArc
50
90.000000000008143
51
180
0
LINE
5
783
100
AcDbEntity
8
0
100
AcDbLine
10
3.0250000000000554
20
9.3812500000000032
30
0
11
16.025000000000063
21
9.3812500000000032
31
0
0
ARC
5
784
100
AcDbEntity
8
0
100
AcDbCircle
10
16.025000000000098
20
8.8812500000000405
30
0
40
0.49999999999997158
210
-0
220
0
230
1
100
AcDbArc
50
0
51
90.000000000004079
0
LINE
5
785
100
AcDbEntity
8
0
100
AcDbLine
10
-116.53749999999991
20
14.931250000000018
30
0
11
-116.53749999999995
21
27.931250000000016
31
0
0
ARC
5
786
100
AcDbEntity
8
0
100
AcDbCircle
10
-116.03749999999994
20
27.931250000000027
30
0
40
0.49999999999998934
210
0
220
-0
230
1
100
AcDbArc
50
89.999999999993491
51
180
0
LINE
5
787
100
AcDbEntity
8
0
100
AcDbLine
10
-116.03749999999988
20
28.431250000000013
30
0
11
-103.03749999999991
21
28.431249999999988
31
0
0
ARC
5
788
100
AcDbEntity
8
0
100
AcDbCircle
10
-103.03749999999991
20
27.931250000000027
30
0
40
0.49999999999997158
210
-0
220
0
230
1
100
AcDbArc
50
0
51
90.000000000001634
0
LINE
5
789
100
AcDbEntity
8
0
100
AcDbLine
10
-102.53749999999994
20
27.931250000000016
30
0
11
-102.53749999999989
21
14.931250000000009
31
0
0
ARC
5
790
100
AcDbEntity
8
0
100
AcDbCircle
10
-103.03749999999991
20
14.931250000000009
30
0
40
0.49999999999999822
210
-0
220
0
230
1
100
AcDbArc
50
-90
51
0
0
LINE
5
791
100
AcDbEntity
8
0
100
AcDbLine
10
-103.03749999999991
20
14.431250000000011
30
0
11
-116.03749999999994
21
14.431250000000047
31
0
0
ARC
5
792
100
AcDbEntity
8
0
100
AcDbCircle
10
-116.03749999999994
20
14.931250000000009
30
0
40
0.49999999999997158
210
0
220
0
230
1
100
AcDbArc
50
180
51
270.00000000000159
0
LINE
5
793
100
AcDbEntity
8
0
100
AcDbLine
10
-35.074999999999932
20
9.3812500000000121
30
0
11
-22.074999999999925
21
9.381250000000021
31
0
0
ARC
5
794
100
AcDbEntity
8
0
100
AcDbCircle
10
-22.074999999999942
20
8.8812499999999961
30
0
40
0.50000000000002487
210
0
220
-0
230
1
100
AcDbArc
50
0
51
89.999999999997954
0
LINE
5
795
100
AcDbEntity
8
0
100
AcDbLine
10
-21.574999999999918
20
8.881250000000005
30
0
11
-21.574999999999918
21
-4.1187499999999932
31
0
0
ARC
5
796
100
AcDbEntity
8
0
100
AcDbCircle
10
-22.074999999999925
20
-4.1187500000000021
30
0
40
0.49999999999999822
210
-0
220
0
230
1
100
AcDbArc
50
-90
51
0
0
LINE
5
797
100
AcDbEntity
8
0
100
AcDbLine
10
-22.074999999999925
20
-4.6187500000000004
30
0
11
-35.074999999999932
21
-4.6187500000000092
31
0
0
ARC
5
798
100
AcDbEntity
8
0
100
AcDbCircle
10
-35.074999999999932
20
-4.1187499999999932
30
0
40
0.50000000000000711
210
0
220
0
230
1
100
AcDbArc
50
180
51
270
0
LINE
5
799
100
AcDbEntity
8
0
100
AcDbLine
10
-35.574999999999939
20
-4.1187499999999932
30
0
11
-35.574999999999939
21
8.8812500000000139
31
0
0
ARC
5
800
100
AcDbEntity
8
0
100
AcDbCircle
10
-35.074999999999967
20
8.8812500000000316
30
0
40
0.49999999999998046
210
0
220
-0
230
1
100
AcDbArc
50
89.999999999995936
51
180
0
LINE
5
801
100
AcDbEntity
8
0
100
AcDbLine
10
131.61250000000007
20
28.431249999999988
30
0
11
144.6125000000001
21
28.43124999999997
31
0
0
ARC
5
802
100
AcDbEntity
8
0
100
AcDbCircle
10
144.61250000000004
20
27.931249999999892
30
0
40
0.50000000000004263
210
0
220
-0
230
1
100
AcDbArc
50
0
51
89.999999999993491
0
LINE
5
803
100
AcDbEntity
8
0
100
AcDbLine
10
145.11250000000007
20
27.931249999999981
30
0
11
145.11250000000007
21
14.931249999999983
31
0
0
ARC
5
804
100
AcDbEntity
8
0
100
AcDbCircle
10
144.6125000000001
20
14.931249999999965
30
0
40
0.49999999999998046
210
-0
220
0
230
1
100
AcDbArc
50
-90
51
0
0
LINE
5
805
100
AcDbEntity
8
0
100
AcDbLine
10
144.6125000000001
20
14.431249999999984
30
0
11
131.61250000000007
21
14.431249999999975
31
0
0
ARC
5
806
100
AcDbEntity
8
0
100
AcDbCircle
10
131.6125000000001
20
14.931249999999983
30
0
40
0.50000000000000711
210
0
220
0
230
1
100
AcDbArc
50
180
51
269.99999999999676
0
LINE
5
807
100
AcDbEntity
8
0
100
AcDbLine
10
131.1125000000001
20
14.931249999999983
30
0
11
131.1125000000001
21
27.931249999999991
31
0
0
ARC
5
808
100
AcDbEntity
8
0
100
AcDbCircle
10
131.61250000000013
20
27.931249999999963
30
0
40
0.50000000000002487
210
0
220
0
230
1
100
AcDbArc
50
90.000000000006523
51
180
0
LINE
5
809
100
AcDbEntity
8
0
100
AcDbLine
10
69.700000000000102
20
-33.481250000000003
30
0
11
82.700000000000074
21
-33.481250000000038
31
0
0
ARC
5
810
100
AcDbEntity
8
0
100
AcDbCircle
10
82.700000000000074
20
-33.98125000000001
30
0
40
0.49999999999997158
210
0
220
-0
230
1
100
AcDbArc
50
0
51
90
0
LINE
5
811
100
AcDbEntity
8
0
100
AcDbLine
10
83.200000000000045
20
-33.98125000000001
30
0
11
83.200000000000045
21
-46.981250000000003
31
0
0
ARC
5
812
100
AcDbEntity
8
0
100
AcDbCircle
10
82.700000000000102
20
-46.981250000000088
30
0
40
0.49999999999991829
210
0
220
0
230
1
100
AcDbArc
50
-90.000000000003254
51
0
0
LINE
5
813
100
AcDbEntity
8
0
100
AcDbLine
10
82.700000000000074
20
-47.48125000000001
30
0
11
69.700000000000102
21
-47.481249999999974
31
0
0
ARC
5
814
100
AcDbEntity
8
0
100
AcDbCircle
10
69.700000000000102
20
-46.981250000000003
30
0
40
0.49999999999997158
210
0
220
0
230
1
100
AcDbArc
50
180
51
270
0
LINE
5
815
100
AcDbEntity
8
0
100
AcDbLine
10
69.200000000000131
20
-46.981250000000003
30
0
11
69.200000000000045
21
-33.98125000000001
31
0
0
ARC
5
816
100
AcDbEntity
8
0
100
AcDbCircle
10
69.700000000000102
20
-33.981250000000031
30
0
40
0.50000000000002487
210
0
220
-0
230
1
100
AcDbArc
50
90
51
180
0
LINE
5
817
100
AcDbEntity
8
0
100
AcDbLine
10
-8.2687499999999403
20
-42.21875
30
0
11
-8.2687499999999758
21
-28.218749999999993
31
0
0
ARC
5
818
100
AcDbEntity
8
0
100
AcDbCircle
10
-7.7687499999999332
20
-28.218750000000014
30
0
40
0.50000000000002487
210
0
220
-0
230
1
100
AcDbArc
50
90
51
180
0
LINE
5
819
100
AcDbEntity
8
0
100
AcDbLine
10
-7.7687499999999332
20
-27.718749999999986
30
0
11
-1.768749999999919
21
-27.718750000000007
31
0
0
ARC
5
820
100
AcDbEntity
8
0
100
AcDbCircle
10
-1.7687499999999545
20
-28.21875000000005
30
0
40
0.50000000000004263
210
0
220
-0
230
1
100
AcDbArc
50
0
51
89.999999999995936
0
LINE
5
821
100
AcDbEntity
8
0
100
AcDbLine
10
-1.2687499999999119
20
-28.218749999999993
30
0
11
-1.2687499999999474
21
-42.21875
31
0
0
ARC
5
822
100
AcDbEntity
8
0
100
AcDbCircle
10
-1.7687499999998835
20
-42.218750000000085
30
0
40
0.49999999999991829
210
0
220
0
230
1
100
AcDbArc
50
-90.000000000004079
51
0
0
LINE
5
823
100
AcDbEntity
8
0
100
AcDbLine
10
-1.768749999999919
20
-42.718750000000007
30
0
11
-7.7687499999999332
21
-42.718750000000021
31
0
0
ARC
5
824
100
AcDbEntity
8
0
100
AcDbCircle
10
-7.7687499999999332
20
-42.218750000000014
30
0
40
0.50000000000000711
210
0
220
0
230
1
100
AcDbArc
50
180
51
270
0
ARC
5
825
100
AcDbEntity
8
0
100
AcDbCircle
10
-107.76874999999993
20
-28.218749999999993
30
0
40
0.50000000000000711
210
0
220
-0
230
1
100
AcDbArc
50
90
51
180
0
LINE
5
826
100
AcDbEntity
8
0
100
AcDbLine
10
-108.26874999999998
20
-42.218749999999979
30
0
11
-108.26874999999994
21
-28.218749999999979
31
0
0
ARC
5
827
100
AcDbEntity
8
0
100
AcDbCircle
10
-107.76874999999993
20
-42.21875
30
0
40
0.50000000000004263
210
0
220
0
230
1
100
AcDbArc
50
180
51
270
0
LINE
5
828
100
AcDbEntity
8
0
100
AcDbLine
10
-101.76874999999993
20
-42.718749999999972
30
0
11
-107.76874999999993
21
-42.718750000000043
31
0
0
ARC
5
829
100
AcDbEntity
8
0
100
AcDbCircle
10
-101.76874999999993
20
-42.218749999999979
30
0
40
0.49999999999998934
210
-0
220
0
230
1
100
AcDbArc
50
-90
51
0
0
LINE
5
830
100
AcDbEntity
8
0
100
AcDbLine
10
-101.26874999999995
20
-28.218749999999993
30
0
11
-101.26874999999993
21
-42.218749999999979
31
0
0
ARC
5
831
100
AcDbEntity
8
0
100
AcDbCircle
10
-101.7687499999999
20
-28.218749999999993
30
0
40
0.49999999999995381
210
0
220
-0
230
1
100
AcDbArc
50
0
51
90.000000000003254
0
LINE
5
832
100
AcDbEntity
8
0
100
AcDbLine
10
-107.76874999999993
20
-27.718749999999986
30
0
11
-101.76874999999993
21
-27.718750000000043
31
0
0
LINE
5
833
100
AcDbEntity
8
0
100
AcDbLine
10
-64.437499999999915
20
27.931250000000006
30
0
11
-64.437499999999943
21
14.931250000000009
31
0
0
ARC
5
834
100
AcDbEntity
8
0
100
AcDbCircle
10
-64.937499999999943
20
14.931250000000018
30
0
40
0.50000000000000711
210
-0
220
0
230
1
100
AcDbArc
50
270
51
360
0
LINE
5
835
100
AcDbEntity
8
0
100
AcDbLine
10
-64.937499999999943
20
14.431250000000011
30
0
11
-77.937499999999915
21
14.431249999999958
31
0
0
ARC
5
836
100
AcDbEntity
8
0
100
AcDbCircle
10
-77.937499999999915
20
14.93125
30
0
40
0.50000000000004263
210
0
220
0
230
1
100
AcDbArc
50
180
51
270
0
LINE
5
837
100
AcDbEntity
8
0
100
AcDbLine
10
-78.437499999999972
20
14.931250000000009
30
0
11
-78.437499999999929
21
27.931250000000016
31
0
0
ARC
5
838
100
AcDbEntity
8
0
100
AcDbCircle
10
-77.937499999999915
20
27.931250000000006
30
0
40
0.50000000000000711
210
0
220
-0
230
1
100
AcDbArc
50
90
51
180
0
LINE
5
839
100
AcDbEntity
8
0
100
AcDbLine
10
-77.937499999999915
20
28.431250000000013
30
0
11
-64.937499999999943
21
28.431250000000048
31
0
0
ARC
5
840
100
AcDbEntity
8
0
100
AcDbCircle
10
-64.937499999999943
20
27.931250000000006
30
0
40
0.50000000000004263
210
0
220
-0
230
1
100
AcDbArc
50
0
51
90
0
LINE
5
841
100
AcDbEntity
8
0
100
AcDbLine
10
101.75000000000009
20
-28.431250000000013
30
0
11
88.750000000000114
21
-28.431249999999977
31
0
0
ARC
5
842
100
AcDbEntity
8
0
100
AcDbCircle
10
88.750000000000114
20
-27.931250000000006
30
0
40
0.49999999999997158
210
0
220
0
230
1
100
AcDbArc
50
180
51
270
0
LINE
5
843
100
AcDbEntity
8
0
100
AcDbLine
10
88.250000000000142
20
-27.931250000000006
30
0
11
88.250000000000142
21
-14.93125
31
0
0
ARC
5
844
100
AcDbEntity
8
0
100
AcDbCircle
10
88.750000000000114
20
-14.93125
30
0
40
0.49999999999997158
210
0
220
-0
230
1
100
AcDbArc
50
90
51
180
0
LINE
5
845
100
AcDbEntity
8
0
100
AcDbLine
10
88.750000000000114
20
-14.431250000000029
30
0
11
101.75000000000009
21
-14.431250000000029
31
0
0
ARC
5
846
100
AcDbEntity
8
0
100
AcDbCircle
10
101.75000000000009
20
-14.93125
30
0
40
0.49999999999997158
210
0
220
-0
230
1
100
AcDbArc
50
0
51
90
0
LINE
5
847
100
AcDbEntity
8
0
100
AcDbLine
10
102.25000000000006
20
-14.93125
30
0
11
102.25000000000011
21
-27.931250000000006
31
0
0
ARC
5
848
100
AcDbEntity
8
0
100
AcDbCircle
10
101.75000000000009
20
-27.931249999999991
30
0
40
0.50000000000002487
210
-0
220
0
230
1
100
AcDbArc
50
270
51
360
0
LINE
5
849
100
AcDbEntity
8
0
100
AcDbLine
10
131.1125000000001
20
-42.218750000000014
30
0
11
131.11250000000001
21
-29.218750000000007
31
0
0
ARC
5
850
100
AcDbEntity
8
0
100
AcDbCircle
10
131.61250000000007
20
-29.218750000000028
30
0
40
0.50000000000002487
210
0
220
-0
230
1
100
AcDbArc
50
90
51
180
0
LINE
5
851
100
AcDbEntity
8
0
100
AcDbLine
10
131.61250000000007
20
-28.71875
30
0
11
144.6125000000001
21
-28.718750000000021
31
0
0
ARC
5
852
100
AcDbEntity
8
0
100
AcDbCircle
10
144.61249999999995
20
-29.218750000000099
30
0
40
0.50000000000011369
210
0
220
-0
230
1
100
AcDbArc
50
0
51
89.999999999983714
0
LINE
5
853
100
AcDbEntity
8
0
100
AcDbLine
10
145.11250000000007
20
-29.218750000000007
30
0
11
145.11250000000007
21
-42.218750000000014
31
0
0
ARC
5
854
100
AcDbEntity
8
0
100
AcDbCircle
10
144.6125000000001
20
-42.218750000000036
30
0
40
0.49999999999998934
210
-0
220
0
230
1
100
AcDbArc
50
-90
51
0
0
LINE
5
855
100
AcDbEntity
8
0
100
AcDbLine
10
144.6125000000001
20
-42.718750000000021
30
0
11
131.61250000000007
21
-42.718749999999986
31
0
0
ARC
5
856
100
AcDbEntity
8
0
100
AcDbCircle
10
131.61250000000007
20
-42.218750000000014
30
0
40
0.49999999999997158
210
0
220
0
230
1
100
AcDbArc
50
180
51
270
0
LINE
5
857
100
AcDbEntity
8
0
100
AcDbLine
10
164.16250000000002
20
-10.168750000000033
30
0
11
164.16250000000008
21
-23.168750000000003
31
0
0
ARC
5
858
100
AcDbEntity
8
0
100
AcDbCircle
10
163.66250000000019
20
-23.168750000000095
30
0
40
0.49999999999991829
210
0
220
0
230
1
100
AcDbArc
50
-90.000000000016286
51
0
0
LINE
5
859
100
AcDbEntity
8
0
100
AcDbLine
10
163.66250000000005
20
-23.66875000000001
30
0
11
150.66250000000008
21
-23.668750000000067
31
0
0
ARC
5
860
100
AcDbEntity
8
0
100
AcDbCircle
10
150.66250000000008
20
-23.168750000000003
30
0
40
0.50000000000004263
210
0
220
0
230
1
100
AcDbArc
50
180
51
270
0
LINE
5
861
100
AcDbEntity
8
0
100
AcDbLine
10
150.16250000000002
20
-23.168750000000003
30
0
11
150.16250000000002
21
-10.168750000000033
31
0
0
ARC
5
862
100
AcDbEntity
8
0
100
AcDbCircle
10
150.66249999999994
20
-10.168749999999944
30
0
40
0.49999999999991829
210
0
220
-0
230
1
100
AcDbArc
50
89.999999999983714
51
180
0
LINE
5
863
100
AcDbEntity
8
0
100
AcDbLine
10
150.66250000000008
20
-9.6687500000000259
30
0
11
163.66250000000005
21
-9.6687500000000082
31
0
0
ARC
5
864
100
AcDbEntity
8
0
100
AcDbCircle
10
163.66249999999991
20
-10.168750000000122
30
0
40
0.50000000000011369
210
0
220
-0
230
1
100
AcDbArc
50
0
51
89.999999999983714
0
ARC
5
865
100
AcDbEntity
8
0
100
AcDbCircle
10
-49.36249999999994
20
46.981250000000031
30
0
40
0.49999999999997158
210
0
220
-0
230
1
100
AcDbArc
50
89.999999999995936
51
180
0
LINE
5
866
100
AcDbEntity
8
0
100
AcDbLine
10
-49.862499999999912
20
33.98125000000001
30
0
11
-49.862499999999912
21
46.98125000000001
31
0
0
ARC
5
867
100
AcDbEntity
8
0
100
AcDbCircle
10
-49.362499999999905
20
33.98125000000001
30
0
40
0.50000000000000711
210
0
220
0
230
1
100
AcDbArc
50
180
51
270.0000000000008
0
LINE
5
868
100
AcDbEntity
8
0
100
AcDbLine
10
-36.362499999999933
20
33.481250000000003
30
0
11
-49.362499999999905
21
33.481249999999996
31
0
0
ARC
5
869
100
AcDbEntity
8
0
100
AcDbCircle
10
-36.362499999999933
20
33.981250000000003
30
0
40
0.49999999999999822
210
-0
220
0
230
1
100
AcDbArc
50
-90
51
0
0
LINE
5
870
100
AcDbEntity
8
0
100
AcDbLine
10
-35.862499999999926
20
46.981250000000003
30
0
11
-35.862499999999926
21
33.98125000000001
31
0
0
ARC
5
871
100
AcDbEntity
8
0
100
AcDbCircle
10
-36.362499999999933
20
46.981250000000003
30
0
40
0.50000000000000711
210
0
220
-0
230
1
100
AcDbArc
50
0
51
90
0
LINE
5
872
100
AcDbEntity
8
0
100
AcDbLine
10
-49.362499999999905
20
47.48125000000001
30
0
11
-36.362499999999933
21
47.481250000000017
31
0
0
ENDSEC
0
SECTION
2
OBJECTS
0
DICTIONARY
5
C
100
AcDbDictionary
3
ACAD_GROUP
350
D
3
ACAD_MLINESTYLE
350
17
0
DICTIONARY
5
D
100
AcDbDictionary
0
DICTIONARY
5
1A
330
C
100
AcDbDictionary
0
DICTIONARY
5
17
100
AcDbDictionary
0
ENDSEC
0
EOF
