0
SECTION
2
HEADER
9
$INSUNITS
70
4
9
$ACADVER
1
AC1014
9
$HANDSEED
5
FFFF
0
ENDSEC
0
SECTION
2
TABLES
0
TABLE
2
VPORT
5
8
100
AcDbSymbolTable
0
ENDTAB
0
TABLE
2
LTYPE
5
5
100
AcDbSymbolTable
0
LTYPE
5
14
100
AcDbSymbolTableRecord
100
AcDbLinetypeTableRecord
2
BYBLOCK
70
0
0
LTYPE
5
15
100
AcDbSymbolTableRecord
100
AcDbLinetypeTableRecord
2
BYLAYER
70
0
0
ENDTAB
0
TABLE
2
LAYER
5
2
100
AcDbSymbolTable
70
2
0
LAYER
5
50
100
AcDbSymbolTableRecord
100
AcDbLayerTableRecord
2
0
70
0
6
CONTINUOUS
0
ENDTAB
0
TABLE
2
STYLE
5
3
100
AcDbSymbolTable
70
1
0
STYLE
5
11
100
AcDbSymbolTableRecord
100
AcDbTextStyleTableRecord
2
STANDARD
70
0
0
ENDTAB
0
TABLE
2
VIEW
5
6
100
AcDbSymbolTable
70
0
0
ENDTAB
0
TABLE
2
UCS
5
7
100
AcDbSymbolTable
70
0
0
ENDTAB
0
TABLE
2
APPID
5
9
100
AcDbSymbolTable
70
2
0
APPID
5
12
100
AcDbSymbolTableRecord
100
AcDbRegAppTableRecord
2
ACAD
70
0
0
ENDTAB
0
TABLE
2
DIMSTYLE
5
A
100
AcDbSymbolTable
70
1
0
ENDTAB
0
TABLE
2
BLOCK_RECORD
5
1
100
AcDbSymbolTable
70
1
0
BLOCK_RECORD
5
1F
100
AcDbSymbolTableRecord
100
AcDbBlockTableRecord
2
*MODEL_SPACE
0
BLOCK_RECORD
5
1B
100
AcDbSymbolTableRecord
100
AcDbBlockTableRecord
2
*PAPER_SPACE
0
ENDTAB
0
ENDSEC
0
SECTION
2
BLOCKS
0
BLOCK
5
20
100
AcDbEntity
100
AcDbBlockBegin
2
*MODEL_SPACE
0
ENDBLK
5
21
100
AcDbEntity
100
AcDbBlockEnd
0
BLOCK
5
1C
100
AcDbEntity
100
AcDbBlockBegin
2
*PAPER_SPACE
0
ENDBLK
5
1D
100
AcDbEntity
100
AcDbBlockEnd
0
ENDSEC
0
SECTION
2
ENTITIES
0
CIRCLE
5
100
100
AcDbEntity
8
0
100
AcDbCircle
10
138.49798476664637
20
28.138153074599561
30
0
40
1.3750000000000284
210
0
220
0
230
1
0
CIRCLE
5
101
100
AcDbEntity
8
0
100
AcDbCircle
10
138.49798476664637
20
33.888153074599579
30
0
40
1.3750000000000284
210
0
220
0
230
1
0
CIRCLE
5
102
100
AcDbEntity
8
0
100
AcDbCircle
10
138.49798476664637
20
39.638153074599558
30
0
40
1.3750000000000284
210
0
220
0
230
1
0
ARC
5
103
100
AcDbEntity
8
0
100
AcDbCircle
10
138.82599297606205
20
49.890877188205593
30
0
40
4.5000000000001004
210
0
220
0
230
1
100
AcDbArc
50
188.88426885323588
51
321.82182218976328
0
ARC
5
104
100
AcDbEntity
8
0
100
AcDbCircle
10
132.40397798795968
20
48.887022869801314
30
0
40
1.9999999999991673
210
0
220
-0
230
1
100
AcDbArc
50
8.884268853234806
51
87.938448160166516
0
ARC
5
105
100
AcDbEntity
8
0
100
AcDbCircle
10
132.18299605043052
20
42.748022253989639
30
0
40
8.142976605656262
210
0
220
-0
230
1
100
AcDbArc
50
87.938448160178254
51
89.998861748319115
0
LINE
5
106
100
AcDbEntity
8
0
100
AcDbLine
10
132.18315782075436
20
50.890998858039012
30
0
11
95.010647284372283
21
50.89175114888522
31
0
0
ARC
5
107
100
AcDbEntity
8
0
100
AcDbCircle
10
95.010606808717597
20
48.891751149294656
30
0
40
2.0000000000001301
210
0
220
-0
230
1
100
AcDbArc
50
89.998840457906667
51
162.07850904345872
0
ARC
5
108
100
AcDbEntity
8
0
100
AcDbCircle
10
88.825992976062054
20
50.891889079770174
30
0
40
4.5000000000000151
210
0
220
0
230
1
100
AcDbArc
50
197.91917187236413
51
342.07850904345952
0
ARC
5
109
100
AcDbEntity
8
0
100
AcDbCircle
10
82.641298191580788
20
48.892001477225755
30
0
40
2.0000000000000342
210
0
220
-0
230
1
100
AcDbArc
50
17.919171872365006
51
89.998840457918888
0
LINE
5
110
100
AcDbEntity
8
0
100
AcDbLine
10
82.641338667235047
20
50.892001476816205
30
0
11
75.629125083288002
21
50.892143388783204
31
0
0
ARC
5
111
100
AcDbEntity
8
0
100
AcDbCircle
10
76.439759213429355
20
34.986628006221572
30
0
40
15.926159213000936
210
0
220
0
230
1
100
AcDbArc
50
92.917589372331989
51
96.023359388955242
0
LINE
5
112
100
AcDbEntity
8
0
100
AcDbLine
10
74.768564906156527
20
50.824862025997703
30
0
11
-1.563597285818652
21
40.072368355784775
31
0
0
ARC
5
113
100
AcDbEntity
8
0
100
AcDbCircle
10
-2.9584713880667834
20
49.974606801657771
30
0
40
10.000000000002389
210
0
220
0
230
1
100
AcDbArc
50
265.22386034383192
51
278.01818598102574
0
LINE
5
114
100
AcDbEntity
8
0
100
AcDbLine
10
-3.791099938537954
20
40.009330603930586
30
0
11
-4.125069429870436
21
40.037234751086388
31
0
0
ARC
5
115
100
AcDbEntity
8
0
100
AcDbCircle
10
-4.2083322849174465
20
39.040707131313901
30
0
40
0.99999999999999467
210
0
220
-0
230
1
100
AcDbArc
50
85.22386034383689
51
177.52451095879266
0
ARC
5
116
100
AcDbEntity
8
0
100
AcDbCircle
10
-9.7031996321364744
20
39.278263096229999
30
0
40
4.4999999999999991
210
0
220
0
230
1
100
AcDbArc
50
172.92320972887089
51
357.52451095879309
0
ARC
5
117
100
AcDbEntity
8
0
100
AcDbCircle
10
-15.161300223578955
20
39.955860272799811
30
0
40
1.0000000000000138
210
-0
220
0
230
1
100
AcDbArc
50
-7.0767902711280346
51
85.223860343830935
0
LINE
5
118
100
AcDbEntity
8
0
100
AcDbLine
10
-15.078037368531838
20
40.952387892572311
30
0
11
-18.462368768548174
21
41.235158875734015
31
0
0
LINE
5
119
100
AcDbEntity
8
0
100
AcDbLine
10
-18.462368768548174
20
41.235158875734015
30
0
11
-85.215921290629808
21
50.602853741901789
31
0
0
ARC
5
120
100
AcDbEntity
8
0
100
AcDbCircle
10
-85.493862909654723
20
48.622260786139854
30
0
40
1.9999999999999973
210
0
220
-0
230
1
100
AcDbArc
50
82.011704184202415
51
158.12877133532598
0
ARC
5
121
100
AcDbEntity
8
0
100
AcDbCircle
10
-91.526015233353277
20
51.043652605673351
30
0
40
4.500000000000381
210
0
220
0
230
1
100
AcDbArc
50
197.92036516430545
51
338.1287713353255
0
ARC
5
122
100
AcDbEntity
8
0
100
AcDbCircle
10
-97.710668365087969
20
49.043636195707762
30
0
40
2.0000000000001936
210
0
220
-0
230
1
100
AcDbArc
50
17.920365164306201
51
90
0
LINE
5
123
100
AcDbEntity
8
0
100
AcDbLine
10
-97.710668365087969
20
51.043636195707947
30
0
11
-134.38851523335327
21
51.043636195707769
31
0
0
ARC
5
124
100
AcDbEntity
8
0
100
AcDbCircle
10
-134.38851523335325
20
42.906152605673398
30
0
40
8.1374835900343712
210
0
220
0
230
1
100
AcDbArc
50
90.000000000000199
51
96.169548105029776
0
ARC
5
125
100
AcDbEntity
8
0
100
AcDbCircle
10
-135.04811650717272
20
49.008089263613009
30
0
40
2.0000000000007914
210
0
220
0
230
1
100
AcDbArc
50
96.169548105051121
51
175.27379300625728
0
ARC
5
126
100
AcDbEntity
8
0
100
AcDbCircle
10
-141.52601523335326
20
49.543652605673422
30
0
40
4.5000000000000027
210
0
220
0
230
1
100
AcDbArc
50
255.99695306403618
51
355.27379300626336
0
ARC
5
127
100
AcDbEntity
8
0
100
AcDbCircle
10
-143.09884294875206
20
43.236814017468291
30
0
40
1.9999999999999858
210
0
220
-0
230
1
100
AcDbArc
50
75.99695306403585
51
180
0
LINE
5
128
100
AcDbEntity
8
0
100
AcDbLine
10
-145.09884294875204
20
43.236814017468276
30
0
11
-145.09884294875201
21
10.694422629933316
31
0
0
LINE
5
129
100
AcDbEntity
8
0
100
AcDbLine
10
-145.09884294875201
20
10.694422629933316
30
0
11
-145.9477262084618
21
-18.909126609651882
31
0
0
LINE
5
130
100
AcDbEntity
8
0
100
AcDbLine
10
-145.9477262084618
20
-18.909126609651882
30
0
11
-145.94772620846183
21
-31.347473180216081
31
0
0
ARC
5
131
100
AcDbEntity
8
0
100
AcDbCircle
10
-143.94772620846186
20
-31.347473180216106
30
0
40
1.9999999999999751
210
0
220
0
230
1
100
AcDbArc
50
180
51
265.52382964039953
0
ARC
5
132
100
AcDbEntity
8
0
100
AcDbCircle
10
-144.45501523335321
20
-37.827647394326583
30
0
40
4.4999999999998082
210
-0
220
0
230
1
100
AcDbArc
50
-8.7517345232693877
51
85.523829640395846
0
ARC
5
133
100
AcDbEntity
8
0
100
AcDbCircle
10
-138.0306953524007
20
-38.816643889362147
30
0
40
1.9999999999997637
210
0
220
0
230
1
100
AcDbArc
50
171.24826547673121
51
268.00711351959058
0
ARC
5
134
100
AcDbEntity
8
0
100
AcDbCircle
10
-137.81751485045905
20
-32.690144939297269
30
0
40
8.1302067919076944
210
0
220
0
230
1
100
AcDbArc
50
268.00711351959166
51
269.99999730338573
0
LINE
5
135
100
AcDbEntity
8
0
100
AcDbLine
10
-137.81751523310561
20
-40.820351731204951
30
0
11
-91.369174293462834
21
-40.820351731204966
31
0
0
LINE
5
136
100
AcDbEntity
8
0
100
AcDbLine
10
-91.369174293462834
20
-40.820351731204966
30
0
11
-91.232084288574072
21
-40.838169887933738
31
0
0
ARC
5
137
100
AcDbEntity
8
0
100
AcDbCircle
10
-90.9743042467219
20
-38.854852099473533
30
0
40
2.0000000000000009
210
0
220
0
230
1
100
AcDbArc
50
-97.405455588828019
51
2.7911223230162117
0
ARC
5
138
100
AcDbEntity
8
0
100
AcDbCircle
10
-84.48201523335328
20
-38.538334537728502
30
0
40
4.4999999999999938
210
-0
220
0
230
1
100
AcDbArc
50
-17.602033500679966
51
182.79112232301645
0
ARC
5
139
100
AcDbEntity
8
0
100
AcDbCircle
10
-78.286345651319564
20
-40.503958721101931
30
0
40
2.000000000000028
210
0
220
0
230
1
100
AcDbArc
50
162.39796649932026
51
262.59454441117333
0
LINE
5
140
100
AcDbEntity
8
0
100
AcDbLine
10
-78.544125693171694
20
-42.487276509562179
30
0
11
-77.296106092555448
21
-42.649486795150899
31
0
0
LINE
5
141
100
AcDbEntity
8
0
100
AcDbLine
10
-77.296106092555448
20
-42.649486795150899
30
0
11
-17.865527818151747
21
-51.001424743469023
31
0
0
LINE
5
142
100
AcDbEntity
8
0
100
AcDbLine
10
-17.865527818151747
20
-51.001424743469023
30
0
11
-12.17337059992623
21
-51.011654438385023
31
0
0
ARC
5
143
100
AcDbEntity
8
0
100
AcDbCircle
10
-12.169776293583645
20
-49.011657668147336
30
0
40
1.9999999999998155
210
0
220
0
230
1
100
AcDbArc
50
269.89703065271863
51
344.71850021292289
0
ARC
5
144
100
AcDbEntity
8
0
100
AcDbCircle
10
-5.8995995882852625
20
-50.724808007239218
30
0
40
4.499999999999905
210
0
220
-0
230
1
100
AcDbArc
50
15.075561092518612
51
164.71850021292229
0
ARC
5
145
100
AcDbEntity
8
0
100
AcDbCircle
10
0.37669419187320585
20
-49.034205633780623
30
0
40
2.0000000000000759
210
0
220
0
230
1
100
AcDbArc
50
195.07556109251837
51
269.89703065271863
0
LINE
5
146
100
AcDbEntity
8
0
100
AcDbLine
10
0.37309988553062112
20
-51.034202404018565
30
0
11
5.6223889309130115
21
-51.04363619570794
31
0
0
LINE
5
147
100
AcDbEntity
8
0
100
AcDbLine
10
5.6223889309130115
20
-51.04363619570794
30
0
11
70.134636305376645
21
-41.976065223811872
31
0
0
LINE
5
148
100
AcDbEntity
8
0
100
AcDbLine
10
70.134636305376645
20
-41.976065223811872
30
0
11
73.236498838447659
21
-41.802906041270049
31
0
0
ARC
5
149
100
AcDbEntity
8
0
100
AcDbCircle
10
73.125023879422884
20
-39.806015124491758
30
0
40
2.0000000000003046
210
-0
220
0
230
1
100
AcDbArc
50
-86.804821812443024
51
6.4418216884225297
0
ARC
5
150
100
AcDbEntity
8
0
100
AcDbCircle
10
79.583984766646694
20
-39.076752306767318
30
0
40
4.5
210
-0
220
0
230
1
100
AcDbArc
50
-0.051465313304241957
51
186.44182168842377
0
ARC
5
151
100
AcDbEntity
8
0
100
AcDbCircle
10
86.083982144437812
20
-39.082590860572665
30
0
40
2.0000000000001501
210
0
220
0
230
1
100
AcDbArc
50
179.94853468670286
51
273.19517818755719
0
LINE
5
152
100
AcDbEntity
8
0
100
AcDbLine
10
86.195457103462587
20
-41.079481777350793
30
0
11
88.018345063206027
21
-40.977720404753441
31
0
0
LINE
5
153
100
AcDbEntity
8
0
100
AcDbLine
10
88.018345063206027
20
-40.977720404753448
30
0
11
135.41948476664663
21
-40.977720404753498
31
0
0
ARC
5
154
100
AcDbEntity
8
0
100
AcDbCircle
10
135.41948476664663
20
-32.841957394326442
30
0
40
8.1357630104270573
210
-0
220
0
230
1
100
AcDbArc
50
270
51
271.99905806091346
0
ARC
5
155
100
AcDbEntity
8
0
100
AcDbCircle
10
135.63351899744964
20
-38.973986183246822
30
0
40
2.0000000000017146
210
-0
220
0
230
1
100
AcDbArc
50
-88.000941939087227
51
8.8010779789628657
0
ARC
5
156
100
AcDbEntity
8
0
100
AcDbCircle
10
142.05698476664685
20
-37.979457394326715
30
0
40
4.5000000000014051
210
0
220
0
230
1
100
AcDbArc
50
94.427082549206233
51
188.80107797896159
0
ARC
5
157
100
AcDbEntity
8
0
100
AcDbCircle
10
141.55524777707356
20
-31.498850941739718
30
0
40
2.0000000000000004
210
-0
220
0
230
1
100
AcDbArc
50
-85.572917450793582
51
0
0
LINE
5
158
100
AcDbEntity
8
0
100
AcDbLine
10
143.55524777707359
20
-31.498850941739711
30
0
11
143.55524777707353
21
-19.057803807096143
31
0
0
LINE
5
159
100
AcDbEntity
8
0
100
AcDbLine
10
143.55524777707353
20
-19.057803807096143
30
0
11
142.98862978007548
21
10.296920770403384
31
0
0
LINE
5
160
100
AcDbEntity
8
0
100
AcDbLine
10
142.98862978007548
20
10.296920770403384
30
0
11
142.98862978007543
21
12.852474607590221
31
0
0
LINE
5
161
100
AcDbEntity
8
0
100
AcDbLine
10
142.98862978007543
20
12.852474607590221
30
0
11
145.85502426614062
21
27.530119128473878
31
0
0
ARC
5
162
100
AcDbEntity
8
0
100
AcDbCircle
10
140.94772620846243
20
28.488464459292608
30
0
40
4.9999999999994333
210
-0
220
0
230
1
100
AcDbArc
50
-11.050205037457669
51
0
0
LINE
5
163
100
AcDbEntity
8
0
100
AcDbLine
10
145.94772620846186
20
28.488464459292608
30
0
11
145.9477262084618
21
46.18222293660174
31
0
0
ARC
5
164
100
AcDbEntity
8
0
100
AcDbCircle
10
144.4477262084618
20
46.18222293660174
30
0
40
1.4999999999999858
210
0
220
-0
230
1
100
AcDbArc
50
0
51
90
0
LINE
5
165
100
AcDbEntity
8
0
100
AcDbLine
10
144.4477262084618
20
47.682222936601725
30
0
11
143.54254718883857
21
47.68222293660174
31
0
0
ARC
5
166
100
AcDbEntity
8
0
100
AcDbCircle
10
143.54254718883865
20
46.18222293660174
30
0
40
1.5000000000000036
210
0
220
0
230
1
100
AcDbArc
50
90.000000000003254
51
141.82182218976328
0
ARC
5
167
100
AcDbEntity
8
0
100
AcDbCircle
10
66.780014404551622
20
6.357511021048321
30
0
40
0.1999999999999818
210
0
220
0
230
1
100
AcDbArc
50
187.99386543575187
51
277.99386543575702
0
LINE
5
168
100
AcDbEntity
8
0
100
AcDbLine
10
80.277324157784307
20
8.0509980670274661
30
0
11
66.80782781931164
21
6.1594544282285391
31
0
0
ARC
5
169
100
AcDbEntity
8
0
100
AcDbCircle
10
80.249510743024075
20
8.2490546598473369
30
0
40
0.20000000000010187
210
-0
220
0
230
1
100
AcDbArc
50
-82.006134564186098
51
7.9938654357311671
0
LINE
5
170
100
AcDbEntity
8
0
100
AcDbLine
10
78.555588368058267
20
21.749464348007834
30
0
11
80.447567335843999
21
8.2768680746072842
31
0
0
ARC
5
171
100
AcDbEntity
8
0
100
AcDbCircle
10
78.357531775238556
20
21.721650933248036
30
0
40
0.19999999999988305
210
0
220
-0
230
1
100
AcDbArc
50
7.9938654356972254
51
97.993865435761052
0
LINE
5
172
100
AcDbEntity
8
0
100
AcDbLine
10
64.860222022005871
20
20.028163887269006
30
0
11
78.329718360478537
21
21.919707526067711
31
0
0
ARC
5
173
100
AcDbEntity
8
0
100
AcDbCircle
10
64.888035436765747
20
19.830107294449295
30
0
40
0.19999999999989415
210
0
220
0
230
1
100
AcDbArc
50
97.993865435719471
51
187.99386543578765
0
LINE
5
174
100
AcDbEntity
8
0
100
AcDbLine
10
66.58195781173184
20
6.3296976062883203
30
0
11
64.689978843946108
21
19.802293879689188
31
0
0
LINE
5
175
100
AcDbEntity
8
0
100
AcDbLine
10
-104.66905510204111
20
-11.29538465054301
30
0
11
-104.66905510204093
21
2.3053153494570733
31
0
0
ARC
5
176
100
AcDbEntity
8
0
100
AcDbCircle
10
-104.46905510204101
20
2.3053153494571443
30
0
40
0.19999999999992468
210
0
220
-0
230
1
100
AcDbArc
50
89.999999999987793
51
180
0
LINE
5
177
100
AcDbEntity
8
0
100
AcDbLine
10
-104.46905510204097
20
2.505315349457069
30
0
11
-90.869055102040903
21
2.5053153494570246
31
0
0
ARC
5
178
100
AcDbEntity
8
0
100
AcDbCircle
10
-90.869055102040974
20
2.3053153494570289
30
0
40
0.19999999999999574
210
-0
220
0
230
1
100
AcDbArc
50
0
51
89.99999999997965
0
LINE
5
179
100
AcDbEntity
8
0
100
AcDbLine
10
-90.669055102040971
20
2.3053153494570111
30
0
11
-90.669055102040971
21
-11.295384650542974
31
0
0
ARC
5
180
100
AcDbEntity
8
0
100
AcDbCircle
10
-90.869055102040932
20
-11.295384650543001
30
0
40
0.19999999999996021
210
-0
220
0
230
1
100
AcDbArc
50
-90
51
0
0
LINE
5
181
100
AcDbEntity
8
0
100
AcDbLine
10
-90.869055102040932
20
-11.495384650542961
30
0
11
-104.46905510204115
21
-11.495384650542997
31
0
0
ARC
5
182
100
AcDbEntity
8
0
100
AcDbCircle
10
-104.46905510204115
20
-11.295384650543037
30
0
40
0.19999999999996021
210
0
220
0
230
1
100
AcDbArc
50
180
51
269.99999999999591
0
ARC
5
183
100
AcDbEntity
8
0
100
AcDbCircle
10
27.15888284069873
20
14.527179421069318
30
0
40
0.19999999999992657
210
0
220
0
230
1
100
AcDbArc
50
97.993865435749001
51
187.99386543578137
0
LINE
5
184
100
AcDbEntity
8
0
100
AcDbLine
10
28.852805215664787
20
1.0267697329083614
30
0
11
26.960826247878984
21
14.49936600630922
31
0
0
ARC
5
185
100
AcDbEntity
8
0
100
AcDbCircle
10
29.05086180848464
20
1.0545831476684686
30
0
40
0.20000000000006696
210
0
220
0
230
1
100
AcDbArc
50
187.9938654357793
51
277.99386543573308
0
LINE
5
186
100
AcDbEntity
8
0
100
AcDbLine
10
42.54817156171729
20
2.748070193647516
30
0
11
29.078675223244588
21
0.85652655484859785
31
0
0
ARC
5
187
100
AcDbEntity
8
0
100
AcDbCircle
10
42.520358146957342
20
2.9461267864672802
30
0
40
0.19999999999995682
210
-0
220
0
230
1
100
AcDbArc
50
-82.006134564262538
51
7.9938654357699557
0
LINE
5
188
100
AcDbEntity
8
0
100
AcDbLine
10
40.826435771991356
20
16.446536474627862
30
0
11
42.718414739777053
21
2.9739402012273342
31
0
0
ARC
5
189
100
AcDbEntity
8
0
100
AcDbCircle
10
40.628379179171503
20
16.41872305986783
30
0
40
0.2000000000000571
210
0
220
-0
230
1
100
AcDbArc
50
7.9938654357581536
51
97.993865435723322
0
LINE
5
190
100
AcDbEntity
8
0
100
AcDbLine
10
27.131069425938747
20
14.725236013889047
30
0
11
40.600565764411591
21
16.616779652687683
31
0
0
LINE
5
191
100
AcDbEntity
8
0
100
AcDbLine
10
-73.450372040325249
20
5.6260103945161699
30
0
11
-71.555508138788539
21
19.098201216919762
31
0
0
ARC
5
192
100
AcDbEntity
8
0
100
AcDbCircle
10
-71.35745750638219
20
19.070345391614943
30
0
40
0.1999999999998982
210
0
220
-0
230
1
100
AcDbArc
50
81.993865435726761
51
171.99386543578282
0
LINE
5
193
100
AcDbEntity
8
0
100
AcDbLine
10
-71.329601681077179
20
19.26839602402125
30
0
11
-57.86051070031089
21
17.373968115270699
31
0
0
ARC
5
194
100
AcDbEntity
8
0
100
AcDbCircle
10
-57.888366525615744
20
17.175917482864335
30
0
40
0.19999999999994231
210
-0
220
0
230
1
100
AcDbArc
50
-8.0061345642500861
51
81.993865435773515
0
LINE
5
195
100
AcDbEntity
8
0
100
AcDbLine
10
-57.690315893209387
20
17.148061657559399
30
0
11
-59.585179794746281
21
3.6758708351561786
31
0
0
ARC
5
196
100
AcDbEntity
8
0
100
AcDbCircle
10
-59.78323042715278
20
3.7037266604611929
30
0
40
0.20000000000007301
210
0
220
0
230
1
100
AcDbArc
50
261.99386543575821
51
351.99386543573365
0
LINE
5
197
100
AcDbEntity
8
0
100
AcDbLine
10
-59.811086252457706
20
3.5056760280547028
30
0
11
-73.280177233223682
21
5.4001039368048076
31
0
0
ARC
5
198
100
AcDbEntity
8
0
100
AcDbCircle
10
-73.252321407918686
20
5.598154569211351
30
0
40
0.20000000000013732
210
0
220
0
230
1
100
AcDbArc
50
171.99386543579141
51
261.99386543574025
0
ARC
5
199
100
AcDbEntity
8
0
100
AcDbCircle
10
-64.574647381345159
20
-1.120160062368365
30
0
40
0.19999999999995591
210
0
220
-0
230
1
100
AcDbArc
50
81.993865435720679
51
171.99386543577197
0
LINE
5
200
100
AcDbEntity
8
0
100
AcDbLine
10
-66.667561915288161
20
-14.564495059467077
30
0
11
-64.772698013751551
21
-1.0923042370635017
31
0
0
ARC
5
201
100
AcDbEntity
8
0
100
AcDbCircle
10
-66.469511282881726
20
-14.592350884771999
30
0
40
0.20000000000001084
210
0
220
0
230
1
100
AcDbArc
50
171.9938654357571
51
261.99386543574337
0
LINE
5
202
100
AcDbEntity
8
0
100
AcDbLine
10
-53.028276127420568
20
-16.684829425928562
30
0
11
-66.497367108186694
21
-14.790401517178422
31
0
0
ARC
5
203
100
AcDbEntity
8
0
100
AcDbCircle
10
-53.000420302115643
20
-16.486778793522191
30
0
40
0.19999999999995427
210
0
220
0
230
1
100
AcDbArc
50
261.99386543575349
51
351.99386543576418
0
LINE
5
204
100
AcDbEntity
8
0
100
AcDbLine
10
-50.907505768172356
20
-3.0424437964238393
30
0
11
-52.802369669709286
21
-16.514634618827078
31
0
0
ARC
5
205
100
AcDbEntity
8
0
100
AcDbCircle
10
-51.105556400578784
20
-3.0145879711189139
30
0
40
0.20000000000001145
210
-0
220
0
230
1
100
AcDbArc
50
-8.006134564244233
51
81.993865435745491
0
LINE
5
206
100
AcDbEntity
8
0
100
AcDbLine
10
-64.54679155604012
20
-0.92210942996200806
30
0
11
-51.077700575273823
21
-2.8165373387124948
31
0
0
ARC
5
207
100
AcDbEntity
8
0
100
AcDbCircle
10
-35.523675934496417
20
0.29161984862354551
30
0
40
0.2000000000000744
210
0
220
0
230
1
100
AcDbArc
50
171.99386543577373
51
261.99386543574803
0
LINE
5
208
100
AcDbEntity
8
0
100
AcDbLine
10
-22.082440779035259
20
-1.8008586925330672
30
0
11
-35.551531759801378
21
0.093569216217073148
31
0
0
ARC
5
209
100
AcDbEntity
8
0
100
AcDbCircle
10
-22.054584953730298
20
-1.6028080601267369
30
0
40
0.19999999999991966
210
0
220
0
230
1
100
AcDbArc
50
261.99386543574178
51
351.99386543577572
0
LINE
5
210
100
AcDbEntity
8
0
100
AcDbLine
10
-19.961670419787012
20
11.841526936971611
30
0
11
-21.856534321323942
21
-1.6306638854315825
31
0
0
ARC
5
211
100
AcDbEntity
8
0
100
AcDbCircle
10
-20.159721052193476
20
11.869382762276501
30
0
40
0.20000000000004167
210
-0
220
0
230
1
100
AcDbArc
50
-8.0061345642327328
51
81.99386543575703
0
LINE
5
212
100
AcDbEntity
8
0
100
AcDbLine
10
-33.600956207654846
20
13.961861303433469
30
0
11
-20.13186522688855
21
12.067433394682956
31
0
0
ARC
5
213
100
AcDbEntity
8
0
100
AcDbCircle
10
-33.628812032959736
20
13.76381067102705
30
0
40
0.19999999999999771
210
0
220
-0
230
1
100
AcDbArc
50
81.993865435765485
51
171.99386543575321
0
LINE
5
214
100
AcDbEntity
8
0
100
AcDbLine
10
-35.721726566902916
20
0.31947567392841769
30
0
11
-33.826862665366164
21
13.791666496331985
31
0
0
LINE
5
215
100
AcDbEntity
8
0
100
AcDbLine
10
54.62957169540573
20
-14.790264145121569
30
0
11
41.160075356933099
21
-16.681807783920519
31
0
0
ARC
5
216
100
AcDbEntity
8
0
100
AcDbCircle
10
41.132261942173187
20
-16.483751191100726
30
0
40
0.19999999999997869
210
0
220
0
230
1
100
AcDbArc
50
187.99386543574585
51
277.99386543572626
0
LINE
5
217
100
AcDbEntity
8
0
100
AcDbLine
10
40.934205349353405
20
-16.511564605860706
30
0
11
39.042226381567353
21
-3.0389683324598327
31
0
0
ARC
5
218
100
AcDbEntity
8
0
100
AcDbCircle
10
39.240282974387171
20
-3.0111549176998409
30
0
40
0.20000000000000076
210
0
220
0
230
1
100
AcDbArc
50
97.993865435735728
51
187.99386543574784
0
LINE
5
219
100
AcDbEntity
8
0
100
AcDbLine
10
39.212469559627223
20
-2.8130983248800323
30
0
11
52.681965898099961
21
-0.92155468608138058
31
0
0
ARC
5
220
100
AcDbEntity
8
0
100
AcDbCircle
10
52.709779312859908
20
-1.1196112789013668
30
0
40
0.20000000000014845
210
0
220
-0
230
1
100
AcDbArc
50
7.9938654357991386
51
97.993865435729759
0
LINE
5
221
100
AcDbEntity
8
0
100
AcDbLine
10
52.907835905679832
20
-1.0917978641411796
30
0
11
54.799814873465422
21
-14.564394137541772
31
0
0
ARC
5
222
100
AcDbEntity
8
0
100
AcDbCircle
10
54.601758280645498
20
-14.59220755230171
30
0
40
0.20000000000008869
210
-0
220
0
230
1
100
AcDbArc
50
-82.006134564185629
51
7.9938654357286962
0
LINE
5
223
100
AcDbEntity
8
0
100
AcDbLine
10
-132.48219764858604
20
27.18505789258159
30
0
11
-132.48219764858587
21
40.786872806332639
31
0
0
ARC
5
224
100
AcDbEntity
8
0
100
AcDbCircle
10
-132.28219764858591
20
40.786872806332653
30
0
40
0.19999999999996021
210
0
220
-0
230
1
100
AcDbArc
50
90
51
180
0
LINE
5
225
100
AcDbEntity
8
0
100
AcDbLine
10
-132.28219764858591
20
40.986872806332613
30
0
11
-118.68191255549598
21
40.986872806332435
31
0
0
ARC
5
226
100
AcDbEntity
8
0
100
AcDbCircle
10
-118.68191255549597
20
40.786872806332475
30
0
40
0.19999999999996021
210
-0
220
0
230
1
100
AcDbArc
50
0
51
90.000000000004079
0
LINE
5
227
100
AcDbEntity
8
0
100
AcDbLine
10
-118.48191255549601
20
40.786872806332426
30
0
11
-118.48191255549558
21
27.185057892581945
31
0
0
ARC
5
228
100
AcDbEntity
8
0
100
AcDbCircle
10
-118.68191255549554
20
27.185057892581874
30
0
40
0.19999999999995133
210
0
220
0
230
1
100
AcDbArc
50
-90.000000000004079
51
0
0
LINE
5
229
100
AcDbEntity
8
0
100
AcDbLine
10
-118.68191255549556
20
26.985057892581921
30
0
11
-132.28219764858608
21
26.985057892581601
31
0
0
ARC
5
230
100
AcDbEntity
8
0
100
AcDbCircle
10
-132.28219764858605
20
27.185057892581579
30
0
40
0.19999999999997797
210
0
220
0
230
1
100
AcDbArc
50
180
51
269.99999999999187
0
LINE
5
231
100
AcDbEntity
8
0
100
AcDbLine
10
23.683583852957817
20
0.096687426387553899
30
0
11
10.214087514485222
21
-1.7948562124113465
31
0
0
ARC
5
232
100
AcDbEntity
8
0
100
AcDbCircle
10
10.186274099725239
20
-1.5967996195915557
30
0
40
0.1999999999999843
210
0
220
0
230
1
100
AcDbArc
50
187.99386543575693
51
277.99386543574667
0
LINE
5
233
100
AcDbEntity
8
0
100
AcDbLine
10
9.9882175069054568
20
-1.6246130343515741
30
0
11
8.0962385391195824
21
11.847983239049302
31
0
0
ARC
5
234
100
AcDbEntity
8
0
100
AcDbCircle
10
8.2942951319393643
20
11.875796653809338
30
0
40
0.19999999999998319
210
0
220
0
230
1
100
AcDbArc
50
97.993865435736438
51
187.99386543576213
0
LINE
5
235
100
AcDbEntity
8
0
100
AcDbLine
10
8.2664817171794169
20
12.073853246629129
30
0
11
21.735978055652048
21
13.965396885427754
31
0
0
ARC
5
236
100
AcDbEntity
8
0
100
AcDbCircle
10
21.763791470412031
20
13.767340292607857
30
0
40
0.20000000000006696
210
0
220
-0
230
1
100
AcDbArc
50
7.9938654357792851
51
97.993865435742322
0
LINE
5
237
100
AcDbEntity
8
0
100
AcDbLine
10
21.961848063231884
20
13.795153707367964
30
0
11
23.85382703101758
21
0.32255743396735426
31
0
0
ARC
5
238
100
AcDbEntity
8
0
100
AcDbCircle
10
23.655770438197763
20
0.29474401920736248
30
0
40
0.20000000000001567
210
-0
220
0
230
1
100
AcDbArc
50
-82.006134564234031
51
7.9938654357479537
0
LINE
5
239
100
AcDbEntity
8
0
100
AcDbLine
10
119.16780235141381
20
-11.44830956429403
30
0
11
119.16780235141417
21
2.15350534945701
31
0
0
ARC
5
240
100
AcDbEntity
8
0
100
AcDbCircle
10
119.36780235141413
20
2.1535053494570722
30
0
40
0.19999999999994245
210
0
220
-0
230
1
100
AcDbArc
50
89.99999999997965
51
180
0
LINE
5
241
100
AcDbEntity
8
0
100
AcDbLine
10
119.3678023514142
20
2.3535053494570146
30
0
11
132.96808744450388
21
2.3535053494568459
31
0
0
ARC
5
242
100
AcDbEntity
8
0
100
AcDbCircle
10
132.96808744450388
20
2.153505349456788
30
0
40
0.20000000000003126
210
0
220
-0
230
1
100
AcDbArc
50
0
51
90
0
LINE
5
243
100
AcDbEntity
8
0
100
AcDbLine
10
133.1680874445039
20
2.1535053494568768
30
0
11
133.16808744450427
21
-11.448309564293648
31
0
0
ARC
5
244
100
AcDbEntity
8
0
100
AcDbCircle
10
132.96808744450425
20
-11.448309564293595
30
0
40
0.20000000000004903
210
-0
220
0
230
1
100
AcDbArc
50
270
51
360
0
LINE
5
245
100
AcDbEntity
8
0
100
AcDbLine
10
132.96808744450425
20
-11.648309564293644
30
0
11
119.36780235141391
21
-11.64830956429407
31
0
0
ARC
5
246
100
AcDbEntity
8
0
100
AcDbCircle
10
119.36780235141399
20
-11.448309564293968
30
0
40
0.20000000000017337
210
0
220
0
230
1
100
AcDbArc
50
180
51
269.99999999997556
0
ARC
5
247
100
AcDbEntity
8
0
100
AcDbCircle
10
19.793198845178672
20
32.729663461918143
30
0
40
0.20000000000007717
210
0
220
0
230
1
100
AcDbArc
50
97.993865435763638
51
187.99386543572845
0
LINE
5
248
100
AcDbEntity
8
0
100
AcDbLine
10
21.487121220144658
20
19.229253773757353
30
0
11
19.595142252358784
21
32.70185004715821
31
0
0
ARC
5
249
100
AcDbEntity
8
0
100
AcDbCircle
10
21.68517781296444
20
19.257067188517354
30
0
40
0.1999999999999818
210
0
220
0
230
1
100
AcDbArc
50
187.99386543575187
51
277.99386543575713
0
LINE
5
250
100
AcDbEntity
8
0
100
AcDbLine
10
35.182487566197018
20
20.950554234496508
30
0
11
21.712991227724459
21
19.059010595697572
31
0
0
ARC
5
251
100
AcDbEntity
8
0
100
AcDbCircle
10
35.154674151436964
20
21.148610827316318
30
0
40
0.20000000000001561
210
-0
220
0
230
1
100
AcDbArc
50
-82.006134564234131
51
7.9938654357474501
0
LINE
5
252
100
AcDbEntity
8
0
100
AcDbLine
10
33.460751776471191
20
34.649020515476899
30
0
11
35.352730744256782
21
21.176424242076308
31
0
0
ARC
5
253
100
AcDbEntity
8
0
100
AcDbCircle
10
33.26269518365141
20
34.621207100716866
30
0
40
0.19999999999998674
210
0
220
-0
230
1
100
AcDbArc
50
7.9938654357609433
51
97.993865435746585
0
LINE
5
254
100
AcDbEntity
8
0
100
AcDbLine
10
19.765385430418618
20
32.92772005473801
30
0
11
33.234881768891427
21
34.819263693536648
31
0
0
LINE
5
255
100
AcDbEntity
8
0
100
AcDbLine
10
117.06980235141394
20
-30.688142107418393
30
0
11
117.06980235141422
21
-17.086327193667394
31
0
0
ARC
5
256
100
AcDbEntity
8
0
100
AcDbCircle
10
117.26980235141426
20
-17.086327193667476
30
0
40
0.20000000000008011
210
0
220
0
230
1
100
AcDbArc
50
90.000000000020364
51
180
0
LINE
5
257
100
AcDbEntity
8
0
100
AcDbLine
10
117.26980235141419
20
-16.886327193667398
30
0
11
130.87008744450387
21
-16.886327193667576
31
0
0
ARC
5
258
100
AcDbEntity
8
0
100
AcDbCircle
10
130.87008744450401
20
-17.086327193667582
30
0
40
0.19999999999996021
210
0
220
-0
230
1
100
AcDbArc
50
0
51
90.000000000040714
0
LINE
5
259
100
AcDbEntity
8
0
100
AcDbLine
10
131.07008744450397
20
-17.086327193667529
30
0
11
131.07008744450445
21
-30.688142107418038
31
0
0
ARC
5
260
100
AcDbEntity
8
0
100
AcDbCircle
10
130.87008744450435
20
-30.688142107417946
30
0
40
0.20000000000009788
210
-0
220
0
230
1
100
AcDbArc
50
270.00000000002444
51
360
0
LINE
5
261
100
AcDbEntity
8
0
100
AcDbLine
10
130.87008744450443
20
-30.888142107418041
30
0
11
117.26980235141397
21
-30.888142107418354
31
0
0
ARC
5
262
100
AcDbEntity
8
0
100
AcDbCircle
10
117.26980235141376
20
-30.688142107418503
30
0
40
0.1999999999998181
210
0
220
0
230
1
100
AcDbArc
50
180
51
270.00000000006105
0
ARC
5
263
100
AcDbEntity
8
0
100
AcDbCircle
10
-41.06533234365763
20
34.211505299355409
30
0
40
0.19999999999643095
210
-0
220
0
230
1
100
AcDbArc
50
-8.0061345643329833
51
2.6049383651140201
0
LINE
5
264
100
AcDbEntity
8
0
100
AcDbLine
10
-54.72494051314019
20
36.169920208331526
30
0
11
-40.865539012418992
21
34.22059511734809
31
0
0
ARC
5
265
100
AcDbEntity
8
0
100
AcDbCircle
10
-54.533620961407046
20
36.11163788577197
30
0
40
0.19999999999576981
210
0
220
0
230
1
100
AcDbArc
50
163.05751386686049
51
171.99386543577597
0
LINE
5
266
100
AcDbEntity
8
0
100
AcDbLine
10
-56.650064275558734
20
22.50001688117213
30
0
11
-54.731671593809281
21
36.139493711076234
31
0
0
ARC
5
267
100
AcDbEntity
8
0
100
AcDbCircle
10
-56.452013643152341
20
22.472161055867197
30
0
40
0.19999999999997747
210
0
220
0
230
1
100
AcDbArc
50
171.99386543575235
51
261.99386543575434
0
LINE
5
268
100
AcDbEntity
8
0
100
AcDbLine
10
-43.010778487691006
20
20.37968251471068
30
0
11
-56.479869468457267
21
22.274110423460804
31
0
0
ARC
5
269
100
AcDbEntity
8
0
100
AcDbCircle
10
-42.982922662386045
20
20.577733147117023
30
0
40
0.19999999999992843
210
0
220
0
230
1
100
AcDbArc
50
261.99386543574229
51
351.99386543576571
0
LINE
5
270
100
AcDbEntity
8
0
100
AcDbLine
10
-40.86728171125479
20
34.183649474050675
30
0
11
-42.784872029979724
21
20.549877321812147
31
0
0
LINE
5
271
100
AcDbEntity
8
0
100
AcDbLine
10
1.4832642400282126
20
-8.1156510974024787
30
0
11
14.952760578501092
21
-6.2241074586038714
31
0
0
ARC
5
272
100
AcDbEntity
8
0
100
AcDbCircle
10
14.980573993261039
20
-6.4221640514236267
30
0
40
0.19999999999994414
210
0
220
-0
230
1
100
AcDbArc
50
7.9938654357482735
51
97.993865435738002
0
LINE
5
273
100
AcDbEntity
8
0
100
AcDbLine
10
15.178630586080786
20
-6.3943506366636438
30
0
11
17.070609553866518
21
-19.866946910064204
31
0
0
ARC
5
274
100
AcDbEntity
8
0
100
AcDbCircle
10
16.872552961046736
20
-19.89476032482419
30
0
40
0.20000000000002438
210
-0
220
0
230
1
100
AcDbArc
50
-82.006134564234401
51
7.9938654357481811
0
LINE
5
275
100
AcDbEntity
8
0
100
AcDbLine
10
16.90036637580679
20
-20.092816917644008
30
0
11
3.4308700373342305
21
-21.98436055644299
31
0
0
ARC
5
276
100
AcDbEntity
8
0
100
AcDbCircle
10
3.4030566225742831
20
-21.786303963623119
30
0
40
0.2000000000000571
210
0
220
0
230
1
100
AcDbArc
50
187.99386543575909
51
277.99386543573331
0
LINE
5
277
100
AcDbEntity
8
0
100
AcDbLine
10
3.2050000297544301
20
-21.814117378383155
30
0
11
1.313021061968449
21
-8.3415211049822879
31
0
0
ARC
5
278
100
AcDbEntity
8
0
100
AcDbCircle
10
1.5110776547882665
20
-8.3137076902222962
30
0
40
0.20000000000002438
210
0
220
0
230
1
100
AcDbArc
50
97.993865435765613
51
187.99386543574812
0
ARC
5
279
100
AcDbEntity
8
0
100
AcDbCircle
10
-69.585279337713615
20
-19.652893511505237
30
0
40
0.19999999999995155
210
0
220
-0
230
1
100
AcDbArc
50
81.993865435720537
51
171.99386543577197
0
LINE
5
280
100
AcDbEntity
8
0
100
AcDbLine
10
-71.678193871656646
20
-33.097228508603948
30
0
11
-69.783329970120008
21
-19.625037686200375
31
0
0
ARC
5
281
100
AcDbEntity
8
0
100
AcDbCircle
10
-71.48014323925014
20
-33.125084333908816
30
0
40
0.2000000000000744
210
0
220
0
230
1
100
AcDbArc
50
171.99386543577501
51
261.9938654357336
0
LINE
5
282
100
AcDbEntity
8
0
100
AcDbLine
10
-58.038908083788989
20
-35.217562875065433
30
0
11
-71.50799906455515
21
-33.323134966315294
31
0
0
ARC
5
283
100
AcDbEntity
8
0
100
AcDbCircle
10
-58.011052258484028
20
-35.019512242659104
30
0
40
0.19999999999991966
210
0
220
0
230
1
100
AcDbArc
50
261.99386543574201
51
351.99386543577282
0
LINE
5
284
100
AcDbEntity
8
0
100
AcDbLine
10
-55.918137724540813
20
-21.575177245560724
30
0
11
-57.813001626077707
21
-35.047368067963951
31
0
0
ARC
5
285
100
AcDbEntity
8
0
100
AcDbCircle
10
-56.116188356947241
20
-21.547321420255795
30
0
40
0.20000000000001206
210
-0
220
0
230
1
100
AcDbArc
50
-8.0061345642452508
51
81.993865435745548
0
LINE
5
286
100
AcDbEntity
8
0
100
AcDbLine
10
-69.557423512408576
20
-19.454842879098884
30
0
11
-56.08833253164228
21
-21.34927078784937
31
0
0
ARC
5
287
100
AcDbEntity
8
0
100
AcDbCircle
10
54.019291762276538
20
23.799780832578826
30
0
40
0.20000000000002932
210
-0
220
0
230
1
100
AcDbArc
50
-82.006134564224325
51
7.9938654357512009
0
LINE
5
288
100
AcDbEntity
8
0
100
AcDbLine
10
52.32536938731073
20
37.300190520739392
30
0
11
54.21734835509632
21
23.827594247338819
31
0
0
ARC
5
289
100
AcDbEntity
8
0
100
AcDbCircle
10
52.127312794490948
20
37.272377105979324
30
0
40
0.19999999999999168
210
0
220
-0
230
1
100
AcDbArc
50
7.9938654357710526
51
97.993865435797829
0
LINE
5
290
100
AcDbEntity
8
0
100
AcDbLine
10
38.630003041258121
20
35.578890060000489
30
0
11
52.099499379730787
21
37.470433698799084
31
0
0
ARC
5
291
100
AcDbEntity
8
0
100
AcDbCircle
10
38.657816456018033
20
35.380833467180722
30
0
40
0.19999999999995186
210
0
220
0
230
1
100
AcDbArc
50
97.993865435727287
51
187.99386543576239
0
LINE
5
292
100
AcDbEntity
8
0
100
AcDbLine
10
40.351738830984267
20
21.880423779019857
30
0
11
38.459759863198286
21
35.353020052420689
31
0
0
ARC
5
293
100
AcDbEntity
8
0
100
AcDbCircle
10
40.549795423804085
20
21.908237193779811
30
0
40
0.20000000000001078
210
0
220
0
230
1
100
AcDbArc
50
187.99386543573738
51
277.99386543575577
0
LINE
5
294
100
AcDbEntity
8
0
100
AcDbLine
10
54.047105177036627
20
23.601724239759008
30
0
11
40.577608838564103
21
21.710180600960001
31
0
0
LINE
5
295
100
AcDbEntity
8
0
100
AcDbLine
10
-73.589263249851513
20
38.823187568625272
30
0
11
-59.729861749130144
21
36.873862477641978
31
0
0
ARC
5
296
100
AcDbEntity
8
0
100
AcDbCircle
10
-59.929655080370843
20
36.864772659650178
30
0
40
0.19999999999844809
210
-0
220
0
230
1
100
AcDbArc
50
-8.0061345643483008
51
2.6049383648352173
0
LINE
5
297
100
AcDbEntity
8
0
100
AcDbLine
10
-59.731604447966014
20
36.836916834345111
30
0
11
-61.649194766690911
21
23.203144682106043
31
0
0
ARC
5
298
100
AcDbEntity
8
0
100
AcDbCircle
10
-61.847245399097375
20
23.231000507410975
30
0
40
0.20000000000005047
210
0
220
0
230
1
100
AcDbArc
50
261.99386543576753
51
351.99386543575514
0
LINE
5
299
100
AcDbEntity
8
0
100
AcDbLine
10
-61.875101224402265
20
23.032949875004505
30
0
11
-75.344192205168454
21
24.9273777837547
31
0
0
ARC
5
300
100
AcDbEntity
8
0
100
AcDbCircle
10
-75.316336379863486
20
25.125428416161142
30
0
40
0.20000000000004292
210
0
220
0
230
1
100
AcDbArc
50
171.99386543576483
51
261.99386543574468
0
LINE
5
301
100
AcDbEntity
8
0
100
AcDbLine
10
-75.514387012269964
20
25.153284241466043
30
0
11
-73.595994330520568
21
38.792761071369981
31
0
0
ARC
5
302
100
AcDbEntity
8
0
100
AcDbCircle
10
-73.397943698112869
20
38.764905246064735
30
0
40
0.2000000000013222
210
0
220
0
230
1
100
AcDbArc
50
163.05751386705086
51
171.99386543571586
0
LINE
5
303
100
AcDbEntity
8
0
100
AcDbLine
10
78.686302351414099
20
-11.44830956429403
30
0
11
78.686302351414312
21
2.15350534945701
31
0
0
ARC
5
304
100
AcDbEntity
8
0
100
AcDbCircle
10
78.886302351414272
20
2.1535053494570278
30
0
40
0.19999999999998685
210
0
220
-0
230
1
100
AcDbArc
50
90
51
180
0
LINE
5
305
100
AcDbEntity
8
0
100
AcDbLine
10
78.886302351414272
20
2.3535053494570146
30
0
11
92.486587444503883
21
2.353505349456837
31
0
0
ARC
5
306
100
AcDbEntity
8
0
100
AcDbCircle
10
92.486587444503812
20
2.1535053494567347
30
0
40
0.20000000000010232
210
0
220
-0
230
1
100
AcDbArc
50
0
51
89.99999999997965
0
LINE
5
307
100
AcDbEntity
8
0
100
AcDbLine
10
92.686587444503914
20
2.1535053494568768
30
0
11
92.686587444504482
21
-11.448309564293648
31
0
0
ARC
5
308
100
AcDbEntity
8
0
100
AcDbCircle
10
92.486587444504522
20
-11.448309564293675
30
0
40
0.19999999999996909
210
-0
220
0
230
1
100
AcDbArc
50
-90
51
0
0
LINE
5
309
100
AcDbEntity
8
0
100
AcDbLine
10
92.486587444504522
20
-11.648309564293644
30
0
11
78.886302351414201
21
-11.648309564293937
31
0
0
ARC
5
310
100
AcDbEntity
8
0
100
AcDbCircle
10
78.886302351414059
20
-11.448309564293977
30
0
40
0.19999999999996021
210
0
220
0
230
1
100
AcDbArc
50
180
51
270.0000000000407
0
ARC
5
311
100
AcDbEntity
8
0
100
AcDbCircle
10
125.53807680216018
20
7.7931904357063342
30
0
40
0.19999999999999574
210
-0
220
0
230
1
100
AcDbArc
50
-90
51
0
0
LINE
5
312
100
AcDbEntity
8
0
100
AcDbLine
10
125.73807680215999
20
21.395005349456852
30
0
11
125.73807680216014
21
7.7931904357063431
31
0
0
ARC
5
313
100
AcDbEntity
8
0
100
AcDbCircle
10
125.53807680216018
20
21.395005349456959
30
0
40
0.1999999999998181
210
-0
220
0
230
1
100
AcDbArc
50
0
51
90.000000000040714
0
LINE
5
314
100
AcDbEntity
8
0
100
AcDbLine
10
111.93779170907021
20
21.59500534945699
30
0
11
125.53807680216003
21
21.595005349456777
31
0
0
ARC
5
315
100
AcDbEntity
8
0
100
AcDbCircle
10
111.93779170907014
20
21.395005349456937
30
0
40
0.20000000000004903
210
0
220
-0
230
1
100
AcDbArc
50
89.99999999997965
51
180
0
LINE
5
316
100
AcDbEntity
8
0
100
AcDbLine
10
111.73779170906982
20
7.7931904357059878
30
0
11
111.73779170907011
21
21.395005349456994
31
0
0
ARC
5
317
100
AcDbEntity
8
0
100
AcDbCircle
10
111.93779170906986
20
7.79319043570597
30
0
40
0.20000000000003126
210
0
220
0
230
1
100
AcDbArc
50
180
51
270
0
LINE
5
318
100
AcDbEntity
8
0
100
AcDbLine
10
125.53807680216018
20
7.5931904357063384
30
0
11
111.93779170906986
21
7.5931904357059388
31
0
0
LINE
5
319
100
AcDbEntity
8
0
100
AcDbLine
10
73.49410668063328
20
-12.138506277004112
30
0
11
60.024610342160756
21
-14.030049915803025
31
0
0
ARC
5
320
100
AcDbEntity
8
0
100
AcDbCircle
10
59.996796927400737
20
-13.831993322983266
30
0
40
0.19999999999997933
210
0
220
0
230
1
100
AcDbArc
50
187.99386543574687
51
277.99386543575719
0
LINE
5
321
100
AcDbEntity
8
0
100
AcDbLine
10
59.798740334580955
20
-13.859806737743249
30
0
11
57.906761366795152
21
-0.38721046434241124
31
0
0
ARC
5
322
100
AcDbEntity
8
0
100
AcDbCircle
10
58.104817959614934
20
-0.35939704958241059
30
0
40
0.20000000000005574
210
0
220
0
230
1
100
AcDbArc
50
97.993865435774637
51
187.99386543575196
0
LINE
5
323
100
AcDbEntity
8
0
100
AcDbLine
10
58.077004544854844
20
-0.16134045676256648
30
0
11
71.546500883327582
21
1.7302031820360586
31
0
0
ARC
5
324
100
AcDbEntity
8
0
100
AcDbCircle
10
71.5743142980876
20
1.5321465892162767
30
0
40
0.1999999999999818
210
0
220
-0
230
1
100
AcDbArc
50
7.9938654357518422
51
97.993865435757044
0
LINE
5
325
100
AcDbEntity
8
0
100
AcDbLine
10
71.772370890907382
20
1.5599600039762773
30
0
11
73.664349858693186
21
-11.912636269424297
31
0
0
ARC
5
326
100
AcDbEntity
8
0
100
AcDbCircle
10
73.466293265873404
20
-11.940449684184347
30
0
40
0.19999999999994691
210
-0
220
0
230
1
100
AcDbArc
50
-82.006134564282689
51
7.9938654357657013
0
LINE
5
327
100
AcDbEntity
8
0
100
AcDbLine
10
116.21580235141387
20
27.03335789258162
30
0
11
116.21580235141423
21
40.635172806332641
31
0
0
ARC
5
328
100
AcDbEntity
8
0
100
AcDbCircle
10
116.41580235141419
20
40.635172806332697
30
0
40
0.19999999999994245
210
0
220
-0
230
1
100
AcDbArc
50
89.99999999997965
51
180
0
LINE
5
329
100
AcDbEntity
8
0
100
AcDbLine
10
116.41580235141426
20
40.835172806332636
30
0
11
130.01608744450385
21
40.835172806332494
31
0
0
ARC
5
330
100
AcDbEntity
8
0
100
AcDbCircle
10
130.01608744450385
20
40.635172806332392
30
0
40
0.20000000000010232
210
0
220
-0
230
1
100
AcDbArc
50
0
51
90
0
LINE
5
331
100
AcDbEntity
8
0
100
AcDbLine
10
130.21608744450396
20
40.635172806332463
30
0
11
130.21608744450452
21
27.033357892581922
31
0
0
ARC
5
332
100
AcDbEntity
8
0
100
AcDbCircle
10
130.01608744450459
20
27.033357892581904
30
0
40
0.19999999999996909
210
0
220
0
230
1
100
AcDbArc
50
-90.000000000065143
51
0
0
LINE
5
333
100
AcDbEntity
8
0
100
AcDbLine
10
130.01608744450436
20
26.833357892581937
30
0
11
116.41580235141397
21
26.83335789258151
31
0
0
ARC
5
334
100
AcDbEntity
8
0
100
AcDbCircle
10
116.41580235141404
20
27.033357892581684
30
0
40
0.20000000000017337
210
0
220
0
230
1
100
AcDbArc
50
180
51
269.99999999997556
0
ARC
5
335
100
AcDbEntity
8
0
100
AcDbCircle
10
-99.631912555495887
20
40.786872806332511
30
0
40
0.19999999999988916
210
-0
220
0
230
1
100
AcDbArc
50
0
51
90.000000000020364
0
LINE
5
336
100
AcDbEntity
8
0
100
AcDbLine
10
-113.23219764858587
20
40.986872806332613
30
0
11
-99.631912555495958
21
40.9868728063324
31
0
0
ARC
5
337
100
AcDbEntity
8
0
100
AcDbCircle
10
-113.23219764858591
20
40.786872806332639
30
0
40
0.19999999999997797
210
0
220
-0
230
1
100
AcDbArc
50
89.999999999987793
51
180
0
LINE
5
338
100
AcDbEntity
8
0
100
AcDbLine
10
-113.43219764858597
20
27.18505789258159
30
0
11
-113.43219764858588
21
40.786872806332639
31
0
0
ARC
5
339
100
AcDbEntity
8
0
100
AcDbCircle
10
-113.23219764858599
20
27.185057892581579
30
0
40
0.19999999999997797
210
0
220
0
230
1
100
AcDbArc
50
180
51
269.99999999999591
0
LINE
5
340
100
AcDbEntity
8
0
100
AcDbLine
10
-99.631912555495575
20
26.985057892581949
30
0
11
-113.23219764858604
21
26.985057892581601
31
0
0
ARC
5
341
100
AcDbEntity
8
0
100
AcDbCircle
10
-99.631912555495489
20
27.185057892581874
30
0
40
0.19999999999992468
210
0
220
0
230
1
100
AcDbArc
50
-90.000000000024428
51
0
0
LINE
5
342
100
AcDbEntity
8
0
100
AcDbLine
10
-99.431912555495998
20
40.786872806332426
30
0
11
-99.431912555495572
21
27.185057892581945
31
0
0
ARC
5
343
100
AcDbEntity
8
0
100
AcDbCircle
10
-85.334561618766543
20
-11.944261795534619
30
0
40
0.19999999999994481
210
0
220
0
230
1
100
AcDbArc
50
171.99386543574514
51
261.99386543577765
0
LINE
5
344
100
AcDbEntity
8
0
100
AcDbLine
10
-71.8933264633053
20
-14.03674033669116
30
0
11
-85.362417444071383
21
-12.142312427940997
31
0
0
ARC
5
345
100
AcDbEntity
8
0
100
AcDbCircle
10
-71.865470638000417
20
-13.838689704284604
30
0
40
0.20000000000013402
210
0
220
0
230
1
100
AcDbArc
50
261.99386543577293
51
351.99386543572473
0
LINE
5
346
100
AcDbEntity
8
0
100
AcDbLine
10
-69.772556104056989
20
-0.39435470718644616
30
0
11
-71.667420005593883
21
-13.866545529589654
31
0
0
ARC
5
347
100
AcDbEntity
8
0
100
AcDbCircle
10
-69.970606736463481
20
-0.36649888188158286
30
0
40
0.20000000000007317
210
-0
220
0
230
1
100
AcDbArc
50
-8.0061345642240305
51
81.993865435741739
0
LINE
5
348
100
AcDbEntity
8
0
100
AcDbLine
10
-83.411841891924865
20
1.7259796592754029
30
0
11
-69.942750911158498
21
-0.16844824947509274
31
0
0
ARC
5
349
100
AcDbEntity
8
0
100
AcDbCircle
10
-83.439697717229748
20
1.5279290268690193
30
0
40
0.19999999999996254
210
0
220
-0
230
1
100
AcDbArc
50
81.993865435766082
51
171.99386543576975
0
LINE
5
350
100
AcDbEntity
8
0
100
AcDbLine
10
-85.532612251172893
20
-11.916405970229667
30
0
11
-83.637748349636141
21
1.5557848521738915
31
0
0
ARC
5
351
100
AcDbEntity
8
0
100
AcDbCircle
10
33.845161702020476
20
-3.7707812841636823
30
0
40
0.1999999999999818
210
0
220
-0
230
1
100
AcDbArc
50
7.9938654357518422
51
97.99386543575703
0
LINE
5
352
100
AcDbEntity
8
0
100
AcDbLine
10
20.347851948787614
20
-5.4642683301425521
30
0
11
33.817348287260458
21
-3.5727246913439004
31
0
0
ARC
5
353
100
AcDbEntity
8
0
100
AcDbCircle
10
20.375665363547562
20
-5.6623249229623163
30
0
40
0.19999999999995682
210
0
220
0
230
1
100
AcDbArc
50
97.99386543573749
51
187.99386543576995
0
LINE
5
354
100
AcDbEntity
8
0
100
AcDbLine
10
22.069587738513903
20
-19.162734611123227
30
0
11
20.177608770727851
21
-5.6901383377223702
31
0
0
ARC
5
355
100
AcDbEntity
8
0
100
AcDbCircle
10
22.267644331333685
20
-19.134921196363251
30
0
40
0.19999999999997869
210
0
220
0
230
1
100
AcDbArc
50
187.99386543574479
51
277.99386543572643
0
LINE
5
356
100
AcDbEntity
8
0
100
AcDbLine
10
35.764954084566263
20
-17.441434150384083
30
0
11
22.295457746093597
21
-19.33297778918304
31
0
0
ARC
5
357
100
AcDbEntity
8
0
100
AcDbCircle
10
35.737140669806315
20
-17.243377557564337
30
0
40
0.19999999999993923
210
-0
220
0
230
1
100
AcDbArc
50
-82.006134564261814
51
7.9938654357760388
0
LINE
5
358
100
AcDbEntity
8
0
100
AcDbLine
10
34.043218294840258
20
-3.7429678694036816
30
0
11
35.935197262626026
21
-17.215564142804261
31
0
0
LINE
5
359
100
AcDbEntity
8
0
100
AcDbLine
10
72.911640162264248
20
26.253482107876451
30
0
11
59.442143823791582
21
24.361938469077415
31
0
0
ARC
5
360
100
AcDbEntity
8
0
100
AcDbCircle
10
59.414330409031777
20
24.559995061897382
30
0
40
0.20000000000013735
210
0
220
0
230
1
100
AcDbArc
50
187.9938654357754
51
277.99386543568914
0
LINE
5
361
100
AcDbEntity
8
0
100
AcDbLine
10
59.216273816211853
20
24.532181647137278
30
0
11
57.324294848425907
21
38.004777920538181
31
0
0
ARC
5
362
100
AcDbEntity
8
0
100
AcDbCircle
10
57.522351441245831
20
38.032591335298108
30
0
40
0.20000000000010743
210
0
220
0
230
1
100
AcDbArc
50
97.993865435751857
51
187.99386543572538
0
LINE
5
363
100
AcDbEntity
8
0
100
AcDbLine
10
57.494538026485813
20
38.230647928118017
30
0
11
70.964034364958479
21
40.122191566916634
31
0
0
ARC
5
364
100
AcDbEntity
8
0
100
AcDbCircle
10
70.991847779718498
20
39.924134974096852
30
0
40
0.1999999999999818
210
0
220
-0
230
1
100
AcDbArc
50
7.9938654357508803
51
97.993865435756945
0
LINE
5
365
100
AcDbEntity
8
0
100
AcDbLine
10
71.18990437253828
20
39.951948388856849
30
0
11
73.081883340323941
21
26.479352115456265
31
0
0
ARC
5
366
100
AcDbEntity
8
0
100
AcDbCircle
10
72.88382674750423
20
26.451538700696162
30
0
40
0.19999999999991389
210
-0
220
0
230
1
100
AcDbArc
50
-82.006134564240242
51
7.9938654357844996
0
ARC
5
367
100
AcDbEntity
8
0
100
AcDbCircle
10
-76.753416861500455
20
19.824006572101823
30
0
40
0.19999999999995099
210
-0
220
0
230
1
100
AcDbArc
50
-8.0061345642669295
51
81.993865435753364
0
LINE
5
368
100
AcDbEntity
8
0
100
AcDbLine
10
-90.194652016961783
20
21.916485113258652
30
0
11
-76.725561036195529
21
20.02205720450819
31
0
0
ARC
5
369
100
AcDbEntity
8
0
100
AcDbCircle
10
-90.222507842266779
20
21.718434480852203
30
0
40
0.20000000000003892
210
0
220
-0
230
1
100
AcDbArc
50
81.993865435736453
51
171.9938654357405
0
LINE
5
370
100
AcDbEntity
8
0
100
AcDbLine
10
-92.315422376209966
20
8.2740994837536075
30
0
11
-90.420558474673243
21
21.746290306157185
31
0
0
ARC
5
371
100
AcDbEntity
8
0
100
AcDbCircle
10
-92.117371743803531
20
8.2462436584486642
30
0
40
0.20000000000001392
210
0
220
0
230
1
100
AcDbArc
50
171.99386543575105
51
261.9938654357436
0
LINE
5
372
100
AcDbEntity
8
0
100
AcDbLine
10
-78.676136588342303
20
6.1537651172921048
30
0
11
-92.145227569108499
21
8.0481930260422363
31
0
0
ARC
5
373
100
AcDbEntity
8
0
100
AcDbCircle
10
-78.648280763037306
20
6.3518157496985239
30
0
40
0.20000000000001253
210
0
220
0
230
1
100
AcDbArc
50
261.99386543573524
51
351.9938654357511
0
LINE
5
374
100
AcDbEntity
8
0
100
AcDbLine
10
-76.555366229094091
20
19.796150746796826
30
0
11
-78.450230130630871
21
6.3239599243935807
31
0
0
ARC
5
375
100
AcDbEntity
8
0
100
AcDbCircle
10
-78.7947054162575
20
39.512861748886834
30
0
40
0.20000000000043716
210
-0
220
0
230
1
100
AcDbArc
50
-8.0061345640870378
51
2.6049383650374618
0
LINE
5
376
100
AcDbEntity
8
0
100
AcDbLine
10
-92.454313585736088
20
41.471276657862724
30
0
11
-78.59491208501484
21
39.52195156687943
31
0
0
ARC
5
377
100
AcDbEntity
8
0
100
AcDbCircle
10
-92.262994034000315
20
41.412994335302329
30
0
40
0.19999999999852802
210
0
220
0
230
1
100
AcDbArc
50
163.05751386685017
51
171.99386543570606
0
LINE
5
378
100
AcDbEntity
8
0
100
AcDbLine
10
-94.379437348154696
20
27.801373330703445
30
0
11
-92.461044666405243
21
41.440850160607219
31
0
0
ARC
5
379
100
AcDbEntity
8
0
100
AcDbCircle
10
-94.181386715748161
20
27.773517505398573
30
0
40
0.20000000000010956
210
0
220
0
230
1
100
AcDbArc
50
171.99386543577515
51
261.99386543573911
0
LINE
5
380
100
AcDbEntity
8
0
100
AcDbLine
10
-80.740151560287046
20
25.68103896424196
30
0
11
-94.209242541053158
21
27.575466872992056
31
0
0
ARC
5
381
100
AcDbEntity
8
0
100
AcDbCircle
10
-80.712295734982035
20
25.879089596648264
30
0
40
0.1999999999998982
210
0
220
0
230
1
100
AcDbArc
50
261.9938654357266
51
351.9938654357822
0
LINE
5
382
100
AcDbEntity
8
0
100
AcDbLine
10
-78.596654783850568
20
39.485005923582392
30
0
11
-80.514245102575686
21
25.851233771343445
31
0
0
ARC
5
383
100
AcDbEntity
8
0
100
AcDbCircle
10
14.398107474891972
20
31.969824333456877
30
0
40
0.20000000000006204
210
0
220
-0
230
1
100
AcDbArc
50
7.9938654357682175
51
97.993865435753847
0
LINE
5
384
100
AcDbEntity
8
0
100
AcDbLine
10
0.9007977216592522
20
30.276337287478093
30
0
11
14.370294060131954
21
32.16788092627673
31
0
0
ARC
5
385
100
AcDbEntity
8
0
100
AcDbCircle
10
0.92861113641930615
20
30.078280694658275
30
0
40
0.20000000000002438
210
0
220
0
230
1
100
AcDbArc
50
97.993865435765613
51
187.99386543574502
0
LINE
5
386
100
AcDbEntity
8
0
100
AcDbLine
10
2.6225335113852921
20
16.577871006497418
30
0
11
0.73055454359948868
21
30.050467279898292
31
0
0
ARC
5
387
100
AcDbEntity
8
0
100
AcDbCircle
10
2.8205901042051096
20
16.605684421257454
30
0
40
0.20000000000002194
210
0
220
0
230
1
100
AcDbArc
50
187.99386543576057
51
277.9938654357656
0
LINE
5
388
100
AcDbEntity
8
0
100
AcDbLine
10
16.317899857437652
20
18.299171467236548
30
0
11
2.8484035189651635
21
16.407627828437636
31
0
0
ARC
5
389
100
AcDbEntity
8
0
100
AcDbCircle
10
16.290086442677598
20
18.497228060056354
30
0
40
0.20000000000001561
210
-0
220
0
230
1
100
AcDbArc
50
-82.006134564233975
51
7.9938654357484564
0
LINE
5
390
100
AcDbEntity
8
0
100
AcDbLine
10
14.596164067711825
20
31.997637748216945
30
0
11
16.488143035497416
21
18.525041474816348
31
0
0
ARC
5
391
100
AcDbEntity
8
0
100
AcDbCircle
10
-40.918907690441522
20
1.050459300167299
30
0
40
0.20000000000009444
210
0
220
0
230
1
100
AcDbArc
50
261.99386543576941
51
351.99386543573343
0
LINE
5
392
100
AcDbEntity
8
0
100
AcDbLine
10
-38.825993156498164
20
14.494794297265532
30
0
11
-40.720857058035023
21
1.0226034748622848
31
0
0
ARC
5
393
100
AcDbEntity
8
0
100
AcDbCircle
10
-39.024043788904557
20
14.522650122570457
30
0
40
0.19999999999997628
210
-0
220
0
230
1
100
AcDbArc
50
-8.0061345642456576
51
81.993865435764576
0
LINE
5
394
100
AcDbEntity
8
0
100
AcDbLine
10
-52.465278944365998
20
16.615128663727347
30
0
11
-38.996187963599667
21
14.720700754976859
31
0
0
ARC
5
395
100
AcDbEntity
8
0
100
AcDbCircle
10
-52.493134769670959
20
16.41707803132098
30
0
40
0.19999999999995483
210
0
220
-0
230
1
100
AcDbArc
50
81.993865435743274
51
171.99386543576793
0
LINE
5
396
100
AcDbEntity
8
0
100
AcDbLine
10
-54.586049303614104
20
2.9727430342222938
30
0
11
-52.691185402077316
21
16.444933856625852
31
0
0
ARC
5
397
100
AcDbEntity
8
0
100
AcDbCircle
10
-54.387998671207676
20
2.9448872089173861
30
0
40
0.20000000000000895
210
0
220
0
230
1
100
AcDbArc
50
171.99386543576082
51
261.99386543576594
0
LINE
5
398
100
AcDbEntity
8
0
100
AcDbLine
10
-40.946763515746412
20
0.85240866776078228
30
0
11
-54.415854496512566
21
2.7468365765109581
31
0
0
ARC
5
399
100
AcDbEntity
8
0
100
AcDbCircle
10
93.459525623785424
20
-30.688509564293941
30
0
40
0.20000000000003126
210
0
220
0
230
1
100
AcDbArc
50
180
51
269.99999999997965
0
LINE
5
400
100
AcDbEntity
8
0
100
AcDbLine
10
107.05981071687575
20
-30.888509564293592
30
0
11
93.459525623785353
21
-30.888509564293969
31
0
0
ARC
5
401
100
AcDbEntity
8
0
100
AcDbCircle
10
107.05981071687582
20
-30.68850956429354
30
0
40
0.20000000000005347
210
0
220
0
230
1
100
AcDbArc
50
269.99999999997965
51
360
0
LINE
5
402
100
AcDbEntity
8
0
100
AcDbLine
10
107.25981071687549
20
-17.086694650543066
30
0
11
107.25981071687585
21
-30.688509564293586
31
0
0
ARC
5
403
100
AcDbEntity
8
0
100
AcDbCircle
10
107.05981071687539
20
-17.086694650543144
30
0
40
0.20000000000010232
210
0
220
-0
230
1
100
AcDbArc
50
0
51
89.999999999975572
0
LINE
5
404
100
AcDbEntity
8
0
100
AcDbLine
10
93.459525623785638
20
-16.886694650542935
30
0
11
107.05981071687546
21
-16.886694650543088
31
0
0
ARC
5
405
100
AcDbEntity
8
0
100
AcDbCircle
10
93.459525623785638
20
-17.086694650542814
30
0
40
0.19999999999987583
210
0
220
-0
230
1
100
AcDbArc
50
90
51
180
0
LINE
5
406
100
AcDbEntity
8
0
100
AcDbLine
10
93.259525623785393
20
-30.688509564293934
30
0
11
93.259525623785748
21
-17.086694650542917
31
0
0
ARC
5
407
100
AcDbEntity
8
0
100
AcDbCircle
10
85.74441942138094
20
21.395005349457019
30
0
40
0.19999999999996909
210
0
220
-0
230
1
100
AcDbArc
50
90
51
180
0
LINE
5
408
100
AcDbEntity
8
0
100
AcDbLine
10
85.544419421380766
20
7.7931904357059878
30
0
11
85.544419421380979
21
21.395005349456994
31
0
0
ARC
5
409
100
AcDbEntity
8
0
100
AcDbCircle
10
85.744419421380798
20
7.7931904357059789
30
0
40
0.20000000000003126
210
0
220
0
230
1
100
AcDbArc
50
180
51
269.99999999997965
0
LINE
5
410
100
AcDbEntity
8
0
100
AcDbLine
10
99.344704514470834
20
7.5931904357063384
30
0
11
85.744419421380726
21
7.5931904357059476
31
0
0
ARC
5
411
100
AcDbEntity
8
0
100
AcDbCircle
10
99.344704514471047
20
7.7931904357063075
30
0
40
0.19999999999996909
210
0
220
0
230
1
100
AcDbArc
50
-90.000000000061064
51
0
0
LINE
5
412
100
AcDbEntity
8
0
100
AcDbLine
10
99.544704514470652
20
21.395005349456866
30
0
11
99.544704514471007
21
7.7931904357063431
31
0
0
ARC
5
413
100
AcDbEntity
8
0
100
AcDbCircle
10
99.34470451447055
20
21.395005349456717
30
0
40
0.20000000000010232
210
0
220
-0
230
1
100
AcDbArc
50
0
51
89.999999999975572
0
LINE
5
414
100
AcDbEntity
8
0
100
AcDbLine
10
85.74441942138094
20
21.59500534945699
30
0
11
99.344704514470621
21
21.595005349456819
31
0
0
ARC
5
415
100
AcDbEntity
8
0
100
AcDbCircle
10
-132.47406150705768
20
21.546809737116249
30
0
40
0.19999999999997858
210
0
220
-0
230
1
100
AcDbArc
50
89.999995458188266
51
180.00002443344454
0
LINE
5
416
100
AcDbEntity
8
0
100
AcDbLine
10
-132.67405570166258
20
7.9447157713612171
30
0
11
-132.67406150705764
21
21.546809651755893
31
0
0
ARC
5
417
100
AcDbEntity
8
0
100
AcDbCircle
10
-132.47405570166256
20
7.9447158567215492
30
0
40
0.20000000000003171
210
0
220
0
230
1
100
AcDbArc
50
180.00002443344454
51
269.99999799652534
0
LINE
5
418
100
AcDbEntity
8
0
100
AcDbLine
10
-118.872054988945
20
7.7447153811000558
30
0
11
-132.47405570865601
21
7.744715856721518
31
0
0
ARC
5
419
100
AcDbEntity
8
0
100
AcDbCircle
10
-118.87205498195159
20
7.9447153811000693
30
0
40
0.20000000000001364
210
0
220
0
230
1
100
AcDbArc
50
269.99999799653756
51
359.9999726659064
0
LINE
5
420
100
AcDbEntity
8
0
100
AcDbLine
10
-118.67204849105192
20
21.546808563450544
30
0
11
-118.6720549819516
21
7.944715285660342
31
0
0
ARC
5
421
100
AcDbEntity
8
0
100
AcDbCircle
10
-118.8720484910519
20
21.546808658890253
30
0
40
0.20000000000000073
210
-0
220
0
230
1
100
AcDbArc
50
-2.7334093636385693e-05
51
89.999995458192345
0
LINE
5
422
100
AcDbEntity
8
0
100
AcDbLine
10
-132.47406149120377
20
21.74680973711623
30
0
11
-118.872048475198
21
21.746808658890249
31
0
0
LINE
5
423
100
AcDbEntity
8
0
100
AcDbLine
10
-130.66305510204111
20
2.505315349456998
30
0
11
-117.06305510204098
21
2.5053153494570068
31
0
0
ARC
5
424
100
AcDbEntity
8
0
100
AcDbCircle
10
-117.06305510204098
20
2.3053153494569489
30
0
40
0.20000000000004903
210
0
220
-0
230
1
100
AcDbArc
50
0
51
89.999999999995936
0
LINE
5
425
100
AcDbEntity
8
0
100
AcDbLine
10
-116.86305510204093
20
2.3053153494570111
30
0
11
-116.86305510204107
21
-11.29538465054301
31
0
0
ARC
5
426
100
AcDbEntity
8
0
100
AcDbCircle
10
-117.06305510204106
20
-11.29538465054301
30
0
40
0.19999999999999574
210
-0
220
0
230
1
100
AcDbArc
50
-89.999999999991857
51
0
0
LINE
5
427
100
AcDbEntity
8
0
100
AcDbLine
10
-117.06305510204103
20
-11.495384650543006
30
0
11
-130.663055102041
21
-11.495384650542997
31
0
0
ARC
5
428
100
AcDbEntity
8
0
100
AcDbCircle
10
-130.663055102041
20
-11.295384650543019
30
0
40
0.19999999999997797
210
0
220
0
230
1
100
AcDbArc
50
180
51
270
0
LINE
5
429
100
AcDbEntity
8
0
100
AcDbLine
10
-130.86305510204099
20
-11.29538465054301
30
0
11
-130.86305510204113
21
2.3053153494570111
31
0
0
ARC
5
430
100
AcDbEntity
8
0
100
AcDbCircle
10
-130.66305510204111
20
2.3053153494569845
30
0
40
0.2000000000000135
210
0
220
-0
230
1
100
AcDbArc
50
90
51
180
0
LINE
5
431
100
AcDbEntity
8
0
100
AcDbLine
10
78.115802351413919
20
27.033357892581613
30
0
11
78.115802351414203
21
40.635172806332641
31
0
0
ARC
5
432
100
AcDbEntity
8
0
100
AcDbCircle
10
78.315802351414163
20
40.635172806332676
30
0
40
0.19999999999996021
210
0
220
-0
230
1
100
AcDbArc
50
90
51
180
0
LINE
5
433
100
AcDbEntity
8
0
100
AcDbLine
10
78.315802351414163
20
40.835172806332636
30
0
11
91.916087444503987
21
40.835172806332494
31
0
0
ARC
5
434
100
AcDbEntity
8
0
100
AcDbCircle
10
91.916087444503916
20
40.635172806332498
30
0
40
0.20000000000003126
210
0
220
-0
230
1
100
AcDbArc
50
0
51
89.99999999997965
0
LINE
5
435
100
AcDbEntity
8
0
100
AcDbLine
10
92.116087444503947
20
40.635172806332498
30
0
11
92.116087444504373
21
27.033357892581922
31
0
0
ARC
5
436
100
AcDbEntity
8
0
100
AcDbCircle
10
91.916087444504271
20
27.033357892582011
30
0
40
0.20000000000007567
210
0
220
0
230
1
100
AcDbArc
50
269.9999999999593
51
360
0
LINE
5
437
100
AcDbEntity
8
0
100
AcDbLine
10
91.916087444504129
20
26.833357892581937
30
0
11
78.31580235141395
21
26.833357892581652
31
0
0
ARC
5
438
100
AcDbEntity
8
0
100
AcDbCircle
10
78.315802351414021
20
27.03335789258178
30
0
40
0.20000000000010232
210
0
220
0
230
1
100
AcDbArc
50
180
51
269.99999999997965
0
ARC
5
439
100
AcDbEntity
8
0
100
AcDbCircle
10
-97.535054981951561
20
7.9447153811000959
30
0
40
0.20000000000004028
210
0
220
0
230
1
100
AcDbArc
50
269.99999799653347
51
359.9999726659064
0
LINE
5
440
100
AcDbEntity
8
0
100
AcDbLine
10
-97.33504849105195
20
21.546808563450544
30
0
11
-97.335054981951544
21
7.944715285660342
31
0
0
ARC
5
441
100
AcDbEntity
8
0
100
AcDbCircle
10
-97.53504849105191
20
21.546808658890253
30
0
40
0.19999999999998297
210
-0
220
0
230
1
100
AcDbArc
50
-2.7334093636385693e-05
51
89.999995458176059
0
LINE
5
442
100
AcDbEntity
8
0
100
AcDbLine
10
-111.13706149120378
20
21.74680973711623
30
0
11
-97.535048475197954
21
21.746808658890231
31
0
0
ARC
5
443
100
AcDbEntity
8
0
100
AcDbCircle
10
-111.13706150705769
20
21.546809737116213
30
0
40
0.20000000000001411
210
0
220
-0
230
1
100
AcDbArc
50
89.999995458188266
51
180.00002443344454
0
LINE
5
444
100
AcDbEntity
8
0
100
AcDbLine
10
-111.33705570166259
20
7.9447157713612171
30
0
11
-111.3370615070577
21
21.546809651755893
31
0
0
ARC
5
445
100
AcDbEntity
8
0
100
AcDbCircle
10
-111.13705570166262
20
7.9447158567215492
30
0
40
0.19999999999999618
210
0
220
0
230
1
100
AcDbArc
50
180.00002443344454
51
269.99999799652943
0
LINE
5
446
100
AcDbEntity
8
0
100
AcDbLine
10
-97.535054988944978
20
7.7447153811000558
30
0
11
-111.13705570865605
21
7.7447158567215535
31
0
0
LINE
5
447
100
AcDbEntity
8
0
100
AcDbLine
10
45.995687036778321
20
17.37640601915156
30
0
11
59.465183375250987
21
19.267949657950155
31
0
0
ARC
5
448
100
AcDbEntity
8
0
100
AcDbCircle
10
59.492996790011006
20
19.069893065130437
30
0
40
0.19999999999990897
210
0
220
-0
230
1
100
AcDbArc
50
7.9938654357496919
51
97.993865435759929
0
LINE
5
449
100
AcDbEntity
8
0
100
AcDbLine
10
59.691053382830717
20
19.097706479890419
30
0
11
61.583032350616449
21
5.6251102064898006
31
0
0
ARC
5
450
100
AcDbEntity
8
0
100
AcDbCircle
10
61.384975757796525
20
5.5972967917298
30
0
40
0.20000000000000512
210
-0
220
0
230
1
100
AcDbArc
50
-82.006134564182233
51
7.9938654357459873
0
LINE
5
451
100
AcDbEntity
8
0
100
AcDbLine
10
61.412789172556757
20
5.3992401989100269
30
0
11
47.943292834084197
21
3.5076965601110821
31
0
0
ARC
5
452
100
AcDbEntity
8
0
100
AcDbCircle
10
47.915479419324249
20
3.7057531529309085
30
0
40
0.20000000000001947
210
0
220
0
230
1
100
AcDbArc
50
187.99386543575554
51
277.99386543573496
0
LINE
5
453
100
AcDbEntity
8
0
100
AcDbLine
10
47.717422826504432
20
3.67793973817089
30
0
11
45.825443858718558
21
17.150536011571749
31
0
0
ARC
5
454
100
AcDbEntity
8
0
100
AcDbCircle
10
46.023500451538375
20
17.178349426331742
30
0
40
0.20000000000002438
210
0
220
0
230
1
100
AcDbArc
50
97.993865435765613
51
187.99386543574917
0
LINE
5
455
100
AcDbEntity
8
0
100
AcDbLine
10
-26.818146082617673
20
-6.2286441505497958
30
0
11
-13.349055101851519
21
-8.1230720593002825
31
0
0
ARC
5
456
100
AcDbEntity
8
0
100
AcDbCircle
10
-13.376910927156409
20
-8.321122691706675
30
0
40
0.19999999999997997
210
-0
220
0
230
1
100
AcDbArc
50
-8.0061345642531894
51
81.993865435764292
0
LINE
5
457
100
AcDbEntity
8
0
100
AcDbLine
10
-13.178860294750017
20
-8.3489785170116271
30
0
11
-15.07372419628684
21
-21.821169339414844
31
0
0
ARC
5
458
100
AcDbEntity
8
0
100
AcDbCircle
10
-15.271774828693232
20
-21.793313514109968
30
0
40
0.19999999999995591
210
0
220
0
230
1
100
AcDbArc
50
261.99386543572268
51
351.99386543576793
0
LINE
5
459
100
AcDbEntity
8
0
100
AcDbLine
10
-15.299630653998264
20
-21.991364146516325
30
0
11
-28.768721634764383
21
-20.096936237766197
31
0
0
ARC
5
460
100
AcDbEntity
8
0
100
AcDbCircle
10
-28.740865809459422
20
-19.898885605359769
30
0
40
0.20000000000001084
210
0
220
0
230
1
100
AcDbArc
50
171.99386543575679
51
261.99386543574553
0
LINE
5
461
100
AcDbEntity
8
0
100
AcDbLine
10
-28.93891644186585
20
-19.871029780054847
30
0
11
-27.044052540329062
21
-6.3988389576512805
31
0
0
ARC
5
462
100
AcDbEntity
8
0
100
AcDbCircle
10
-26.846001907922599
20
-6.4266947829562771
30
0
40
0.20000000000006424
210
0
220
-0
230
1
100
AcDbArc
50
81.993865435757897
51
171.99386543573706
0
LINE
5
463
100
AcDbEntity
8
0
100
AcDbLine
10
111.16608744450396
20
40.635172806332463
30
0
11
111.16608744450446
21
27.033357892581922
31
0
0
ARC
5
464
100
AcDbEntity
8
0
100
AcDbCircle
10
110.9660874445045
20
27.033357892581851
30
0
40
0.1999999999999158
210
0
220
0
230
1
100
AcDbArc
50
-90.000000000020364
51
0
0
LINE
5
465
100
AcDbEntity
8
0
100
AcDbLine
10
110.96608744450442
20
26.833357892581937
30
0
11
97.365802351413961
21
26.833357892581652
31
0
0
ARC
5
466
100
AcDbEntity
8
0
100
AcDbCircle
10
97.365802351414033
20
27.03335789258178
30
0
40
0.20000000000010232
210
0
220
0
230
1
100
AcDbArc
50
180
51
269.99999999997965
0
LINE
5
467
100
AcDbEntity
8
0
100
AcDbLine
10
97.16580235141393
20
27.033357892581613
30
0
11
97.165802351414214
21
40.635172806332641
31
0
0
ARC
5
468
100
AcDbEntity
8
0
100
AcDbCircle
10
97.365802351414175
20
40.635172806332676
30
0
40
0.19999999999996021
210
0
220
-0
230
1
100
AcDbArc
50
90
51
180
0
LINE
5
469
100
AcDbEntity
8
0
100
AcDbLine
10
97.365802351414175
20
40.835172806332636
30
0
11
110.96608744450386
21
40.835172806332494
31
0
0
ARC
5
470
100
AcDbEntity
8
0
100
AcDbCircle
10
110.96608744450386
20
40.635172806332392
30
0
40
0.20000000000010232
210
0
220
-0
230
1
100
AcDbArc
50
0
51
90
0
ARC
5
471
100
AcDbEntity
8
0
100
AcDbCircle
10
97.936302351414142
20
2.1535053494570544
30
0
40
0.19999999999996021
210
0
220
-0
230
1
100
AcDbArc
50
90
51
180
0
LINE
5
472
100
AcDbEntity
8
0
100
AcDbLine
10
97.736302351413968
20
-11.448309564293995
30
0
11
97.736302351414182
21
2.1535053494570278
31
0
0
ARC
5
473
100
AcDbEntity
8
0
100
AcDbCircle
10
97.936302351414071
20
-11.448309564293853
30
0
40
0.20000000000010232
210
0
220
0
230
1
100
AcDbArc
50
180
51
269.99999999997965
0
LINE
5
474
100
AcDbEntity
8
0
100
AcDbLine
10
111.53658744450446
20
-11.648309564293644
30
0
11
97.936302351414
21
-11.648309564293973
31
0
0
ARC
5
475
100
AcDbEntity
8
0
100
AcDbCircle
10
111.53658744450446
20
-11.448309564293595
30
0
40
0.20000000000004903
210
-0
220
0
230
1
100
AcDbArc
50
270
51
360
0
LINE
5
476
100
AcDbEntity
8
0
100
AcDbLine
10
111.73658744450393
20
2.1535053494569123
30
0
11
111.73658744450449
21
-11.448309564293648
31
0
0
ARC
5
477
100
AcDbEntity
8
0
100
AcDbCircle
10
111.53658744450382
20
2.1535053494567702
30
0
40
0.20000000000010232
210
0
220
-0
230
1
100
AcDbArc
50
0
51
89.99999999997965
0
LINE
5
478
100
AcDbEntity
8
0
100
AcDbLine
10
97.936302351414142
20
2.3535053494570146
30
0
11
111.53658744450389
21
2.3535053494568903
31
0
0
LINE
5
479
100
AcDbEntity
8
0
100
AcDbLine
10
-119.53005510204093
20
-16.934884650542955
30
0
11
-119.53005510204093
21
-30.534284650542961
31
0
0
ARC
5
480
100
AcDbEntity
8
0
100
AcDbCircle
10
-119.73005510204096
20
-30.534284650542943
30
0
40
0.20000000000002238
210
-0
220
0
230
1
100
AcDbArc
50
270
51
360
0
LINE
5
481
100
AcDbEntity
8
0
100
AcDbLine
10
-119.73005510204096
20
-30.734284650542968
30
0
11
-133.33005510204094
21
-30.73428465054301
31
0
0
ARC
5
482
100
AcDbEntity
8
0
100
AcDbCircle
10
-133.33005510204094
20
-30.534284650543032
30
0
40
0.19999999999997797
210
0
220
0
230
1
100
AcDbArc
50
180
51
269.99999999999187
0
LINE
5
483
100
AcDbEntity
8
0
100
AcDbLine
10
-133.53005510204093
20
-30.534284650543007
30
0
11
-133.53005510204093
21
-16.934884650542998
31
0
0
ARC
5
484
100
AcDbEntity
8
0
100
AcDbCircle
10
-133.33005510204092
20
-16.934884650543012
30
0
40
0.20000000000001794
210
0
220
0
230
1
100
AcDbArc
50
90.000000000008143
51
180
0
LINE
5
485
100
AcDbEntity
8
0
100
AcDbLine
10
-133.33005510204094
20
-16.734884650542995
30
0
11
-119.73005510204098
21
-16.734884650542945
31
0
0
ARC
5
486
100
AcDbEntity
8
0
100
AcDbCircle
10
-119.73005510204096
20
-16.934884650542973
30
0
40
0.20000000000003126
210
0
220
-0
230
1
100
AcDbArc
50
0
51
90.000000000004079
0
ARC
5
487
100
AcDbEntity
8
0
100
AcDbCircle
10
48.963611031953675
20
-20.882684461590166
30
0
40
0.20000000000004092
210
0
220
0
230
1
100
AcDbArc
50
97.993865435744326
51
187.99386543574226
0
LINE
5
488
100
AcDbEntity
8
0
100
AcDbLine
10
50.657533406919839
20
-34.383094149751024
30
0
11
48.765554439133822
21
-20.910497876350142
31
0
0
ARC
5
489
100
AcDbEntity
8
0
100
AcDbCircle
10
50.85558999973955
20
-34.355280734991041
30
0
40
0.19999999999990897
210
0
220
0
230
1
100
AcDbArc
50
187.99386543574968
51
277.99386543575974
0
LINE
5
490
100
AcDbEntity
8
0
100
AcDbLine
10
64.352899752972021
20
-32.661793689011851
30
0
11
50.883403414499568
21
-34.553337327810752
31
0
0
ARC
5
491
100
AcDbEntity
8
0
100
AcDbCircle
10
64.325086338211861
20
-32.463737096191927
30
0
40
0.20000000000014917
210
-0
220
0
230
1
100
AcDbArc
50
-82.006134564208679
51
7.9938654357092567
0
LINE
5
492
100
AcDbEntity
8
0
100
AcDbLine
10
62.631163963246195
20
-18.963327408031461
30
0
11
64.523142931031856
21
-32.435923681432051
31
0
0
ARC
5
493
100
AcDbEntity
8
0
100
AcDbCircle
10
62.433107370426413
20
-18.991140822791447
30
0
40
0.19999999999997994
210
0
220
-0
230
1
100
AcDbArc
50
7.9938654357478622
51
97.993865435757101
0
LINE
5
494
100
AcDbEntity
8
0
100
AcDbLine
10
48.935797617193693
20
-20.68462786877032
30
0
11
62.405293955666394
21
-18.793084229971669
31
0
0
ARC
5
495
100
AcDbEntity
8
0
100
AcDbCircle
10
-95.91805510204108
20
-30.534284650542922
30
0
40
0.20000000000004015
210
-0
220
0
230
1
100
AcDbArc
50
270.00000000001222
51
360
0
LINE
5
496
100
AcDbEntity
8
0
100
AcDbLine
10
-95.718055102041035
20
-16.934884650542955
30
0
11
-95.718055102041035
21
-30.534284650542961
31
0
0
ARC
5
497
100
AcDbEntity
8
0
100
AcDbCircle
10
-95.918055102041038
20
-16.934884650542926
30
0
40
0.19999999999999574
210
-0
220
0
230
1
100
AcDbArc
50
0
51
90
0
LINE
5
498
100
AcDbEntity
8
0
100
AcDbLine
10
-109.51805510204103
20
-16.734884650542995
30
0
11
-95.918055102041038
21
-16.734884650542941
31
0
0
ARC
5
499
100
AcDbEntity
8
0
100
AcDbCircle
10
-109.51805510204103
20
-16.934884650542973
30
0
40
0.19999999999997797
210
0
220
-0
230
1
100
AcDbArc
50
90
51
180
0
LINE
5
500
100
AcDbEntity
8
0
100
AcDbLine
10
-109.71805510204099
20
-30.534284650543007
30
0
11
-109.71805510204099
21
-16.93488465054299
31
0
0
ARC
5
501
100
AcDbEntity
8
0
100
AcDbCircle
10
-109.51805510204107
20
-30.534284650543061
30
0
40
0.19999999999992468
210
0
220
0
230
1
100
AcDbArc
50
180
51
270.00000000002444
0
LINE
5
502
100
AcDbEntity
8
0
100
AcDbLine
10
-95.918055102041038
20
-30.734284650542961
30
0
11
-109.51805510204099
21
-30.734284650543007
31
0
0
LINE
5
503
100
AcDbEntity
8
0
100
AcDbLine
10
-24.146455750979854
20
17.72641515441677
30
0
11
-37.61554673174615
21
19.620843063166909
31
0
0
ARC
5
504
100
AcDbEntity
8
0
100
AcDbCircle
10
-37.587690906441154
20
19.818893695573419
30
0
40
0.20000000000010956
210
0
220
0
230
1
100
AcDbArc
50
171.99386543577515
51
261.99386543573911
0
LINE
5
505
100
AcDbEntity
8
0
100
AcDbLine
10
-37.785741538847688
20
19.846749520878291
30
0
11
-35.867348857098165
21
33.486226350782211
31
0
0
ARC
5
506
100
AcDbEntity
8
0
100
AcDbCircle
10
-35.669298224689747
20
33.458370525476838
30
0
40
0.20000000000204332
210
0
220
0
230
1
100
AcDbArc
50
163.05751386707186
51
171.99386543570819
0
LINE
5
507
100
AcDbEntity
8
0
100
AcDbLine
10
-35.860617776429109
20
33.516652848037516
30
0
11
-22.001216275707769
21
31.567327757054223
31
0
0
ARC
5
508
100
AcDbEntity
8
0
100
AcDbCircle
10
-22.201009606948077
20
31.558237939061968
30
0
40
0.19999999999807896
210
-0
220
0
230
1
100
AcDbArc
50
-8.0061345643282511
51
2.6049383649704199
0
LINE
5
509
100
AcDbEntity
8
0
100
AcDbLine
10
-22.002958974543603
20
31.530382113757021
30
0
11
-23.920549293268536
21
17.896609961518255
31
0
0
ARC
5
510
100
AcDbEntity
8
0
100
AcDbCircle
10
-24.118599925674964
20
17.924465786823191
30
0
40
0.19999999999999771
210
0
220
0
230
1
100
AcDbArc
50
261.99386543576554
51
351.99386543575326
0
ARC
5
511
100
AcDbEntity
8
0
100
AcDbCircle
10
-45.710324644633822
20
-3.7734274226623299
30
0
40
0.20000000000001034
210
0
220
-0
230
1
100
AcDbArc
50
81.993865435776286
51
171.99386543575574
0
LINE
5
512
100
AcDbEntity
8
0
100
AcDbLine
10
-47.803239178577002
20
-17.217762419760973
30
0
11
-45.90837527704025
21
-3.7455715973574044
31
0
0
ARC
5
513
100
AcDbEntity
8
0
100
AcDbCircle
10
-47.605188546170574
20
-17.245618245065899
30
0
40
0.20000000000001145
210
0
220
0
230
1
100
AcDbArc
50
171.99386543575574
51
261.99386543574536
0
LINE
5
514
100
AcDbEntity
8
0
100
AcDbLine
10
-34.163953390709381
20
-19.338096786222451
30
0
11
-47.633044371475535
21
-17.443668877472327
31
0
0
ARC
5
515
100
AcDbEntity
8
0
100
AcDbCircle
10
-34.136097565404455
20
-19.140046153815963
30
0
40
0.20000000000007301
210
0
220
0
230
1
100
AcDbArc
50
261.99386543575815
51
351.99386543573763
0
LINE
5
516
100
AcDbEntity
8
0
100
AcDbLine
10
-32.043183031461169
20
-5.6957111567177598
30
0
11
-33.938046932997992
21
-19.167901979120959
31
0
0
ARC
5
517
100
AcDbEntity
8
0
100
AcDbCircle
10
-32.241233663867526
20
-5.6678553314127544
30
0
40
0.19999999999995219
210
-0
220
0
230
1
100
AcDbArc
50
-8.0061345642697805
51
81.993865435753364
0
LINE
5
518
100
AcDbEntity
8
0
100
AcDbLine
10
-45.682468819328967
20
-3.5753767902558931
30
0
11
-32.2133778385626
21
-5.4698046990063975
31
0
0
LINE
5
519
100
AcDbEntity
8
0
100
AcDbLine
10
38.049320261598254
20
-19.191634430833791
30
0
11
38.352687693525489
21
-21.351074004210684
31
0
0
ARC
5
520
100
AcDbEntity
8
0
100
AcDbCircle
10
39.342963471774013
20
-21.211955770271274
30
0
40
1.0000000000000697
210
0
220
0
230
1
100
AcDbArc
50
187.99682546920377
51
246.15011351608695
0
ARC
5
521
100
AcDbEntity
8
0
100
AcDbCircle
10
38.857753331596534
20
-22.309485323344415
30
0
40
0.19999999999990464
210
0
220
-0
230
1
100
AcDbArc
50
7.9938654357405889
51
66.150113516108277
0
LINE
5
522
100
AcDbEntity
8
0
100
AcDbLine
10
39.055809924416245
20
-22.281671908584464
30
0
11
40.947266471197068
21
-35.750548073357194
31
0
0
ARC
5
523
100
AcDbEntity
8
0
100
AcDbCircle
10
40.749209878377322
20
-35.778361488117255
30
0
40
0.19999999999995727
210
-0
220
0
230
1
100
AcDbArc
50
-81.994029106729002
51
7.9938654357684458
0
LINE
5
524
100
AcDbEntity
8
0
100
AcDbLine
10
40.77706513793121
20
-35.976412200095702
30
0
11
22.112318791878387
21
-38.601554764760351
31
0
0
LINE
5
525
100
AcDbEntity
8
0
100
AcDbLine
10
22.112318791878387
20
-38.601554764760351
30
0
11
8.4447658605860454
21
-40.520911818319298
31
0
0
ARC
5
526
100
AcDbEntity
8
0
100
AcDbCircle
10
8.416952445826027
20
-40.322855225499517
30
0
40
0.19999999999994786
210
0
220
0
230
1
100
AcDbArc
50
187.99386543575631
51
277.99386543575736
0
LINE
5
527
100
AcDbEntity
8
0
100
AcDbLine
10
8.2188958530062806
20
-40.350668640259528
30
0
11
6.3271200750808987
21
-26.879519261884397
31
0
0
ARC
5
528
100
AcDbEntity
8
0
100
AcDbCircle
10
6.5251766679006096
20
-26.85170584712435
30
0
40
0.19999999999992676
210
0
220
0
230
1
100
AcDbArc
50
127.95741591737966
51
187.99386543576847
0
ARC
5
529
100
AcDbEntity
8
0
100
AcDbCircle
10
5.7870859116939144
20
-25.905544108518296
30
0
40
0.99999999999999323
210
-0
220
0
230
1
100
AcDbArc
50
-52.042584082598147
51
7.9968254692014726
0
LINE
5
530
100
AcDbEntity
8
0
100
AcDbLine
10
6.7773616899423672
20
-25.766425874578935
30
0
11
6.4768166303168329
21
-23.627076600283537
31
0
0
ARC
5
531
100
AcDbEntity
8
0
100
AcDbCircle
10
7.4670924085652501
20
-23.487958366344188
30
0
40
1.000000000000002
210
0
220
0
230
1
100
AcDbArc
50
97.996825469201639
51
187.99682546920101
0
LINE
5
532
100
AcDbEntity
8
0
100
AcDbLine
10
7.3279741746258864
20
-22.497682588095724
30
0
11
13.269437587506552
21
-21.66300005301721
31
0
0
ARC
5
533
100
AcDbEntity
8
0
100
AcDbCircle
10
13.408555821445916
20
-22.65327583126567
30
0
40
0.99999999999999434
210
0
220
-0
230
1
100
AcDbArc
50
7.9968254692021112
51
97.996825469201724
0
LINE
5
534
100
AcDbEntity
8
0
100
AcDbLine
10
14.398831599694368
20
-22.5141575973263
30
0
11
14.677068067573131
21
-24.494709153823386
31
0
0
ARC
5
535
100
AcDbEntity
8
0
100
AcDbCircle
10
15.667343845821549
20
-24.35559091988403
30
0
40
0.9999999999999567
210
0
220
0
230
1
100
AcDbArc
50
187.99682546920155
51
277.99682546920405
0
LINE
5
536
100
AcDbEntity
8
0
100
AcDbLine
10
15.806462079760948
20
-25.345866698132443
30
0
11
29.554192959180199
21
-23.414525871033444
31
0
0
ARC
5
537
100
AcDbEntity
8
0
100
AcDbCircle
10
29.415074725240871
20
-22.424250092785005
30
0
40
0.99999999999997513
210
-0
220
0
230
1
100
AcDbArc
50
-82.003174530800194
51
7.9968254692024781
0
LINE
5
538
100
AcDbEntity
8
0
100
AcDbLine
10
30.405350503489323
20
-22.285131858845627
30
0
11
30.127114035610525
21
-20.304580302348683
31
0
0
ARC
5
539
100
AcDbEntity
8
0
100
AcDbCircle
10
31.117389813859013
20
-20.165462068409315
30
0
40
1.000000000000002
210
0
220
0
230
1
100
AcDbArc
50
97.996825469201639
51
187.99682546920161
0
LINE
5
540
100
AcDbEntity
8
0
100
AcDbLine
10
30.97827157991965
20
-19.175186290160852
30
0
11
36.919926249410437
21
-18.340476886524701
31
0
0
ARC
5
541
100
AcDbEntity
8
0
100
AcDbCircle
10
37.059044483349801
20
-19.330752664773158
30
0
40
0.99999999999999378
210
0
220
-0
230
1
100
AcDbArc
50
7.9968254692018839
51
97.996825469201724
0
ARC
5
542
100
AcDbEntity
8
0
100
AcDbCircle
10
-15.266161565722527
20
-26.260875884743239
30
0
40
1.0000000000000244
210
0
220
0
230
1
100
AcDbArc
50
171.99704093134272
51
230.45479896591067
0
ARC
5
543
100
AcDbEntity
8
0
100
AcDbCircle
10
-16.030185680374913
20
-27.186222928953995
30
0
40
0.19999999999993984
210
-0
220
0
230
1
100
AcDbArc
50
-8.0061345642440305
51
50.45479896592321
0
LINE
5
544
100
AcDbEntity
8
0
100
AcDbLine
10
-15.832135047968556
20
-27.21407875425891
30
0
11
-17.727032823476065
21
-40.686510415381811
31
0
0
ARC
5
545
100
AcDbEntity
8
0
100
AcDbCircle
10
-17.925083455882458
20
-40.6586545900769
30
0
40
0.19999999999997242
210
0
220
0
230
1
100
AcDbArc
50
261.993865435744
51
351.99386543575855
0
LINE
5
546
100
AcDbEntity
8
0
100
AcDbLine
10
-17.952939281187419
20
-40.856705222483285
30
0
11
-50.284777491111683
21
-36.309231548607308
31
0
0
ARC
5
547
100
AcDbEntity
8
0
100
AcDbCircle
10
-50.256921665806793
20
-36.111180916200809
30
0
40
0.20000000000007193
210
0
220
0
230
1
100
AcDbArc
50
171.99386543577879
51
261.99386543576867
0
LINE
5
548
100
AcDbEntity
8
0
100
AcDbLine
10
-50.454972298213292
20
-36.083325090895961
30
0
11
-48.560326556672742
21
-22.612685352502886
31
0
0
ARC
5
549
100
AcDbEntity
8
0
100
AcDbCircle
10
-48.362275924266349
20
-22.640541177807801
30
0
40
0.19999999999997869
210
0
220
0
230
1
100
AcDbArc
50
112.28427444327147
51
171.9938654357577
0
ARC
5
550
100
AcDbEntity
8
0
100
AcDbCircle
10
-48.817318575839295
20
-21.530164581670661
30
0
40
0.99999999999986988
210
-0
220
0
230
1
100
AcDbArc
50
292.28427444327423
51
351.99704093134602
0
LINE
5
551
100
AcDbEntity
8
0
100
AcDbLine
10
-47.827057696081603
20
-21.66938882532552
30
0
11
-47.525805605297506
21
-19.526671776791062
31
0
0
ARC
5
552
100
AcDbEntity
8
0
100
AcDbCircle
10
-46.535544725539673
20
-19.665896020446002
30
0
40
1.0000000000000011
210
0
220
-0
230
1
100
AcDbArc
50
81.997040931342895
51
171.99704093134261
0
LINE
5
553
100
AcDbEntity
8
0
100
AcDbLine
10
-46.396320481884743
20
-18.675635140688193
30
0
11
-40.454755203337882
21
-19.510980602617849
31
0
0
ARC
5
554
100
AcDbEntity
8
0
100
AcDbCircle
10
-40.593979446992812
20
-20.501241482375647
30
0
40
0.99999999999998923
210
-0
220
0
230
1
100
AcDbArc
50
-8.0029590686575727
51
81.997040931342838
0
LINE
5
555
100
AcDbEntity
8
0
100
AcDbLine
10
-39.603718567235013
20
-20.640465726030584
30
0
11
-39.882167054544908
21
-22.620987485546237
31
0
0
ARC
5
556
100
AcDbEntity
8
0
100
AcDbCircle
10
-38.89190617478711
20
-22.76021172920116
30
0
40
0.99999999999998734
210
0
220
0
230
1
100
AcDbArc
50
171.99704093134324
51
261.99704093134284
0
LINE
5
557
100
AcDbEntity
8
0
100
AcDbLine
10
-39.031130418442039
20
-23.750472608958958
30
0
11
-25.283310936227537
21
-25.683326676448832
31
0
0
ARC
5
558
100
AcDbEntity
8
0
100
AcDbCircle
10
-25.144086692572607
20
-24.693065796691037
30
0
40
0.99999999999998357
210
0
220
0
230
1
100
AcDbArc
50
261.99704093134278
51
351.99704093134278
0
LINE
5
559
100
AcDbEntity
8
0
100
AcDbLine
10
-24.153825812814809
20
-24.832290040345967
30
0
11
-23.87537732550495
21
-22.851768280830317
31
0
0
ARC
5
560
100
AcDbEntity
8
0
100
AcDbCircle
10
-22.885116445747151
20
-22.990992524485261
30
0
40
1.0000000000000011
210
0
220
-0
230
1
100
AcDbArc
50
81.997040931342923
51
171.99704093134213
0
LINE
5
561
100
AcDbEntity
8
0
100
AcDbLine
10
-22.745892202092222
20
-22.000731644727448
30
0
11
-16.804326923545361
21
-22.83607710665709
31
0
0
ARC
5
562
100
AcDbEntity
8
0
100
AcDbCircle
10
-16.94355116720029
20
-23.826337986414899
30
0
40
0.99999999999998979
210
-0
220
0
230
1
100
AcDbArc
50
-8.0029590686579279
51
81.997040931343008
0
LINE
5
563
100
AcDbEntity
8
0
100
AcDbLine
10
-15.953290287442492
20
-23.965562230069843
30
0
11
-16.256422445480361
21
-26.121651641088302
31
0
0
ENDSEC
0
SECTION
2
OBJECTS
0
DICTIONARY
5
C
100
AcDbDictionary
3
ACAD_GROUP
350
D
3
ACAD_MLINESTYLE
350
17
0
DICTIONARY
5
D
100
AcDbDictionary
0
DICTIONARY
5
1A
330
C
100
AcDbDictionary
0
DICTIONARY
5
17
100
AcDbDictionary
0
ENDSEC
0
EOF
