0
SECTION
2
HEADER
9
$INSUNITS
70
4
9
$ACADVER
1
AC1014
9
$HANDSEED
5
FFFF
0
ENDSEC
0
SECTION
2
TABLES
0
TABLE
2
VPORT
5
8
100
AcDbSymbolTable
0
ENDTAB
0
TABLE
2
LTYPE
5
5
100
AcDbSymbolTable
0
LTYPE
5
14
100
AcDbSymbolTableRecord
100
AcDbLinetypeTableRecord
2
BYBLOCK
70
0
0
LTYPE
5
15
100
AcDbSymbolTableRecord
100
AcDbLinetypeTableRecord
2
BYLAYER
70
0
0
ENDTAB
0
TABLE
2
LAYER
5
2
100
AcDbSymbolTable
70
2
0
LAYER
5
50
100
AcDbSymbolTableRecord
100
AcDbLayerTableRecord
2
0
70
0
6
CONTINUOUS
0
ENDTAB
0
TABLE
2
STYLE
5
3
100
AcDbSymbolTable
70
1
0
STYLE
5
11
100
AcDbSymbolTableRecord
100
AcDbTextStyleTableRecord
2
STANDARD
70
0
0
ENDTAB
0
TABLE
2
VIEW
5
6
100
AcDbSymbolTable
70
0
0
ENDTAB
0
TABLE
2
UCS
5
7
100
AcDbSymbolTable
70
0
0
ENDTAB
0
TABLE
2
APPID
5
9
100
AcDbSymbolTable
70
2
0
APPID
5
12
100
AcDbSymbolTableRecord
100
AcDbRegAppTableRecord
2
ACAD
70
0
0
ENDTAB
0
TABLE
2
DIMSTYLE
5
A
100
AcDbSymbolTable
70
1
0
ENDTAB
0
TABLE
2
BLOCK_RECORD
5
1
100
AcDbSymbolTable
70
1
0
BLOCK_RECORD
5
1F
100
AcDbSymbolTableRecord
100
AcDbBlockTableRecord
2
*MODEL_SPACE
0
BLOCK_RECORD
5
1B
100
AcDbSymbolTableRecord
100
AcDbBlockTableRecord
2
*PAPER_SPACE
0
ENDTAB
0
ENDSEC
0
SECTION
2
BLOCKS
0
BLOCK
5
20
100
AcDbEntity
100
AcDbBlockBegin
2
*MODEL_SPACE
0
ENDBLK
5
21
100
AcDbEntity
100
AcDbBlockEnd
0
BLOCK
5
1C
100
AcDbEntity
100
AcDbBlockBegin
2
*PAPER_SPACE
0
ENDBLK
5
1D
100
AcDbEntity
100
AcDbBlockEnd
0
ENDSEC
0
SECTION
2
ENTITIES
0
LINE
5
100
100
AcDbEntity
8
0
100
AcDbLine
10
-71.805787342455645
20
-7.0000003886691076
30
0
11
-71.805787342455702
21
-51.624722224177759
31
0
0
ARC
5
101
100
AcDbEntity
8
0
100
AcDbCircle
10
-66.305787342455716
20
-51.624722224177759
30
0
40
5.4999999999999893
210
0
220
0
230
1
100
AcDbArc
50
180
51
269.99999983224677
0
LINE
5
102
100
AcDbEntity
8
0
100
AcDbLine
10
-66.30578735855886
20
-57.124722224177745
30
0
11
-51.703060039770712
21
-57.124722021365798
31
0
0
ARC
5
103
100
AcDbEntity
8
0
100
AcDbCircle
10
-51.703060081436675
20
-54.124722021365756
30
0
40
3.0000000000000431
210
-0
220
0
230
1
100
AcDbArc
50
270.00000079576114
51
360
0
LINE
5
104
100
AcDbEntity
8
0
100
AcDbLine
10
-48.703060081436632
20
-54.124722021365784
30
0
11
-48.703060081436647
21
-45.120525474840903
31
0
0
ARC
5
105
100
AcDbEntity
8
0
100
AcDbCircle
10
-45.703060081436639
20
-45.120525474840903
30
0
40
3.0000000000000071
210
-0
220
0
230
1
100
AcDbArc
50
90
51
180
0
LINE
5
106
100
AcDbEntity
8
0
100
AcDbLine
10
-45.703060081436639
20
-42.120525474840903
30
0
11
-40.763060051634312
21
-42.120525474840903
31
0
0
ARC
5
107
100
AcDbEntity
8
0
100
AcDbCircle
10
-40.763060051634312
20
-45.120525474840903
30
0
40
2.9999999999999982
210
0
220
-0
230
1
100
AcDbArc
50
0
51
90
0
LINE
5
108
100
AcDbEntity
8
0
100
AcDbLine
10
-37.763060051634312
20
-45.120525474840903
30
0
11
-37.763060051634312
21
-54.124721786092266
31
0
0
ARC
5
109
100
AcDbEntity
8
0
100
AcDbCircle
10
-34.763060051634291
20
-54.124721786092223
30
0
40
3.0000000000000249
210
0
220
0
230
1
100
AcDbArc
50
180
51
270.00000079575995
0
LINE
5
110
100
AcDbEntity
8
0
100
AcDbLine
10
-34.763060009968399
20
-57.124721786092252
30
0
11
-4.6314503839754639
21
-57.124721367605247
31
0
0
ARC
5
111
100
AcDbEntity
8
0
100
AcDbCircle
10
-4.6314504155107272
20
-59.124721367605218
30
0
40
1.9999999999999853
210
-0
220
0
230
1
100
AcDbArc
50
-1.7075472925031877e-06
51
89.999999096581249
0
ARC
5
112
100
AcDbEntity
8
0
100
AcDbCircle
10
-0.63145041551074144
20
-59.124721446839601
30
0
40
2.0000000000000018
210
0
220
0
230
1
100
AcDbArc
50
180
51
270
0
LINE
5
113
100
AcDbEntity
8
0
100
AcDbLine
10
-0.63145041551074144
20
-61.124721446839615
30
0
11
5.3685495844892728
21
-61.124721446839594
31
0
0
ARC
5
114
100
AcDbEntity
8
0
100
AcDbCircle
10
5.3685495844892372
20
-59.124721446839587
30
0
40
2.0000000000000107
210
-0
220
0
230
1
100
AcDbArc
50
-89.999999999998991
51
0
0
ARC
5
115
100
AcDbEntity
8
0
100
AcDbCircle
10
9.3685495844892408
20
-59.124721526073927
30
0
40
1.9999999999999754
210
0
220
-0
230
1
100
AcDbArc
50
89.999999351457419
51
179.9999973001307
0
LINE
5
116
100
AcDbEntity
8
0
100
AcDbLine
10
9.3685496071276475
20
-57.124721526073955
30
0
11
43.216859933464562
21
-57.124721909209555
31
0
0
LINE
5
117
100
AcDbEntity
8
0
100
AcDbLine
10
43.216859933464562
20
-57.124721909209555
30
0
11
43.546859918563392
21
-57.124721909209555
31
0
0
ARC
5
118
100
AcDbEntity
8
0
100
AcDbCircle
10
43.546859918563356
20
-54.124721909209512
30
0
40
3.0000000000000426
210
-0
220
0
230
1
100
AcDbArc
50
270.00000000000068
51
360
0
LINE
5
119
100
AcDbEntity
8
0
100
AcDbLine
10
46.546859918563399
20
-54.124721909209548
30
0
11
46.546859918563399
21
-39.12052547484091
31
0
0
ARC
5
120
100
AcDbEntity
8
0
100
AcDbCircle
10
49.546859918563406
20
-39.12052547484091
30
0
40
3.0000000000000071
210
-0
220
0
230
1
100
AcDbArc
50
90
51
180
0
LINE
5
121
100
AcDbEntity
8
0
100
AcDbLine
10
49.546859918563406
20
-36.120525474840903
30
0
11
54.486859948365719
21
-36.120525474840903
31
0
0
ARC
5
122
100
AcDbEntity
8
0
100
AcDbCircle
10
54.486859948365719
20
-39.12052547484091
30
0
40
3.0000000000000071
210
0
220
-0
230
1
100
AcDbArc
50
0
51
90
0
LINE
5
123
100
AcDbEntity
8
0
100
AcDbLine
10
57.486859948365719
20
-39.12052547484091
30
0
11
57.486859948365719
21
-54.124721909209548
31
0
0
ARC
5
124
100
AcDbEntity
8
0
100
AcDbCircle
10
60.486859948365762
20
-54.124721909209512
30
0
40
3.0000000000000426
210
0
220
0
230
1
100
AcDbArc
50
180
51
269.99999999999943
0
LINE
5
125
100
AcDbEntity
8
0
100
AcDbLine
10
60.486859948365733
20
-57.124721909209555
30
0
11
70.042886511434233
21
-57.124721909209555
31
0
0
ARC
5
126
100
AcDbEntity
8
0
100
AcDbCircle
10
70.04288651143419
20
-56.124721909209555
30
0
40
0.99999999999999645
210
-0
220
0
230
1
100
AcDbArc
50
270.00000000000244
51
359.99998196940015
0
LINE
5
127
100
AcDbEntity
8
0
100
AcDbLine
10
71.042886511434133
20
-56.124722224177752
30
0
11
71.042886511434205
21
-53.865848906464691
31
0
0
ELLIPSE
5
128
100
AcDbEntity
8
0
100
AcDbEllipse
10
67.956668779944209
20
-53.584226806031481
30
0
11
3.0408601271864684
21
-0.66255078752837748
31
0.0
40
0.80046733568153583
41
0.15388622258753598
42
0.17267117829554032
0
LINE
5
129
100
AcDbEntity
8
0
100
AcDbLine
10
71.04343111534719
20
-53.818709973829812
30
0
11
71.04343111534719
21
-30.785241113453878
31
0
0
SPLINE
5
130
100
AcDbEntity
8
0
100
AcDbSpline
70
0
71
3
72
8
73
4
74
0
42
0.000000001
43
0.0000000001
44
0.0000000001
40
1
40
1
40
1
40
1
40
2
40
2
40
2
40
2
10
71.04343111534719
20
-30.785241113453878
30
0
10
71.04343111534719
20
-29.682408522045804
30
0
10
70.150709630456362
20
-28.787699120464261
30
0
10
69.04787976725332
20
-28.785246061584822
30
0
0
LINE
5
131
100
AcDbEntity
8
0
100
AcDbLine
10
69.04787976725332
20
-28.785246061584839
30
0
11
63.513982465823545
21
-28.772936841126793
31
0
0
SPLINE
5
132
100
AcDbEntity
8
0
100
AcDbSpline
70
0
71
3
72
8
73
4
74
0
42
0.000000001
43
0.0000000001
44
0.0000000001
40
3
40
3
40
3
40
3
40
4
40
4
40
4
40
4
10
63.513982465823545
20
-28.772936841126793
30
0
10
62.411152602619268
20
-28.770483782247318
30
0
10
61.518431117728355
20
-27.87577438066581
30
0
10
61.518431117728355
20
-26.7729417892577
30
0
0
LINE
5
133
100
AcDbEntity
8
0
100
AcDbLine
10
61.518431117728355
20
-26.772941789257683
30
0
11
61.518431117728355
21
-11.718498078252217
31
0
0
SPLINE
5
134
100
AcDbEntity
8
0
100
AcDbSpline
70
0
71
3
72
8
73
4
74
0
42
0.000000001
43
0.0000000001
44
0.0000000001
40
5
40
5
40
5
40
5
40
6
40
6
40
6
40
6
10
61.518431117728355
20
-11.718498078252217
30
0
10
61.518431117728355
20
-10.61392857886684
30
0
10
62.413861617843281
20
-9.7184980787526243
30
0
10
63.518431117227991
20
-9.7184980787526243
30
0
0
LINE
5
135
100
AcDbEntity
8
0
100
AcDbLine
10
63.518431117227991
20
-9.7184980787526243
30
0
11
64.280931117038222
21
-9.7184980787526243
31
0
0
SPLINE
5
136
100
AcDbEntity
8
0
100
AcDbSpline
70
0
71
3
72
8
73
4
74
0
42
0.000000001
43
0.0000000001
44
0.0000000001
40
7
40
7
40
7
40
7
40
8
40
8
40
8
40
8
10
64.280931117038222
20
-9.7184980787526243
30
0
10
65.385500616424167
20
-9.7184980787526243
30
0
10
66.280931116537744
20
-8.8230675786384083
30
0
10
66.280931116537744
20
-7.7184980792527469
30
0
0
LINE
5
137
100
AcDbEntity
8
0
100
AcDbLine
10
66.280931116537744
20
-7.7184980792527469
30
0
11
66.280931116537744
21
7.3424553594722752
31
0
0
SPLINE
5
138
100
AcDbEntity
8
0
100
AcDbSpline
70
0
71
3
72
8
73
4
74
0
42
0.000000001
43
0.0000000001
44
0.0000000001
40
9
40
9
40
9
40
9
40
10
40
10
40
10
40
10
10
66.280931116537744
20
7.3424553594722752
30
0
10
66.280931116537744
20
8.4427379737433128
30
0
10
67.169681657075756
20
9.336382757654853
30
0
10
68.269947679527604
20
9.3424251997753416
30
0
0
LINE
5
139
100
AcDbEntity
8
0
100
AcDbLine
10
68.269947679527604
20
9.3424251997753505
30
0
11
73.816770779465855
21
9.3728872488159354
31
0
0
SPLINE
5
140
100
AcDbEntity
8
0
100
AcDbSpline
70
0
71
3
72
8
73
4
74
0
42
0.000000001
43
0.0000000001
44
0.0000000001
40
11
40
11
40
11
40
11
40
12
40
12
40
12
40
12
10
73.816770779465855
20
9.3728872488159354
30
0
10
74.917036801917817
20
9.378929690936566
30
0
10
75.805787342455716
20
10.272574474847929
30
0
10
75.805787342455716
20
11.372857089119037
30
0
0
LINE
5
141
100
AcDbEntity
8
0
100
AcDbLine
10
75.805787342455716
20
11.372857089119046
30
0
11
75.805787342455716
21
53.423337837874421
31
0
0
LINE
5
142
100
AcDbEntity
8
0
100
AcDbLine
10
75.805787342455716
20
53.423337837874421
30
0
11
75.805787296951465
21
53.423769116331094
31
0
0
ELLIPSE
5
143
100
AcDbEntity
8
0
100
AcDbEllipse
10
72.714407740096775
20
53.188621115918394
30
0
11
3.0457586267610863
21
0.66149146166478501
31
0.0
40
0.79990975657779806
41
6.1113457139741199
42
6.1273066453259801
0
LINE
5
144
100
AcDbEntity
8
0
100
AcDbLine
10
75.805385073213429
20
53.463856240131314
30
0
11
75.805388934602774
21
56.124721169038921
31
0
0
ARC
5
145
100
AcDbEntity
8
0
100
AcDbCircle
10
74.805388934602774
20
56.124721446839601
30
0
40
1.0000000000000351
210
-0
220
0
230
1
100
AcDbArc
50
-1.5904040845635927e-05
51
90
0
LINE
5
146
100
AcDbEntity
8
0
100
AcDbLine
10
74.805388934602774
20
57.124721446839644
30
0
11
57.8053858124035
21
57.124721446839608
31
0
0
ARC
5
147
100
AcDbEntity
8
0
100
AcDbCircle
10
57.8053858124035
20
59.124721446839594
30
0
40
1.9999999999999929
210
0
220
0
230
1
100
AcDbArc
50
180
51
270
0
ARC
5
148
100
AcDbEntity
8
0
100
AcDbCircle
10
53.8053858124035
20
59.124721446839587
30
0
40
2.0000000000000107
210
0
220
-0
230
1
100
AcDbArc
50
0
51
89.999999999999588
0
LINE
5
149
100
AcDbEntity
8
0
100
AcDbLine
10
53.805385812403514
20
61.124721446839594
30
0
11
47.8053858124035
21
61.124721446839615
31
0
0
ARC
5
150
100
AcDbEntity
8
0
100
AcDbCircle
10
47.8053858124035
20
59.124721446839601
30
0
40
2.0000000000000107
210
-0
220
0
230
1
100
AcDbArc
50
90
51
180
0
ARC
5
151
100
AcDbEntity
8
0
100
AcDbCircle
10
43.805385812403514
20
59.124721446839601
30
0
40
2.0000000000000018
210
-0
220
0
230
1
100
AcDbArc
50
-90
51
0
0
LINE
5
152
100
AcDbEntity
8
0
100
AcDbLine
10
43.805385812403514
20
57.124721446839601
30
0
11
-66.305787342455744
21
57.124721446839587
31
0
0
ARC
5
153
100
AcDbEntity
8
0
100
AcDbCircle
10
-66.305787342455716
20
51.624721446839587
30
0
40
5.5000000000000071
210
0
220
0
230
1
100
AcDbArc
50
90.000000000000313
51
180
0
LINE
5
154
100
AcDbEntity
8
0
100
AcDbLine
10
-71.805787342455716
20
51.624721446839587
30
0
11
-71.805787342455702
21
6.9999996113309138
31
0
0
ARC
5
155
100
AcDbEntity
8
0
100
AcDbCircle
10
-73.805787342455716
20
6.9999996113309138
30
0
40
2.0000000000000018
210
-0
220
0
230
1
100
AcDbArc
50
-89.999999999998778
51
0
0
ARC
5
156
100
AcDbEntity
8
0
100
AcDbCircle
10
-73.805787342455687
20
2.9999996113309013
30
0
40
2.0000000000000107
210
0
220
-0
230
1
100
AcDbArc
50
89.999999999999588
51
180
0
LINE
5
157
100
AcDbEntity
8
0
100
AcDbLine
10
-75.805787342455702
20
2.9999996113309102
30
0
11
-75.805787342455687
21
-3.0000003886690862
31
0
0
ARC
5
158
100
AcDbEntity
8
0
100
AcDbCircle
10
-73.805787342455702
20
-3.0000003886690774
30
0
40
1.9999999999999929
210
0
220
0
230
1
100
AcDbArc
50
180
51
270.0000000000008
0
ARC
5
159
100
AcDbEntity
8
0
100
AcDbCircle
10
-73.805787342455716
20
-7.0000003886691164
30
0
40
2.0000000000000728
210
0
220
-0
230
1
100
AcDbArc
50
0
51
89.99999999999838
0
SPLINE
5
160
100
AcDbEntity
8
0
100
AcDbSpline
70
0
71
3
72
43
73
39
74
0
42
0.000000001
43
0.0000000001
44
0.0000000001
40
0.079886210074209069
40
0.079886210074209069
40
0.079886210074209069
40
0.079886210074209069
40
0.080294443692930165
40
0.080294443692930165
40
0.12042692691899223
40
0.12042692691899223
40
0.16061406207843887
40
0.16061406207843887
40
0.20237852567918929
40
0.20237852567918929
40
0.24526915463667126
40
0.24526915463667126
40
0.28753802177238841
40
0.28753802177238841
40
0.32972734049221242
40
0.32972734049221242
40
0.37357826046140302
40
0.37357826046140302
40
0.41861027861090894
40
0.41861027861090894
40
0.46297088638451994
40
0.46297088638451994
40
0.50711080032489453
40
0.50711080032489453
40
0.55299208891666385
40
0.55299208891666385
40
0.60011128269034042
40
0.60011128269034042
40
0.64204093757680947
40
0.64204093757680947
40
0.663684080710223
40
0.663684080710223
40
0.68524910749794998
40
0.68524910749794998
40
0.68524910749794998
40
0.7248559922845923
40
0.7248559922845923
40
0.76513531757215902
40
0.76513531757215902
40
0.76513531757215902
40
0.76513531757215902
10
68.043431116071929
20
-51.796423759572136
30
0
10
68.043431116144916
20
-51.797751026359308
30
0
10
68.043428548153756
20
-51.799078405865515
30
0
10
68.042918147455481
20
-51.930907880492526
30
0
10
68.017581232474257
20
-52.058219840603797
30
0
10
67.919889696592776
20
-52.296230838077662
30
0
10
67.848637610662408
20
-52.403898029986884
30
0
10
67.66792674153578
20
-52.589308108359738
30
0
10
67.558586610817756
20
-52.664185197020856
30
0
10
67.315868956403136
20
-52.76838802983935
30
0
10
67.185155471816273
20
-52.795174238471517
30
0
10
66.922369430465835
20
-52.797570363390562
30
0
10
66.794212246017509
20
-52.773886080080494
30
0
10
66.554762484931899
20
-52.679128767391461
30
0
10
66.446290807654393
20
-52.609312976825073
30
0
10
66.258703156142758
20
-52.43111729279326
30
0
10
66.182455762372939
20
-52.322815169552506
30
0
10
66.075134707378879
20
-52.081655292353162
30
0
10
66.046610166225918
20
-51.951371319797047
30
0
10
66.040798251400474
20
-51.688884967639375
30
0
10
66.062817374130645
20
-51.559843250856936
30
0
10
66.154609223145542
20
-51.31899470169639
30
0
10
66.222978449374367
20
-51.20973180908905
30
0
10
66.398630578224029
20
-51.019996347008814
30
0
10
66.505872605960121
20
-50.942394245079505
30
0
10
66.745434818903377
20
-50.831970711827523
30
0
10
66.875272361576918
20
-50.801709933994132
30
0
10
67.124902990142488
20
-50.792918180895242
30
0
10
67.255910953539853
20
-50.808639313395233
30
0
10
67.457551215498498
20
-50.882564188960004
30
0
10
67.522722086927701
20
-50.91505857600378
30
0
10
67.643976316889649
20
-50.992801214611205
30
0
10
67.700152815554787
20
-51.038043549178113
30
0
10
67.7509820711483
20
-51.088872804771732
30
0
10
67.844336393862562
20
-51.1822271274862
30
0
10
67.917826307808724
20
-51.292584213957682
30
0
10
68.018388819480833
20
-51.535605339468574
30
0
10
68.043430691971537
20
-51.665465876110574
30
0
10
68.043431116071972
20
-51.796423759572185
30
0
0
SPLINE
5
161
100
AcDbEntity
8
0
100
AcDbSpline
70
0
71
3
72
43
73
39
74
0
42
0.000000001
43
0.0000000001
44
0.0000000001
40
0.079886210074156833
40
0.079886210074156833
40
0.079886210074156833
40
0.079886210074156833
40
0.080294443692797507
40
0.080294443692797507
40
0.12042692691883988
40
0.12042692691883988
40
0.1606140620782022
40
0.1606140620782022
40
0.2023785256788258
40
0.2023785256788258
40
0.24526915463617166
40
0.24526915463617166
40
0.28753802177177157
40
0.28753802177177157
40
0.32972734049136565
40
0.32972734049136565
40
0.37357826046025505
40
0.37357826046025505
40
0.41861027860939404
40
0.41861027860939404
40
0.46297088638258355
40
0.46297088638258355
40
0.50711080032247069
40
0.50711080032247069
40
0.55299208891363261
40
0.55299208891363261
40
0.60011128268660141
40
0.60011128268660141
40
0.64204093757274394
40
0.64204093757274394
40
0.66368408070611729
40
0.66368408070611729
40
0.68524910749377077
40
0.68524910749377077
40
0.68524910749377077
40
0.72485599228035302
40
0.72485599228035302
40
0.76513531756792763
40
0.76513531756792763
40
0.76513531756792763
40
0.76513531756792763
10
72.805931114881901
20
51.430665747136032
30
0
10
72.805931114954888
20
51.429338480349074
30
0
10
72.805928546963742
20
51.428011100843136
30
0
10
72.805418146265566
20
51.296181626216438
30
0
10
72.780081231284456
20
51.168869666105039
30
0
10
72.682389695403131
20
50.930858668631075
30
0
10
72.611137609472877
20
50.823191476721846
30
0
10
72.430426740346462
20
50.637781398348956
30
0
10
72.32108660962848
20
50.562904309687717
30
0
10
72.078368955213762
20
50.458701476868967
30
0
10
71.947655470626785
20
50.431915268236679
30
0
10
71.684869429275977
20
50.429519143317378
30
0
10
71.556712244827793
20
50.453203426627347
30
0
10
71.317262483742269
20
50.547960739316323
30
0
10
71.208790806464819
20
50.617776529882519
30
0
10
71.021203154953042
20
50.795972213914389
30
0
10
70.944955761183138
20
50.904274337155172
30
0
10
70.837634706189021
20
51.145434214354509
30
0
10
70.809110165035932
20
51.27571818691063
30
0
10
70.803298250210403
20
51.538204539068445
30
0
10
70.825317372940546
20
51.667246255850863
30
0
10
70.917109221955371
20
51.908094805011359
30
0
10
70.985478448184011
20
52.017357697618692
30
0
10
71.161130577033788
20
52.207093159699163
30
0
10
71.26837260476988
20
52.284695261628507
30
0
10
71.50793481771295
20
52.395118794880489
30
0
10
71.63777236038635
20
52.425379572713915
30
0
10
71.887402988952658
20
52.434171325812827
30
0
10
72.018410952349996
20
52.418450193312509
30
0
10
72.220051214307759
20
52.344525317748264
30
0
10
72.285222085736962
20
52.312030930704587
30
0
10
72.406476315699308
20
52.234288292097048
30
0
10
72.46265281436456
20
52.189045957530041
30
0
10
72.513482069957931
20
52.138216701936614
30
0
10
72.606836392672108
20
52.044862379222351
30
0
10
72.680326306618383
20
51.93450529275097
30
0
10
72.780888818290776
20
51.691484167239864
30
0
10
72.805930690781508
20
51.561623630597623
30
0
10
72.805931114881858
20
51.43066574713604
30
0
0
CIRCLE
5
162
100
AcDbEntity
8
0
100
AcDbCircle
10
-28.965732066535523
20
7.3012985102578298
30
0
40
2.0000000000000018
210
0
220
0
230
1
0
CIRCLE
5
163
100
AcDbEntity
8
0
100
AcDbCircle
10
-73.805787342455687
20
-3.8866908802503985e-07
30
0
40
0.99999999999999645
210
0
220
0
230
1
0
CIRCLE
5
164
100
AcDbEntity
8
0
100
AcDbCircle
10
50.805385812403507
20
59.487557118211789
30
0
40
0.99999999999999645
210
0
220
0
230
1
0
CIRCLE
5
165
100
AcDbEntity
8
0
100
AcDbCircle
10
-40.805787346753448
20
-37.12472187001751
30
0
40
1.0000000000000053
210
0
220
0
230
1
0
CIRCLE
5
166
100
AcDbEntity
8
0
100
AcDbCircle
10
36.51843106705627
20
-7.1247220702740321
30
0
40
0.99999999999999645
210
0
220
0
230
1
0
CIRCLE
5
167
100
AcDbEntity
8
0
100
AcDbCircle
10
-40.805787393127787
20
-7.1247218700175097
30
0
40
0.99999999999999645
210
0
220
0
230
1
0
CIRCLE
5
168
100
AcDbEntity
8
0
100
AcDbCircle
10
36.518431113430609
20
-37.124722070274032
30
0
40
0.99999999999999645
210
0
220
0
230
1
0
CIRCLE
5
169
100
AcDbEntity
8
0
100
AcDbCircle
10
2.3685495844892657
20
-58.638523930771896
30
0
40
1.0000000000000142
210
0
220
0
230
1
0
ENDSEC
0
SECTION
2
OBJECTS
0
DICTIONARY
5
C
100
AcDbDictionary
3
ACAD_GROUP
350
D
3
ACAD_MLINESTYLE
350
17
0
DICTIONARY
5
D
100
AcDbDictionary
0
DICTIONARY
5
1A
330
C
100
AcDbDictionary
0
DICTIONARY
5
17
100
AcDbDictionary
0
ENDSEC
0
EOF
