0
SECTION
2
HEADER
9
$INSUNITS
70
4
9
$ACADVER
1
AC1014
9
$HANDSEED
5
FFFF
0
ENDSEC
0
SECTION
2
TABLES
0
TABLE
2
VPORT
5
8
100
AcDbSymbolTable
0
ENDTAB
0
TABLE
2
LTYPE
5
5
100
AcDbSymbolTable
0
LTYPE
5
14
100
AcDbSymbolTableRecord
100
AcDbLinetypeTableRecord
2
BYBLOCK
70
0
0
LTYPE
5
15
100
AcDbSymbolTableRecord
100
AcDbLinetypeTableRecord
2
BYLAYER
70
0
0
ENDTAB
0
TABLE
2
LAYER
5
2
100
AcDbSymbolTable
70
2
0
LAYER
5
50
100
AcDbSymbolTableRecord
100
AcDbLayerTableRecord
2
0
70
0
6
CONTINUOUS
0
ENDTAB
0
TABLE
2
STYLE
5
3
100
AcDbSymbolTable
70
1
0
STYLE
5
11
100
AcDbSymbolTableRecord
100
AcDbTextStyleTableRecord
2
STANDARD
70
0
0
ENDTAB
0
TABLE
2
VIEW
5
6
100
AcDbSymbolTable
70
0
0
ENDTAB
0
TABLE
2
UCS
5
7
100
AcDbSymbolTable
70
0
0
ENDTAB
0
TABLE
2
APPID
5
9
100
AcDbSymbolTable
70
2
0
APPID
5
12
100
AcDbSymbolTableRecord
100
AcDbRegAppTableRecord
2
ACAD
70
0
0
ENDTAB
0
TABLE
2
DIMSTYLE
5
A
100
AcDbSymbolTable
70
1
0
ENDTAB
0
TABLE
2
BLOCK_RECORD
5
1
100
AcDbSymbolTable
70
1
0
BLOCK_RECORD
5
1F
100
AcDbSymbolTableRecord
100
AcDbBlockTableRecord
2
*MODEL_SPACE
0
BLOCK_RECORD
5
1B
100
AcDbSymbolTableRecord
100
AcDbBlockTableRecord
2
*PAPER_SPACE
0
ENDTAB
0
ENDSEC
0
SECTION
2
BLOCKS
0
BLOCK
5
20
100
AcDbEntity
100
AcDbBlockBegin
2
*MODEL_SPACE
0
ENDBLK
5
21
100
AcDbEntity
100
AcDbBlockEnd
0
BLOCK
5
1C
100
AcDbEntity
100
AcDbBlockBegin
2
*PAPER_SPACE
0
ENDBLK
5
1D
100
AcDbEntity
100
AcDbBlockEnd
0
ENDSEC
0
SECTION
2
ENTITIES
0
CIRCLE
5
100
100
AcDbEntity
8
0
100
AcDbCircle
10
-11.585655222559552
20
-59.124810661471905
30
0
40
1.0000000000000142
210
0
220
0
230
1
0
CIRCLE
5
101
100
AcDbEntity
8
0
100
AcDbCircle
10
52.616595585890238
20
-7.1248131325041442
30
0
40
0.99999999999997868
210
0
220
0
230
1
0
CIRCLE
5
102
100
AcDbEntity
8
0
100
AcDbCircle
10
-42.329095644432222
20
-37.124811578097606
30
0
40
1.0000000000000142
210
0
220
0
230
1
0
CIRCLE
5
103
100
AcDbEntity
8
0
100
AcDbCircle
10
52.616595632264591
20
-37.124813132504144
30
0
40
1.0000000000000142
210
0
220
0
230
1
0
CIRCLE
5
104
100
AcDbEntity
8
0
100
AcDbCircle
10
-42.32909569080654
20
-7.1248115780976029
30
0
40
0.99999999999997868
210
0
220
0
230
1
0
CIRCLE
5
105
100
AcDbEntity
8
0
100
AcDbCircle
10
-48.32936750025155
20
59.124810661471876
30
0
40
1.0000000000000142
210
0
220
0
230
1
0
CIRCLE
5
106
100
AcDbEntity
8
0
100
AcDbCircle
10
85.616595636562423
20
-1.1125206977879998e-06
30
0
40
1.0000000000000142
210
0
220
0
230
1
0
CIRCLE
5
107
100
AcDbEntity
8
0
100
AcDbCircle
10
27.090126777440631
20
13.725977004049081
30
0
40
1.9999999999999929
210
0
220
0
230
1
0
LINE
5
108
100
AcDbEntity
8
0
100
AcDbLine
10
-87.61659563656255
20
-11.696488525154685
30
0
11
-87.61659563656255
21
-26.746373232763467
31
0
0
SPLINE
5
109
100
AcDbEntity
8
0
100
AcDbSpline
70
0
71
3
72
8
73
4
74
0
42
0.000000001
43
0.0000000001
44
0.0000000001
40
15
40
15
40
15
40
15
40
16
40
16
40
16
40
16
10
-87.61659563656255
20
-26.746373232763467
30
0
10
-87.61659563656255
20
-27.850942732148845
30
0
10
-86.721165136448377
20
-28.746373232263345
30
0
10
-85.616595637062403
20
-28.746373232263345
30
0
0
LINE
5
110
100
AcDbEntity
8
0
100
AcDbLine
10
-85.616595637062431
20
-28.746373232263345
30
0
11
-80.091595638444034
21
-28.746373232263345
31
0
0
SPLINE
5
111
100
AcDbEntity
8
0
100
AcDbSpline
70
0
71
3
72
8
73
4
74
0
42
0.000000001
43
0.0000000001
44
0.0000000001
40
17
40
17
40
17
40
17
40
18
40
18
40
18
40
18
10
-80.091595638444034
20
-28.746373232263345
30
0
10
-78.987026139058003
20
-28.746373232263345
30
0
10
-78.091595638943829
20
-29.64180373237788
30
0
10
-78.091595638943829
20
-30.746373231763222
30
0
0
LINE
5
112
100
AcDbEntity
8
0
100
AcDbLine
10
-78.091595638943829
20
-30.746373231763222
30
0
11
-78.091595638943758
21
-56.10238955426135
31
0
0
ARC
5
113
100
AcDbEntity
8
0
100
AcDbCircle
10
-77.091847073468145
20
-56.124812886513325
30
0
40
0.99999999999991451
210
0
220
0
230
1
100
AcDbArc
50
178.71513001064562
51
270.00000000000409
0
LINE
5
114
100
AcDbEntity
8
0
100
AcDbLine
10
-77.091847073468074
20
-57.124812886513254
30
0
11
-67.680571237460725
21
-57.124812886513254
31
0
0
ARC
5
115
100
AcDbEntity
8
0
100
AcDbCircle
10
-67.680571237460725
20
-54.124812886513226
30
0
40
3.0000000000000249
210
-0
220
0
230
1
100
AcDbArc
50
270
51
360
0
LINE
5
116
100
AcDbEntity
8
0
100
AcDbLine
10
-64.680571237460711
20
-54.124812886513247
30
0
11
-64.680571237460711
21
-39.244580981049708
31
0
0
ARC
5
117
100
AcDbEntity
8
0
100
AcDbCircle
10
-61.68057123746074
20
-39.244580981049708
30
0
40
3.0000000000000071
210
-0
220
0
230
1
100
AcDbArc
50
90
51
180
0
LINE
5
118
100
AcDbEntity
8
0
100
AcDbLine
10
-61.68057123746074
20
-36.244580981049701
30
0
11
-56.740571207658448
21
-36.244580981049701
31
0
0
ARC
5
119
100
AcDbEntity
8
0
100
AcDbCircle
10
-56.740571207658448
20
-39.244580981049708
30
0
40
3.0000000000000071
210
0
220
-0
230
1
100
AcDbArc
50
0
51
90
0
LINE
5
120
100
AcDbEntity
8
0
100
AcDbLine
10
-53.740571207658441
20
-39.244580981049708
30
0
11
-53.740571207658405
21
-54.124812886513247
31
0
0
ARC
5
121
100
AcDbEntity
8
0
100
AcDbCircle
10
-50.740571207658398
20
-54.124812886513212
30
0
40
3.0000000000000071
210
0
220
0
230
1
100
AcDbArc
50
180
51
269.99999999999932
0
LINE
5
122
100
AcDbEntity
8
0
100
AcDbLine
10
-50.740571207658434
20
-57.124812886513219
30
0
11
-18.585655333465212
21
-57.124812886513254
31
0
0
ARC
5
123
100
AcDbEntity
8
0
100
AcDbCircle
10
-18.585655222559545
20
-59.124811049641949
30
0
40
2.0000000000000568
210
0
220
-0
230
1
100
AcDbArc
50
9.6593461578058769e-06
51
90.000003177216271
0
ARC
5
124
100
AcDbEntity
8
0
100
AcDbCircle
10
-14.585655222559524
20
-59.124810661471905
30
0
40
1.9999999999999938
210
0
220
0
230
1
100
AcDbArc
50
180.00000120741828
51
269.99999999999284
0
LINE
5
125
100
AcDbEntity
8
0
100
AcDbLine
10
-14.585655222559772
20
-61.124810661471898
30
0
11
-8.5856552225595095
21
-61.124810661471884
31
0
0
ARC
5
126
100
AcDbEntity
8
0
100
AcDbCircle
10
-8.585655222559474
20
-59.124810661471926
30
0
40
1.9999999999999574
210
0
220
0
230
1
100
AcDbArc
50
269.99999999999898
51
359.99999829245274
0
ARC
5
127
100
AcDbEntity
8
0
100
AcDbCircle
10
-4.5856552225595237
20
-59.124810273301819
30
0
40
1.999999999999996
210
0
220
0
230
1
100
AcDbArc
50
90.000003177213301
51
180.00001306022546
0
LINE
5
128
100
AcDbEntity
8
0
100
AcDbLine
10
-4.5856553334651906
20
-57.124810273301833
30
0
11
27.569260762539365
21
-57.124812886513254
31
0
0
ARC
5
129
100
AcDbEntity
8
0
100
AcDbCircle
10
27.569260762539365
20
-54.124812886513226
30
0
40
3.0000000000000249
210
-0
220
0
230
1
100
AcDbArc
50
270
51
360
0
LINE
5
130
100
AcDbEntity
8
0
100
AcDbLine
10
30.569260762539372
20
-54.124812886513247
30
0
11
30.569260762539372
21
-45.244580981049708
31
0
0
ARC
5
131
100
AcDbEntity
8
0
100
AcDbCircle
10
33.569260762539344
20
-45.244580981049708
30
0
40
3.0000000000000071
210
-0
220
0
230
1
100
AcDbArc
50
90
51
180
0
LINE
5
132
100
AcDbEntity
8
0
100
AcDbLine
10
33.569260762539344
20
-42.244580981049694
30
0
11
38.509260792341635
21
-42.244580981049694
31
0
0
ARC
5
133
100
AcDbEntity
8
0
100
AcDbCircle
10
38.509260792341635
20
-45.244580981049708
30
0
40
3.0000000000000426
210
0
220
-0
230
1
100
AcDbArc
50
0
51
90
0
LINE
5
134
100
AcDbEntity
8
0
100
AcDbLine
10
41.509260792341678
20
-45.244580981049708
30
0
11
41.509260792341678
21
-54.124812886513247
31
0
0
ARC
5
135
100
AcDbEntity
8
0
100
AcDbCircle
10
44.509260792341685
20
-54.124812886513212
30
0
40
3.0000000000000071
210
0
220
0
230
1
100
AcDbArc
50
180
51
269.99999999999932
0
LINE
5
136
100
AcDbEntity
8
0
100
AcDbLine
10
44.509260792341649
20
-57.124812886513219
30
0
11
78.116595636562352
21
-57.124812886513254
31
0
0
ARC
5
137
100
AcDbEntity
8
0
100
AcDbCircle
10
78.116595636562209
20
-51.624812886513141
30
0
40
5.5000000000001137
210
-0
220
0
230
1
100
AcDbArc
50
270.00000000000148
51
360
0
LINE
5
138
100
AcDbEntity
8
0
100
AcDbLine
10
83.616595636562323
20
-51.624812886513247
30
0
11
83.616595636562394
21
-7.0000011125206907
31
0
0
ARC
5
139
100
AcDbEntity
8
0
100
AcDbCircle
10
85.61659563656228
20
-7.0000011125206285
30
0
40
1.9999999999999307
210
0
220
-0
230
1
100
AcDbArc
50
89.999999999997954
51
180
0
ARC
5
140
100
AcDbEntity
8
0
100
AcDbCircle
10
85.616595636562352
20
-3.0000011125206338
30
0
40
2.0000000000000639
210
-0
220
0
230
1
100
AcDbArc
50
270
51
360
0
LINE
5
141
100
AcDbEntity
8
0
100
AcDbLine
10
87.61659563656238
20
-3.0000011125206871
30
0
11
87.616595636562451
21
2.9999988874793093
31
0
0
ARC
5
142
100
AcDbEntity
8
0
100
AcDbCircle
10
85.616595636562423
20
2.9999988874793448
30
0
40
2.0000000000000284
210
-0
220
0
230
1
100
AcDbArc
50
0
51
89.999999999993889
0
ARC
5
143
100
AcDbEntity
8
0
100
AcDbCircle
10
85.616595636562352
20
6.9999988874793129
30
0
40
2.0000000000000284
210
0
220
0
230
1
100
AcDbArc
50
180
51
270.00000000000813
0
LINE
5
144
100
AcDbEntity
8
0
100
AcDbLine
10
83.616595636562323
20
6.9999988874792951
30
0
11
83.616595636562394
21
51.624810661471884
31
0
0
ARC
5
145
100
AcDbEntity
8
0
100
AcDbCircle
10
78.116595636562423
20
51.624810661471912
30
0
40
5.4999999999999716
210
-0
220
0
230
1
100
AcDbArc
50
0
51
90.000000000000739
0
LINE
5
146
100
AcDbEntity
8
0
100
AcDbLine
10
78.116595636562352
20
57.124810661471884
30
0
11
-41.329367500251557
21
57.124810661471898
31
0
0
ARC
5
147
100
AcDbEntity
8
0
100
AcDbCircle
10
-41.329367500251557
20
59.124810661471898
30
0
40
1.9999999999999929
210
0
220
0
230
1
100
AcDbArc
50
180
51
270
0
ARC
5
148
100
AcDbEntity
8
0
100
AcDbCircle
10
-45.329367500251578
20
59.124810661471876
30
0
40
2.0000000000000284
210
0
220
-0
230
1
100
AcDbArc
50
0
51
89.999999999998991
0
LINE
5
149
100
AcDbEntity
8
0
100
AcDbLine
10
-45.329367500251543
20
61.124810661471905
30
0
11
-51.329367500251557
21
61.124810661471898
31
0
0
ARC
5
150
100
AcDbEntity
8
0
100
AcDbCircle
10
-51.329367500251522
20
59.124810661471876
30
0
40
2.0000000000000195
210
0
220
0
230
1
100
AcDbArc
50
90.000000000001009
51
180
0
ARC
5
151
100
AcDbEntity
8
0
100
AcDbCircle
10
-55.329367500251543
20
59.124810661471898
30
0
40
2.0000000000000018
210
-0
220
0
230
1
100
AcDbArc
50
270
51
360
0
LINE
5
152
100
AcDbEntity
8
0
100
AcDbLine
10
-55.329367500251543
20
57.124810661471898
30
0
11
-72.329293447397845
21
57.124810661471898
31
0
0
ARC
5
153
100
AcDbEntity
8
0
100
AcDbCircle
10
-72.329293447397845
20
56.124810661471862
30
0
40
1.000000000000032
210
-0
220
0
230
1
100
AcDbArc
50
90
51
181.13963533604525
0
LINE
5
154
100
AcDbEntity
8
0
100
AcDbLine
10
-73.329095640134483
20
56.104921584090881
30
0
11
-73.329095640134454
21
11.353511469082882
31
0
0
SPLINE
5
155
100
AcDbEntity
8
0
100
AcDbSpline
70
0
71
3
72
8
73
4
74
0
42
0.000000001
43
0.0000000001
44
0.0000000001
40
7
40
7
40
7
40
7
40
8
40
8
40
8
40
8
10
-73.329095640134454
20
11.353511469082882
30
0
10
-73.329095640134454
20
10.248941969698215
30
0
10
-74.22452614024931
20
9.3535114695832888
30
0
10
-75.329095639634602
20
9.3535114695832888
30
0
0
LINE
5
156
100
AcDbEntity
8
0
100
AcDbLine
10
-75.329095639634602
20
9.3535114695832977
30
0
11
-80.854095638253014
21
9.3535114695832888
31
0
0
SPLINE
5
157
100
AcDbEntity
8
0
100
AcDbSpline
70
0
71
3
72
8
73
4
74
0
42
0.000000001
43
0.0000000001
44
0.0000000001
40
9
40
9
40
9
40
9
40
10
40
10
40
10
40
10
10
-80.854095638253014
20
9.3535114695832888
30
0
10
-81.958665137638349
20
9.3535114695832888
30
0
10
-82.854095637753176
20
8.4580809694685044
30
0
10
-82.854095637753176
20
7.3535114700824877
30
0
0
LINE
5
158
100
AcDbEntity
8
0
100
AcDbLine
10
-82.854095637753176
20
7.3535114700824877
30
0
11
-82.854095637753176
21
-7.6964885261546101
31
0
0
SPLINE
5
159
100
AcDbEntity
8
0
100
AcDbSpline
70
0
71
3
72
8
73
4
74
0
42
0.000000001
43
0.0000000001
44
0.0000000001
40
11
40
11
40
11
40
11
40
12
40
12
40
12
40
12
10
-82.854095637753176
20
-7.6964885261546101
30
0
10
-82.854095637753176
20
-8.8010580255396675
30
0
10
-83.749526137868031
20
-9.696488525654523
30
0
10
-84.85409563725338
20
-9.696488525654523
30
0
0
LINE
5
160
100
AcDbEntity
8
0
100
AcDbLine
10
-84.854095637253337
20
-9.696488525654523
30
0
11
-85.616595637062403
21
-9.696488525654523
31
0
0
SPLINE
5
161
100
AcDbEntity
8
0
100
AcDbSpline
70
0
71
3
72
8
73
4
74
0
42
0.000000001
43
0.0000000001
44
0.0000000001
40
13
40
13
40
13
40
13
40
14
40
14
40
14
40
14
10
-85.616595637062403
20
-9.696488525654523
30
0
10
-86.721165136447695
20
-9.696488525654523
30
0
10
-87.61659563656255
20
-10.591919025769343
30
0
10
-87.61659563656255
20
-11.696488525154685
30
0
0
SPLINE
5
162
100
AcDbEntity
8
0
100
AcDbSpline
70
0
71
3
72
17
73
13
74
0
42
0.000000001
43
0.0000000001
44
0.0000000001
40
-4
40
-4
40
-4
40
-4
40
-3
40
-3
40
-3
40
-2
40
-2
40
-2
40
-1
40
-1
40
-1
40
0
40
0
40
0
40
0
10
-73.091883183621292
20
-51.796405576995319
30
0
10
-73.091883183621292
20
-52.349874790164904
30
0
10
-73.538413970176777
20
-52.796405576720403
30
0
10
-74.091883183346354
20
-52.796405576720403
30
0
10
-74.645352396515932
20
-52.796405576720403
30
0
10
-75.091883183071388
20
-52.349874790164904
30
0
10
-75.091883183071388
20
-51.796405576995319
30
0
10
-75.091883183071388
20
-51.242936363826423
30
0
10
-74.645352396515847
20
-50.796405577270235
30
0
10
-74.091883183346354
20
-50.796405577270235
30
0
10
-73.538413970176862
20
-50.796405577270235
30
0
10
-73.091883183621292
20
-51.242936363826445
30
0
10
-73.091883183621292
20
-51.796405576995319
30
0
0
SPLINE
5
163
100
AcDbEntity
8
0
100
AcDbSpline
70
0
71
3
72
17
73
13
74
0
42
0.000000001
43
0.0000000001
44
0.0000000001
40
-4
40
-4
40
-4
40
-4
40
-3
40
-3
40
-3
40
-2
40
-2
40
-2
40
-1
40
-1
40
-1
40
0
40
0
40
0
40
0
10
-68.329350834317211
20
51.453659098180786
30
0
10
-68.329350834317211
20
50.900189885011208
30
0
10
-68.77588162087271
20
50.453659098455702
30
0
10
-69.329350834042287
20
50.453659098455702
30
0
10
-69.882820047211851
20
50.453659098455702
30
0
10
-70.329350833767307
20
50.900189885011201
30
0
10
-70.329350833767307
20
51.453659098180786
30
0
10
-70.329350833767307
20
52.007128311348978
30
0
10
-69.882820047211709
20
52.453659097905913
30
0
10
-69.329350834042287
20
52.453659097905913
30
0
10
-68.775881620872852
20
52.453659097905913
30
0
10
-68.329350834317211
20
52.007128311348971
30
0
10
-68.329350834317211
20
51.453659098180786
30
0
0
ENDSEC
0
SECTION
2
OBJECTS
0
DICTIONARY
5
C
100
AcDbDictionary
3
ACAD_GROUP
350
D
3
ACAD_MLINESTYLE
350
17
0
DICTIONARY
5
D
100
AcDbDictionary
0
DICTIONARY
5
1A
330
C
100
AcDbDictionary
0
DICTIONARY
5
17
100
AcDbDictionary
0
ENDSEC
0
EOF
