0
SECTION
2
HEADER
9
$INSUNITS
70
4
9
$ACADVER
1
AC1014
9
$HANDSEED
5
FFFF
0
ENDSEC
0
SECTION
2
TABLES
0
TABLE
2
VPORT
5
8
100
AcDbSymbolTable
0
ENDTAB
0
TABLE
2
LTYPE
5
5
100
AcDbSymbolTable
0
LTYPE
5
14
100
AcDbSymbolTableRecord
100
AcDbLinetypeTableRecord
2
BYBLOCK
70
0
0
LTYPE
5
15
100
AcDbSymbolTableRecord
100
AcDbLinetypeTableRecord
2
BYLAYER
70
0
0
ENDTAB
0
TABLE
2
LAYER
5
2
100
AcDbSymbolTable
70
2
0
LAYER
5
50
100
AcDbSymbolTableRecord
100
AcDbLayerTableRecord
2
0
70
0
6
CONTINUOUS
0
ENDTAB
0
TABLE
2
STYLE
5
3
100
AcDbSymbolTable
70
1
0
STYLE
5
11
100
AcDbSymbolTableRecord
100
AcDbTextStyleTableRecord
2
STANDARD
70
0
0
ENDTAB
0
TABLE
2
VIEW
5
6
100
AcDbSymbolTable
70
0
0
ENDTAB
0
TABLE
2
UCS
5
7
100
AcDbSymbolTable
70
0
0
ENDTAB
0
TABLE
2
APPID
5
9
100
AcDbSymbolTable
70
2
0
APPID
5
12
100
AcDbSymbolTableRecord
100
AcDbRegAppTableRecord
2
ACAD
70
0
0
ENDTAB
0
TABLE
2
DIMSTYLE
5
A
100
AcDbSymbolTable
70
1
0
ENDTAB
0
TABLE
2
BLOCK_RECORD
5
1
100
AcDbSymbolTable
70
1
0
BLOCK_RECORD
5
1F
100
AcDbSymbolTableRecord
100
AcDbBlockTableRecord
2
*MODEL_SPACE
0
BLOCK_RECORD
5
1B
100
AcDbSymbolTableRecord
100
AcDbBlockTableRecord
2
*PAPER_SPACE
0
ENDTAB
0
ENDSEC
0
SECTION
2
BLOCKS
0
BLOCK
5
20
100
AcDbEntity
100
AcDbBlockBegin
2
*MODEL_SPACE
0
ENDBLK
5
21
100
AcDbEntity
100
AcDbBlockEnd
0
BLOCK
5
1C
100
AcDbEntity
100
AcDbBlockBegin
2
*PAPER_SPACE
0
ENDBLK
5
1D
100
AcDbEntity
100
AcDbBlockEnd
0
ENDSEC
0
SECTION
2
ENTITIES
0
CIRCLE
5
100
100
AcDbEntity
8
0
100
AcDbCircle
10
17.662669248598135
20
13.693405884184457
30
0
40
1.9999999999999574
210
0
220
0
230
1
0
SPLINE
5
101
100
AcDbEntity
8
0
100
AcDbSpline
70
0
71
3
72
43
73
39
74
0
42
0.000000001
43
0.0000000001
44
0.0000000001
40
-0.079886210074349359
40
-0.079886210074349359
40
-0.079886210074349359
40
-0.079886210074349359
40
-0.03960688478661431
40
-0.03960688478661431
40
0
40
0
40
0
40
0.02156502678772021
40
0.02156502678772021
40
0.043208169921104767
40
0.043208169921104767
40
0.085137824807634876
40
0.085137824807634876
40
0.13225701858176397
40
0.13225701858176397
40
0.17813830717403234
40
0.17813830717403234
40
0.22227822111482837
40
0.22227822111482837
40
0.26663882888882218
40
0.26663882888882218
40
0.31167084703882458
40
0.31167084703882458
40
0.35552176700844368
40
0.35552176700844368
40
0.39771108572857139
40
0.39771108572857139
40
0.43997995286465463
40
0.43997995286465463
40
0.48287058182232528
40
0.48287058182232528
40
0.5246350454231733
40
0.5246350454231733
40
0.56482218058258526
40
0.56482218058258526
40
0.60495466380862595
40
0.60495466380862595
40
0.60536289742721394
40
0.60536289742721394
40
0.60536289742721394
40
0.60536289742721394
10
-77.950707062616047
20
51.453660385660093
30
0
10
-77.950707486716411
20
51.584618269121933
30
0
10
-77.975749359207214
20
51.714478805764287
30
0
10
-78.076311870879778
20
51.957499931275365
30
0
10
-78.149801784825996
20
52.067857017746668
30
0
10
-78.243156107540273
20
52.161211340460973
30
0
10
-78.293985363133842
20
52.212040596054536
30
0
10
-78.350161861799066
20
52.257282930621415
30
0
10
-78.471416091761128
20
52.335025569228705
30
0
10
-78.536586963190445
20
52.367519956272481
30
0
10
-78.738227225149799
20
52.441444831837259
30
0
10
-78.869235188547364
20
52.457165964336951
30
0
10
-79.118865817111299
20
52.448374211238225
30
0
10
-79.248703359784685
20
52.418113433404898
30
0
10
-79.488265572727741
20
52.307689900152937
30
0
10
-79.595507600463833
20
52.230087798223565
30
0
10
-79.771159729313368
20
52.040352336143378
30
0
10
-79.839528955542391
20
51.931089443535839
30
0
10
-79.931320804557444
20
51.690240894374917
30
0
10
-79.953339927287459
20
51.561199177592336
30
0
10
-79.947528012462001
20
51.298712825435047
30
0
10
-79.919003471309011
20
51.168428852878776
30
0
10
-79.811682416314795
20
50.927268975679297
30
0
10
-79.735435022544934
20
50.818966852438464
30
0
10
-79.547847371033171
20
50.640771168406644
30
0
10
-79.439375693755849
20
50.570955377840377
30
0
10
-79.199925932670396
20
50.476198065151422
30
0
10
-79.071768748222482
20
50.45251378184139
30
0
10
-78.80898270687112
20
50.454909906760861
30
0
10
-78.678269222283959
20
50.481696115393184
30
0
10
-78.435551567869126
20
50.585898948212119
30
0
10
-78.326211437151159
20
50.660776036873415
30
0
10
-78.145500568025241
20
50.846186115245935
30
0
10
-78.074248482094717
20
50.953853307155285
30
0
10
-77.976556946213265
20
51.191864304629661
30
0
10
-77.951220031232324
20
51.31917626474128
30
0
10
-77.950709630534192
20
51.451005739367531
30
0
10
-77.950707062543074
20
51.452333118873298
30
0
10
-77.950707062616047
20
51.453660385660086
30
0
0
SPLINE
5
102
100
AcDbEntity
8
0
100
AcDbSpline
70
0
71
3
72
43
73
39
74
0
42
0.000000001
43
0.0000000001
44
0.0000000001
40
-0.079886210074319161
40
-0.079886210074319161
40
-0.079886210074319161
40
-0.079886210074319161
40
-0.039606884786567292
40
-0.039606884786567292
40
0
40
0
40
0
40
0.021565026787999542
40
0.021565026787999542
40
0.043208169921737372
40
0.043208169921737372
40
0.085137824809084273
40
0.085137824809084273
40
0.13225701858417815
40
0.13225701858417815
40
0.17813830717727508
40
0.17813830717727508
40
0.22227822111883411
40
0.22227822111883411
40
0.26663882889356372
40
0.26663882889356372
40
0.31167084704421133
40
0.31167084704421133
40
0.35552176701437416
40
0.35552176701437416
40
0.397711085734898
40
0.397711085734898
40
0.43997995287128971
40
0.43997995287128971
40
0.48287058182919856
40
0.48287058182919856
40
0.5246350454301707
40
0.5246350454301707
40
0.56482218058973344
40
0.56482218058973344
40
0.60495466381594065
40
0.60495466381594065
40
0.60536289743452376
40
0.60536289743452376
40
0.60536289743452376
40
0.60536289743452376
10
-82.713239411920156
20
-51.796404289515962
30
0
10
-82.713239836020449
20
-51.665446406054592
30
0
10
-82.738281708511181
20
-51.535585869411989
30
0
10
-82.838844220183674
20
-51.292564743900655
30
0
10
-82.912334134130035
20
-51.182207657429267
30
0
10
-83.005688456844169
20
-51.088853334715047
30
0
10
-83.056517712438378
20
-51.038024079120817
30
0
10
-83.112694211103388
20
-50.992781744554428
30
0
10
-83.233948441064953
20
-50.915039105947486
30
0
10
-83.29911931249427
20
-50.882544718903667
30
0
10
-83.500759574454406
20
-50.80861984333869
30
0
10
-83.631767537852326
20
-50.792898710839182
30
0
10
-83.881398166415977
20
-50.80169046393803
30
0
10
-84.011235709089291
20
-50.83195124177135
30
0
10
-84.250797922032206
20
-50.942374775023247
30
0
10
-84.358039949768227
20
-51.019976876952519
30
0
10
-84.533692078617335
20
-51.209712339032237
30
0
10
-84.60206130484643
20
-51.318975231639648
30
0
10
-84.693853153861482
20
-51.559823780800606
30
0
10
-84.715872276591568
20
-51.6888654975834
30
0
10
-84.710060361766182
20
-51.951351849740497
30
0
10
-84.681535820613334
20
-52.081635822296938
30
0
10
-84.574214765618976
20
-52.322795699496687
30
0
10
-84.497967371849043
20
-52.431097822737584
30
0
10
-84.310379720337565
20
-52.609293506769113
30
0
10
-84.201908043060243
20
-52.679109297335572
30
0
10
-83.962458281974719
20
-52.773866610024626
30
0
10
-83.834301097526804
20
-52.797550893334694
30
0
10
-83.571515056175514
20
-52.795154768415237
30
0
10
-83.440801571588352
20
-52.768368559782999
30
0
10
-83.198083917173449
20
-52.664165726964079
30
0
10
-83.08874378645541
20
-52.589288638302875
30
0
10
-82.908032917329066
20
-52.403878559929929
30
0
10
-82.836780831398755
20
-52.296211368020742
30
0
10
-82.739089295517374
20
-52.05820037054653
30
0
10
-82.713752380536434
20
-51.930888410434839
30
0
10
-82.713241979838372
20
-51.799058935808524
30
0
10
-82.713239411847255
20
-51.797731556302786
30
0
10
-82.713239411920156
20
-51.796404289516119
30
0
0
CIRCLE
5
103
100
AcDbEntity
8
0
100
AcDbCircle
10
95.23823940826361
20
1.7495859871985431e-07
30
0
40
1.0000000000000142
210
0
220
0
230
1
0
CIRCLE
5
104
100
AcDbEntity
8
0
100
AcDbCircle
10
-62.950740528550213
20
59.124811948951212
30
0
40
0.99999999999994316
210
0
220
0
230
1
0
CIRCLE
5
105
100
AcDbEntity
8
0
100
AcDbCircle
10
-51.950739416133231
20
-37.124811730522829
30
0
40
1.0000000000000142
210
0
220
0
230
1
0
CIRCLE
5
106
100
AcDbEntity
8
0
100
AcDbCircle
10
62.238239357591425
20
-7.1248118450248565
30
0
40
1.0000000000000142
210
0
220
0
230
1
0
CIRCLE
5
107
100
AcDbEntity
8
0
100
AcDbCircle
10
-51.950739462507585
20
-7.1248117305228309
30
0
40
1.0000000000000142
210
0
220
0
230
1
0
CIRCLE
5
108
100
AcDbEntity
8
0
100
AcDbCircle
10
62.238239403965778
20
-37.124811845024858
30
0
40
1.0000000000000142
210
0
220
0
230
1
0
CIRCLE
5
109
100
AcDbEntity
8
0
100
AcDbCircle
10
-21.013112751401835
20
-59.124811948951226
30
0
40
1.0000000000000142
210
0
220
0
230
1
0
SPLINE
5
110
100
AcDbEntity
8
0
100
AcDbSpline
70
0
71
3
72
16
73
12
74
0
42
0.000000001
43
0.0000000001
44
0.0000000001
40
-0.31572209286497954
40
-0.31572209286497954
40
-0.31572209286497954
40
-0.31572209286497954
40
-0.27392212834098761
40
-0.27392212834098761
40
-0.23338745683918327
40
-0.23338745683918327
40
-0.15428843611890017
40
-0.15428843611890017
40
-0.077383792489917322
40
-0.077383792489917322
40
0
40
0
40
0
40
0
10
-92.475739409454363
20
7.3535127575617931
30
0
10
-92.475739409454363
20
7.4926542378407746
30
0
10
-92.461530556223153
20
7.6310888498173401
30
0
10
-92.405140866669555
20
7.8992029587135892
30
0
10
-92.364057845618817
20
8.0278593007222465
30
0
10
-92.205111279060574
20
8.3927508568090659
30
0
10
-92.053021421700905
20
8.6109835889009378
30
0
10
-91.679610847632986
20
8.9709794579437752
30
0
10
-91.463102347303717
20
9.1120211926128025
30
0
10
-90.987302006384212
20
9.3046808932786806
30
0
10
-90.733685384920619
20
9.3535127570625942
30
0
10
-90.475739409954201
20
9.3535127570625942
30
0
0
LINE
5
111
100
AcDbEntity
8
0
100
AcDbLine
10
-84.950739411335761
20
9.3535127570625942
30
0
11
-90.475739409954201
21
9.3535127570625942
31
0
0
SPLINE
5
112
100
AcDbEntity
8
0
100
AcDbSpline
70
0
71
3
72
16
73
12
74
0
42
0.000000001
43
0.0000000001
44
0.0000000001
40
-0.31572209286581687
40
-0.31572209286581687
40
-0.31572209286581687
40
-0.31572209286581687
40
-0.27392212834159713
40
-0.27392212834159713
40
-0.2333874568396041
40
-0.2333874568396041
40
-0.15428843611906792
40
-0.15428843611906792
40
-0.077383792489932338
40
-0.077383792489932338
40
0
40
0
40
0
40
0
10
-84.950739411335761
20
9.3535127570625942
30
0
10
-84.811597931056255
20
9.3535127570625942
30
0
10
-84.673163319080018
20
9.3677216102939376
30
0
10
-84.405049210184515
20
9.4241112998474108
30
0
10
-84.276392868175591
20
9.4651943208981315
30
0
10
-83.911501312088532
20
9.6241408874566314
30
0
10
-83.693268579996598
20
9.7762307448165053
30
0
10
-83.333272710954276
20
10.149641318884148
30
0
10
-83.192230976285231
20
10.366149819213319
30
0
10
-82.999571275619601
20
10.84195016013247
30
0
10
-82.950739411835599
20
11.095566781595743
30
0
10
-82.950739411835599
20
11.353512756562187
30
0
0
LINE
5
113
100
AcDbEntity
8
0
100
AcDbLine
10
-82.950739411835528
20
56.124811948951177
30
0
11
-82.95073941183567
21
11.353512756562187
31
0
0
ARC
5
114
100
AcDbEntity
8
0
100
AcDbCircle
10
-81.950739411835443
20
56.124811948951077
30
0
40
1.0000000000000941
210
0
220
0
230
1
100
AcDbArc
50
90.000000000008143
51
180
0
LINE
5
115
100
AcDbEntity
8
0
100
AcDbLine
10
-69.950740528550241
20
57.124811948951184
30
0
11
-81.950739411835585
21
57.124811948951177
31
0
0
ARC
5
116
100
AcDbEntity
8
0
100
AcDbCircle
10
-69.95074052855017
20
59.124811948951184
30
0
40
2.0000000000000018
210
0
220
0
230
1
100
AcDbArc
50
-90.000000000002032
51
0
0
ARC
5
117
100
AcDbEntity
8
0
100
AcDbCircle
10
-65.950740528550256
20
59.124811948951297
30
0
40
1.9999999999998774
210
0
220
-0
230
1
100
AcDbArc
50
89.999999999997954
51
180
0
LINE
5
118
100
AcDbEntity
8
0
100
AcDbLine
10
-59.950740528550241
20
61.124811948951248
30
0
11
-65.950740528550185
21
61.124811948951177
31
0
0
ARC
5
119
100
AcDbEntity
8
0
100
AcDbCircle
10
-59.950740528550313
20
59.124811948951148
30
0
40
2.0000000000000995
210
0
220
-0
230
1
100
AcDbArc
50
0
51
89.999999999997954
0
ARC
5
120
100
AcDbEntity
8
0
100
AcDbCircle
10
-55.950740528550256
20
59.124811948951177
30
0
40
1.9999999999999574
210
0
220
0
230
1
100
AcDbArc
50
180
51
270.00000000000205
0
LINE
5
121
100
AcDbEntity
8
0
100
AcDbLine
10
87.738239408263539
20
57.124811948951177
30
0
11
-55.950740528550185
21
57.124811948951219
31
0
0
ARC
5
122
100
AcDbEntity
8
0
100
AcDbCircle
10
87.73823940826361
20
51.624811948951205
30
0
40
5.4999999999999716
210
-0
220
0
230
1
100
AcDbArc
50
0
51
90.000000000000597
0
LINE
5
123
100
AcDbEntity
8
0
100
AcDbLine
10
93.238239408263581
20
7.0000001749585916
30
0
11
93.238239408263581
21
51.624811948951177
31
0
0
ARC
5
124
100
AcDbEntity
8
0
100
AcDbCircle
10
95.238239408263539
20
7.0000001749586094
30
0
40
1.9999999999999574
210
0
220
0
230
1
100
AcDbArc
50
180
51
270.00000000000205
0
ARC
5
125
100
AcDbEntity
8
0
100
AcDbCircle
10
95.238239408263468
20
3.0000001749585348
30
0
40
2.0000000000001705
210
0
220
-0
230
1
100
AcDbArc
50
0
51
89.999999999995936
0
LINE
5
126
100
AcDbEntity
8
0
100
AcDbLine
10
97.238239408263567
20
-2.9999998250413995
30
0
11
97.238239408263638
21
3.0000001749585969
31
0
0
ARC
5
127
100
AcDbEntity
8
0
100
AcDbCircle
10
95.23823940826361
20
-2.9999998250414528
30
0
40
1.9999999999999574
210
0
220
0
230
1
100
AcDbArc
50
-90.000000000002032
51
0
0
ARC
5
128
100
AcDbEntity
8
0
100
AcDbCircle
10
95.238239408263539
20
-6.9999998250413853
30
0
40
1.9999999999999751
210
-0
220
0
230
1
100
AcDbArc
50
90
51
180
0
LINE
5
129
100
AcDbEntity
8
0
100
AcDbLine
10
93.23823940826351
20
-51.624811599033976
30
0
11
93.238239408263581
21
-6.9999998250414031
31
0
0
ARC
5
130
100
AcDbEntity
8
0
100
AcDbCircle
10
87.73823940826361
20
-51.624811599034032
30
0
40
5.4999999999999361
210
0
220
0
230
1
100
AcDbArc
50
-90.000000000000711
51
0
0
LINE
5
131
100
AcDbEntity
8
0
100
AcDbLine
10
35.081803263499225
20
-57.124811599033968
30
0
11
87.738239408263539
21
-57.124811599033968
31
0
0
ARC
5
132
100
AcDbEntity
8
0
100
AcDbCircle
10
35.081803263499225
20
-54.124811599033997
30
0
40
2.9999999999999716
210
0
220
0
230
1
100
AcDbArc
50
180
51
270
0
LINE
5
133
100
AcDbEntity
8
0
100
AcDbLine
10
32.081803263499253
20
-45.277152100914357
30
0
11
32.081803263499253
21
-54.12481159903394
31
0
0
ARC
5
134
100
AcDbEntity
8
0
100
AcDbCircle
10
29.081803263499282
20
-45.277152100914357
30
0
40
2.9999999999999716
210
0
220
-0
230
1
100
AcDbArc
50
0
51
90
0
LINE
5
135
100
AcDbEntity
8
0
100
AcDbLine
10
24.141803233696848
20
-42.27715210091435
30
0
11
29.081803263499282
21
-42.277152100914385
31
0
0
ARC
5
136
100
AcDbEntity
8
0
100
AcDbCircle
10
24.141803233696848
20
-45.277152100914357
30
0
40
3.0000000000000071
210
-0
220
0
230
1
100
AcDbArc
50
90
51
180
0
LINE
5
137
100
AcDbEntity
8
0
100
AcDbLine
10
21.141803233696947
20
-54.12481159903394
30
0
11
21.141803233696876
21
-45.277152100914357
31
0
0
ARC
5
138
100
AcDbEntity
8
0
100
AcDbCircle
10
18.141803233697047
20
-54.124811599034068
30
0
40
2.9999999999998828
210
0
220
0
230
1
100
AcDbArc
50
-90.000000000001378
51
0
0
LINE
5
139
100
AcDbEntity
8
0
100
AcDbLine
10
17.81180324859811
20
-57.124816593436812
30
0
11
18.141803233696976
21
-57.124811599033947
31
0
0
LINE
5
140
100
AcDbEntity
8
0
100
AcDbLine
10
-14.013112512148922
20
-57.124812786336172
30
0
11
17.81180324859811
21
-57.124816593436812
31
0
0
ARC
5
141
100
AcDbEntity
8
0
100
AcDbCircle
10
-14.013112751401735
20
-59.124812786336179
30
0
40
2.0000000000000249
210
0
220
-0
230
1
100
AcDbArc
50
89.999993145911787
51
179.99997178668849
0
ARC
5
142
100
AcDbEntity
8
0
100
AcDbCircle
10
-18.013112751401863
20
-59.124811948951248
30
0
40
2.0000000000000107
210
-0
220
0
230
1
100
AcDbArc
50
-90
51
4.1826195783037469e-06
0
LINE
5
143
100
AcDbEntity
8
0
100
AcDbLine
10
-24.013112751401877
20
-61.124811948951205
30
0
11
-18.013112751401863
21
-61.124811948951255
31
0
0
ARC
5
144
100
AcDbEntity
8
0
100
AcDbCircle
10
-24.013112751401877
20
-59.124811948951319
30
0
40
1.9999999999998765
210
0
220
0
230
1
100
AcDbArc
50
179.99997915672904
51
270
0
ARC
5
145
100
AcDbEntity
8
0
100
AcDbCircle
10
-28.013112751401792
20
-59.124811111566189
30
0
40
2.0000000000001736
210
-0
220
0
230
1
100
AcDbArc
50
-2.9575586647481235e-06
51
89.999993145915866
0
LINE
5
146
100
AcDbEntity
8
0
100
AcDbLine
10
-59.838028751401851
20
-57.124811599033947
30
0
11
-28.013112512149121
21
-57.124811111566018
31
0
0
LINE
5
147
100
AcDbEntity
8
0
100
AcDbLine
10
-60.168028736500787
20
-57.124811599033968
30
0
11
-59.838028751401851
21
-57.124811599033947
31
0
0
ARC
5
148
100
AcDbEntity
8
0
100
AcDbCircle
10
-60.168028736500858
20
-54.124811599034068
30
0
40
2.9999999999999005
210
0
220
0
230
1
100
AcDbArc
50
180
51
270.00000000000131
0
LINE
5
149
100
AcDbEntity
8
0
100
AcDbLine
10
-63.16802873650083
20
-39.277152100914357
30
0
11
-63.168028736500759
21
-54.12481159903394
31
0
0
ARC
5
150
100
AcDbEntity
8
0
100
AcDbCircle
10
-66.168028736500801
20
-39.277152100914357
30
0
40
2.9999999999999716
210
0
220
-0
230
1
100
AcDbArc
50
0
51
90
0
LINE
5
151
100
AcDbEntity
8
0
100
AcDbLine
10
-71.108028766303093
20
-36.27715210091435
30
0
11
-66.168028736500801
21
-36.277152100914385
31
0
0
ARC
5
152
100
AcDbEntity
8
0
100
AcDbCircle
10
-71.108028766303093
20
-39.277152100914357
30
0
40
3.0000000000000071
210
-0
220
0
230
1
100
AcDbArc
50
90
51
180
0
LINE
5
153
100
AcDbEntity
8
0
100
AcDbLine
10
-74.108028766303065
20
-54.12481159903394
30
0
11
-74.108028766303065
21
-39.277152100914357
31
0
0
ARC
5
154
100
AcDbEntity
8
0
100
AcDbCircle
10
-77.108028766303036
20
-54.124811599033997
30
0
40
2.9999999999999538
210
-0
220
0
230
1
100
AcDbArc
50
-90
51
0
0
LINE
5
155
100
AcDbEntity
8
0
100
AcDbLine
10
-86.713239410645002
20
-57.124811599033912
30
0
11
-77.108028766303036
21
-57.124811599033947
31
0
0
ARC
5
156
100
AcDbEntity
8
0
100
AcDbCircle
10
-86.713239410645002
20
-56.124811599033897
30
0
40
1.0000000000000142
210
0
220
0
230
1
100
AcDbArc
50
180
51
270
0
LINE
5
157
100
AcDbEntity
8
0
100
AcDbLine
10
-87.713239410645016
20
-30.746371944284199
30
0
11
-87.713239410645016
21
-56.124811599033968
31
0
0
SPLINE
5
158
100
AcDbEntity
8
0
100
AcDbSpline
70
0
71
3
72
16
73
12
74
0
42
0.000000001
43
0.0000000001
44
0.0000000001
40
-0.31572209286473202
40
-0.31572209286473202
40
-0.31572209286473202
40
-0.31572209286473202
40
-0.27392212834088675
40
-0.27392212834088675
40
-0.23338745683914155
40
-0.23338745683914155
40
-0.1542884361188725
40
-0.1542884361188725
40
-0.077383792489911521
40
-0.077383792489911521
40
0
40
0
40
0
40
0
10
-87.713239410645016
20
-30.746371944284199
30
0
10
-87.713239410645016
20
-30.607230464004857
30
0
10
-87.727448263876298
20
-30.46879585202867
30
0
10
-87.783837953429753
20
-30.200681743132904
30
0
10
-87.824920974480492
20
-30.072025401124336
30
0
10
-87.983867541038663
20
-29.707133845037561
30
0
10
-88.135957398398475
20
-29.488901112945676
30
0
10
-88.509367972465967
20
-29.128905243903212
30
0
10
-88.725876472795022
20
-28.987863509234188
30
0
10
-89.201676813714528
20
-28.795203808568289
30
0
10
-89.455293435178191
20
-28.746371944784393
30
0
10
-89.713239410144539
20
-28.746371944784393
30
0
0
LINE
5
159
100
AcDbEntity
8
0
100
AcDbLine
10
-95.238239408764187
20
-28.746371944784393
30
0
11
-89.713239410144539
21
-28.746371944784393
31
0
0
SPLINE
5
160
100
AcDbEntity
8
0
100
AcDbSpline
70
0
71
3
72
16
73
12
74
0
42
0.000000001
43
0.0000000001
44
0.0000000001
40
-0.31572209286400998
40
-0.31572209286400998
40
-0.31572209286400998
40
-0.31572209286400998
40
-0.27392212834025215
40
-0.27392212834025215
40
-0.23338745683865231
40
-0.23338745683865231
40
-0.15428843611862292
40
-0.15428843611862292
40
-0.077383792489831307
40
-0.077383792489831307
40
0
40
0
40
0
40
0
10
-95.238239408764187
20
-28.746371944784393
30
0
10
-95.377380889043195
20
-28.746371944784393
30
0
10
-95.515815501019361
20
-28.732163091553168
30
0
10
-95.783929609914793
20
-28.67577340199982
30
0
10
-95.91258595192329
20
-28.634690380949223
30
0
10
-96.277477508009994
20
-28.475743814391244
30
0
10
-96.495710240101857
20
-28.323653957031595
30
0
10
-96.855706109144606
20
-27.950243382963926
30
0
10
-96.996747843813793
20
-27.733734882634693
30
0
10
-97.18940754447992
20
-27.257934541714704
30
0
10
-97.238239408263709
20
-27.004317920250614
30
0
10
-97.238239408263709
20
-26.746371945284515
30
0
0
LINE
5
161
100
AcDbEntity
8
0
100
AcDbLine
10
-97.238239408263709
20
-11.696487237675379
30
0
11
-97.238239408263638
21
-26.746371945284515
31
0
0
SPLINE
5
162
100
AcDbEntity
8
0
100
AcDbSpline
70
0
71
3
72
16
73
12
74
0
42
0.000000001
43
0.0000000001
44
0.0000000001
40
-0.31572209286447395
40
-0.31572209286447395
40
-0.31572209286447395
40
-0.31572209286447395
40
-0.27392212834068841
40
-0.27392212834068841
40
-0.23338745683897957
40
-0.23338745683897957
40
-0.15428843611877677
40
-0.15428843611877677
40
-0.077383792489871386
40
-0.077383792489871386
40
0
40
0
40
0
40
0
10
-97.238239408263709
20
-11.696487237675379
30
0
10
-97.238239408263709
20
-11.557345757395998
30
0
10
-97.224030555032428
20
-11.41891114541985
30
0
10
-97.167640865478901
20
-11.15079703652408
30
0
10
-97.126557844428234
20
-11.022140694515548
30
0
10
-96.967611277870063
20
-10.657249138428808
30
0
10
-96.815521420510393
20
-10.439016406336874
30
0
10
-96.442110846442333
20
-10.079020537294001
30
0
10
-96.225602346113135
20
-9.9379788026249916
30
0
10
-95.749802005193558
20
-9.7453191019590779
30
0
10
-95.496185383729753
20
-9.6964872381752176
30
0
10
-95.238239408763548
20
-9.6964872381752176
30
0
0
LINE
5
163
100
AcDbEntity
8
0
100
AcDbLine
10
-94.475739408954595
20
-9.6964872381752176
30
0
11
-95.238239408763548
21
-9.6964872381752176
31
0
0
SPLINE
5
164
100
AcDbEntity
8
0
100
AcDbSpline
70
0
71
3
72
16
73
12
74
0
42
0.000000001
43
0.0000000001
44
0.0000000001
40
-0.31572209286520508
40
-0.31572209286520508
40
-0.31572209286520508
40
-0.31572209286520508
40
-0.27392212834101154
40
-0.27392212834101154
40
-0.23338745683912587
40
-0.23338745683912587
40
-0.15428843611885582
40
-0.15428843611885582
40
-0.077383792489879852
40
-0.077383792489879852
40
0
40
0
40
0
40
0
10
-94.475739408954595
20
-9.6964872381752176
30
0
10
-94.33659792867509
20
-9.6964872381752176
30
0
10
-94.198163316698995
20
-9.6822783849438832
30
0
10
-93.930049207803918
20
-9.6258886953905343
30
0
10
-93.801392865794853
20
-9.5848056743398669
30
0
10
-93.43650130970758
20
-9.4258591077813936
30
0
10
-93.218268577615646
20
-9.2737692504215286
30
0
10
-92.858272708573111
20
-8.9003586763538056
30
0
10
-92.717230973904066
20
-8.6838501760246078
30
0
10
-92.524571273238223
20
-8.2080498351051556
30
0
10
-92.475739409454363
20
-7.954433213641563
30
0
10
-92.475739409454363
20
-7.6964872386753047
30
0
0
LINE
5
165
100
AcDbEntity
8
0
100
AcDbLine
10
-92.475739409454363
20
7.3535127575617931
30
0
11
-92.475739409454434
21
-7.6964872386753047
31
0
0
ENDSEC
0
SECTION
2
OBJECTS
0
DICTIONARY
5
C
100
AcDbDictionary
3
ACAD_GROUP
350
D
3
ACAD_MLINESTYLE
350
17
0
DICTIONARY
5
D
100
AcDbDictionary
0
DICTIONARY
5
1A
330
C
100
AcDbDictionary
0
DICTIONARY
5
17
100
AcDbDictionary
0
ENDSEC
0
EOF
