0
SECTION
2
HEADER
9
$INSUNITS
70
4
9
$ACADVER
1
AC1014
9
$HANDSEED
5
FFFF
0
ENDSEC
0
SECTION
2
TABLES
0
TABLE
2
VPORT
5
8
100
AcDbSymbolTable
0
ENDTAB
0
TABLE
2
LTYPE
5
5
100
AcDbSymbolTable
0
LTYPE
5
14
100
AcDbSymbolTableRecord
100
AcDbLinetypeTableRecord
2
BYBLOCK
70
0
0
LTYPE
5
15
100
AcDbSymbolTableRecord
100
AcDbLinetypeTableRecord
2
BYLAYER
70
0
0
ENDTAB
0
TABLE
2
LAYER
5
2
100
AcDbSymbolTable
70
2
0
LAYER
5
50
100
AcDbSymbolTableRecord
100
AcDbLayerTableRecord
2
0
70
0
6
CONTINUOUS
0
ENDTAB
0
TABLE
2
STYLE
5
3
100
AcDbSymbolTable
70
1
0
STYLE
5
11
100
AcDbSymbolTableRecord
100
AcDbTextStyleTableRecord
2
STANDARD
70
0
0
ENDTAB
0
TABLE
2
VIEW
5
6
100
AcDbSymbolTable
70
0
0
ENDTAB
0
TABLE
2
UCS
5
7
100
AcDbSymbolTable
70
0
0
ENDTAB
0
TABLE
2
APPID
5
9
100
AcDbSymbolTable
70
2
0
APPID
5
12
100
AcDbSymbolTableRecord
100
AcDbRegAppTableRecord
2
ACAD
70
0
0
ENDTAB
0
TABLE
2
DIMSTYLE
5
A
100
AcDbSymbolTable
70
1
0
ENDTAB
0
TABLE
2
BLOCK_RECORD
5
1
100
AcDbSymbolTable
70
1
0
BLOCK_RECORD
5
1F
100
AcDbSymbolTableRecord
100
AcDbBlockTableRecord
2
*MODEL_SPACE
0
BLOCK_RECORD
5
1B
100
AcDbSymbolTableRecord
100
AcDbBlockTableRecord
2
*PAPER_SPACE
0
ENDTAB
0
ENDSEC
0
SECTION
2
BLOCKS
0
BLOCK
5
20
100
AcDbEntity
100
AcDbBlockBegin
2
*MODEL_SPACE
0
ENDBLK
5
21
100
AcDbEntity
100
AcDbBlockEnd
0
BLOCK
5
1C
100
AcDbEntity
100
AcDbBlockBegin
2
*PAPER_SPACE
0
ENDBLK
5
1D
100
AcDbEntity
100
AcDbBlockEnd
0
ENDSEC
0
SECTION
2
ENTITIES
0
CIRCLE
5
100
100
AcDbEntity
8
0
100
AcDbCircle
10
60.33636571216347
20
-7.1247216929745782
30
0
40
0.99999999999999645
210
0
220
0
230
1
0
CIRCLE
5
101
100
AcDbEntity
8
0
100
AcDbCircle
10
-64.62396932772856
20
-7.1247217741735547
30
0
40
0.99999999999997868
210
0
220
0
230
1
0
CIRCLE
5
102
100
AcDbEntity
8
0
100
AcDbCircle
10
60.336365758537802
20
-37.124721692974575
30
0
40
0.99999999999999645
210
0
220
0
230
1
0
CIRCLE
5
103
100
AcDbEntity
8
0
100
AcDbCircle
10
-64.623969281354206
20
-37.124721774173551
30
0
40
1.0000000000000142
210
0
220
0
230
1
0
CIRCLE
5
104
100
AcDbEntity
8
0
100
AcDbCircle
10
29.861469976087225
20
-59.124721835508694
30
0
40
0.99999999999999645
210
0
220
0
230
1
0
CIRCLE
5
105
100
AcDbEntity
8
0
100
AcDbCircle
10
74.62397110236887
20
59.424721835508684
30
0
40
0.99999999999999645
210
0
220
0
230
1
0
CIRCLE
5
106
100
AcDbEntity
8
0
100
AcDbCircle
10
-97.623969277056531
20
-8.8817841970012523e-15
30
0
40
1.0000000000000142
210
0
220
0
230
1
0
CIRCLE
5
107
100
AcDbEntity
8
0
100
AcDbCircle
10
-5.1606829467130844
20
7.2803587686736293
30
0
40
1.9999999999999929
210
0
220
0
230
1
0
ARC
5
108
100
AcDbEntity
8
0
100
AcDbCircle
10
71.62397110236887
20
59.12472183550868
30
0
40
2.0000000000000107
210
-0
220
0
230
1
100
AcDbArc
50
90
51
180
0
ARC
5
109
100
AcDbEntity
8
0
100
AcDbCircle
10
67.623971102368884
20
59.124721835508673
30
0
40
1.9999999999999929
210
0
220
0
230
1
100
AcDbArc
50
-90.000000000000398
51
0
0
LINE
5
110
100
AcDbEntity
8
0
100
AcDbLine
10
67.62397110236887
20
57.12472183550868
30
0
11
-90.123969277056545
21
57.124721835508666
31
0
0
ARC
5
111
100
AcDbEntity
8
0
100
AcDbCircle
10
-90.12396927705646
20
51.624721835508645
30
0
40
5.5000000000000249
210
0
220
0
230
1
100
AcDbArc
50
90.000000000000739
51
180
0
LINE
5
112
100
AcDbEntity
8
0
100
AcDbLine
10
-95.623969277056503
20
51.624721835508666
30
0
11
-95.623969277056503
21
6.9999999999999751
31
0
0
ARC
5
113
100
AcDbEntity
8
0
100
AcDbCircle
10
-97.623969277056503
20
6.9999999999999929
30
0
40
2.0000000000000018
210
-0
220
0
230
1
100
AcDbArc
50
270.00000000000119
51
360
0
ARC
5
114
100
AcDbEntity
8
0
100
AcDbCircle
10
-97.623969277056531
20
3.0000000000000071
30
0
40
1.999999999999984
210
0
220
-0
230
1
100
AcDbArc
50
89.999999999997954
51
180
0
LINE
5
115
100
AcDbEntity
8
0
100
AcDbLine
10
-99.623969277056531
20
2.9999999999999893
30
0
11
-99.623969277056489
21
-3.0000000000000071
31
0
0
ARC
5
116
100
AcDbEntity
8
0
100
AcDbCircle
10
-97.62396927705646
20
-2.9999999999999893
30
0
40
2.0000000000000284
210
0
220
0
230
1
100
AcDbArc
50
180
51
269.99999999999591
0
ARC
5
117
100
AcDbEntity
8
0
100
AcDbCircle
10
-97.62396927705646
20
-7.0000000000000373
30
0
40
2.0000000000000284
210
0
220
-0
230
1
100
AcDbArc
50
0
51
90.000000000004889
0
LINE
5
118
100
AcDbEntity
8
0
100
AcDbLine
10
-95.623969277056432
20
-7.0000000000000284
30
0
11
-95.623969277056503
21
-51.62472183550868
31
0
0
ARC
5
119
100
AcDbEntity
8
0
100
AcDbCircle
10
-90.12396927705646
20
-51.624721835508666
30
0
40
5.5000000000000426
210
0
220
0
230
1
100
AcDbArc
50
180
51
270.00000071758672
0
LINE
5
120
100
AcDbEntity
8
0
100
AcDbLine
10
-90.123969208173079
20
-57.124721835508709
30
0
11
-28.428011212456052
21
-57.124718388095502
31
0
0
LINE
5
121
100
AcDbEntity
8
0
100
AcDbLine
10
-28.428011212456052
20
-57.124718388095502
30
0
11
-28.228010946713002
21
-57.124718426400122
31
0
0
LINE
5
122
100
AcDbEntity
8
0
100
AcDbLine
10
-28.228010946713002
20
-57.124718426400122
30
0
11
-27.898010961614172
21
-57.124718426400122
31
0
0
ARC
5
123
100
AcDbEntity
8
0
100
AcDbCircle
10
-27.898010961614172
20
-54.124718426400094
30
0
40
3.0000000000000249
210
-0
220
0
230
1
100
AcDbArc
50
270
51
360
0
LINE
5
124
100
AcDbEntity
8
0
100
AcDbLine
10
-24.898010961614165
20
-54.124718426400108
30
0
11
-24.898010961614165
21
-45.141465216425033
31
0
0
ARC
5
125
100
AcDbEntity
8
0
100
AcDbCircle
10
-21.898010961614194
20
-45.141465216425033
30
0
40
3.0000000000000071
210
-0
220
0
230
1
100
AcDbArc
50
90
51
180
0
LINE
5
126
100
AcDbEntity
8
0
100
AcDbLine
10
-21.898010961614194
20
-42.141465216425033
30
0
11
-16.958010931811831
21
-42.141465216425033
31
0
0
ARC
5
127
100
AcDbEntity
8
0
100
AcDbCircle
10
-16.958010931811831
20
-45.141465216425033
30
0
40
3.0000000000000071
210
0
220
-0
230
1
100
AcDbArc
50
0
51
90
0
LINE
5
128
100
AcDbEntity
8
0
100
AcDbLine
10
-13.958010931811824
20
-45.141465216425033
30
0
11
-13.958010931811842
21
-54.124718426400108
31
0
0
ARC
5
129
100
AcDbEntity
8
0
100
AcDbCircle
10
-10.958010931811799
20
-54.124718426400079
30
0
40
3.0000000000000426
210
0
220
0
230
1
100
AcDbArc
50
180
51
269.99999999999932
0
LINE
5
130
100
AcDbEntity
8
0
100
AcDbLine
10
-10.958010931811835
20
-57.124718426400122
30
0
11
22.861469976087232
21
-57.124718426400122
31
0
0
ARC
5
131
100
AcDbEntity
8
0
100
AcDbCircle
10
22.861469976087285
20
-59.124721835508609
30
0
40
1.9999999999999574
210
-0
220
0
230
1
100
AcDbArc
50
0
51
90.000000000001521
0
ARC
5
132
100
AcDbEntity
8
0
100
AcDbCircle
10
26.861469976087236
20
-59.124721835508694
30
0
40
1.9999999999999929
210
0
220
0
230
1
100
AcDbArc
50
180
51
269.99999999999949
0
LINE
5
133
100
AcDbEntity
8
0
100
AcDbLine
10
26.861469976087218
20
-61.124721835508694
30
0
11
32.861469976087236
21
-61.124721835508673
31
0
0
ARC
5
134
100
AcDbEntity
8
0
100
AcDbCircle
10
32.86146997608725
20
-59.12472183550868
30
0
40
1.9999999999999929
210
0
220
0
230
1
100
AcDbArc
50
269.9999999999996
51
360
0
ARC
5
135
100
AcDbEntity
8
0
100
AcDbCircle
10
36.861469976087221
20
-59.12472183550868
30
0
40
2.0000000000000107
210
-0
220
0
230
1
100
AcDbArc
50
90
51
180
0
LINE
5
136
100
AcDbEntity
8
0
100
AcDbLine
10
36.861469976087221
20
-57.124721835508666
30
0
11
67.351909053286874
21
-57.124718426400122
31
0
0
ARC
5
137
100
AcDbEntity
8
0
100
AcDbCircle
10
67.35190905328686
20
-54.124718426400108
30
0
40
3.0000000000000071
210
-0
220
0
230
1
100
AcDbArc
50
-89.999999999999744
51
0
0
LINE
5
138
100
AcDbEntity
8
0
100
AcDbLine
10
70.351909053286874
20
-54.124718426400108
30
0
11
70.351909053286874
21
-39.141465231326258
31
0
0
ARC
5
139
100
AcDbEntity
8
0
100
AcDbCircle
10
73.351909053286874
20
-39.141465231326258
30
0
40
3.0000000000000071
210
-0
220
0
230
1
100
AcDbArc
50
90
51
180
0
LINE
5
140
100
AcDbEntity
8
0
100
AcDbLine
10
73.351909053286874
20
-36.141465231326251
30
0
11
78.291909053286858
21
-36.141465231326251
31
0
0
ARC
5
141
100
AcDbEntity
8
0
100
AcDbCircle
10
78.291909053286858
20
-39.141465231326258
30
0
40
2.9999999999999893
210
0
220
-0
230
1
100
AcDbArc
50
0
51
90
0
LINE
5
142
100
AcDbEntity
8
0
100
AcDbLine
10
81.291909053286844
20
-39.141465231326258
30
0
11
81.291909053286844
21
-54.124718426400108
31
0
0
ARC
5
143
100
AcDbEntity
8
0
100
AcDbCircle
10
84.291909053286872
20
-54.124718426400108
30
0
40
3.0000000000000249
210
0
220
0
230
1
100
AcDbArc
50
180
51
269.99999999999943
0
LINE
5
144
100
AcDbEntity
8
0
100
AcDbLine
10
84.291909053286844
20
-57.124718426400122
30
0
11
93.86143533448984
21
-57.124718426400122
31
0
0
ARC
5
145
100
AcDbEntity
8
0
100
AcDbCircle
10
93.86143533448984
20
-56.124718426400136
30
0
40
0.99999999999997868
210
-0
220
0
230
1
100
AcDbArc
50
-90
51
0.0015267626177746902
0
LINE
5
146
100
AcDbEntity
8
0
100
AcDbLine
10
94.861435334134796
20
-56.124691779360475
30
0
11
94.861365760453978
21
-53.513757067222478
31
0
0
LINE
5
147
100
AcDbEntity
8
0
100
AcDbLine
10
94.861365760453978
20
-53.513757067222478
30
0
11
94.861365760453978
21
-30.50846595087183
31
0
0
SPLINE
5
148
100
AcDbEntity
8
0
100
AcDbSpline
70
0
71
3
72
8
73
4
74
0
42
0.000000001
43
0.0000000001
44
0.0000000001
40
4
40
4
40
4
40
4
40
5
40
5
40
5
40
5
10
94.861365760453978
20
-30.50846595087183
30
0
10
94.861365760453978
20
-29.405633359464183
30
0
10
93.968644275563861
20
-28.510923957882603
30
0
10
92.865814412360152
20
-28.508470899003164
30
0
0
LINE
5
149
100
AcDbEntity
8
0
100
AcDbLine
10
92.865814412360152
20
-28.508470899003182
30
0
11
87.331917110929766
21
-28.4961616785451
31
0
0
SPLINE
5
150
100
AcDbEntity
8
0
100
AcDbSpline
70
0
71
3
72
8
73
4
74
0
42
0.000000001
43
0.0000000001
44
0.0000000001
40
6
40
6
40
6
40
6
40
7
40
7
40
7
40
7
10
87.331917110929766
20
-28.4961616785451
30
0
10
86.229087247726085
20
-28.493708619665945
30
0
10
85.336365762835285
20
-27.598999218084153
30
0
10
85.336365762835285
20
-26.496166626676434
30
0
0
LINE
5
151
100
AcDbEntity
8
0
100
AcDbLine
10
85.336365762835285
20
-26.496166626676416
30
0
11
85.336365762835285
21
-11.441722915670205
31
0
0
SPLINE
5
152
100
AcDbEntity
8
0
100
AcDbSpline
70
0
71
3
72
8
73
4
74
0
42
0.000000001
43
0.0000000001
44
0.0000000001
40
8
40
8
40
8
40
8
40
9
40
9
40
9
40
9
10
85.336365762835285
20
-11.441722915670205
30
0
10
85.336365762835285
20
-10.337153416284899
30
0
10
86.23179626295007
20
-9.4417229161706828
30
0
10
87.336365762334779
20
-9.4417229161706828
30
0
0
LINE
5
153
100
AcDbEntity
8
0
100
AcDbLine
10
87.336365762334779
20
-9.4417229161706828
30
0
11
88.09886576214511
21
-9.4417229161706828
31
0
0
SPLINE
5
154
100
AcDbEntity
8
0
100
AcDbSpline
70
0
71
3
72
8
73
4
74
0
42
0.000000001
43
0.0000000001
44
0.0000000001
40
10
40
10
40
10
40
10
40
11
40
11
40
11
40
11
10
88.09886576214511
20
-9.4417229161706828
30
0
10
89.203435261530487
20
-9.4417229161706828
30
0
10
90.098865761644674
20
-8.5462924160564668
30
0
10
90.098865761644674
20
-7.4417229166701659
30
0
0
LINE
5
155
100
AcDbEntity
8
0
100
AcDbLine
10
90.098865761644646
20
-7.4417229166701659
30
0
11
90.098865761644646
21
7.6192305220535061
31
0
0
SPLINE
5
156
100
AcDbEntity
8
0
100
AcDbSpline
70
0
71
3
72
8
73
4
74
0
42
0.000000001
43
0.0000000001
44
0.0000000001
40
12
40
12
40
12
40
12
40
13
40
13
40
13
40
13
10
90.098865761644674
20
7.6192305220535061
30
0
10
90.098865761644674
20
8.7195131363246148
30
0
10
90.987616302182644
20
9.613157920236155
30
0
10
92.087882324634492
20
9.6192003623566436
30
0
0
LINE
5
157
100
AcDbEntity
8
0
100
AcDbLine
10
92.087882324634506
20
9.6192003623566524
30
0
11
97.634705424572772
21
9.6496624113971663
31
0
0
SPLINE
5
158
100
AcDbEntity
8
0
100
AcDbSpline
70
0
71
3
72
8
73
4
74
0
42
0.000000001
43
0.0000000001
44
0.0000000001
40
14
40
14
40
14
40
14
40
15
40
15
40
15
40
15
10
97.634705424572758
20
9.6496624113971663
30
0
10
98.734971447024677
20
9.655704853517868
30
0
10
99.623721987562575
20
10.549349637429355
30
0
10
99.623721987562575
20
11.649632251700393
30
0
0
LINE
5
159
100
AcDbEntity
8
0
100
AcDbLine
10
99.623721987562561
20
11.649632251700401
30
0
11
99.623721987562561
21
53.700018428610846
31
0
0
LINE
5
160
100
AcDbEntity
8
0
100
AcDbLine
10
99.623721987562575
20
53.700018428610846
30
0
11
99.62396927705656
21
56.124721835508673
31
0
0
LINE
5
161
100
AcDbEntity
8
0
100
AcDbLine
10
99.62396927705656
20
56.124721835508673
30
0
11
99.623969250329921
21
56.410579140222872
31
0
0
ARC
5
162
100
AcDbEntity
8
0
100
AcDbCircle
10
98.623969250329893
20
56.410579046726426
30
0
40
1.0000000000000364
210
0
220
-0
230
1
100
AcDbArc
50
5.2630142203192092e-06
51
45.573001356143415
0
LINE
5
163
100
AcDbEntity
8
0
100
AcDbLine
10
99.323969183560123
20
57.124721955028221
30
0
11
81.623971104394627
21
57.124721835508694
31
0
0
ARC
5
164
100
AcDbEntity
8
0
100
AcDbCircle
10
81.62397110236887
20
59.12472183550868
30
0
40
1.999999999999984
210
0
220
0
230
1
100
AcDbArc
50
180
51
270.00000005803366
0
ARC
5
165
100
AcDbEntity
8
0
100
AcDbCircle
10
77.623971102368884
20
59.12472183550868
30
0
40
2.0000000000000018
210
0
220
-0
230
1
100
AcDbArc
50
0
51
90
0
LINE
5
166
100
AcDbEntity
8
0
100
AcDbLine
10
77.623971102368884
20
61.12472183550868
30
0
11
71.62397110236887
21
61.124721835508694
31
0
0
SPLINE
5
167
100
AcDbEntity
8
0
100
AcDbSpline
70
0
71
3
72
43
73
39
74
0
42
0.000000001
43
0.0000000001
44
0.0000000001
40
0.079886210074302411
40
0.079886210074302411
40
0.079886210074302411
40
0.079886210074302411
40
0.08029444369295459
40
0.08029444369295459
40
0.12042692691910276
40
0.12042692691910276
40
0.1606140620786323
40
0.1606140620786323
40
0.20237852567948411
40
0.20237852567948411
40
0.2452691546370907
40
0.2452691546370907
40
0.2875380217729957
40
0.2875380217729957
40
0.32972734049293279
40
0.32972734049293279
40
0.3735782604621975
40
0.3735782604621975
40
0.41861027861181432
40
0.41861027861181432
40
0.4629708863855726
40
0.4629708863855726
40
0.50711080032608691
40
0.50711080032608691
40
0.55299208891795482
40
0.55299208891795482
40
0.60011128269165215
40
0.60011128269165215
40
0.64204093757826131
40
0.64204093757826131
40
0.66368408071177076
40
0.66368408071177076
40
0.68524910749948653
40
0.68524910749948653
40
0.68524910749948653
40
0.72485599228612185
40
0.72485599228612185
40
0.76513531757378894
40
0.76513531757378894
40
0.76513531757378894
40
0.76513531757378894
10
96.623865759988789
20
51.708277068541967
30
0
10
96.62386576006179
20
51.706949801754959
30
0
10
96.623863192070644
20
51.705622422248979
30
0
10
96.62335279137244
20
51.573792947622159
30
0
10
96.598015876391287
20
51.446480987510775
30
0
10
96.500324340509906
20
51.208469990036747
30
0
10
96.429072254579523
20
51.100802798127489
30
0
10
96.24836138545318
20
50.915392719754735
30
0
10
96.139021254735169
20
50.840515631093496
30
0
10
95.896303600320451
20
50.736312798274795
30
0
10
95.765590115733502
20
50.709526589642536
30
0
10
95.502804074382638
20
50.707130464723278
30
0
10
95.37464688993451
20
50.730814748033303
30
0
10
95.135197128849086
20
50.825572060722251
30
0
10
95.026725451571664
20
50.895387851288433
30
0
10
94.83913780005976
20
51.073583535320424
30
0
10
94.762890406289969
20
51.181885658561221
30
0
10
94.655569351295782
20
51.423045535760608
30
0
10
94.627044810142763
20
51.553329508316814
30
0
10
94.621232895317263
20
51.815815860474721
30
0
10
94.643252018047491
20
51.944857577257046
30
0
10
94.73504386706233
20
52.185706126417486
30
0
10
94.803413093291041
20
52.294969019024762
30
0
10
94.979065222140932
20
52.484704481105254
30
0
10
95.086307249877123
20
52.562306583034598
30
0
10
95.325869462820322
20
52.672730116286516
30
0
10
95.455707005493707
20
52.702990894119864
30
0
10
95.705337634059489
20
52.711782647218648
30
0
10
95.836345597456912
20
52.696061514718451
30
0
10
96.03798585941496
20
52.622136639153993
30
0
10
96.103156730844063
20
52.58964225211038
30
0
10
96.224410960806225
20
52.511899613502912
30
0
10
96.280587459471306
20
52.466657278936097
30
0
10
96.331416715064847
20
52.415828023342513
30
0
10
96.424771037779152
20
52.322473700628123
30
0
10
96.498260951725342
20
52.212116614156734
30
0
10
96.598823463397693
20
51.969095488645749
30
0
10
96.623865335888425
20
51.839234952003572
30
0
10
96.623865759988789
20
51.708277068541967
30
0
0
SPLINE
5
168
100
AcDbEntity
8
0
100
AcDbSpline
70
0
71
3
72
43
73
39
74
0
42
0.000000001
43
0.0000000001
44
0.0000000001
40
0.079886210073844624
40
0.079886210073844624
40
0.079886210073844624
40
0.079886210073844624
40
0.080294443692564235
40
0.080294443692564235
40
0.12042692691820427
40
0.12042692691820427
40
0.16061406207702927
40
0.16061406207702927
40
0.20237852567690748
40
0.20237852567690748
40
0.24526915463325832
40
0.24526915463325832
40
0.28753802176760251
40
0.28753802176760251
40
0.32972734048583646
40
0.32972734048583646
40
0.3735782604531297
40
0.3735782604531297
40
0.41861027860042249
40
0.41861027860042249
40
0.46297088637162254
40
0.46297088637162254
40
0.50711080030940869
40
0.50711080030940869
40
0.55299208889830498
40
0.55299208889830498
40
0.60011128266875835
40
0.60011128266875835
40
0.64204093755399783
40
0.64204093755399783
40
0.66368408068742901
40
0.66368408068742901
40
0.68524910747510881
40
0.68524910747510881
40
0.68524910747510881
40
0.72485599226164865
40
0.72485599226164865
40
0.76513531754895348
40
0.76513531754895348
40
0.76513531754895348
40
0.76513531754895348
10
91.861365761178732
20
-51.518812438166265
30
0
10
91.861365761251733
20
-51.520139704953451
30
0
10
91.861363193260587
20
-51.521467084459651
30
0
10
91.860852792562312
20
-51.653296559086343
30
0
10
91.835515877581159
20
-51.780608519197614
30
0
10
91.737824341699707
20
-52.018619516671393
30
0
10
91.666572255769566
20
-52.12628670858065
30
0
10
91.485861386642767
20
-52.311696786953661
30
0
10
91.376521255924729
20
-52.3865738756149
30
0
10
91.133803601510039
20
-52.490776708433359
30
0
10
91.00309011692319
20
-52.517562917065618
30
0
10
90.740304075572894
20
-52.519959041984606
30
0
10
90.612146891124553
20
-52.496274758674687
30
0
10
90.372697130039029
20
-52.401517445985597
30
0
10
90.264225452761465
20
-52.331701655419351
30
0
10
90.076637801249774
20
-52.153505971387389
30
0
10
90.000390407479841
20
-52.045203848146627
30
0
10
89.893069352485838
20
-51.804043970947276
30
0
10
89.864544811332735
20
-51.673759998391233
30
0
10
89.858732896507391
20
-51.41127364623344
30
0
10
89.880752019237505
20
-51.282231929451036
30
0
10
89.972543868252458
20
-51.04138338029054
30
0
10
90.040913094481198
20
-50.932120487683186
30
0
10
90.216565223330946
20
-50.742385025602914
30
0
10
90.323807251067038
20
-50.664782923673535
30
0
10
90.563369464010236
20
-50.554359390421638
30
0
10
90.69320700668365
20
-50.524098612588105
30
0
10
90.942837635254619
20
-50.515306859489115
30
0
10
91.073845598651261
20
-50.531027991990953
30
0
10
91.275485860605215
20
-50.604952867554012
30
0
10
91.34065673203439
20
-50.637447254597738
30
0
10
91.461910961996594
20
-50.715189893205341
30
0
10
91.518087460661746
20
-50.760432227772313
30
0
10
91.568916716255146
20
-50.811261483365833
30
0
10
91.662271038969138
20
-50.904615806080074
30
0
10
91.735760952915427
20
-51.014972892551498
30
0
10
91.836323464587565
20
-51.25799401806244
30
0
10
91.861365337078368
20
-51.387854554704489
30
0
10
91.861365761178732
20
-51.518812438166215
30
0
0
ENDSEC
0
SECTION
2
OBJECTS
0
DICTIONARY
5
C
100
AcDbDictionary
3
ACAD_GROUP
350
D
3
ACAD_MLINESTYLE
350
17
0
DICTIONARY
5
D
100
AcDbDictionary
0
DICTIONARY
5
1A
330
C
100
AcDbDictionary
0
DICTIONARY
5
17
100
AcDbDictionary
0
ENDSEC
0
EOF
