0
SECTION
2
HEADER
9
$INSUNITS
70
4
9
$ACADVER
1
AC1014
9
$HANDSEED
5
FFFF
0
ENDSEC
0
SECTION
2
TABLES
0
TABLE
2
VPORT
5
8
100
AcDbSymbolTable
0
ENDTAB
0
TABLE
2
LTYPE
5
5
100
AcDbSymbolTable
0
LTYPE
5
14
100
AcDbSymbolTableRecord
100
AcDbLinetypeTableRecord
2
BYBLOCK
70
0
0
LTYPE
5
15
100
AcDbSymbolTableRecord
100
AcDbLinetypeTableRecord
2
BYLAYER
70
0
0
ENDTAB
0
TABLE
2
LAYER
5
2
100
AcDbSymbolTable
70
2
0
LAYER
5
50
100
AcDbSymbolTableRecord
100
AcDbLayerTableRecord
2
0
70
0
6
CONTINUOUS
0
ENDTAB
0
TABLE
2
STYLE
5
3
100
AcDbSymbolTable
70
1
0
STYLE
5
11
100
AcDbSymbolTableRecord
100
AcDbTextStyleTableRecord
2
STANDARD
70
0
0
ENDTAB
0
TABLE
2
VIEW
5
6
100
AcDbSymbolTable
70
0
0
ENDTAB
0
TABLE
2
UCS
5
7
100
AcDbSymbolTable
70
0
0
ENDTAB
0
TABLE
2
APPID
5
9
100
AcDbSymbolTable
70
2
0
APPID
5
12
100
AcDbSymbolTableRecord
100
AcDbRegAppTableRecord
2
ACAD
70
0
0
ENDTAB
0
TABLE
2
DIMSTYLE
5
A
100
AcDbSymbolTable
70
1
0
ENDTAB
0
TABLE
2
BLOCK_RECORD
5
1
100
AcDbSymbolTable
70
1
0
BLOCK_RECORD
5
1F
100
AcDbSymbolTableRecord
100
AcDbBlockTableRecord
2
*MODEL_SPACE
0
BLOCK_RECORD
5
1B
100
AcDbSymbolTableRecord
100
AcDbBlockTableRecord
2
*PAPER_SPACE
0
ENDTAB
0
ENDSEC
0
SECTION
2
BLOCKS
0
BLOCK
5
20
100
AcDbEntity
100
AcDbBlockBegin
2
*MODEL_SPACE
0
ENDBLK
5
21
100
AcDbEntity
100
AcDbBlockEnd
0
BLOCK
5
1C
100
AcDbEntity
100
AcDbBlockBegin
2
*PAPER_SPACE
0
ENDBLK
5
1D
100
AcDbEntity
100
AcDbBlockEnd
0
ENDSEC
0
SECTION
2
ENTITIES
0
CIRCLE
5
100
100
AcDbEntity
8
0
100
AcDbCircle
10
57.462012529678574
20
-7.5134254663227651
30
0
40
0.99999999999997868
210
0
220
0
230
1
0
CIRCLE
5
101
100
AcDbEntity
8
0
100
AcDbCircle
10
-69.124662953897598
20
-27.517819437047315
30
0
40
0.99999999999999645
210
0
220
0
230
1
0
CIRCLE
5
102
100
AcDbEntity
8
0
100
AcDbCircle
10
57.461821251076088
20
-27.513425478600801
30
0
40
1.0000000000000142
210
0
220
0
230
1
0
CIRCLE
5
103
100
AcDbEntity
8
0
100
AcDbCircle
10
-69.124471675295098
20
-7.5178194247692787
30
0
40
0.99999999999998757
210
0
220
0
230
1
0
SPLINE
5
104
100
AcDbEntity
8
0
100
AcDbSpline
70
0
71
3
72
14
73
10
74
0
42
0.000000001
43
0.0000000001
44
0.0000000001
40
0
40
0
40
0
40
0
40
0.11719334201607777
40
0.11719334201607777
40
0.23438668403215718
40
0.23438668403215718
40
0.32860203331689924
40
0.32860203331689924
40
0.4228173826016482
40
0.4228173826016482
40
0.4228173826016482
40
0.4228173826016482
10
28.061065684608444
20
-70.021584222623105
30
0
10
28.125272524221039
20
-69.636252435282998
30
0
10
28.264129378023881
20
-69.267145653376076
30
0
10
28.675511442153478
20
-68.602933928348989
30
0
10
28.94410361572664
20
-68.314179211343458
30
0
10
29.514822376102963
20
-67.90080766139738
30
0
10
29.796523233520382
20
-67.757662354272256
30
0
10
30.394023892453532
20
-67.563998992421958
30
0
10
30.706134852004965
20
-67.514676574095603
30
0
10
31.020186016175018
20
-67.514668170764793
30
0
0
LINE
5
105
100
AcDbEntity
8
0
100
AcDbLine
10
31.020186016175018
20
-67.514668170764793
30
0
11
52.219325753118397
21
-67.514100927575868
31
0
0
SPLINE
5
106
100
AcDbEntity
8
0
100
AcDbSpline
70
0
71
3
72
16
73
12
74
0
42
0.000000001
43
0.0000000001
44
0.0000000001
40
0
40
0
40
0
40
0
40
0.11719334201607948
40
0.11719334201607948
40
0.23438668403215585
40
0.23438668403215585
40
0.35158002604823752
40
0.35158002604823752
40
0.41200811087041966
40
0.41200811087041966
40
0.4724361956926062
40
0.4724361956926062
40
0.4724361956926062
40
0.4724361956926062
10
55.21924547959852
20
-64.514100928649825
30
0
10
55.21924547959852
20
-64.904745402036767
30
0
10
55.142943927304628
20
-65.291655101340424
30
0
10
54.846327289294976
20
-66.014448978186948
30
0
10
54.628848020307075
20
-66.343422852314063
30
0
10
54.080030094213321
20
-66.899490566130595
30
0
10
53.753938435609783
20
-67.121268095395607
30
0
10
53.209192233638802
20
-67.353216678335386
30
0
10
53.016388555737883
20
-67.413262140467936
30
0
10
52.621668006089983
20
-67.493803753785215
30
0
10
52.420752702453619
20
-67.514095537825781
30
0
10
52.219325753118433
20
-67.514100927575868
30
0
0
LINE
5
107
100
AcDbEntity
8
0
100
AcDbLine
10
55.21924547959852
20
-64.514100928649825
30
0
11
55.21924547959852
21
-51.015873233015299
31
0
0
ARC
5
108
100
AcDbEntity
8
0
100
AcDbCircle
10
58.219245479598527
20
-51.015873233015299
30
0
40
3.0000000000000071
210
-0
220
0
230
1
100
AcDbArc
50
90
51
180
0
LINE
5
109
100
AcDbEntity
8
0
100
AcDbLine
10
58.219245479598527
20
-48.015873233015292
30
0
11
64.244237193653646
21
-48.015873233015292
31
0
0
ARC
5
110
100
AcDbEntity
8
0
100
AcDbCircle
10
64.244237193653646
20
-51.015873233015299
30
0
40
3.0000000000000071
210
0
220
-0
230
1
100
AcDbArc
50
0
51
90
0
LINE
5
111
100
AcDbEntity
8
0
100
AcDbLine
10
67.244237193653646
20
-51.015873233015299
30
0
11
67.244237193653646
21
-64.513618618805765
31
0
0
SPLINE
5
112
100
AcDbEntity
8
0
100
AcDbSpline
70
0
71
3
72
16
73
12
74
0
42
0.000000001
43
0.0000000001
44
0.0000000001
40
0
40
0
40
0
40
0
40
0.11719334201607902
40
0.11719334201607902
40
0.23438668403215582
40
0.23438668403215582
40
0.35158002604823563
40
0.35158002604823563
40
0.41201615851636864
40
0.41201615851636864
40
0.47245229098450053
40
0.47245229098450053
40
0.47245229098450053
40
0.47245229098450053
10
70.244317467173573
20
-67.513618617731794
30
0
10
69.853672993926494
20
-67.513629070534108
30
0
10
69.466761253096621
20
-67.437337871135355
30
0
10
68.743959439688325
20
-67.140740573634744
30
0
10
68.414979746403503
20
-66.923270107354995
30
0
10
67.858897347603772
20
-66.374467060628618
30
0
10
67.637111092909777
20
-66.048381336429443
30
0
10
67.405137424068016
20
-65.503616660095531
30
0
10
67.345081344990689
20
-65.310787978843081
30
0
10
67.26452900536313
20
-64.916014861399248
30
0
10
67.244237193653646
20
-64.715072393699543
30
0
10
67.244237193653646
20
-64.513618618805765
30
0
0
SPLINE
5
113
100
AcDbEntity
8
0
100
AcDbSpline
70
0
71
3
72
22
73
18
74
0
42
0.000000001
43
0.0000000001
44
0.0000000001
40
3.922413146504057
40
3.922413146504057
40
3.922413146504057
40
3.922413146504057
40
5.46108311359027
40
5.46108311359027
40
6.3712636325219796
40
6.3712636325219796
40
6.8263548797346774
40
6.8263548797346774
40
6.9898854292893144
40
6.9898854292893144
40
7.1162825005580856
40
7.1162825005580856
40
7.2441542146127427
40
7.2441542146127427
40
7.3707236684829791
40
7.3707236684829791
40
7.3939807341922519
40
7.3939807341922519
40
7.3939807341922519
40
7.3939807341922519
10
70.244317467173659
20
-67.51361861773178
30
0
10
75.373217355624973
20
-67.513481379449246
30
0
10
80.502117244076203
20
-67.513344141166726
30
0
10
88.664952194547027
20
-67.513125721335285
30
0
10
91.698887256566621
20
-67.51304453978635
30
0
10
96.249793142085451
20
-67.512922767374874
30
0
10
97.766763965584715
20
-67.512882176512292
30
0
10
99.828836620737633
20
-67.512826999902131
30
0
10
100.08808334778919
20
-67.512820063019703
30
0
10
100.64934204276938
20
-67.318437929477085
30
0
10
100.87504042638685
20
-67.186576464312594
30
0
10
101.26602230829533
20
-66.843043174902135
30
0
10
101.42747622245483
20
-66.633176707356967
30
0
10
101.658510032192
20
-66.166147765022117
30
0
10
101.72653955502955
20
-65.914801942095039
30
0
10
101.74819534982018
20
-65.608217312003973
30
0
10
101.74986558459995
20
-65.560522818597704
30
0
10
101.74986580013947
20
-65.512838152976926
30
0
0
LINE
5
114
100
AcDbEntity
8
0
100
AcDbLine
10
101.74986580013947
20
-65.512838152976926
30
0
11
101.74999144972998
21
-37.714876794796609
31
0
0
SPLINE
5
115
100
AcDbEntity
8
0
100
AcDbSpline
70
0
71
3
72
8
73
4
74
0
42
0.000000001
43
0.0000000001
44
0.0000000001
40
3
40
3
40
3
40
3
40
4
40
4
40
4
40
4
10
101.74999144972998
20
-37.714876794796609
30
0
10
101.74999645886348
20
-36.606686085813905
30
0
10
100.84891112321927
20
-35.709758730660695
30
0
10
99.740732290221075
20
-35.714889188220802
30
0
0
LINE
5
116
100
AcDbEntity
8
0
100
AcDbLine
10
99.740732290221075
20
-35.714889188220823
30
0
11
94.234259693833053
21
-35.740382116907803
31
0
0
SPLINE
5
117
100
AcDbEntity
8
0
100
AcDbSpline
70
0
71
3
72
8
73
4
74
0
42
0.000000001
43
0.0000000001
44
0.0000000001
40
5
40
5
40
5
40
5
40
6
40
6
40
6
40
6
10
94.234259693833053
20
-35.740382116907803
30
0
10
93.126084394608597
20
-35.745512558107691
30
0
10
92.225000534303547
20
-34.848590725715823
30
0
10
92.225000534303547
20
-33.740403550533813
30
0
0
LINE
5
118
100
AcDbEntity
8
0
100
AcDbLine
10
92.225000534303547
20
-33.740403550533813
30
0
11
92.225000534303547
21
-18.695240532140875
31
0
0
SPLINE
5
119
100
AcDbEntity
8
0
100
AcDbSpline
70
0
71
3
72
8
73
4
74
0
42
0.000000001
43
0.0000000001
44
0.0000000001
40
7
40
7
40
7
40
7
40
8
40
8
40
8
40
8
10
92.225000534303547
20
-18.695240532140875
30
0
10
92.225000534303547
20
-17.592407940733192
30
0
10
91.332279049412719
20
-16.697698539151702
30
0
10
90.229449186209791
20
-16.695245480272192
30
0
0
LINE
5
120
100
AcDbEntity
8
0
100
AcDbLine
10
90.22944918620982
20
-16.695245480272209
30
0
11
84.695551884778624
21
-16.682936259814216
31
0
0
SPLINE
5
121
100
AcDbEntity
8
0
100
AcDbSpline
70
0
71
3
72
8
73
4
74
0
42
0.000000001
43
0.0000000001
44
0.0000000001
40
9
40
9
40
9
40
9
40
10
40
10
40
10
40
10
10
84.695551884778624
20
-16.682936259814216
30
0
10
83.592722021575696
20
-16.680483200935026
30
0
10
82.700000536684854
20
-15.785773799353198
30
0
10
82.700000536684854
20
-14.68294120794539
30
0
0
LINE
5
122
100
AcDbEntity
8
0
100
AcDbLine
10
82.700000536684854
20
-14.68294120794539
30
0
11
82.700000536684854
21
0.37150250306050125
31
0
0
SPLINE
5
123
100
AcDbEntity
8
0
100
AcDbSpline
70
0
71
3
72
8
73
4
74
0
42
0.000000001
43
0.0000000001
44
0.0000000001
40
11
40
11
40
11
40
11
40
12
40
12
40
12
40
12
10
82.700000536684854
20
0.37150250306050125
30
0
10
82.700000536684854
20
1.4760720024463936
30
0
10
83.595431036799653
20
2.3715025025599701
30
0
10
84.700000536184376
20
2.3715025025599701
30
0
0
LINE
5
124
100
AcDbEntity
8
0
100
AcDbLine
10
84.700000536184348
20
2.3715025025599701
30
0
11
85.46250053599465
21
2.3715025025599701
31
0
0
SPLINE
5
125
100
AcDbEntity
8
0
100
AcDbSpline
70
0
71
3
72
8
73
4
74
0
42
0.000000001
43
0.0000000001
44
0.0000000001
40
13
40
13
40
13
40
13
40
14
40
14
40
14
40
14
10
85.46250053599465
20
2.3715025025599701
30
0
10
86.567070035379388
20
2.3715025025599701
30
0
10
87.462500535494286
20
3.26693300267479
30
0
10
87.462500535494286
20
4.3715025020608067
30
0
0
LINE
5
126
100
AcDbEntity
8
0
100
AcDbLine
10
87.462500535494286
20
4.3715025020608067
30
0
11
87.462500535494286
21
19.432455940784603
31
0
0
SPLINE
5
127
100
AcDbEntity
8
0
100
AcDbSpline
70
0
71
3
72
8
73
4
74
0
42
0.000000001
43
0.0000000001
44
0.0000000001
40
15
40
15
40
15
40
15
40
16
40
16
40
16
40
16
10
87.462500535494286
20
19.432455940784603
30
0
10
87.462500535494286
20
20.532738555055605
30
0
10
88.351251076032185
20
21.426383338967074
30
0
10
89.45151709848335
20
21.432425781087598
30
0
0
LINE
5
128
100
AcDbEntity
8
0
100
AcDbLine
10
89.45151709848335
20
21.432425781087598
30
0
11
94.998340198422369
21
21.462887830128228
31
0
0
SPLINE
5
129
100
AcDbEntity
8
0
100
AcDbSpline
70
0
71
3
72
8
73
4
74
0
42
0.000000001
43
0.0000000001
44
0.0000000001
40
17
40
17
40
17
40
17
40
18
40
18
40
18
40
18
10
94.998340198422369
20
21.462887830128228
30
0
10
96.098606220873563
20
21.468930272248823
30
0
10
96.987356761411476
20
22.362575056160292
30
0
10
96.987356761411476
20
23.462857670431294
30
0
0
LINE
5
130
100
AcDbEntity
8
0
100
AcDbLine
10
96.987356761411476
20
23.462857670431259
30
0
11
96.987356761411476
21
65.513243847341784
31
0
0
SPLINE
5
131
100
AcDbEntity
8
0
100
AcDbSpline
70
0
71
3
72
8
73
4
74
0
42
0.000000001
43
0.0000000001
44
0.0000000001
40
19
40
19
40
19
40
19
40
20
40
20
40
20
40
20
10
96.987356761411476
20
65.513243847341784
30
0
10
96.987356761411476
20
66.617686404990849
30
0
10
96.092124365091749
20
67.513064315311567
30
0
10
94.987681822030396
20
67.51324382042641
30
0
0
LINE
5
132
100
AcDbEntity
8
0
100
AcDbLine
10
94.987681822030396
20
67.51324382042641
30
0
11
60.261132849252945
21
67.518887928563828
31
0
0
ARC
5
133
100
AcDbEntity
8
0
100
AcDbCircle
10
60.261620439430672
20
70.518887888939744
30
0
40
2.9999999999999467
210
0
220
0
230
1
100
AcDbArc
50
189.57767298354031
51
269.9906877135204
0
ARC
5
134
100
AcDbEntity
8
0
100
AcDbCircle
10
54.345254747568781
20
69.520580821871349
30
0
40
2.9999999999999813
210
0
220
-0
230
1
100
AcDbArc
50
9.5776729835402978
51
90
0
LINE
5
135
100
AcDbEntity
8
0
100
AcDbLine
10
54.345254747568781
20
72.520580821871349
30
0
11
45.345254747568795
21
72.520580821871349
31
0
0
ARC
5
136
100
AcDbEntity
8
0
100
AcDbCircle
10
45.345254747568795
20
69.520580821871349
30
0
40
3.0000000000000071
210
-0
220
0
230
1
100
AcDbArc
50
90
51
170.38953587013583
0
ARC
5
137
100
AcDbEntity
8
0
100
AcDbCircle
10
39.429461369187351
20
70.522273741032905
30
0
40
3.0000000000000182
210
0
220
0
230
1
100
AcDbArc
50
269.99068771351904
51
350.38953587013668
0
LINE
5
138
100
AcDbEntity
8
0
100
AcDbLine
10
39.428973779009553
20
67.522273780656917
30
0
11
-37.301621048708654
21
67.534744808946868
31
0
0
ARC
5
139
100
AcDbEntity
8
0
100
AcDbCircle
10
-37.301133458530828
20
70.534744769322813
30
0
40
2.9999999999999893
210
0
220
0
230
1
100
AcDbArc
50
189.65455002225966
51
269.99068771351853
0
ARC
5
140
100
AcDbEntity
8
0
100
AcDbCircle
10
-43.216154339200905
20
69.528500275555359
30
0
40
3.0000000000000422
210
0
220
-0
230
1
100
AcDbArc
50
9.6545500222597909
51
90
0
LINE
5
141
100
AcDbEntity
8
0
100
AcDbLine
10
-43.216154339200905
20
72.528500275555402
30
0
11
-52.216154339200912
21
72.528500275555373
31
0
0
ARC
5
142
100
AcDbEntity
8
0
100
AcDbCircle
10
-52.216154339200912
20
69.528500275555359
30
0
40
3.0000000000000071
210
-0
220
0
230
1
100
AcDbArc
50
90
51
170.31265560490618
0
ARC
5
143
100
AcDbEntity
8
0
100
AcDbCircle
10
-58.130598307059138
20
70.538130183523919
30
0
40
2.9999999999999472
210
0
220
0
230
1
100
AcDbArc
50
269.99068771351727
51
350.31265560490687
0
LINE
5
144
100
AcDbEntity
8
0
100
AcDbLine
10
-58.131085897237028
20
67.538130223148002
30
0
11
-92.74934351278074
21
67.543756730684393
31
0
0
SPLINE
5
145
100
AcDbEntity
8
0
100
AcDbSpline
70
0
71
3
72
14
73
10
74
0
42
0.000000001
43
0.0000000001
44
0.0000000001
40
0
40
0
40
0
40
0
40
0.15925917083909158
40
0.15925917083909158
40
0.3144314615836874
40
0.3144314615836874
40
0.47168444793306724
40
0.47168444793306724
40
0.63220443361382084
40
0.63220443361382084
40
0.63220443361382084
40
0.63220443361382084
10
-92.74934351278074
20
67.543756730684393
30
0
10
-93.280207408566042
20
67.54384301202586
30
0
10
-93.80168501242899
20
67.440513977417481
30
0
10
-94.766847868109011
20
67.037377001801005
30
0
10
-95.200186615957875
20
66.747312265712623
30
0
10
-95.937675068046843
20
66.015976477892181
30
0
10
-96.234292610978969
20
65.578404286166304
30
0
10
-96.644925260318615
20
64.604324274129382
30
0
10
-96.749993608208328
20
64.078850706612428
30
0
10
-96.749993632017635
20
63.54375696249933
30
0
0
LINE
5
146
100
AcDbEntity
8
0
100
AcDbLine
10
-96.749993632017635
20
63.543756962499373
30
0
11
-96.749995995393476
21
10.428968301601405
31
0
0
ARC
5
147
100
AcDbEntity
8
0
100
AcDbCircle
10
-99.749995995393419
20
10.428968435088262
30
0
40
2.9999999999999449
210
-0
220
0
230
1
100
AcDbArc
50
279.5940637382667
51
359.99999743867909
0
ARC
5
148
100
AcDbEntity
8
0
100
AcDbCircle
10
-98.749996458863478
20
4.5128885736479596
30
0
40
3.0000000000000209
210
0
220
0
230
1
100
AcDbArc
50
99.594063738267025
51
180
0
LINE
5
149
100
AcDbEntity
8
0
100
AcDbLine
10
-101.74999645886348
20
4.5128885736479951
30
0
11
-101.74999645886348
21
-4.4871114263520262
31
0
0
ARC
5
150
100
AcDbEntity
8
0
100
AcDbCircle
10
-98.749996458863478
20
-4.4871114263520262
30
0
40
3.0000000000000071
210
0
220
0
230
1
100
AcDbArc
50
180
51
260.40592728454669
0
ARC
5
151
100
AcDbEntity
8
0
100
AcDbCircle
10
-99.74999692233348
20
-10.403191131110923
30
0
40
3.0000000000000284
210
-0
220
0
230
1
100
AcDbArc
50
-2.5613209387547816e-06
51
80.405927284546181
0
LINE
5
152
100
AcDbEntity
8
0
100
AcDbLine
10
-96.749996922333452
20
-10.403191264597762
30
0
11
-96.749999285709265
21
-63.517979815203383
31
0
0
SPLINE
5
153
100
AcDbEntity
8
0
100
AcDbSpline
70
0
71
3
72
14
73
10
74
0
42
0.000000001
43
0.0000000001
44
0.0000000001
40
0
40
0
40
0
40
0
40
0.15925800962163697
40
0.15925800962163697
40
0.31443075588343655
40
0.31443075588343655
40
0.47168334063581663
40
0.47168334063581663
40
0.63214898580754608
40
0.63214898580754608
40
0.63214898580754608
40
0.63214898580754608
10
-96.749999285709279
20
-63.517979815203383
30
0
10
-96.749999309330263
20
-64.048839847275502
30
0
10
-96.646586309010331
20
-64.570297598069686
30
0
10
-96.243295829947542
20
-65.535393989416491
30
0
10
-95.95316083115344
20
-65.968687941443534
30
0
10
-95.22170609711381
20
-66.706059213157289
30
0
10
-94.784087538202925
20
-67.002605406194661
30
0
10
-93.81010860394187
20
-67.413010704722737
30
0
10
-93.284804095364763
20
-67.517994303839629
30
0
10
-92.749892255348641
20
-67.517979990754071
30
0
0
LINE
5
154
100
AcDbEntity
8
0
100
AcDbLine
10
-92.749892255348641
20
-67.517979990754057
30
0
11
-79.505932377786763
21
-67.517625610992141
31
0
0
ARC
5
155
100
AcDbEntity
8
0
100
AcDbCircle
10
-79.505852104266182
20
-70.517625609918142
30
0
40
2.9999999999999711
210
0
220
-0
230
1
100
AcDbArc
50
9.6155793184631655
51
90.00153311131217
0
ARC
5
156
100
AcDbEntity
8
0
100
AcDbCircle
10
-73.590148177481638
20
-69.515404551156394
30
0
40
2.9999999999999933
210
0
220
0
230
1
100
AcDbArc
50
189.61557931846343
51
270
0
LINE
5
157
100
AcDbEntity
8
0
100
AcDbLine
10
-73.590148177481638
20
-72.515404551156394
30
0
11
-64.590148177481666
21
-72.515404551156394
31
0
0
ARC
5
158
100
AcDbEntity
8
0
100
AcDbCircle
10
-64.590148177481666
20
-69.515404551156394
30
0
40
3.0000000000000071
210
-0
220
0
230
1
100
AcDbArc
50
270
51
350.38981932171504
0
ARC
5
159
100
AcDbEntity
8
0
100
AcDbCircle
10
-58.674349843634147
20
-70.517068203909687
30
0
40
3.0000000000000124
210
0
220
0
230
1
100
AcDbArc
50
90.001533111311886
51
170.38981932171481
0
LINE
5
160
100
AcDbEntity
8
0
100
AcDbLine
10
-58.674430117154714
20
-67.517068204983644
30
0
11
-33.134598939616978
21
-67.516384814262423
31
0
0
ARC
5
161
100
AcDbEntity
8
0
100
AcDbCircle
10
-33.134679213137517
20
-64.516384815336409
30
0
40
2.9999999999999947
210
-0
220
0
230
1
100
AcDbArc
50
-89.998466888688654
51
0
0
LINE
5
162
100
AcDbEntity
8
0
100
AcDbLine
10
-30.13467921313751
20
-64.516384815336409
30
0
11
-30.134679213137527
21
-57.015873233015299
31
0
0
ARC
5
163
100
AcDbEntity
8
0
100
AcDbCircle
10
-27.13467921313752
20
-57.015873233015299
30
0
40
3.0000000000000071
210
-0
220
0
230
1
100
AcDbArc
50
90
51
180
0
LINE
5
164
100
AcDbEntity
8
0
100
AcDbLine
10
-27.13467921313752
20
-54.015873233015284
30
0
11
-16.515663230948707
21
-54.015873233015284
31
0
0
ARC
5
165
100
AcDbEntity
8
0
100
AcDbCircle
10
-16.515663230948707
20
-57.015873233015299
30
0
40
3.0000000000000071
210
0
220
-0
230
1
100
AcDbArc
50
0
51
90
0
LINE
5
166
100
AcDbEntity
8
0
100
AcDbLine
10
-13.5156632309487
20
-57.015873233015299
30
0
11
-13.5156632309487
21
-64.515779579321446
31
0
0
ARC
5
167
100
AcDbEntity
8
0
100
AcDbCircle
10
-10.515663230948693
20
-64.515779579321432
30
0
40
3.0000000000000071
210
0
220
0
230
1
100
AcDbArc
50
180
51
270.00153311131174
0
LINE
5
168
100
AcDbEntity
8
0
100
AcDbLine
10
-10.515582957428133
20
-67.515779578247475
30
0
11
10.183476525161499
21
-67.515225716121648
31
0
0
ARC
5
169
100
AcDbEntity
8
0
100
AcDbCircle
10
10.183556798682059
20
-70.515225715047734
30
0
40
3.0000000000000475
210
0
220
-0
230
1
100
AcDbArc
50
9.4655316318319098
51
90.001533111311772
0
ARC
5
170
100
AcDbEntity
8
0
100
AcDbCircle
10
16.101865079522
20
-69.528500275555359
30
0
40
2.9999999999999556
210
0
220
0
230
1
100
AcDbArc
50
189.46553163183165
51
270
0
LINE
5
171
100
AcDbEntity
8
0
100
AcDbLine
10
16.101865079522
20
-72.528500275555373
30
0
11
25.101865079521986
21
-72.528500275555331
31
0
0
ARC
5
172
100
AcDbEntity
8
0
100
AcDbCircle
10
25.101865079522021
20
-69.528500275555388
30
0
40
2.9999999999999538
210
0
220
0
230
1
100
AcDbArc
50
269.99999999999932
51
350.53986598240198
0
SPLINE
5
173
100
AcDbEntity
8
0
100
AcDbSpline
70
0
71
3
72
17
73
13
74
0
42
0.000000001
43
0.0000000001
44
0.0000000001
40
-4
40
-4
40
-4
40
-4
40
-3
40
-3
40
-3
40
-2
40
-2
40
-2
40
-1
40
-1
40
-1
40
0
40
0
40
0
40
0
10
94.08750053383767
20
63.521502487272926
30
0
10
94.08750053383767
20
62.913989262644577
30
0
10
93.59501375874089
20
62.421502487547812
30
0
10
92.987500534113252
20
62.421502487547812
30
0
10
92.379987309484363
20
62.421502487547812
30
0
10
91.887500534387556
20
62.913989262644577
30
0
10
91.887500534387556
20
63.521502487272926
30
0
10
91.887500534387556
20
64.129015711899925
30
0
10
92.379987309484363
20
64.621502486997983
30
0
10
92.987500534113252
20
64.621502486997983
30
0
10
93.59501375874089
20
64.621502486997983
30
0
10
94.08750053383767
20
64.129015711899925
30
0
10
94.08750053383767
20
63.521502487272926
30
0
0
CIRCLE
5
174
100
AcDbEntity
8
0
100
AcDbCircle
10
-69.090148177481638
20
-70.515404551156394
30
0
40
0.99999999999999645
210
0
220
0
230
1
0
SPLINE
5
175
100
AcDbEntity
8
0
100
AcDbSpline
70
0
71
3
72
17
73
13
74
0
42
0.000000001
43
0.0000000001
44
0.0000000001
40
-4
40
-4
40
-4
40
-4
40
-3
40
-3
40
-3
40
-2
40
-2
40
-2
40
-1
40
-1
40
-1
40
0
40
0
40
0
40
0
10
-7.7874121145238284
20
17.562728527087987
30
0
10
-8.6158398568911565
20
17.562728527087987
30
0
10
-9.2874125279477049
20
18.234301198144696
30
0
10
-9.2874125279477049
20
19.062728940511295
30
0
10
-9.2874125279477049
20
19.891156682879316
30
0
10
-8.6158398568911565
20
20.562729353935882
30
0
10
-7.7874121145238284
20
20.562729353935882
30
0
10
-6.9589843721564293
20
20.562729353935882
30
0
10
-6.2874117010998454
20
19.891156682879316
30
0
10
-6.2874117010998454
20
19.062728940511295
30
0
10
-6.2874117010998454
20
18.234301198144696
30
0
10
-6.9589843721564293
20
17.562728527087987
30
0
10
-7.7874121145238284
20
17.562728527087987
30
0
0
CIRCLE
5
176
100
AcDbEntity
8
0
100
AcDbCircle
10
20.601865079521993
20
-70.528500275555373
30
0
40
1.0000000000000142
210
0
220
0
230
1
0
SPLINE
5
177
100
AcDbEntity
8
0
100
AcDbSpline
70
0
71
3
72
17
73
13
74
0
42
0.000000001
43
0.0000000001
44
0.0000000001
40
-4
40
-4
40
-4
40
-4
40
-3
40
-3
40
-3
40
-2
40
-2
40
-2
40
-1
40
-1
40
-1
40
0
40
0
40
0
40
0
10
98.850000532647073
20
-63.518087013482081
30
0
10
98.850000532647073
20
-64.12560023811038
30
0
10
98.357513757550237
20
-64.618087013207145
30
0
10
97.75000053292267
20
-64.618087013207145
30
0
10
97.142487308293653
20
-64.618087013207145
30
0
10
96.650000533196874
20
-64.12560023811038
30
0
10
96.650000533196874
20
-63.518087013482081
30
0
10
96.650000533196874
20
-62.910573788855103
30
0
10
97.142487308293653
20
-62.418087013757017
30
0
10
97.75000053292267
20
-62.418087013757017
30
0
10
98.357513757550237
20
-62.418087013757017
30
0
10
98.850000532647073
20
-62.910573788855103
30
0
10
98.850000532647073
20
-63.518087013482081
30
0
0
CIRCLE
5
178
100
AcDbEntity
8
0
100
AcDbCircle
10
49.845254747568788
20
70.520580821871363
30
0
40
1.0000000000000142
210
0
220
0
230
1
0
CIRCLE
5
179
100
AcDbEntity
8
0
100
AcDbCircle
10
-47.716154339200898
20
70.528500275555416
30
0
40
0.99999999999999645
210
0
220
0
230
1
0
CIRCLE
5
180
100
AcDbEntity
8
0
100
AcDbCircle
10
-99.74999645886345
20
0.012888573647966695
30
0
40
0.99999999999999645
210
0
220
0
230
1
0
ENDSEC
0
SECTION
2
OBJECTS
0
DICTIONARY
5
C
100
AcDbDictionary
3
ACAD_GROUP
350
D
3
ACAD_MLINESTYLE
350
17
0
DICTIONARY
5
D
100
AcDbDictionary
0
DICTIONARY
5
1A
330
C
100
AcDbDictionary
0
DICTIONARY
5
17
100
AcDbDictionary
0
ENDSEC
0
EOF
