0
SECTION
2
HEADER
9
$INSUNITS
70
4
9
$ACADVER
1
AC1014
9
$HANDSEED
5
FFFF
0
ENDSEC
0
SECTION
2
TABLES
0
TABLE
2
VPORT
5
8
100
AcDbSymbolTable
0
ENDTAB
0
TABLE
2
LTYPE
5
5
100
AcDbSymbolTable
0
LTYPE
5
14
100
AcDbSymbolTableRecord
100
AcDbLinetypeTableRecord
2
BYBLOCK
70
0
0
LTYPE
5
15
100
AcDbSymbolTableRecord
100
AcDbLinetypeTableRecord
2
BYLAYER
70
0
0
ENDTAB
0
TABLE
2
LAYER
5
2
100
AcDbSymbolTable
70
2
0
LAYER
5
50
100
AcDbSymbolTableRecord
100
AcDbLayerTableRecord
2
0
70
0
6
CONTINUOUS
0
ENDTAB
0
TABLE
2
STYLE
5
3
100
AcDbSymbolTable
70
1
0
STYLE
5
11
100
AcDbSymbolTableRecord
100
AcDbTextStyleTableRecord
2
STANDARD
70
0
0
ENDTAB
0
TABLE
2
VIEW
5
6
100
AcDbSymbolTable
70
0
0
ENDTAB
0
TABLE
2
UCS
5
7
100
AcDbSymbolTable
70
0
0
ENDTAB
0
TABLE
2
APPID
5
9
100
AcDbSymbolTable
70
2
0
APPID
5
12
100
AcDbSymbolTableRecord
100
AcDbRegAppTableRecord
2
ACAD
70
0
0
ENDTAB
0
TABLE
2
DIMSTYLE
5
A
100
AcDbSymbolTable
70
1
0
ENDTAB
0
TABLE
2
BLOCK_RECORD
5
1
100
AcDbSymbolTable
70
1
0
BLOCK_RECORD
5
1F
100
AcDbSymbolTableRecord
100
AcDbBlockTableRecord
2
*MODEL_SPACE
0
BLOCK_RECORD
5
1B
100
AcDbSymbolTableRecord
100
AcDbBlockTableRecord
2
*PAPER_SPACE
0
ENDTAB
0
ENDSEC
0
SECTION
2
BLOCKS
0
BLOCK
5
20
100
AcDbEntity
100
AcDbBlockBegin
2
*MODEL_SPACE
0
ENDBLK
5
21
100
AcDbEntity
100
AcDbBlockEnd
0
BLOCK
5
1C
100
AcDbEntity
100
AcDbBlockBegin
2
*PAPER_SPACE
0
ENDBLK
5
1D
100
AcDbEntity
100
AcDbBlockEnd
0
ENDSEC
0
SECTION
2
ENTITIES
0
CIRCLE
5
100
100
AcDbEntity
8
0
100
AcDbCircle
10
61.987368197670563
20
-7.5311923205824627
30
0
40
1.0000000000000142
210
0
220
0
230
1
0
CIRCLE
5
101
100
AcDbEntity
8
0
100
AcDbCircle
10
-52.7000354938572
20
-27.531192332860499
30
0
40
1.0000000000000142
210
0
220
0
230
1
0
CIRCLE
5
102
100
AcDbEntity
8
0
100
AcDbCircle
10
61.987176919068077
20
-27.531192332860499
30
0
40
1.0000000000000142
210
0
220
0
230
1
0
CIRCLE
5
103
100
AcDbEntity
8
0
100
AcDbCircle
10
-52.699844215254714
20
-7.5311923205824627
30
0
40
0.99999999999997868
210
0
220
0
230
1
0
SPLINE
5
104
100
AcDbEntity
8
0
100
AcDbSpline
70
0
71
3
72
8
73
4
74
0
42
0.000000001
43
0.0000000001
44
0.0000000001
40
9
40
9
40
9
40
9
40
10
40
10
40
10
40
10
10
-96.987356204676615
20
-14.668692352018606
30
0
10
-96.987356204676615
20
-15.773261851403877
30
0
10
-96.091925704562371
20
-16.668692351518377
30
0
10
-94.987356205177065
20
-16.668692351518377
30
0
0
LINE
5
105
100
AcDbEntity
8
0
100
AcDbLine
10
-94.987356205177093
20
-16.668692351518377
30
0
11
-89.462356206557445
21
-16.668692351518395
31
0
0
SPLINE
5
106
100
AcDbEntity
8
0
100
AcDbSpline
70
0
71
3
72
8
73
4
74
0
42
0.000000001
43
0.0000000001
44
0.0000000001
40
11
40
11
40
11
40
11
40
12
40
12
40
12
40
12
10
-89.462356206557416
20
-16.668692351518377
30
0
10
-88.357786707172039
20
-16.668692351518377
30
0
10
-87.462356207057866
20
-17.564122851633268
30
0
10
-87.462356207057866
20
-18.668692351018272
30
0
0
LINE
5
107
100
AcDbEntity
8
0
100
AcDbLine
10
-87.462356207057866
20
-18.668692351018272
30
0
11
-87.462356207057894
21
-33.718692347256095
31
0
0
SPLINE
5
108
100
AcDbEntity
8
0
100
AcDbSpline
70
0
71
3
72
8
73
4
74
0
42
0.000000001
43
0.0000000001
44
0.0000000001
40
13
40
13
40
13
40
13
40
14
40
14
40
14
40
14
10
-87.462356207057866
20
-33.718692347256081
30
0
10
-87.462356207057866
20
-34.823261846641351
30
0
10
-86.566925706943636
20
-35.718692346755873
30
0
10
-85.462356207558301
20
-35.718692346755873
30
0
0
LINE
5
109
100
AcDbEntity
8
0
100
AcDbLine
10
-85.462356207558344
20
-35.718692346755873
30
0
11
-79.937356208938695
21
-35.718692346755887
31
0
0
SPLINE
5
110
100
AcDbEntity
8
0
100
AcDbSpline
70
0
71
3
72
8
73
4
74
0
42
0.000000001
43
0.0000000001
44
0.0000000001
40
15
40
15
40
15
40
15
40
16
40
16
40
16
40
16
10
-79.937356208938652
20
-35.718692346755873
30
0
10
-78.832786709553318
20
-35.718692346755873
30
0
10
-77.937356209439088
20
-36.614122846870778
30
0
10
-77.937356209439088
20
-37.718692346255779
30
0
0
LINE
5
111
100
AcDbEntity
8
0
100
AcDbLine
10
-77.937356209439088
20
-37.718692346255779
30
0
11
-77.93735620943913
21
-65.531192339303061
31
0
0
SPLINE
5
112
100
AcDbEntity
8
0
100
AcDbSpline
70
0
71
3
72
8
73
4
74
0
42
0.000000001
43
0.0000000001
44
0.0000000001
40
17
40
17
40
17
40
17
40
18
40
18
40
18
40
18
10
-77.937356209439088
20
-65.531192339303047
30
0
10
-77.937356209439088
20
-66.635761838688396
30
0
10
-77.041925709324232
20
-67.53119233880291
30
0
10
-75.937356209938898
20
-67.53119233880291
30
0
0
LINE
5
113
100
AcDbEntity
8
0
100
AcDbLine
10
-75.93735620993894
20
-67.53119233880291
30
0
11
-46.50535294249341
21
-67.531192338802924
31
0
0
ARC
5
114
100
AcDbEntity
8
0
100
AcDbCircle
10
-46.50535294249341
20
-64.531192338802896
30
0
40
3.0000000000000249
210
-0
220
0
230
1
100
AcDbArc
50
270
51
360
0
LINE
5
115
100
AcDbEntity
8
0
100
AcDbLine
10
-43.505352942493403
20
-64.531192338802924
30
0
11
-43.505352942493403
21
-50.994162029737581
31
0
0
ARC
5
116
100
AcDbEntity
8
0
100
AcDbCircle
10
-40.505352942493396
20
-50.994162029737581
30
0
40
3.0000000000000071
210
-0
220
0
230
1
100
AcDbArc
50
90
51
180
0
LINE
5
117
100
AcDbEntity
8
0
100
AcDbLine
10
-40.505352942493396
20
-47.994162029737581
30
0
11
-34.093537981886755
21
-47.994162029737559
31
0
0
ARC
5
118
100
AcDbEntity
8
0
100
AcDbCircle
10
-34.093537981886755
20
-50.994162029737566
30
0
40
2.9999999999999716
210
0
220
-0
230
1
100
AcDbArc
50
0
51
90
0
LINE
5
119
100
AcDbEntity
8
0
100
AcDbLine
10
-31.093537981886783
20
-50.994162029737566
30
0
11
-31.093537981886783
21
-64.531192338802924
31
0
0
ARC
5
120
100
AcDbEntity
8
0
100
AcDbCircle
10
-28.093537981886776
20
-64.531192338802896
30
0
40
3.0000000000000071
210
0
220
0
230
1
100
AcDbArc
50
180
51
270.00000000000068
0
LINE
5
121
100
AcDbEntity
8
0
100
AcDbLine
10
-28.09353798188674
20
-67.53119233880291
30
0
11
-18.855009701871879
21
-67.531192338802924
31
0
0
ARC
5
122
100
AcDbEntity
8
0
100
AcDbCircle
10
-18.855009701871843
20
-70.531192338802867
30
0
40
2.9999999999999432
210
0
220
-0
230
1
100
AcDbArc
50
9.594068226859541
51
90.000000000000696
0
ARC
5
123
100
AcDbEntity
8
0
100
AcDbCircle
10
-12.938929918772217
20
-69.531192338802896
30
0
40
3.0000000000000613
210
0
220
0
230
1
100
AcDbArc
50
189.59406822686077
51
269.99999999999858
0
LINE
5
124
100
AcDbEntity
8
0
100
AcDbLine
10
-12.938929918772288
20
-72.531192338802967
30
0
11
-3.9389299187722315
21
-72.531192338802924
31
0
0
ARC
5
125
100
AcDbEntity
8
0
100
AcDbCircle
10
-3.9389299187722315
20
-69.531192338802896
30
0
40
3.0000000000000249
210
0
220
0
230
1
100
AcDbArc
50
270
51
350.40593177313849
0
ARC
5
126
100
AcDbEntity
8
0
100
AcDbCircle
10
1.9771498643274299
20
-70.531192338803066
30
0
40
3.0000000000001226
210
0
220
0
230
1
100
AcDbArc
50
90.000000000001336
51
170.40593177313747
0
LINE
5
127
100
AcDbEntity
8
0
100
AcDbLine
10
1.9771498643273588
20
-67.531192338802953
30
0
11
11.277345299223356
21
-67.531192338802924
31
0
0
ARC
5
128
100
AcDbEntity
8
0
100
AcDbCircle
10
11.277345299223356
20
-64.531192338802981
30
0
40
2.9999999999999538
210
-0
220
0
230
1
100
AcDbArc
50
-90
51
0
0
LINE
5
129
100
AcDbEntity
8
0
100
AcDbLine
10
14.277345299223327
20
-64.531192338802924
30
0
11
14.277345299223327
21
-56.994162029737566
31
0
0
ARC
5
130
100
AcDbEntity
8
0
100
AcDbCircle
10
17.277345299223299
20
-56.994162029737566
30
0
40
3.0000000000000071
210
-0
220
0
230
1
100
AcDbArc
50
90
51
180
0
LINE
5
131
100
AcDbEntity
8
0
100
AcDbLine
10
17.277345299223299
20
-53.994162029737552
30
0
11
27.134632526291966
21
-53.994162029737552
31
0
0
ARC
5
132
100
AcDbEntity
8
0
100
AcDbCircle
10
27.134632526291966
20
-56.994162029737566
30
0
40
2.9999999999999716
210
0
220
-0
230
1
100
AcDbArc
50
0
51
90
0
LINE
5
133
100
AcDbEntity
8
0
100
AcDbLine
10
30.134632526291938
20
-56.994162029737566
30
0
11
30.13463252629208
21
-64.531192338802924
31
0
0
ARC
5
134
100
AcDbEntity
8
0
100
AcDbCircle
10
33.134632526291909
20
-64.531192338803038
30
0
40
2.9999999999998295
210
0
220
0
230
1
100
AcDbArc
50
180
51
270.00000000000131
0
LINE
5
135
100
AcDbEntity
8
0
100
AcDbLine
10
33.134632526291981
20
-67.531192338802867
30
0
11
87.987356205676974
21
-67.531192338802924
31
0
0
SPLINE
5
136
100
AcDbEntity
8
0
100
AcDbSpline
70
0
71
3
72
8
73
4
74
0
42
0.000000001
43
0.0000000001
44
0.0000000001
40
19
40
19
40
19
40
19
40
20
40
20
40
20
40
20
10
87.987356205677045
20
-67.53119233880291
30
0
10
90.1964952044478
20
-67.53119233880291
30
0
10
91.9873562046768
20
-65.740331338573853
30
0
10
91.9873562046768
20
-63.531192339802857
30
0
0
LINE
5
137
100
AcDbEntity
8
0
100
AcDbLine
10
91.9873562046768
20
-63.531192339802857
30
0
11
91.987356204676729
21
-10.416079783099779
31
0
0
ARC
5
138
100
AcDbEntity
8
0
100
AcDbCircle
10
94.987356204676843
20
-10.416079783099867
30
0
40
3.0000000000000937
210
0
220
0
230
1
100
AcDbArc
50
99.594068226862362
51
180
0
ARC
5
139
100
AcDbEntity
8
0
100
AcDbCircle
10
93.987356204676828
20
-4.5000000000001883
30
0
40
2.9999999999999711
210
-0
220
0
230
1
100
AcDbArc
50
-80.40593177314139
51
0
0
LINE
5
140
100
AcDbEntity
8
0
100
AcDbLine
10
96.9873562046768
20
-4.5000000000001528
30
0
11
96.987356204676658
21
4.4999999999998685
31
0
0
ARC
5
141
100
AcDbEntity
8
0
100
AcDbCircle
10
93.987356204676686
20
4.4999999999998153
30
0
40
2.9999999999999716
210
0
220
-0
230
1
100
AcDbArc
50
0
51
80.405931773138633
0
ARC
5
142
100
AcDbEntity
8
0
100
AcDbCircle
10
94.987356204676843
20
10.416079783099566
30
0
40
3.0000000000001137
210
0
220
0
230
1
100
AcDbArc
50
180
51
260.40593177313798
0
LINE
5
143
100
AcDbEntity
8
0
100
AcDbLine
10
91.987356204676729
20
10.416079783099459
30
0
11
91.987356204676729
21
63.531192339802644
31
0
0
SPLINE
5
144
100
AcDbEntity
8
0
100
AcDbSpline
70
0
71
3
72
8
73
4
74
0
42
0.000000001
43
0.0000000001
44
0.0000000001
40
21
40
21
40
21
40
21
40
22
40
22
40
22
40
22
10
91.9873562046768
20
63.531192339802672
30
0
10
91.9873562046768
20
65.740331338573284
30
0
10
90.1964952044478
20
67.531192338802995
30
0
10
87.987356205677045
20
67.531192338802995
30
0
0
LINE
5
145
100
AcDbEntity
8
0
100
AcDbLine
10
87.987356205677116
20
67.531192338802995
30
0
11
-31.593421232512355
21
67.531192338802967
31
0
0
ARC
5
146
100
AcDbEntity
8
0
100
AcDbCircle
10
-31.593421232512355
20
70.53119233880301
30
0
40
3.0000000000000293
210
0
220
0
230
1
100
AcDbArc
50
189.59406822686117
51
269.99999999999989
0
ARC
5
147
100
AcDbEntity
8
0
100
AcDbCircle
10
-37.509501015611768
20
69.531192338803095
30
0
40
2.9999999999997544
210
0
220
-0
230
1
100
AcDbArc
50
9.5940682268587771
51
90.000000000001904
0
LINE
5
148
100
AcDbEntity
8
0
100
AcDbLine
10
-37.509501015611875
20
72.531192338802853
30
0
11
-46.509501015611932
21
72.531192338802967
31
0
0
ARC
5
149
100
AcDbEntity
8
0
100
AcDbCircle
10
-46.509501015611896
20
69.531192338802882
30
0
40
3.0000000000000782
210
0
220
0
230
1
100
AcDbArc
50
90.000000000000696
51
170.40593177313815
0
ARC
5
150
100
AcDbEntity
8
0
100
AcDbCircle
10
-52.425580798711593
20
70.531192338803081
30
0
40
3.0000000000001137
210
-0
220
0
230
1
100
AcDbArc
50
270.00000000000131
51
350.40593177313741
0
LINE
5
151
100
AcDbEntity
8
0
100
AcDbLine
10
-52.425580798711522
20
67.531192338802967
30
0
11
-80.699856208748315
21
67.531192338802967
31
0
0
SPLINE
5
152
100
AcDbEntity
8
0
100
AcDbSpline
70
0
71
3
72
8
73
4
74
0
42
0.000000001
43
0.0000000001
44
0.0000000001
40
23
40
23
40
23
40
23
40
24
40
24
40
24
40
24
10
-80.699856208748287
20
67.531192338802995
30
0
10
-81.804425708133621
20
67.531192338802995
30
0
10
-82.699856208248477
20
66.635761838688254
30
0
10
-82.699856208248477
20
65.531192339302237
30
0
0
LINE
5
153
100
AcDbEntity
8
0
100
AcDbLine
10
-82.699856208248477
20
65.531192339302265
30
0
11
-82.699856208248519
21
23.431192349828098
31
0
0
SPLINE
5
154
100
AcDbEntity
8
0
100
AcDbSpline
70
0
71
3
72
8
73
4
74
0
42
0.000000001
43
0.0000000001
44
0.0000000001
40
1
40
1
40
1
40
1
40
2
40
2
40
2
40
2
10
-82.699856208248477
20
23.431192349828134
30
0
10
-82.699856208248477
20
22.326622850443467
30
0
10
-83.595286708363332
20
21.431192350328541
30
0
10
-84.699856207748638
20
21.431192350328541
30
0
0
LINE
5
155
100
AcDbEntity
8
0
100
AcDbLine
10
-84.699856207748638
20
21.431192350328541
30
0
11
-90.224856206367079
21
21.431192350328505
31
0
0
SPLINE
5
156
100
AcDbEntity
8
0
100
AcDbSpline
70
0
71
3
72
8
73
4
74
0
42
0.000000001
43
0.0000000001
44
0.0000000001
40
3
40
3
40
3
40
3
40
4
40
4
40
4
40
4
10
-90.224856206367036
20
21.431192350328541
30
0
10
-91.329425705752385
20
21.431192350328541
30
0
10
-92.224856205867241
20
20.535761850213721
30
0
10
-92.224856205867241
20
19.43119235082774
30
0
0
LINE
5
157
100
AcDbEntity
8
0
100
AcDbLine
10
-92.224856205867241
20
19.43119235082774
30
0
11
-92.224856205867269
21
4.3811923545906239
31
0
0
SPLINE
5
158
100
AcDbEntity
8
0
100
AcDbSpline
70
0
71
3
72
8
73
4
74
0
42
0.000000001
43
0.0000000001
44
0.0000000001
40
5
40
5
40
5
40
5
40
6
40
6
40
6
40
6
10
-92.224856205867241
20
4.3811923545906417
30
0
10
-92.224856205867241
20
3.2766228552059395
30
0
10
-93.120286705982096
20
2.3811923550910308
30
0
10
-94.224856205367402
20
2.3811923550910308
30
0
0
LINE
5
159
100
AcDbEntity
8
0
100
AcDbLine
10
-94.224856205367402
20
2.3811923550910308
30
0
11
-94.987356205176468
21
2.381192355091013
31
0
0
SPLINE
5
160
100
AcDbEntity
8
0
100
AcDbSpline
70
0
71
3
72
8
73
4
74
0
42
0.000000001
43
0.0000000001
44
0.0000000001
40
7
40
7
40
7
40
7
40
8
40
8
40
8
40
8
10
-94.987356205176425
20
2.3811923550910308
30
0
10
-96.09192570456176
20
2.3811923550910308
30
0
10
-96.987356204676615
20
1.4857618549762108
30
0
10
-96.987356204676615
20
0.38119235559022968
30
0
0
LINE
5
161
100
AcDbEntity
8
0
100
AcDbLine
10
-96.987356204676615
20
0.38119235559022968
30
0
11
-96.987356204676658
21
-14.668692352018624
31
0
0
SPLINE
5
162
100
AcDbEntity
8
0
100
AcDbSpline
70
0
71
3
72
17
73
13
74
0
42
0.000000001
43
0.0000000001
44
0.0000000001
40
-4
40
-4
40
-4
40
-4
40
-3
40
-3
40
-3
40
-2
40
-2
40
-2
40
-1
40
-1
40
-1
40
0
40
0
40
0
40
0
10
17.9077297972146
20
24.100459056640045
30
0
10
17.079302965684562
20
24.100459056640045
30
0
10
16.407731033006527
20
24.772030989317937
30
0
10
16.407731033006527
20
25.600457820848082
30
0
10
16.407731033006527
20
26.42888465237812
30
0
10
17.079302965684562
20
27.100461545992811
30
0
10
17.9077297972146
20
27.100461545992811
30
0
10
18.736156628744638
20
27.100461545992811
30
0
10
19.407728561422672
20
26.42888465237812
30
0
10
19.407728561422672
20
25.600457820848082
30
0
10
19.407728561422672
20
24.772030989317937
30
0
10
18.736156628744638
20
24.100459056640045
30
0
10
17.9077297972146
20
24.100459056640045
30
0
0
SPLINE
5
163
100
AcDbEntity
8
0
100
AcDbSpline
70
0
71
3
72
17
73
13
74
0
42
0.000000001
43
0.0000000001
44
0.0000000001
40
-4
40
-4
40
-4
40
-4
40
-3
40
-3
40
-3
40
-2
40
-2
40
-2
40
-1
40
-1
40
-1
40
0
40
0
40
0
40
0
10
-72.837323860219556
20
-63.531224690296938
30
0
10
-72.837323860219556
20
-64.138737914925215
30
0
10
-73.329810635316335
20
-64.631224690022023
30
0
10
-73.937323859944613
20
-64.631224690022023
30
0
10
-74.54483708457289
20
-64.631224690022023
30
0
10
-75.037323859669698
20
-64.138737914925215
30
0
10
-75.037323859669698
20
-63.531224690296938
30
0
10
-75.037323859669698
20
-62.923711465669321
30
0
10
-74.54483708457289
20
-62.431224690571874
30
0
10
-73.937323859944613
20
-62.431224690571874
30
0
10
-73.329810635316335
20
-62.431224690571874
30
0
10
-72.837323860219556
20
-62.923711465669321
30
0
10
-72.837323860219556
20
-63.531224690296938
30
0
0
CIRCLE
5
164
100
AcDbEntity
8
0
100
AcDbCircle
10
94.987356204676701
20
-1.2434497875801753e-13
30
0
40
1.0000000000000142
210
0
220
0
230
1
0
CIRCLE
5
165
100
AcDbEntity
8
0
100
AcDbCircle
10
-8.43892991877226
20
-70.531192338802924
30
-1.1102230246251565e-15
40
1.0000000000000142
210
0
220
0
230
1
0
CIRCLE
5
166
100
AcDbEntity
8
0
100
AcDbCircle
10
-42.009501015611903
20
70.531192338802967
30
1.1102230246251565e-15
40
1.0000000000000142
210
0
220
0
230
1
0
SPLINE
5
167
100
AcDbEntity
8
0
100
AcDbSpline
70
0
71
3
72
17
73
13
74
0
42
0.000000001
43
0.0000000001
44
0.0000000001
40
-4
40
-4
40
-4
40
-4
40
-3
40
-3
40
-3
40
-2
40
-2
40
-2
40
-1
40
-1
40
-1
40
0
40
0
40
0
40
0
10
-77.599823859028945
20
63.531339978926042
30
0
10
-77.599823859028945
20
62.923826754297764
30
0
10
-78.09231063412571
20
62.431339979200956
30
0
10
-78.699823858754002
20
62.431339979200956
30
0
10
-79.307337083382265
20
62.431339979200956
30
0
10
-79.799823858479073
20
62.923826754297764
30
0
10
-79.799823858479073
20
63.531339978926042
30
0
10
-79.799823858479073
20
64.138853203553069
30
0
10
-79.307337083382265
20
64.631339978651127
30
0
10
-78.699823858754002
20
64.631339978651127
30
0
10
-78.09231063412571
20
64.631339978651127
30
0
10
-77.599823859028945
20
64.138853203553069
30
0
10
-77.599823859028945
20
63.531339978926042
30
0
0
ENDSEC
0
SECTION
2
OBJECTS
0
DICTIONARY
5
C
100
AcDbDictionary
3
ACAD_GROUP
350
D
3
ACAD_MLINESTYLE
350
17
0
DICTIONARY
5
D
100
AcDbDictionary
0
DICTIONARY
5
1A
330
C
100
AcDbDictionary
0
DICTIONARY
5
17
100
AcDbDictionary
0
ENDSEC
0
EOF
