0
SECTION
2
HEADER
9
$INSUNITS
70
4
9
$ACADVER
1
AC1014
9
$HANDSEED
5
FFFF
0
ENDSEC
0
SECTION
2
TABLES
0
TABLE
2
VPORT
5
8
100
AcDbSymbolTable
0
ENDTAB
0
TABLE
2
LTYPE
5
5
100
AcDbSymbolTable
0
LTYPE
5
14
100
AcDbSymbolTableRecord
100
AcDbLinetypeTableRecord
2
BYBLOCK
70
0
0
LTYPE
5
15
100
AcDbSymbolTableRecord
100
AcDbLinetypeTableRecord
2
BYLAYER
70
0
0
ENDTAB
0
TABLE
2
LAYER
5
2
100
AcDbSymbolTable
70
2
0
LAYER
5
50
100
AcDbSymbolTableRecord
100
AcDbLayerTableRecord
2
0
70
0
6
CONTINUOUS
0
ENDTAB
0
TABLE
2
STYLE
5
3
100
AcDbSymbolTable
70
1
0
STYLE
5
11
100
AcDbSymbolTableRecord
100
AcDbTextStyleTableRecord
2
STANDARD
70
0
0
ENDTAB
0
TABLE
2
VIEW
5
6
100
AcDbSymbolTable
70
0
0
ENDTAB
0
TABLE
2
UCS
5
7
100
AcDbSymbolTable
70
0
0
ENDTAB
0
TABLE
2
APPID
5
9
100
AcDbSymbolTable
70
2
0
APPID
5
12
100
AcDbSymbolTableRecord
100
AcDbRegAppTableRecord
2
ACAD
70
0
0
ENDTAB
0
TABLE
2
DIMSTYLE
5
A
100
AcDbSymbolTable
70
1
0
ENDTAB
0
TABLE
2
BLOCK_RECORD
5
1
100
AcDbSymbolTable
70
1
0
BLOCK_RECORD
5
1F
100
AcDbSymbolTableRecord
100
AcDbBlockTableRecord
2
*MODEL_SPACE
0
BLOCK_RECORD
5
1B
100
AcDbSymbolTableRecord
100
AcDbBlockTableRecord
2
*PAPER_SPACE
0
ENDTAB
0
ENDSEC
0
SECTION
2
BLOCKS
0
BLOCK
5
20
100
AcDbEntity
100
AcDbBlockBegin
2
*MODEL_SPACE
0
ENDBLK
5
21
100
AcDbEntity
100
AcDbBlockEnd
0
BLOCK
5
1C
100
AcDbEntity
100
AcDbBlockBegin
2
*PAPER_SPACE
0
ENDBLK
5
1D
100
AcDbEntity
100
AcDbBlockEnd
0
ENDSEC
0
SECTION
2
ENTITIES
0
CIRCLE
5
100
100
AcDbEntity
8
0
100
AcDbCircle
10
33.649512529678702
20
-7.5094657394807207
30
0
40
0.99999999999997868
210
0
220
0
230
1
0
CIRCLE
5
101
100
AcDbEntity
8
0
100
AcDbCircle
10
-42.937219447275936
20
-7.5120501918243576
30
0
40
0.99999999999997868
210
0
220
0
230
1
0
CIRCLE
5
102
100
AcDbEntity
8
0
100
AcDbCircle
10
33.649321251076216
20
-27.509465751758757
30
0
40
1.0000000000000142
210
0
220
0
230
1
0
CIRCLE
5
103
100
AcDbEntity
8
0
100
AcDbCircle
10
-42.937410725878422
20
-27.512050204102394
30
0
40
1.0000000000000142
210
0
220
0
230
1
0
ARC
5
104
100
AcDbEntity
8
0
100
AcDbCircle
10
-34.828163238761896
20
-64.511833231399748
30
0
40
3.0000000000000071
210
0
220
0
230
1
100
AcDbArc
50
180
51
270.00153311131174
0
LINE
5
105
100
AcDbEntity
8
0
100
AcDbLine
10
-34.828082965241336
20
-67.511833230325763
30
0
11
-13.629023474838533
21
-67.51126598927965
31
0
0
ARC
5
106
100
AcDbEntity
8
0
100
AcDbCircle
10
-13.628943201317938
20
-70.511265988205651
30
0
40
2.9999999999999831
210
0
220
-0
230
1
100
AcDbArc
50
9.4655316318307516
51
90.00153311131244
0
ARC
5
107
100
AcDbEntity
8
0
100
AcDbCircle
10
-7.71063492047805
20
-69.524540548713375
30
0
40
2.9999999999999529
210
0
220
0
230
1
100
AcDbArc
50
189.46553163183117
51
270
0
LINE
5
108
100
AcDbEntity
8
0
100
AcDbLine
10
-7.71063492047805
20
-72.524540548713347
30
0
11
1.2893650795219358
21
-72.524540548713347
31
0
0
ARC
5
109
100
AcDbEntity
8
0
100
AcDbCircle
10
1.2893650795219358
20
-69.524540548713361
30
0
40
2.9999999999999893
210
0
220
0
230
1
100
AcDbArc
50
270
51
350.53986598240243
0
SPLINE
5
110
100
AcDbEntity
8
0
100
AcDbSpline
70
0
71
3
72
14
73
10
74
0
42
0.000000001
43
0.0000000001
44
0.0000000001
40
0
40
0
40
0
40
0
40
0.11719334201607777
40
0.11719334201607777
40
0.23438668403215718
40
0.23438668403215718
40
0.32860203331689924
40
0.32860203331689924
40
0.4228173826016482
40
0.4228173826016482
40
0.4228173826016482
40
0.4228173826016482
10
4.2485656846084296
20
-70.017624495781078
30
0
10
4.3127725242210246
20
-69.632292708440971
30
0
10
4.4516293780238669
20
-69.263185926534049
30
0
10
4.8630114421534643
20
-68.598974201506962
30
0
10
5.1316036157266254
20
-68.310219484501431
30
0
10
5.7023223761029485
20
-67.896847934555353
30
0
10
5.984023233520368
20
-67.753702627430229
30
0
10
6.581523892453518
20
-67.560039265579931
30
0
10
6.8936348520049506
20
-67.510716847253576
30
0
10
7.2076860161750034
20
-67.510708443922766
30
0
0
LINE
5
111
100
AcDbEntity
8
0
100
AcDbLine
10
7.2076860161750034
20
-67.510708443922766
30
0
11
28.406825753118348
21
-67.510141200733813
31
0
0
SPLINE
5
112
100
AcDbEntity
8
0
100
AcDbSpline
70
0
71
3
72
16
73
12
74
0
42
0.000000001
43
0.0000000001
44
0.0000000001
40
0
40
0
40
0
40
0
40
0.11719334201607948
40
0.11719334201607948
40
0.23438668403215585
40
0.23438668403215585
40
0.35158002604823752
40
0.35158002604823752
40
0.41200811087041966
40
0.41200811087041966
40
0.4724361956926062
40
0.4724361956926062
40
0.4724361956926062
40
0.4724361956926062
10
31.40674547959847
20
-64.510141201807784
30
0
10
31.40674547959847
20
-64.900785675194726
30
0
10
31.330443927304579
20
-65.287695374498384
30
0
10
31.033827289294926
20
-66.010489251344907
30
0
10
30.816348020307025
20
-66.339463125472022
30
0
10
30.267530094213271
20
-66.895530839288554
30
0
10
29.941438435609733
20
-67.117308368553552
30
0
10
29.396692233638753
20
-67.349256951493345
30
0
10
29.203888555737834
20
-67.409302413625895
30
0
10
28.809168006089934
20
-67.489844026943175
30
0
10
28.608252702453569
20
-67.510135810983741
30
0
10
28.406825753118383
20
-67.510141200733813
30
0
0
LINE
5
113
100
AcDbEntity
8
0
100
AcDbLine
10
31.40674547959847
20
-64.510141201807784
30
0
11
31.40674547959847
21
-51.011913506173272
31
0
0
ARC
5
114
100
AcDbEntity
8
0
100
AcDbCircle
10
34.406745479598477
20
-51.011913506173272
30
0
40
3.0000000000000071
210
-0
220
0
230
1
100
AcDbArc
50
90
51
180
0
LINE
5
115
100
AcDbEntity
8
0
100
AcDbLine
10
34.406745479598477
20
-48.011913506173265
30
0
11
40.431737193653561
21
-48.011913506173229
31
0
0
ARC
5
116
100
AcDbEntity
8
0
100
AcDbCircle
10
40.431737193653561
20
-51.011913506173272
30
0
40
3.0000000000000426
210
0
220
-0
230
1
100
AcDbArc
50
0
51
90
0
LINE
5
117
100
AcDbEntity
8
0
100
AcDbLine
10
43.431737193653603
20
-51.011913506173272
30
0
11
43.431737193653603
21
-64.509658891963738
31
0
0
SPLINE
5
118
100
AcDbEntity
8
0
100
AcDbSpline
70
0
71
3
72
16
73
12
74
0
42
0.000000001
43
0.0000000001
44
0.0000000001
40
0
40
0
40
0
40
0
40
0.11719334201607903
40
0.11719334201607903
40
0.23438668403215585
40
0.23438668403215585
40
0.3515800260482338
40
0.3515800260482338
40
0.41201615851636886
40
0.41201615851636886
40
0.47245229098450076
40
0.47245229098450076
40
0.47245229098450076
40
0.47245229098450076
10
46.431817467173531
20
-67.509658890889767
30
0
10
46.041172993926445
20
-67.509669343692082
30
0
10
45.654261253096564
20
-67.433378144293329
30
0
10
44.931459439688268
20
-67.136780846792718
30
0
10
44.602479746403461
20
-66.919310380512968
30
0
10
44.04639734760373
20
-66.370507333786591
30
0
10
43.82461109290972
20
-66.044421609587431
30
0
10
43.592637424067959
20
-65.499656933253533
30
0
10
43.532581344990646
20
-65.306828252001054
30
0
10
43.452029005363073
20
-64.912055134557221
30
0
10
43.431737193653603
20
-64.711112666857517
30
0
10
43.431737193653603
20
-64.509658891963738
30
0
0
SPLINE
5
119
100
AcDbEntity
8
0
100
AcDbSpline
70
0
71
3
72
22
73
18
74
0
42
0.000000001
43
0.0000000001
44
0.0000000001
40
3.9224131465040482
40
3.9224131465040482
40
3.9224131465040482
40
3.9224131465040482
40
5.46108311359027
40
5.46108311359027
40
6.3712636325219796
40
6.3712636325219796
40
6.8263548797346774
40
6.8263548797346774
40
6.9898854292893144
40
6.9898854292893144
40
7.1162825005580856
40
7.1162825005580856
40
7.2441542146127427
40
7.2441542146127427
40
7.3707236684829791
40
7.3707236684829791
40
7.3939807341922519
40
7.3939807341922519
40
7.3939807341922519
40
7.3939807341922519
10
46.431817467173531
20
-67.509658890889753
30
0
10
51.560717355624845
20
-67.509521652607219
30
0
10
56.689617244076125
20
-67.5093844143247
30
0
10
64.852452194546998
20
-67.509165994493259
30
0
10
67.886387256566607
20
-67.509084812944323
30
0
10
72.437293142085437
20
-67.508963040532848
30
0
10
73.954263965584701
20
-67.508922449670266
30
0
10
76.016336620737633
20
-67.508867273060105
30
0
10
76.27558334778918
20
-67.508860336177676
30
0
10
76.836842042769362
20
-67.314478202635058
30
0
10
77.062540426386832
20
-67.182616737470568
30
0
10
77.453522308295319
20
-66.839083448060109
30
0
10
77.614976222454828
20
-66.62921698051494
30
0
10
77.84601003219197
20
-66.162188038180091
30
0
10
77.914039555029547
20
-65.910842215253012
30
0
10
77.935695349820151
20
-65.604257585161946
30
0
10
77.937365584599945
20
-65.556563091755677
30
0
10
77.937365800139446
20
-65.508878426134899
30
0
0
LINE
5
120
100
AcDbEntity
8
0
100
AcDbLine
10
77.937365800139446
20
-65.508878426134899
30
0
11
77.937491449729947
21
-37.710917067954583
31
0
0
SPLINE
5
121
100
AcDbEntity
8
0
100
AcDbSpline
70
0
71
3
72
8
73
4
74
0
42
0.000000001
43
0.0000000001
44
0.0000000001
40
3
40
3
40
3
40
3
40
4
40
4
40
4
40
4
10
77.937491449729947
20
-37.710917067954583
30
0
10
77.937496458863478
20
-36.602726358971879
30
0
10
77.036411123219253
20
-35.705799003818669
30
0
10
75.928232290221047
20
-35.710929461378775
30
0
0
LINE
5
122
100
AcDbEntity
8
0
100
AcDbLine
10
75.928232290221047
20
-35.710929461378797
30
0
11
70.421759693833053
21
-35.736422390065776
31
0
0
SPLINE
5
123
100
AcDbEntity
8
0
100
AcDbSpline
70
0
71
3
72
8
73
4
74
0
42
0.000000001
43
0.0000000001
44
0.0000000001
40
5
40
5
40
5
40
5
40
6
40
6
40
6
40
6
10
70.421759693833053
20
-35.736422390065776
30
0
10
69.313584394608583
20
-35.741552831265665
30
0
10
68.412500534303547
20
-34.844630998873797
30
0
10
68.412500534303547
20
-33.736443823691786
30
0
0
LINE
5
124
100
AcDbEntity
8
0
100
AcDbLine
10
68.412500534303547
20
-33.736443823691786
30
0
11
68.412500534303547
21
-18.691280805298849
31
0
0
SPLINE
5
125
100
AcDbEntity
8
0
100
AcDbSpline
70
0
71
3
72
8
73
4
74
0
42
0.000000001
43
0.0000000001
44
0.0000000001
40
7
40
7
40
7
40
7
40
8
40
8
40
8
40
8
10
68.412500534303547
20
-18.691280805298849
30
0
10
68.412500534303547
20
-17.588448213891166
30
0
10
67.519779049412705
20
-16.693738812309675
30
0
10
66.416949186209777
20
-16.691285753430165
30
0
0
LINE
5
126
100
AcDbEntity
8
0
100
AcDbLine
10
66.41694918620982
20
-16.691285753430183
30
0
11
60.88305188477861
21
-16.67897653297219
31
0
0
SPLINE
5
127
100
AcDbEntity
8
0
100
AcDbSpline
70
0
71
3
72
8
73
4
74
0
42
0.000000001
43
0.0000000001
44
0.0000000001
40
9
40
9
40
9
40
9
40
10
40
10
40
10
40
10
10
60.88305188477861
20
-16.67897653297219
30
0
10
59.780222021575682
20
-16.676523474092999
30
0
10
58.887500536684847
20
-15.781814072511171
30
0
10
58.887500536684847
20
-14.678981481103364
30
0
0
LINE
5
128
100
AcDbEntity
8
0
100
AcDbLine
10
58.887500536684847
20
-14.678981481103364
30
0
11
58.887500536684847
21
0.37546222990252787
31
0
0
SPLINE
5
129
100
AcDbEntity
8
0
100
AcDbSpline
70
0
71
3
72
8
73
4
74
0
42
0.000000001
43
0.0000000001
44
0.0000000001
40
11
40
11
40
11
40
11
40
12
40
12
40
12
40
12
10
58.887500536684847
20
0.37546222990252787
30
0
10
58.887500536684847
20
1.4800317292884202
30
0
10
59.782931036799631
20
2.3754622294019967
30
0
10
60.887500536184369
20
2.3754622294019967
30
0
0
LINE
5
130
100
AcDbEntity
8
0
100
AcDbLine
10
60.887500536184334
20
2.3754622294019967
30
0
11
61.650000535994636
21
2.3754622294019967
31
0
0
SPLINE
5
131
100
AcDbEntity
8
0
100
AcDbSpline
70
0
71
3
72
8
73
4
74
0
42
0.000000001
43
0.0000000001
44
0.0000000001
40
13
40
13
40
13
40
13
40
14
40
14
40
14
40
14
10
61.650000535994636
20
2.3754622294019967
30
0
10
62.754570035379373
20
2.3754622294019967
30
0
10
63.650000535494264
20
3.2708927295168166
30
0
10
63.650000535494264
20
4.3754622289028333
30
0
0
LINE
5
132
100
AcDbEntity
8
0
100
AcDbLine
10
63.650000535494264
20
4.3754622289028333
30
0
11
63.650000535494264
21
19.43641566762663
31
0
0
SPLINE
5
133
100
AcDbEntity
8
0
100
AcDbSpline
70
0
71
3
72
8
73
4
74
0
42
0.000000001
43
0.0000000001
44
0.0000000001
40
15
40
15
40
15
40
15
40
16
40
16
40
16
40
16
10
63.650000535494264
20
19.43641566762663
30
0
10
63.650000535494264
20
20.536698281897632
30
0
10
64.53875107603217
20
21.430343065809101
30
0
10
65.63901709848335
20
21.436385507929625
30
0
0
LINE
5
134
100
AcDbEntity
8
0
100
AcDbLine
10
65.63901709848335
20
21.436385507929625
30
0
11
71.185840198422341
21
21.466847556970254
31
0
0
SPLINE
5
135
100
AcDbEntity
8
0
100
AcDbSpline
70
0
71
3
72
8
73
4
74
0
42
0.000000001
43
0.0000000001
44
0.0000000001
40
17
40
17
40
17
40
17
40
18
40
18
40
18
40
18
10
71.185840198422341
20
21.466847556970254
30
0
10
72.286106220873563
20
21.472889999090849
30
0
10
73.174856761411462
20
22.366534783002319
30
0
10
73.174856761411462
20
23.466817397273321
30
0
0
LINE
5
136
100
AcDbEntity
8
0
100
AcDbLine
10
73.174856761411462
20
23.466817397273285
30
0
11
73.174856761411462
21
65.51720357418381
31
0
0
SPLINE
5
137
100
AcDbEntity
8
0
100
AcDbSpline
70
0
71
3
72
8
73
4
74
0
42
0.000000001
43
0.0000000001
44
0.0000000001
40
19
40
19
40
19
40
19
40
20
40
20
40
20
40
20
10
73.174856761411462
20
65.51720357418381
30
0
10
73.174856761411462
20
66.621646131832875
30
0
10
72.279624365091735
20
67.517024042153594
30
0
10
71.175181822030396
20
67.517203547268437
30
0
0
LINE
5
138
100
AcDbEntity
8
0
100
AcDbLine
10
71.175181822030396
20
67.517203547268437
30
0
11
36.448632849252895
21
67.522847655405783
31
0
0
ARC
5
139
100
AcDbEntity
8
0
100
AcDbCircle
10
36.449120439430764
20
70.522847615781799
30
0
40
3.0000000000000631
210
0
220
0
230
1
100
AcDbArc
50
189.57767298354136
51
269.99068771351756
0
ARC
5
140
100
AcDbEntity
8
0
100
AcDbCircle
10
30.532754747568731
20
69.524540548713333
30
0
40
3.0000000000000164
210
0
220
-0
230
1
100
AcDbArc
50
9.5776729835401451
51
90
0
LINE
5
141
100
AcDbEntity
8
0
100
AcDbLine
10
30.532754747568731
20
72.524540548713347
30
0
11
21.532754747568745
21
72.524540548713347
31
0
0
ARC
5
142
100
AcDbEntity
8
0
100
AcDbCircle
10
21.532754747568745
20
69.524540548713333
30
0
40
3.0000000000000071
210
-0
220
0
230
1
100
AcDbArc
50
90
51
170.38953587013577
0
ARC
5
143
100
AcDbEntity
8
0
100
AcDbCircle
10
15.616961369187301
20
70.526233467874903
30
0
40
3.0000000000000182
210
0
220
0
230
1
100
AcDbArc
50
269.99068771351904
51
350.38953587013634
0
LINE
5
144
100
AcDbEntity
8
0
100
AcDbLine
10
15.616473779009503
20
67.526233507498915
30
0
11
-60.132757882079595
21
67.538545034773122
31
0
0
LINE
5
145
100
AcDbEntity
8
0
100
AcDbLine
10
-60.132757882079595
20
67.538545034773122
30
0
11
-60.132758089198504
21
67.546285528983901
31
0
0
SPLINE
5
146
100
AcDbEntity
8
0
100
AcDbSpline
70
0
71
3
72
18
73
14
74
0
42
0.000000001
43
0.0000000001
44
0.0000000001
40
0.22010213849666749
40
0.22010213849666749
40
0.22010213849666749
40
0.22010213849666749
40
0.86601029298175369
40
0.86601029298175369
40
1.6603565250821597
40
1.6603565250821597
40
2.2737153011794242
40
2.2737153011794242
40
2.8930241319340597
40
2.8930241319340597
40
3.2985056080393855
40
3.2985056080393855
40
3.7042915259081974
40
3.7042915259081974
40
3.7042915259081974
40
3.7042915259081974
10
-60.132758089198504
20
67.546285528983901
30
0
10
-62.285785242378253
20
67.546635460618859
30
0
10
-64.438812395558003
20
67.54698539225393
30
0
10
-69.239660287433296
20
67.547765674355617
30
0
10
-69.394214849157265
20
67.578590179908161
30
0
10
-70.538339329554987
20
67.251288337339062
30
0
10
-71.00354993209038
20
67.012370016430992
30
0
10
-71.821316959487618
20
66.3682866836306
30
0
10
-72.166023153613423
20
65.966819162552795
30
0
10
-72.591571435934981
20
65.213008279164114
30
0
10
-72.720773582249905
20
64.89451809096694
30
0
10
-72.894294818397185
20
64.231301351827796
30
0
10
-72.937493616750757
20
63.890823806815376
30
0
10
-72.937493632017549
20
63.547716689341613
30
0
0
LINE
5
147
100
AcDbEntity
8
0
100
AcDbLine
10
-72.937493632017549
20
63.547716689341613
30
0
11
-72.937495995393462
21
10.432928028443644
31
0
0
ARC
5
148
100
AcDbEntity
8
0
100
AcDbCircle
10
-75.937495995393292
20
10.432928161930466
30
0
40
2.9999999999998921
210
-0
220
0
230
1
100
AcDbArc
50
279.59406373826465
51
359.99999743867909
0
ARC
5
149
100
AcDbEntity
8
0
100
AcDbCircle
10
-74.937496458863393
20
4.5168483004902349
30
0
40
2.9999999999999978
210
0
220
0
230
1
100
AcDbArc
50
99.594063738268474
51
180
0
LINE
5
150
100
AcDbEntity
8
0
100
AcDbLine
10
-77.937496458863365
20
4.5168483004902704
30
0
11
-77.937496458863365
21
-4.4831516995097864
31
0
0
ARC
5
151
100
AcDbEntity
8
0
100
AcDbCircle
10
-74.937496458863393
20
-4.4831516995097509
30
0
40
2.9999999999999716
210
0
220
0
230
1
100
AcDbArc
50
180
51
260.40592728454459
0
ARC
5
152
100
AcDbEntity
8
0
100
AcDbCircle
10
-75.93749692233331
20
-10.399231404268594
30
0
40
2.9999999999999032
210
-0
220
0
230
1
100
AcDbArc
50
-2.5613209387547816e-06
51
80.405927284549648
0
LINE
5
153
100
AcDbEntity
8
0
100
AcDbLine
10
-72.937496922333409
20
-10.399231537755522
30
0
11
-72.93749928570918
21
-63.514020088361093
31
0
0
SPLINE
5
154
100
AcDbEntity
8
0
100
AcDbSpline
70
0
71
3
72
18
73
14
74
0
42
0.000000001
43
0.0000000001
44
0.0000000001
40
0
40
0
40
0
40
0
40
0.15925800962278192
40
0.15925800962278192
40
0.31443075588517461
40
0.31443075588517461
40
0.47168334063789408
40
0.47168334063789408
40
0.62735328150980507
40
0.62735328150980507
40
0.78623485965233353
40
0.78623485965233353
40
1.5130250765960449
40
1.5130250765960449
40
1.5130250765960449
40
1.5130250765960449
10
-72.93749928570918
20
-63.514020088361093
30
0
10
-72.937499309330178
20
-64.044880120437028
30
0
10
-72.834086309009152
20
-64.566337871232165
30
0
10
-72.430795829943904
20
-65.531434262580305
30
0
10
-72.140660831148935
20
-65.964728214607049
30
0
10
-71.409206097108466
20
-66.702099486318929
30
0
10
-70.97158753819734
20
-66.998645679355619
30
0
10
-70.012310042264332
20
-67.402856235907905
30
0
10
-69.503379952950084
20
-67.507764487260559
30
0
10
-68.45509531791798
20
-67.519856594210026
30
0
10
-67.925530961625284
20
-67.513993188688914
30
0
10
-64.973715934427247
20
-67.513914204494
30
0
10
-62.551430053926715
20
-67.513849389355371
30
0
10
-60.129144173426177
20
-67.513784574216771
30
0
0
LINE
5
155
100
AcDbEntity
8
0
100
AcDbLine
10
-60.129144173426177
20
-67.513784574216743
30
0
11
-60.129144207524874
21
-67.512510232079194
31
0
0
LINE
5
156
100
AcDbEntity
8
0
100
AcDbLine
10
-60.129144207524874
20
-67.512510232079194
30
0
11
-56.947098939617007
21
-67.512425087420411
31
0
0
ARC
5
157
100
AcDbEntity
8
0
100
AcDbCircle
10
-56.947179213137602
20
-64.512425088494354
30
0
40
3.0000000000000302
210
-0
220
0
230
1
100
AcDbArc
50
270.00153311131243
51
360
0
LINE
5
158
100
AcDbEntity
8
0
100
AcDbLine
10
-53.947179213137595
20
-64.512425088494396
30
0
11
-53.947179213137559
21
-57.011913506173272
31
0
0
ARC
5
159
100
AcDbEntity
8
0
100
AcDbCircle
10
-50.947179213137552
20
-57.011913506173272
30
0
40
3.0000000000000071
210
-0
220
0
230
1
100
AcDbArc
50
90
51
180
0
LINE
5
160
100
AcDbEntity
8
0
100
AcDbLine
10
-50.947179213137552
20
-54.011913506173258
30
0
11
-40.828163238761874
21
-54.011913506173258
31
0
0
ARC
5
161
100
AcDbEntity
8
0
100
AcDbCircle
10
-40.828163238761874
20
-57.011913506173272
30
0
40
3.0000000000000071
210
0
220
-0
230
1
100
AcDbArc
50
0
51
90
0
LINE
5
162
100
AcDbEntity
8
0
100
AcDbLine
10
-37.828163238761867
20
-57.011913506173272
30
0
11
-37.828163238761903
21
-64.51183323139972
31
0
0
SPLINE
5
163
100
AcDbEntity
8
0
100
AcDbSpline
70
0
71
3
72
17
73
13
74
0
42
0.000000001
43
0.0000000001
44
0.0000000001
40
-4
40
-4
40
-4
40
-4
40
-3
40
-3
40
-3
40
-2
40
-2
40
-2
40
-1
40
-1
40
-1
40
0
40
0
40
0
40
0
10
75.037500532647073
20
-63.514127286640054
30
0
10
75.037500532647073
20
-64.121640511268353
30
0
10
74.545013757550223
20
-64.614127286365118
30
0
10
73.937500532922655
20
-64.614127286365118
30
0
10
73.329987308293624
20
-64.614127286365118
30
0
10
72.837500533196859
20
-64.121640511268353
30
0
10
72.837500533196859
20
-63.514127286640054
30
0
10
72.837500533196859
20
-62.906614062013077
30
0
10
73.329987308293624
20
-62.41412728691499
30
0
10
73.937500532922655
20
-62.41412728691499
30
0
10
74.545013757550223
20
-62.41412728691499
30
0
10
75.037500532647073
20
-62.906614062013077
30
0
10
75.037500532647073
20
-63.514127286640054
30
0
0
CIRCLE
5
164
100
AcDbEntity
8
0
100
AcDbCircle
10
-75.937496458863407
20
0.016848300490241996
30
0
40
1.0000000000000142
210
0
220
0
230
1
0
CIRCLE
5
165
100
AcDbEntity
8
0
100
AcDbCircle
10
26.032754747568738
20
70.524540548713347
30
0
40
1.0000000000000142
210
0
220
0
230
1
0
SPLINE
5
166
100
AcDbEntity
8
0
100
AcDbSpline
70
0
71
3
72
17
73
13
74
0
42
0.000000001
43
0.0000000001
44
0.0000000001
40
-4
40
-4
40
-4
40
-4
40
-3
40
-3
40
-3
40
-2
40
-2
40
-2
40
-1
40
-1
40
-1
40
0
40
0
40
0
40
0
10
-31.59991211452386
20
17.566688253930014
30
0
10
-32.428339856891171
20
17.566688253930014
30
0
10
-33.099912527947737
20
18.238260924986722
30
0
10
-33.099912527947737
20
19.066688667353322
30
0
10
-33.099912527947737
20
19.895116409721343
30
0
10
-32.428339856891171
20
20.566689080777909
30
0
10
-31.59991211452386
20
20.566689080777909
30
0
10
-30.771484372156443
20
20.566689080777909
30
0
10
-30.099911701099842
20
19.895116409721343
30
0
10
-30.099911701099842
20
19.066688667353322
30
0
10
-30.099911701099842
20
18.238260924986722
30
0
10
-30.771484372156443
20
17.566688253930014
30
0
10
-31.59991211452386
20
17.566688253930014
30
0
0
SPLINE
5
167
100
AcDbEntity
8
0
100
AcDbSpline
70
0
71
3
72
17
73
13
74
0
42
0.000000001
43
0.0000000001
44
0.0000000001
40
-4
40
-4
40
-4
40
-4
40
-3
40
-3
40
-3
40
-2
40
-2
40
-2
40
-1
40
-1
40
-1
40
0
40
0
40
0
40
0
10
70.275000533837641
20
63.525462214114953
30
0
10
70.275000533837641
20
62.917948989486604
30
0
10
69.782513758740876
20
62.425462214389839
30
0
10
69.175000534113238
20
62.425462214389839
30
0
10
68.567487309484363
20
62.425462214389839
30
0
10
68.075000534387556
20
62.917948989486604
30
0
10
68.075000534387556
20
63.525462214114953
30
0
10
68.075000534387556
20
64.132975438741951
30
0
10
68.567487309484363
20
64.625462213840009
30
0
10
69.175000534113238
20
64.625462213840009
30
0
10
69.782513758740876
20
64.625462213840009
30
0
10
70.275000533837641
20
64.132975438741951
30
0
10
70.275000533837641
20
63.525462214114953
30
0
0
CIRCLE
5
168
100
AcDbEntity
8
0
100
AcDbCircle
10
-3.2106349204780571
20
-70.524540548713347
30
0
40
1.0000000000000142
210
0
220
0
230
1
0
ENDSEC
0
SECTION
2
OBJECTS
0
DICTIONARY
5
C
100
AcDbDictionary
3
ACAD_GROUP
350
D
3
ACAD_MLINESTYLE
350
17
0
DICTIONARY
5
D
100
AcDbDictionary
0
DICTIONARY
5
1A
330
C
100
AcDbDictionary
0
DICTIONARY
5
17
100
AcDbDictionary
0
ENDSEC
0
EOF
