0
SECTION
2
HEADER
9
$INSUNITS
70
4
9
$ACADVER
1
AC1014
9
$HANDSEED
5
FFFF
0
ENDSEC
0
SECTION
2
TABLES
0
TABLE
2
VPORT
5
8
100
AcDbSymbolTable
0
ENDTAB
0
TABLE
2
LTYPE
5
5
100
AcDbSymbolTable
0
LTYPE
5
14
100
AcDbSymbolTableRecord
100
AcDbLinetypeTableRecord
2
BYBLOCK
70
0
0
LTYPE
5
15
100
AcDbSymbolTableRecord
100
AcDbLinetypeTableRecord
2
BYLAYER
70
0
0
ENDTAB
0
TABLE
2
LAYER
5
2
100
AcDbSymbolTable
70
2
0
LAYER
5
50
100
AcDbSymbolTableRecord
100
AcDbLayerTableRecord
2
0
70
0
6
CONTINUOUS
0
ENDTAB
0
TABLE
2
STYLE
5
3
100
AcDbSymbolTable
70
1
0
STYLE
5
11
100
AcDbSymbolTableRecord
100
AcDbTextStyleTableRecord
2
STANDARD
70
0
0
ENDTAB
0
TABLE
2
VIEW
5
6
100
AcDbSymbolTable
70
0
0
ENDTAB
0
TABLE
2
UCS
5
7
100
AcDbSymbolTable
70
0
0
ENDTAB
0
TABLE
2
APPID
5
9
100
AcDbSymbolTable
70
2
0
APPID
5
12
100
AcDbSymbolTableRecord
100
AcDbRegAppTableRecord
2
ACAD
70
0
0
ENDTAB
0
TABLE
2
DIMSTYLE
5
A
100
AcDbSymbolTable
70
1
0
ENDTAB
0
TABLE
2
BLOCK_RECORD
5
1
100
AcDbSymbolTable
70
1
0
BLOCK_RECORD
5
1F
100
AcDbSymbolTableRecord
100
AcDbBlockTableRecord
2
*MODEL_SPACE
0
BLOCK_RECORD
5
1B
100
AcDbSymbolTableRecord
100
AcDbBlockTableRecord
2
*PAPER_SPACE
0
ENDTAB
0
ENDSEC
0
SECTION
2
BLOCKS
0
BLOCK
5
20
100
AcDbEntity
100
AcDbBlockBegin
2
*MODEL_SPACE
0
ENDBLK
5
21
100
AcDbEntity
100
AcDbBlockEnd
0
BLOCK
5
1C
100
AcDbEntity
100
AcDbBlockBegin
2
*PAPER_SPACE
0
ENDBLK
5
1D
100
AcDbEntity
100
AcDbBlockEnd
0
ENDSEC
0
SECTION
2
ENTITIES
0
CIRCLE
5
100
100
AcDbEntity
8
0
100
AcDbCircle
10
52.461936905390004
20
-7.5311923205824449
30
0
40
0.99999999999998757
210
0
220
0
230
1
0
CIRCLE
5
101
100
AcDbEntity
8
0
100
AcDbCircle
10
-43.174604201576742
20
-27.531192332860499
30
0
40
0.99999999999999645
210
0
220
0
230
1
0
CIRCLE
5
102
100
AcDbEntity
8
0
100
AcDbCircle
10
52.461745626787518
20
-27.531192332860481
30
0
40
0.99999999999999645
210
0
220
0
230
1
0
CIRCLE
5
103
100
AcDbEntity
8
0
100
AcDbCircle
10
-43.174412922974255
20
-7.5311923205824627
30
0
40
0.99999999999999645
210
0
220
0
230
1
0
CIRCLE
5
104
100
AcDbEntity
8
0
100
AcDbCircle
10
1.0865013735081952
20
-70.531192338802924
30
-1.1102230246251565e-15
40
1.0000000000000142
210
0
220
0
230
1
0
CIRCLE
5
105
100
AcDbEntity
8
0
100
AcDbCircle
10
-32.484069723331444
20
70.531192338802967
30
1.1102230246251565e-15
40
1.0000000000000142
210
0
220
0
230
1
0
LINE
5
106
100
AcDbEntity
8
0
100
AcDbLine
10
26.80277659150379
20
-53.994162029737552
30
0
11
36.660063818572524
21
-53.994162029737552
31
0
0
ARC
5
107
100
AcDbEntity
8
0
100
AcDbCircle
10
36.660063818572524
20
-56.994162029737566
30
0
40
2.9999999999999982
210
0
220
-0
230
1
100
AcDbArc
50
0
51
90
0
LINE
5
108
100
AcDbEntity
8
0
100
AcDbLine
10
39.660063818572524
20
-56.994162029737566
30
0
11
39.660063818572539
21
-64.531192338802924
31
0
0
ARC
5
109
100
AcDbEntity
8
0
100
AcDbCircle
10
42.660063818572539
20
-64.531192338802924
30
0
40
3.0000000000000071
210
0
220
0
230
1
100
AcDbArc
50
180
51
269.99999999999983
0
LINE
5
110
100
AcDbEntity
8
0
100
AcDbLine
10
42.660063818572532
20
-67.531192338802924
30
0
11
78.461924913396487
21
-67.53119233880291
31
0
0
SPLINE
5
111
100
AcDbEntity
8
0
100
AcDbSpline
70
0
71
3
72
8
73
4
74
0
42
0.000000001
43
0.0000000001
44
0.0000000001
40
19
40
19
40
19
40
19
40
20
40
20
40
20
40
20
10
78.461924913396487
20
-67.53119233880291
30
0
10
80.671063912167241
20
-67.53119233880291
30
0
10
82.461924912396242
20
-65.740331338573853
30
0
10
82.461924912396242
20
-63.531192339802857
30
0
0
LINE
5
112
100
AcDbEntity
8
0
100
AcDbLine
10
82.461924912396242
20
-63.531192339802857
30
0
11
82.461924912396171
21
-10.416079783099796
31
0
0
ARC
5
113
100
AcDbEntity
8
0
100
AcDbCircle
10
85.4619249123961
20
-10.416079783099761
30
0
40
2.999999999999921
210
0
220
0
230
1
100
AcDbArc
50
99.594068226859065
51
180
0
ARC
5
114
100
AcDbEntity
8
0
100
AcDbCircle
10
84.461924912396199
20
-4.5000000000001705
30
0
40
3.0000000000000346
210
-0
220
0
230
1
100
AcDbArc
50
279.5940682268598
51
360
0
LINE
5
115
100
AcDbEntity
8
0
100
AcDbLine
10
87.461924912396242
20
-4.5000000000001705
30
0
11
87.461924912396171
21
4.4999999999998508
31
0
0
ARC
5
116
100
AcDbEntity
8
0
100
AcDbCircle
10
84.461924912396213
20
4.4999999999998685
30
0
40
2.9999999999999361
210
-0
220
0
230
1
100
AcDbArc
50
0
51
80.405931773140722
0
ARC
5
117
100
AcDbEntity
8
0
100
AcDbCircle
10
85.461924912396114
20
10.416079783099459
30
0
40
2.9999999999999538
210
0
220
0
230
1
100
AcDbArc
50
180
51
260.40593177314076
0
LINE
5
118
100
AcDbEntity
8
0
100
AcDbLine
10
82.461924912396171
20
10.416079783099459
30
0
11
82.461924912396171
21
63.531192339802644
31
0
0
SPLINE
5
119
100
AcDbEntity
8
0
100
AcDbSpline
70
0
71
3
72
8
73
4
74
0
42
0.000000001
43
0.0000000001
44
0.0000000001
40
21
40
21
40
21
40
21
40
22
40
22
40
22
40
22
10
82.461924912396242
20
63.531192339802672
30
0
10
82.461924912396242
20
65.740331338573284
30
0
10
80.671063912167241
20
67.531192338802995
30
0
10
78.461924913396487
20
67.531192338802995
30
0
0
LINE
5
120
100
AcDbEntity
8
0
100
AcDbLine
10
78.461924913396487
20
67.531192338802995
30
0
11
-22.0679899402319
21
67.531192338802967
31
0
0
ARC
5
121
100
AcDbEntity
8
0
100
AcDbCircle
10
-22.067989940231882
20
70.53119233880301
30
0
40
3.0000000000000417
210
0
220
0
230
1
100
AcDbArc
50
189.5940682268625
51
269.9999999999996
0
ARC
5
122
100
AcDbEntity
8
0
100
AcDbCircle
10
-27.984069723331384
20
69.531192338802995
30
0
40
2.9999999999998481
210
0
220
-0
230
1
100
AcDbArc
50
9.5940682268590063
51
90.000000000000696
0
LINE
5
123
100
AcDbEntity
8
0
100
AcDbLine
10
-27.98406972333142
20
72.531192338802825
30
0
11
-36.984069723331473
21
72.531192338802967
31
0
0
ARC
5
124
100
AcDbEntity
8
0
100
AcDbCircle
10
-36.984069723331459
20
69.531192338802924
30
0
40
3.0000000000000426
210
0
220
0
230
1
100
AcDbArc
50
90.00000000000027
51
170.40593177313747
0
ARC
5
125
100
AcDbEntity
8
0
100
AcDbCircle
10
-42.900149506431191
20
70.531192338803081
30
0
40
3.0000000000001137
210
-0
220
0
230
1
100
AcDbArc
50
270.00000000000159
51
350.40593177313912
0
LINE
5
126
100
AcDbEntity
8
0
100
AcDbLine
10
-42.900149506431106
20
67.531192338802967
30
0
11
-71.174424916467899
21
67.531192338802967
31
0
0
SPLINE
5
127
100
AcDbEntity
8
0
100
AcDbSpline
70
0
71
3
72
8
73
4
74
0
42
0.000000001
43
0.0000000001
44
0.0000000001
40
23
40
23
40
23
40
23
40
24
40
24
40
24
40
24
10
-71.174424916467828
20
67.531192338802995
30
0
10
-72.278994415853163
20
67.531192338802995
30
0
10
-73.174424915968018
20
66.635761838688254
30
0
10
-73.174424915968018
20
65.531192339302237
30
0
0
LINE
5
128
100
AcDbEntity
8
0
100
AcDbLine
10
-73.174424915968018
20
65.531192339302265
30
0
11
-73.174424915968089
21
23.431192349828098
31
0
0
SPLINE
5
129
100
AcDbEntity
8
0
100
AcDbSpline
70
0
71
3
72
8
73
4
74
0
42
0.000000001
43
0.0000000001
44
0.0000000001
40
1
40
1
40
1
40
1
40
2
40
2
40
2
40
2
10
-73.174424915968018
20
23.431192349828134
30
0
10
-73.174424915968018
20
22.326622850443467
30
0
10
-74.069855416082873
20
21.431192350328541
30
0
10
-75.17442491546818
20
21.431192350328541
30
0
0
LINE
5
130
100
AcDbEntity
8
0
100
AcDbLine
10
-75.17442491546818
20
21.431192350328541
30
0
11
-80.699424914086663
21
21.431192350328505
31
0
0
SPLINE
5
131
100
AcDbEntity
8
0
100
AcDbSpline
70
0
71
3
72
8
73
4
74
0
42
0.000000001
43
0.0000000001
44
0.0000000001
40
3
40
3
40
3
40
3
40
4
40
4
40
4
40
4
10
-80.699424914086592
20
21.431192350328541
30
0
10
-81.803994413471926
20
21.431192350328541
30
0
10
-82.699424913586782
20
20.535761850213721
30
0
10
-82.699424913586782
20
19.43119235082774
30
0
0
LINE
5
132
100
AcDbEntity
8
0
100
AcDbLine
10
-82.699424913586782
20
19.43119235082774
30
0
11
-82.699424913586853
21
4.3811923545906062
31
0
0
SPLINE
5
133
100
AcDbEntity
8
0
100
AcDbSpline
70
0
71
3
72
8
73
4
74
0
42
0.000000001
43
0.0000000001
44
0.0000000001
40
5
40
5
40
5
40
5
40
6
40
6
40
6
40
6
10
-82.699424913586782
20
4.3811923545906417
30
0
10
-82.699424913586782
20
3.2766228552059395
30
0
10
-83.594855413701637
20
2.3811923550910308
30
0
10
-84.699424913086943
20
2.3811923550910308
30
0
0
LINE
5
134
100
AcDbEntity
8
0
100
AcDbLine
10
-84.699424913086943
20
2.3811923550910308
30
0
11
-85.461924912896038
21
2.3811923550909952
31
0
0
SPLINE
5
135
100
AcDbEntity
8
0
100
AcDbSpline
70
0
71
3
72
8
73
4
74
0
42
0.000000001
43
0.0000000001
44
0.0000000001
40
7
40
7
40
7
40
7
40
8
40
8
40
8
40
8
10
-85.461924912895967
20
2.3811923550910308
30
0
10
-86.566494412281315
20
2.3811923550910308
30
0
10
-87.461924912396171
20
1.4857618549762108
30
0
10
-87.461924912396171
20
0.38119235559022968
30
0
0
LINE
5
136
100
AcDbEntity
8
0
100
AcDbLine
10
-87.461924912396171
20
0.38119235559022968
30
0
11
-87.461924912396242
21
-14.668692352018642
31
0
0
SPLINE
5
137
100
AcDbEntity
8
0
100
AcDbSpline
70
0
71
3
72
8
73
4
74
0
42
0.000000001
43
0.0000000001
44
0.0000000001
40
9
40
9
40
9
40
9
40
10
40
10
40
10
40
10
10
-87.461924912396171
20
-14.668692352018606
30
0
10
-87.461924912396171
20
-15.773261851403877
30
0
10
-86.566494412281912
20
-16.668692351518377
30
0
10
-85.461924912896606
20
-16.668692351518377
30
0
0
LINE
5
138
100
AcDbEntity
8
0
100
AcDbLine
10
-85.461924912896649
20
-16.668692351518377
30
0
11
-79.936924914277029
21
-16.668692351518413
31
0
0
SPLINE
5
139
100
AcDbEntity
8
0
100
AcDbSpline
70
0
71
3
72
8
73
4
74
0
42
0.000000001
43
0.0000000001
44
0.0000000001
40
11
40
11
40
11
40
11
40
12
40
12
40
12
40
12
10
-79.936924914276958
20
-16.668692351518377
30
0
10
-78.83235541489158
20
-16.668692351518377
30
0
10
-77.936924914777407
20
-17.564122851633268
30
0
10
-77.936924914777407
20
-18.668692351018272
30
0
0
LINE
5
140
100
AcDbEntity
8
0
100
AcDbLine
10
-77.936924914777407
20
-18.668692351018272
30
0
11
-77.936924914777478
21
-33.718692347256095
31
0
0
SPLINE
5
141
100
AcDbEntity
8
0
100
AcDbSpline
70
0
71
3
72
8
73
4
74
0
42
0.000000001
43
0.0000000001
44
0.0000000001
40
13
40
13
40
13
40
13
40
14
40
14
40
14
40
14
10
-77.936924914777407
20
-33.718692347256081
30
0
10
-77.936924914777407
20
-34.823261846641351
30
0
10
-77.041494414663191
20
-35.718692346755873
30
0
10
-75.936924915277842
20
-35.718692346755873
30
0
0
LINE
5
142
100
AcDbEntity
8
0
100
AcDbLine
10
-75.936924915277885
20
-35.718692346755873
30
0
11
-70.411924916658265
21
-35.718692346755887
31
0
0
SPLINE
5
143
100
AcDbEntity
8
0
100
AcDbSpline
70
0
71
3
72
8
73
4
74
0
42
0.000000001
43
0.0000000001
44
0.0000000001
40
15
40
15
40
15
40
15
40
16
40
16
40
16
40
16
10
-70.411924916658194
20
-35.718692346755873
30
0
10
-69.307355417272859
20
-35.718692346755873
30
0
10
-68.411924917158643
20
-36.614122846870778
30
0
10
-68.411924917158643
20
-37.718692346255779
30
0
0
LINE
5
144
100
AcDbEntity
8
0
100
AcDbLine
10
-68.411924917158643
20
-37.718692346255779
30
0
11
-68.411924917158714
21
-65.531192339303061
31
0
0
SPLINE
5
145
100
AcDbEntity
8
0
100
AcDbSpline
70
0
71
3
72
8
73
4
74
0
42
0.000000001
43
0.0000000001
44
0.0000000001
40
17
40
17
40
17
40
17
40
18
40
18
40
18
40
18
10
-68.411924917158643
20
-65.531192339303047
30
0
10
-68.411924917158643
20
-66.635761838688396
30
0
10
-67.516494417043788
20
-67.53119233880291
30
0
10
-66.411924917658439
20
-67.53119233880291
30
0
0
LINE
5
146
100
AcDbEntity
8
0
100
AcDbLine
10
-66.411924917658482
20
-67.53119233880291
30
0
11
-36.979921650212958
21
-67.531192338802924
31
0
0
ARC
5
147
100
AcDbEntity
8
0
100
AcDbCircle
10
-36.979921650212987
20
-64.531192338802882
30
0
40
3.0000000000000426
210
-0
220
0
230
1
100
AcDbArc
50
270.00000000000051
51
360
0
LINE
5
148
100
AcDbEntity
8
0
100
AcDbLine
10
-33.979921650212944
20
-64.531192338802924
30
0
11
-33.979921650212944
21
-50.994162029737581
31
0
0
ARC
5
149
100
AcDbEntity
8
0
100
AcDbCircle
10
-30.97992165021294
20
-50.994162029737581
30
0
40
3.0000000000000071
210
-0
220
0
230
1
100
AcDbArc
50
90
51
180
0
LINE
5
150
100
AcDbEntity
8
0
100
AcDbLine
10
-30.97992165021294
20
-47.994162029737581
30
0
11
-24.568106689606335
21
-47.994162029737559
31
0
0
ARC
5
151
100
AcDbEntity
8
0
100
AcDbCircle
10
-24.568106689606335
20
-50.994162029737566
30
0
40
3.0000000000000071
210
0
220
-0
230
1
100
AcDbArc
50
0
51
90
0
LINE
5
152
100
AcDbEntity
8
0
100
AcDbLine
10
-21.568106689606328
20
-50.994162029737566
30
0
11
-21.568106689606328
21
-64.531192338802924
31
0
0
ARC
5
153
100
AcDbEntity
8
0
100
AcDbCircle
10
-18.568106689606285
20
-64.531192338802882
30
0
40
3.0000000000000426
210
0
220
0
230
1
100
AcDbArc
50
180
51
269.99999999999932
0
LINE
5
154
100
AcDbEntity
8
0
100
AcDbLine
10
-18.568106689606321
20
-67.531192338802924
30
0
11
-9.3295784095914236
21
-67.531192338802924
31
0
0
ARC
5
155
100
AcDbEntity
8
0
100
AcDbCircle
10
-9.3295784095914591
20
-70.531192338802967
30
0
40
3.0000000000000284
210
0
220
-0
230
1
100
AcDbArc
50
9.5940682268611823
51
89.999999999999304
0
ARC
5
156
100
AcDbEntity
8
0
100
AcDbCircle
10
-3.4134986264917622
20
-69.531192338802924
30
0
40
3.0000000000000586
210
0
220
0
230
1
100
AcDbArc
50
189.59406822686023
51
269.99999999999864
0
LINE
5
157
100
AcDbEntity
8
0
100
AcDbLine
10
-3.4134986264918332
20
-72.531192338802981
30
0
11
5.5865013735082236
21
-72.531192338802953
31
0
0
ARC
5
158
100
AcDbEntity
8
0
100
AcDbCircle
10
5.5865013735082059
20
-69.531192338802924
30
0
40
3.0000000000000249
210
-0
220
0
230
1
100
AcDbArc
50
270.00000000000034
51
350.40593177313912
0
ARC
5
159
100
AcDbEntity
8
0
100
AcDbCircle
10
11.50258115660785
20
-70.531192338802967
30
0
40
3.0000000000000426
210
0
220
0
230
1
100
AcDbArc
50
90.000000000000341
51
170.40593177313912
0
LINE
5
160
100
AcDbEntity
8
0
100
AcDbLine
10
11.502581156607832
20
-67.531192338802924
30
0
11
20.802776591503775
21
-67.531192338802924
31
0
0
ARC
5
161
100
AcDbEntity
8
0
100
AcDbCircle
10
20.80277659150374
20
-64.531192338802882
30
0
40
3.0000000000000426
210
-0
220
0
230
1
100
AcDbArc
50
270.00000000000068
51
360
0
LINE
5
162
100
AcDbEntity
8
0
100
AcDbLine
10
23.802776591503783
20
-64.531192338802924
30
0
11
23.802776591503783
21
-56.994162029737566
31
0
0
ARC
5
163
100
AcDbEntity
8
0
100
AcDbCircle
10
26.80277659150379
20
-56.994162029737566
30
0
40
3.0000000000000071
210
-0
220
0
230
1
100
AcDbArc
50
90
51
180
0
SPLINE
5
164
100
AcDbEntity
8
0
100
AcDbSpline
70
0
71
3
72
17
73
13
74
0
42
0.000000001
43
0.0000000001
44
0.0000000001
40
-4
40
-4
40
-4
40
-4
40
-3
40
-3
40
-3
40
-2
40
-2
40
-2
40
-1
40
-1
40
-1
40
0
40
0
40
0
40
0
10
-63.311892567939111
20
-63.531224690296938
30
0
10
-63.311892567939111
20
-64.138737914925215
30
0
10
-63.804379343035876
20
-64.631224690022023
30
0
10
-64.411892567664154
20
-64.631224690022023
30
0
10
-65.019405792292432
20
-64.631224690022023
30
0
10
-65.511892567389239
20
-64.138737914925215
30
0
10
-65.511892567389239
20
-63.531224690296938
30
0
10
-65.511892567389239
20
-62.923711465669321
30
0
10
-65.019405792292432
20
-62.431224690571874
30
0
10
-64.411892567664154
20
-62.431224690571874
30
0
10
-63.804379343035876
20
-62.431224690571874
30
0
10
-63.311892567939111
20
-62.923711465669321
30
0
10
-63.311892567939111
20
-63.531224690296938
30
0
0
SPLINE
5
165
100
AcDbEntity
8
0
100
AcDbSpline
70
0
71
3
72
17
73
13
74
0
42
0.000000001
43
0.0000000001
44
0.0000000001
40
-4
40
-4
40
-4
40
-4
40
-3
40
-3
40
-3
40
-2
40
-2
40
-2
40
-1
40
-1
40
-1
40
0
40
0
40
0
40
0
10
27.433161089495055
20
24.100459056640045
30
0
10
26.604734257965017
20
24.100459056640045
30
0
10
25.933162325286983
20
24.772030989317937
30
0
10
25.933162325286983
20
25.600457820848082
30
0
10
25.933162325286983
20
26.42888465237812
30
0
10
26.604734257965017
20
27.100461545992811
30
0
10
27.433161089495055
20
27.100461545992811
30
0
10
28.261587921025093
20
27.100461545992811
30
0
10
28.933159853703128
20
26.42888465237812
30
0
10
28.933159853703128
20
25.600457820848082
30
0
10
28.933159853703128
20
24.772030989317937
30
0
10
28.261587921025093
20
24.100459056640045
30
0
10
27.433161089495055
20
24.100459056640045
30
0
0
SPLINE
5
166
100
AcDbEntity
8
0
100
AcDbSpline
70
0
71
3
72
17
73
13
74
0
42
0.000000001
43
0.0000000001
44
0.0000000001
40
-4
40
-4
40
-4
40
-4
40
-3
40
-3
40
-3
40
-2
40
-2
40
-2
40
-1
40
-1
40
-1
40
0
40
0
40
0
40
0
10
-68.074392566748486
20
63.531339978926042
30
0
10
-68.074392566748486
20
62.923826754297764
30
0
10
-68.566879341845265
20
62.431339979200956
30
0
10
-69.174392566473543
20
62.431339979200956
30
0
10
-69.781905791101821
20
62.431339979200956
30
0
10
-70.274392566198628
20
62.923826754297764
30
0
10
-70.274392566198628
20
63.531339978926042
30
0
10
-70.274392566198628
20
64.138853203553069
30
0
10
-69.781905791101821
20
64.631339978651127
30
0
10
-69.174392566473543
20
64.631339978651127
30
0
10
-68.566879341845265
20
64.631339978651127
30
0
10
-68.074392566748486
20
64.138853203553069
30
0
10
-68.074392566748486
20
63.531339978926042
30
0
0
CIRCLE
5
167
100
AcDbEntity
8
0
100
AcDbCircle
10
85.461924912396142
20
-1.4210854715202004e-13
30
0
40
1.0000000000000142
210
0
220
0
230
1
0
ENDSEC
0
SECTION
2
OBJECTS
0
DICTIONARY
5
C
100
AcDbDictionary
3
ACAD_GROUP
350
D
3
ACAD_MLINESTYLE
350
17
0
DICTIONARY
5
D
100
AcDbDictionary
0
DICTIONARY
5
1A
330
C
100
AcDbDictionary
0
DICTIONARY
5
17
100
AcDbDictionary
0
ENDSEC
0
EOF
