0
SECTION
2
HEADER
9
$INSUNITS
70
4
9
$ACADVER
1
AC1014
9
$HANDSEED
5
FFFF
0
ENDSEC
0
SECTION
2
TABLES
0
TABLE
2
VPORT
5
8
100
AcDbSymbolTable
0
ENDTAB
0
TABLE
2
LTYPE
5
5
100
AcDbSymbolTable
0
LTYPE
5
14
100
AcDbSymbolTableRecord
100
AcDbLinetypeTableRecord
2
BYBLOCK
70
0
0
LTYPE
5
15
100
AcDbSymbolTableRecord
100
AcDbLinetypeTableRecord
2
BYLAYER
70
0
0
ENDTAB
0
TABLE
2
LAYER
5
2
100
AcDbSymbolTable
70
2
0
LAYER
5
50
100
AcDbSymbolTableRecord
100
AcDbLayerTableRecord
2
0
70
0
6
CONTINUOUS
0
ENDTAB
0
TABLE
2
STYLE
5
3
100
AcDbSymbolTable
70
1
0
STYLE
5
11
100
AcDbSymbolTableRecord
100
AcDbTextStyleTableRecord
2
STANDARD
70
0
0
ENDTAB
0
TABLE
2
VIEW
5
6
100
AcDbSymbolTable
70
0
0
ENDTAB
0
TABLE
2
UCS
5
7
100
AcDbSymbolTable
70
0
0
ENDTAB
0
TABLE
2
APPID
5
9
100
AcDbSymbolTable
70
2
0
APPID
5
12
100
AcDbSymbolTableRecord
100
AcDbRegAppTableRecord
2
ACAD
70
0
0
ENDTAB
0
TABLE
2
DIMSTYLE
5
A
100
AcDbSymbolTable
70
1
0
ENDTAB
0
TABLE
2
BLOCK_RECORD
5
1
100
AcDbSymbolTable
70
1
0
BLOCK_RECORD
5
1F
100
AcDbSymbolTableRecord
100
AcDbBlockTableRecord
2
*MODEL_SPACE
0
BLOCK_RECORD
5
1B
100
AcDbSymbolTableRecord
100
AcDbBlockTableRecord
2
*PAPER_SPACE
0
ENDTAB
0
ENDSEC
0
SECTION
2
BLOCKS
0
BLOCK
5
20
100
AcDbEntity
100
AcDbBlockBegin
2
*MODEL_SPACE
0
ENDBLK
5
21
100
AcDbEntity
100
AcDbBlockEnd
0
BLOCK
5
1C
100
AcDbEntity
100
AcDbBlockBegin
2
*PAPER_SPACE
0
ENDBLK
5
1D
100
AcDbEntity
100
AcDbBlockEnd
0
ENDSEC
0
SECTION
2
ENTITIES
0
LINE
5
100
100
AcDbEntity
8
0
100
AcDbLine
10
-55.756460012241519
20
-34.074981866031891
30
0
11
-55.75646001224154
21
-21.074981866031891
31
0
0
ARC
5
101
100
AcDbEntity
8
0
100
AcDbCircle
10
-55.256460012241533
20
-21.074981866031891
30
0
40
0.50000000000000711
210
0
220
-0
230
1
100
AcDbArc
50
90
51
180
0
LINE
5
102
100
AcDbEntity
8
0
100
AcDbLine
10
-55.256460012241533
20
-20.574981866031884
30
0
11
-44.78196001224152
21
-20.574981866031884
31
0
0
ARC
5
103
100
AcDbEntity
8
0
100
AcDbCircle
10
-44.78196001224152
20
-21.074981866031891
30
0
40
0.50000000000000711
210
0
220
0
230
1
100
AcDbArc
50
0
51
90
0
ARC
5
104
100
AcDbEntity
8
0
100
AcDbCircle
10
-43.781960012241505
20
-21.074981866031873
30
0
40
0.49999999999999822
210
0
220
0
230
1
100
AcDbArc
50
180
51
269.99999999999756
0
LINE
5
105
100
AcDbEntity
8
0
100
AcDbLine
10
-43.781960012241527
20
-21.57498186603187
30
0
11
-27.655960012241518
21
-21.574981866031884
31
0
0
ARC
5
106
100
AcDbEntity
8
0
100
AcDbCircle
10
-27.655960012241536
20
-21.074981866031838
30
0
40
0.50000000000005151
210
-0
220
0
230
1
100
AcDbArc
50
270.00000000000205
51
360
0
ARC
5
107
100
AcDbEntity
8
0
100
AcDbCircle
10
-26.655960012241504
20
-21.074981866031891
30
0
40
0.50000000000000711
210
0
220
-0
230
1
100
AcDbArc
50
90
51
180
0
LINE
5
108
100
AcDbEntity
8
0
100
AcDbLine
10
-26.655960012241504
20
-20.574981866031884
30
0
11
-20.905960012241511
21
-20.574981866031884
31
0
0
ARC
5
109
100
AcDbEntity
8
0
100
AcDbCircle
10
-20.905960012241511
20
-21.074981866031891
30
0
40
0.50000000000000711
210
0
220
0
230
1
100
AcDbArc
50
0
51
90
0
ARC
5
110
100
AcDbEntity
8
0
100
AcDbCircle
10
-19.905960012241497
20
-21.074981866031933
30
0
40
0.50000000000000711
210
0
220
0
230
1
100
AcDbArc
50
180
51
270
0
LINE
5
111
100
AcDbEntity
8
0
100
AcDbLine
10
-19.905960012241497
20
-21.574981866031941
30
0
11
15.143039987758531
21
-21.574981866031884
31
0
0
ARC
5
112
100
AcDbEntity
8
0
100
AcDbCircle
10
15.143039987758531
20
-21.074981866031944
30
0
40
0.49999999999993605
210
-0
220
0
230
1
100
AcDbArc
50
-90
51
0
0
ARC
5
113
100
AcDbEntity
8
0
100
AcDbCircle
10
16.143039987758492
20
-21.074981866031898
30
0
40
0.50000000000000711
210
0
220
-0
230
1
100
AcDbArc
50
90
51
180
0
LINE
5
114
100
AcDbEntity
8
0
100
AcDbLine
10
16.143039987758492
20
-20.574981866031891
30
0
11
21.89303998775852
21
-20.574981866031891
31
0
0
ARC
5
115
100
AcDbEntity
8
0
100
AcDbCircle
10
21.89303998775852
20
-21.074981866031898
30
0
40
0.50000000000000711
210
0
220
0
230
1
100
AcDbArc
50
0
51
90
0
ARC
5
116
100
AcDbEntity
8
0
100
AcDbCircle
10
22.893039987758534
20
-21.074981866031944
30
0
40
0.50000000000000711
210
0
220
0
230
1
100
AcDbArc
50
180
51
269.99999999999795
0
LINE
5
117
100
AcDbEntity
8
0
100
AcDbLine
10
22.893039987758517
20
-21.574981866031951
30
0
11
39.019039987758489
21
-21.574981866031891
31
0
0
ARC
5
118
100
AcDbEntity
8
0
100
AcDbCircle
10
39.019039987758468
20
-21.074981866031933
30
0
40
0.4999999999999627
210
-0
220
0
230
1
100
AcDbArc
50
-90
51
0
0
ARC
5
119
100
AcDbEntity
8
0
100
AcDbCircle
10
40.019039987758482
20
-21.074981866031898
30
0
40
0.49999999999999822
210
0
220
-0
230
1
100
AcDbArc
50
90
51
180
0
LINE
5
120
100
AcDbEntity
8
0
100
AcDbLine
10
40.019039987758482
20
-20.574981866031901
30
0
11
50.493539987758496
21
-20.574981866031891
31
0
0
ARC
5
121
100
AcDbEntity
8
0
100
AcDbCircle
10
50.493539987758496
20
-21.074981866031898
30
0
40
0.50000000000000711
210
0
220
0
230
1
100
AcDbArc
50
0
51
90
0
ARC
5
122
100
AcDbEntity
8
0
100
AcDbCircle
10
51.49353998775851
20
-21.07498186603188
30
0
40
0.50000000000000711
210
0
220
0
230
1
100
AcDbArc
50
180
51
269.99999999998778
0
LINE
5
123
100
AcDbEntity
8
0
100
AcDbLine
10
51.493539987758403
20
-21.574981866031887
30
0
11
53.274789987758382
21
-21.574981866032278
31
0
0
ARC
5
124
100
AcDbEntity
8
0
100
AcDbCircle
10
53.274789987758453
20
-21.074981866032253
30
0
40
0.50000000000002487
210
0
220
0
230
1
100
AcDbArc
50
-90.000000000008143
51
0
0
ARC
5
125
100
AcDbEntity
8
0
100
AcDbCircle
10
54.274789987758432
20
-21.074981866031873
30
0
40
0.49999999999998046
210
0
220
-0
230
1
100
AcDbArc
50
89.999999999995936
51
180
0
LINE
5
126
100
AcDbEntity
8
0
100
AcDbLine
10
54.274789987758467
20
-20.574981866031891
30
0
11
60.024789987758496
21
-20.574981866031955
31
0
0
ARC
5
127
100
AcDbEntity
8
0
100
AcDbCircle
10
60.024789987758531
20
-21.074981866031891
30
0
40
0.49999999999993605
210
-0
220
0
230
1
100
AcDbArc
50
0
51
90.000000000004079
0
LINE
5
128
100
AcDbEntity
8
0
100
AcDbLine
10
60.524789987758467
20
-21.074981866031898
30
0
11
60.524789987758538
21
-34.074981866031898
31
0
0
ARC
5
129
100
AcDbEntity
8
0
100
AcDbCircle
10
60.024789987758496
20
-34.074981866031862
30
0
40
0.50000000000003375
210
-0
220
0
230
1
100
AcDbArc
50
270
51
360
0
LINE
5
130
100
AcDbEntity
8
0
100
AcDbLine
10
60.024789987758496
20
-34.574981866031898
30
0
11
52.743539987758474
21
-34.574981866031884
31
0
0
ARC
5
131
100
AcDbEntity
8
0
100
AcDbCircle
10
52.743539987758474
20
-35.074981866031919
30
0
40
0.50000000000003375
210
0
220
-0
230
1
100
AcDbArc
50
90
51
180
0
ARC
5
132
100
AcDbEntity
8
0
100
AcDbCircle
10
51.743539987758531
20
-35.074981866031997
30
0
40
0.49999999999995381
210
0
220
0
230
1
100
AcDbArc
50
-90.000000000004079
51
0
0
LINE
5
133
100
AcDbEntity
8
0
100
AcDbLine
10
51.743539987758496
20
-35.574981866031955
30
0
11
-23.168960012241548
21
-35.574981866031898
31
0
0
ARC
5
134
100
AcDbEntity
8
0
100
AcDbCircle
10
-23.168960012241531
20
-35.074981866031884
30
0
40
0.50000000000000711
210
0
220
0
230
1
100
AcDbArc
50
180
51
270
0
ARC
5
135
100
AcDbEntity
8
0
100
AcDbCircle
10
-24.168960012241527
20
-35.074981866031884
30
0
40
0.49999999999998934
210
0
220
0
230
1
100
AcDbArc
50
0
51
90.000000000002032
0
LINE
5
136
100
AcDbEntity
8
0
100
AcDbLine
10
-24.168960012241545
20
-34.574981866031898
30
0
11
-28.218960012241521
21
-34.574981866031884
31
0
0
ARC
5
137
100
AcDbEntity
8
0
100
AcDbCircle
10
-28.218960012241538
20
-35.074981866031884
30
0
40
0.49999999999999822
210
0
220
-0
230
1
100
AcDbArc
50
89.999999999997954
51
180
0
ARC
5
138
100
AcDbEntity
8
0
100
AcDbCircle
10
-29.218960012241535
20
-35.074981866031884
30
0
40
0.49999999999999822
210
-0
220
0
230
1
100
AcDbArc
50
-90
51
0
0
LINE
5
139
100
AcDbEntity
8
0
100
AcDbLine
10
-29.218960012241535
20
-35.574981866031884
30
0
11
-51.743960012241537
21
-35.57498186603187
31
0
0
ARC
5
140
100
AcDbEntity
8
0
100
AcDbCircle
10
-51.743960012241544
20
-35.074981866031884
30
0
40
0.49999999999998934
210
0
220
0
230
1
100
AcDbArc
50
180
51
270
0
ARC
5
141
100
AcDbEntity
8
0
100
AcDbCircle
10
-52.74396001224153
20
-35.074981866031884
30
0
40
0.49999999999998934
210
0
220
0
230
1
100
AcDbArc
50
0
51
90.00000000000081
0
LINE
5
142
100
AcDbEntity
8
0
100
AcDbLine
10
-52.743960012241537
20
-34.574981866031898
30
0
11
-55.256460012241547
21
-34.574981866031877
31
0
0
ARC
5
143
100
AcDbEntity
8
0
100
AcDbCircle
10
-55.256460012241533
20
-34.074981866031891
30
0
40
0.49999999999998934
210
0
220
0
230
1
100
AcDbArc
50
180
51
269.99999999999835
0
LINE
5
144
100
AcDbEntity
8
0
100
AcDbLine
10
41.896342486401643
20
-38.599981866031861
30
0
11
44.653237489142974
21
-38.599981866031882
31
0
0
ARC
5
145
100
AcDbEntity
8
0
100
AcDbCircle
10
43.274789987758346
20
-44.099981866031953
30
0
40
5.670107363540339
210
0
220
-0
230
1
100
AcDbArc
50
17.3044232921734
51
75.929960060980591
0
ARC
5
146
100
AcDbEntity
8
0
100
AcDbCircle
10
51.266048204353325
20
-41.61030530214191
30
0
40
2.6999999999933073
210
0
220
0
230
1
100
AcDbArc
50
197.30442329217283
51
269.99997119902753
0
LINE
5
147
100
AcDbEntity
8
0
100
AcDbLine
10
51.266046847139464
20
-44.310305302134871
30
0
11
121.83572089251984
21
-44.310305302141934
31
0
0
ARC
5
148
100
AcDbEntity
8
0
100
AcDbCircle
10
121.83572089251989
20
-41.610305302141896
30
0
40
2.7000000000000401
210
0
220
0
230
1
100
AcDbArc
50
269.99999999999909
51
342.69111827938139
0
ARC
5
149
100
AcDbEntity
8
0
100
AcDbCircle
10
129.82478998775849
20
-44.099981866031825
30
0
40
5.6680173518939014
210
0
220
0
230
1
100
AcDbArc
50
107.30825893231045
51
162.69111827938073
0
ARC
5
150
100
AcDbEntity
8
0
100
AcDbCircle
10
127.33520026285217
20
-36.110885709211558
30
0
40
2.6999999999810056
210
-0
220
0
230
1
100
AcDbArc
50
287.30825893230985
51
359.99997516707214
0
LINE
5
151
100
AcDbEntity
8
0
100
AcDbLine
10
130.03520026283292
20
-36.110886879314798
30
0
11
130.03520026285221
21
36.110901927117332
31
0
0
ARC
5
152
100
AcDbEntity
8
0
100
AcDbCircle
10
127.33520026285223
20
36.110901927117325
30
0
40
2.6999999999999957
210
0
220
-0
230
1
100
AcDbArc
50
0
51
72.691781910848093
0
ARC
5
153
100
AcDbEntity
8
0
100
AcDbCircle
10
129.82478998775849
20
44.100018133968177
30
0
40
5.6680364940006891
210
0
220
0
230
1
100
AcDbArc
50
197.30910875202289
51
252.69178191084873
0
ARC
5
154
100
AcDbEntity
8
0
100
AcDbCircle
10
121.83571248254431
20
41.610304218554298
30
0
40
2.6999999999998541
210
0
220
-0
230
1
100
AcDbArc
50
17.309108752022119
51
90.000008378399556
0
LINE
5
155
100
AcDbEntity
8
0
100
AcDbLine
10
121.83571208772153
20
44.310304218554123
30
0
11
51.265736868161547
21
44.310304218554279
31
0
0
ARC
5
156
100
AcDbEntity
8
0
100
AcDbCircle
10
51.265736868161582
20
41.610304218554262
30
0
40
2.7000000000000135
210
0
220
0
230
1
100
AcDbArc
50
90.000000000000767
51
162.69469865061112
0
ARC
5
157
100
AcDbEntity
8
0
100
AcDbCircle
10
43.274789987758417
20
44.100018133968121
30
0
40
5.6698212302312578
210
-0
220
0
230
1
100
AcDbArc
50
284.05849826744429
51
342.69469865061222
0
LINE
5
158
100
AcDbEntity
8
0
100
AcDbLine
10
44.65206003491005
20
38.600018133968121
30
0
11
41.897519940606287
21
38.600018133968128
31
0
0
ARC
5
159
100
AcDbEntity
8
0
100
AcDbCircle
10
43.274789987758417
20
44.100018133968121
30
0
40
5.6698212302313822
210
0
220
0
230
1
100
AcDbArc
50
197.30530134938812
51
255.94150173255085
0
ARC
5
160
100
AcDbEntity
8
0
100
AcDbCircle
10
35.283843107355267
20
41.610304218554248
30
0
40
2.6999999999999003
210
0
220
-0
230
1
100
AcDbArc
50
17.305301349388323
51
90.000014570492709
0
LINE
5
161
100
AcDbEntity
8
0
100
AcDbLine
10
35.283842420736974
20
44.310304218554052
30
0
11
-35.275436003009645
21
44.310304218554236
31
0
0
ARC
5
162
100
AcDbEntity
8
0
100
AcDbCircle
10
-35.275436003009624
20
41.610304218554205
30
0
40
2.7000000000000313
210
0
220
0
230
1
100
AcDbArc
50
90.000000000000455
51
162.71265516738814
0
ARC
5
163
100
AcDbEntity
8
0
100
AcDbCircle
10
-43.275210012241544
20
44.100018133968113
30
0
40
5.6782491953502721
210
-0
220
0
230
1
100
AcDbArc
50
284.39417869336125
51
342.71265516738873
0
LINE
5
164
100
AcDbEntity
8
0
100
AcDbLine
10
-41.86364565859126
20
38.600018133968121
30
0
11
-44.686774365893676
21
38.600018133968113
31
0
0
ARC
5
165
100
AcDbEntity
8
0
100
AcDbCircle
10
-43.275210012241544
20
44.100018133968113
30
0
40
5.6782491953507446
210
0
220
0
230
1
100
AcDbArc
50
197.28734483261127
51
255.60582130662075
0
ARC
5
166
100
AcDbEntity
8
0
100
AcDbCircle
10
-51.274984021473465
20
41.610304218554234
30
0
40
2.699999999999565
210
0
220
-0
230
1
100
AcDbArc
50
17.287344832611147
51
90.000031238737478
0
LINE
5
167
100
AcDbEntity
8
0
100
AcDbLine
10
-51.274985493564287
20
44.310304218553405
30
0
11
-121.80692826951659
21
44.310304218554244
31
0
0
ARC
5
168
100
AcDbEntity
8
0
100
AcDbCircle
10
-121.80692826951659
20
41.610304218554234
30
0
40
2.7000000000000046
210
0
220
-0
230
1
100
AcDbArc
50
90
51
162.75018733471683
0
ARC
5
169
100
AcDbEntity
8
0
100
AcDbCircle
10
-129.82521001224154
20
44.100018133968135
30
0
40
5.6959226703395602
210
-0
220
0
230
1
100
AcDbArc
50
287.25192660139425
51
342.75018733471666
0
ARC
5
170
100
AcDbEntity
8
0
100
AcDbCircle
10
-127.33520026285221
20
36.08182825505731
30
0
40
2.700000000000002
210
0
220
0
230
1
100
AcDbArc
50
107.2519266013942
51
180
0
LINE
5
171
100
AcDbEntity
8
0
100
AcDbLine
10
-130.03520026285224
20
36.08182825505731
30
0
11
-130.03520026285193
21
-36.100507768468468
31
0
0
ARC
5
172
100
AcDbEntity
8
0
100
AcDbCircle
10
-127.3352002628522
20
-36.100507768468468
30
0
40
2.6999999999997115
210
0
220
0
230
1
100
AcDbArc
50
180
51
252.71011391831959
0
ARC
5
173
100
AcDbEntity
8
0
100
AcDbCircle
10
-129.82521001224151
20
-44.099981866031825
30
0
40
5.6780507512376444
210
0
220
-0
230
1
100
AcDbArc
50
17.287499674911128
51
72.710113918319166
0
ARC
5
174
100
AcDbEntity
8
0
100
AcDbCircle
10
-121.82563221107857
20
-41.610305302141896
30
0
40
2.6999999999598989
210
0
220
0
230
1
100
AcDbArc
50
197.28749967489983
51
269.99993703565588
0
LINE
5
175
100
AcDbEntity
8
0
100
AcDbLine
10
-121.82563517820338
20
-44.310305302100147
30
0
11
-51.271175966938173
21
-44.310305302141863
31
0
0
ARC
5
176
100
AcDbEntity
8
0
100
AcDbCircle
10
-51.271175966938152
20
-41.610305302141924
30
0
40
2.6999999999999336
210
0
220
0
230
1
100
AcDbArc
50
269.99999999999955
51
342.70515708589289
0
ARC
5
177
100
AcDbEntity
8
0
100
AcDbCircle
10
-43.275210012241523
20
-44.099981866031825
30
0
40
5.6746021363077981
210
0
220
0
230
1
100
AcDbArc
50
104.24999141879161
51
162.70515708589178
0
LINE
5
178
100
AcDbEntity
8
0
100
AcDbLine
10
-44.672031190986196
20
-38.599981866031897
30
0
11
-41.878388833401551
21
-38.599981866031882
31
0
0
ARC
5
179
100
AcDbEntity
8
0
100
AcDbCircle
10
-43.275210012241523
20
-44.099981866031825
30
0
40
5.6746021363312877
210
0
220
-0
230
1
100
AcDbArc
50
17.29484291410845
51
75.750008580275747
0
ARC
5
180
100
AcDbEntity
8
0
100
AcDbCircle
10
-35.279244057544886
20
-41.610305302141875
30
0
40
2.6999999999764821
210
0
220
0
230
1
100
AcDbArc
50
197.29484291410753
51
269.99995165739131
0
LINE
5
181
100
AcDbEntity
8
0
100
AcDbLine
10
-35.279246335636643
20
-44.310305302117392
30
0
11
35.283531771163652
21
-44.310305302141877
31
0
0
ARC
5
182
100
AcDbEntity
8
0
100
AcDbCircle
10
35.283531771163666
20
-41.610305302141995
30
0
40
2.6999999999998892
210
0
220
0
230
1
100
AcDbArc
50
269.99999999999972
51
342.69557670782757
0
ARC
5
183
100
AcDbEntity
8
0
100
AcDbCircle
10
43.274789987758346
20
-44.099981866031953
30
0
40
5.6701073635335772
210
0
220
0
230
1
100
AcDbArc
50
104.07003993874567
51
162.69557670782635
0
ARC
5
184
100
AcDbEntity
8
0
100
AcDbCircle
10
-30.312710012241535
20
-3.0249818660318484
30
0
40
0.49999999999998934
210
0
220
-0
230
1
100
AcDbArc
50
89.999999999997954
51
180
0
LINE
5
185
100
AcDbEntity
8
0
100
AcDbLine
10
-30.812710012241507
20
-16.024981866031865
30
0
11
-30.812710012241507
21
-3.0249818660318573
31
0
0
ARC
5
186
100
AcDbEntity
8
0
100
AcDbCircle
10
-30.312710012241499
20
-16.024981866031865
30
0
40
0.50000000000000711
210
0
220
0
230
1
100
AcDbArc
50
180
51
270
0
LINE
5
187
100
AcDbEntity
8
0
100
AcDbLine
10
-17.312710012241492
20
-16.524981866031862
30
0
11
-30.312710012241499
21
-16.524981866031872
31
0
0
ARC
5
188
100
AcDbEntity
8
0
100
AcDbCircle
10
-17.312710012241475
20
-16.024981866031872
30
0
40
0.49999999999998934
210
0
220
0
230
1
100
AcDbArc
50
-90.000000000002032
51
0
0
LINE
5
189
100
AcDbEntity
8
0
100
AcDbLine
10
-16.812710012241503
20
-3.0249818660318573
30
0
11
-16.812710012241499
21
-16.024981866031865
31
0
0
ARC
5
190
100
AcDbEntity
8
0
100
AcDbCircle
10
-17.31271001224151
20
-3.0249818660318573
30
0
40
0.50000000000000711
210
0
220
0
230
1
100
AcDbArc
50
0
51
90
0
LINE
5
191
100
AcDbEntity
8
0
100
AcDbLine
10
-30.312710012241517
20
-2.524981866031859
30
0
11
-17.31271001224151
21
-2.5249818660318479
31
0
0
ARC
5
192
100
AcDbEntity
8
0
100
AcDbCircle
10
96.987289987758516
20
-3.024981866031804
30
0
40
0.49999999999997158
210
-0
220
0
230
1
100
AcDbArc
50
0
51
90.000000000003254
0
LINE
5
193
100
AcDbEntity
8
0
100
AcDbLine
10
83.987289987758487
20
-2.5249818660318413
30
0
11
96.987289987758487
21
-2.5249818660318391
31
0
0
ARC
5
194
100
AcDbEntity
8
0
100
AcDbCircle
10
83.987289987758544
20
-3.024981866031875
30
0
40
0.50000000000003375
210
0
220
0
230
1
100
AcDbArc
50
90.000000000006523
51
180
0
LINE
5
195
100
AcDbEntity
8
0
100
AcDbLine
10
83.487289987758516
20
-16.024981866031847
30
0
11
83.487289987758516
21
-3.0249818660318395
31
0
0
ARC
5
196
100
AcDbEntity
8
0
100
AcDbCircle
10
83.987289987758487
20
-16.024981866031847
30
0
40
0.49999999999997158
210
0
220
0
230
1
100
AcDbArc
50
180
51
270
0
LINE
5
197
100
AcDbEntity
8
0
100
AcDbLine
10
96.987289987758487
20
-16.524981866031844
30
0
11
83.987289987758487
21
-16.524981866031794
31
0
0
ARC
5
198
100
AcDbEntity
8
0
100
AcDbCircle
10
96.987289987758487
20
-16.024981866031812
30
0
40
0.50000000000003375
210
-0
220
0
230
1
100
AcDbArc
50
270
51
360
0
LINE
5
199
100
AcDbEntity
8
0
100
AcDbLine
10
97.487289987758487
20
-3.0249818660318395
30
0
11
97.48728998775853
21
-16.024981866031847
31
0
0
ARC
5
200
100
AcDbEntity
8
0
100
AcDbCircle
10
-39.837710012241523
20
3.0250181339681381
30
0
40
0.50000000000000711
210
0
220
0
230
1
100
AcDbArc
50
180
51
270
0
LINE
5
201
100
AcDbEntity
8
0
100
AcDbLine
10
-26.837710012241516
20
2.5250181339681399
30
0
11
-39.837710012241523
21
2.5250181339681332
31
0
0
ARC
5
202
100
AcDbEntity
8
0
100
AcDbCircle
10
-26.837710012241498
20
3.0250181339681292
30
0
40
0.49999999999998934
210
0
220
0
230
1
100
AcDbArc
50
-90.000000000002032
51
0
0
LINE
5
203
100
AcDbEntity
8
0
100
AcDbLine
10
-26.337710012241509
20
16.025018133968139
30
0
11
-26.337710012241509
21
3.0250181339681381
31
0
0
ARC
5
204
100
AcDbEntity
8
0
100
AcDbCircle
10
-26.837710012241516
20
16.025018133968139
30
0
40
0.50000000000000711
210
0
220
0
230
1
100
AcDbArc
50
0
51
90
0
LINE
5
205
100
AcDbEntity
8
0
100
AcDbLine
10
-39.837710012241523
20
16.525018133968135
30
0
11
-26.837710012241516
21
16.525018133968146
31
0
0
ARC
5
206
100
AcDbEntity
8
0
100
AcDbCircle
10
-39.837710012241544
20
16.025018133968139
30
0
40
0.49999999999999378
210
0
220
-0
230
1
100
AcDbArc
50
89.999999999997556
51
180
0
LINE
5
207
100
AcDbEntity
8
0
100
AcDbLine
10
-40.33771001224153
20
3.0250181339681337
30
0
11
-40.33771001224153
21
16.025018133968135
31
0
0
LINE
5
208
100
AcDbEntity
8
0
100
AcDbLine
10
39.837289987758489
20
-16.524981866031855
30
0
11
26.837289987758481
21
-16.524981866031865
31
0
0
ARC
5
209
100
AcDbEntity
8
0
100
AcDbCircle
10
26.837289987758499
20
-16.024981866031855
30
0
40
0.50000000000000711
210
0
220
0
230
1
100
AcDbArc
50
180
51
270
0
LINE
5
210
100
AcDbEntity
8
0
100
AcDbLine
10
26.337289987758492
20
-16.024981866031855
30
0
11
26.337289987758492
21
-3.0249818660318484
31
0
0
ARC
5
211
100
AcDbEntity
8
0
100
AcDbCircle
10
26.837289987758464
20
-3.0249818660318395
30
0
40
0.49999999999998934
210
0
220
-0
230
1
100
AcDbArc
50
89.999999999997954
51
180
0
LINE
5
212
100
AcDbEntity
8
0
100
AcDbLine
10
26.837289987758481
20
-2.5249818660318502
30
0
11
39.837289987758489
21
-2.5249818660318657
31
0
0
ARC
5
213
100
AcDbEntity
8
0
100
AcDbCircle
10
39.83728998775856
20
-3.0249818660318306
30
0
40
0.49999999999993605
210
-0
220
0
230
1
100
AcDbArc
50
0
51
90.000000000008143
0
LINE
5
214
100
AcDbEntity
8
0
100
AcDbLine
10
40.337289987758496
20
-3.0249818660318484
30
0
11
40.33728998775846
21
-16.024981866031855
31
0
0
ARC
5
215
100
AcDbEntity
8
0
100
AcDbCircle
10
39.837289987758417
20
-16.024981866031819
30
0
40
0.50000000000003375
210
-0
220
0
230
1
100
AcDbArc
50
270.00000000000813
51
360
0
ARC
5
216
100
AcDbEntity
8
0
100
AcDbCircle
10
-50.650210012241523
20
22.075018133968136
30
0
40
0.50000000000000266
210
-0
220
0
230
1
100
AcDbArc
50
270
51
360
0
LINE
5
217
100
AcDbEntity
8
0
100
AcDbLine
10
-50.150210012241523
20
35.075018133968136
30
0
11
-50.150210012241523
21
22.075018133968136
31
0
0
ARC
5
218
100
AcDbEntity
8
0
100
AcDbCircle
10
-50.650210012241523
20
35.075018133968136
30
0
40
0.49999999999999822
210
0
220
0
230
1
100
AcDbArc
50
0
51
90
0
LINE
5
219
100
AcDbEntity
8
0
100
AcDbLine
10
-63.650210012241516
20
35.575018133968129
30
0
11
-50.650210012241523
21
35.575018133968129
31
0
0
ARC
5
220
100
AcDbEntity
8
0
100
AcDbCircle
10
-63.650210012241516
20
35.075018133968136
30
0
40
0.49999999999999378
210
0
220
-0
230
1
100
AcDbArc
50
90
51
180
0
LINE
5
221
100
AcDbEntity
8
0
100
AcDbLine
10
-64.150210012241516
20
22.075018133968133
30
0
11
-64.150210012241516
21
35.075018133968129
31
0
0
ARC
5
222
100
AcDbEntity
8
0
100
AcDbCircle
10
-63.650210012241516
20
22.075018133968133
30
0
40
0.49999999999999822
210
0
220
0
230
1
100
AcDbArc
50
180
51
270
0
LINE
5
223
100
AcDbEntity
8
0
100
AcDbLine
10
-50.650210012241523
20
21.575018133968133
30
0
11
-63.650210012241516
21
21.575018133968133
31
0
0
LINE
5
224
100
AcDbEntity
8
0
100
AcDbLine
10
112.71278998775853
20
21.575018133968157
30
0
11
96.836789987758493
21
21.575018133968165
31
0
0
ARC
5
225
100
AcDbEntity
8
0
100
AcDbCircle
10
96.836789987758578
20
21.075018133968108
30
0
40
0.50000000000005596
210
0
220
0
230
1
100
AcDbArc
50
90.000000000009777
51
180
0
LINE
5
226
100
AcDbEntity
8
0
100
AcDbLine
10
96.336789987758522
20
21.075018133968157
30
0
11
96.336789987758465
21
20.075018133968157
31
0
0
ARC
5
227
100
AcDbEntity
8
0
100
AcDbCircle
10
95.836789987758408
20
20.075018133968182
30
0
40
0.50000000000002709
210
-0
220
0
230
1
100
AcDbArc
50
270.00000000000978
51
360
0
LINE
5
228
100
AcDbEntity
8
0
100
AcDbLine
10
95.836789987758493
20
19.575018133968157
30
0
11
89.836789987758507
21
19.575018133968154
31
0
0
ARC
5
229
100
AcDbEntity
8
0
100
AcDbCircle
10
89.836789987758465
20
20.075018133968108
30
0
40
0.49999999999997158
210
0
220
0
230
1
100
AcDbArc
50
180
51
270.00000000000489
0
LINE
5
230
100
AcDbEntity
8
0
100
AcDbLine
10
89.336789987758493
20
20.075018133968157
30
0
11
89.336789987758493
21
21.075018133968154
31
0
0
ARC
5
231
100
AcDbEntity
8
0
100
AcDbCircle
10
88.836789987758493
20
21.075018133968122
30
0
40
0.50000000000000711
210
0
220
-0
230
1
100
AcDbArc
50
0
51
90
0
LINE
5
232
100
AcDbEntity
8
0
100
AcDbLine
10
88.836789987758493
20
21.575018133968129
30
0
11
88.749789987758476
21
21.575018133968172
31
0
0
ARC
5
233
100
AcDbEntity
8
0
100
AcDbCircle
10
88.749789987758447
20
22.075018133968136
30
0
40
0.49999999999997158
210
0
220
0
230
1
100
AcDbArc
50
180
51
270.00000000000324
0
LINE
5
234
100
AcDbEntity
8
0
100
AcDbLine
10
88.249789987758476
20
22.075018133968157
30
0
11
88.249789987758476
21
35.075018133968157
31
0
0
ARC
5
235
100
AcDbEntity
8
0
100
AcDbCircle
10
88.749789987758561
20
35.075018133968086
30
0
40
0.50000000000007372
210
0
220
0
230
1
100
AcDbArc
50
90.000000000009777
51
180
0
LINE
5
236
100
AcDbEntity
8
0
100
AcDbLine
10
88.749789987758476
20
35.575018133968157
30
0
11
120.7997899877585
21
35.575018133968179
31
0
0
ARC
5
237
100
AcDbEntity
8
0
100
AcDbCircle
10
120.79978998775854
20
35.075018133968207
30
0
40
0.49999999999997158
210
-0
220
0
230
1
100
AcDbArc
50
0
51
90.000000000004889
0
LINE
5
238
100
AcDbEntity
8
0
100
AcDbLine
10
121.29978998775852
20
35.075018133968157
30
0
11
121.29978998775852
21
22.075018133968165
31
0
0
ARC
5
239
100
AcDbEntity
8
0
100
AcDbCircle
10
120.7997899877585
20
22.0750181339682
30
0
40
0.50000000000003375
210
-0
220
0
230
1
100
AcDbArc
50
270
51
360
0
LINE
5
240
100
AcDbEntity
8
0
100
AcDbLine
10
120.7997899877585
20
21.575018133968165
30
0
11
120.7127899877585
21
21.575018133968165
31
0
0
ARC
5
241
100
AcDbEntity
8
0
100
AcDbCircle
10
120.71278998775855
20
21.075018133968115
30
0
40
0.50000000000005151
210
0
220
0
230
1
100
AcDbArc
50
90.000000000006523
51
180
0
LINE
5
242
100
AcDbEntity
8
0
100
AcDbLine
10
120.21278998775853
20
21.075018133968161
30
0
11
120.21278998775853
21
20.075018133968161
31
0
0
ARC
5
243
100
AcDbEntity
8
0
100
AcDbCircle
10
119.71278998775851
20
20.075018133968197
30
0
40
0.50000000000003375
210
-0
220
0
230
1
100
AcDbArc
50
270
51
360
0
LINE
5
244
100
AcDbEntity
8
0
100
AcDbLine
10
119.71278998775851
20
19.575018133968161
30
0
11
113.7127899877585
21
19.575018133968157
31
0
0
ARC
5
245
100
AcDbEntity
8
0
100
AcDbCircle
10
113.71278998775847
20
20.075018133968115
30
0
40
0.49999999999997158
210
0
220
0
230
1
100
AcDbArc
50
180
51
270.00000000000324
0
LINE
5
246
100
AcDbEntity
8
0
100
AcDbLine
10
113.2127899877585
20
20.075018133968161
30
0
11
113.2127899877585
21
21.075018133968157
31
0
0
ARC
5
247
100
AcDbEntity
8
0
100
AcDbCircle
10
112.71278998775844
20
21.075018133968115
30
0
40
0.50000000000004263
210
0
220
-0
230
1
100
AcDbArc
50
0
51
89.999999999990237
0
ARC
5
248
100
AcDbEntity
8
0
100
AcDbCircle
10
-88.750210012241524
20
35.075018133968129
30
0
40
0.50000000000000711
210
-0
220
0
230
1
100
AcDbArc
50
0
51
90
0
LINE
5
249
100
AcDbEntity
8
0
100
AcDbLine
10
-101.75021001224152
20
35.575018133968122
30
0
11
-88.750210012241524
21
35.575018133968122
31
0
0
ARC
5
250
100
AcDbEntity
8
0
100
AcDbCircle
10
-101.75021001224152
20
35.075018133968129
30
0
40
0.49999999999999822
210
0
220
-0
230
1
100
AcDbArc
50
90
51
180
0
LINE
5
251
100
AcDbEntity
8
0
100
AcDbLine
10
-102.25021001224151
20
22.075018133968129
30
0
11
-102.25021001224151
21
35.075018133968129
31
0
0
ARC
5
252
100
AcDbEntity
8
0
100
AcDbCircle
10
-101.75021001224151
20
22.075018133968129
30
0
40
0.49999999999998934
210
0
220
0
230
1
100
AcDbArc
50
180
51
270
0
LINE
5
253
100
AcDbEntity
8
0
100
AcDbLine
10
-88.750210012241524
20
21.575018133968129
30
0
11
-101.75021001224152
21
21.575018133968129
31
0
0
ARC
5
254
100
AcDbEntity
8
0
100
AcDbCircle
10
-88.750210012241524
20
22.075018133968129
30
0
40
0.49999999999999822
210
-0
220
0
230
1
100
AcDbArc
50
-90
51
0
0
LINE
5
255
100
AcDbEntity
8
0
100
AcDbLine
10
-88.25021001224151
20
35.075018133968129
30
0
11
-88.25021001224151
21
22.075018133968133
31
0
0
ARC
5
256
100
AcDbEntity
8
0
100
AcDbCircle
10
-20.787710012241511
20
3.0250181339681426
30
0
40
0.50000000000000711
210
0
220
0
230
1
100
AcDbArc
50
180
51
270
0
LINE
5
257
100
AcDbEntity
8
0
100
AcDbLine
10
-7.7877100122415222
20
2.5250181339681399
30
0
11
-20.787710012241511
21
2.5250181339681332
31
0
0
ARC
5
258
100
AcDbEntity
8
0
100
AcDbCircle
10
-7.7877100122415222
20
3.0250181339681248
30
0
40
0.4999999999999849
210
-0
220
0
230
1
100
AcDbArc
50
-90
51
0
0
LINE
5
259
100
AcDbEntity
8
0
100
AcDbLine
10
-7.287710012241515
20
16.025018133968139
30
0
11
-7.287710012241531
21
3.0250181339681381
31
0
0
ARC
5
260
100
AcDbEntity
8
0
100
AcDbCircle
10
-7.7877100122415577
20
16.025018133968114
30
0
40
0.50000000000004263
210
0
220
-0
230
1
100
AcDbArc
50
0
51
89.999999999995936
0
LINE
5
261
100
AcDbEntity
8
0
100
AcDbLine
10
-20.787710012241511
20
16.525018133968139
30
0
11
-7.7877100122415222
21
16.52501813396815
31
0
0
ARC
5
262
100
AcDbEntity
8
0
100
AcDbCircle
10
-20.787710012241529
20
16.025018133968146
30
0
40
0.49999999999999378
210
0
220
-0
230
1
100
AcDbArc
50
89.999999999997954
51
180
0
LINE
5
263
100
AcDbEntity
8
0
100
AcDbLine
10
-21.287710012241519
20
3.0250181339681381
30
0
11
-21.287710012241519
21
16.025018133968139
31
0
0
ARC
5
264
100
AcDbEntity
8
0
100
AcDbCircle
10
87.46228998775851
20
16.025018133968203
30
0
40
0.49999999999997158
210
-0
220
0
230
1
100
AcDbArc
50
0
51
90.000000000003254
0
LINE
5
265
100
AcDbEntity
8
0
100
AcDbLine
10
74.462289987758481
20
16.525018133968153
30
0
11
87.462289987758481
21
16.52501813396816
31
0
0
ARC
5
266
100
AcDbEntity
8
0
100
AcDbCircle
10
74.462289987758538
20
16.025018133968089
30
0
40
0.50000000000006484
210
0
220
0
230
1
100
AcDbArc
50
90.000000000006523
51
180
0
LINE
5
267
100
AcDbEntity
8
0
100
AcDbLine
10
73.962289987758467
20
3.0250181339681514
30
0
11
73.962289987758467
21
16.025018133968153
31
0
0
ARC
5
268
100
AcDbEntity
8
0
100
AcDbCircle
10
74.462289987758481
20
3.0250181339681292
30
0
40
0.50000000000000711
210
0
220
0
230
1
100
AcDbArc
50
180
51
270
0
LINE
5
269
100
AcDbEntity
8
0
100
AcDbLine
10
87.462289987758481
20
2.5250181339681577
30
0
11
74.462289987758481
21
2.5250181339681377
31
0
0
ARC
5
270
100
AcDbEntity
8
0
100
AcDbCircle
10
87.462289987758481
20
3.0250181339681959
30
0
40
0.50000000000003819
210
-0
220
0
230
1
100
AcDbArc
50
270
51
360
0
LINE
5
271
100
AcDbEntity
8
0
100
AcDbLine
10
87.962289987758481
20
16.02501813396816
30
0
11
87.962289987758524
21
3.0250181339681559
31
0
0
LINE
5
272
100
AcDbEntity
8
0
100
AcDbLine
10
-73.962710012241516
20
-3.0249818660318661
30
0
11
-73.962710012241516
21
-16.024981866031872
31
0
0
ARC
5
273
100
AcDbEntity
8
0
100
AcDbCircle
10
-74.462710012241502
20
-16.024981866031872
30
0
40
0.49999999999999822
210
-0
220
0
230
1
100
AcDbArc
50
-90
51
0
0
LINE
5
274
100
AcDbEntity
8
0
100
AcDbLine
10
-74.462710012241502
20
-16.524981866031872
30
0
11
-87.462710012241516
21
-16.524981866031872
31
0
0
ARC
5
275
100
AcDbEntity
8
0
100
AcDbCircle
10
-87.462710012241516
20
-16.024981866031872
30
0
40
0.50000000000000711
210
0
220
0
230
1
100
AcDbArc
50
180
51
270
0
LINE
5
276
100
AcDbEntity
8
0
100
AcDbLine
10
-87.962710012241502
20
-16.024981866031872
30
0
11
-87.962710012241502
21
-3.0249818660318661
31
0
0
ARC
5
277
100
AcDbEntity
8
0
100
AcDbCircle
10
-87.462710012241516
20
-3.0249818660318661
30
0
40
0.49999999999999822
210
0
220
-0
230
1
100
AcDbArc
50
90
51
180
0
LINE
5
278
100
AcDbEntity
8
0
100
AcDbLine
10
-87.462710012241516
20
-2.5249818660318679
30
0
11
-74.462710012241516
21
-2.5249818660318657
31
0
0
ARC
5
279
100
AcDbEntity
8
0
100
AcDbCircle
10
-74.462710012241502
20
-3.0249818660318661
30
0
40
0.49999999999999822
210
0
220
0
230
1
100
AcDbArc
50
0
51
90
0
ARC
5
280
100
AcDbEntity
8
0
100
AcDbCircle
10
113.6560399877585
20
16.025018133968175
30
0
40
0.50000000000000711
210
-0
220
0
230
1
100
AcDbArc
50
0
51
90
0
LINE
5
281
100
AcDbEntity
8
0
100
AcDbLine
10
100.65603998775849
20
16.525018133968157
30
0
11
113.6560399877585
21
16.525018133968182
31
0
0
ARC
5
282
100
AcDbEntity
8
0
100
AcDbCircle
10
100.65603998775845
20
16.025018133968171
30
0
40
0.4999999999999849
210
0
220
-0
230
1
100
AcDbArc
50
89.999999999995111
51
180
0
LINE
5
283
100
AcDbEntity
8
0
100
AcDbLine
10
100.15603998775848
20
3.0250181339681559
30
0
11
100.15603998775848
21
16.02501813396816
31
0
0
ARC
5
284
100
AcDbEntity
8
0
100
AcDbCircle
10
100.65603998775845
20
3.0250181339681159
30
0
40
0.49999999999997158
210
0
220
0
230
1
100
AcDbArc
50
180
51
270.00000000000489
0
LINE
5
285
100
AcDbEntity
8
0
100
AcDbLine
10
113.6560399877585
20
2.5250181339681621
30
0
11
100.65603998775849
21
2.5250181339681599
31
0
0
ARC
5
286
100
AcDbEntity
8
0
100
AcDbCircle
10
113.65603998775842
20
3.0250181339682403
30
0
40
0.50000000000007816
210
-0
220
0
230
1
100
AcDbArc
50
270.00000000000978
51
360
0
LINE
5
287
100
AcDbEntity
8
0
100
AcDbLine
10
114.1560399877585
20
16.025018133968164
30
0
11
114.1560399877585
21
3.0250181339681603
31
0
0
LINE
5
288
100
AcDbEntity
8
0
100
AcDbLine
10
7.2872899877585162
20
-16.024981866031865
30
0
11
7.2872899877585144
21
-3.0249818660318573
31
0
0
ARC
5
289
100
AcDbEntity
8
0
100
AcDbCircle
10
7.7872899877584878
20
-3.0249818660318484
30
0
40
0.49999999999998934
210
0
220
-0
230
1
100
AcDbArc
50
89.999999999997954
51
180
0
LINE
5
290
100
AcDbEntity
8
0
100
AcDbLine
10
7.7872899877585056
20
-2.524981866031859
30
0
11
20.787289987758495
21
-2.5249818660318479
31
0
0
ARC
5
291
100
AcDbEntity
8
0
100
AcDbCircle
10
20.787289987758459
20
-3.024981866031875
30
0
40
0.50000000000004263
210
0
220
-0
230
1
100
AcDbArc
50
0
51
89.999999999995936
0
LINE
5
292
100
AcDbEntity
8
0
100
AcDbLine
10
21.287289987758502
20
-3.0249818660318484
30
0
11
21.287289987758484
21
-16.024981866031855
31
0
0
ARC
5
293
100
AcDbEntity
8
0
100
AcDbCircle
10
20.787289987758513
20
-16.024981866031865
30
0
40
0.49999999999998934
210
-0
220
0
230
1
100
AcDbArc
50
-90
51
0
0
LINE
5
294
100
AcDbEntity
8
0
100
AcDbLine
10
20.787289987758513
20
-16.524981866031855
30
0
11
7.7872899877585233
21
-16.524981866031865
31
0
0
ARC
5
295
100
AcDbEntity
8
0
100
AcDbCircle
10
7.7872899877585233
20
-16.024981866031865
30
0
40
0.50000000000000711
210
0
220
0
230
1
100
AcDbArc
50
180
51
270
0
LINE
5
296
100
AcDbEntity
8
0
100
AcDbLine
10
17.312289987758476
20
16.525018133968143
30
0
11
30.312289987758483
21
16.525018133968153
31
0
0
ARC
5
297
100
AcDbEntity
8
0
100
AcDbCircle
10
30.312289987758483
20
16.02501813396815
30
0
40
0.50000000000000711
210
0
220
0
230
1
100
AcDbArc
50
0
51
90
0
LINE
5
298
100
AcDbEntity
8
0
100
AcDbLine
10
30.81228998775849
20
16.02501813396815
30
0
11
30.81228998775849
21
3.025018133968147
31
0
0
ARC
5
299
100
AcDbEntity
8
0
100
AcDbCircle
10
30.312289987758501
20
3.0250181339681381
30
0
40
0.49999999999998934
210
0
220
0
230
1
100
AcDbArc
50
-90.000000000002032
51
0
0
LINE
5
300
100
AcDbEntity
8
0
100
AcDbLine
10
30.312289987758483
20
2.5250181339681488
30
0
11
17.312289987758476
21
2.5250181339681421
31
0
0
ARC
5
301
100
AcDbEntity
8
0
100
AcDbCircle
10
17.312289987758476
20
3.025018133968147
30
0
40
0.50000000000000711
210
0
220
0
230
1
100
AcDbArc
50
180
51
270
0
LINE
5
302
100
AcDbEntity
8
0
100
AcDbLine
10
16.812289987758469
20
3.0250181339681426
30
0
11
16.812289987758465
21
16.025018133968146
31
0
0
ARC
5
303
100
AcDbEntity
8
0
100
AcDbCircle
10
17.312289987758458
20
16.02501813396815
30
0
40
0.49999999999999378
210
0
220
-0
230
1
100
AcDbArc
50
89.999999999997954
51
180
0
LINE
5
304
100
AcDbEntity
8
0
100
AcDbLine
10
-118.91896001224151
20
-35.074981866031877
30
0
11
-118.91896001224151
21
-22.074981866031877
31
0
0
ARC
5
305
100
AcDbEntity
8
0
100
AcDbCircle
10
-118.41896001224151
20
-22.074981866031877
30
0
40
0.49999999999999822
210
0
220
-0
230
1
100
AcDbArc
50
90
51
180
0
LINE
5
306
100
AcDbEntity
8
0
100
AcDbLine
10
-118.4189600122415
20
-21.57498186603188
30
0
11
-105.41896001224148
21
-21.57498186603188
31
0
0
ARC
5
307
100
AcDbEntity
8
0
100
AcDbCircle
10
-105.41896001224148
20
-22.074981866031877
30
0
40
0.49999999999998934
210
0
220
0
230
1
100
AcDbArc
50
0
51
90
0
LINE
5
308
100
AcDbEntity
8
0
100
AcDbLine
10
-104.9189600122415
20
-22.074981866031877
30
0
11
-104.9189600122415
21
-35.074981866031877
31
0
0
ARC
5
309
100
AcDbEntity
8
0
100
AcDbCircle
10
-105.41896001224151
20
-35.074981866031877
30
0
40
0.49999999999999822
210
-0
220
0
230
1
100
AcDbArc
50
-90
51
0
0
LINE
5
310
100
AcDbEntity
8
0
100
AcDbLine
10
-105.41896001224151
20
-35.574981866031877
30
0
11
-118.41896001224151
21
-35.574981866031877
31
0
0
ARC
5
311
100
AcDbEntity
8
0
100
AcDbCircle
10
-118.4189600122415
20
-35.074981866031877
30
0
40
0.50000000000000711
210
0
220
0
230
1
100
AcDbArc
50
180
51
270
0
LINE
5
312
100
AcDbEntity
8
0
100
AcDbLine
10
-78.43771001224151
20
-35.07498186603187
30
0
11
-78.43771001224151
21
-22.07498186603187
31
0
0
ARC
5
313
100
AcDbEntity
8
0
100
AcDbCircle
10
-77.93771001224151
20
-22.07498186603187
30
0
40
0.49999999999999822
210
0
220
-0
230
1
100
AcDbArc
50
90
51
180
0
LINE
5
314
100
AcDbEntity
8
0
100
AcDbLine
10
-77.93771001224151
20
-21.57498186603187
30
0
11
-62.556460012241509
21
-21.574981866031866
31
0
0
ARC
5
315
100
AcDbEntity
8
0
100
AcDbCircle
10
-62.556460012241502
20
-22.074981866031859
30
0
40
0.49999999999998934
210
-0
220
0
230
1
100
AcDbArc
50
0
51
90.00000000000081
0
LINE
5
316
100
AcDbEntity
8
0
100
AcDbLine
10
-62.056460012241516
20
-22.07498186603187
30
0
11
-62.056460012241516
21
-35.07498186603187
31
0
0
ARC
5
317
100
AcDbEntity
8
0
100
AcDbCircle
10
-62.556460012241509
20
-35.07498186603187
30
0
40
0.49999999999999822
210
-0
220
0
230
1
100
AcDbArc
50
-90
51
0
0
LINE
5
318
100
AcDbEntity
8
0
100
AcDbLine
10
-62.556460012241509
20
-35.574981866031862
30
0
11
-77.93771001224151
21
-35.57498186603187
31
0
0
ARC
5
319
100
AcDbEntity
8
0
100
AcDbCircle
10
-77.93771001224151
20
-35.07498186603187
30
0
40
0.49999999999999822
210
0
220
0
230
1
100
AcDbArc
50
180
51
270
0
ARC
5
320
100
AcDbEntity
8
0
100
AcDbCircle
10
69.699789987758464
20
22.075018133968108
30
0
40
0.49999999999997158
210
0
220
0
230
1
100
AcDbArc
50
180
51
270.00000000000489
0
LINE
5
321
100
AcDbEntity
8
0
100
AcDbLine
10
82.699789987758521
20
21.575018133968157
30
0
11
69.699789987758507
21
21.575018133968157
31
0
0
ARC
5
322
100
AcDbEntity
8
0
100
AcDbCircle
10
82.699789987758436
20
22.075018133968179
30
0
40
0.50000000000002487
210
-0
220
0
230
1
100
AcDbArc
50
270.00000000000978
51
360
0
LINE
5
323
100
AcDbEntity
8
0
100
AcDbLine
10
83.199789987758521
20
35.075018133968157
30
0
11
83.199789987758493
21
22.075018133968157
31
0
0
ARC
5
324
100
AcDbEntity
8
0
100
AcDbCircle
10
82.699789987758521
20
35.075018133968172
30
0
40
0.50000000000000711
210
-0
220
0
230
1
100
AcDbArc
50
0
51
90
0
LINE
5
325
100
AcDbEntity
8
0
100
AcDbLine
10
69.699789987758507
20
35.575018133968157
30
0
11
82.699789987758521
21
35.575018133968172
31
0
0
ARC
5
326
100
AcDbEntity
8
0
100
AcDbCircle
10
69.699789987758507
20
35.075018133968122
30
0
40
0.50000000000003375
210
0
220
-0
230
1
100
AcDbArc
50
90
51
180
0
LINE
5
327
100
AcDbEntity
8
0
100
AcDbLine
10
69.199789987758493
20
22.075018133968154
30
0
11
69.199789987758464
21
35.07501813396815
31
0
0
ARC
5
328
100
AcDbEntity
8
0
100
AcDbCircle
10
-118.41896001224151
20
3.0250181339681204
30
0
40
0.49999999999998934
210
0
220
0
230
1
100
AcDbArc
50
180
51
270
0
LINE
5
329
100
AcDbEntity
8
0
100
AcDbLine
10
-105.41896001224151
20
2.5250181339681266
30
0
11
-118.41896001224151
21
2.5250181339681244
31
0
0
ARC
5
330
100
AcDbEntity
8
0
100
AcDbCircle
10
-105.41896001224151
20
3.0250181339681292
30
0
40
0.50000000000000266
210
-0
220
0
230
1
100
AcDbArc
50
270
51
360
0
LINE
5
331
100
AcDbEntity
8
0
100
AcDbLine
10
-104.91896001224151
20
16.025018133968128
30
0
11
-104.91896001224151
21
3.0250181339681248
31
0
0
ARC
5
332
100
AcDbEntity
8
0
100
AcDbCircle
10
-105.41896001224151
20
16.025018133968128
30
0
40
0.49999999999998934
210
0
220
0
230
1
100
AcDbArc
50
0
51
90
0
LINE
5
333
100
AcDbEntity
8
0
100
AcDbLine
10
-118.41896001224151
20
16.525018133968121
30
0
11
-105.41896001224151
21
16.525018133968118
31
0
0
ARC
5
334
100
AcDbEntity
8
0
100
AcDbCircle
10
-118.41896001224151
20
16.025018133968125
30
0
40
0.49999999999999822
210
0
220
-0
230
1
100
AcDbArc
50
90
51
180
0
LINE
5
335
100
AcDbEntity
8
0
100
AcDbLine
10
-118.91896001224151
20
3.0250181339681204
30
0
11
-118.91896001224151
21
16.025018133968125
31
0
0
LINE
5
336
100
AcDbEntity
8
0
100
AcDbLine
10
-120.80021001224152
20
35.575018133968122
30
0
11
-107.80021001224154
21
35.575018133968122
31
0
0
ARC
5
337
100
AcDbEntity
8
0
100
AcDbCircle
10
-107.80021001224151
20
35.075018133968122
30
0
40
0.50000000000000711
210
0
220
-0
230
1
100
AcDbArc
50
0
51
90
0
LINE
5
338
100
AcDbEntity
8
0
100
AcDbLine
10
-107.30021001224152
20
35.075018133968129
30
0
11
-107.30021001224152
21
22.075018133968129
31
0
0
ARC
5
339
100
AcDbEntity
8
0
100
AcDbCircle
10
-107.80021001224151
20
22.075018133968129
30
0
40
0.50000000000000266
210
-0
220
0
230
1
100
AcDbArc
50
270
51
360
0
LINE
5
340
100
AcDbEntity
8
0
100
AcDbLine
10
-107.80021001224151
20
21.575018133968126
30
0
11
-120.80021001224152
21
21.575018133968126
31
0
0
ARC
5
341
100
AcDbEntity
8
0
100
AcDbCircle
10
-120.80021001224152
20
22.075018133968129
30
0
40
0.50000000000000711
210
0
220
0
230
1
100
AcDbArc
50
180
51
270
0
LINE
5
342
100
AcDbEntity
8
0
100
AcDbLine
10
-121.30021001224151
20
22.075018133968122
30
0
11
-121.30021001224151
21
35.075018133968122
31
0
0
ARC
5
343
100
AcDbEntity
8
0
100
AcDbCircle
10
-120.80021001224152
20
35.075018133968122
30
0
40
0.49999999999999822
210
0
220
-0
230
1
100
AcDbArc
50
90
51
180
0
LINE
5
344
100
AcDbEntity
8
0
100
AcDbLine
10
-49.8627100122415
20
-16.024981866031872
30
0
11
-49.8627100122415
21
-3.0249818660318661
31
0
0
ARC
5
345
100
AcDbEntity
8
0
100
AcDbCircle
10
-49.3627100122415
20
-3.0249818660318661
30
0
40
0.49999999999999822
210
0
220
-0
230
1
100
AcDbArc
50
90
51
180
0
LINE
5
346
100
AcDbEntity
8
0
100
AcDbLine
10
-49.3627100122415
20
-2.5249818660318679
30
0
11
-36.362710012241493
21
-2.5249818660318568
31
0
0
ARC
5
347
100
AcDbEntity
8
0
100
AcDbCircle
10
-36.362710012241536
20
-3.0249818660318839
30
0
40
0.50000000000004263
210
0
220
-0
230
1
100
AcDbArc
50
0
51
89.999999999996746
0
LINE
5
348
100
AcDbEntity
8
0
100
AcDbLine
10
-35.862710012241493
20
-3.0249818660318573
30
0
11
-35.862710012241514
21
-16.024981866031865
31
0
0
ARC
5
349
100
AcDbEntity
8
0
100
AcDbCircle
10
-36.362710012241486
20
-16.024981866031872
30
0
40
0.49999999999998934
210
-0
220
0
230
1
100
AcDbArc
50
-90
51
0
0
LINE
5
350
100
AcDbEntity
8
0
100
AcDbLine
10
-36.362710012241486
20
-16.524981866031862
30
0
11
-49.362710012241493
21
-16.524981866031865
31
0
0
ARC
5
351
100
AcDbEntity
8
0
100
AcDbCircle
10
-49.3627100122415
20
-16.024981866031872
30
0
40
0.49999999999999822
210
0
220
0
230
1
100
AcDbArc
50
180
51
270
0
ARC
5
352
100
AcDbEntity
8
0
100
AcDbCircle
10
105.41853998775849
20
-3.024981866031875
30
0
40
0.50000000000003375
210
0
220
-0
230
1
100
AcDbArc
50
90
51
180
0
LINE
5
353
100
AcDbEntity
8
0
100
AcDbLine
10
104.91853998775849
20
-16.024981866031847
30
0
11
104.91853998775845
21
-3.0249818660318395
31
0
0
ARC
5
354
100
AcDbEntity
8
0
100
AcDbCircle
10
105.41853998775846
20
-16.024981866031883
30
0
40
0.49999999999997158
210
0
220
0
230
1
100
AcDbArc
50
180
51
270.00000000000324
0
LINE
5
355
100
AcDbEntity
8
0
100
AcDbLine
10
118.41853998775849
20
-16.524981866031837
30
0
11
105.41853998775849
21
-16.524981866031847
31
0
0
ARC
5
356
100
AcDbEntity
8
0
100
AcDbCircle
10
118.41853998775844
20
-16.024981866031801
30
0
40
0.50000000000003375
210
-0
220
0
230
1
100
AcDbArc
50
270.00000000000648
51
360
0
LINE
5
357
100
AcDbEntity
8
0
100
AcDbLine
10
118.91853998775851
20
-3.0249818660318306
30
0
11
118.91853998775846
21
-16.024981866031837
31
0
0
ARC
5
358
100
AcDbEntity
8
0
100
AcDbCircle
10
118.41853998775858
20
-3.0249818660318128
30
0
40
0.49999999999993605
210
-0
220
0
230
1
100
AcDbArc
50
0
51
90.000000000009777
0
LINE
5
359
100
AcDbEntity
8
0
100
AcDbLine
10
105.41853998775849
20
-2.5249818660318413
30
0
11
118.41853998775849
21
-2.5249818660318568
31
0
0
LINE
5
360
100
AcDbEntity
8
0
100
AcDbLine
10
64.437289987758462
20
-16.024981866031847
30
0
11
64.437289987758504
21
-3.0249818660318395
31
0
0
ARC
5
361
100
AcDbEntity
8
0
100
AcDbCircle
10
64.937289987758533
20
-3.024981866031875
30
0
40
0.50000000000003375
210
0
220
0
230
1
100
AcDbArc
50
90.000000000006523
51
180
0
LINE
5
362
100
AcDbEntity
8
0
100
AcDbLine
10
64.937289987758476
20
-2.5249818660318413
30
0
11
77.937289987758476
21
-2.5249818660318391
31
0
0
ARC
5
363
100
AcDbEntity
8
0
100
AcDbCircle
10
77.937289987758504
20
-3.024981866031804
30
0
40
0.49999999999997158
210
-0
220
0
230
1
100
AcDbArc
50
0
51
90.000000000003254
0
LINE
5
364
100
AcDbEntity
8
0
100
AcDbLine
10
78.437289987758476
20
-3.0249818660318395
30
0
11
78.437289987758518
21
-16.024981866031847
31
0
0
ARC
5
365
100
AcDbEntity
8
0
100
AcDbCircle
10
77.937289987758476
20
-16.024981866031812
30
0
40
0.50000000000003375
210
-0
220
0
230
1
100
AcDbArc
50
270
51
360
0
LINE
5
366
100
AcDbEntity
8
0
100
AcDbLine
10
77.937289987758476
20
-16.524981866031844
30
0
11
64.937289987758476
21
-16.52498186603183
31
0
0
ARC
5
367
100
AcDbEntity
8
0
100
AcDbCircle
10
64.93728998775839
20
-16.024981866031865
30
0
40
0.49999999999993605
210
0
220
0
230
1
100
AcDbArc
50
180
51
270.00000000000978
0
ARC
5
368
100
AcDbEntity
8
0
100
AcDbCircle
10
-11.262710012241524
20
-3.0249818660318484
30
0
40
0.49999999999998934
210
0
220
-0
230
1
100
AcDbArc
50
89.999999999997954
51
180
0
LINE
5
369
100
AcDbEntity
8
0
100
AcDbLine
10
-11.762710012241495
20
-16.024981866031865
30
0
11
-11.762710012241497
21
-3.0249818660318573
31
0
0
ARC
5
370
100
AcDbEntity
8
0
100
AcDbCircle
10
-11.262710012241488
20
-16.024981866031865
30
0
40
0.50000000000000711
210
0
220
0
230
1
100
AcDbArc
50
180
51
270
0
LINE
5
371
100
AcDbEntity
8
0
100
AcDbLine
10
1.7372899877585013
20
-16.524981866031862
30
0
11
-11.262710012241488
21
-16.524981866031872
31
0
0
ARC
5
372
100
AcDbEntity
8
0
100
AcDbCircle
10
1.7372899877585013
20
-16.024981866031872
30
0
40
0.49999999999998934
210
-0
220
0
230
1
100
AcDbArc
50
-90
51
0
0
LINE
5
373
100
AcDbEntity
8
0
100
AcDbLine
10
2.2372899877584906
20
-3.0249818660318573
30
0
11
2.2372899877584751
21
-16.024981866031865
31
0
0
ARC
5
374
100
AcDbEntity
8
0
100
AcDbCircle
10
1.737289987758448
20
-3.0249818660318839
30
0
40
0.50000000000004263
210
0
220
-0
230
1
100
AcDbArc
50
0
51
89.999999999995936
0
LINE
5
375
100
AcDbEntity
8
0
100
AcDbLine
10
-11.262710012241506
20
-2.524981866031859
30
0
11
1.7372899877584835
21
-2.5249818660318479
31
0
0
LINE
5
376
100
AcDbEntity
8
0
100
AcDbLine
10
-31.600210012241519
20
21.575018133968136
30
0
11
-44.600210012241526
21
21.575018133968136
31
0
0
ARC
5
377
100
AcDbEntity
8
0
100
AcDbCircle
10
-44.600210012241526
20
22.075018133968136
30
0
40
0.49999999999999822
210
0
220
0
230
1
100
AcDbArc
50
180
51
270
0
LINE
5
378
100
AcDbEntity
8
0
100
AcDbLine
10
-45.100210012241526
20
22.075018133968136
30
0
11
-45.100210012241526
21
35.075018133968136
31
0
0
ARC
5
379
100
AcDbEntity
8
0
100
AcDbCircle
10
-44.600210012241526
20
35.075018133968136
30
0
40
0.49999999999999378
210
0
220
-0
230
1
100
AcDbArc
50
90
51
180
0
LINE
5
380
100
AcDbEntity
8
0
100
AcDbLine
10
-44.600210012241526
20
35.575018133968136
30
0
11
-31.600210012241519
21
35.575018133968143
31
0
0
ARC
5
381
100
AcDbEntity
8
0
100
AcDbCircle
10
-31.600210012241519
20
35.075018133968136
30
0
40
0.50000000000000711
210
0
220
0
230
1
100
AcDbArc
50
0
51
90
0
LINE
5
382
100
AcDbEntity
8
0
100
AcDbLine
10
-31.100210012241511
20
35.075018133968136
30
0
11
-31.100210012241511
21
22.07501813396814
31
0
0
ARC
5
383
100
AcDbEntity
8
0
100
AcDbCircle
10
-31.600210012241519
20
22.075018133968143
30
0
40
0.50000000000000711
210
-0
220
0
230
1
100
AcDbArc
50
270
51
360
0
ARC
5
384
100
AcDbEntity
8
0
100
AcDbCircle
10
63.649789987758503
20
35.0750181339682
30
0
40
0.49999999999997158
210
-0
220
0
230
1
100
AcDbArc
50
0
51
90.000000000004079
0
LINE
5
385
100
AcDbEntity
8
0
100
AcDbLine
10
50.649789987758496
20
35.57501813396815
30
0
11
63.649789987758467
21
35.57501813396815
31
0
0
ARC
5
386
100
AcDbEntity
8
0
100
AcDbCircle
10
50.649789987758496
20
35.075018133968115
30
0
40
0.50000000000003375
210
0
220
-0
230
1
100
AcDbArc
50
90
51
180
0
LINE
5
387
100
AcDbEntity
8
0
100
AcDbLine
10
50.149789987758489
20
22.075018133968154
30
0
11
50.149789987758453
21
35.07501813396815
31
0
0
ARC
5
388
100
AcDbEntity
8
0
100
AcDbCircle
10
50.64978998775846
20
22.075018133968104
30
0
40
0.49999999999997158
210
0
220
0
230
1
100
AcDbArc
50
180
51
270.00000000000409
0
LINE
5
389
100
AcDbEntity
8
0
100
AcDbLine
10
63.649789987758467
20
21.575018133968157
30
0
11
50.649789987758496
21
21.575018133968157
31
0
0
ARC
5
390
100
AcDbEntity
8
0
100
AcDbCircle
10
63.649789987758467
20
22.075018133968189
30
0
40
0.50000000000003375
210
-0
220
0
230
1
100
AcDbArc
50
270
51
360
0
LINE
5
391
100
AcDbEntity
8
0
100
AcDbLine
10
64.149789987758481
20
35.07501813396815
30
0
11
64.14978998775851
21
22.075018133968154
31
0
0
LINE
5
392
100
AcDbEntity
8
0
100
AcDbLine
10
-12.550210012241507
20
21.575018133968136
30
0
11
-25.550210012241514
21
21.575018133968129
31
0
0
ARC
5
393
100
AcDbEntity
8
0
100
AcDbCircle
10
-25.550210012241514
20
22.075018133968136
30
0
40
0.50000000000000711
210
0
220
0
230
1
100
AcDbArc
50
180
51
270
0
LINE
5
394
100
AcDbEntity
8
0
100
AcDbLine
10
-26.050210012241521
20
22.075018133968136
30
0
11
-26.050210012241539
21
35.075018133968136
31
0
0
ARC
5
395
100
AcDbEntity
8
0
100
AcDbCircle
10
-25.550210012241532
20
35.075018133968136
30
0
40
0.50000000000000266
210
0
220
-0
230
1
100
AcDbArc
50
89.999999999997954
51
180
0
LINE
5
396
100
AcDbEntity
8
0
100
AcDbLine
10
-25.550210012241514
20
35.575018133968136
30
0
11
-12.550210012241507
21
35.575018133968143
31
0
0
ARC
5
397
100
AcDbEntity
8
0
100
AcDbCircle
10
-12.550210012241507
20
35.075018133968136
30
0
40
0.50000000000000711
210
0
220
0
230
1
100
AcDbArc
50
0
51
90
0
LINE
5
398
100
AcDbEntity
8
0
100
AcDbLine
10
-12.0502100122415
20
35.075018133968143
30
0
11
-12.050210012241498
21
22.075018133968143
31
0
0
ARC
5
399
100
AcDbEntity
8
0
100
AcDbCircle
10
-12.550210012241507
20
22.075018133968143
30
0
40
0.50000000000000711
210
-0
220
0
230
1
100
AcDbArc
50
270
51
360
0
LINE
5
400
100
AcDbEntity
8
0
100
AcDbLine
10
25.54978998775848
20
21.575018133968147
30
0
11
12.549789987758491
21
21.575018133968136
31
0
0
ARC
5
401
100
AcDbEntity
8
0
100
AcDbCircle
10
12.549789987758526
20
22.075018133968172
30
0
40
0.50000000000004263
210
0
220
0
230
1
100
AcDbArc
50
180
51
269.99999999999591
0
LINE
5
402
100
AcDbEntity
8
0
100
AcDbLine
10
12.049789987758484
20
22.075018133968143
30
0
11
12.049789987758482
21
35.075018133968143
31
0
0
ARC
5
403
100
AcDbEntity
8
0
100
AcDbCircle
10
12.549789987758508
20
35.075018133968115
30
0
40
0.50000000000002487
210
0
220
0
230
1
100
AcDbArc
50
90.000000000002032
51
180
0
LINE
5
404
100
AcDbEntity
8
0
100
AcDbLine
10
12.549789987758491
20
35.575018133968143
30
0
11
25.54978998775848
21
35.575018133968157
31
0
0
ARC
5
405
100
AcDbEntity
8
0
100
AcDbCircle
10
25.54978998775848
20
35.075018133968143
30
0
40
0.50000000000000711
210
0
220
0
230
1
100
AcDbArc
50
0
51
90
0
LINE
5
406
100
AcDbEntity
8
0
100
AcDbLine
10
26.049789987758487
20
35.07501813396815
30
0
11
26.049789987758487
21
22.07501813396815
31
0
0
ARC
5
407
100
AcDbEntity
8
0
100
AcDbCircle
10
25.54978998775848
20
22.075018133968154
30
0
40
0.50000000000000711
210
-0
220
0
230
1
100
AcDbArc
50
270
51
360
0
ARC
5
408
100
AcDbEntity
8
0
100
AcDbCircle
10
-64.93771001224151
20
16.025018133968132
30
0
40
0.49999999999999822
210
0
220
0
230
1
100
AcDbArc
50
0
51
90
0
LINE
5
409
100
AcDbEntity
8
0
100
AcDbLine
10
-77.937710012241524
20
16.525018133968132
30
0
11
-64.93771001224151
21
16.525018133968132
31
0
0
ARC
5
410
100
AcDbEntity
8
0
100
AcDbCircle
10
-77.937710012241524
20
16.025018133968132
30
0
40
0.49999999999999822
210
0
220
-0
230
1
100
AcDbArc
50
90
51
180
0
LINE
5
411
100
AcDbEntity
8
0
100
AcDbLine
10
-78.43771001224151
20
3.0250181339681292
30
0
11
-78.43771001224151
21
16.025018133968132
31
0
0
ARC
5
412
100
AcDbEntity
8
0
100
AcDbCircle
10
-77.93771001224151
20
3.0250181339681292
30
0
40
0.49999999999999822
210
0
220
0
230
1
100
AcDbArc
50
180
51
270
0
LINE
5
413
100
AcDbEntity
8
0
100
AcDbLine
10
-64.937710012241496
20
2.525018133968131
30
0
11
-77.93771001224151
21
2.5250181339681288
31
0
0
ARC
5
414
100
AcDbEntity
8
0
100
AcDbCircle
10
-64.937710012241496
20
3.0250181339681292
30
0
40
0.49999999999999822
210
-0
220
0
230
1
100
AcDbArc
50
-90
51
0
0
LINE
5
415
100
AcDbEntity
8
0
100
AcDbLine
10
-64.43771001224151
20
16.025018133968132
30
0
11
-64.43771001224151
21
3.0250181339681292
31
0
0
LINE
5
416
100
AcDbEntity
8
0
100
AcDbLine
10
-45.887710012241513
20
2.5250181339681355
30
0
11
-58.887710012241506
21
2.5250181339681288
31
0
0
ARC
5
417
100
AcDbEntity
8
0
100
AcDbCircle
10
-58.887710012241506
20
3.0250181339681248
30
0
40
0.49999999999999822
210
0
220
0
230
1
100
AcDbArc
50
180
51
270
0
LINE
5
418
100
AcDbEntity
8
0
100
AcDbLine
10
-59.387710012241506
20
3.0250181339681292
30
0
11
-59.387710012241499
21
16.025018133968132
31
0
0
ARC
5
419
100
AcDbEntity
8
0
100
AcDbCircle
10
-58.887710012241513
20
16.025018133968135
30
0
40
0.49999999999999378
210
0
220
-0
230
1
100
AcDbArc
50
90
51
180
0
LINE
5
420
100
AcDbEntity
8
0
100
AcDbLine
10
-58.887710012241513
20
16.525018133968132
30
0
11
-45.88771001224152
21
16.525018133968132
31
0
0
ARC
5
421
100
AcDbEntity
8
0
100
AcDbCircle
10
-45.88771001224152
20
16.025018133968135
30
0
40
0.49999999999999822
210
0
220
0
230
1
100
AcDbArc
50
0
51
90
0
LINE
5
422
100
AcDbEntity
8
0
100
AcDbLine
10
-45.38771001224152
20
16.025018133968135
30
0
11
-45.38771001224152
21
3.0250181339681337
31
0
0
ARC
5
423
100
AcDbEntity
8
0
100
AcDbCircle
10
-45.887710012241513
20
3.0250181339681337
30
0
40
0.49999999999999822
210
-0
220
0
230
1
100
AcDbArc
50
-90
51
0
0
LINE
5
424
100
AcDbEntity
8
0
100
AcDbLine
10
-96.987710012241521
20
16.525018133968125
30
0
11
-83.987710012241507
21
16.525018133968135
31
0
0
ARC
5
425
100
AcDbEntity
8
0
100
AcDbCircle
10
-83.987710012241507
20
16.025018133968118
30
0
40
0.50000000000002487
210
0
220
-0
230
1
100
AcDbArc
50
0
51
90
0
LINE
5
426
100
AcDbEntity
8
0
100
AcDbLine
10
-83.487710012241507
20
16.025018133968132
30
0
11
-83.487710012241507
21
3.0250181339681292
31
0
0
ARC
5
427
100
AcDbEntity
8
0
100
AcDbCircle
10
-83.987710012241507
20
3.0250181339681204
30
0
40
0.49999999999999378
210
-0
220
0
230
1
100
AcDbArc
50
-90
51
0
0
LINE
5
428
100
AcDbEntity
8
0
100
AcDbLine
10
-83.987710012241507
20
2.5250181339681266
30
0
11
-96.987710012241521
21
2.5250181339681244
31
0
0
ARC
5
429
100
AcDbEntity
8
0
100
AcDbCircle
10
-96.987710012241521
20
3.0250181339681248
30
0
40
0.50000000000000711
210
0
220
0
230
1
100
AcDbArc
50
180
51
270
0
LINE
5
430
100
AcDbEntity
8
0
100
AcDbLine
10
-97.487710012241507
20
3.0250181339681248
30
0
11
-97.487710012241507
21
16.025018133968128
31
0
0
ARC
5
431
100
AcDbEntity
8
0
100
AcDbCircle
10
-96.987710012241521
20
16.025018133968128
30
0
40
0.49999999999999822
210
0
220
-0
230
1
100
AcDbArc
50
90
51
180
0
LINE
5
432
100
AcDbEntity
8
0
100
AcDbLine
10
55.412289987758498
20
16.525018133968153
30
0
11
68.412289987758498
21
16.525018133968178
31
0
0
ARC
5
433
100
AcDbEntity
8
0
100
AcDbCircle
10
68.412289987758498
20
16.025018133968167
30
0
40
0.50000000000000711
210
-0
220
0
230
1
100
AcDbArc
50
0
51
90
0
LINE
5
434
100
AcDbEntity
8
0
100
AcDbLine
10
68.912289987758513
20
16.025018133968153
30
0
11
68.912289987758513
21
3.0250181339681514
31
0
0
ARC
5
435
100
AcDbEntity
8
0
100
AcDbCircle
10
68.412289987758442
20
3.0250181339682314
30
0
40
0.50000000000007816
210
-0
220
0
230
1
100
AcDbArc
50
270.00000000000648
51
360
0
LINE
5
436
100
AcDbEntity
8
0
100
AcDbLine
10
68.412289987758498
20
2.5250181339681532
30
0
11
55.412289987758498
21
2.525018133968151
31
0
0
ARC
5
437
100
AcDbEntity
8
0
100
AcDbCircle
10
55.412289987758463
20
3.0250181339681115
30
0
40
0.49999999999997158
210
0
220
0
230
1
100
AcDbArc
50
180
51
270.00000000000409
0
LINE
5
438
100
AcDbEntity
8
0
100
AcDbLine
10
54.912289987758491
20
3.0250181339681514
30
0
11
54.912289987758491
21
16.025018133968153
31
0
0
ARC
5
439
100
AcDbEntity
8
0
100
AcDbCircle
10
55.412289987758463
20
16.025018133968167
30
0
40
0.4999999999999849
210
0
220
-0
230
1
100
AcDbArc
50
89.999999999995936
51
180
0
LINE
5
440
100
AcDbEntity
8
0
100
AcDbLine
10
96.987289987758487
20
-35.574981866031841
30
0
11
83.987289987758487
21
-35.57498186603182
31
0
0
ARC
5
441
100
AcDbEntity
8
0
100
AcDbCircle
10
83.987289987758402
20
-35.074981866031855
30
0
40
0.49999999999993605
210
0
220
0
230
1
100
AcDbArc
50
180
51
270.00000000000978
0
LINE
5
442
100
AcDbEntity
8
0
100
AcDbLine
10
83.487289987758473
20
-35.074981866031841
30
0
11
83.487289987758516
21
-22.074981866031841
31
0
0
ARC
5
443
100
AcDbEntity
8
0
100
AcDbCircle
10
83.987289987758544
20
-22.07498186603187
30
0
40
0.50000000000002487
210
0
220
0
230
1
100
AcDbArc
50
90.000000000006523
51
180
0
LINE
5
444
100
AcDbEntity
8
0
100
AcDbLine
10
83.987289987758487
20
-21.574981866031845
30
0
11
96.987289987758487
21
-21.574981866031834
31
0
0
ARC
5
445
100
AcDbEntity
8
0
100
AcDbCircle
10
96.987289987758516
20
-22.074981866031788
30
0
40
0.49999999999997158
210
-0
220
0
230
1
100
AcDbArc
50
0
51
90.000000000003254
0
LINE
5
446
100
AcDbEntity
8
0
100
AcDbLine
10
97.487289987758487
20
-22.074981866031841
30
0
11
97.48728998775853
21
-35.074981866031841
31
0
0
ARC
5
447
100
AcDbEntity
8
0
100
AcDbCircle
10
96.987289987758487
20
-35.074981866031806
30
0
40
0.50000000000003375
210
-0
220
0
230
1
100
AcDbArc
50
270
51
360
0
ARC
5
448
100
AcDbEntity
8
0
100
AcDbCircle
10
105.41853998775846
20
-35.074981866031877
30
0
40
0.49999999999997158
210
0
220
0
230
1
100
AcDbArc
50
180
51
270.00000000000324
0
LINE
5
449
100
AcDbEntity
8
0
100
AcDbLine
10
118.41853998775849
20
-35.574981866031827
30
0
11
105.41853998775849
21
-35.574981866031827
31
0
0
ARC
5
450
100
AcDbEntity
8
0
100
AcDbCircle
10
118.41853998775844
20
-35.074981866031798
30
0
40
0.50000000000003375
210
-0
220
0
230
1
100
AcDbArc
50
270.00000000000648
51
360
0
LINE
5
451
100
AcDbEntity
8
0
100
AcDbLine
10
118.91853998775851
20
-22.074981866031834
30
0
11
118.91853998775846
21
-35.074981866031834
31
0
0
ARC
5
452
100
AcDbEntity
8
0
100
AcDbCircle
10
118.41853998775858
20
-22.074981866031798
30
0
40
0.49999999999993605
210
-0
220
0
230
1
100
AcDbArc
50
0
51
90.000000000009777
0
LINE
5
453
100
AcDbEntity
8
0
100
AcDbLine
10
105.41853998775849
20
-21.574981866031845
30
0
11
118.41853998775849
21
-21.574981866031852
31
0
0
ARC
5
454
100
AcDbEntity
8
0
100
AcDbCircle
10
105.41853998775846
20
-22.07498186603187
30
0
40
0.50000000000002487
210
0
220
-0
230
1
100
AcDbArc
50
89.999999999996746
51
180
0
LINE
5
455
100
AcDbEntity
8
0
100
AcDbLine
10
104.91853998775849
20
-35.074981866031841
30
0
11
104.91853998775845
21
-22.074981866031841
31
0
0
ARC
5
456
100
AcDbEntity
8
0
100
AcDbCircle
10
-83.987710012241493
20
-35.07498186603187
30
0
40
0.49999999999999822
210
-0
220
0
230
1
100
AcDbArc
50
-90
51
0
0
LINE
5
457
100
AcDbEntity
8
0
100
AcDbLine
10
-83.487710012241507
20
-22.07498186603187
30
0
11
-83.487710012241507
21
-35.07498186603187
31
0
0
ARC
5
458
100
AcDbEntity
8
0
100
AcDbCircle
10
-83.987710012241507
20
-22.074981866031887
30
0
40
0.50000000000002487
210
0
220
-0
230
1
100
AcDbArc
50
0
51
89.99999999999838
0
LINE
5
459
100
AcDbEntity
8
0
100
AcDbLine
10
-96.987710012241521
20
-21.57498186603187
30
0
11
-83.987710012241507
21
-21.574981866031862
31
0
0
ARC
5
460
100
AcDbEntity
8
0
100
AcDbCircle
10
-96.987710012241521
20
-22.07498186603187
30
0
40
0.49999999999999822
210
0
220
-0
230
1
100
AcDbArc
50
90
51
180
0
LINE
5
461
100
AcDbEntity
8
0
100
AcDbLine
10
-97.487710012241507
20
-35.074981866031877
30
0
11
-97.487710012241536
21
-22.074981866031877
31
0
0
ARC
5
462
100
AcDbEntity
8
0
100
AcDbCircle
10
-96.987710012241507
20
-35.07498186603187
30
0
40
0.49999999999998934
210
0
220
0
230
1
100
AcDbArc
50
180
51
270
0
LINE
5
463
100
AcDbEntity
8
0
100
AcDbLine
10
-83.987710012241493
20
-35.574981866031862
30
0
11
-96.987710012241507
21
-35.574981866031862
31
0
0
ARC
5
464
100
AcDbEntity
8
0
100
AcDbCircle
10
75.556039987758439
20
-22.074981866031941
30
0
40
0.50000000000000711
210
0
220
0
230
1
100
AcDbArc
50
0
51
89.999999999995111
0
LINE
5
465
100
AcDbEntity
8
0
100
AcDbLine
10
62.556039987758467
20
-21.574981866031951
30
0
11
75.556039987758481
21
-21.574981866031941
31
0
0
ARC
5
466
100
AcDbEntity
8
0
100
AcDbCircle
10
62.556039987758432
20
-22.074981866031912
30
0
40
0.4999999999999627
210
0
220
-0
230
1
100
AcDbArc
50
89.999999999995936
51
180
0
LINE
5
467
100
AcDbEntity
8
0
100
AcDbLine
10
62.05603998775846
20
-35.074981866031948
30
0
11
62.05603998775846
21
-22.074981866031948
31
0
0
ARC
5
468
100
AcDbEntity
8
0
100
AcDbCircle
10
62.556039987758432
20
-35.074981866031997
30
0
40
0.49999999999997158
210
0
220
0
230
1
100
AcDbArc
50
180
51
270.00000000000409
0
LINE
5
469
100
AcDbEntity
8
0
100
AcDbLine
10
75.556039987758481
20
-35.574981866031912
30
0
11
62.556039987758467
21
-35.574981866031948
31
0
0
ARC
5
470
100
AcDbEntity
8
0
100
AcDbCircle
10
75.556039987758481
20
-35.074981866031948
30
0
40
0.4999999999999627
210
-0
220
0
230
1
100
AcDbArc
50
-90
51
0
0
LINE
5
471
100
AcDbEntity
8
0
100
AcDbLine
10
76.056039987758453
20
-22.074981866031941
30
0
11
76.056039987758453
21
-35.074981866031941
31
0
0
ARC
5
472
100
AcDbEntity
8
0
100
AcDbCircle
10
45.887289987758457
20
-16.02498186603189
30
0
40
0.49999999999997158
210
0
220
0
230
1
100
AcDbArc
50
180
51
270.00000000000409
0
LINE
5
473
100
AcDbEntity
8
0
100
AcDbLine
10
58.8872899877585
20
-16.524981866031855
30
0
11
45.887289987758493
21
-16.524981866031855
31
0
0
ARC
5
474
100
AcDbEntity
8
0
100
AcDbCircle
10
58.887289987758429
20
-16.024981866031819
30
0
40
0.50000000000003375
210
-0
220
0
230
1
100
AcDbArc
50
270.00000000000813
51
360
0
LINE
5
475
100
AcDbEntity
8
0
100
AcDbLine
10
59.387289987758507
20
-3.0249818660318484
30
0
11
59.387289987758471
21
-16.024981866031855
31
0
0
ARC
5
476
100
AcDbEntity
8
0
100
AcDbCircle
10
58.887289987758571
20
-3.0249818660318306
30
0
40
0.49999999999993605
210
-0
220
0
230
1
100
AcDbArc
50
0
51
90.000000000008143
0
LINE
5
477
100
AcDbEntity
8
0
100
AcDbLine
10
45.887289987758493
20
-2.5249818660318502
30
0
11
58.8872899877585
21
-2.5249818660318657
31
0
0
ARC
5
478
100
AcDbEntity
8
0
100
AcDbCircle
10
45.887289987758493
20
-3.0249818660318839
30
0
40
0.50000000000003375
210
0
220
-0
230
1
100
AcDbArc
50
90
51
180
0
LINE
5
479
100
AcDbEntity
8
0
100
AcDbLine
10
45.387289987758486
20
-16.024981866031855
30
0
11
45.38728998775845
21
-3.0249818660318484
31
0
0
LINE
5
480
100
AcDbEntity
8
0
100
AcDbLine
10
31.099789987758495
20
22.07501813396815
30
0
11
31.099789987758495
21
35.07501813396815
31
0
0
ARC
5
481
100
AcDbEntity
8
0
100
AcDbCircle
10
31.59978998775852
20
35.075018133968122
30
0
40
0.50000000000002931
210
0
220
0
230
1
100
AcDbArc
50
90.000000000002032
51
180
0
LINE
5
482
100
AcDbEntity
8
0
100
AcDbLine
10
31.599789987758502
20
35.57501813396815
30
0
11
44.599789987758491
21
35.575018133968172
31
0
0
ARC
5
483
100
AcDbEntity
8
0
100
AcDbCircle
10
44.599789987758491
20
35.075018133968165
30
0
40
0.50000000000000711
210
-0
220
0
230
1
100
AcDbArc
50
0
51
90
0
LINE
5
484
100
AcDbEntity
8
0
100
AcDbLine
10
45.099789987758498
20
35.07501813396815
30
0
11
45.099789987758463
21
22.075018133968154
31
0
0
ARC
5
485
100
AcDbEntity
8
0
100
AcDbCircle
10
44.59978998775842
20
22.075018133968179
30
0
40
0.50000000000002487
210
-0
220
0
230
1
100
AcDbArc
50
270.00000000000813
51
360
0
LINE
5
486
100
AcDbEntity
8
0
100
AcDbLine
10
44.599789987758491
20
21.57501813396815
30
0
11
31.599789987758502
21
21.575018133968143
31
0
0
ARC
5
487
100
AcDbEntity
8
0
100
AcDbCircle
10
31.599789987758538
20
22.075018133968175
30
0
40
0.50000000000004263
210
0
220
0
230
1
100
AcDbArc
50
180
51
269.99999999999591
0
LINE
5
488
100
AcDbEntity
8
0
100
AcDbLine
10
35.86228998775848
20
3.025018133968147
30
0
11
35.862289987758501
21
16.02501813396815
31
0
0
ARC
5
489
100
AcDbEntity
8
0
100
AcDbCircle
10
36.362289987758452
20
16.025018133968171
30
0
40
0.49999999999997602
210
0
220
-0
230
1
100
AcDbArc
50
89.999999999995936
51
180
0
LINE
5
490
100
AcDbEntity
8
0
100
AcDbLine
10
36.362289987758487
20
16.525018133968146
30
0
11
49.362289987758494
21
16.525018133968171
31
0
0
ARC
5
491
100
AcDbEntity
8
0
100
AcDbCircle
10
49.362289987758494
20
16.025018133968164
30
0
40
0.50000000000000711
210
-0
220
0
230
1
100
AcDbArc
50
0
51
90.00000000000081
0
LINE
5
492
100
AcDbEntity
8
0
100
AcDbLine
10
49.862289987758501
20
16.025018133968153
30
0
11
49.862289987758501
21
3.0250181339681514
31
0
0
ARC
5
493
100
AcDbEntity
8
0
100
AcDbCircle
10
49.362289987758423
20
3.0250181339682269
30
0
40
0.50000000000007816
210
-0
220
0
230
1
100
AcDbArc
50
270.00000000000813
51
360
0
LINE
5
494
100
AcDbEntity
8
0
100
AcDbLine
10
49.362289987758494
20
2.5250181339681488
30
0
11
36.362289987758487
21
2.5250181339681421
31
0
0
ARC
5
495
100
AcDbEntity
8
0
100
AcDbCircle
10
36.362289987758487
20
3.0250181339681514
30
0
40
0.50000000000000711
210
0
220
0
230
1
100
AcDbArc
50
180
51
270
0
LINE
5
496
100
AcDbEntity
8
0
100
AcDbLine
10
6.9997899877584757
20
35.075018133968143
30
0
11
6.9997899877584775
21
22.075018133968143
31
0
0
ARC
5
497
100
AcDbEntity
8
0
100
AcDbCircle
10
6.4997899877584686
20
22.07501813396815
30
0
40
0.50000000000000266
210
-0
220
0
230
1
100
AcDbArc
50
270
51
360
0
LINE
5
498
100
AcDbEntity
8
0
100
AcDbLine
10
6.4997899877584686
20
21.575018133968147
30
0
11
-6.500210012241503
21
21.575018133968136
31
0
0
ARC
5
499
100
AcDbEntity
8
0
100
AcDbCircle
10
-6.500210012241503
20
22.075018133968143
30
0
40
0.50000000000000711
210
0
220
0
230
1
100
AcDbArc
50
180
51
270
0
LINE
5
500
100
AcDbEntity
8
0
100
AcDbLine
10
-7.0002100122415101
20
22.075018133968143
30
0
11
-7.0002100122415296
21
35.075018133968143
31
0
0
ARC
5
501
100
AcDbEntity
8
0
100
AcDbCircle
10
-6.5002100122415207
20
35.075018133968136
30
0
40
0.50000000000000266
210
0
220
-0
230
1
100
AcDbArc
50
89.999999999997954
51
180
0
LINE
5
502
100
AcDbEntity
8
0
100
AcDbLine
10
-6.500210012241503
20
35.575018133968143
30
0
11
6.4997899877584686
21
35.57501813396815
31
0
0
ARC
5
503
100
AcDbEntity
8
0
100
AcDbCircle
10
6.4997899877584686
20
35.075018133968143
30
0
40
0.50000000000000711
210
0
220
0
230
1
100
AcDbArc
50
0
51
90
0
LINE
5
504
100
AcDbEntity
8
0
100
AcDbLine
10
-1.7377100122415001
20
16.525018133968143
30
0
11
11.262289987758489
21
16.525018133968153
31
0
0
ARC
5
505
100
AcDbEntity
8
0
100
AcDbCircle
10
11.262289987758454
20
16.025018133968118
30
0
40
0.50000000000004263
210
0
220
-0
230
1
100
AcDbArc
50
0
51
89.999999999995936
0
LINE
5
506
100
AcDbEntity
8
0
100
AcDbLine
10
11.762289987758496
20
16.025018133968146
30
0
11
11.76228998775848
21
3.0250181339681426
31
0
0
ARC
5
507
100
AcDbEntity
8
0
100
AcDbCircle
10
11.262289987758489
20
3.0250181339681292
30
0
40
0.4999999999999849
210
-0
220
0
230
1
100
AcDbArc
50
-90
51
0
0
LINE
5
508
100
AcDbEntity
8
0
100
AcDbLine
10
11.262289987758489
20
2.5250181339681443
30
0
11
-1.7377100122415001
21
2.5250181339681377
31
0
0
ARC
5
509
100
AcDbEntity
8
0
100
AcDbCircle
10
-1.7377100122415001
20
3.025018133968147
30
0
40
0.50000000000000711
210
0
220
0
230
1
100
AcDbArc
50
180
51
270
0
LINE
5
510
100
AcDbEntity
8
0
100
AcDbLine
10
-2.2377100122415072
20
3.0250181339681426
30
0
11
-2.2377100122415094
21
16.025018133968146
31
0
0
ARC
5
511
100
AcDbEntity
8
0
100
AcDbCircle
10
-1.7377100122415179
20
16.02501813396815
30
0
40
0.49999999999999378
210
0
220
-0
230
1
100
AcDbArc
50
89.999999999997954
51
180
0
LINE
5
512
100
AcDbEntity
8
0
100
AcDbLine
10
-100.65646001224151
20
-16.524981866031879
30
0
11
-113.6564600122415
21
-16.524981866031883
31
0
0
ARC
5
513
100
AcDbEntity
8
0
100
AcDbCircle
10
-113.65646001224151
20
-16.024981866031883
30
0
40
0.50000000000000711
210
0
220
0
230
1
100
AcDbArc
50
180
51
270
0
LINE
5
514
100
AcDbEntity
8
0
100
AcDbLine
10
-114.1564600122415
20
-16.024981866031883
30
0
11
-114.1564600122415
21
-3.024981866031875
31
0
0
ARC
5
515
100
AcDbEntity
8
0
100
AcDbCircle
10
-113.65646001224151
20
-3.024981866031875
30
0
40
0.49999999999999822
210
0
220
-0
230
1
100
AcDbArc
50
90
51
180
0
LINE
5
516
100
AcDbEntity
8
0
100
AcDbLine
10
-113.65646001224151
20
-2.5249818660318768
30
0
11
-100.65646001224151
21
-2.5249818660318746
31
0
0
ARC
5
517
100
AcDbEntity
8
0
100
AcDbCircle
10
-100.65646001224151
20
-3.024981866031875
30
0
40
0.49999999999998934
210
0
220
0
230
1
100
AcDbArc
50
0
51
90
0
LINE
5
518
100
AcDbEntity
8
0
100
AcDbLine
10
-100.15646001224152
20
-3.024981866031875
30
0
11
-100.15646001224152
21
-16.024981866031883
31
0
0
ARC
5
519
100
AcDbEntity
8
0
100
AcDbCircle
10
-100.65646001224151
20
-16.024981866031883
30
0
40
0.49999999999999822
210
-0
220
0
230
1
100
AcDbArc
50
-90
51
0
0
LINE
5
520
100
AcDbEntity
8
0
100
AcDbLine
10
-54.912710012241519
20
-3.0249818660318661
30
0
11
-54.912710012241519
21
-16.024981866031872
31
0
0
ARC
5
521
100
AcDbEntity
8
0
100
AcDbCircle
10
-55.412710012241519
20
-16.024981866031872
30
0
40
0.49999999999999822
210
-0
220
0
230
1
100
AcDbArc
50
-90
51
0
0
LINE
5
522
100
AcDbEntity
8
0
100
AcDbLine
10
-55.412710012241519
20
-16.524981866031872
30
0
11
-68.412710012241504
21
-16.524981866031872
31
0
0
ARC
5
523
100
AcDbEntity
8
0
100
AcDbCircle
10
-68.412710012241504
20
-16.024981866031872
30
0
40
0.49999999999999822
210
0
220
0
230
1
100
AcDbArc
50
180
51
270
0
LINE
5
524
100
AcDbEntity
8
0
100
AcDbLine
10
-68.912710012241504
20
-16.024981866031872
30
0
11
-68.912710012241504
21
-3.0249818660318661
31
0
0
ARC
5
525
100
AcDbEntity
8
0
100
AcDbCircle
10
-68.412710012241504
20
-3.0249818660318661
30
0
40
0.49999999999999822
210
0
220
-0
230
1
100
AcDbArc
50
90
51
180
0
LINE
5
526
100
AcDbEntity
8
0
100
AcDbLine
10
-68.412710012241504
20
-2.5249818660318679
30
0
11
-55.412710012241519
21
-2.5249818660318657
31
0
0
ARC
5
527
100
AcDbEntity
8
0
100
AcDbCircle
10
-55.412710012241519
20
-3.0249818660318661
30
0
40
0.49999999999999822
210
0
220
0
230
1
100
AcDbArc
50
0
51
90
0
LINE
5
528
100
AcDbEntity
8
0
100
AcDbLine
10
-69.200210012241513
20
35.075018133968129
30
0
11
-69.200210012241513
21
22.075018133968133
31
0
0
ARC
5
529
100
AcDbEntity
8
0
100
AcDbCircle
10
-69.700210012241513
20
22.075018133968136
30
0
40
0.50000000000000266
210
-0
220
0
230
1
100
AcDbArc
50
270
51
360
0
LINE
5
530
100
AcDbEntity
8
0
100
AcDbLine
10
-69.700210012241513
20
21.575018133968129
30
0
11
-82.700210012241513
21
21.575018133968129
31
0
0
ARC
5
531
100
AcDbEntity
8
0
100
AcDbCircle
10
-82.700210012241513
20
22.075018133968129
30
0
40
0.50000000000000711
210
0
220
0
230
1
100
AcDbArc
50
180
51
270
0
LINE
5
532
100
AcDbEntity
8
0
100
AcDbLine
10
-83.200210012241513
20
22.075018133968129
30
0
11
-83.200210012241513
21
35.075018133968129
31
0
0
ARC
5
533
100
AcDbEntity
8
0
100
AcDbCircle
10
-82.700210012241513
20
35.075018133968129
30
0
40
0.50000000000000266
210
0
220
-0
230
1
100
AcDbArc
50
90
51
180
0
LINE
5
534
100
AcDbEntity
8
0
100
AcDbLine
10
-82.700210012241513
20
35.575018133968129
30
0
11
-69.700210012241513
21
35.575018133968129
31
0
0
ARC
5
535
100
AcDbEntity
8
0
100
AcDbCircle
10
-69.700210012241513
20
35.075018133968129
30
0
40
0.49999999999999822
210
0
220
0
230
1
100
AcDbArc
50
0
51
90
0
ENDSEC
0
SECTION
2
OBJECTS
0
DICTIONARY
5
C
100
AcDbDictionary
3
ACAD_GROUP
350
D
3
ACAD_MLINESTYLE
350
17
0
DICTIONARY
5
D
100
AcDbDictionary
0
DICTIONARY
5
1A
330
C
100
AcDbDictionary
0
DICTIONARY
5
17
100
AcDbDictionary
0
ENDSEC
0
EOF
