0
SECTION
2
HEADER
9
$INSUNITS
70
4
9
$ACADVER
1
AC1014
9
$HANDSEED
5
FFFF
0
ENDSEC
0
SECTION
2
TABLES
0
TABLE
2
VPORT
5
8
100
AcDbSymbolTable
0
ENDTAB
0
TABLE
2
LTYPE
5
5
100
AcDbSymbolTable
0
LTYPE
5
14
100
AcDbSymbolTableRecord
100
AcDbLinetypeTableRecord
2
BYBLOCK
70
0
0
LTYPE
5
15
100
AcDbSymbolTableRecord
100
AcDbLinetypeTableRecord
2
BYLAYER
70
0
0
ENDTAB
0
TABLE
2
LAYER
5
2
100
AcDbSymbolTable
70
2
0
LAYER
5
50
100
AcDbSymbolTableRecord
100
AcDbLayerTableRecord
2
0
70
0
6
CONTINUOUS
0
ENDTAB
0
TABLE
2
STYLE
5
3
100
AcDbSymbolTable
70
1
0
STYLE
5
11
100
AcDbSymbolTableRecord
100
AcDbTextStyleTableRecord
2
STANDARD
70
0
0
ENDTAB
0
TABLE
2
VIEW
5
6
100
AcDbSymbolTable
70
0
0
ENDTAB
0
TABLE
2
UCS
5
7
100
AcDbSymbolTable
70
0
0
ENDTAB
0
TABLE
2
APPID
5
9
100
AcDbSymbolTable
70
2
0
APPID
5
12
100
AcDbSymbolTableRecord
100
AcDbRegAppTableRecord
2
ACAD
70
0
0
ENDTAB
0
TABLE
2
DIMSTYLE
5
A
100
AcDbSymbolTable
70
1
0
ENDTAB
0
TABLE
2
BLOCK_RECORD
5
1
100
AcDbSymbolTable
70
1
0
BLOCK_RECORD
5
1F
100
AcDbSymbolTableRecord
100
AcDbBlockTableRecord
2
*MODEL_SPACE
0
BLOCK_RECORD
5
1B
100
AcDbSymbolTableRecord
100
AcDbBlockTableRecord
2
*PAPER_SPACE
0
ENDTAB
0
ENDSEC
0
SECTION
2
BLOCKS
0
BLOCK
5
20
100
AcDbEntity
100
AcDbBlockBegin
2
*MODEL_SPACE
0
ENDBLK
5
21
100
AcDbEntity
100
AcDbBlockEnd
0
BLOCK
5
1C
100
AcDbEntity
100
AcDbBlockBegin
2
*PAPER_SPACE
0
ENDBLK
5
1D
100
AcDbEntity
100
AcDbBlockEnd
0
ENDSEC
0
SECTION
2
ENTITIES
0
CIRCLE
5
100
100
AcDbEntity
8
0
100
AcDbCircle
10
-89.919809679806377
20
12.492111792948632
30
0
40
1.0999999999999943
210
0
220
0
230
1
0
CIRCLE
5
101
100
AcDbEntity
8
0
100
AcDbCircle
10
100.08019032019365
20
-42.107935668128476
30
0
40
1.0999999999999943
210
0
220
0
230
1
0
CIRCLE
5
102
100
AcDbEntity
8
0
100
AcDbCircle
10
90.080190320192628
20
-2.5078882070514652
30
0
40
1.0999999999999943
210
0
220
0
230
1
0
CIRCLE
5
103
100
AcDbEntity
8
0
100
AcDbCircle
10
-45.919809679806392
20
42.092064331871519
30
0
40
1.0999999999999943
210
0
220
0
230
1
0
CIRCLE
5
104
100
AcDbEntity
8
0
100
AcDbCircle
10
-89.919809679806377
20
-2.5078882070514652
30
0
40
1.1000000000000121
210
0
220
0
230
1
0
CIRCLE
5
105
100
AcDbEntity
8
0
100
AcDbCircle
10
-99.919809679806392
20
-42.107935668128476
30
0
40
1.0999999999999943
210
0
220
0
230
1
0
CIRCLE
5
106
100
AcDbEntity
8
0
100
AcDbCircle
10
90.080190320192628
20
12.492111792948632
30
0
40
1.1000000000000298
210
0
220
0
230
1
0
CIRCLE
5
107
100
AcDbEntity
8
0
100
AcDbCircle
10
46.080190320193637
20
42.092064331871519
30
0
40
1.0999999999999943
210
0
220
0
230
1
0
CIRCLE
5
108
100
AcDbEntity
8
0
100
AcDbCircle
10
-66.677014423746371
20
28.573522946525625
30
0
40
1.25
210
0
220
0
230
1
0
ARC
5
109
100
AcDbEntity
8
0
100
AcDbCircle
10
-60.002014423746388
20
-40.107651916636499
30
0
40
4.4438251368377735
210
0
220
0
230
1
100
AcDbArc
50
-180.64102221646405
51
0.64102221646290636
0
LINE
5
110
100
AcDbEntity
8
0
100
AcDbLine
10
-55.558467401217477
20
-40.057935668128586
30
0
11
55.554438553724701
21
-40.057935668128493
31
0
0
ARC
5
111
100
AcDbEntity
8
0
100
AcDbCircle
10
59.997985576252617
20
-40.107651916636499
30
0
40
4.4438251368367787
210
0
220
0
230
1
100
AcDbArc
50
-180.64102221646462
51
0.64102221646404345
0
LINE
5
112
100
AcDbEntity
8
0
100
AcDbLine
10
64.441532598780526
20
-40.057935668128493
30
0
11
95.880487949786783
21
-40.057935668128493
31
0
0
ARC
5
113
100
AcDbEntity
8
0
100
AcDbCircle
10
100.08019032019365
20
-40.107935668128491
30
0
40
4.2000000000001272
210
0
220
0
230
1
100
AcDbArc
50
-180.68210872568753
51
0.68210872568751457
0
LINE
5
114
100
AcDbEntity
8
0
100
AcDbLine
10
104.27989269060052
20
-40.057935668128479
30
0
11
125.75519032019361
21
-40.057935668128493
31
0
0
LINE
5
115
100
AcDbEntity
8
0
100
AcDbLine
10
125.75519032019361
20
-40.057935668128493
30
0
11
125.75519032019361
21
-4.443414467643656
31
0
0
ARC
5
116
100
AcDbEntity
8
0
100
AcDbCircle
10
125.83041130141964
20
-0.0014770534743746566
30
0
40
4.442574274833623
210
0
220
0
230
1
100
AcDbArc
50
-90.97016964595592
51
90.970169645955934
0
LINE
5
117
100
AcDbEntity
8
0
100
AcDbLine
10
125.75519032019361
20
4.4404603606949067
30
0
11
125.75519032019361
21
40.042064331871515
31
0
0
LINE
5
118
100
AcDbEntity
8
0
100
AcDbLine
10
125.75519032019361
20
40.042064331871515
30
0
11
94.44067581400212
21
40.042064331871515
31
0
0
ARC
5
119
100
AcDbEntity
8
0
100
AcDbCircle
10
89.997985576252617
20
40.105381533447719
30
0
40
4.4431414130781581
210
-0
220
0
230
1
100
AcDbArc
50
-0.816523914708155
51
180.81652391470726
0
LINE
5
120
100
AcDbEntity
8
0
100
AcDbLine
10
85.555295338503115
20
40.042064331871572
30
0
11
50.279892690600505
21
40.042064331871515
31
0
0
ARC
5
121
100
AcDbEntity
8
0
100
AcDbCircle
10
46.080190320193637
20
40.092064331871526
30
0
40
4.2000000000001272
210
-0
220
0
230
1
100
AcDbArc
50
-0.68210872568751646
51
180.68210872568753
0
LINE
5
122
100
AcDbEntity
8
0
100
AcDbLine
10
41.880487949786769
20
40.042064331871529
30
0
11
4.4406758140021552
21
40.042064331871515
31
0
0
ARC
5
123
100
AcDbEntity
8
0
100
AcDbCircle
10
-0.0020144237473829207
20
40.105381533447719
30
0
40
4.4431414130781937
210
-0
220
0
230
1
100
AcDbArc
50
-0.816523914708155
51
180.81652391470772
0
LINE
5
124
100
AcDbEntity
8
0
100
AcDbLine
10
-4.444704661496921
20
40.042064331871565
30
0
11
-41.720107309399509
21
40.042064331871515
31
0
0
ARC
5
125
100
AcDbEntity
8
0
100
AcDbCircle
10
-45.919809679806392
20
40.092064331871526
30
0
40
4.200000000000145
210
-0
220
0
230
1
100
AcDbArc
50
-0.68210872568751646
51
180.68210872568753
0
LINE
5
126
100
AcDbEntity
8
0
100
AcDbLine
10
-50.119512050213274
20
40.042064331871508
30
0
11
-85.559324185997838
21
40.042064331871515
31
0
0
ARC
5
127
100
AcDbEntity
8
0
100
AcDbCircle
10
-90.002014423746388
20
40.105381533447719
30
0
40
4.4431414130771989
210
-0
220
0
230
1
100
AcDbArc
50
-0.816523914708155
51
180.81652391470817
0
LINE
5
128
100
AcDbEntity
8
0
100
AcDbLine
10
-94.444704661494939
20
40.042064331871508
30
0
11
-100.38388951293868
21
40.042064331871515
31
0
0
LINE
5
129
100
AcDbEntity
8
0
100
AcDbLine
10
-100.38388951293868
20
40.042064331871515
30
0
11
-100.38388951293868
21
40.603437307676522
31
0
0
ARC
5
130
100
AcDbEntity
8
0
100
AcDbCircle
10
-101.08388951293868
20
40.603437307676529
30
0
40
0.70000000000000284
210
-0
220
0
230
1
100
AcDbArc
50
0
51
90
0
LINE
5
131
100
AcDbEntity
8
0
100
AcDbLine
10
-101.08388951293868
20
41.303437307676532
30
0
11
-108.46987099525919
21
41.303437307676518
31
0
0
ARC
5
132
100
AcDbEntity
8
0
100
AcDbCircle
10
-108.46987099525919
20
40.603437307676529
30
0
40
0.69999999999998508
210
0
220
-0
230
1
100
AcDbArc
50
90
51
180
0
LINE
5
133
100
AcDbEntity
8
0
100
AcDbLine
10
-109.16987099525917
20
40.603437307676522
30
0
11
-109.1698709952592
21
40.042064331871515
31
0
0
LINE
5
134
100
AcDbEntity
8
0
100
AcDbLine
10
-109.1698709952592
20
40.042064331871515
30
0
11
-125.77680967980638
21
40.042064331871515
31
0
0
LINE
5
135
100
AcDbEntity
8
0
100
AcDbLine
10
-125.77680967980638
20
40.042064331871515
30
0
11
-125.77680967980638
21
4.4416281296014937
31
0
0
ARC
5
136
100
AcDbEntity
8
0
100
AcDbCircle
10
-125.83354699494689
20
-0.0014770534743746566
30
0
40
4.443467428799833
210
0
220
-0
230
1
100
AcDbArc
50
89.26838733664367
51
270.73161266335615
0
LINE
5
137
100
AcDbEntity
8
0
100
AcDbLine
10
-125.77680967980638
20
-4.444582236550243
30
0
11
-125.77680967980638
21
-40.057935668128493
31
0
0
LINE
5
138
100
AcDbEntity
8
0
100
AcDbLine
10
-125.77680967980638
20
-40.057935668128493
30
0
11
-104.11951205021317
21
-40.057935668128493
31
0
0
ARC
5
139
100
AcDbEntity
8
0
100
AcDbCircle
10
-99.919809679806392
20
-40.107935668128491
30
0
40
4.2000000000000384
210
0
220
0
230
1
100
AcDbArc
50
-180.68210872568753
51
0.68210872568751457
0
LINE
5
140
100
AcDbEntity
8
0
100
AcDbLine
10
-95.720107309399623
20
-40.057935668128479
30
0
11
-64.445561446275292
21
-40.057935668128493
31
0
0
ENDSEC
0
SECTION
2
OBJECTS
0
DICTIONARY
5
C
100
AcDbDictionary
3
ACAD_GROUP
350
D
3
ACAD_MLINESTYLE
350
17
0
DICTIONARY
5
D
100
AcDbDictionary
0
DICTIONARY
5
1A
330
C
100
AcDbDictionary
0
DICTIONARY
5
17
100
AcDbDictionary
0
ENDSEC
0
EOF
