0
SECTION
2
HEADER
9
$INSUNITS
70
4
9
$ACADVER
1
AC1014
9
$HANDSEED
5
FFFF
0
ENDSEC
0
SECTION
2
TABLES
0
TABLE
2
VPORT
5
8
100
AcDbSymbolTable
0
ENDTAB
0
TABLE
2
LTYPE
5
5
100
AcDbSymbolTable
0
LTYPE
5
14
100
AcDbSymbolTableRecord
100
AcDbLinetypeTableRecord
2
BYBLOCK
70
0
0
LTYPE
5
15
100
AcDbSymbolTableRecord
100
AcDbLinetypeTableRecord
2
BYLAYER
70
0
0
ENDTAB
0
TABLE
2
LAYER
5
2
100
AcDbSymbolTable
70
2
0
LAYER
5
50
100
AcDbSymbolTableRecord
100
AcDbLayerTableRecord
2
0
70
0
6
CONTINUOUS
0
ENDTAB
0
TABLE
2
STYLE
5
3
100
AcDbSymbolTable
70
1
0
STYLE
5
11
100
AcDbSymbolTableRecord
100
AcDbTextStyleTableRecord
2
STANDARD
70
0
0
ENDTAB
0
TABLE
2
VIEW
5
6
100
AcDbSymbolTable
70
0
0
ENDTAB
0
TABLE
2
UCS
5
7
100
AcDbSymbolTable
70
0
0
ENDTAB
0
TABLE
2
APPID
5
9
100
AcDbSymbolTable
70
2
0
APPID
5
12
100
AcDbSymbolTableRecord
100
AcDbRegAppTableRecord
2
ACAD
70
0
0
ENDTAB
0
TABLE
2
DIMSTYLE
5
A
100
AcDbSymbolTable
70
1
0
ENDTAB
0
TABLE
2
BLOCK_RECORD
5
1
100
AcDbSymbolTable
70
1
0
BLOCK_RECORD
5
1F
100
AcDbSymbolTableRecord
100
AcDbBlockTableRecord
2
*MODEL_SPACE
0
BLOCK_RECORD
5
1B
100
AcDbSymbolTableRecord
100
AcDbBlockTableRecord
2
*PAPER_SPACE
0
ENDTAB
0
ENDSEC
0
SECTION
2
BLOCKS
0
BLOCK
5
20
100
AcDbEntity
100
AcDbBlockBegin
2
*MODEL_SPACE
0
ENDBLK
5
21
100
AcDbEntity
100
AcDbBlockEnd
0
BLOCK
5
1C
100
AcDbEntity
100
AcDbBlockBegin
2
*PAPER_SPACE
0
ENDBLK
5
1D
100
AcDbEntity
100
AcDbBlockEnd
0
ENDSEC
0
SECTION
2
ENTITIES
0
CIRCLE
5
100
100
AcDbEntity
8
0
100
AcDbCircle
10
59.999999999999929
20
-42.099999999999994
30
2.7755575615628914e-16
40
0.99999999999999645
210
0
220
0
230
1
0
CIRCLE
5
101
100
AcDbEntity
8
0
100
AcDbCircle
10
-59.999999999999964
20
-42.100000000000009
30
-5.5511151231257827e-16
40
0.99999999999999645
210
0
220
0
230
1
0
CIRCLE
5
102
100
AcDbEntity
8
0
100
AcDbCircle
10
-3.5527136788005009e-14
20
42.099999999999994
30
0
40
0.99999999999999911
210
0
220
0
230
1
0
CIRCLE
5
103
100
AcDbEntity
8
0
100
AcDbCircle
10
89.999999999999858
20
42.100000000000009
30
5.5511151231257827e-16
40
0.99999999999999645
210
0
220
0
230
1
0
CIRCLE
5
104
100
AcDbEntity
8
0
100
AcDbCircle
10
-89.999999999999943
20
42.099999999999973
30
-5.5511151231257827e-16
40
0.99999999999999645
210
0
220
0
230
1
0
CIRCLE
5
105
100
AcDbEntity
8
0
100
AcDbCircle
10
127.82499999999985
20
1.7763568394002505e-14
30
8.3266726846886741e-16
40
0.99999999999999645
210
0
220
0
230
1
0
CIRCLE
5
106
100
AcDbEntity
8
0
100
AcDbCircle
10
-127.82499999999992
20
-1.7763568394002505e-14
30
-8.3266726846886741e-16
40
0.99999999999999645
210
0
220
0
230
1
0
LINE
5
107
100
AcDbEntity
8
0
100
AcDbLine
10
60.524999999999807
20
-21.075000000000035
30
-2.7755575615628914e-16
11
60.524999999999878
21
-34.075000000000045
31
-2.7755575615628914e-16
0
ARC
5
108
100
AcDbEntity
8
0
100
AcDbCircle
10
60.024999999999835
20
-34.075000000000003
30
-2.7755575615628914e-16
40
0.50000000000003375
210
-0
220
0
230
1
100
AcDbArc
50
270
51
360
0
LINE
5
109
100
AcDbEntity
8
0
100
AcDbLine
10
60.024999999999835
20
-34.575000000000045
30
-2.7755575615628914e-16
11
52.743749999999778
21
-34.575000000000031
31
-2.7755575615628914e-16
0
ARC
5
110
100
AcDbEntity
8
0
100
AcDbCircle
10
52.743749999999778
20
-35.07500000000006
30
-2.7755575615628914e-16
40
0.50000000000004263
210
0
220
-0
230
1
100
AcDbArc
50
90
51
180
0
ARC
5
111
100
AcDbEntity
8
0
100
AcDbCircle
10
51.743749999999977
20
-35.075000000000131
30
-2.7755575615628914e-16
40
0.49999999999998934
210
0
220
0
230
1
100
AcDbArc
50
-90.000000000004079
51
0
0
LINE
5
112
100
AcDbEntity
8
0
100
AcDbLine
10
51.743749999999906
20
-35.575000000000102
30
-2.7755575615628914e-16
11
-23.16875000000012
21
-35.575000000000053
31
-2.7755575615628914e-16
0
ARC
5
113
100
AcDbEntity
8
0
100
AcDbCircle
10
-23.168750000000102
20
-35.075000000000038
30
0
40
0.50000000000004263
210
0
220
0
230
1
100
AcDbArc
50
180
51
269.99999999999795
0
ARC
5
114
100
AcDbEntity
8
0
100
AcDbCircle
10
-24.168750000000117
20
-35.075000000000038
30
-2.7755575615628914e-16
40
0.49999999999997158
210
0
220
0
230
1
100
AcDbArc
50
0
51
90
0
LINE
5
115
100
AcDbEntity
8
0
100
AcDbLine
10
-24.168750000000117
20
-34.575000000000067
30
-2.7755575615628914e-16
11
-28.218750000000128
21
-34.575000000000045
31
-2.7755575615628914e-16
0
ARC
5
116
100
AcDbEntity
8
0
100
AcDbCircle
10
-28.218750000000128
20
-35.075000000000038
30
-2.7755575615628914e-16
40
0.49999999999998934
210
0
220
-0
230
1
100
AcDbArc
50
90
51
180
0
ARC
5
117
100
AcDbEntity
8
0
100
AcDbCircle
10
-29.218750000000142
20
-35.075000000000038
30
-2.7755575615628914e-16
40
0.50000000000000711
210
-0
220
0
230
1
100
AcDbArc
50
-90
51
0
0
LINE
5
118
100
AcDbEntity
8
0
100
AcDbLine
10
-29.218750000000142
20
-35.575000000000045
30
-2.7755575615628914e-16
11
-51.743750000000155
21
-35.574999999999989
31
-2.7755575615628914e-16
0
ARC
5
119
100
AcDbEntity
8
0
100
AcDbCircle
10
-51.743750000000063
20
-35.075000000000003
30
0
40
0.49999999999997158
210
0
220
0
230
1
100
AcDbArc
50
180
51
269.99999999999022
0
ARC
5
120
100
AcDbEntity
8
0
100
AcDbCircle
10
-52.743750000000077
20
-35.075000000000003
30
0
40
0.50000000000004263
210
0
220
0
230
1
100
AcDbArc
50
0
51
90
0
LINE
5
121
100
AcDbEntity
8
0
100
AcDbLine
10
-52.743750000000077
20
-34.57499999999996
30
0
11
-55.256250000000065
21
-34.574999999999974
31
0
0
ARC
5
122
100
AcDbEntity
8
0
100
AcDbCircle
10
-55.256250000000065
20
-34.074999999999989
30
0
40
0.49999999999997158
210
0
220
0
230
1
100
AcDbArc
50
180
51
270
0
LINE
5
123
100
AcDbEntity
8
0
100
AcDbLine
10
-55.756250000000037
20
-34.074999999999989
30
0
11
-55.75625000000008
21
-21.074999999999982
31
0
0
ARC
5
124
100
AcDbEntity
8
0
100
AcDbCircle
10
-55.256250000000065
20
-21.074999999999982
30
0
40
0.50000000000000711
210
0
220
-0
230
1
100
AcDbArc
50
90
51
180
0
LINE
5
125
100
AcDbEntity
8
0
100
AcDbLine
10
-55.256250000000065
20
-20.574999999999974
30
0
11
-44.781750000000102
21
-20.574999999999939
31
0
0
ARC
5
126
100
AcDbEntity
8
0
100
AcDbCircle
10
-44.781750000000109
20
-21.074999999999982
30
0
40
0.50000000000004263
210
0
220
0
230
1
100
AcDbArc
50
0
51
89.99999999999919
0
ARC
5
127
100
AcDbEntity
8
0
100
AcDbCircle
10
-43.781750000000059
20
-21.074999999999982
30
0
40
0.50000000000001599
210
0
220
0
230
1
100
AcDbArc
50
180
51
269.99999999999187
0
LINE
5
128
100
AcDbEntity
8
0
100
AcDbLine
10
-43.78175000000013
20
-21.574999999999989
30
0
11
-27.655750000000161
21
-21.574999999999996
31
0
0
ARC
5
129
100
AcDbEntity
8
0
100
AcDbCircle
10
-27.655750000000126
20
-21.074999999999999
30
-2.7755575615628914e-16
40
0.50000000000002487
210
0
220
0
230
1
100
AcDbArc
50
269.99999999999591
51
360
0
ARC
5
130
100
AcDbEntity
8
0
100
AcDbCircle
10
-26.655750000000111
20
-21.075000000000035
30
-2.7755575615628914e-16
40
0.50000000000000711
210
0
220
-0
230
1
100
AcDbArc
50
90
51
180
0
LINE
5
131
100
AcDbEntity
8
0
100
AcDbLine
10
-26.655750000000111
20
-20.575000000000028
30
-2.7755575615628914e-16
11
-20.905750000000047
21
-20.575000000000063
31
-2.7755575615628914e-16
0
ARC
5
132
100
AcDbEntity
8
0
100
AcDbCircle
10
-20.905750000000083
20
-21.075000000000035
30
0
40
0.49999999999997158
210
2.5614317767978239e-48
220
2.4074124304840448e-35
230
1
100
AcDbArc
50
0
51
89.999999999995936
0
ARC
5
133
100
AcDbEntity
8
0
100
AcDbCircle
10
-19.905750000000069
20
-21.075000000000088
30
0
40
0.50000000000004263
210
0
220
0
230
1
100
AcDbArc
50
180
51
270
0
LINE
5
134
100
AcDbEntity
8
0
100
AcDbLine
10
-19.905750000000069
20
-21.575000000000131
30
0
11
15.143249999999888
21
-21.575000000000042
31
0
0
ARC
5
135
100
AcDbEntity
8
0
100
AcDbCircle
10
15.143249999999924
20
-21.07500000000007
30
-2.7755575615628914e-16
40
0.49999999999995381
210
-0
220
0
230
1
100
AcDbArc
50
-90
51
0
0
ARC
5
136
100
AcDbEntity
8
0
100
AcDbCircle
10
16.143249999999867
20
-21.075000000000035
30
-2.7755575615628914e-16
40
0.50000000000000711
210
0
220
-0
230
1
100
AcDbArc
50
90
51
180
0
LINE
5
137
100
AcDbEntity
8
0
100
AcDbLine
10
16.143249999999867
20
-20.575000000000028
30
-2.7755575615628914e-16
11
21.893249999999895
21
-20.574999999999992
31
-2.7755575615628914e-16
0
ARC
5
138
100
AcDbEntity
8
0
100
AcDbCircle
10
21.893249999999895
20
-21.075000000000035
30
0
40
0.50000000000004263
210
0
220
0
230
1
100
AcDbArc
50
0
51
90
0
ARC
5
139
100
AcDbEntity
8
0
100
AcDbCircle
10
22.893249999999981
20
-21.07500000000007
30
0
40
0.50000000000004263
210
0
220
0
230
1
100
AcDbArc
50
180
51
269.99999999999187
0
LINE
5
140
100
AcDbEntity
8
0
100
AcDbLine
10
22.89324999999991
20
-21.575000000000113
30
0
11
39.019249999999808
21
-21.575000000000006
31
0
0
ARC
5
141
100
AcDbEntity
8
0
100
AcDbCircle
10
39.019249999999772
20
-21.07500000000007
30
0
40
0.49999999999993605
210
2.0646948299724937e-68
220
1.5407439555097887e-32
230
1
100
AcDbArc
50
-90
51
0
0
ARC
5
142
100
AcDbEntity
8
0
100
AcDbCircle
10
40.019249999999857
20
-21.075000000000035
30
0
40
0.49999999999998934
210
0
220
-0
230
1
100
AcDbArc
50
90
51
180
0
LINE
5
143
100
AcDbEntity
8
0
100
AcDbLine
10
40.019249999999857
20
-20.575000000000063
30
0
11
50.493749999999835
21
-20.575000000000063
31
0
0
ARC
5
144
100
AcDbEntity
8
0
100
AcDbCircle
10
50.493749999999835
20
-21.075000000000035
30
-2.7755575615628914e-16
40
0.49999999999997158
210
0
220
0
230
1
100
AcDbArc
50
0
51
90
0
ARC
5
145
100
AcDbEntity
8
0
100
AcDbCircle
10
51.493749999999849
20
-21.074999999999999
30
-2.7755575615628914e-16
40
0.50000000000004263
210
0
220
0
230
1
100
AcDbArc
50
180
51
269.99999999999187
0
LINE
5
146
100
AcDbEntity
8
0
100
AcDbLine
10
51.493749999999778
20
-21.575000000000042
30
-2.7755575615628914e-16
11
53.274999999999721
21
-21.575000000000397
31
-2.7755575615628914e-16
0
ARC
5
147
100
AcDbEntity
8
0
100
AcDbCircle
10
53.274999999999793
20
-21.07500000000039
30
-2.7755575615628914e-16
40
0.50000000000000711
210
0
220
0
230
1
100
AcDbArc
50
-90.000000000008143
51
0
0
ARC
5
148
100
AcDbEntity
8
0
100
AcDbCircle
10
54.274999999999807
20
-21.074999999999999
30
-2.7755575615628914e-16
40
0.4999999999999627
210
0
220
-0
230
1
100
AcDbArc
50
90
51
180
0
LINE
5
149
100
AcDbEntity
8
0
100
AcDbLine
10
54.274999999999807
20
-20.575000000000028
30
-2.7755575615628914e-16
11
60.024999999999835
21
-20.575000000000045
31
-2.7755575615628914e-16
0
ARC
5
150
100
AcDbEntity
8
0
100
AcDbCircle
10
60.024999999999835
20
-21.075000000000035
30
-2.7755575615628914e-16
40
0.49999999999997158
210
-0
220
2.4074124304840448e-35
230
1
100
AcDbArc
50
0
51
90.00000000000081
0
LINE
5
151
100
AcDbEntity
8
0
100
AcDbLine
10
121.29999999999988
20
35.074999999999989
30
0
11
121.29999999999993
21
22.074999999999989
31
0
0
ARC
5
152
100
AcDbEntity
8
0
100
AcDbCircle
10
120.79999999999977
20
22.075000000000031
30
0
40
0.50000000000005151
210
-0
220
0
230
1
100
AcDbArc
50
270.00000000000813
51
360
0
LINE
5
153
100
AcDbEntity
8
0
100
AcDbLine
10
120.79999999999984
20
21.574999999999982
30
0
11
120.71299999999987
21
21.574999999999985
31
0
0
ARC
5
154
100
AcDbEntity
8
0
100
AcDbCircle
10
120.71299999999994
20
21.074999999999939
30
0
40
0.50000000000005151
210
0
220
0
230
1
100
AcDbArc
50
90.000000000008143
51
180
0
LINE
5
155
100
AcDbEntity
8
0
100
AcDbLine
10
120.21299999999989
20
21.074999999999982
30
0
11
120.21299999999989
21
20.074999999999982
31
0
0
ARC
5
156
100
AcDbEntity
8
0
100
AcDbCircle
10
119.71299999999978
20
20.075000000000031
30
0
40
0.50000000000005151
210
-0
220
0
230
1
100
AcDbArc
50
270.00000000000813
51
360
0
LINE
5
157
100
AcDbEntity
8
0
100
AcDbLine
10
119.71299999999985
20
19.574999999999978
30
0
11
113.71299999999984
21
19.574999999999982
31
0
0
ARC
5
158
100
AcDbEntity
8
0
100
AcDbCircle
10
113.71299999999984
20
20.074999999999967
30
0
40
0.50000000000000711
210
0
220
0
230
1
100
AcDbArc
50
180
51
270.00000000000159
0
LINE
5
159
100
AcDbEntity
8
0
100
AcDbLine
10
113.21299999999987
20
20.074999999999985
30
0
11
113.21299999999991
21
21.074999999999985
31
0
0
ARC
5
160
100
AcDbEntity
8
0
100
AcDbCircle
10
112.71299999999982
20
21.074999999999939
30
-2.7755575615628914e-16
40
0.50000000000004263
210
-8.2041705323350677e-61
220
1.0263416486753156e-47
230
1
100
AcDbArc
50
0
51
89.999999999991857
0
LINE
5
161
100
AcDbEntity
8
0
100
AcDbLine
10
112.71299999999989
20
21.574999999999982
30
-2.7755575615628914e-16
11
96.836999999999875
21
21.574999999999989
31
-2.7755575615628914e-16
0
ARC
5
162
100
AcDbEntity
8
0
100
AcDbCircle
10
96.836999999999946
20
21.074999999999953
30
-2.7755575615628914e-16
40
0.50000000000004263
210
0
220
0
230
1
100
AcDbArc
50
90.000000000008143
51
180
0
LINE
5
163
100
AcDbEntity
8
0
100
AcDbLine
10
96.336999999999904
20
21.074999999999999
30
0
11
96.336999999999904
21
20.074999999999999
31
-1.2518544638517033e-32
0
ARC
5
164
100
AcDbEntity
8
0
100
AcDbCircle
10
95.83699999999979
20
20.075000000000045
30
0
40
0.50000000000005151
210
-0
220
0
230
1
100
AcDbArc
50
270.00000000000813
51
360
0
LINE
5
165
100
AcDbEntity
8
0
100
AcDbLine
10
95.836999999999861
20
19.574999999999996
30
0
11
89.836999999999875
21
19.574999999999999
31
0
0
ARC
5
166
100
AcDbEntity
8
0
100
AcDbCircle
10
89.836999999999918
20
20.074999999999985
30
0
40
0.50000000000000711
210
0
220
0
230
1
100
AcDbArc
50
180
51
269.99999999999511
0
LINE
5
167
100
AcDbEntity
8
0
100
AcDbLine
10
89.336999999999946
20
20.074999999999996
30
0
11
89.336999999999904
21
21.074999999999996
31
0
0
ARC
5
168
100
AcDbEntity
8
0
100
AcDbCircle
10
88.836999999999833
20
21.074999999999939
30
0
40
0.50000000000004263
210
7.7037197775489434e-34
220
8.5528470722942968e-47
230
1
100
AcDbArc
50
0
51
89.999999999991857
0
LINE
5
169
100
AcDbEntity
8
0
100
AcDbLine
10
88.836999999999904
20
21.574999999999982
30
0
11
88.749999999999886
21
21.574999999999989
31
0
0
ARC
5
170
100
AcDbEntity
8
0
100
AcDbCircle
10
88.749999999999858
20
22.074999999999989
30
0
40
0.50000000000000711
210
0
220
0
230
1
100
AcDbArc
50
180
51
270.00000000000648
0
LINE
5
171
100
AcDbEntity
8
0
100
AcDbLine
10
88.249999999999886
20
22.074999999999996
30
0
11
88.249999999999915
21
35.074999999999996
31
0
0
ARC
5
172
100
AcDbEntity
8
0
100
AcDbCircle
10
88.749999999999929
20
35.074999999999939
30
0
40
0.50000000000004707
210
0
220
0
230
1
100
AcDbArc
50
90.000000000004889
51
180
0
LINE
5
173
100
AcDbEntity
8
0
100
AcDbLine
10
88.749999999999858
20
35.574999999999982
30
0
11
120.79999999999984
21
35.574999999999989
31
0
0
ARC
5
174
100
AcDbEntity
8
0
100
AcDbCircle
10
120.79999999999984
20
35.074999999999996
30
0
40
0.50000000000000711
210
-0
220
0
230
1
100
AcDbArc
50
0
51
90
0
ARC
5
175
100
AcDbEntity
8
0
100
AcDbCircle
10
-74.462499999999977
20
-16.024999999999991
30
-2.7755575615628914e-16
40
0.49999999999999822
210
-0
220
0
230
1
100
AcDbArc
50
-90
51
0
0
LINE
5
176
100
AcDbEntity
8
0
100
AcDbLine
10
-73.962499999999963
20
-3.0249999999999844
30
-2.7755575615628914e-16
11
-73.962499999999963
21
-16.024999999999991
31
-2.7755575615628914e-16
0
ARC
5
177
100
AcDbEntity
8
0
100
AcDbCircle
10
-74.462499999999977
20
-3.0249999999999844
30
-2.7755575615628914e-16
40
0.49999999999999822
210
0
220
0
230
1
100
AcDbArc
50
0
51
90
0
LINE
5
178
100
AcDbEntity
8
0
100
AcDbLine
10
-87.462499999999963
20
-2.524999999999995
30
0
11
-74.462499999999977
21
-2.5250000000000039
31
0
0
ARC
5
179
100
AcDbEntity
8
0
100
AcDbCircle
10
-87.462499999999977
20
-3.0249999999999844
30
0
40
0.49999999999999822
210
2.1382117680737641e-49
220
2.4074124304840448e-35
230
1
100
AcDbArc
50
90
51
180
0
LINE
5
180
100
AcDbEntity
8
0
100
AcDbLine
10
-87.962499999999977
20
-16.024999999999991
30
0
11
-87.962499999999977
21
-3.0249999999999844
31
0
0
ARC
5
181
100
AcDbEntity
8
0
100
AcDbCircle
10
-87.462499999999977
20
-16.024999999999991
30
0
40
0.49999999999998934
210
0
220
0
230
1
100
AcDbArc
50
180
51
270
0
LINE
5
182
100
AcDbEntity
8
0
100
AcDbLine
10
-74.462499999999977
20
-16.524999999999999
30
-2.7755575615628914e-16
11
-87.462499999999963
21
-16.525000000000006
31
-2.7755575615628914e-16
0
LINE
5
183
100
AcDbEntity
8
0
100
AcDbLine
10
114.15624999999991
20
16.024999999999974
30
0
11
114.15624999999989
21
3.0249999999999755
31
0
0
ARC
5
184
100
AcDbEntity
8
0
100
AcDbCircle
10
113.65624999999987
20
3.0250000000000377
30
0
40
0.50000000000004707
210
-0
220
0
230
1
100
AcDbArc
50
270.00000000000489
51
360
0
LINE
5
185
100
AcDbEntity
8
0
100
AcDbLine
10
113.65624999999987
20
2.524999999999995
30
0
11
100.65624999999986
21
2.5249999999999861
31
0
0
ARC
5
186
100
AcDbEntity
8
0
100
AcDbCircle
10
100.6562499999999
20
3.0249999999999488
30
-2.7755575615628914e-16
40
0.50000000000000711
210
0
220
0
230
1
100
AcDbArc
50
180
51
269.99999999999835
0
LINE
5
187
100
AcDbEntity
8
0
100
AcDbLine
10
100.15624999999993
20
3.0249999999999666
30
-2.7755575615628914e-16
11
100.15624999999993
21
16.024999999999974
31
-2.7755575615628914e-16
0
ARC
5
188
100
AcDbEntity
8
0
100
AcDbCircle
10
100.65624999999997
20
16.02499999999992
30
-2.7755575615628914e-16
40
0.50000000000004707
210
0
220
0
230
1
100
AcDbArc
50
90.000000000003254
51
180
0
LINE
5
189
100
AcDbEntity
8
0
100
AcDbLine
10
100.6562499999999
20
16.52499999999997
30
-2.7755575615628914e-16
11
113.65624999999991
21
16.52499999999997
31
-2.7755575615628914e-16
0
ARC
5
190
100
AcDbEntity
8
0
100
AcDbCircle
10
113.65624999999987
20
16.024999999999991
30
0
40
0.50000000000000711
210
-0
220
0
230
1
100
AcDbArc
50
0
51
89.999999999995111
0
LINE
5
191
100
AcDbEntity
8
0
100
AcDbLine
10
21.287499999999966
20
-3.0250000000000021
30
-2.7755575615628914e-16
11
21.287499999999966
21
-16.025000000000009
31
-2.7755575615628914e-16
0
ARC
5
192
100
AcDbEntity
8
0
100
AcDbCircle
10
20.787499999999994
20
-16.025000000000045
30
-2.7755575615628914e-16
40
0.49999999999997158
210
8.5528470722955122e-49
220
0
230
1
100
AcDbArc
50
-90
51
0
0
LINE
5
193
100
AcDbEntity
8
0
100
AcDbLine
10
20.787499999999994
20
-16.525000000000016
30
-2.7755575615628914e-16
11
7.7875000000000227
21
-16.525000000000006
31
-2.7755575615628914e-16
0
ARC
5
194
100
AcDbEntity
8
0
100
AcDbCircle
10
7.7875000000000227
20
-16.025000000000045
30
-2.7755575615628914e-16
40
0.50000000000000711
210
0
220
0
230
1
100
AcDbArc
50
180
51
270.00000000000102
0
LINE
5
195
100
AcDbEntity
8
0
100
AcDbLine
10
7.2874999999999801
20
-16.025000000000027
30
-2.7755575615628914e-16
11
7.2874999999999979
21
-3.0250000000000199
31
-2.7755575615628914e-16
0
ARC
5
196
100
AcDbEntity
8
0
100
AcDbCircle
10
7.7874999999999872
20
-3.0250000000000021
30
-2.7755575615628914e-16
40
0.49999999999997158
210
8.5528470722955122e-49
220
-0
230
1
100
AcDbArc
50
90
51
180
0
LINE
5
197
100
AcDbEntity
8
0
100
AcDbLine
10
7.7875000000000227
20
-2.5250000000000306
30
-2.7755575615628914e-16
11
20.787499999999994
21
-2.5250000000000217
31
-2.7755575615628914e-16
0
ARC
5
198
100
AcDbEntity
8
0
100
AcDbCircle
10
20.787499999999994
20
-3.0250000000000021
30
-2.7755575615628914e-16
40
0.50000000000000711
210
0
220
-0
230
1
100
AcDbArc
50
0
51
90.00000000000081
0
ARC
5
199
100
AcDbEntity
8
0
100
AcDbCircle
10
-88.749999999999929
20
35.074999999999989
30
0
40
0.50000000000000711
210
8.110612583211907e-50
220
2.4074124304840448e-35
230
1
100
AcDbArc
50
0
51
90
0
LINE
5
200
100
AcDbEntity
8
0
100
AcDbLine
10
-101.74999999999994
20
35.574999999999982
30
0
11
-88.749999999999943
21
35.574999999999982
31
0
0
ARC
5
201
100
AcDbEntity
8
0
100
AcDbCircle
10
-101.74999999999994
20
35.074999999999989
30
0
40
0.49999999999999822
210
0
220
-0
230
1
100
AcDbArc
50
90
51
180
0
LINE
5
202
100
AcDbEntity
8
0
100
AcDbLine
10
-102.24999999999993
20
22.074999999999978
30
0
11
-102.24999999999993
21
35.074999999999974
31
-2.5037089277034066e-32
0
ARC
5
203
100
AcDbEntity
8
0
100
AcDbCircle
10
-101.74999999999994
20
22.074999999999978
30
0
40
0.50000000000000711
210
1.0248824351285626e-49
220
2.4074124304840448e-35
230
1
100
AcDbArc
50
180
51
270
0
LINE
5
204
100
AcDbEntity
8
0
100
AcDbLine
10
-88.749999999999929
20
21.574999999999989
30
0
11
-101.74999999999991
21
21.574999999999989
31
0
0
ARC
5
205
100
AcDbEntity
8
0
100
AcDbCircle
10
-88.749999999999929
20
22.074999999999989
30
0
40
0.49999999999999822
210
-0
220
0
230
1
100
AcDbArc
50
-90
51
0
0
LINE
5
206
100
AcDbEntity
8
0
100
AcDbLine
10
-88.249999999999943
20
35.074999999999989
30
0
11
-88.249999999999915
21
22.074999999999989
31
0
0
LINE
5
207
100
AcDbEntity
8
0
100
AcDbLine
10
96.987499999999898
20
-16.525000000000034
30
-2.7755575615628914e-16
11
83.987499999999855
21
-16.524999999999991
31
-2.7755575615628914e-16
0
ARC
5
208
100
AcDbEntity
8
0
100
AcDbCircle
10
83.987499999999855
20
-16.025000000000045
30
0
40
0.49999999999993605
210
8.5086236233878225e-49
220
2.4074124304840448e-35
230
1
100
AcDbArc
50
180
51
270.00000000000489
0
LINE
5
209
100
AcDbEntity
8
0
100
AcDbLine
10
83.487499999999883
20
-16.025000000000027
30
0
11
83.487499999999883
21
-3.0250000000000199
31
0
0
ARC
5
210
100
AcDbEntity
8
0
100
AcDbCircle
10
83.987499999999926
20
-3.0250000000000732
30
0
40
0.50000000000005151
210
0
220
0
230
1
100
AcDbArc
50
90.000000000008143
51
180
0
LINE
5
211
100
AcDbEntity
8
0
100
AcDbLine
10
83.987499999999855
20
-2.5250000000000128
30
0
11
96.987499999999898
21
-2.5250000000000217
31
1.5407439555097887e-32
0
ARC
5
212
100
AcDbEntity
8
0
100
AcDbCircle
10
96.987499999999969
20
-3.0250000000000021
30
-2.7755575615628914e-16
40
0.49999999999997158
210
8.5528470722955122e-49
220
2.4074124304840448e-35
230
1
100
AcDbArc
50
0
51
90.000000000004889
0
LINE
5
213
100
AcDbEntity
8
0
100
AcDbLine
10
97.48749999999994
20
-3.0250000000000199
30
-2.7755575615628914e-16
11
97.487499999999898
21
-16.025000000000027
31
-2.7755575615628914e-16
0
ARC
5
214
100
AcDbEntity
8
0
100
AcDbCircle
10
96.987499999999827
20
-16.024999999999974
30
-2.7755575615628914e-16
40
0.50000000000005151
210
-0
220
0
230
1
100
AcDbArc
50
270.00000000000813
51
360
0
LINE
5
215
100
AcDbEntity
8
0
100
AcDbLine
10
-30.3125
20
-2.5250000000000306
30
-2.7755575615628914e-16
11
-17.312500000000011
21
-2.5250000000000217
31
-2.7755575615628914e-16
0
ARC
5
216
100
AcDbEntity
8
0
100
AcDbCircle
10
-17.312500000000028
20
-3.0250000000000021
30
0
40
0.50000000000000711
210
0
220
-0
230
1
100
AcDbArc
50
0
51
89.99999999999919
0
LINE
5
217
100
AcDbEntity
8
0
100
AcDbLine
10
-16.812499999999986
20
-3.0250000000000199
30
0
11
-16.81249999999995
21
-16.025000000000027
31
0
0
ARC
5
218
100
AcDbEntity
8
0
100
AcDbCircle
10
-17.312499999999993
20
-16.025000000000045
30
0
40
0.49999999999997158
210
8.5528470722955122e-49
220
2.4074124304840448e-35
230
1
100
AcDbArc
50
-90
51
0
0
LINE
5
219
100
AcDbEntity
8
0
100
AcDbLine
10
-17.312500000000028
20
-16.525000000000016
30
0
11
-30.312500000000018
21
-16.525000000000027
31
0
0
ARC
5
220
100
AcDbEntity
8
0
100
AcDbCircle
10
-30.3125
20
-16.025000000000045
30
-2.7755575615628914e-16
40
0.50000000000000711
210
0
220
0
230
1
100
AcDbArc
50
180
51
269.9999999999992
0
LINE
5
221
100
AcDbEntity
8
0
100
AcDbLine
10
-30.812499999999972
20
-16.025000000000027
30
-2.7755575615628914e-16
11
-30.812499999999954
21
-3.0250000000000199
31
-2.7755575615628914e-16
0
ARC
5
222
100
AcDbEntity
8
0
100
AcDbCircle
10
-30.3125
20
-3.0250000000000021
30
-2.7755575615628914e-16
40
0.49999999999997158
210
8.5528470722955122e-49
220
-0
230
1
100
AcDbArc
50
90
51
180
0
LINE
5
223
100
AcDbEntity
8
0
100
AcDbLine
10
-105.41874999999993
20
-35.57500000000001
30
0
11
-118.41874999999993
21
-35.575000000000003
31
0
0
ARC
5
224
100
AcDbEntity
8
0
100
AcDbCircle
10
-118.41874999999993
20
-35.075000000000017
30
-2.7755575615628914e-16
40
0.49999999999998934
210
0
220
0
230
1
100
AcDbArc
50
180
51
270
0
LINE
5
225
100
AcDbEntity
8
0
100
AcDbLine
10
-118.91874999999992
20
-35.075000000000017
30
-2.7755575615628914e-16
11
-118.91874999999992
21
-22.075000000000014
31
-2.7755575615628914e-16
0
ARC
5
226
100
AcDbEntity
8
0
100
AcDbCircle
10
-118.4187499999999
20
-22.075000000000014
30
-2.7755575615628914e-16
40
0.49999999999999822
210
2.1382117680737641e-49
220
-0
230
1
100
AcDbArc
50
90
51
180
0
LINE
5
227
100
AcDbEntity
8
0
100
AcDbLine
10
-118.4187499999999
20
-21.575000000000024
30
-2.7755575615628914e-16
11
-105.41874999999992
21
-21.575000000000031
31
-2.7755575615628914e-16
0
ARC
5
228
100
AcDbEntity
8
0
100
AcDbCircle
10
-105.41874999999993
20
-22.075000000000014
30
0
40
0.50000000000000711
210
0
220
0
230
1
100
AcDbArc
50
0
51
90
0
LINE
5
229
100
AcDbEntity
8
0
100
AcDbLine
10
-104.91874999999995
20
-22.075000000000014
30
0
11
-104.91874999999996
21
-35.07500000000001
31
0
0
ARC
5
230
100
AcDbEntity
8
0
100
AcDbCircle
10
-105.41874999999993
20
-35.075000000000017
30
0
40
0.49999999999999822
210
2.1382117680737641e-49
220
2.4074124304840448e-35
230
1
100
AcDbArc
50
-90
51
0
0
LINE
5
231
100
AcDbEntity
8
0
100
AcDbLine
10
-62.056249999999991
20
-22.074999999999996
30
0
11
-62.056250000000006
21
-35.074999999999996
31
0
0
ARC
5
232
100
AcDbEntity
8
0
100
AcDbCircle
10
-62.556249999999984
20
-35.075000000000003
30
0
40
0.49999999999999822
210
-0
220
0
230
1
100
AcDbArc
50
270
51
360
0
LINE
5
233
100
AcDbEntity
8
0
100
AcDbLine
10
-62.556249999999984
20
-35.574999999999989
30
0
11
-77.937499999999972
21
-35.574999999999982
31
0
0
ARC
5
234
100
AcDbEntity
8
0
100
AcDbCircle
10
-77.937499999999972
20
-35.075000000000003
30
-2.7755575615628914e-16
40
0.49999999999999822
210
0
220
0
230
1
100
AcDbArc
50
180
51
270
0
LINE
5
235
100
AcDbEntity
8
0
100
AcDbLine
10
-78.437499999999986
20
-35.075000000000003
30
-2.7755575615628914e-16
11
-78.437499999999986
21
-22.075000000000014
31
-2.7755575615628914e-16
0
ARC
5
236
100
AcDbEntity
8
0
100
AcDbCircle
10
-77.937499999999972
20
-22.074999999999996
30
-2.7755575615628914e-16
40
0.49999999999999822
210
0
220
-0
230
1
100
AcDbArc
50
90
51
180
0
LINE
5
237
100
AcDbEntity
8
0
100
AcDbLine
10
-77.937499999999972
20
-21.575000000000006
30
-2.7755575615628914e-16
11
-62.556249999999991
21
-21.574999999999996
31
-2.7755575615628914e-16
0
ARC
5
238
100
AcDbEntity
8
0
100
AcDbCircle
10
-62.556249999999984
20
-22.074999999999996
30
0
40
0.49999999999999822
210
0
220
0
230
1
100
AcDbArc
50
0
51
90.00000000000081
0
LINE
5
239
100
AcDbEntity
8
0
100
AcDbLine
10
-104.91874999999992
20
16.024999999999974
30
0
11
-104.91874999999993
21
3.0249999999999755
31
0
0
ARC
5
240
100
AcDbEntity
8
0
100
AcDbCircle
10
-105.41874999999993
20
3.0249999999999844
30
0
40
0.49999999999999822
210
1.0691058840368821e-49
220
2.4074124304840448e-35
230
1
100
AcDbArc
50
270
51
360
0
LINE
5
241
100
AcDbEntity
8
0
100
AcDbLine
10
-105.41874999999993
20
2.524999999999995
30
0
11
-118.41874999999993
21
2.5249999999999861
31
0
0
ARC
5
242
100
AcDbEntity
8
0
100
AcDbCircle
10
-118.4187499999999
20
3.0249999999999666
30
-2.7755575615628914e-16
40
0.50000000000000711
210
0
220
0
230
1
100
AcDbArc
50
180
51
270
0
LINE
5
243
100
AcDbEntity
8
0
100
AcDbLine
10
-118.91874999999992
20
3.0249999999999666
30
-2.7755575615628914e-16
11
-118.91874999999992
21
16.024999999999984
31
-2.7755575615628914e-16
0
ARC
5
244
100
AcDbEntity
8
0
100
AcDbCircle
10
-118.41874999999993
20
16.024999999999999
30
-2.7755575615628914e-16
40
0.49999999999999378
210
1.0691058840368916e-49
220
-0
230
1
100
AcDbArc
50
90
51
180
0
LINE
5
245
100
AcDbEntity
8
0
100
AcDbLine
10
-118.41874999999993
20
16.524999999999991
30
-2.7755575615628914e-16
11
-105.41874999999993
21
16.524999999999991
31
-2.7755575615628914e-16
0
ARC
5
246
100
AcDbEntity
8
0
100
AcDbCircle
10
-105.4187499999999
20
16.024999999999974
30
0
40
0.50000000000000711
210
0
220
0
230
1
100
AcDbArc
50
0
51
90.000000000001634
0
ARC
5
247
100
AcDbEntity
8
0
100
AcDbCircle
10
-120.79999999999991
20
22.074999999999996
30
-2.7755575615628914e-16
40
0.50000000000000711
210
0
220
0
230
1
100
AcDbArc
50
180
51
270.00000000000159
0
LINE
5
248
100
AcDbEntity
8
0
100
AcDbLine
10
-107.7999999999999
20
21.574999999999982
30
0
11
-120.7999999999999
21
21.574999999999982
31
0
0
ARC
5
249
100
AcDbEntity
8
0
100
AcDbCircle
10
-107.7999999999999
20
22.074999999999978
30
0
40
0.50000000000000266
210
7.7037197775489434e-34
220
3.5626538654245623e-48
230
1
100
AcDbArc
50
270
51
360
0
LINE
5
250
100
AcDbEntity
8
0
100
AcDbLine
10
-107.29999999999991
20
35.074999999999974
30
0
11
-107.29999999999993
21
22.074999999999978
31
0
0
ARC
5
251
100
AcDbEntity
8
0
100
AcDbCircle
10
-107.7999999999999
20
35.074999999999974
30
0
40
0.50000000000000711
210
0
220
0
230
1
100
AcDbArc
50
0
51
90
0
LINE
5
252
100
AcDbEntity
8
0
100
AcDbLine
10
-120.79999999999991
20
35.574999999999982
30
-2.7755575615628914e-16
11
-107.7999999999999
21
35.574999999999982
31
-2.7755575615628914e-16
0
ARC
5
253
100
AcDbEntity
8
0
100
AcDbCircle
10
-120.79999999999991
20
35.074999999999989
30
-2.7755575615628914e-16
40
0.49999999999999822
210
7.7037197775489434e-34
220
-0
230
1
100
AcDbArc
50
90
51
180
0
LINE
5
254
100
AcDbEntity
8
0
100
AcDbLine
10
-121.29999999999993
20
22.074999999999996
30
-2.7755575615628914e-16
11
-121.29999999999993
21
35.074999999999996
31
-2.7755575615628914e-16
0
LINE
5
255
100
AcDbEntity
8
0
100
AcDbLine
10
-35.862499999999997
20
-3.0249999999999844
30
-2.7755575615628914e-16
11
-35.862500000000033
21
-16.024999999999991
31
-2.7755575615628914e-16
0
ARC
5
256
100
AcDbEntity
8
0
100
AcDbCircle
10
-36.362499999999983
20
-16.025000000000027
30
-2.7755575615628914e-16
40
0.49999999999997158
210
0
220
0
230
1
100
AcDbArc
50
-90.000000000002444
51
0
0
LINE
5
257
100
AcDbEntity
8
0
100
AcDbLine
10
-36.362500000000004
20
-16.524999999999999
30
-2.7755575615628914e-16
11
-49.362499999999997
21
-16.525000000000006
31
-2.7755575615628914e-16
0
ARC
5
258
100
AcDbEntity
8
0
100
AcDbCircle
10
-49.362499999999997
20
-16.024999999999991
30
0
40
0.49999999999999822
210
0
220
0
230
1
100
AcDbArc
50
180
51
270.00000000000159
0
LINE
5
259
100
AcDbEntity
8
0
100
AcDbLine
10
-49.862499999999997
20
-16.024999999999991
30
0
11
-49.862499999999997
21
-3.0249999999999844
31
0
0
ARC
5
260
100
AcDbEntity
8
0
100
AcDbCircle
10
-49.362499999999997
20
-3.0249999999999844
30
0
40
0.49999999999999822
210
0
220
-0
230
1
100
AcDbArc
50
90
51
180
0
LINE
5
261
100
AcDbEntity
8
0
100
AcDbLine
10
-49.362499999999997
20
-2.524999999999995
30
0
11
-36.362499999999997
21
-2.5250000000000039
31
0
0
ARC
5
262
100
AcDbEntity
8
0
100
AcDbCircle
10
-36.362500000000004
20
-3.0249999999999844
30
-2.7755575615628914e-16
40
0.50000000000000711
210
0
220
-0
230
1
100
AcDbArc
50
0
51
90.00000000000081
0
ARC
5
263
100
AcDbEntity
8
0
100
AcDbCircle
10
-7.7875000000000227
20
16.024999999999984
30
0
40
0.50000000000000711
210
0
220
-0
230
1
100
AcDbArc
50
0
51
90.000000000000512
0
LINE
5
264
100
AcDbEntity
8
0
100
AcDbLine
10
-20.787499999999994
20
16.524999999999991
30
0
11
-7.7875000000000227
21
16.524999999999991
31
0
0
ARC
5
265
100
AcDbEntity
8
0
100
AcDbCircle
10
-20.787499999999994
20
16.025000000000009
30
0
40
0.49999999999998046
210
8.5528470722953603e-49
220
2.4074124304840448e-35
230
1
100
AcDbArc
50
90
51
180
0
LINE
5
266
100
AcDbEntity
8
0
100
AcDbLine
10
-21.287499999999966
20
3.0249999999999844
30
0
11
-21.287499999999966
21
16.024999999999984
31
0
0
ARC
5
267
100
AcDbEntity
8
0
100
AcDbCircle
10
-20.787499999999994
20
3.0249999999999844
30
0
40
0.50000000000000711
210
0
220
0
230
1
100
AcDbArc
50
180
51
269.9999999999996
0
LINE
5
268
100
AcDbEntity
8
0
100
AcDbLine
10
-7.7875000000000227
20
2.524999999999995
30
0
11
-20.787499999999994
21
2.5249999999999861
31
0
0
ARC
5
269
100
AcDbEntity
8
0
100
AcDbCircle
10
-7.7874999999999872
20
3.0249999999999666
30
0
40
0.49999999999998046
210
8.5528470722953603e-49
220
2.4074124304840448e-35
230
1
100
AcDbArc
50
-90
51
0
0
LINE
5
270
100
AcDbEntity
8
0
100
AcDbLine
10
-7.2874999999999801
20
16.024999999999991
30
0
11
-7.2875000000000156
21
3.0249999999999932
31
0
0
ARC
5
271
100
AcDbEntity
8
0
100
AcDbCircle
10
-77.937499999999972
20
3.0249999999999844
30
-2.7755575615628914e-16
40
0.50000000000000711
210
0
220
0
230
1
100
AcDbArc
50
180
51
269.99999999999835
0
LINE
5
272
100
AcDbEntity
8
0
100
AcDbLine
10
-64.9375
20
2.524999999999995
30
0
11
-77.9375
21
2.5249999999999861
31
0
0
ARC
5
273
100
AcDbEntity
8
0
100
AcDbCircle
10
-64.9375
20
3.0249999999999844
30
0
40
0.49999999999999822
210
-0
220
0
230
1
100
AcDbArc
50
-90
51
0
0
LINE
5
274
100
AcDbEntity
8
0
100
AcDbLine
10
-64.437499999999957
20
16.024999999999991
30
0
11
-64.437499999999972
21
3.0249999999999932
31
0
0
ARC
5
275
100
AcDbEntity
8
0
100
AcDbCircle
10
-64.937499999999943
20
16.024999999999991
30
0
40
0.49999999999999822
210
0
220
0
230
1
100
AcDbArc
50
0
51
90
0
LINE
5
276
100
AcDbEntity
8
0
100
AcDbLine
10
-77.937499999999957
20
16.524999999999991
30
-2.7755575615628914e-16
11
-64.937499999999957
21
16.524999999999991
31
-2.7755575615628914e-16
0
ARC
5
277
100
AcDbEntity
8
0
100
AcDbCircle
10
-77.937499999999957
20
16.024999999999991
30
-2.7755575615628914e-16
40
0.49999999999999822
210
0
220
-0
230
1
100
AcDbArc
50
90
51
180
0
LINE
5
278
100
AcDbEntity
8
0
100
AcDbLine
10
-78.437499999999986
20
3.0249999999999844
30
-2.7755575615628914e-16
11
-78.437499999999957
21
16.024999999999984
31
-2.7755575615628914e-16
0
LINE
5
279
100
AcDbEntity
8
0
100
AcDbLine
10
-83.987499999999955
20
2.524999999999995
30
0
11
-96.987499999999955
21
2.5249999999999861
31
0
0
ARC
5
280
100
AcDbEntity
8
0
100
AcDbCircle
10
-96.987499999999955
20
3.0249999999999844
30
0
40
0.49999999999998934
210
0
220
0
230
1
100
AcDbArc
50
180
51
270
0
LINE
5
281
100
AcDbEntity
8
0
100
AcDbLine
10
-97.487499999999955
20
3.0249999999999844
30
0
11
-97.487499999999983
21
16.024999999999984
31
0
0
ARC
5
282
100
AcDbEntity
8
0
100
AcDbCircle
10
-96.987499999999912
20
16.024999999999974
30
0
40
0.49999999999999822
210
0
220
-0
230
1
100
AcDbArc
50
90
51
180
0
LINE
5
283
100
AcDbEntity
8
0
100
AcDbLine
10
-96.987499999999912
20
16.524999999999981
30
0
11
-83.987499999999926
21
16.524999999999984
31
0
0
ARC
5
284
100
AcDbEntity
8
0
100
AcDbCircle
10
-83.98749999999994
20
16.024999999999974
30
0
40
0.50000000000000711
210
0
220
-0
230
1
100
AcDbArc
50
0
51
89.99999999999838
0
LINE
5
285
100
AcDbEntity
8
0
100
AcDbLine
10
-83.48749999999994
20
16.024999999999984
30
0
11
-83.487499999999955
21
3.0249999999999932
31
0
0
ARC
5
286
100
AcDbEntity
8
0
100
AcDbCircle
10
-83.987499999999955
20
3.0249999999999844
30
0
40
0.49999999999999822
210
-0
220
0
230
1
100
AcDbArc
50
-90
51
0
0
ARC
5
287
100
AcDbEntity
8
0
100
AcDbCircle
10
69.699999999999918
20
22.074999999999978
30
0
40
0.50000000000000711
210
0
220
0
230
1
100
AcDbArc
50
180
51
269.99999999999511
0
LINE
5
288
100
AcDbEntity
8
0
100
AcDbLine
10
82.699999999999889
20
21.574999999999982
30
0
11
69.699999999999875
21
21.574999999999982
31
0
0
ARC
5
289
100
AcDbEntity
8
0
100
AcDbCircle
10
82.699999999999818
20
22.075000000000038
30
0
40
0.50000000000005151
210
-0
220
0
230
1
100
AcDbArc
50
270.00000000000813
51
360
0
LINE
5
290
100
AcDbEntity
8
0
100
AcDbLine
10
83.199999999999932
20
35.074999999999989
30
0
11
83.199999999999903
21
22.074999999999989
31
0
0
ARC
5
291
100
AcDbEntity
8
0
100
AcDbCircle
10
82.699999999999889
20
35.074999999999996
30
0
40
0.50000000000000711
210
-0
220
0
230
1
100
AcDbArc
50
0
51
89.999999999995111
0
LINE
5
292
100
AcDbEntity
8
0
100
AcDbLine
10
69.699999999999918
20
35.574999999999982
30
0
11
82.699999999999932
21
35.574999999999982
31
0
0
ARC
5
293
100
AcDbEntity
8
0
100
AcDbCircle
10
69.699999999999989
20
35.074999999999932
30
0
40
0.50000000000004707
210
0
220
0
230
1
100
AcDbArc
50
90.000000000003254
51
180
0
LINE
5
294
100
AcDbEntity
8
0
100
AcDbLine
10
69.199999999999946
20
22.074999999999989
30
0
11
69.199999999999946
21
35.074999999999989
31
0
0
LINE
5
295
100
AcDbEntity
8
0
100
AcDbLine
10
63.649999999999878
20
21.574999999999982
30
-2.7755575615628914e-16
11
50.649999999999906
21
21.574999999999996
31
-2.7755575615628914e-16
0
ARC
5
296
100
AcDbEntity
8
0
100
AcDbCircle
10
50.649999999999906
20
22.074999999999967
30
0
40
0.49999999999997158
210
4.2322000872394587e-49
220
2.4074124304840448e-35
230
1
100
AcDbArc
50
180
51
270
0
LINE
5
297
100
AcDbEntity
8
0
100
AcDbLine
10
50.149999999999935
20
22.074999999999978
30
0
11
50.149999999999899
21
35.074999999999974
31
0
0
ARC
5
298
100
AcDbEntity
8
0
100
AcDbCircle
10
50.649999999999977
20
35.074999999999932
30
0
40
0.50000000000004707
210
0
220
0
230
1
100
AcDbArc
50
90.000000000004079
51
180
0
LINE
5
299
100
AcDbEntity
8
0
100
AcDbLine
10
50.649999999999906
20
35.574999999999974
30
0
11
63.649999999999878
21
35.574999999999989
31
0
0
ARC
5
300
100
AcDbEntity
8
0
100
AcDbCircle
10
63.649999999999878
20
35.074999999999996
30
-2.7755575615628914e-16
40
0.50000000000000711
210
-0
220
0
230
1
100
AcDbArc
50
0
51
90.00000000000081
0
LINE
5
301
100
AcDbEntity
8
0
100
AcDbLine
10
64.14999999999992
20
35.074999999999974
30
-2.7755575615628914e-16
11
64.149999999999892
21
22.074999999999978
31
-2.7755575615628914e-16
0
ARC
5
302
100
AcDbEntity
8
0
100
AcDbCircle
10
63.649999999999807
20
22.075000000000031
30
-2.7755575615628914e-16
40
0.50000000000005151
210
-0
220
0
230
1
100
AcDbArc
50
270.00000000000813
51
360
0
ARC
5
303
100
AcDbEntity
8
0
100
AcDbCircle
10
17.312499999999957
20
3.0250000000000021
30
-2.7755575615628914e-16
40
0.50000000000000711
210
0
220
0
230
1
100
AcDbArc
50
180
51
269.99999999999756
0
LINE
5
304
100
AcDbEntity
8
0
100
AcDbLine
10
30.312499999999929
20
2.524999999999995
30
0
11
17.31249999999994
21
2.5249999999999861
31
0
0
ARC
5
305
100
AcDbEntity
8
0
100
AcDbCircle
10
30.312499999999964
20
3.0249999999999666
30
0
40
0.49999999999998046
210
8.5528470722953603e-49
220
2.4074124304840448e-35
230
1
100
AcDbArc
50
-90
51
0
0
LINE
5
306
100
AcDbEntity
8
0
100
AcDbLine
10
30.812499999999972
20
16.024999999999991
30
0
11
30.812499999999936
21
3.0249999999999932
31
0
0
ARC
5
307
100
AcDbEntity
8
0
100
AcDbCircle
10
30.312499999999929
20
16.024999999999991
30
0
40
0.50000000000000711
210
0
220
-0
230
1
100
AcDbArc
50
0
51
89.99999999999838
0
LINE
5
308
100
AcDbEntity
8
0
100
AcDbLine
10
17.312499999999957
20
16.524999999999981
30
-2.7755575615628914e-16
11
30.312499999999947
21
16.524999999999991
31
-2.7755575615628914e-16
0
ARC
5
309
100
AcDbEntity
8
0
100
AcDbCircle
10
17.312499999999957
20
16.024999999999991
30
-2.7755575615628914e-16
40
0.49999999999998046
210
8.5528470722953603e-49
220
-0
230
1
100
AcDbArc
50
90
51
180
0
LINE
5
310
100
AcDbEntity
8
0
100
AcDbLine
10
16.812499999999986
20
3.0249999999999844
30
-2.7755575615628914e-16
11
16.812499999999986
21
16.024999999999974
31
-2.7755575615628914e-16
0
LINE
5
311
100
AcDbEntity
8
0
100
AcDbLine
10
40.337499999999977
20
-3.0250000000000021
30
0
11
40.337499999999942
21
-16.025000000000009
31
0
0
ARC
5
312
100
AcDbEntity
8
0
100
AcDbCircle
10
39.837499999999864
20
-16.024999999999974
30
0
40
0.50000000000005151
210
-0
220
0
230
1
100
AcDbArc
50
270.00000000000813
51
360
0
LINE
5
313
100
AcDbEntity
8
0
100
AcDbLine
10
39.837499999999935
20
-16.525000000000016
30
0
11
26.837499999999945
21
-16.525000000000006
31
0
0
ARC
5
314
100
AcDbEntity
8
0
100
AcDbCircle
10
26.837499999999963
20
-16.025000000000027
30
0
40
0.50000000000000711
210
0
220
0
230
1
100
AcDbArc
50
180
51
269.9999999999992
0
LINE
5
315
100
AcDbEntity
8
0
100
AcDbLine
10
26.337499999999991
20
-16.025000000000009
30
0
11
26.337500000000009
21
-3.0250000000000021
31
0
0
ARC
5
316
100
AcDbEntity
8
0
100
AcDbCircle
10
26.837499999999963
20
-3.0249999999999844
30
0
40
0.49999999999997158
210
8.5528470722955122e-49
220
2.4074124304840448e-35
230
1
100
AcDbArc
50
90
51
180
0
LINE
5
317
100
AcDbEntity
8
0
100
AcDbLine
10
26.837499999999963
20
-2.5250000000000128
30
0
11
39.83749999999997
21
-2.5250000000000039
31
0
0
ARC
5
318
100
AcDbEntity
8
0
100
AcDbCircle
10
39.837500000000006
20
-3.0250000000000021
30
0
40
0.49999999999997158
210
8.5086236233872148e-49
220
2.4074124304840448e-35
230
1
100
AcDbArc
50
0
51
90
0
LINE
5
319
100
AcDbEntity
8
0
100
AcDbLine
10
11.76249999999996
20
16.024999999999974
30
-2.7755575615628914e-16
11
11.76249999999996
21
3.0249999999999755
31
-2.7755575615628914e-16
0
ARC
5
320
100
AcDbEntity
8
0
100
AcDbCircle
10
11.262499999999989
20
3.0249999999999666
30
-2.7755575615628914e-16
40
0.49999999999998046
210
8.5528470722953603e-49
220
0
230
1
100
AcDbArc
50
-90
51
0
0
LINE
5
321
100
AcDbEntity
8
0
100
AcDbLine
10
11.262499999999989
20
2.524999999999995
30
-2.7755575615628914e-16
11
-1.7374999999999829
21
2.5249999999999861
31
-2.7755575615628914e-16
0
ARC
5
322
100
AcDbEntity
8
0
100
AcDbCircle
10
-1.7374999999999829
20
3.0250000000000021
30
0
40
0.50000000000000711
210
0
220
0
230
1
100
AcDbArc
50
180
51
269.99999999999949
0
LINE
5
323
100
AcDbEntity
8
0
100
AcDbLine
10
-2.2375000000000256
20
3.0249999999999844
30
0
11
-2.2375000000000256
21
16.024999999999974
31
0
0
ARC
5
324
100
AcDbEntity
8
0
100
AcDbCircle
10
-1.7375000000000185
20
16.024999999999991
30
0
40
0.49999999999998046
210
8.5528470722953603e-49
220
2.4074124304840448e-35
230
1
100
AcDbArc
50
90
51
180
0
LINE
5
325
100
AcDbEntity
8
0
100
AcDbLine
10
-1.7374999999999829
20
16.524999999999981
30
0
11
11.262499999999989
21
16.524999999999991
31
0
0
ARC
5
326
100
AcDbEntity
8
0
100
AcDbCircle
10
11.262499999999989
20
16.024999999999974
30
-2.7755575615628914e-16
40
0.50000000000000711
210
0
220
-0
230
1
100
AcDbArc
50
0
51
90.000000000000398
0
LINE
5
327
100
AcDbEntity
8
0
100
AcDbLine
10
-83.487499999999969
20
-22.074999999999996
30
-2.7755575615628914e-16
11
-83.487499999999983
21
-35.074999999999996
31
-2.7755575615628914e-16
0
ARC
5
328
100
AcDbEntity
8
0
100
AcDbCircle
10
-83.987499999999955
20
-35.075000000000003
30
-2.7755575615628914e-16
40
0.49999999999999822
210
2.1382117680737641e-49
220
0
230
1
100
AcDbArc
50
270
51
360
0
LINE
5
329
100
AcDbEntity
8
0
100
AcDbLine
10
-83.987499999999955
20
-35.574999999999989
30
-2.7755575615628914e-16
11
-96.987499999999955
21
-35.574999999999982
31
-2.7755575615628914e-16
0
ARC
5
330
100
AcDbEntity
8
0
100
AcDbCircle
10
-96.987499999999955
20
-35.075000000000003
30
0
40
0.49999999999998934
210
0
220
0
230
1
100
AcDbArc
50
180
51
270
0
LINE
5
331
100
AcDbEntity
8
0
100
AcDbLine
10
-97.487499999999955
20
-35.075000000000003
30
0
11
-97.487499999999955
21
-22.075000000000014
31
0
0
ARC
5
332
100
AcDbEntity
8
0
100
AcDbCircle
10
-96.987499999999955
20
-22.074999999999996
30
0
40
0.49999999999999822
210
2.1382117680737641e-49
220
2.4074124304840448e-35
230
1
100
AcDbArc
50
90
51
180
0
LINE
5
333
100
AcDbEntity
8
0
100
AcDbLine
10
-96.987499999999955
20
-21.575000000000006
30
0
11
-83.987499999999955
21
-21.574999999999996
31
0
0
ARC
5
334
100
AcDbEntity
8
0
100
AcDbCircle
10
-83.987499999999955
20
-22.074999999999996
30
-2.7755575615628914e-16
40
0.50000000000000711
210
0
220
-0
230
1
100
AcDbArc
50
0
51
90.000000000003254
0
ARC
5
335
100
AcDbEntity
8
0
100
AcDbCircle
10
118.4187499999998
20
-16.024999999999956
30
0
40
0.50000000000005151
210
-0
220
0
230
1
100
AcDbArc
50
270.00000000000813
51
360
0
LINE
5
336
100
AcDbEntity
8
0
100
AcDbLine
10
118.91874999999992
20
-3.0249999999999844
30
0
11
118.91874999999987
21
-16.024999999999991
31
0
0
ARC
5
337
100
AcDbEntity
8
0
100
AcDbCircle
10
118.41874999999995
20
-3.0249999999999844
30
0
40
0.49999999999997158
210
8.5086236233872148e-49
220
2.4074124304840448e-35
230
1
100
AcDbArc
50
0
51
90.000000000004889
0
LINE
5
338
100
AcDbEntity
8
0
100
AcDbLine
10
105.4187499999999
20
-2.5250000000000128
30
-2.7755575615628914e-16
11
118.41874999999987
21
-2.5250000000000039
31
-2.7755575615628914e-16
0
ARC
5
339
100
AcDbEntity
8
0
100
AcDbCircle
10
105.41874999999997
20
-3.0250000000000732
30
-2.7755575615628914e-16
40
0.50000000000005151
210
0
220
0
230
1
100
AcDbArc
50
90.000000000008143
51
180
0
LINE
5
340
100
AcDbEntity
8
0
100
AcDbLine
10
104.91874999999993
20
-16.025000000000027
30
-2.7755575615628914e-16
11
104.9187499999999
21
-3.0250000000000199
31
-2.7755575615628914e-16
0
ARC
5
341
100
AcDbEntity
8
0
100
AcDbCircle
10
105.4187499999999
20
-16.025000000000045
30
-2.7755575615628914e-16
40
0.49999999999997158
210
8.5528470722955122e-49
220
2.4074124304840448e-35
230
1
100
AcDbArc
50
180
51
270
0
LINE
5
342
100
AcDbEntity
8
0
100
AcDbLine
10
118.41874999999987
20
-16.524999999999999
30
0
11
105.41874999999987
21
-16.525000000000006
31
0
0
LINE
5
343
100
AcDbEntity
8
0
100
AcDbLine
10
55.412499999999909
20
16.524999999999991
30
-2.7755575615628914e-16
11
68.412499999999909
21
16.524999999999981
31
-2.7755575615628914e-16
0
ARC
5
344
100
AcDbEntity
8
0
100
AcDbCircle
10
68.412499999999952
20
16.024999999999999
30
0
40
0.50000000000000711
210
-0
220
0
230
1
100
AcDbArc
50
0
51
90.000000000004889
0
LINE
5
345
100
AcDbEntity
8
0
100
AcDbLine
10
68.912499999999994
20
16.024999999999984
30
0
11
68.912499999999966
21
3.0249999999999844
31
0
0
ARC
5
346
100
AcDbEntity
8
0
100
AcDbCircle
10
68.412499999999952
20
3.0250000000000377
30
0
40
0.50000000000004707
210
-0
220
0
230
1
100
AcDbArc
50
270.00000000000489
51
360
0
LINE
5
347
100
AcDbEntity
8
0
100
AcDbLine
10
68.412499999999952
20
2.524999999999995
30
0
11
55.412499999999945
21
2.5249999999999861
31
0
0
ARC
5
348
100
AcDbEntity
8
0
100
AcDbCircle
10
55.412499999999909
20
3.0249999999999844
30
-2.7755575615628914e-16
40
0.50000000000000711
210
0
220
0
230
1
100
AcDbArc
50
180
51
270.00000000000489
0
LINE
5
349
100
AcDbEntity
8
0
100
AcDbLine
10
54.912499999999937
20
3.0250000000000021
30
-2.7755575615628914e-16
11
54.912499999999937
21
16.024999999999999
31
-2.7755575615628914e-16
0
ARC
5
350
100
AcDbEntity
8
0
100
AcDbCircle
10
55.41249999999998
20
16.024999999999938
30
-2.7755575615628914e-16
40
0.50000000000004707
210
0
220
0
230
1
100
AcDbArc
50
90.000000000004079
51
180
0
ARC
5
351
100
AcDbEntity
8
0
100
AcDbCircle
10
77.937499999999957
20
-3.0250000000000021
30
0
40
0.49999999999997158
210
8.5086236233872148e-49
220
2.4074124304840448e-35
230
1
100
AcDbArc
50
0
51
90
0
LINE
5
352
100
AcDbEntity
8
0
100
AcDbLine
10
64.937499999999915
20
-2.524999999999995
30
-2.7755575615628914e-16
11
77.937499999999915
21
-2.5250000000000039
31
-2.7755575615628914e-16
0
ARC
5
353
100
AcDbEntity
8
0
100
AcDbCircle
10
64.937499999999986
20
-3.0250000000000377
30
-2.7755575615628914e-16
40
0.50000000000005151
210
0
220
0
230
1
100
AcDbArc
50
90.000000000008143
51
180
0
LINE
5
354
100
AcDbEntity
8
0
100
AcDbLine
10
64.437499999999943
20
-16.024999999999991
30
-2.7755575615628914e-16
11
64.437499999999972
21
-3.0249999999999844
31
-2.7755575615628914e-16
0
ARC
5
355
100
AcDbEntity
8
0
100
AcDbCircle
10
64.937499999999915
20
-16.025000000000009
30
-2.7755575615628914e-16
40
0.49999999999997158
210
8.5528470722955122e-49
220
2.4074124304840448e-35
230
1
100
AcDbArc
50
180
51
270
0
LINE
5
356
100
AcDbEntity
8
0
100
AcDbLine
10
77.937499999999886
20
-16.525000000000034
30
0
11
64.937499999999886
21
-16.525000000000027
31
0
0
ARC
5
357
100
AcDbEntity
8
0
100
AcDbCircle
10
77.937499999999815
20
-16.024999999999974
30
0
40
0.50000000000005151
210
-0
220
0
230
1
100
AcDbArc
50
270.00000000000813
51
360
0
LINE
5
358
100
AcDbEntity
8
0
100
AcDbLine
10
78.437499999999929
20
-3.0250000000000199
30
0
11
78.437499999999886
21
-16.025000000000027
31
0
0
LINE
5
359
100
AcDbEntity
8
0
100
AcDbLine
10
1.7374999999999829
20
-16.525000000000016
30
0
11
-11.262499999999989
21
-16.525000000000027
31
0
0
ARC
5
360
100
AcDbEntity
8
0
100
AcDbCircle
10
-11.262499999999989
20
-16.025000000000045
30
0
40
0.50000000000000711
210
0
220
0
230
1
100
AcDbArc
50
180
51
270.00000000000102
0
LINE
5
361
100
AcDbEntity
8
0
100
AcDbLine
10
-11.76249999999996
20
-16.025000000000027
30
0
11
-11.762499999999996
21
-3.0250000000000199
31
0
0
ARC
5
362
100
AcDbEntity
8
0
100
AcDbCircle
10
-11.262499999999989
20
-3.0250000000000021
30
0
40
0.49999999999997158
210
8.5528470722955122e-49
220
2.4074124304840448e-35
230
1
100
AcDbArc
50
90
51
180
0
LINE
5
363
100
AcDbEntity
8
0
100
AcDbLine
10
-11.262499999999989
20
-2.5250000000000306
30
0
11
1.7374999999999829
21
-2.5250000000000128
31
0
0
ARC
5
364
100
AcDbEntity
8
0
100
AcDbCircle
10
1.7374999999999829
20
-3.0250000000000021
30
0
40
0.50000000000000711
210
0
220
-0
230
1
100
AcDbArc
50
0
51
90.000000000001009
0
LINE
5
365
100
AcDbEntity
8
0
100
AcDbLine
10
2.2375000000000256
20
-3.0250000000000199
30
0
11
2.2374999999999901
21
-16.025000000000027
31
0
0
ARC
5
366
100
AcDbEntity
8
0
100
AcDbCircle
10
1.7375000000000185
20
-16.025000000000045
30
0
40
0.49999999999997158
210
8.5528470722955122e-49
220
2.4074124304840448e-35
230
1
100
AcDbArc
50
-90
51
0
0
ARC
5
367
100
AcDbEntity
8
0
100
AcDbCircle
10
-31.599999999999966
20
35.074999999999989
30
-2.7755575615628914e-16
40
0.50000000000000711
210
-0
220
1.7105694144589809e-48
230
1
100
AcDbArc
50
0
51
90.000000000001634
0
LINE
5
368
100
AcDbEntity
8
0
100
AcDbLine
10
-44.600000000000009
20
35.574999999999982
30
0
11
-31.600000000000009
21
35.574999999999982
31
0
0
ARC
5
369
100
AcDbEntity
8
0
100
AcDbCircle
10
-44.600000000000009
20
35.074999999999974
30
0
40
0.50000000000000266
210
-7.7037197775489434e-34
220
-1.4151503650655177e-49
230
1
100
AcDbArc
50
90
51
180
0
LINE
5
370
100
AcDbEntity
8
0
100
AcDbLine
10
-45.099999999999994
20
22.074999999999989
30
0
11
-45.099999999999994
21
35.074999999999989
31
0
0
ARC
5
371
100
AcDbEntity
8
0
100
AcDbCircle
10
-44.600000000000009
20
22.074999999999989
30
0
40
0.49999999999999822
210
0
220
0
230
1
100
AcDbArc
50
180
51
270.00000000000324
0
LINE
5
372
100
AcDbEntity
8
0
100
AcDbLine
10
-31.599999999999966
20
21.574999999999982
30
-2.7755575615628914e-16
11
-44.599999999999952
21
21.574999999999982
31
-2.7755575615628914e-16
0
ARC
5
373
100
AcDbEntity
8
0
100
AcDbCircle
10
-31.599999999999966
20
22.074999999999989
30
-2.7755575615628914e-16
40
0.50000000000000711
210
-0
220
0
230
1
100
AcDbArc
50
270
51
360
0
LINE
5
374
100
AcDbEntity
8
0
100
AcDbLine
10
-31.099999999999994
20
35.074999999999989
30
-2.7755575615628914e-16
11
-31.099999999999994
21
22.074999999999989
31
-2.7755575615628914e-16
0
LINE
5
375
100
AcDbEntity
8
0
100
AcDbLine
10
-59.387500000000003
20
3.0249999999999844
30
0
11
-59.387499999999989
21
16.024999999999974
31
0
0
ARC
5
376
100
AcDbEntity
8
0
100
AcDbCircle
10
-58.887499999999982
20
16.024999999999974
30
0
40
0.49999999999999822
210
0
220
-0
230
1
100
AcDbArc
50
90
51
180
0
LINE
5
377
100
AcDbEntity
8
0
100
AcDbLine
10
-58.887499999999982
20
16.52499999999997
30
0
11
-45.887500000000003
21
16.52499999999997
31
0
0
ARC
5
378
100
AcDbEntity
8
0
100
AcDbCircle
10
-45.887499999999974
20
16.024999999999984
30
0
40
0.49999999999999822
210
0
220
0
230
1
100
AcDbArc
50
0
51
90.00000000000081
0
LINE
5
379
100
AcDbEntity
8
0
100
AcDbLine
10
-45.387499999999989
20
16.024999999999984
30
0
11
-45.387499999999996
21
3.0249999999999844
31
0
0
ARC
5
380
100
AcDbEntity
8
0
100
AcDbCircle
10
-45.887500000000031
20
3.0250000000000021
30
0
40
0.49999999999999822
210
-0
220
0
230
1
100
AcDbArc
50
-90
51
0
0
LINE
5
381
100
AcDbEntity
8
0
100
AcDbLine
10
-45.887500000000031
20
2.524999999999995
30
0
11
-58.88750000000001
21
2.5250000000000039
31
0
0
ARC
5
382
100
AcDbEntity
8
0
100
AcDbCircle
10
-58.887500000000003
20
3.0249999999999844
30
0
40
0.49999999999999822
210
0
220
0
230
1
100
AcDbArc
50
180
51
270.00000000000159
0
ARC
5
383
100
AcDbEntity
8
0
100
AcDbCircle
10
25.549999999999926
20
35.074999999999989
30
0
40
0.50000000000000711
210
7.7037197775489434e-34
220
1.7105694144589809e-48
230
1
100
AcDbArc
50
0
51
89.999999999999588
0
LINE
5
384
100
AcDbEntity
8
0
100
AcDbLine
10
12.549999999999955
20
35.574999999999982
30
-2.7755575615628914e-16
11
25.549999999999926
21
35.574999999999982
31
-2.7755575615628914e-16
0
ARC
5
385
100
AcDbEntity
8
0
100
AcDbCircle
10
12.549999999999955
20
35.074999999999989
30
-2.7755575615628914e-16
40
0.49999999999999822
210
0
220
-0
230
1
100
AcDbArc
50
90
51
180
0
LINE
5
386
100
AcDbEntity
8
0
100
AcDbLine
10
12.049999999999983
20
22.074999999999978
30
-2.7755575615628914e-16
11
12.049999999999965
21
35.074999999999974
31
-2.7755575615628914e-16
0
ARC
5
387
100
AcDbEntity
8
0
100
AcDbCircle
10
12.549999999999955
20
22.074999999999989
30
-2.7755575615628914e-16
40
0.50000000000000711
210
0
220
3.4211388289179618e-48
230
1
100
AcDbArc
50
180
51
269.99999999999983
0
LINE
5
388
100
AcDbEntity
8
0
100
AcDbLine
10
25.549999999999926
20
21.574999999999989
30
0
11
12.549999999999955
21
21.574999999999989
31
0
0
ARC
5
389
100
AcDbEntity
8
0
100
AcDbCircle
10
25.549999999999926
20
22.074999999999989
30
0
40
0.50000000000000711
210
-0
220
0
230
1
100
AcDbArc
50
270
51
360
0
LINE
5
390
100
AcDbEntity
8
0
100
AcDbLine
10
26.049999999999969
20
35.074999999999989
30
0
11
26.050000000000004
21
22.074999999999989
31
0
0
ARC
5
391
100
AcDbEntity
8
0
100
AcDbCircle
10
-12.550000000000026
20
35.074999999999989
30
0
40
0.50000000000000711
210
7.7037197775489434e-34
220
1.7105694144589809e-48
230
1
100
AcDbArc
50
0
51
89.999999999997755
0
LINE
5
392
100
AcDbEntity
8
0
100
AcDbLine
10
-25.549999999999997
20
35.574999999999982
30
-2.7755575615628914e-16
11
-12.550000000000008
21
35.574999999999982
31
-2.7755575615628914e-16
0
ARC
5
393
100
AcDbEntity
8
0
100
AcDbCircle
10
-25.549999999999997
20
35.074999999999989
30
-2.7755575615628914e-16
40
0.49999999999999822
210
0
220
-0
230
1
100
AcDbArc
50
90
51
180
0
LINE
5
394
100
AcDbEntity
8
0
100
AcDbLine
10
-26.049999999999969
20
22.074999999999989
30
-2.7755575615628914e-16
11
-26.049999999999986
21
35.074999999999989
31
-2.7755575615628914e-16
0
ARC
5
395
100
AcDbEntity
8
0
100
AcDbCircle
10
-25.549999999999997
20
22.074999999999989
30
-2.7755575615628914e-16
40
0.50000000000000711
210
0
220
3.4211388289179618e-48
230
1
100
AcDbArc
50
180
51
269.99999999999756
0
LINE
5
396
100
AcDbEntity
8
0
100
AcDbLine
10
-12.550000000000026
20
21.574999999999996
30
0
11
-25.550000000000015
21
21.574999999999989
31
0
0
ARC
5
397
100
AcDbEntity
8
0
100
AcDbCircle
10
-12.550000000000026
20
22.075000000000003
30
0
40
0.50000000000000711
210
-0
220
0
230
1
100
AcDbArc
50
270
51
360
0
LINE
5
398
100
AcDbEntity
8
0
100
AcDbLine
10
-12.049999999999983
20
35.074999999999989
30
0
11
-12.049999999999947
21
22.074999999999989
31
0
0
LINE
5
399
100
AcDbEntity
8
0
100
AcDbLine
10
-69.69999999999996
20
21.574999999999989
30
-2.7755575615628914e-16
11
-82.69999999999996
21
21.574999999999996
31
-2.7755575615628914e-16
0
ARC
5
400
100
AcDbEntity
8
0
100
AcDbCircle
10
-82.69999999999996
20
22.074999999999989
30
-2.7755575615628914e-16
40
0.50000000000000711
210
0
220
0
230
1
100
AcDbArc
50
180
51
270
0
LINE
5
401
100
AcDbEntity
8
0
100
AcDbLine
10
-83.199999999999946
20
22.074999999999989
30
0
11
-83.199999999999946
21
35.074999999999989
31
5.7777898331617076e-33
0
ARC
5
402
100
AcDbEntity
8
0
100
AcDbCircle
10
-82.69999999999996
20
35.074999999999989
30
0
40
0.50000000000000266
210
-7.7037197775489434e-34
220
-1.4151503650655177e-49
230
1
100
AcDbArc
50
90
51
180
0
LINE
5
403
100
AcDbEntity
8
0
100
AcDbLine
10
-82.69999999999996
20
35.574999999999982
30
0
11
-69.69999999999996
21
35.574999999999982
31
0
0
ARC
5
404
100
AcDbEntity
8
0
100
AcDbCircle
10
-69.69999999999996
20
35.074999999999989
30
-2.7755575615628914e-16
40
0.49999999999999822
210
-0
220
4.8148248609680896e-35
230
1
100
AcDbArc
50
0
51
90
0
LINE
5
405
100
AcDbEntity
8
0
100
AcDbLine
10
-69.199999999999946
20
35.074999999999989
30
-2.7755575615628914e-16
11
-69.19999999999996
21
22.074999999999989
31
-2.7755575615628914e-16
0
ARC
5
406
100
AcDbEntity
8
0
100
AcDbCircle
10
-69.69999999999996
20
22.074999999999989
30
-2.7755575615628914e-16
40
0.50000000000000266
210
-0
220
0
230
1
100
AcDbArc
50
270
51
360
0
LINE
5
407
100
AcDbEntity
8
0
100
AcDbLine
10
-26.837499999999963
20
2.524999999999995
30
-2.7755575615628914e-16
11
-39.837499999999949
21
2.5249999999999861
31
-2.7755575615628914e-16
0
ARC
5
408
100
AcDbEntity
8
0
100
AcDbCircle
10
-39.837500000000041
20
3.0250000000000021
30
0
40
0.50000000000000711
210
0
220
0
230
1
100
AcDbArc
50
180
51
270.00000000000568
0
LINE
5
409
100
AcDbEntity
8
0
100
AcDbLine
10
-40.337500000000048
20
3.0250000000000021
30
0
11
-40.337500000000013
21
16.024999999999999
31
0
0
ARC
5
410
100
AcDbEntity
8
0
100
AcDbCircle
10
-39.837500000000006
20
16.024999999999999
30
0
40
0.49999999999998046
210
8.5528470722953603e-49
220
2.4074124304840448e-35
230
1
100
AcDbArc
50
89.99999999999838
51
180
0
LINE
5
411
100
AcDbEntity
8
0
100
AcDbLine
10
-39.837499999999991
20
16.524999999999991
30
0
11
-26.837499999999999
21
16.524999999999981
31
0
0
ARC
5
412
100
AcDbEntity
8
0
100
AcDbCircle
10
-26.837499999999963
20
16.024999999999984
30
-2.7755575615628914e-16
40
0.50000000000000711
210
0
220
-0
230
1
100
AcDbArc
50
0
51
90.000000000002444
0
LINE
5
413
100
AcDbEntity
8
0
100
AcDbLine
10
-26.337499999999991
20
16.024999999999991
30
-2.7755575615628914e-16
11
-26.337499999999991
21
3.0249999999999932
31
-2.7755575615628914e-16
0
ARC
5
414
100
AcDbEntity
8
0
100
AcDbCircle
10
-26.837499999999963
20
3.0249999999999666
30
-2.7755575615628914e-16
40
0.49999999999998046
210
8.5528470722953603e-49
220
0
230
1
100
AcDbArc
50
-90
51
0
0
ARC
5
415
100
AcDbEntity
8
0
100
AcDbCircle
10
-63.649999999999984
20
22.074999999999996
30
0
40
0.49999999999999822
210
0
220
0
230
1
100
AcDbArc
50
180
51
270.00000000000324
0
LINE
5
416
100
AcDbEntity
8
0
100
AcDbLine
10
-50.649999999999977
20
21.574999999999982
30
0
11
-63.649999999999956
21
21.574999999999982
31
0
0
ARC
5
417
100
AcDbEntity
8
0
100
AcDbCircle
10
-50.649999999999977
20
22.074999999999989
30
0
40
0.50000000000000266
210
-0
220
0
230
1
100
AcDbArc
50
270
51
360
0
LINE
5
418
100
AcDbEntity
8
0
100
AcDbLine
10
-50.14999999999997
20
35.074999999999974
30
0
11
-50.149999999999977
21
22.074999999999978
31
0
0
ARC
5
419
100
AcDbEntity
8
0
100
AcDbCircle
10
-50.649999999999977
20
35.074999999999974
30
0
40
0.49999999999999822
210
-9.4373160504609774e-50
220
4.8148248609680896e-35
230
1
100
AcDbArc
50
0
51
90
0
LINE
5
420
100
AcDbEntity
8
0
100
AcDbLine
10
-63.649999999999984
20
35.574999999999982
30
0
11
-50.649999999999977
21
35.574999999999982
31
-1.5407439555097887e-32
0
ARC
5
421
100
AcDbEntity
8
0
100
AcDbCircle
10
-63.649999999999984
20
35.074999999999989
30
0
40
0.50000000000000266
210
-7.7037197775489434e-34
220
-1.4151503650655177e-49
230
1
100
AcDbArc
50
90
51
180
0
LINE
5
422
100
AcDbEntity
8
0
100
AcDbLine
10
-64.149999999999977
20
22.074999999999996
30
0
11
-64.149999999999963
21
35.074999999999989
31
0
0
ARC
5
423
100
AcDbEntity
8
0
100
AcDbCircle
10
-55.412499999999994
20
-16.024999999999991
30
0
40
0.49999999999999822
210
-0
220
0
230
1
100
AcDbArc
50
-90
51
0
0
LINE
5
424
100
AcDbEntity
8
0
100
AcDbLine
10
-54.912499999999994
20
-3.0249999999999844
30
0
11
-54.912499999999994
21
-16.024999999999991
31
0
0
ARC
5
425
100
AcDbEntity
8
0
100
AcDbCircle
10
-55.412499999999994
20
-3.0249999999999844
30
0
40
0.49999999999999822
210
0
220
0
230
1
100
AcDbArc
50
0
51
89.99999999999919
0
LINE
5
426
100
AcDbEntity
8
0
100
AcDbLine
10
-68.412499999999966
20
-2.524999999999995
30
-2.7755575615628914e-16
11
-55.412499999999987
21
-2.524999999999995
31
-2.7755575615628909e-16
0
ARC
5
427
100
AcDbEntity
8
0
100
AcDbCircle
10
-68.412499999999966
20
-3.0249999999999844
30
-2.7755575615628914e-16
40
0.49999999999999822
210
0
220
-0
230
1
100
AcDbArc
50
90
51
180
0
LINE
5
428
100
AcDbEntity
8
0
100
AcDbLine
10
-68.91249999999998
20
-16.024999999999991
30
-2.7755575615628914e-16
11
-68.912499999999966
21
-3.0249999999999844
31
-2.7755575615628914e-16
0
ARC
5
429
100
AcDbEntity
8
0
100
AcDbCircle
10
-68.412499999999966
20
-16.024999999999991
30
-2.7755575615628914e-16
40
0.50000000000000711
210
0
220
0
230
1
100
AcDbArc
50
180
51
269.99999999999835
0
LINE
5
430
100
AcDbEntity
8
0
100
AcDbLine
10
-55.412499999999994
20
-16.524999999999999
30
0
11
-68.41249999999998
21
-16.525000000000006
31
-3.0814879110195774e-32
0
LINE
5
431
100
AcDbEntity
8
0
100
AcDbLine
10
-100.15624999999997
20
-3.0250000000000199
30
0
11
-100.15624999999997
21
-16.025000000000027
31
0
0
ARC
5
432
100
AcDbEntity
8
0
100
AcDbCircle
10
-100.65624999999996
20
-16.025000000000027
30
0
40
0.49999999999999822
210
2.1382117680737641e-49
220
2.4074124304840448e-35
230
1
100
AcDbArc
50
-90
51
0
0
LINE
5
433
100
AcDbEntity
8
0
100
AcDbLine
10
-100.65624999999996
20
-16.525000000000034
30
0
11
-113.65624999999994
21
-16.525000000000027
31
0
0
ARC
5
434
100
AcDbEntity
8
0
100
AcDbCircle
10
-113.65624999999993
20
-16.025000000000027
30
-2.7755575615628914e-16
40
0.49999999999998934
210
0
220
0
230
1
100
AcDbArc
50
180
51
269.99999999999835
0
LINE
5
435
100
AcDbEntity
8
0
100
AcDbLine
10
-114.15624999999991
20
-16.025000000000027
30
-2.7755575615628914e-16
11
-114.15624999999993
21
-3.0250000000000199
31
-2.7755575615628914e-16
0
ARC
5
436
100
AcDbEntity
8
0
100
AcDbCircle
10
-113.65624999999994
20
-3.0250000000000199
30
-2.7755575615628914e-16
40
0.49999999999999822
210
2.1382117680737641e-49
220
-0
230
1
100
AcDbArc
50
90
51
180
0
LINE
5
437
100
AcDbEntity
8
0
100
AcDbLine
10
-113.65624999999994
20
-2.5250000000000128
30
-2.7755575615628914e-16
11
-100.65624999999996
21
-2.5250000000000217
31
-2.7755575615628914e-16
0
ARC
5
438
100
AcDbEntity
8
0
100
AcDbCircle
10
-100.65624999999996
20
-3.0250000000000199
30
0
40
0.49999999999998934
210
0
220
0
230
1
100
AcDbArc
50
0
51
90
0
LINE
5
439
100
AcDbEntity
8
0
100
AcDbLine
10
-6.4999999999999858
20
35.574999999999982
30
0
11
6.499999999999968
21
35.574999999999989
31
0
0
ARC
5
440
100
AcDbEntity
8
0
100
AcDbCircle
10
6.4999999999999858
20
35.074999999999974
30
0
40
0.50000000000000711
210
7.7037197775489434e-34
220
1.7105694144589809e-48
230
1
100
AcDbArc
50
0
51
90.000000000001933
0
LINE
5
441
100
AcDbEntity
8
0
100
AcDbLine
10
6.9999999999999574
20
35.074999999999974
30
0
11
6.9999999999999574
21
22.074999999999978
31
0
0
ARC
5
442
100
AcDbEntity
8
0
100
AcDbCircle
10
6.4999999999999858
20
22.074999999999989
30
0
40
0.50000000000000711
210
-0
220
0
230
1
100
AcDbArc
50
270
51
360
0
LINE
5
443
100
AcDbEntity
8
0
100
AcDbLine
10
6.4999999999999858
20
21.574999999999982
30
0
11
-6.499999999999968
21
21.574999999999982
31
0
0
ARC
5
444
100
AcDbEntity
8
0
100
AcDbCircle
10
-6.4999999999999858
20
22.075000000000003
30
0
40
0.50000000000000711
210
7.7037197775489434e-34
220
3.4211388289179618e-48
230
1
100
AcDbArc
50
180
51
270.00000000000182
0
LINE
5
445
100
AcDbEntity
8
0
100
AcDbLine
10
-7.0000000000000284
20
22.074999999999996
30
0
11
-7.0000000000000462
21
35.074999999999989
31
0
0
ARC
5
446
100
AcDbEntity
8
0
100
AcDbCircle
10
-6.5000000000000213
20
35.074999999999989
30
0
40
0.49999999999999822
210
0
220
-0
230
1
100
AcDbArc
50
90
51
180
0
LINE
5
447
100
AcDbEntity
8
0
100
AcDbLine
10
49.862499999999983
20
16.024999999999984
30
0
11
49.862499999999947
21
3.0249999999999932
31
0
0
ARC
5
448
100
AcDbEntity
8
0
100
AcDbCircle
10
49.36249999999994
20
3.0250000000000377
30
0
40
0.50000000000004707
210
-0
220
0
230
1
100
AcDbArc
50
270.00000000000409
51
360
0
LINE
5
449
100
AcDbEntity
8
0
100
AcDbLine
10
49.36249999999994
20
2.524999999999995
30
0
11
36.362499999999933
21
2.5249999999999861
31
0
0
ARC
5
450
100
AcDbEntity
8
0
100
AcDbCircle
10
36.362499999999898
20
3.0250000000000021
30
0
40
0.50000000000000711
210
0
220
0
230
1
100
AcDbArc
50
180
51
270.00000000000324
0
LINE
5
451
100
AcDbEntity
8
0
100
AcDbLine
10
35.862499999999926
20
3.0250000000000021
30
0
11
35.862499999999962
21
16.024999999999999
31
0
0
ARC
5
452
100
AcDbEntity
8
0
100
AcDbCircle
10
36.362499999999898
20
16.025000000000009
30
0
40
0.49999999999998046
210
0
220
-0
230
1
100
AcDbArc
50
90
51
180
0
LINE
5
453
100
AcDbEntity
8
0
100
AcDbLine
10
36.362499999999898
20
16.524999999999991
30
0
11
49.362499999999905
21
16.524999999999991
31
0
0
ARC
5
454
100
AcDbEntity
8
0
100
AcDbCircle
10
49.36249999999994
20
16.024999999999984
30
0
40
0.50000000000000711
210
-0
220
0
230
1
100
AcDbArc
50
0
51
90.000000000004079
0
LINE
5
455
100
AcDbEntity
8
0
100
AcDbLine
10
31.599999999999966
20
35.574999999999982
30
0
11
44.599999999999937
21
35.574999999999982
31
0
0
ARC
5
456
100
AcDbEntity
8
0
100
AcDbCircle
10
44.599999999999937
20
35.075000000000003
30
0
40
0.50000000000000711
210
-0
220
0
230
1
100
AcDbArc
50
0
51
90.00000000000081
0
LINE
5
457
100
AcDbEntity
8
0
100
AcDbLine
10
45.09999999999998
20
35.074999999999996
30
0
11
45.099999999999945
21
22.074999999999996
31
0
0
ARC
5
458
100
AcDbEntity
8
0
100
AcDbCircle
10
44.599999999999866
20
22.075000000000049
30
0
40
0.50000000000005151
210
-0
220
0
230
1
100
AcDbArc
50
270.00000000000813
51
360
0
LINE
5
459
100
AcDbEntity
8
0
100
AcDbLine
10
44.599999999999937
20
21.574999999999996
30
0
11
31.599999999999966
21
21.574999999999996
31
0
0
ARC
5
460
100
AcDbEntity
8
0
100
AcDbCircle
10
31.599999999999966
20
22.074999999999989
30
0
40
0.50000000000000711
210
7.7037197775489434e-34
220
3.4211388289179618e-48
230
1
100
AcDbArc
50
180
51
269.9999999999996
0
LINE
5
461
100
AcDbEntity
8
0
100
AcDbLine
10
31.099999999999994
20
22.074999999999989
30
0
11
31.099999999999977
21
35.074999999999989
31
0
0
ARC
5
462
100
AcDbEntity
8
0
100
AcDbCircle
10
31.599999999999966
20
35.074999999999989
30
0
40
0.49999999999999822
210
0
220
-0
230
1
100
AcDbArc
50
90
51
180
0
ARC
5
463
100
AcDbEntity
8
0
100
AcDbCircle
10
45.887499999999974
20
-3.0250000000000732
30
0
40
0.50000000000005151
210
0
220
0
230
1
100
AcDbArc
50
90.000000000008143
51
180
0
LINE
5
464
100
AcDbEntity
8
0
100
AcDbLine
10
45.387499999999932
20
-16.025000000000009
30
0
11
45.387499999999967
21
-3.0250000000000021
31
0
0
ARC
5
465
100
AcDbEntity
8
0
100
AcDbCircle
10
45.887499999999903
20
-16.025000000000045
30
0
40
0.49999999999997158
210
8.5086236233872148e-49
220
2.4074124304840448e-35
230
1
100
AcDbArc
50
180
51
270.00000000000813
0
LINE
5
466
100
AcDbEntity
8
0
100
AcDbLine
10
58.887499999999946
20
-16.525000000000016
30
-2.7755575615628914e-16
11
45.887499999999939
21
-16.525000000000006
31
-2.7755575615628914e-16
0
ARC
5
467
100
AcDbEntity
8
0
100
AcDbCircle
10
58.887499999999875
20
-16.024999999999974
30
-2.7755575615628914e-16
40
0.50000000000005151
210
-0
220
0
230
1
100
AcDbArc
50
270.00000000000813
51
360
0
LINE
5
468
100
AcDbEntity
8
0
100
AcDbLine
10
59.387499999999989
20
-3.0250000000000021
30
-2.7755575615628914e-16
11
59.387499999999953
21
-16.025000000000009
31
-2.7755575615628914e-16
0
ARC
5
469
100
AcDbEntity
8
0
100
AcDbCircle
10
58.887500000000017
20
-3.0250000000000021
30
-2.7755575615628914e-16
40
0.49999999999997158
210
8.5528470722955122e-49
220
2.4074124304840448e-35
230
1
100
AcDbArc
50
0
51
90.000000000008143
0
LINE
5
470
100
AcDbEntity
8
0
100
AcDbLine
10
45.887499999999903
20
-2.5250000000000128
30
0
11
58.88749999999991
21
-2.5250000000000039
31
0
0
ARC
5
471
100
AcDbEntity
8
0
100
AcDbCircle
10
83.987499999999855
20
-35.075000000000038
30
0
40
0.49999999999997158
210
8.5086236233872148e-49
220
2.4074124304840448e-35
230
1
100
AcDbArc
50
180
51
270.00000000000813
0
LINE
5
472
100
AcDbEntity
8
0
100
AcDbLine
10
96.987499999999898
20
-35.57500000000001
30
-2.7755575615628914e-16
11
83.987499999999898
21
-35.575000000000003
31
-2.7755575615628914e-16
0
ARC
5
473
100
AcDbEntity
8
0
100
AcDbCircle
10
96.987499999999827
20
-35.074999999999967
30
-2.7755575615628914e-16
40
0.50000000000005151
210
-0
220
0
230
1
100
AcDbArc
50
270.00000000000813
51
360
0
LINE
5
474
100
AcDbEntity
8
0
100
AcDbLine
10
97.48749999999994
20
-22.075000000000014
30
-2.7755575615628914e-16
11
97.487499999999898
21
-35.07500000000001
31
-2.7755575615628914e-16
0
ARC
5
475
100
AcDbEntity
8
0
100
AcDbCircle
10
96.987499999999969
20
-22.074999999999996
30
-2.7755575615628914e-16
40
0.49999999999997158
210
8.5528470722955122e-49
220
2.4074124304840448e-35
230
1
100
AcDbArc
50
0
51
90.000000000008143
0
LINE
5
476
100
AcDbEntity
8
0
100
AcDbLine
10
83.987499999999855
20
-21.575000000000024
30
0
11
96.987499999999869
21
-21.575000000000031
31
0
0
ARC
5
477
100
AcDbEntity
8
0
100
AcDbCircle
10
83.987499999999926
20
-22.075000000000067
30
0
40
0.50000000000005151
210
0
220
0
230
1
100
AcDbArc
50
90.000000000008143
51
180
0
LINE
5
478
100
AcDbEntity
8
0
100
AcDbLine
10
83.487499999999883
20
-35.075000000000017
30
0
11
83.487499999999926
21
-22.075000000000014
31
0
0
LINE
5
479
100
AcDbEntity
8
0
100
AcDbLine
10
87.962499999999935
20
16.024999999999991
30
0
11
87.962499999999892
21
3.0249999999999932
31
0
0
ARC
5
480
100
AcDbEntity
8
0
100
AcDbCircle
10
87.462499999999892
20
3.0250000000000199
30
0
40
0.50000000000004707
210
-0
220
0
230
1
100
AcDbArc
50
270.00000000000324
51
360
0
LINE
5
481
100
AcDbEntity
8
0
100
AcDbLine
10
87.462499999999892
20
2.5249999999999773
30
0
11
74.462499999999892
21
2.5249999999999861
31
0
0
ARC
5
482
100
AcDbEntity
8
0
100
AcDbCircle
10
74.462499999999849
20
3.0249999999999488
30
0
40
0.50000000000000711
210
0
220
0
230
1
100
AcDbArc
50
180
51
270.00000000000489
0
LINE
5
483
100
AcDbEntity
8
0
100
AcDbLine
10
73.962499999999878
20
3.0249999999999666
30
0
11
73.962499999999878
21
16.024999999999984
31
0
0
ARC
5
484
100
AcDbEntity
8
0
100
AcDbCircle
10
74.46249999999992
20
16.024999999999938
30
0
40
0.50000000000004707
210
0
220
0
230
1
100
AcDbArc
50
90.000000000003254
51
180
0
LINE
5
485
100
AcDbEntity
8
0
100
AcDbLine
10
74.462499999999849
20
16.524999999999991
30
0
11
87.462499999999864
21
16.524999999999981
31
0
0
ARC
5
486
100
AcDbEntity
8
0
100
AcDbCircle
10
87.462499999999892
20
16.024999999999999
30
0
40
0.50000000000000711
210
-0
220
0
230
1
100
AcDbArc
50
0
51
90.000000000006523
0
LINE
5
487
100
AcDbEntity
8
0
100
AcDbLine
10
118.91874999999992
20
-22.074999999999996
30
0
11
118.91874999999987
21
-35.074999999999996
31
0
0
ARC
5
488
100
AcDbEntity
8
0
100
AcDbCircle
10
118.4187499999998
20
-35.074999999999932
30
0
40
0.50000000000005151
210
-0
220
0
230
1
100
AcDbArc
50
270.00000000000813
51
360
0
LINE
5
489
100
AcDbEntity
8
0
100
AcDbLine
10
118.41874999999987
20
-35.574999999999989
30
0
11
105.41874999999987
21
-35.574999999999982
31
0
0
ARC
5
490
100
AcDbEntity
8
0
100
AcDbCircle
10
105.4187499999999
20
-35.075000000000038
30
-2.7755575615628914e-16
40
0.49999999999997158
210
8.5528470722955122e-49
220
2.4074124304840448e-35
230
1
100
AcDbArc
50
180
51
270
0
LINE
5
491
100
AcDbEntity
8
0
100
AcDbLine
10
104.91874999999993
20
-35.075000000000017
30
-2.7755575615628914e-16
11
104.91874999999996
21
-22.075000000000014
31
-2.7755575615628914e-16
0
ARC
5
492
100
AcDbEntity
8
0
100
AcDbCircle
10
105.41874999999997
20
-22.075000000000067
30
-2.7755575615628914e-16
40
0.50000000000005151
210
0
220
0
230
1
100
AcDbArc
50
90.000000000008143
51
180
0
LINE
5
493
100
AcDbEntity
8
0
100
AcDbLine
10
105.4187499999999
20
-21.575000000000024
30
-2.7755575615628914e-16
11
118.4187499999999
21
-21.575000000000031
31
-2.7755575615628914e-16
0
ARC
5
494
100
AcDbEntity
8
0
100
AcDbCircle
10
118.41874999999995
20
-22.074999999999996
30
0
40
0.49999999999997158
210
8.5086236233872148e-49
220
2.4074124304840448e-35
230
1
100
AcDbArc
50
0
51
90
0
ARC
5
495
100
AcDbEntity
8
0
100
AcDbCircle
10
62.556249999999878
20
-35.075000000000131
30
-2.7755575615628914e-16
40
0.49999999999997158
210
8.5528470722955122e-49
220
2.4074124304840448e-35
230
1
100
AcDbArc
50
180
51
269.99999999999591
0
LINE
5
496
100
AcDbEntity
8
0
100
AcDbLine
10
75.556249999999849
20
-35.575000000000081
30
0
11
62.556249999999807
21
-35.575000000000102
31
0
0
ARC
5
497
100
AcDbEntity
8
0
100
AcDbCircle
10
75.556249999999849
20
-35.075000000000109
30
0
40
0.4999999999999627
210
-0
220
0
230
1
100
AcDbArc
50
-90
51
0
0
LINE
5
498
100
AcDbEntity
8
0
100
AcDbLine
10
76.056249999999821
20
-22.07500000000012
30
0
11
76.056249999999821
21
-35.075000000000117
31
0
0
ARC
5
499
100
AcDbEntity
8
0
100
AcDbCircle
10
75.556249999999849
20
-22.075000000000102
30
0
40
0.49999999999997158
210
4.2322000872392156e-49
220
2.4074124304840448e-35
230
1
100
AcDbArc
50
0
51
89.999999999996746
0
LINE
5
500
100
AcDbEntity
8
0
100
AcDbLine
10
62.556249999999878
20
-21.575000000000113
30
-2.7755575615628914e-16
11
75.556249999999892
21
-21.575000000000138
31
-2.7755575615628914e-16
0
ARC
5
501
100
AcDbEntity
8
0
100
AcDbCircle
10
62.556249999999878
20
-22.075000000000085
30
-2.7755575615628914e-16
40
0.49999999999998046
210
0
220
-0
230
1
100
AcDbArc
50
90
51
180
0
LINE
5
502
100
AcDbEntity
8
0
100
AcDbLine
10
62.056249999999906
20
-35.075000000000088
30
-2.7755575615628914e-16
11
62.056249999999942
21
-22.075000000000095
31
-2.7755575615628914e-16
0
ARC
5
503
100
AcDbEntity
8
0
100
AcDbCircle
10
125.82499999999989
20
-1.7763568394002505e-14
30
0
40
4.4999999999999929
210
-0
220
0
230
1
100
AcDbArc
50
-90
51
90
0
LINE
5
504
100
AcDbEntity
8
0
100
AcDbLine
10
125.82499999999989
20
4.4999999999999751
30
0
11
125.82499999999989
21
39.599999999999973
31
0
0
ARC
5
505
100
AcDbEntity
8
0
100
AcDbCircle
10
125.32499999999992
20
39.599999999999937
30
0
40
0.50000000000000711
210
7.7037197775489434e-34
220
7.0560988346432964e-47
230
1
100
AcDbArc
50
0
51
89.999999999995111
0
LINE
5
506
100
AcDbEntity
8
0
100
AcDbLine
10
125.32499999999992
20
40.099999999999945
30
0
11
94.499999999999886
21
40.09999999999998
31
0
0
ARC
5
507
100
AcDbEntity
8
0
100
AcDbCircle
10
89.999999999999858
20
40.099999999999987
30
0
40
4.5000000000000284
210
7.7037197775489434e-34
220
-1.5205061461857728e-48
230
1
100
AcDbArc
50
0
51
180
0
LINE
5
508
100
AcDbEntity
8
0
100
AcDbLine
10
85.499999999999829
20
40.099999999999994
30
0
11
4.4999999999999751
21
40.099999999999987
31
0
0
ARC
5
509
100
AcDbEntity
8
0
100
AcDbCircle
10
0
20
40.099999999999973
30
0
40
4.5000000000000107
210
0
220
-0
230
1
100
AcDbArc
50
0
51
180
0
LINE
5
510
100
AcDbEntity
8
0
100
AcDbLine
10
-4.5000000000000284
20
40.099999999999966
30
0
11
-85.499999999999943
21
40.099999999999973
31
0
0
ARC
5
511
100
AcDbEntity
8
0
100
AcDbCircle
10
-89.999999999999929
20
40.09999999999998
30
0
40
4.4999999999999929
210
0
220
0
230
1
100
AcDbArc
50
0
51
180
0
LINE
5
512
100
AcDbEntity
8
0
100
AcDbLine
10
-94.499999999999943
20
40.09999999999998
30
0
11
-125.32499999999993
21
40.099999999999987
31
-3.0814879110195774e-32
0
ARC
5
513
100
AcDbEntity
8
0
100
AcDbCircle
10
-125.32499999999992
20
39.599999999999994
30
-2.7755575615628914e-16
40
0.49999999999999822
210
0
220
0
230
1
100
AcDbArc
50
90.000000000001634
51
180
0
LINE
5
514
100
AcDbEntity
8
0
100
AcDbLine
10
-125.82499999999993
20
39.599999999999994
30
-2.7755575615628914e-16
11
-125.82499999999993
21
4.4999999999999885
31
-2.7755575615628914e-16
0
ARC
5
515
100
AcDbEntity
8
0
100
AcDbCircle
10
-125.82499999999993
20
-1.7763568394002505e-14
30
-2.7755575615628914e-16
40
4.4999999999999973
210
0
220
0
230
1
100
AcDbArc
50
90.000000000000185
51
270.00000000000034
0
LINE
5
516
100
AcDbEntity
8
0
100
AcDbLine
10
-125.82499999999989
20
-4.5000000000000107
30
-2.7755575615628914e-16
11
-125.82499999999989
21
-39.600000000000016
31
-2.7755575615628914e-16
0
ARC
5
517
100
AcDbEntity
8
0
100
AcDbCircle
10
-125.32499999999992
20
-39.600000000000023
30
-2.7755575615628914e-16
40
0.49999999999998934
210
0
220
2.4074124304840448e-35
230
1
100
AcDbArc
50
180
51
270.00000000000159
0
LINE
5
518
100
AcDbEntity
8
0
100
AcDbLine
10
-125.32499999999992
20
-40.100000000000016
30
-2.7755575615628914e-16
11
-64.499999999999972
21
-40.100000000000016
31
-2.7755575615628914e-16
0
ARC
5
519
100
AcDbEntity
8
0
100
AcDbCircle
10
-59.999999999999986
20
-40.09999999999998
30
0
40
4.4999999999999929
210
-1.9890795805488261e-49
220
4.8148248609680896e-35
230
1
100
AcDbArc
50
-180
51
0
0
LINE
5
520
100
AcDbEntity
8
0
100
AcDbLine
10
-55.499999999999986
20
-40.09999999999998
30
0
11
55.499999999999915
21
-40.099999999999994
31
0
0
ARC
5
521
100
AcDbEntity
8
0
100
AcDbCircle
10
59.999999999999929
20
-40.099999999999994
30
-2.7755575615628914e-16
40
4.5000000000000284
210
0
220
0
230
1
100
AcDbArc
50
180
51
360
0
LINE
5
522
100
AcDbEntity
8
0
100
AcDbLine
10
64.499999999999957
20
-40.100000000000016
30
-2.7755575615628914e-16
11
125.32499999999985
21
-40.09999999999998
31
-2.7755575615628914e-16
0
ARC
5
523
100
AcDbEntity
8
0
100
AcDbCircle
10
125.32499999999978
20
-39.599999999999937
30
0
40
0.5000000000000604
210
-1.0947644252536309e-45
220
7.7037197775489434e-33
230
1
100
AcDbArc
50
270.00000000000813
51
360
0
LINE
5
524
100
AcDbEntity
8
0
100
AcDbLine
10
125.82499999999982
20
-39.599999999999973
30
0
11
125.82499999999989
21
-4.4999999999999929
31
0
0
ENDSEC
0
SECTION
2
OBJECTS
0
DICTIONARY
5
C
100
AcDbDictionary
3
ACAD_GROUP
350
D
3
ACAD_MLINESTYLE
350
17
0
DICTIONARY
5
D
100
AcDbDictionary
0
DICTIONARY
5
1A
330
C
100
AcDbDictionary
0
DICTIONARY
5
17
100
AcDbDictionary
0
ENDSEC
0
EOF
