0
SECTION
2
HEADER
9
$INSUNITS
70
4
9
$ACADVER
1
AC1014
9
$HANDSEED
5
FFFF
0
ENDSEC
0
SECTION
2
TABLES
0
TABLE
2
VPORT
5
8
100
AcDbSymbolTable
0
ENDTAB
0
TABLE
2
LTYPE
5
5
100
AcDbSymbolTable
0
LTYPE
5
14
100
AcDbSymbolTableRecord
100
AcDbLinetypeTableRecord
2
BYBLOCK
70
0
0
LTYPE
5
15
100
AcDbSymbolTableRecord
100
AcDbLinetypeTableRecord
2
BYLAYER
70
0
0
ENDTAB
0
TABLE
2
LAYER
5
2
100
AcDbSymbolTable
70
2
0
LAYER
5
50
100
AcDbSymbolTableRecord
100
AcDbLayerTableRecord
2
0
70
0
6
CONTINUOUS
0
ENDTAB
0
TABLE
2
STYLE
5
3
100
AcDbSymbolTable
70
1
0
STYLE
5
11
100
AcDbSymbolTableRecord
100
AcDbTextStyleTableRecord
2
STANDARD
70
0
0
ENDTAB
0
TABLE
2
VIEW
5
6
100
AcDbSymbolTable
70
0
0
ENDTAB
0
TABLE
2
UCS
5
7
100
AcDbSymbolTable
70
0
0
ENDTAB
0
TABLE
2
APPID
5
9
100
AcDbSymbolTable
70
2
0
APPID
5
12
100
AcDbSymbolTableRecord
100
AcDbRegAppTableRecord
2
ACAD
70
0
0
ENDTAB
0
TABLE
2
DIMSTYLE
5
A
100
AcDbSymbolTable
70
1
0
ENDTAB
0
TABLE
2
BLOCK_RECORD
5
1
100
AcDbSymbolTable
70
1
0
BLOCK_RECORD
5
1F
100
AcDbSymbolTableRecord
100
AcDbBlockTableRecord
2
*MODEL_SPACE
0
BLOCK_RECORD
5
1B
100
AcDbSymbolTableRecord
100
AcDbBlockTableRecord
2
*PAPER_SPACE
0
ENDTAB
0
ENDSEC
0
SECTION
2
BLOCKS
0
BLOCK
5
20
100
AcDbEntity
100
AcDbBlockBegin
2
*MODEL_SPACE
0
ENDBLK
5
21
100
AcDbEntity
100
AcDbBlockEnd
0
BLOCK
5
1C
100
AcDbEntity
100
AcDbBlockBegin
2
*PAPER_SPACE
0
ENDBLK
5
1D
100
AcDbEntity
100
AcDbBlockEnd
0
ENDSEC
0
SECTION
2
ENTITIES
0
LINE
5
100
100
AcDbEntity
8
0
100
AcDbLine
10
18.123626132141073
20
36.729558202872667
30
0
11
15.695122871210234
21
40.162951164028868
31
0
0
ARC
5
101
100
AcDbEntity
8
0
100
AcDbCircle
10
11.613047925054651
20
37.275622964123507
30
0
40
4.9999999999999849
210
0
220
-0
230
1
100
AcDbArc
50
35.272485968602432
51
94.827017819835959
0
ARC
5
102
100
AcDbEntity
8
0
100
AcDbCircle
10
0.059564577853894463
20
174.08865970604779
30
0
40
132.30000000000425
210
0
220
0
230
1
100
AcDbArc
50
269.9827225321921
51
274.8270178198357
0
LINE
5
103
100
AcDbEntity
8
0
100
AcDbLine
10
0.019669685494214662
20
41.788665721170027
30
0
11
-0.078048708078970463
21
41.788695188025443
31
0
0
ARC
5
104
100
AcDbEntity
8
0
100
AcDbCircle
10
-0.038153815719699224
20
174.0886891729055
30
0
40
132.30000000000655
210
0
220
0
230
1
100
AcDbArc
50
265.16562884668349
51
269.9827225321921
0
ARC
5
105
100
AcDbEntity
8
0
100
AcDbCircle
10
-11.609195636472709
20
37.277136330376194
30
0
40
5.0000000000000053
210
0
220
-0
230
1
100
AcDbArc
50
85.165628846683788
51
144.7003127432194
0
LINE
5
106
100
AcDbEntity
8
0
100
AcDbLine
10
-15.689899357699808
20
40.166402178228097
30
0
11
-18.12286951156727
21
36.730155434819835
31
0
0
ARC
5
107
100
AcDbEntity
8
0
100
AcDbCircle
10
-16.5410776935828
20
35.50625403166169
30
0
40
2.0000000000237721
210
0
220
0
230
1
100
AcDbArc
50
142.26931456862897
51
143.38198868397762
0
ARC
5
108
100
AcDbEntity
8
0
100
AcDbCircle
10
-21.998961749379955
20
39.562299104611249
30
0
40
4.7999999999999865
210
0
220
0
230
1
100
AcDbArc
50
204.3522639050407
51
323.38198868397257
0
ARC
5
109
100
AcDbEntity
8
0
100
AcDbCircle
10
-28.193948909034656
20
36.758349374189137
30
0
40
1.9999999999280154
210
0
220
-0
230
1
100
AcDbArc
50
24.352263905042602
51
25.596398825286755
0
LINE
5
110
100
AcDbEntity
8
0
100
AcDbLine
10
-26.390229544637656
20
37.622407505457701
30
0
11
-27.814182053498779
21
40.996952520319745
31
0
0
ARC
5
111
100
AcDbEntity
8
0
100
AcDbCircle
10
-32.42084819036716
20
39.05308341376179
30
0
40
5.0000000000000266
210
0
220
-0
230
1
100
AcDbArc
50
22.878224476468745
51
82.999999999999815
0
LINE
5
112
100
AcDbEntity
8
0
100
AcDbLine
10
-31.811501473341401
20
44.015814171968429
30
0
11
-68.563916746576254
21
48.528443343413784
31
0
0
ARC
5
113
100
AcDbEntity
8
0
100
AcDbCircle
10
-69.282945872666645
20
42.672421048729987
30
0
40
5.900000000000003
210
0
220
-0
230
1
100
AcDbArc
50
82.999999999999787
51
149.59974977255308
0
ARC
5
114
100
AcDbEntity
8
0
100
AcDbCircle
10
-76.096786400357729
20
46.670117543362153
30
0
40
2.0000000000000009
210
0
220
0
230
1
100
AcDbArc
50
262.99999999999972
51
329.59974977255314
0
LINE
5
115
100
AcDbEntity
8
0
100
AcDbLine
10
-76.340525087168032
20
44.685025240079511
30
0
11
-102.08098316983848
21
47.84555608319976
31
0
0
ARC
5
116
100
AcDbEntity
8
0
100
AcDbCircle
10
-102.32472185664875
20
45.860463779917126
30
0
40
2.0000000000000013
210
0
220
-0
230
1
100
AcDbArc
50
82.999999999999758
51
160.91274672919056
0
ARC
5
117
100
AcDbEntity
8
0
100
AcDbCircle
10
-110.16840184813628
20
48.574627406366034
30
0
40
6.3000000000000123
210
0
220
0
230
1
100
AcDbArc
50
258.16207903892399
51
340.91274672919008
0
ARC
5
118
100
AcDbEntity
8
0
100
AcDbCircle
10
-111.87109593681429
20
40.451153220995515
30
0
40
2.0000000000000098
210
0
220
-0
230
1
100
AcDbArc
50
78.162079038924318
51
172.99999999999949
0
LINE
5
119
100
AcDbEntity
8
0
100
AcDbLine
10
-113.85618824009694
20
40.694891907805832
30
0
11
-122.03936976309475
21
-25.951773298486707
31
0
0
ARC
5
120
100
AcDbEntity
8
0
100
AcDbCircle
10
-120.05427745981208
20
-26.195511985296996
30
0
40
2.0000000000000169
210
0
220
0
230
1
100
AcDbArc
50
173.00000000000051
51
267.83792096107618
0
ARC
5
121
100
AcDbEntity
8
0
100
AcDbCircle
10
-120.36740693619215
20
-34.489603251434716
30
0
40
6.3000000000000158
210
-0
220
0
230
1
100
AcDbArc
50
-11.83792096106006
51
87.837920961076421
0
ARC
5
122
100
AcDbEntity
8
0
100
AcDbCircle
10
-112.24393275082116
20
-36.192297340110457
30
0
40
2.0000000000000138
210
0
220
0
230
1
100
AcDbArc
50
168.16207903893994
51
262.99999999999608
0
LINE
5
123
100
AcDbEntity
8
0
100
AcDbLine
10
-112.48767143763159
20
-38.177389643393099
30
0
11
-24.338434855989401
21
-49.000754950997944
31
0
0
LINE
5
124
100
AcDbEntity
8
0
100
AcDbLine
10
-24.338434855989401
20
-49.000754950997944
30
0
11
-8.148768551843375
21
-49.000754950998726
31
0
0
ARC
5
125
100
AcDbEntity
8
0
100
AcDbCircle
10
-8.1487685518432684
20
-47.000754950998747
30
0
40
1.9999999999999751
210
0
220
0
230
1
100
AcDbArc
50
269.99999999999693
51
349.04578448803386
0
ARC
5
126
100
AcDbEntity
8
0
100
AcDbCircle
10
1.1581846592889633e-11
20
-48.577958516903131
30
0
40
6.2999999999999972
210
0
220
-0
230
1
100
AcDbArc
50
10.954215511961113
51
169.04578448803318
0
ARC
5
127
100
AcDbEntity
8
0
100
AcDbCircle
10
8.1487685518665742
20
-47.000754950999529
30
0
40
1.9999999999999996
210
0
220
0
230
1
100
AcDbArc
50
190.95421551196139
51
269.99999999999744
0
LINE
5
128
100
AcDbEntity
8
0
100
AcDbLine
10
8.1487685518664854
20
-49.000754950999521
30
0
11
24.338434855991817
21
-49.000754951000303
31
0
0
LINE
5
129
100
AcDbEntity
8
0
100
AcDbLine
10
24.338434855991817
20
-49.000754951000303
30
0
11
112.48767143763226
21
-38.177389643394754
31
0
0
ARC
5
130
100
AcDbEntity
8
0
100
AcDbCircle
10
112.24393275082194
20
-36.192297340112162
30
0
40
1.9999999999999507
210
-0
220
0
230
1
100
AcDbArc
50
-82.999999999999162
51
11.837920961083327
0
ARC
5
131
100
AcDbEntity
8
0
100
AcDbCircle
10
120.36740693619224
20
-34.48960325143328
30
0
40
6.299999999999998
210
0
220
0
230
1
100
AcDbArc
50
92.162079038924105
51
191.83792096108192
0
ARC
5
132
100
AcDbEntity
8
0
100
AcDbCircle
10
120.05427745981207
20
-26.195511985295525
30
0
40
2.0000000000000457
210
-0
220
0
230
1
100
AcDbArc
50
-87.837920961075426
51
6.9999999999984066
0
LINE
5
133
100
AcDbEntity
8
0
100
AcDbLine
10
122.03936976309477
20
-25.951773298485278
30
0
11
113.85650980000635
21
40.692273012514583
31
0
0
ARC
5
134
100
AcDbEntity
8
0
100
AcDbCircle
10
111.87141749672369
20
40.448534325704273
30
0
40
2.0000000000000204
210
0
220
-0
230
1
100
AcDbArc
50
7.0000000000003899
51
101.83792096107403
0
ARC
5
135
100
AcDbEntity
8
0
100
AcDbCircle
10
110.16872340804588
20
48.57200851107487
30
0
40
6.2999999999999892
210
0
220
0
230
1
100
AcDbArc
50
199.06862667176713
51
281.83792096107493
0
ARC
5
136
100
AcDbEntity
8
0
100
AcDbCircle
10
102.32416146873005
20
45.860394972932554
30
0
40
1.9999999999999556
210
0
220
-0
230
1
100
AcDbArc
50
19.068626671766783
51
97.000000000000796
0
LINE
5
137
100
AcDbEntity
8
0
100
AcDbLine
10
102.08042278191974
20
47.84548727621516
30
0
11
76.340525087169326
21
44.685025240079604
31
0
0
ARC
5
138
100
AcDbEntity
8
0
100
AcDbCircle
10
76.096786400359036
20
46.670117543362252
30
0
40
2.0000000000000009
210
0
220
0
230
1
100
AcDbArc
50
210.40025022744874
51
276.99999999999983
0
ARC
5
139
100
AcDbEntity
8
0
100
AcDbCircle
10
69.282945872668066
20
42.672421048729916
30
0
40
5.8999999999999808
210
0
220
-0
230
1
100
AcDbArc
50
30.400250227448272
51
97.000000000007603
0
LINE
5
140
100
AcDbEntity
8
0
100
AcDbLine
10
68.563916746576922
20
48.528443343413592
30
0
11
31.812841471701656
21
44.015978703078702
31
0
0
ARC
5
141
100
AcDbEntity
8
0
100
AcDbCircle
10
32.422188188727375
20
39.053247944872076
30
0
40
5.0000000000000133
210
0
220
0
230
1
100
AcDbArc
50
96.999999999999773
51
157.14859535715377
0
LINE
5
142
100
AcDbEntity
8
0
100
AcDbLine
10
27.814612642334868
20
40.994960483917417
30
0
11
26.393196922852109
21
37.622020268180485
31
0
0
ARC
5
143
100
AcDbEntity
8
0
100
AcDbCircle
10
28.197298598458946
20
36.758760664360921
30
0
40
1.9999999998785281
210
0
220
0
230
1
100
AcDbArc
50
154.42896399075946
51
155.67376590689213
0
ARC
5
144
100
AcDbEntity
8
0
100
AcDbCircle
10
22.001038227230456
20
39.559895686149723
30
0
40
4.8000000000000362
210
0
220
0
230
1
100
AcDbArc
50
216.59158360537114
51
335.67376590686513
0
ARC
5
145
100
AcDbEntity
8
0
100
AcDbCircle
10
16.541283898984851
20
35.506368496662347
30
0
40
2.0000000000521707
210
0
220
-0
230
1
100
AcDbArc
50
36.591583605384038
51
37.704910776409292
0
ARC
5
146
100
AcDbEntity
8
0
100
AcDbCircle
10
5.804926006755089
20
-33.871133144896717
30
0
40
1.1999999999999744
210
-0
220
0
230
1
100
AcDbArc
50
-90
51
0
0
LINE
5
147
100
AcDbEntity
8
0
100
AcDbLine
10
7.0049260067550456
20
23.738086806921395
30
0
11
7.0049260067550634
21
-33.871133144896717
31
0
0
ARC
5
148
100
AcDbEntity
8
0
100
AcDbCircle
10
6.0049260067550492
20
23.738086806921395
30
0
40
0.99999999999999645
210
0
220
-0
230
1
100
AcDbArc
50
0
51
90
0
LINE
5
149
100
AcDbEntity
8
0
100
AcDbLine
10
-5.995073993244926
20
24.738086806921391
30
0
11
6.0049260067550492
21
24.738086806921391
31
0
0
ARC
5
150
100
AcDbEntity
8
0
100
AcDbCircle
10
-5.995073993244926
20
23.738086806921402
30
0
40
0.99999999999998757
210
0
220
-0
230
1
100
AcDbArc
50
90
51
180
0
LINE
5
151
100
AcDbEntity
8
0
100
AcDbLine
10
-6.9950739932449402
20
-33.871133144896717
30
0
11
-6.9950739932449046
21
23.738086806921395
31
0
0
ARC
5
152
100
AcDbEntity
8
0
100
AcDbCircle
10
-5.795073993244948
20
-33.871133144896717
30
0
40
1.1999999999999922
210
0
220
0
230
1
100
AcDbArc
50
180
51
270
0
LINE
5
153
100
AcDbEntity
8
0
100
AcDbLine
10
5.804926006755089
20
-35.071133144896692
30
0
11
-5.795073993244948
21
-35.071133144896713
31
0
0
LINE
5
154
100
AcDbEntity
8
0
100
AcDbLine
10
56.328408047356021
20
-36.258378841788364
30
0
11
50.37313113750804
21
-36.989594902219245
31
0
0
ARC
5
155
100
AcDbEntity
8
0
100
AcDbCircle
10
50.312196465805016
20
-36.493321826398713
30
0
40
0.49999999999993155
210
0
220
0
230
1
100
AcDbArc
50
187.00000000005687
51
277.00000000005281
0
LINE
5
156
100
AcDbEntity
8
0
100
AcDbLine
10
49.815923389984476
20
-36.554256498101772
30
0
11
47.866013895502718
21
-20.673518071838785
31
0
0
ARC
5
157
100
AcDbEntity
8
0
100
AcDbCircle
10
48.3622869713234
20
-20.612583400136238
30
0
40
0.49999999999999872
210
0
220
0
230
1
100
AcDbArc
50
97.000000000002771
51
186.9999999999969
0
LINE
5
158
100
AcDbEntity
8
0
100
AcDbLine
10
48.301352299620802
20
-20.116310324315585
30
0
11
54.256629209468045
21
-19.385094263884433
31
0
0
ARC
5
159
100
AcDbEntity
8
0
100
AcDbCircle
10
54.317563881170599
20
-19.881367339705108
30
0
40
0.5000000000000141
210
0
220
-0
230
1
100
AcDbArc
50
6.9999999999999201
51
96.999999999997627
0
LINE
5
160
100
AcDbEntity
8
0
100
AcDbLine
10
54.813836956991281
20
-19.820432668002532
30
0
11
56.763746451473821
21
-35.701171094265753
31
0
0
ARC
5
161
100
AcDbEntity
8
0
100
AcDbCircle
10
56.267473375653111
20
-35.76210576596776
30
0
40
0.49999999999998479
210
-0
220
0
230
1
100
AcDbArc
50
-82.999999999960991
51
6.9999999999347278
0
ARC
5
162
100
AcDbEntity
8
0
100
AcDbCircle
10
32.569441459065075
20
-38.671858209108755
30
0
40
0.49999999999993616
210
-0
220
0
230
1
100
AcDbArc
50
-82.999999999955349
51
6.9999999999338396
0
LINE
5
163
100
AcDbEntity
8
0
100
AcDbLine
10
31.115805040403384
20
-22.730185111145246
30
0
11
33.065714534885743
21
-38.610923537406762
31
0
0
ARC
5
164
100
AcDbEntity
8
0
100
AcDbCircle
10
30.619531964582709
20
-22.791119782847822
30
0
40
0.5000000000000141
210
0
220
-0
230
1
100
AcDbArc
50
7.0000000000000773
51
96.999999999998437
0
LINE
5
165
100
AcDbEntity
8
0
100
AcDbLine
10
24.60332038303191
20
-23.026062767458441
30
0
11
30.558597292880147
21
-22.294846707027148
31
0
0
ARC
5
166
100
AcDbEntity
8
0
100
AcDbCircle
10
24.664255054734507
20
-23.522335843279095
30
0
40
0.49999999999999872
210
0
220
0
230
1
100
AcDbArc
50
97.000000000002771
51
187.00000000000102
0
LINE
5
167
100
AcDbEntity
8
0
100
AcDbLine
10
26.11789147339648
20
-39.464008941242781
30
0
11
24.167981978913833
21
-23.583270514981677
31
0
0
ARC
5
168
100
AcDbEntity
8
0
100
AcDbCircle
10
26.614164549217119
20
-39.403074269539687
30
0
40
0.50000000000004163
210
0
220
0
230
1
100
AcDbArc
50
187.00000000005949
51
277.00000000003905
0
LINE
5
169
100
AcDbEntity
8
0
100
AcDbLine
10
32.630376130768028
20
-39.168131284929302
30
0
11
26.675099220920035
21
-39.899347345360347
31
0
0
ARC
5
170
100
AcDbEntity
8
0
100
AcDbCircle
10
-32.569441459063967
20
-38.671858209108734
30
0
40
0.49999999999994055
210
0
220
0
230
1
100
AcDbArc
50
173.00000000006878
51
262.99999999995873
0
LINE
5
171
100
AcDbEntity
8
0
100
AcDbLine
10
-26.675099220918881
20
-39.899347345360347
30
0
11
-32.630376130766891
21
-39.168131284929288
31
0
0
ARC
5
172
100
AcDbEntity
8
0
100
AcDbCircle
10
-26.614164549215946
20
-39.403074269539722
30
0
40
0.50000000000000455
210
0
220
0
230
1
100
AcDbArc
50
262.99999999995845
51
352.99999999994395
0
LINE
5
173
100
AcDbEntity
8
0
100
AcDbLine
10
-24.167981978912891
20
-23.583270514981429
30
0
11
-26.117891473395343
21
-39.464008941242781
31
0
0
ARC
5
174
100
AcDbEntity
8
0
100
AcDbCircle
10
-24.664255054733548
20
-23.522335843278832
30
0
40
0.49999999999999872
210
-0
220
0
230
1
100
AcDbArc
50
-7.000000000002669
51
83.000000000001421
0
LINE
5
175
100
AcDbEntity
8
0
100
AcDbLine
10
-30.558597292879526
20
-22.294846707027382
30
0
11
-24.603320383030987
21
-23.026062767458171
31
0
0
ARC
5
176
100
AcDbEntity
8
0
100
AcDbCircle
10
-30.619531964582087
20
-22.791119782848035
30
0
40
0.49999999999999434
210
0
220
-0
230
1
100
AcDbArc
50
83.000000000001279
51
173.00000000000136
0
LINE
5
177
100
AcDbEntity
8
0
100
AcDbLine
10
-33.065714534884648
20
-38.610923537406762
30
0
11
-31.115805040402744
21
-22.730185111145474
31
0
0
ARC
5
178
100
AcDbEntity
8
0
100
AcDbCircle
10
-50.312196465804533
20
-36.493321826398734
30
0
40
0.49999999999996592
210
0
220
0
230
1
100
AcDbArc
50
263.0000000000116
51
352.99999999995413
0
LINE
5
179
100
AcDbEntity
8
0
100
AcDbLine
10
-47.866013895501602
20
-20.673518071840789
30
0
11
-49.815923389983951
21
-36.554256498101701
31
0
0
ARC
5
180
100
AcDbEntity
8
0
100
AcDbCircle
10
-48.362286971322263
20
-20.612583400138213
30
0
40
0.49999999999999656
210
-0
220
0
230
1
100
AcDbArc
50
-7.000000000000175
51
83.000000000000568
0
LINE
5
181
100
AcDbEntity
8
0
100
AcDbLine
10
-54.256629209467761
20
-19.385094263886835
30
0
11
-48.301352299619694
21
-20.116310324317553
31
0
0
ARC
5
182
100
AcDbEntity
8
0
100
AcDbCircle
10
-54.317563881170315
20
-19.881367339707488
30
0
40
0.49999999999999434
210
0
220
-0
230
1
100
AcDbArc
50
83.000000000002089
51
173.00000000000139
0
LINE
5
183
100
AcDbEntity
8
0
100
AcDbLine
10
-56.763746451473196
20
-35.701171094265717
30
0
11
-54.813836956990976
21
-19.820432668004926
31
0
0
ARC
5
184
100
AcDbEntity
8
0
100
AcDbCircle
10
-56.267473375652429
20
-35.762105765967711
30
0
40
0.50000000000003086
210
0
220
0
230
1
100
AcDbArc
50
173.00000000006753
51
262.99999999999932
0
LINE
5
185
100
AcDbEntity
8
0
100
AcDbLine
10
-50.373131137507002
20
-36.989594902219373
30
0
11
-56.328408047355012
21
-36.258378841788399
31
0
0
LINE
5
186
100
AcDbEntity
8
0
100
AcDbLine
10
20.517641166231346
20
-2.7730186916308686
30
0
11
18.933339701964425
21
10.130081279706111
31
0
0
ARC
5
187
100
AcDbEntity
8
0
100
AcDbCircle
10
19.429612777785028
20
10.191015951408815
30
0
40
0.49999999999996703
210
0
220
0
230
1
100
AcDbArc
50
96.99999999993139
51
187.00000000001543
0
LINE
5
188
100
AcDbEntity
8
0
100
AcDbLine
10
19.368678106083053
20
10.687289027229516
30
0
11
32.27177807742008
21
12.271590491496474
31
0
0
ARC
5
189
100
AcDbEntity
8
0
100
AcDbCircle
10
32.332712749122038
20
11.775317415675657
30
0
40
0.50000000000008682
210
0
220
-0
230
1
100
AcDbArc
50
7.0000000000015907
51
96.999999999927653
0
LINE
5
190
100
AcDbEntity
8
0
100
AcDbLine
10
32.828985824942777
20
11.836252087378254
30
0
11
34.413287289209805
21
-1.0668478839589479
31
0
0
ARC
5
191
100
AcDbEntity
8
0
100
AcDbCircle
10
33.917014213389066
20
-1.1277825556613852
30
0
40
0.5000000000000463
210
-0
220
0
230
1
100
AcDbArc
50
-82.999999999953616
51
6.9999999999834257
0
LINE
5
192
100
AcDbEntity
8
0
100
AcDbLine
10
33.977948885092047
20
-1.624055631482042
30
0
11
21.07484891375508
21
-3.2083570957490704
31
0
0
ARC
5
193
100
AcDbEntity
8
0
100
AcDbCircle
10
21.013914242052074
20
-2.7120840199284135
30
0
40
0.50000000000005196
210
0
220
0
230
1
100
AcDbArc
50
186.9999999999855
51
277.00000000004917
0
LINE
5
194
100
AcDbEntity
8
0
100
AcDbLine
10
-110.80580857232275
20
-2.076970776990299
30
0
11
-97.902708600985648
21
-3.661272241257274
31
0
0
ARC
5
195
100
AcDbEntity
8
0
100
AcDbCircle
10
-97.963643272688245
20
-4.1575453170779131
30
0
40
0.49999999999998107
210
-0
220
0
230
1
100
AcDbArc
50
-7.000000000002923
51
82.999999999996916
0
LINE
5
196
100
AcDbEntity
8
0
100
AcDbLine
10
-97.46737019686762
20
-4.2184799887805102
30
0
11
-99.051671661134463
21
-17.121579960117714
31
0
0
ARC
5
197
100
AcDbEntity
8
0
100
AcDbCircle
10
-99.547944736955145
20
-17.060645288415117
30
0
40
0.50000000000001632
210
0
220
0
230
1
100
AcDbArc
50
262.99999999999756
51
352.99999999999767
0
LINE
5
198
100
AcDbEntity
8
0
100
AcDbLine
10
-99.608879408657742
20
-17.556918364235791
30
0
11
-112.51197937999484
21
-15.972616899968868
31
0
0
ARC
5
199
100
AcDbEntity
8
0
100
AcDbCircle
10
-112.45104470829222
20
-15.476343824148193
30
0
40
0.5000000000000141
210
0
220
0
230
1
100
AcDbArc
50
172.99999999999966
51
262.99999999999409
0
LINE
5
200
100
AcDbEntity
8
0
100
AcDbLine
10
-112.9473177841129
20
-15.415409152445614
30
0
11
-111.36301631984605
21
-2.5123091811084119
31
0
0
ARC
5
201
100
AcDbEntity
8
0
100
AcDbCircle
10
-110.86674324402534
20
-2.5732438528110091
30
0
40
0.50000000000005163
210
0
220
-0
230
1
100
AcDbArc
50
82.999999999998039
51
172.99999999999801
0
LINE
5
202
100
AcDbEntity
8
0
100
AcDbLine
10
78.414301664252065
20
-1.2558821859335811
30
0
11
91.317401635590073
21
0.32841927833343831
31
0
0
ARC
5
203
100
AcDbEntity
8
0
100
AcDbCircle
10
91.378336307292031
20
-0.16785379748733398
30
0
40
0.5000000000000494
210
0
220
-0
230
1
100
AcDbArc
50
6.9999999999999201
51
96.999999999928178
0
LINE
5
204
100
AcDbEntity
8
0
100
AcDbLine
10
91.874609383112741
20
-0.1069191257847546
30
0
11
93.458910847379698
21
-13.010019097121939
31
0
0
ARC
5
205
100
AcDbEntity
8
0
100
AcDbCircle
10
92.962637771559059
20
-13.0709537688245
30
0
40
0.49999999999998013
210
-0
220
0
230
1
100
AcDbArc
50
-82.999999999947832
51
6.9999999999988756
0
LINE
5
206
100
AcDbEntity
8
0
100
AcDbLine
10
93.023572443262083
20
-13.567226844645086
30
0
11
80.120472471924046
21
-15.151528308912221
31
0
0
ARC
5
207
100
AcDbEntity
8
0
100
AcDbCircle
10
80.059537800222046
20
-14.655255233091387
30
0
40
0.50000000000008682
210
0
220
0
230
1
100
AcDbArc
50
187.00000000000156
51
276.99999999993258
0
LINE
5
208
100
AcDbEntity
8
0
100
AcDbLine
10
79.563264724401307
20
-14.716189904793984
30
0
11
77.978963260134421
21
-1.8130899334567641
31
0
0
ARC
5
209
100
AcDbEntity
8
0
100
AcDbCircle
10
78.475236335954989
20
-1.7521552617541669
30
0
40
0.49999999999996714
210
0
220
0
230
1
100
AcDbArc
50
97.000000000040885
51
187.00000000000392
0
ARC
5
210
100
AcDbEntity
8
0
100
AcDbCircle
10
23.335525233920063
20
-21.620088208695691
30
0
40
0.50000000000006362
210
0
220
0
230
1
100
AcDbArc
50
186.999999999946
51
277.00000000004241
0
LINE
5
211
100
AcDbEntity
8
0
100
AcDbLine
10
36.29955987696006
20
-20.532059820249231
30
0
11
23.396459905623015
21
-22.116361284516401
31
0
0
ARC
5
212
100
AcDbEntity
8
0
100
AcDbCircle
10
36.238625205257037
20
-20.035786744428592
30
0
40
0.50000000000003297
210
-0
220
0
230
1
100
AcDbArc
50
-82.999999999948528
51
6.9999999999842082
0
LINE
5
213
100
AcDbEntity
8
0
100
AcDbLine
10
35.15059681681079
20
-7.0717521013889506
30
0
11
36.734898281077747
21
-19.974852072726151
31
0
0
ARC
5
214
100
AcDbEntity
8
0
100
AcDbCircle
10
34.65432374099008
20
-7.13268677309153
30
0
40
0.5000000000000494
210
0
220
-0
230
1
100
AcDbArc
50
6.9999999999999201
51
96.999999999933081
0
LINE
5
215
100
AcDbEntity
8
0
100
AcDbLine
10
21.690289097951059
20
-8.2207151615376883
30
0
11
34.593389069288079
21
-6.636413697270731
31
0
0
ARC
5
216
100
AcDbEntity
8
0
100
AcDbCircle
10
21.751223769653087
20
-8.7169882373584162
30
0
40
0.49999999999999994
210
0
220
0
230
1
100
AcDbArc
50
96.999999999937089
51
187.00000000000037
0
LINE
5
217
100
AcDbEntity
8
0
100
AcDbLine
10
22.839252158099281
20
-21.681022880397805
30
0
11
21.254950693832413
21
-8.7779229090609956
31
0
0
ARC
5
218
100
AcDbEntity
8
0
100
AcDbCircle
10
53.562327929758013
20
-4.8110757812233995
30
0
40
0.5000000000000977
210
0
220
-0
230
1
100
AcDbArc
50
7.0000000000116636
51
97.000000000043983
0
LINE
5
219
100
AcDbEntity
8
0
100
AcDbLine
10
40.598293286718047
20
-5.8991041696695934
30
0
11
53.50139325805506
21
-4.3148027054027249
31
0
0
ARC
5
220
100
AcDbEntity
8
0
100
AcDbCircle
10
40.659227958420047
20
-6.3953772454903213
30
0
40
0.49999999999999567
210
0
220
0
230
1
100
AcDbArc
50
96.999999999933848
51
187.00000000001097
0
LINE
5
221
100
AcDbEntity
8
0
100
AcDbLine
10
41.747256346867076
20
-19.359411888530119
30
0
11
40.162954882599408
21
-6.4563119171929895
31
0
0
ARC
5
222
100
AcDbEntity
8
0
100
AcDbCircle
10
42.243529422687075
20
-19.298477216827521
30
0
40
0.4999999999993463
210
0
220
0
230
1
100
AcDbArc
50
187.00000000001185
51
277.00000000004468
0
LINE
5
223
100
AcDbEntity
8
0
100
AcDbLine
10
55.20756406572707
20
-18.210448828381345
30
0
11
42.304464094389957
21
-19.794750292647471
31
0
0
ARC
5
224
100
AcDbEntity
8
0
100
AcDbCircle
10
55.146629394025069
20
-17.714175752560621
30
0
40
0.49999999999999567
210
-0
220
0
230
1
100
AcDbArc
50
-83.00000000006608
51
7.0000000000126557
0
LINE
5
225
100
AcDbEntity
8
0
100
AcDbLine
10
54.058601005578751
20
-4.7501411095207136
30
0
11
55.642902469845751
21
-17.653241080857931
31
0
0
LINE
5
226
100
AcDbEntity
8
0
100
AcDbLine
10
31.656337893224045
20
17.283948557285058
30
0
11
18.753237921887074
21
15.699647093018161
31
0
0
ARC
5
227
100
AcDbEntity
8
0
100
AcDbCircle
10
18.692303250184086
20
16.195920168838818
30
0
40
0.50000000000003864
210
0
220
0
230
1
100
AcDbArc
50
186.99999999998977
51
277.00000000004724
0
LINE
5
228
100
AcDbEntity
8
0
100
AcDbLine
10
18.196030174363376
20
16.134985497136327
30
0
11
16.611728710096418
21
29.038085468473305
31
0
0
ARC
5
229
100
AcDbEntity
8
0
100
AcDbCircle
10
17.108001785917075
20
29.099020140175984
30
0
40
0.49999999999999778
210
0
220
0
230
1
100
AcDbArc
50
96.999999999935056
51
187.00000000001216
0
LINE
5
230
100
AcDbEntity
8
0
100
AcDbLine
10
17.047067114215064
20
29.595293215996712
30
0
11
29.950167085552071
21
31.179594680263598
31
0
0
ARC
5
231
100
AcDbEntity
8
0
100
AcDbCircle
10
30.011101757254064
20
30.68332160444287
30
0
40
0.4999999999999778
210
0
220
-0
230
1
100
AcDbArc
50
7.0000000000001288
51
96.99999999993328
0
LINE
5
232
100
AcDbEntity
8
0
100
AcDbLine
10
30.507374833074703
20
30.744256276145443
30
0
11
32.091676297341735
21
17.841156304808258
31
0
0
ARC
5
233
100
AcDbEntity
8
0
100
AcDbCircle
10
31.595403221521057
20
17.780221633105675
30
0
40
0.50000000000001099
210
-0
220
0
230
1
100
AcDbArc
50
-82.999999999952294
51
7.0000000000008598
0
LINE
5
234
100
AcDbEntity
8
0
100
AcDbLine
10
94.408449677399361
20
20.694428417416724
30
0
11
92.824148213132403
21
33.597528388753936
31
0
0
ARC
5
235
100
AcDbEntity
8
0
100
AcDbCircle
10
93.320421288953042
20
33.658463060456405
30
0
40
0.49999999999997574
210
0
220
0
230
1
100
AcDbArc
50
97.000000000047308
51
186.99999999998823
0
LINE
5
236
100
AcDbEntity
8
0
100
AcDbLine
10
93.259486617250062
20
34.154736136276995
30
0
11
106.16258658858806
21
35.73903760054408
31
0
0
ARC
5
237
100
AcDbEntity
8
0
100
AcDbCircle
10
106.22352126029008
20
35.242764524723427
30
0
40
0.49999999999992417
210
0
220
-0
230
1
100
AcDbArc
50
6.9999999999831131
51
96.999999999938112
0
LINE
5
238
100
AcDbEntity
8
0
100
AcDbLine
10
106.7197943361107
20
35.303699196425846
30
0
11
108.30409580037779
21
22.400599225088655
31
0
0
ARC
5
239
100
AcDbEntity
8
0
100
AcDbCircle
10
107.80782272455711
20
22.339664553386164
30
0
40
0.49999999999997147
210
-0
220
0
230
1
100
AcDbArc
50
-82.999999999955961
51
6.9999999999900551
0
LINE
5
240
100
AcDbEntity
8
0
100
AcDbLine
10
107.86875739626007
20
21.843391477565575
30
0
11
94.965657424922071
21
20.259090013298415
31
0
0
ARC
5
241
100
AcDbEntity
8
0
100
AcDbCircle
10
94.904722753220113
20
20.755363089119196
30
0
40
0.50000000000007172
210
0
220
0
230
1
100
AcDbArc
50
186.99999999998718
51
276.99999999992792
0
LINE
5
242
100
AcDbEntity
8
0
100
AcDbLine
10
52.885953073859056
20
0.69755536038597299
30
0
11
39.982853102522057
21
-0.88674610388098429
31
0
0
ARC
5
243
100
AcDbEntity
8
0
100
AcDbCircle
10
39.921918430819034
20
-0.39047302806036299
30
0
40
0.50000000000002065
210
0
220
0
230
1
100
AcDbArc
50
187.00000000000634
51
277.00000000005161
0
LINE
5
244
100
AcDbEntity
8
0
100
AcDbLine
10
39.425645354998352
20
-0.45140769976299566
30
0
11
37.841343890731366
21
12.451692271574206
31
0
0
ARC
5
245
100
AcDbEntity
8
0
100
AcDbCircle
10
38.337616966552076
20
12.512626943276892
30
0
40
0.49999999999999994
210
0
220
0
230
1
100
AcDbArc
50
96.999999999937089
51
187.00000000001202
0
LINE
5
246
100
AcDbEntity
8
0
100
AcDbLine
10
38.276682294850048
20
13.00890001909762
30
0
11
51.179782266187047
21
14.593201483364417
31
0
0
ARC
5
247
100
AcDbEntity
8
0
100
AcDbCircle
10
51.24071693789007
20
14.096928407543787
30
0
40
0.50000000000002609
210
0
220
-0
230
1
100
AcDbArc
50
7.0000000000114557
51
97.000000000051557
0
LINE
5
248
100
AcDbEntity
8
0
100
AcDbLine
10
51.736990013710752
20
14.157863079246464
30
0
11
53.321291477976715
21
1.2547631079091381
31
0
0
ARC
5
249
100
AcDbEntity
8
0
100
AcDbCircle
10
52.825018402156033
20
1.1938284362065765
30
0
40
0.49999999999999772
210
-0
220
0
230
1
100
AcDbArc
50
-82.999999999948031
51
6.9999999999984066
0
LINE
5
250
100
AcDbEntity
8
0
100
AcDbLine
10
89.55299839124477
20
18.801085062982452
30
0
11
91.137299855511728
21
5.8979850916452392
31
0
0
ARC
5
251
100
AcDbEntity
8
0
100
AcDbCircle
10
90.641026779691046
20
5.8370504199427131
30
0
40
0.50000000000003297
210
-0
220
0
230
1
100
AcDbArc
50
-82.999999999948528
51
6.9999999999944391
0
LINE
5
252
100
AcDbEntity
8
0
100
AcDbLine
10
90.70196145139407
20
5.3407773441220741
30
0
11
77.798861480056104
21
3.756475879854726
31
0
0
ARC
5
253
100
AcDbEntity
8
0
100
AcDbCircle
10
77.737926808354047
20
4.2527489556757825
30
0
40
0.50000000000033362
210
0
220
0
230
1
100
AcDbArc
50
186.99999999999795
51
276.99999999993565
0
LINE
5
254
100
AcDbEntity
8
0
100
AcDbLine
10
77.241653732533052
20
4.1918142839731853
30
0
11
75.65735226826645
21
17.094914255310432
31
0
0
ARC
5
255
100
AcDbEntity
8
0
100
AcDbCircle
10
76.153625344087047
20
17.155848927012993
30
0
40
0.4999999999999582
210
0
220
0
230
1
100
AcDbArc
50
97.000000000047606
51
186.99999999999972
0
LINE
5
256
100
AcDbEntity
8
0
100
AcDbLine
10
76.092690672384066
20
17.652122002833561
30
0
11
88.995790643721065
21
19.236423467100543
31
0
0
ARC
5
257
100
AcDbEntity
8
0
100
AcDbCircle
10
89.05672531542406
20
18.740150391279862
30
0
40
0.50000000000005052
210
0
220
-0
230
1
100
AcDbArc
50
7.0000000000011724
51
97.000000000046313
0
ARC
5
258
100
AcDbEntity
8
0
100
AcDbCircle
10
58.986829399221023
20
0.6532347935695082
30
0
40
0.49999999999997147
210
0
220
0
230
1
100
AcDbArc
50
97.000000000044125
51
186.99999999999091
0
LINE
5
259
100
AcDbEntity
8
0
100
AcDbLine
10
60.074857787667085
20
-12.31079984947022
30
0
11
58.490556323400384
21
0.59230012186701764
31
0
0
ARC
5
260
100
AcDbEntity
8
0
100
AcDbCircle
10
60.571130863488122
20
-12.249865177767587
30
0
40
0.50000000000037326
210
0
220
0
230
1
100
AcDbArc
50
187.00000000000142
51
276.9999999999269
0
LINE
5
261
100
AcDbEntity
8
0
100
AcDbLine
10
73.535165506527051
20
-11.161836789321464
30
0
11
60.632065535190108
21
-12.746138253588688
31
0
0
ARC
5
262
100
AcDbEntity
8
0
100
AcDbCircle
10
73.47423083482505
20
-10.665563713500719
30
0
40
0.50000000000001321
210
-0
220
0
230
1
100
AcDbArc
50
-83.000000000066393
51
7.0000000000023217
0
LINE
5
263
100
AcDbEntity
8
0
100
AcDbLine
10
72.386202446378704
20
2.2984709295390626
30
0
11
73.970503910645732
21
-10.604629041798121
31
0
0
ARC
5
264
100
AcDbEntity
8
0
100
AcDbCircle
10
71.889929370558022
20
2.2375362578364566
30
0
40
0.50000000000001732
210
0
220
-0
230
1
100
AcDbArc
50
7.0000000000033653
51
97.000000000038568
0
LINE
5
265
100
AcDbEntity
8
0
100
AcDbLine
10
58.92589472751807
20
1.149507869390094
30
0
11
71.828994698855112
21
2.7338093336570779
31
0
0
LINE
5
266
100
AcDbEntity
8
0
100
AcDbLine
10
55.431635803931044
20
25.505208528064092
30
0
11
53.8473343396644
21
38.408308499401336
31
0
0
ARC
5
267
100
AcDbEntity
8
0
100
AcDbCircle
10
54.343607415485039
20
38.469243171103891
30
0
40
0.49999999999999345
210
0
220
0
230
1
100
AcDbArc
50
97.000000000047109
51
186.99999999999795
0
LINE
5
268
100
AcDbEntity
8
0
100
AcDbLine
10
54.282672743782058
20
38.965516246924494
30
0
11
67.185772715119128
21
40.549817711191317
31
0
0
ARC
5
269
100
AcDbEntity
8
0
100
AcDbCircle
10
67.246707386822081
20
40.053544635370798
30
0
40
0.49999999999991918
210
0
220
-0
230
1
100
AcDbArc
50
7.0000000000120304
51
97.000000000044977
0
LINE
5
270
100
AcDbEntity
8
0
100
AcDbLine
10
67.742980462642649
20
40.114479307073466
30
0
11
69.327281926909748
21
27.211379335736265
31
0
0
ARC
5
271
100
AcDbEntity
8
0
100
AcDbCircle
10
68.831008851089109
20
27.150444664033564
30
0
40
0.49999999999998246
210
-0
220
0
230
1
100
AcDbArc
50
-83.00000000007087
51
7.0000000000142215
0
LINE
5
272
100
AcDbEntity
8
0
100
AcDbLine
10
68.891943522791067
20
26.654171588212847
30
0
11
55.988843551453996
21
25.069870123946689
31
0
0
ARC
5
273
100
AcDbEntity
8
0
100
AcDbCircle
10
55.927908879751072
20
25.566143199766699
30
0
40
0.49999999999938266
210
0
220
0
230
1
100
AcDbArc
50
187.00000000001268
51
277.00000000004917
0
LINE
5
274
100
AcDbEntity
8
0
100
AcDbLine
10
71.21355451465908
20
7.7461673994457492
30
0
11
58.310454543322109
21
6.1618659351787297
31
0
0
ARC
5
275
100
AcDbEntity
8
0
100
AcDbCircle
10
58.249519871620038
20
6.6581390109994842
30
0
40
0.50000000000000011
210
0
220
0
230
1
100
AcDbArc
50
186.99999999998738
51
276.99999999994196
0
LINE
5
276
100
AcDbEntity
8
0
100
AcDbLine
10
57.75324679579937
20
6.5972043392970203
30
0
11
56.16894533153237
21
19.500304310634231
31
0
0
ARC
5
277
100
AcDbEntity
8
0
100
AcDbCircle
10
56.66521840735308
20
19.561238982336675
30
0
40
0.4999999999999889
210
0
220
0
230
1
100
AcDbArc
50
97.000000000052054
51
186.99999999998482
0
LINE
5
278
100
AcDbEntity
8
0
100
AcDbLine
10
56.604283735650057
20
20.057512058157272
30
0
11
69.507383706987071
21
21.641813522424236
31
0
0
ARC
5
279
100
AcDbEntity
8
0
100
AcDbCircle
10
69.568318378690094
20
21.145540446603697
30
0
40
0.49999999999994149
210
0
220
-0
230
1
100
AcDbArc
50
6.9999999999995026
51
97.000000000052765
0
LINE
5
280
100
AcDbEntity
8
0
100
AcDbLine
10
70.06459145451069
20
21.206475118306258
30
0
11
71.648892918777761
21
8.3033751469690742
31
0
0
ARC
5
281
100
AcDbEntity
8
0
100
AcDbCircle
10
71.15261984295708
20
8.2424404752664771
30
0
40
0.49999999999999567
210
-0
220
0
230
1
100
AcDbArc
50
-83.00000000006618
51
7.0000000000025295
0
LINE
5
282
100
AcDbEntity
8
0
100
AcDbLine
10
78.800679769958165
20
-34.506640651297438
30
0
11
65.89757979862101
21
-36.090942115563472
31
0
0
ARC
5
283
100
AcDbEntity
8
0
100
AcDbCircle
10
65.836645126919052
20
-35.594669039742726
30
0
40
0.5000000000000222
210
0
220
0
230
1
100
AcDbArc
50
187.00000000004167
51
276.99999999992855
0
LINE
5
284
100
AcDbEntity
8
0
100
AcDbLine
10
65.340372051098413
20
-35.655603711445664
30
0
11
63.756070586831427
21
-22.752503740108672
31
0
0
ARC
5
285
100
AcDbEntity
8
0
100
AcDbCircle
10
64.252343662652095
20
-22.69156906840572
30
0
40
0.50000000000004163
210
0
220
0
230
1
100
AcDbArc
50
97.000000000059543
51
187.00000000004312
0
LINE
5
286
100
AcDbEntity
8
0
100
AcDbLine
10
64.191408990949
20
-22.195295992585081
30
0
11
77.094508962286085
21
-20.610994528318464
31
0
0
ARC
5
287
100
AcDbEntity
8
0
100
AcDbCircle
10
77.155443633989066
20
-21.107267604138997
30
0
40
0.49999999999993933
210
0
220
-0
230
1
100
AcDbArc
50
6.999999999997728
51
97.000000000047805
0
LINE
5
288
100
AcDbEntity
8
0
100
AcDbLine
10
77.651716709809676
20
-21.046332932436449
30
0
11
79.236018174076705
21
-33.949432903773634
31
0
0
ARC
5
289
100
AcDbEntity
8
0
100
AcDbCircle
10
78.739745098256066
20
-34.010367575476714
30
0
40
0.50000000000000866
210
-0
220
0
230
1
100
AcDbArc
50
-83.000000000054783
51
7.0000000000574927
0
ARC
5
290
100
AcDbEntity
8
0
100
AcDbCircle
10
110.86674324402607
20
-2.5732438528110269
30
0
40
0.5000000000000494
210
0
220
-0
230
1
100
AcDbArc
50
6.9999999999999201
51
96.999999999933081
0
LINE
5
291
100
AcDbEntity
8
0
100
AcDbLine
10
97.902708600986074
20
-3.6612722412573273
30
0
11
110.80580857232407
21
-2.0769707769902279
31
0
0
ARC
5
292
100
AcDbEntity
8
0
100
AcDbCircle
10
97.963643272689097
20
-4.1575453170779131
30
0
40
0.49999999999998013
210
0
220
0
230
1
100
AcDbArc
50
97.000000000052211
51
186.99999999999648
0
LINE
5
293
100
AcDbEntity
8
0
100
AcDbLine
10
99.051671661135373
20
-17.121579960117678
30
0
11
97.467370196868416
21
-4.2184799887804569
31
0
0
ARC
5
294
100
AcDbEntity
8
0
100
AcDbCircle
10
99.547944736956055
20
-17.060645288415117
30
0
40
0.50000000000001199
210
0
220
0
230
1
100
AcDbArc
50
186.99999999999835
51
277.00000000005178
0
LINE
5
295
100
AcDbEntity
8
0
100
AcDbLine
10
112.51197937999608
20
-15.972616899968815
30
0
11
99.608879408659078
21
-17.556918364235734
31
0
0
ARC
5
296
100
AcDbEntity
8
0
100
AcDbCircle
10
112.45104470829305
20
-15.476343824148211
30
0
40
0.49999999999999772
210
-0
220
0
230
1
100
AcDbArc
50
-82.999999999948031
51
6.9999999999982503
0
LINE
5
297
100
AcDbEntity
8
0
100
AcDbLine
10
111.36301631984678
20
-2.5123091811084475
30
0
11
112.94731778411374
21
-15.415409152445649
31
0
0
LINE
5
298
100
AcDbEntity
8
0
100
AcDbLine
10
33.465902184202093
20
-25.967913854371083
30
0
11
46.369002155540088
21
-24.383612390103877
31
0
0
ARC
5
299
100
AcDbEntity
8
0
100
AcDbCircle
10
46.429936827242045
20
-24.879885465924751
30
0
40
0.50000000000009914
210
0
220
-0
230
1
100
AcDbArc
50
7.0000000000463745
51
96.999999999927411
0
LINE
5
300
100
AcDbEntity
8
0
100
AcDbLine
10
46.926209903062755
20
-24.818950794221763
30
0
11
48.510511367329826
21
-37.722050765559743
31
0
0
ARC
5
301
100
AcDbEntity
8
0
100
AcDbCircle
10
48.014238291509074
20
-37.782985437261722
30
0
40
0.50000000000000677
210
-0
220
0
230
1
100
AcDbArc
50
-82.999999999956316
51
6.9999999999310738
0
LINE
5
302
100
AcDbEntity
8
0
100
AcDbLine
10
48.075172963212026
20
-38.27925851308234
30
0
11
35.172072991874032
21
-39.863559977349546
31
0
0
ARC
5
303
100
AcDbEntity
8
0
100
AcDbCircle
10
35.111138320172032
20
-39.367286901528715
30
0
40
0.50000000000009703
210
0
220
0
230
1
100
AcDbArc
50
187.00000000004394
51
276.99999999993241
0
LINE
5
304
100
AcDbEntity
8
0
100
AcDbLine
10
34.614865244351321
20
-39.428221573231681
30
0
11
33.030563780084293
21
-26.52512160189368
31
0
0
ARC
5
305
100
AcDbEntity
8
0
100
AcDbCircle
10
33.526836855905046
20
-26.464186930191723
30
0
40
0.50000000000002442
210
0
220
0
230
1
100
AcDbArc
50
97.000000000043386
51
186.99999999992852
0
LINE
5
306
100
AcDbEntity
8
0
100
AcDbLine
10
74.920042740665323
20
23.099818472740417
30
0
11
73.335741276398409
21
36.002918444077636
31
0
0
ARC
5
307
100
AcDbEntity
8
0
100
AcDbCircle
10
73.832014352219119
20
36.063853115780162
30
0
40
0.50000000000003297
210
0
220
0
230
1
100
AcDbArc
50
97.000000000051458
51
186.99999999999389
0
LINE
5
308
100
AcDbEntity
8
0
100
AcDbLine
10
73.771079680516095
20
36.560126191600801
30
0
11
86.674179651853066
21
38.144427655867673
31
0
0
ARC
5
309
100
AcDbEntity
8
0
100
AcDbCircle
10
86.735114323556047
20
37.648154580047077
30
0
40
0.4999999999999778
210
0
220
-0
230
1
100
AcDbArc
50
6.9999999999997113
51
97.000000000047407
0
LINE
5
310
100
AcDbEntity
8
0
100
AcDbLine
10
87.231387399376686
20
37.709089251749646
30
0
11
88.815688863643715
21
24.805989280412575
31
0
0
ARC
5
311
100
AcDbEntity
8
0
100
AcDbCircle
10
88.319415787823075
20
24.745054608709882
30
0
40
0.49999999999998679
210
-0
220
0
230
1
100
AcDbArc
50
-83.00000000006608
51
7.0000000000139089
0
LINE
5
312
100
AcDbEntity
8
0
100
AcDbLine
10
88.380350459525076
20
24.248781532889161
30
0
11
75.477250488188062
21
22.664480068622169
31
0
0
ARC
5
313
100
AcDbEntity
8
0
100
AcDbCircle
10
75.416315816486076
20
23.160753144442985
30
0
40
0.5000000000000836
210
0
220
0
230
1
100
AcDbArc
50
186.9999999999981
51
276.99999999993094
0
LINE
5
314
100
AcDbEntity
8
0
100
AcDbLine
10
96.730060669267374
20
1.7864242286495191
30
0
11
95.145759205000417
21
14.68952419998673
31
0
0
ARC
5
315
100
AcDbEntity
8
0
100
AcDbCircle
10
95.642032280821155
20
14.750458871689132
30
0
40
0.50000000000005052
210
0
220
0
230
1
100
AcDbArc
50
97.000000000059416
51
186.99999999997914
0
LINE
5
316
100
AcDbEntity
8
0
100
AcDbLine
10
95.581097609118061
20
15.24673194750978
30
0
11
108.48419758045607
21
16.831033411776801
31
0
0
ARC
5
317
100
AcDbEntity
8
0
100
AcDbCircle
10
108.54513225215806
20
16.334760335956098
30
0
40
0.49999999999997458
210
0
220
-0
230
1
100
AcDbArc
50
6.9999999999968932
51
96.999999999932527
0
LINE
5
318
100
AcDbEntity
8
0
100
AcDbLine
10
109.04140532797869
20
16.395695007658642
30
0
11
110.62570679224572
21
3.4925950363215552
31
0
0
ARC
5
319
100
AcDbEntity
8
0
100
AcDbCircle
10
110.12943371642508
20
3.431660364618967
30
0
40
0.49999999999999345
210
-0
220
0
230
1
100
AcDbArc
50
-82.999999999951285
51
7.000000000001747
0
LINE
5
320
100
AcDbEntity
8
0
100
AcDbLine
10
110.19036838812808
20
2.9353872887983634
30
0
11
97.28726841679007
21
1.3510858245313084
31
0
0
ARC
5
321
100
AcDbEntity
8
0
100
AcDbCircle
10
97.226333745088084
20
1.8473589003521074
30
0
40
0.50000000000005052
210
0
220
0
230
1
100
AcDbArc
50
187.00000000000097
51
276.99999999992986
0
ARC
5
322
100
AcDbEntity
8
0
100
AcDbCircle
10
37.60030743895102
20
18.517531160706842
30
0
40
0.4999999999999854
210
0
220
0
230
1
100
AcDbArc
50
187.00000000000696
51
277.00000000005213
0
LINE
5
323
100
AcDbEntity
8
0
100
AcDbLine
10
50.564342081991086
20
19.605559549153185
30
0
11
37.661242110654044
21
18.021258084886249
31
0
0
ARC
5
324
100
AcDbEntity
8
0
100
AcDbCircle
10
50.503407410287991
20
20.101832624973845
30
0
40
0.5000000000000594
210
-0
220
0
230
1
100
AcDbArc
50
-82.999999999940783
51
6.9999999999903686
0
LINE
5
325
100
AcDbEntity
8
0
100
AcDbLine
10
49.41537902184271
20
33.065867268013569
30
0
11
50.999680486108744
21
20.162767296676343
31
0
0
ARC
5
326
100
AcDbEntity
8
0
100
AcDbCircle
10
48.919105946022029
20
33.004932596310965
30
0
40
0.50000000000001732
210
0
220
-0
230
1
100
AcDbArc
50
7.0000000000031566
51
97.000000000038625
0
LINE
5
327
100
AcDbEntity
8
0
100
AcDbLine
10
35.955071302982034
20
31.916904207864807
30
0
11
48.858171274319119
21
33.50120567213159
31
0
0
ARC
5
328
100
AcDbEntity
8
0
100
AcDbCircle
10
36.016005974684063
20
31.420631132044097
30
0
40
0.49999999999998235
210
0
220
0
230
1
100
AcDbArc
50
96.999999999937316
51
187.00000000001327
0
LINE
5
329
100
AcDbEntity
8
0
100
AcDbLine
10
37.104034363130381
20
18.456596489004209
30
0
11
35.519732898863424
21
31.359696460341411
31
0
0
LINE
5
330
100
AcDbEntity
8
0
100
AcDbLine
10
-51.179782266186145
20
14.593201483364462
30
0
11
-38.276682294849032
21
13.008900019097558
31
0
0
ARC
5
331
100
AcDbEntity
8
0
100
AcDbCircle
10
-38.337616966551536
20
12.512626943276874
30
0
40
0.49999999999999872
210
-0
220
0
230
1
100
AcDbArc
50
-7.0000000000027196
51
83.00000000000793
0
LINE
5
332
100
AcDbEntity
8
0
100
AcDbLine
10
-37.841343890730883
20
12.451692271574277
30
0
11
-39.425645354997826
21
-0.45140769976289796
31
0
0
ARC
5
333
100
AcDbEntity
8
0
100
AcDbCircle
10
-39.921918430818536
20
-0.39047302806032747
30
0
40
0.50000000000003197
210
0
220
0
230
1
100
AcDbArc
50
263.00000000000836
51
353.00000000000114
0
LINE
5
334
100
AcDbEntity
8
0
100
AcDbLine
10
-39.982853102521041
20
-0.8867461038810287
30
0
11
-52.885953073858246
21
0.69755536038592858
31
0
0
ARC
5
335
100
AcDbEntity
8
0
100
AcDbCircle
10
-52.825018402155536
20
1.1938284362065854
30
0
40
0.50000000000001521
210
0
220
0
230
1
100
AcDbArc
50
172.99999999999869
51
262.99999999998442
0
LINE
5
336
100
AcDbEntity
8
0
100
AcDbLine
10
-53.321291477976217
20
1.2547631079091737
30
0
11
-51.736990013709416
21
14.157863079246384
31
0
0
ARC
5
337
100
AcDbEntity
8
0
100
AcDbCircle
10
-51.240716937888742
20
14.096928407543796
30
0
40
0.50000000000000755
210
0
220
-0
230
1
100
AcDbArc
50
82.999999999997399
51
172.99999999999847
0
ARC
5
338
100
AcDbEntity
8
0
100
AcDbCircle
10
-92.962637771558164
20
-13.070953768824518
30
0
40
0.49999999999994799
210
0
220
0
230
1
100
AcDbArc
50
172.9999999999946
51
263.00000000001131
0
LINE
5
339
100
AcDbEntity
8
0
100
AcDbLine
10
-80.120472471923563
20
-15.15152830891215
30
0
11
-93.023572443260633
21
-13.567226844645139
31
0
0
ARC
5
340
100
AcDbEntity
8
0
100
AcDbCircle
10
-80.059537800220966
20
-14.655255233091404
30
0
40
0.50000000000008682
210
0
220
0
230
1
100
AcDbArc
50
262.99999999999847
51
352.99999999999659
0
LINE
5
341
100
AcDbEntity
8
0
100
AcDbLine
10
-77.978963260133384
20
-1.8130899334567996
30
0
11
-79.563264724400199
21
-14.716189904794019
31
0
0
ARC
5
342
100
AcDbEntity
8
0
100
AcDbCircle
10
-78.475236335954051
20
-1.7521552617542202
30
0
40
0.5000000000000141
210
-0
220
0
230
1
100
AcDbArc
50
-7.0000000000005311
51
83.000000000007333
0
LINE
5
343
100
AcDbEntity
8
0
100
AcDbLine
10
-91.317401635588624
20
0.32841927833337614
30
0
11
-78.414301664251525
21
-1.2558821859335279
31
0
0
ARC
5
344
100
AcDbEntity
8
0
100
AcDbCircle
10
-91.378336307291164
20
-0.16785379748730733
30
0
40
0.50000000000001432
210
0
220
-0
230
1
100
AcDbArc
50
83.000000000007347
51
172.99999999999727
0
LINE
5
345
100
AcDbEntity
8
0
100
AcDbLine
10
-93.458910847378775
20
-13.010019097121903
30
0
11
-91.874609383111832
21
-0.10691912578471019
31
0
0
ARC
5
346
100
AcDbEntity
8
0
100
AcDbCircle
10
-60.571130863486751
20
-12.249865177767623
30
0
40
0.50000000000001521
210
0
220
0
230
1
100
AcDbArc
50
262.99999999999835
51
352.99999999999966
0
LINE
5
347
100
AcDbEntity
8
0
100
AcDbLine
10
-58.490556323399147
20
0.59230012186698211
30
0
11
-60.074857787666076
21
-12.310799849470202
31
0
0
ARC
5
348
100
AcDbEntity
8
0
100
AcDbCircle
10
-58.986829399219843
20
0.65323479356948155
30
0
40
0.50000000000003086
210
-0
220
0
230
1
100
AcDbArc
50
-6.9999999999910658
51
82.999999999986244
0
LINE
5
349
100
AcDbEntity
8
0
100
AcDbLine
10
-71.828994698854444
20
2.7338093336571312
30
0
11
-58.925894727517147
21
1.1495078693901561
31
0
0
ARC
5
350
100
AcDbEntity
8
0
100
AcDbCircle
10
-71.889929370556942
20
2.2375362578364832
30
0
40
0.49999999999997796
210
0
220
-0
230
1
100
AcDbArc
50
83.00000000000847
51
173.00000000000944
0
LINE
5
351
100
AcDbEntity
8
0
100
AcDbLine
10
-73.970503910644624
20
-10.604629041798193
30
0
11
-72.386202446377595
21
2.2984709295389738
31
0
0
ARC
5
352
100
AcDbEntity
8
0
100
AcDbCircle
10
-73.474230834823956
20
-10.665563713500719
30
0
40
0.50000000000000766
210
0
220
0
230
1
100
AcDbArc
50
173.00000000000557
51
262.99999999999898
0
LINE
5
353
100
AcDbEntity
8
0
100
AcDbLine
10
-60.632065535189341
20
-12.746138253588297
30
0
11
-73.535165506526539
21
-11.161836789321393
31
0
0
LINE
5
354
100
AcDbEntity
8
0
100
AcDbLine
10
-58.310454543321143
20
6.1618659351787741
30
0
11
-71.213554514658426
21
7.7461673994458202
31
0
0
ARC
5
355
100
AcDbEntity
8
0
100
AcDbCircle
10
-71.152619842955843
20
8.2424404752664948
30
0
40
0.50000000000001321
210
0
220
0
230
1
100
AcDbArc
50
173.00000000000881
51
262.99999999999909
0
LINE
5
356
100
AcDbEntity
8
0
100
AcDbLine
10
-71.648892918776525
20
8.3033751469689943
30
0
11
-70.064591454509554
21
21.206475118306187
31
0
0
ARC
5
357
100
AcDbEntity
8
0
100
AcDbCircle
10
-69.568318378688957
20
21.145540446603704
30
0
40
0.49999999999992617
210
0
220
-0
230
1
100
AcDbArc
50
83.000000000006139
51
173.00000000000944
0
LINE
5
358
100
AcDbEntity
8
0
100
AcDbLine
10
-69.507383706986445
20
21.6418135224243
30
0
11
-56.604283735649155
21
20.057512058157325
31
0
0
ARC
5
359
100
AcDbEntity
8
0
100
AcDbCircle
10
-56.665218407351773
20
19.561238982336686
30
0
40
0.50000000000000333
210
-0
220
0
230
1
100
AcDbArc
50
-6.9999999999902007
51
82.99999999999487
0
LINE
5
360
100
AcDbEntity
8
0
100
AcDbLine
10
-56.168945331531091
20
19.500304310634196
30
0
11
-57.753246795797928
21
6.5972043392969848
31
0
0
ARC
5
361
100
AcDbEntity
8
0
100
AcDbCircle
10
-58.249519871618659
20
6.658139010999502
30
0
40
0.50000000000005618
210
0
220
0
230
1
100
AcDbArc
50
263.00000000001125
51
353.00000000000745
0
ARC
5
362
100
AcDbEntity
8
0
100
AcDbCircle
10
-53.562327929756734
20
-4.8110757812234173
30
0
40
0.5000000000000937
210
0
220
-0
230
1
100
AcDbArc
50
83.000000000008455
51
172.99999999999656
0
LINE
5
363
100
AcDbEntity
8
0
100
AcDbLine
10
-55.642902469844401
20
-17.653241080858002
30
0
11
-54.058601005577472
21
-4.7501411095208024
31
0
0
ARC
5
364
100
AcDbEntity
8
0
100
AcDbCircle
10
-55.146629394023741
20
-17.714175752560635
30
0
40
0.500000000000003
210
0
220
0
230
1
100
AcDbArc
50
172.99999999999329
51
263.00000000000801
0
LINE
5
365
100
AcDbEntity
8
0
100
AcDbLine
10
-42.304464094389154
20
-19.794750292648182
30
0
11
-55.207564065726245
21
-18.210448828381296
31
0
0
ARC
5
366
100
AcDbEntity
8
0
100
AcDbCircle
10
-42.243529422686535
20
-19.298477216827507
30
0
40
0.50000000000001843
210
0
220
0
230
1
100
AcDbArc
50
262.99999999999511
51
352.99999999999579
0
LINE
5
367
100
AcDbEntity
8
0
100
AcDbLine
10
-40.162954882598939
20
-6.4563119171929184
30
0
11
-41.747256346865868
21
-19.359411888530119
31
0
0
ARC
5
368
100
AcDbEntity
8
0
100
AcDbCircle
10
-40.659227958419635
20
-6.3953772454903035
30
0
40
0.50000000000003608
210
-0
220
0
230
1
100
AcDbArc
50
-7.0000000000041958
51
82.999999999996149
0
LINE
5
369
100
AcDbEntity
8
0
100
AcDbLine
10
-53.501393258054222
20
-4.3148027054026539
30
0
11
-40.598293286717023
21
-5.8991041696696112
31
0
0
LINE
5
370
100
AcDbEntity
8
0
100
AcDbLine
10
-77.094508962285332
20
-20.610994528318408
30
0
11
-64.191408990948077
21
-22.195295992585045
31
0
0
ARC
5
371
100
AcDbEntity
8
0
100
AcDbCircle
10
-64.252343662650759
20
-22.69156906840572
30
0
40
0.5000000000000463
210
-0
220
0
230
1
100
AcDbArc
50
-7.0000000000470948
51
82.999999999988034
0
LINE
5
372
100
AcDbEntity
8
0
100
AcDbLine
10
-63.756070586830099
20
-22.752503740108708
30
0
11
-65.34037205109702
21
-35.655603711445714
31
0
0
ARC
5
373
100
AcDbEntity
8
0
100
AcDbCircle
10
-65.836645126917631
20
-35.594669039742712
30
0
40
0.50000000000001199
210
0
220
0
230
1
100
AcDbArc
50
263.00000000000074
51
352.99999999995077
0
LINE
5
374
100
AcDbEntity
8
0
100
AcDbLine
10
-65.8975797986202
20
-36.090942115563386
30
0
11
-78.800679769957526
21
-34.506640651297388
31
0
0
ARC
5
375
100
AcDbEntity
8
0
100
AcDbCircle
10
-78.739745098254858
20
-34.010367575476749
30
0
40
0.49999999999998013
210
0
220
0
230
1
100
AcDbArc
50
172.99999999994799
51
262.99999999998875
0
LINE
5
376
100
AcDbEntity
8
0
100
AcDbLine
10
-79.236018174075454
20
-33.949432903773726
30
0
11
-77.651716709808568
21
-21.04633293243652
31
0
0
ARC
5
377
100
AcDbEntity
8
0
100
AcDbCircle
10
-77.155443633987943
20
-21.107267604139011
30
0
40
0.49999999999994688
210
0
220
-0
230
1
100
AcDbArc
50
82.999999999994927
51
173.00000000000901
0
LINE
5
378
100
AcDbEntity
8
0
100
AcDbLine
10
-29.950167085550952
20
31.179594680263474
30
0
11
-17.047067114213945
21
29.595293215996719
31
0
0
ARC
5
379
100
AcDbEntity
8
0
100
AcDbCircle
10
-17.108001785915938
20
29.099020140175984
30
0
40
0.49999999999999079
210
-0
220
0
230
1
100
AcDbArc
50
-7.0000000000122355
51
83.000000000067331
0
LINE
5
380
100
AcDbEntity
8
0
100
AcDbLine
10
-16.611728710095299
20
29.038085468473305
30
0
11
-18.196030174362274
21
16.134985497136203
31
0
0
ARC
5
381
100
AcDbEntity
8
0
100
AcDbCircle
10
-18.692303250182949
20
16.1959201688388
30
0
40
0.50000000000001776
210
0
220
0
230
1
100
AcDbArc
50
262.99999999995447
51
352.99999999999761
0
LINE
5
382
100
AcDbEntity
8
0
100
AcDbLine
10
-18.753237921885919
20
15.69964709301817
30
0
11
-31.656337893222943
21
17.283948557285047
31
0
0
ARC
5
383
100
AcDbEntity
8
0
100
AcDbCircle
10
-31.59540322151992
20
17.780221633105686
30
0
40
0.50000000000003064
210
0
220
0
230
1
100
AcDbArc
50
173.00000000000068
51
262.9999999999485
0
LINE
5
384
100
AcDbEntity
8
0
100
AcDbLine
10
-32.091676297340612
20
17.841156304808258
30
0
11
-30.507374833074561
21
30.744256276145563
31
0
0
ARC
5
385
100
AcDbEntity
8
0
100
AcDbCircle
10
-30.011101757253922
20
30.683321604442888
30
0
40
0.49999999999997358
210
0
220
-0
230
1
100
AcDbArc
50
82.999999999953857
51
172.99999999998789
0
LINE
5
386
100
AcDbEntity
8
0
100
AcDbLine
10
-48.858171274318032
20
33.501205672131633
30
0
11
-35.95507130298094
21
31.91690420786469
31
0
0
ARC
5
387
100
AcDbEntity
8
0
100
AcDbCircle
10
-36.016005974683942
20
31.420631132044072
30
0
40
0.50000000000000866
210
-0
220
0
230
1
100
AcDbArc
50
-6.9999999999955955
51
82.999999999950631
0
LINE
5
388
100
AcDbEntity
8
0
100
AcDbLine
10
-35.519732898863268
20
31.359696460341535
30
0
11
-37.104034363129287
21
18.456596489004209
31
0
0
ARC
5
389
100
AcDbEntity
8
0
100
AcDbCircle
10
-37.60030743894994
20
18.517531160706913
30
0
40
0.50000000000004419
210
0
220
0
230
1
100
AcDbArc
50
262.99999999995526
51
352.99999999998522
0
LINE
5
390
100
AcDbEntity
8
0
100
AcDbLine
10
-37.661242110652907
20
18.021258084886256
30
0
11
-50.564342081990134
21
19.605559549153135
31
0
0
ARC
5
391
100
AcDbEntity
8
0
100
AcDbCircle
10
-50.503407410287537
20
20.101832624973788
30
0
40
0.49999999999999761
210
0
220
0
230
1
100
AcDbArc
50
172.99999999999812
51
262.99999999999721
0
LINE
5
392
100
AcDbEntity
8
0
100
AcDbLine
10
-50.99968048610819
20
20.162767296676378
30
0
11
-49.415379021841289
21
33.065867268013491
31
0
0
ARC
5
393
100
AcDbEntity
8
0
100
AcDbCircle
10
-48.919105946020629
20
33.004932596310994
30
0
40
0.49999999999998107
210
0
220
-0
230
1
100
AcDbArc
50
82.999999999997044
51
173.00000000000847
0
LINE
5
394
100
AcDbEntity
8
0
100
AcDbLine
10
-34.593389069286943
20
-6.6364136972708554
30
0
11
-21.69028909794994
21
-8.2207151615377061
31
0
0
ARC
5
395
100
AcDbEntity
8
0
100
AcDbCircle
10
-21.751223769651897
20
-8.7169882373583629
30
0
40
0.4999999999999325
210
-0
220
0
230
1
100
AcDbArc
50
-7.0000000000077574
51
83.000000000070159
0
LINE
5
396
100
AcDbEntity
8
0
100
AcDbLine
10
-21.254950693831312
20
-8.7779229090609956
30
0
11
-22.839252158098162
21
-21.681022880397805
31
0
0
ARC
5
397
100
AcDbEntity
8
0
100
AcDbCircle
10
-23.335525233918961
20
-21.620088208695705
30
0
40
0.50000000000007505
210
0
220
0
230
1
100
AcDbArc
50
262.99999999995941
51
353.00000000005571
0
LINE
5
398
100
AcDbEntity
8
0
100
AcDbLine
10
-23.396459905621896
20
-22.116361284516401
30
0
11
-36.299559876958938
21
-20.532059820249351
31
0
0
ARC
5
399
100
AcDbEntity
8
0
100
AcDbCircle
10
-36.238625205256909
20
-20.035786744428606
30
0
40
0.5000000000000141
210
0
220
0
230
1
100
AcDbArc
50
172.99999999999991
51
263.0000000000631
0
LINE
5
400
100
AcDbEntity
8
0
100
AcDbLine
10
-36.734898281077584
20
-19.97485207272603
30
0
11
-35.150596816810626
21
-7.0717521013888263
31
0
0
ARC
5
401
100
AcDbEntity
8
0
100
AcDbCircle
10
-34.654323740989938
20
-7.1326867730915122
30
0
40
0.5000000000000463
210
0
220
-0
230
1
100
AcDbArc
50
82.999999999952024
51
172.99999999998761
0
LINE
5
402
100
AcDbEntity
8
0
100
AcDbLine
10
-94.965657424921545
20
20.259090013298469
30
0
11
-107.86875739625873
21
21.843391477565504
31
0
0
ARC
5
403
100
AcDbEntity
8
0
100
AcDbCircle
10
-107.80782272455613
20
22.339664553386189
30
0
40
0.50000000000002209
210
0
220
0
230
1
100
AcDbArc
50
173.00000000000875
51
262.99999999999432
0
LINE
5
404
100
AcDbEntity
8
0
100
AcDbLine
10
-108.30409580037681
20
22.400599225088691
30
0
11
-106.71979433610989
21
35.303699196425882
31
0
0
ARC
5
405
100
AcDbEntity
8
0
100
AcDbCircle
10
-106.22352126028923
20
35.242764524723384
30
0
40
0.49999999999998984
210
0
220
-0
230
1
100
AcDbArc
50
82.999999999997129
51
173.00000000000901
0
LINE
5
406
100
AcDbEntity
8
0
100
AcDbLine
10
-106.16258658858663
20
35.73903760054403
30
0
11
-93.259486617249451
21
34.154736136277045
31
0
0
ARC
5
407
100
AcDbEntity
8
0
100
AcDbCircle
10
-93.320421288952033
20
33.658463060456398
30
0
40
0.49999999999997136
210
-0
220
0
230
1
100
AcDbArc
50
-6.9999999999940181
51
82.999999999998764
0
LINE
5
408
100
AcDbEntity
8
0
100
AcDbLine
10
-92.82414821313138
20
33.597528388753879
30
0
11
-94.408449677398323
21
20.694428417416688
31
0
0
ARC
5
409
100
AcDbEntity
8
0
100
AcDbCircle
10
-94.904722753219033
20
20.755363089119179
30
0
40
0.50000000000004285
210
0
220
0
230
1
100
AcDbArc
50
263.00000000000773
51
353.00000000001017
0
LINE
5
410
100
AcDbEntity
8
0
100
AcDbLine
10
-69.327281926908498
20
27.21137933573619
30
0
11
-67.742980462641512
21
40.114479307073402
31
0
0
ARC
5
411
100
AcDbEntity
8
0
100
AcDbCircle
10
-67.246707386820944
20
40.053544635370777
30
0
40
0.49999999999991718
210
0
220
-0
230
1
100
AcDbArc
50
82.999999999997769
51
172.99999999999284
0
LINE
5
412
100
AcDbEntity
8
0
100
AcDbLine
10
-67.185772715118361
20
40.549817711191352
30
0
11
-54.282672743781148
21
38.965516246924501
31
0
0
ARC
5
413
100
AcDbEntity
8
0
100
AcDbCircle
10
-54.343607415483618
20
38.469243171103905
30
0
40
0.49999999999992983
210
-0
220
0
230
1
100
AcDbArc
50
-7.0000000000053664
51
83.000000000010289
0
LINE
5
414
100
AcDbEntity
8
0
100
AcDbLine
10
-53.847334339663036
20
38.408308499401294
30
0
11
-55.431635803929936
21
25.505208528064092
31
0
0
ARC
5
415
100
AcDbEntity
8
0
100
AcDbCircle
10
-55.927908879750525
20
25.566143199766664
30
0
40
0.49999999999992151
210
0
220
0
230
1
100
AcDbArc
50
262.99999999999375
51
352.9999999999992
0
LINE
5
416
100
AcDbEntity
8
0
100
AcDbLine
10
-55.988843551453144
20
25.069870123946085
30
0
11
-68.891943522790456
21
26.654171588212925
31
0
0
ARC
5
417
100
AcDbEntity
8
0
100
AcDbCircle
10
-68.831008851087844
20
27.150444664033586
30
0
40
0.49999999999999983
210
0
220
0
230
1
100
AcDbArc
50
172.99999999999645
51
262.99999999999568
0
ARC
5
418
100
AcDbEntity
8
0
100
AcDbCircle
10
-77.737926808352938
20
4.2527489556757647
30
0
40
0.49999999999999983
210
0
220
0
230
1
100
AcDbArc
50
262.99999999999727
51
352.99999999999932
0
LINE
5
419
100
AcDbEntity
8
0
100
AcDbLine
10
-75.657352268265242
20
17.094914255310385
30
0
11
-77.241653732532271
21
4.1918142839731853
31
0
0
ARC
5
420
100
AcDbEntity
8
0
100
AcDbCircle
10
-76.153625344086052
20
17.155848927012983
30
0
40
0.50000000000014855
210
-0
220
0
230
1
100
AcDbArc
50
-7.0000000000005826
51
82.999999999996135
0
LINE
5
421
100
AcDbEntity
8
0
100
AcDbLine
10
-88.995790643720539
20
19.23642346710059
30
0
11
-76.092690672383426
21
17.652122002833792
31
0
0
ARC
5
422
100
AcDbEntity
8
0
100
AcDbCircle
10
-89.056725315423151
20
18.74015039127989
30
0
40
0.50000000000004496
210
0
220
-0
230
1
100
AcDbArc
50
82.999999999996263
51
172.99999999999812
0
LINE
5
423
100
AcDbEntity
8
0
100
AcDbLine
10
-91.137299855510719
20
5.8979850916452925
30
0
11
-89.552998391243861
21
18.801085062982487
31
0
0
ARC
5
424
100
AcDbEntity
8
0
100
AcDbCircle
10
-90.641026779690037
20
5.8370504199426865
30
0
40
0.49999999999999983
210
0
220
0
230
1
100
AcDbArc
50
172.99999999999622
51
262.99999999999568
0
LINE
5
425
100
AcDbEntity
8
0
100
AcDbLine
10
-77.798861480055535
20
3.7564758798551079
30
0
11
-90.701961451392648
21
5.3407773441220296
31
0
0
LINE
5
426
100
AcDbEntity
8
0
100
AcDbLine
10
-97.287268416789644
20
1.3510858245313795
30
0
11
-110.19036838812684
21
2.935387288798319
31
0
0
ARC
5
427
100
AcDbEntity
8
0
100
AcDbCircle
10
-110.12943371642424
20
3.4316603646189847
30
0
40
0.50000000000001843
210
0
220
0
230
1
100
AcDbArc
50
172.99999999999562
51
262.9999999999975
0
LINE
5
428
100
AcDbEntity
8
0
100
AcDbLine
10
-110.62570679224493
20
3.4925950363215996
30
0
11
-109.04140532797798
21
16.395695007658688
31
0
0
ARC
5
429
100
AcDbEntity
8
0
100
AcDbCircle
10
-108.54513225215733
20
16.33476033595608
30
0
40
0.49999999999998984
210
0
220
-0
230
1
100
AcDbArc
50
82.999999999997186
51
172.99999999999588
0
LINE
5
430
100
AcDbEntity
8
0
100
AcDbLine
10
-108.48419758045475
20
16.83103341177673
30
0
11
-95.581097609117649
21
15.246731947509842
31
0
0
ARC
5
431
100
AcDbEntity
8
0
100
AcDbCircle
10
-95.642032280820132
20
14.750458871689185
30
0
40
0.49999999999998684
210
-0
220
0
230
1
100
AcDbArc
50
-6.9999999999916263
51
83.000000000010147
0
LINE
5
432
100
AcDbEntity
8
0
100
AcDbLine
10
-95.145759204999479
20
14.689524199986685
30
0
11
-96.730060669266322
21
1.7864242286494836
31
0
0
ARC
5
433
100
AcDbEntity
8
0
100
AcDbCircle
10
-97.226333745087032
20
1.8473589003520896
30
0
40
0.50000000000005163
210
0
220
0
230
1
100
AcDbArc
50
262.99999999999801
51
352.9999999999971
0
ARC
5
434
100
AcDbEntity
8
0
100
AcDbCircle
10
-75.41631581648484
20
23.160753144442996
30
0
40
0.50000000000009792
210
0
220
0
230
1
100
AcDbArc
50
262.9999999999971
51
352.99999999999659
0
LINE
5
435
100
AcDbEntity
8
0
100
AcDbLine
10
-73.335741276397187
20
36.002918444077594
30
0
11
-74.920042740664087
21
23.099818472740381
31
0
0
ARC
5
436
100
AcDbEntity
8
0
100
AcDbCircle
10
-73.832014352217811
20
36.063853115780198
30
0
40
0.49999999999998213
210
-0
220
0
230
1
100
AcDbArc
50
-7.0000000000039408
51
83.000000000011781
0
LINE
5
437
100
AcDbEntity
8
0
100
AcDbLine
10
-86.674179651852441
20
38.144427655867723
30
0
11
-73.771079680515342
21
36.560126191600858
31
0
0
ARC
5
438
100
AcDbEntity
8
0
100
AcDbCircle
10
-86.735114323555038
20
37.648154580047084
30
0
40
0.49999999999998107
210
0
220
-0
230
1
100
AcDbArc
50
82.999999999997044
51
172.99999999999707
0
LINE
5
439
100
AcDbEntity
8
0
100
AcDbLine
10
-88.815688863642606
20
24.805989280412479
30
0
11
-87.231387399375677
21
37.709089251749681
31
0
0
ARC
5
440
100
AcDbEntity
8
0
100
AcDbCircle
10
-88.319415787821953
20
24.745054608709882
30
0
40
0.49999999999998107
210
0
220
0
230
1
100
AcDbArc
50
172.99999999999727
51
262.99999999999881
0
LINE
5
441
100
AcDbEntity
8
0
100
AcDbLine
10
-75.477250488187451
20
22.66448006862224
30
0
11
-88.380350459524522
21
24.248781532889232
31
0
0
LINE
5
442
100
AcDbEntity
8
0
100
AcDbLine
10
-34.413287289209613
20
-1.0668478839588325
30
0
11
-32.82898582494262
21
11.836252087378378
31
0
0
ARC
5
443
100
AcDbEntity
8
0
100
AcDbCircle
10
-32.332712749121924
20
11.775317415675692
30
0
40
0.5000000000000463
210
0
220
-0
230
1
100
AcDbArc
50
82.999999999953658
51
172.99999999998775
0
LINE
5
444
100
AcDbEntity
8
0
100
AcDbLine
10
-32.271778077418944
20
12.271590491496349
30
0
11
-19.368678106081934
21
10.687289027229507
31
0
0
ARC
5
445
100
AcDbEntity
8
0
100
AcDbCircle
10
-19.429612777783962
20
10.191015951408771
30
0
40
0.50000000000000622
210
-0
220
0
230
1
100
AcDbArc
50
-7.0000000000097424
51
83.000000000063025
0
LINE
5
446
100
AcDbEntity
8
0
100
AcDbLine
10
-18.933339701963305
20
10.130081279706111
30
0
11
-20.517641166230227
21
-2.7730186916309929
31
0
0
ARC
5
447
100
AcDbEntity
8
0
100
AcDbCircle
10
-21.013914242050955
20
-2.7120840199283958
30
0
40
0.50000000000006395
210
0
220
0
230
1
100
AcDbArc
50
262.99999999995305
51
352.99999999999835
0
LINE
5
448
100
AcDbEntity
8
0
100
AcDbLine
10
-21.074848913753943
20
-3.2083570957490704
30
0
11
-33.97794888509091
21
-1.6240556314821486
31
0
0
ARC
5
449
100
AcDbEntity
8
0
100
AcDbCircle
10
-33.917014213388953
20
-1.1277825556614207
30
0
40
0.49999999999999767
210
0
220
0
230
1
100
AcDbArc
50
172.99999999999835
51
263.00000000007111
0
LINE
5
450
100
AcDbEntity
8
0
100
AcDbLine
10
-46.36900215553878
20
-24.383612390103949
30
0
11
-33.465902184201965
21
-25.967913854370963
31
0
0
ARC
5
451
100
AcDbEntity
8
0
100
AcDbCircle
10
-33.526836855903937
20
-26.464186930191723
30
0
40
0.50000000000002653
210
-0
220
0
230
1
100
AcDbArc
50
-6.9999999999285238
51
83.000000000069832
0
LINE
5
452
100
AcDbEntity
8
0
100
AcDbLine
10
-33.030563780083178
20
-26.52512160189368
30
0
11
-34.614865244350241
21
-39.428221573231681
31
0
0
ARC
5
453
100
AcDbEntity
8
0
100
AcDbCircle
10
-35.111138320170937
20
-39.367286901528715
30
0
40
0.50000000000007938
210
0
220
0
230
1
100
AcDbArc
50
262.99999999995572
51
352.99999999995578
0
LINE
5
454
100
AcDbEntity
8
0
100
AcDbLine
10
-35.172072991873904
20
-39.863559977349404
30
0
11
-48.075172963210719
21
-38.279258513082375
31
0
0
ARC
5
455
100
AcDbEntity
8
0
100
AcDbCircle
10
-48.014238291508136
20
-37.782985437261722
30
0
40
0.49999999999999778
210
0
220
0
230
1
100
AcDbArc
50
173.00000000006452
51
262.99999999999886
0
LINE
5
456
100
AcDbEntity
8
0
100
AcDbLine
10
-48.51051136732886
20
-37.722050765559707
30
0
11
-46.926209903061924
21
-24.818950794221742
31
0
0
ARC
5
457
100
AcDbEntity
8
0
100
AcDbCircle
10
-46.429936827241249
20
-24.879885465924694
30
0
40
0.50000000000007172
210
0
220
-0
230
1
100
AcDbArc
50
83.000000000013074
51
172.99999999995728
0
ENDSEC
0
SECTION
2
OBJECTS
0
DICTIONARY
5
C
100
AcDbDictionary
3
ACAD_GROUP
350
D
3
ACAD_MLINESTYLE
350
17
0
DICTIONARY
5
D
100
AcDbDictionary
0
DICTIONARY
5
1A
330
C
100
AcDbDictionary
0
DICTIONARY
5
17
100
AcDbDictionary
0
ENDSEC
0
EOF
