0
SECTION
2
HEADER
9
$INSUNITS
70
4
9
$ACADVER
1
AC1014
9
$HANDSEED
5
FFFF
0
ENDSEC
0
SECTION
2
TABLES
0
TABLE
2
VPORT
5
8
100
AcDbSymbolTable
0
ENDTAB
0
TABLE
2
LTYPE
5
5
100
AcDbSymbolTable
0
LTYPE
5
14
100
AcDbSymbolTableRecord
100
AcDbLinetypeTableRecord
2
BYBLOCK
70
0
0
LTYPE
5
15
100
AcDbSymbolTableRecord
100
AcDbLinetypeTableRecord
2
BYLAYER
70
0
0
ENDTAB
0
TABLE
2
LAYER
5
2
100
AcDbSymbolTable
70
2
0
LAYER
5
50
100
AcDbSymbolTableRecord
100
AcDbLayerTableRecord
2
0
70
0
6
CONTINUOUS
0
ENDTAB
0
TABLE
2
STYLE
5
3
100
AcDbSymbolTable
70
1
0
STYLE
5
11
100
AcDbSymbolTableRecord
100
AcDbTextStyleTableRecord
2
STANDARD
70
0
0
ENDTAB
0
TABLE
2
VIEW
5
6
100
AcDbSymbolTable
70
0
0
ENDTAB
0
TABLE
2
UCS
5
7
100
AcDbSymbolTable
70
0
0
ENDTAB
0
TABLE
2
APPID
5
9
100
AcDbSymbolTable
70
2
0
APPID
5
12
100
AcDbSymbolTableRecord
100
AcDbRegAppTableRecord
2
ACAD
70
0
0
ENDTAB
0
TABLE
2
DIMSTYLE
5
A
100
AcDbSymbolTable
70
1
0
ENDTAB
0
TABLE
2
BLOCK_RECORD
5
1
100
AcDbSymbolTable
70
1
0
BLOCK_RECORD
5
1F
100
AcDbSymbolTableRecord
100
AcDbBlockTableRecord
2
*MODEL_SPACE
0
BLOCK_RECORD
5
1B
100
AcDbSymbolTableRecord
100
AcDbBlockTableRecord
2
*PAPER_SPACE
0
ENDTAB
0
ENDSEC
0
SECTION
2
BLOCKS
0
BLOCK
5
20
100
AcDbEntity
100
AcDbBlockBegin
2
*MODEL_SPACE
0
ENDBLK
5
21
100
AcDbEntity
100
AcDbBlockEnd
0
BLOCK
5
1C
100
AcDbEntity
100
AcDbBlockBegin
2
*PAPER_SPACE
0
ENDBLK
5
1D
100
AcDbEntity
100
AcDbBlockEnd
0
ENDSEC
0
SECTION
2
ENTITIES
0
LWPOLYLINE
5
100
100
AcDbEntity
8
0
100
AcDbPolyline
90
31
70
1
43
0.0
10
-52.098603600667857
20
115.12718821839857
42
-0.41421356237306628
10
-51.053791430784386
20
113.78988962434299
10
-52.258246864783409
20
103.98038731280002
42
0.36335778456736334
10
-51.420519638675906
20
102.68734018797402
10
-40.421828557067798
20
99.298663890665196
10
-25.186245129373603
20
97.427969469396317
10
-23.0133861188989
20
97.23701483575968
42
-0.4142135623731048
10
-21.923046565736598
20
95.936568889628205
10
-22.251230283175101
20
92.202190027241201
10
-28.672040766877899
20
39.908885099594912
42
-0.34465356972017908
10
-29.7182412230041
20
38.863903290764
10
-47.2283918783817
20
36.734640111975487
42
-0.0608701577933018
10
-47.51949001631121
20
36.734809750922999
10
-66.159367051086505
20
39.023498867922186
42
0.41421356237309664
10
-67.496665645142301
20
37.9786866980388
10
-67.754114633085706
20
35.881932952696602
42
-0.4142135623731264
10
-69.091413227141501
20
34.837120782813102
10
-86.460970880864494
20
36.969834292403107
42
-0.41421356237309398
10
-87.505783050747894
20
38.307132886458902
10
-87.248334062804517
20
40.4038866318012
42
0.41421356237308354
10
-88.293146232687917
20
41.741185225856903
10
-121.41112468973
20
45.807561668696607
10
-122.988227433669
20
44.575393963332807
10
-124.93350405472401
20
43.050374690302597
42
-0.99999999999999989
10
-128.01834215153002
20
46.985317373048005
10
-124.486380019507
20
49.754234793146807
10
-115.897937953743
20
119.701482253316
10
-116.98439033923101
20
121.37447221658201
10
-118.334064424754
20
123.445260660244
42
-0.99999999999999989
10
-114.14523403132399
20
126.17540716457
10
-111.715306384142
20
122.447198892149
0
CIRCLE
5
101
100
AcDbEntity
8
0
100
AcDbCircle
10
-50.1427516155468
20
98.994805329976501
30
0
40
1.05
210
0
220
-0
230
1
0
CIRCLE
5
102
100
AcDbEntity
8
0
100
AcDbCircle
10
-116.239649228039
20
124.810333912407
30
0
40
1.05
210
0
220
-0
230
1
0
CIRCLE
5
103
100
AcDbEntity
8
0
100
AcDbCircle
10
-126.47592310312702
20
45.017846031675298
30
0
40
1.05
210
0
220
-0
230
1
0
CIRCLE
5
104
100
AcDbEntity
8
0
100
AcDbCircle
10
-43.834545256908797
20
39.187257743055099
30
0
40
1.05
210
0
220
-0
230
1
0
LWPOLYLINE
5
105
100
AcDbEntity
8
0
100
AcDbPolyline
90
8
70
1
43
0.0
10
-40.157365392259301
20
82.089359048178565
42
-0.41421356237308987
10
-40.592703796377336
20
82.646566795701801
10
-39.008402332110478
20
95.549666767039
42
-0.41421356237309664
10
-38.451194584587206
20
95.985005171157084
10
-25.548094613250107
20
94.400703706890155
42
-0.41421356237309531
10
-25.112756209132051
20
93.843495959366905
10
-26.697057673398895
20
80.940395988029707
42
-0.4142135623730947
10
-27.254265420922202
20
80.505057583911594
0
LWPOLYLINE
5
106
100
AcDbEntity
8
0
100
AcDbPolyline
90
8
70
1
43
0.0
10
-60.818420260712706
20
74.236272522948099
10
-62.402721724979706
20
61.3331725516109
42
0.41421356237308227
10
-61.967383320861501
20
60.775964804087607
10
-49.064283349524409
20
59.1916633398207
42
0.41421356237310025
10
-48.507075602001102
20
59.627001743938806
10
-46.922774137734244
20
72.530101715276004
42
0.41421356237309576
10
-47.3581125418523
20
73.087309462799197
10
-60.261212513189406
20
74.671610927066183
42
0.41421356237309698
0
LWPOLYLINE
5
107
100
AcDbEntity
8
0
100
AcDbPolyline
90
8
70
1
43
0.0
10
-96.312817646379017
20
97.787498695451404
10
-97.897119110646003
20
84.884398724114206
42
0.41421356237309775
10
-97.461780706527904
20
84.327190976591012
10
-84.55868073519072
20
82.742889512323956
42
0.41421356237305118
10
-84.001472987667512
20
83.178227916442097
10
-82.417171523400555
20
96.081327887779295
42
0.41421356237315327
10
-82.852509927518696
20
96.638535635302517
10
-95.755609898855795
20
98.222837099569475
42
0.41421356237308998
0
LWPOLYLINE
5
108
100
AcDbEntity
8
0
100
AcDbPolyline
90
8
70
1
43
0.0
10
-116.369784895295
20
86.648801968458997
42
-0.41421356237345131
10
-116.80512329941364
20
87.20600971598229
10
-115.22082183514678
20
100.10910968731909
42
-0.41421356237360457
10
-114.66361408762305
20
100.54444809143769
10
-101.760514116286
20
98.960146627170644
42
-0.41421356237343843
10
-101.32517571216736
20
98.402938879647323
10
-102.90947717643432
20
85.499838908310124
42
-0.41421356237327539
10
-103.466684923958
20
85.064500504192154
0
LWPOLYLINE
5
109
100
AcDbEntity
8
0
100
AcDbPolyline
90
8
70
1
43
0.0
10
-59.645772328993409
20
79.683968992854815
42
-0.41421356237314733
10
-60.081110733111565
20
80.241176740378094
10
-58.496809268844743
20
93.144276711715307
42
-0.41421356237309248
10
-57.939601521321379
20
93.579615115833434
10
-45.036501549984308
20
91.995313651566448
42
-0.41421356237315121
10
-44.601163145866174
20
91.438105904043198
10
-46.185464610133124
20
78.535005932705999
42
-0.41421356237304402
10
-46.742672357656303
20
78.099667528587915
0
LWPOLYLINE
5
110
100
AcDbEntity
8
0
100
AcDbPolyline
90
8
70
1
43
0.0
10
-73.868665002296879
20
100.62338279950635
42
-0.41421356237327772
10
-74.30400340641485
20
101.18059054702999
10
-72.719701942147921
20
114.08369051836701
42
-0.41421356237282719
10
-72.162494194624742
20
114.51902892248468
10
-59.259394223287423
20
112.93472745821866
42
-0.41421356237328949
10
-58.824055819169494
20
112.37751971069501
10
-60.408357283436381
20
99.474419739357813
42
-0.41421356237316154
10
-60.96556503095961
20
99.0390813352397
0
LWPOLYLINE
5
111
100
AcDbEntity
8
0
100
AcDbPolyline
90
8
70
1
43
0.0
10
-105.42969786247806
20
117.5962180918506
42
-0.41421356237250784
10
-104.99435945836029
20
117.03901034432805
10
-106.70053026603242
20
103.14336422134906
42
-0.41421356237251628
10
-107.25773801355498
20
102.7080258172313
10
-113.21301492340297
20
103.43924187766227
42
-0.4142135623731773
10
-113.64835332752172
20
103.99644962518509
10
-111.94218251984961
20
117.89209574816408
42
-0.41421356237301965
10
-111.38497477232606
20
118.32743415228164
0
LWPOLYLINE
5
112
100
AcDbEntity
8
0
100
AcDbPolyline
90
8
70
1
43
0.0
10
-81.73166594588993
20
114.68646564870969
42
-0.41421356237276979
10
-81.296327541771745
20
114.129257901187
10
-83.002498349443925
20
100.23361177820803
42
-0.4142135623728006
10
-83.559706096967062
20
99.798273374090272
10
-89.514983006815086
20
100.52948943452034
42
-0.41421356237335016
10
-89.950321410933128
20
101.08669718204402
10
-88.244150603260977
20
114.98234330502299
42
-0.41421356237278267
10
-87.686942855737939
20
115.41768170914067
0
LWPOLYLINE
5
113
100
AcDbEntity
8
0
100
AcDbPolyline
90
8
70
1
43
0.0
10
-99.783391698395917
20
65.419186787823747
42
-0.4142135623731531
10
-100.21873010251406
20
65.976394535347012
10
-98.63442863824713
20
78.879494506684182
42
-0.41421356237304913
10
-98.077220890723908
20
79.314832910802323
10
-85.174120919386695
20
77.730531446535366
42
-0.4142135623730292
10
-84.738782515268724
20
77.173323699012116
10
-86.323083979535525
20
64.270223727674903
42
-0.41421356237309759
10
-86.880291727058804
20
63.834885323556833
0
LWPOLYLINE
5
114
100
AcDbEntity
8
0
100
AcDbPolyline
90
8
70
1
43
0.0
10
-102.105002690264
20
46.511182599056596
42
-0.41421356237283818
10
-102.54034109438167
20
47.068390346579754
10
-100.95603963011568
20
59.97149031791708
42
-0.4142135623732669
10
-100.39883188259203
20
60.406828722035037
10
-87.495731911254808
20
58.822527257768158
42
-0.41421356237308271
10
-87.060393507136752
20
58.265319510244915
10
-88.644694971403652
20
45.362219538907802
42
-0.41421356237315055
10
-89.201902718926917
20
44.92688113478966
0
LWPOLYLINE
5
115
100
AcDbEntity
8
0
100
AcDbPolyline
90
8
70
1
43
0.0
10
-77.985216205578894
20
90.738886656391514
10
-79.569517669845794
20
77.835786685054302
42
0.41421356237297691
10
-79.134179265727795
20
77.278578937531094
10
-66.231079294390497
20
75.694277473264165
42
0.4142135623730982
10
-65.673871546867304
20
76.129615877382307
10
-64.089570082600318
20
89.032715848719477
42
0.4142135623730544
10
-64.524908486718402
20
89.589923596242699
10
-77.428008458055601
20
91.174225060509585
42
0.41421356237309631
0
LWPOLYLINE
5
116
100
AcDbEntity
8
0
100
AcDbPolyline
90
8
70
1
43
0.0
10
-42.478976384127293
20
63.181354859411449
42
-0.41421356237310536
10
-42.914314788245463
20
63.738562606934607
10
-41.330013323978612
20
76.641662578271806
42
-0.41421356237309381
10
-40.772805576455298
20
77.077000982389904
10
-27.869705605118106
20
75.492699518122976
42
-0.41421356237310014
10
-27.434367201000029
20
74.935491770599697
10
-29.018668665266961
20
62.032391799262598
42
-0.41421356237308965
10
-29.575876412790194
20
61.597053395144563
0
LWPOLYLINE
5
117
100
AcDbEntity
8
0
100
AcDbPolyline
90
8
70
1
43
0.0
10
-64.288994312729614
20
41.867960615320435
42
-0.41421356237315243
10
-64.724332716847769
20
42.425168362843699
10
-63.140031252580854
20
55.328268334180912
42
-0.41421356237310158
10
-62.58282350505749
20
55.763606738299046
10
-49.679723533720413
20
54.17930527403206
42
-0.41421356237309365
10
-49.24438512960235
20
53.62209752650881
10
-50.828686593869264
20
40.718997555171612
42
-0.41421356237309431
10
-51.3858943413925
20
40.28365915105357
0
LWPOLYLINE
5
118
100
AcDbEntity
8
0
100
AcDbPolyline
90
8
70
1
43
0.0
10
-81.455790257595794
20
58.370574748763957
42
-0.41421356237303181
10
-81.89112866171385
20
58.927782496287094
10
-80.306827197447021
20
71.830882467624306
42
-0.41421356237308987
10
-79.749619449923799
20
72.266220871742519
10
-66.846519478586515
20
70.681919407475476
42
-0.41421356237304013
10
-66.411181074468416
20
70.124711659952297
10
-67.995482538735388
20
57.221611688615106
42
-0.41421356237309381
10
-68.552690286258496
20
56.786273284496993
0
LWPOLYLINE
5
119
100
AcDbEntity
8
0
100
AcDbPolyline
90
8
70
1
43
0.0
10
-121.013006879031
20
48.832793590924567
42
-0.41421356237350415
10
-121.44834528314965
20
49.390001338447988
10
-119.86404381888266
20
62.293101309785087
42
-0.41421356237331919
10
-119.30683607135903
20
62.728439713903121
10
-106.403736100022
20
61.144138249636228
42
-0.4142135623728363
10
-105.96839769590433
20
60.586930502113034
10
-107.55269916017039
20
47.683830530775722
42
-0.41421356237328044
10
-108.109906907694
20
47.248492126657816
0
LWPOLYLINE
5
120
100
AcDbEntity
8
0
100
AcDbPolyline
90
8
70
1
43
0.0
10
-44.800587375995491
20
44.273350670644248
42
-0.41421356237304796
10
-45.235925780113568
20
44.830558418167413
10
-43.651624315846618
20
57.733658389504605
42
-0.41421356237310414
10
-43.094416568323382
20
58.168996793622824
10
-30.191316596986209
20
56.584695329355768
42
-0.41421356237304013
10
-29.755978192868128
20
56.027487581832602
10
-31.340279657135049
20
43.124387610495411
42
-0.41421356237316143
10
-31.897487404658307
20
42.689049206377263
0
LWPOLYLINE
5
121
100
AcDbEntity
8
0
100
AcDbPolyline
90
8
70
1
43
0.0
10
-82.628438189315006
20
52.922878278857198
10
-84.212739653581906
20
40.019778307519999
42
0.41421356237316176
10
-83.777401249463793
20
39.462570559996699
10
-70.87430127812658
20
37.878269095729934
42
0.4142135623730745
10
-70.317093530603501
20
38.313607499847897
10
-68.732792066336444
20
51.216707471185103
42
0.41421356237309576
10
-69.1681304704545
20
51.773915218708304
10
-82.071230441791812
20
53.358216682975204
42
0.41421356237309503
0
LWPOLYLINE
5
122
100
AcDbEntity
8
0
100
AcDbPolyline
90
8
70
1
43
0.0
10
-104.59417180904298
20
104.39600066129225
42
-0.41421356237308471
10
-105.02951021316177
20
104.95320840881497
10
-103.4452087488947
20
117.85630838015297
42
-0.41421356237309592
10
-102.88800100137104
20
118.2916467842707
10
-89.984901030034223
20
116.70734532000367
42
-0.41421356237276291
10
-89.549562625916082
20
116.150137572481
10
-91.133864090183025
20
103.24703760114303
42
-0.41421356237278906
10
-91.691071837706176
20
102.81169919702523
0
LWPOLYLINE
5
123
100
AcDbEntity
8
0
100
AcDbPolyline
90
8
70
1
43
0.0
10
-118.69139588716301
20
67.740797779691789
42
-0.41421356237348805
10
-119.12673429128164
20
68.298005527215182
10
-117.54243282701472
20
81.20110549855228
42
-0.41421356237334761
10
-116.985225079491
20
81.636443902670365
10
-104.08212510815402
20
80.052142438403436
42
-0.41421356237343776
10
-103.64678670403534
20
79.494934690880129
10
-105.23108816830232
20
66.591834719542916
42
-0.41421356237327539
10
-105.78829591582601
20
66.156496315424945
0
ENDSEC
0
SECTION
2
OBJECTS
0
DICTIONARY
5
C
100
AcDbDictionary
3
ACAD_GROUP
350
D
3
ACAD_MLINESTYLE
350
17
0
DICTIONARY
5
D
100
AcDbDictionary
0
DICTIONARY
5
1A
330
C
100
AcDbDictionary
0
DICTIONARY
5
17
100
AcDbDictionary
0
ENDSEC
0
EOF
