0
SECTION
2
HEADER
9
$INSUNITS
70
4
9
$ACADVER
1
AC1014
9
$HANDSEED
5
FFFF
0
ENDSEC
0
SECTION
2
TABLES
0
TABLE
2
VPORT
5
8
100
AcDbSymbolTable
0
ENDTAB
0
TABLE
2
LTYPE
5
5
100
AcDbSymbolTable
70
2
0
LTYPE
5
14
100
AcDbSymbolTableRecord
100
AcDbLinetypeTableRecord
2
BYBLOCK
70
0
0
LTYPE
5
15
100
AcDbSymbolTableRecord
100
AcDbLinetypeTableRecord
2
BYLAYER
70
0
0
ENDTAB
0
TABLE
2
LAYER
5
2
100
AcDbSymbolTable
70
3
0
LAYER
5
50
100
AcDbSymbolTableRecord
100
AcDbLayerTableRecord
2
0
70
0
6
CONTINUOUS
0
LAYER
5
51
100
AcDbSymbolTableRecord
100
AcDbLayerTableRecord
2
CUTOUTS
70
0
62
1
6
CONTINUOUS
0
LAYER
5
52
100
AcDbSymbolTableRecord
100
AcDbLayerTableRecord
2
PERIMETER
70
0
62
5
6
CONTINUOUS
0
ENDTAB
0
TABLE
2
STYLE
5
3
100
AcDbSymbolTable
70
1
0
STYLE
5
11
100
AcDbSymbolTableRecord
100
AcDbTextStyleTableRecord
2
STANDARD
70
0
0
ENDTAB
0
TABLE
2
VIEW
5
6
100
AcDbSymbolTable
0
ENDTAB
0
TABLE
2
UCS
5
7
100
AcDbSymbolTable
0
ENDTAB
0
TABLE
2
APPID
5
9
100
AcDbSymbolTable
70
1
0
APPID
5
12
100
AcDbSymbolTableRecord
100
AcDbRegAppTableRecord
2
ACAD
70
0
0
ENDTAB
0
TABLE
2
DIMSTYLE
5
A
100
AcDbSymbolTable
0
ENDTAB
0
TABLE
2
BLOCK_RECORD
5
1
100
AcDbSymbolTable
70
2
0
BLOCK_RECORD
5
1F
100
AcDbSymbolTableRecord
100
AcDbBlockTableRecord
2
*MODEL_SPACE
0
BLOCK_RECORD
5
1B
100
AcDbSymbolTableRecord
100
AcDbBlockTableRecord
2
*PAPER_SPACE
0
ENDTAB
0
ENDSEC
0
SECTION
2
BLOCKS
0
BLOCK
5
20
100
AcDbEntity
100
AcDbBlockBegin
2
*MODEL_SPACE
0
ENDBLK
5
21
100
AcDbEntity
100
AcDbBlockEnd
0
BLOCK
5
1C
100
AcDbEntity
100
AcDbBlockBegin
2
*PAPER_SPACE
0
ENDBLK
5
1D
100
AcDbEntity
100
AcDbBlockEnd
0
ENDSEC
0
SECTION
2
ENTITIES
0
LINE
5
100
100
AcDbEntity
8
CUTOUTS
100
AcDbLine
10
12.90262475000004
20
-20.075000500000037
30
0
11
12.90262475000004
21
-20.575000500000023
31
0
0
ARC
5
101
100
AcDbEntity
8
CUTOUTS
100
AcDbCircle
10
12.402624750000033
20
-20.075000500000037
30
0
40
0.50000000000000711
210
0
220
-0
230
1
100
AcDbArc
50
0
51
90
0
LINE
5
102
100
AcDbEntity
8
CUTOUTS
100
AcDbLine
10
6.4026247500000188
20
-19.575000500000037
30
0
11
12.402624750000033
21
-19.57500050000003
31
0
0
ARC
5
103
100
AcDbEntity
8
CUTOUTS
100
AcDbCircle
10
6.4026247500000188
20
-20.075000500000044
30
0
40
0.50000000000000711
210
0
220
-0
230
1
100
AcDbArc
50
90
51
180
0
LINE
5
104
100
AcDbEntity
8
CUTOUTS
100
AcDbLine
10
5.9026247500000117
20
-20.575000500000044
30
0
11
5.9026247500000117
21
-20.075000500000037
31
0
0
ARC
5
105
100
AcDbEntity
8
CUTOUTS
100
AcDbCircle
10
4.9026247500000331
20
-20.575000500000051
30
0
40
0.99999999999998757
210
-0
220
0
230
1
100
AcDbArc
50
-90
51
0
0
LINE
5
106
100
AcDbEntity
8
CUTOUTS
100
AcDbLine
10
0.55312475000004468
20
-21.575000500000037
30
0
11
4.9026247500000331
21
-21.575000500000037
31
0
0
ARC
5
107
100
AcDbEntity
8
CUTOUTS
100
AcDbCircle
10
0.55312475000004468
20
-22.075000500000019
30
0
40
0.49999999999998046
210
0
220
-0
230
1
100
AcDbArc
50
89.999999999999986
51
180
0
LINE
5
108
100
AcDbEntity
8
CUTOUTS
100
AcDbLine
10
0.053124750000037579
20
-35.075000500000037
30
0
11
0.053124750000055343
21
-22.075000500000037
31
0
0
ARC
5
109
100
AcDbEntity
8
CUTOUTS
100
AcDbCircle
10
0.55312475000006245
20
-35.075000500000016
30
0
40
0.50000000000002487
210
0
220
0
230
1
100
AcDbArc
50
180
51
269.99999999999795
0
LINE
5
10A
100
AcDbEntity
8
CUTOUTS
100
AcDbLine
10
39.746874750000046
20
-35.57500050000003
30
0
11
0.55312475000004468
21
-35.575000500000044
31
0
0
ARC
5
10B
100
AcDbEntity
8
CUTOUTS
100
AcDbCircle
10
39.746874750000046
20
-35.075000500000044
30
0
40
0.49999999999998934
210
-0
220
0
230
1
100
AcDbArc
50
270
51
340.87950322887258
0
ARC
5
10C
100
AcDbEntity
8
CUTOUTS
100
AcDbCircle
10
41.164122441039353
20
-35.566334380618699
30
0
40
1.0000000000000229
210
0
220
0
230
1
100
AcDbArc
50
96.161532024163137
51
160.87950322887198
0
ARC
5
10D
100
AcDbEntity
8
CUTOUTS
100
AcDbCircle
10
41.00312475000004
20
-34.075000500000066
30
0
40
0.49999899999998604
210
-0
220
0
230
1
100
AcDbArc
50
-83.838467975834845
51
0
0
LINE
5
10E
100
AcDbEntity
8
CUTOUTS
100
AcDbLine
10
41.503124750000055
20
-20.075000500000037
30
0
11
41.503123750000043
21
-34.075000500000037
31
0
0
ARC
5
10F
100
AcDbEntity
8
CUTOUTS
100
AcDbCircle
10
41.00312475000004
20
-20.074999500000033
30
0
40
0.50000000000100708
210
-0
220
0
230
1
100
AcDbArc
50
-0.0001145902915529748
51
90
0
LINE
5
110
100
AcDbEntity
8
CUTOUTS
100
AcDbLine
10
30.278624750000045
20
-19.575000500000037
30
0
11
41.00312475000004
21
-19.574999499999031
31
0
0
ARC
5
111
100
AcDbEntity
8
CUTOUTS
100
AcDbCircle
10
30.278623750000033
20
-20.074999500000004
30
0
40
0.49999900000096875
210
0
220
-0
230
1
100
AcDbArc
50
89.99988540821046
51
179.9998854097085
0
LINE
5
112
100
AcDbEntity
8
CUTOUTS
100
AcDbLine
10
29.778624750000038
20
-20.575000500000044
30
0
11
29.778624750000073
21
-20.074998500000039
31
0
0
ARC
5
113
100
AcDbEntity
8
CUTOUTS
100
AcDbCircle
10
28.778624750000059
20
-20.575000500000051
30
0
40
0.99999999999998757
210
0
220
0
230
1
100
AcDbArc
50
-90.000000000002032
51
0
0
LINE
5
114
100
AcDbEntity
8
CUTOUTS
100
AcDbLine
10
13.902624750000037
20
-21.575000500000037
30
0
11
28.778624750000024
21
-21.575000500000037
31
0
0
ARC
5
115
100
AcDbEntity
8
CUTOUTS
100
AcDbCircle
10
13.902624750000037
20
-20.575000500000044
30
0
40
0.99999999999999645
210
0
220
0
230
1
100
AcDbArc
50
180
51
270
0
ARC
5
116
100
AcDbEntity
8
CUTOUTS
100
AcDbCircle
10
139.75937475000012
20
-3.025000500000008
30
0
40
0.49999999999997158
210
-0
220
0
230
1
100
AcDbArc
50
0
51
90.000000000006523
0
LINE
5
117
100
AcDbEntity
8
CUTOUTS
100
AcDbLine
10
140.25937475000009
20
-3.0250005000000346
30
0
11
140.25937475000009
21
-16.02500050000004
31
0
0
ARC
5
118
100
AcDbEntity
8
CUTOUTS
100
AcDbCircle
10
139.75937475000006
20
-16.025000500000004
30
0
40
0.50000000000003375
210
-0
220
0
230
1
100
AcDbArc
50
270
51
360
0
LINE
5
119
100
AcDbEntity
8
CUTOUTS
100
AcDbLine
10
139.75937475000006
20
-16.52500050000004
30
0
11
133.02862475000006
21
-16.52500050000004
31
0
0
ARC
5
11A
100
AcDbEntity
8
CUTOUTS
100
AcDbCircle
10
133.02862475000003
20
-17.525000500000036
30
0
40
0.99999999999999645
210
0
220
-0
230
1
100
AcDbArc
50
89.99999999999838
51
180
0
LINE
5
11B
100
AcDbEntity
8
CUTOUTS
100
AcDbLine
10
132.02862475000006
20
-17.525000500000036
30
0
11
132.02862475000009
21
-18.025000500000044
31
0
0
ARC
5
11C
100
AcDbEntity
8
CUTOUTS
100
AcDbCircle
10
131.52862475000001
20
-18.02500049999999
30
0
40
0.50000000000005151
210
-0
220
0
230
1
100
AcDbArc
50
270.00000000000978
51
360
0
LINE
5
11D
100
AcDbEntity
8
CUTOUTS
100
AcDbLine
10
131.52862475000009
20
-18.52500050000004
30
0
11
125.52862475000006
21
-18.525000500000051
31
0
0
ARC
5
11E
100
AcDbEntity
8
CUTOUTS
100
AcDbCircle
10
125.52862475000003
20
-18.025000500000061
30
0
40
0.49999999999997158
210
0
220
0
230
1
100
AcDbArc
50
180
51
270.00000000000324
0
LINE
5
11F
100
AcDbEntity
8
CUTOUTS
100
AcDbLine
10
125.02862475000006
20
-18.025000500000044
30
0
11
125.02862475000006
21
-4.0250005000000399
31
0
0
ARC
5
120
100
AcDbEntity
8
CUTOUTS
100
AcDbCircle
10
125.52862475000003
20
-4.0250005000000311
30
0
40
0.49999999999998135
210
0
220
0
230
1
100
AcDbArc
50
97.183499900797173
51
180
0
ARC
5
121
100
AcDbEntity
8
CUTOUTS
100
AcDbCircle
10
125.34105347280536
20
-2.5367743693426448
30
0
40
0.99999999999998479
210
-0
220
0
230
1
100
AcDbArc
50
277.18349990079781
51
341.00509416830084
0
ARC
5
122
100
AcDbEntity
8
CUTOUTS
100
AcDbCircle
10
126.75937475000011
20
-3.0250005000000524
30
0
40
0.50000000000001599
210
0
220
0
230
1
100
AcDbArc
50
90.000000000004889
51
161.00509416829846
0
LINE
5
123
100
AcDbEntity
8
CUTOUTS
100
AcDbLine
10
126.75937475000006
20
-2.5250005000000364
30
0
11
139.75937475000006
21
-2.5250005000000275
31
0
0
LINE
5
124
100
AcDbEntity
8
CUTOUTS
100
AcDbLine
10
123.09062375000002
20
-16.52500050000004
30
0
11
109.15262475000004
21
-16.52500050000004
31
0
0
ARC
5
125
100
AcDbEntity
8
CUTOUTS
100
AcDbCircle
10
109.15262475000007
20
-17.525000500000072
30
0
40
1.000000000000032
210
0
220
0
230
1
100
AcDbArc
50
90.000000000001634
51
180
0
LINE
5
126
100
AcDbEntity
8
CUTOUTS
100
AcDbLine
10
108.15262475000006
20
-17.525000500000036
30
0
11
108.15262475000003
21
-18.025000500000044
31
0
0
ARC
5
127
100
AcDbEntity
8
CUTOUTS
100
AcDbCircle
10
107.65262474999994
20
-18.02500049999999
30
0
40
0.50000000000005151
210
-0
220
0
230
1
100
AcDbArc
50
270.00000000000813
51
360
0
LINE
5
128
100
AcDbEntity
8
CUTOUTS
100
AcDbLine
10
107.65262475000002
20
-18.52500050000004
30
0
11
101.65262475000004
21
-18.52500050000004
31
0
0
ARC
5
129
100
AcDbEntity
8
CUTOUTS
100
AcDbCircle
10
101.65262475
20
-18.025000500000079
30
0
40
0.49999999999997158
210
0
220
0
230
1
100
AcDbArc
50
180
51
270.00000000000489
0
LINE
5
12A
100
AcDbEntity
8
CUTOUTS
100
AcDbLine
10
101.15262475000003
20
-18.025000500000044
30
0
11
101.15262475000003
21
-4.0250005000000399
31
0
0
ARC
5
12B
100
AcDbEntity
8
CUTOUTS
100
AcDbCircle
10
101.65262475000004
20
-4.0250005000000755
30
0
40
0.50000000000003375
210
0
220
-0
230
1
100
AcDbArc
50
90
51
180
0
LINE
5
12C
100
AcDbEntity
8
CUTOUTS
100
AcDbLine
10
101.65262475000004
20
-3.5250005000000417
30
0
11
106.29516118762696
21
-3.5250005000000417
31
0
0
ARC
5
12D
100
AcDbEntity
8
CUTOUTS
100
AcDbCircle
10
106.29516118762693
20
-2.525000499999992
30
0
40
1.0000000000000497
210
-0
220
0
230
1
100
AcDbArc
50
270.00000000000159
51
340.52877936550578
0
ARC
5
12E
100
AcDbEntity
8
CUTOUTS
100
AcDbCircle
10
107.70937475000005
20
-3.0250004999999902
30
0
40
0.49999999999995381
210
0
220
-0
230
1
100
AcDbArc
50
90
51
160.52877936551783
0
LINE
5
12F
100
AcDbEntity
8
CUTOUTS
100
AcDbLine
10
107.70937475000005
20
-2.5250005000000364
30
0
11
123.09062375000002
21
-2.5250005000000275
31
0
0
ARC
5
130
100
AcDbEntity
8
CUTOUTS
100
AcDbCircle
10
123.09062375000005
20
-3.025000500000008
30
0
40
0.49999999999997158
210
-0
220
0
230
1
100
AcDbArc
50
0
51
90.000000000003254
0
LINE
5
131
100
AcDbEntity
8
CUTOUTS
100
AcDbLine
10
123.59062375000002
20
-3.0250005000000346
30
0
11
123.59062375000002
21
-16.02500050000004
31
0
0
ARC
5
132
100
AcDbEntity
8
CUTOUTS
100
AcDbCircle
10
123.09062375000002
20
-16.025000500000004
30
0
40
0.50000000000003375
210
-0
220
0
230
1
100
AcDbArc
50
270
51
360
0
LINE
5
133
100
AcDbEntity
8
CUTOUTS
100
AcDbLine
10
-32.784375249999954
20
-21.575000500000037
30
0
11
-18.846375249999969
21
-21.575000500000037
31
0
0
ARC
5
134
100
AcDbEntity
8
CUTOUTS
100
AcDbCircle
10
-18.846375249999969
20
-20.575000500000051
30
0
40
0.99999999999998757
210
-0
220
0
230
1
100
AcDbArc
50
-90
51
0
0
LINE
5
135
100
AcDbEntity
8
CUTOUTS
100
AcDbLine
10
-17.846375249999991
20
-20.575000500000044
30
0
11
-17.846375249999955
21
-20.075000500000037
31
0
0
ARC
5
136
100
AcDbEntity
8
CUTOUTS
100
AcDbCircle
10
-17.346375249999966
20
-20.075000500000026
30
0
40
0.49999999999998934
210
0
220
-0
230
1
100
AcDbArc
50
90
51
180
0
LINE
5
137
100
AcDbEntity
8
CUTOUTS
100
AcDbLine
10
-17.346375249999966
20
-19.575000500000037
30
0
11
-11.346375249999969
21
-19.57500050000003
31
0
0
ARC
5
138
100
AcDbEntity
8
CUTOUTS
100
AcDbCircle
10
-11.346375249999969
20
-20.075000500000037
30
0
40
0.50000000000000711
210
0
220
-0
230
1
100
AcDbArc
50
0
51
90
0
LINE
5
139
100
AcDbEntity
8
CUTOUTS
100
AcDbLine
10
-10.846375249999962
20
-20.075000500000037
30
0
11
-10.846375249999962
21
-20.575000500000044
31
0
0
ARC
5
13A
100
AcDbEntity
8
CUTOUTS
100
AcDbCircle
10
-9.8463752499999657
20
-20.575000500000044
30
0
40
0.99999999999999645
210
0
220
0
230
1
100
AcDbArc
50
180
51
270
0
LINE
5
13B
100
AcDbEntity
8
CUTOUTS
100
AcDbLine
10
-9.8463752499999657
20
-21.575000500000037
30
0
11
-5.4968752499999596
21
-21.57500050000003
31
0
0
ARC
5
13C
100
AcDbEntity
8
CUTOUTS
100
AcDbCircle
10
-5.4968752499999773
20
-22.075000500000044
30
0
40
0.50000000000002487
210
0
220
-0
230
1
100
AcDbArc
50
0
51
89.999999999997954
0
LINE
5
13D
100
AcDbEntity
8
CUTOUTS
100
AcDbLine
10
-4.9968752499999525
20
-22.075000500000037
30
0
11
-4.9968752499999702
21
-35.075000500000037
31
0
0
ARC
5
13E
100
AcDbEntity
8
CUTOUTS
100
AcDbCircle
10
-5.4968752499999596
20
-35.075000500000044
30
0
40
0.49999999999998934
210
-0
220
0
230
1
100
AcDbArc
50
-90
51
0
0
LINE
5
13F
100
AcDbEntity
8
CUTOUTS
100
AcDbLine
10
-5.4968752499999596
20
-35.57500050000003
30
0
11
-32.784375249999954
21
-35.575000500000044
31
0
0
ARC
5
140
100
AcDbEntity
8
CUTOUTS
100
AcDbCircle
10
-32.784375249999954
20
-35.075000500000037
30
0
40
0.50000000000000711
210
0
220
0
230
1
100
AcDbArc
50
180
51
270
0
LINE
5
141
100
AcDbEntity
8
CUTOUTS
100
AcDbLine
10
-33.284375249999968
20
-35.075000500000037
30
0
11
-33.284375249999968
21
-22.075000500000037
31
0
0
ARC
5
142
100
AcDbEntity
8
CUTOUTS
100
AcDbCircle
10
-32.784375249999975
20
-22.075000500000037
30
0
40
0.49999999999999822
210
0
220
-0
230
1
100
AcDbArc
50
89.999999999997556
51
180
0
ARC
5
143
100
AcDbEntity
8
CUTOUTS
100
AcDbCircle
10
-57.496875249999974
20
-20.575000500000051
30
0
40
0.99999999999999645
210
0
220
0
230
1
100
AcDbArc
50
180
51
270
0
LINE
5
144
100
AcDbEntity
8
CUTOUTS
100
AcDbLine
10
-57.496875249999974
20
-21.575000500000048
30
0
11
-43.596875249999968
21
-21.57500050000003
31
0
0
ARC
5
145
100
AcDbEntity
8
CUTOUTS
100
AcDbCircle
10
-43.596875249999968
20
-22.07500050000003
30
0
40
0.50000000000000711
210
-0
220
0
230
1
100
AcDbArc
50
0
51
90
0
LINE
5
146
100
AcDbEntity
8
CUTOUTS
100
AcDbLine
10
-43.096875249999954
20
-22.075000500000037
30
0
11
-43.096875249999954
21
-35.075000500000037
31
0
0
ARC
5
147
100
AcDbEntity
8
CUTOUTS
100
AcDbCircle
10
-43.596875249999968
20
-35.07500050000003
30
0
40
0.50000000000000711
210
-0
220
0
230
1
100
AcDbArc
50
270
51
360
0
LINE
5
148
100
AcDbEntity
8
CUTOUTS
100
AcDbLine
10
-43.596875249999968
20
-35.57500050000003
30
0
11
-66.121875249999974
21
-35.57500050000003
31
0
0
ARC
5
149
100
AcDbEntity
8
CUTOUTS
100
AcDbCircle
10
-66.121875249999974
20
-35.075000500000037
30
0
40
0.49999999999999822
210
0
220
0
230
1
100
AcDbArc
50
180
51
270
0
LINE
5
14A
100
AcDbEntity
8
CUTOUTS
100
AcDbLine
10
-66.62187524999996
20
-35.075000500000037
30
0
11
-66.62187524999996
21
-22.075000500000037
31
0
0
ARC
5
14B
100
AcDbEntity
8
CUTOUTS
100
AcDbCircle
10
-66.121875249999945
20
-22.075000500000044
30
0
40
0.50000000000001665
210
0
220
0
230
1
100
AcDbArc
50
105.98187963199955
51
180
0
ARC
5
14C
100
AcDbEntity
8
CUTOUTS
100
AcDbCircle
10
-66.534875249999942
20
-20.632977268564439
30
0
40
0.99999999999997957
210
-0
220
0
230
1
100
AcDbArc
50
-74.018120368003835
51
0
0
LINE
5
14D
100
AcDbEntity
8
CUTOUTS
100
AcDbLine
10
-65.534875249999956
20
-20.632977268564431
30
0
11
-65.534875249999956
21
-20.075000500000037
31
0
0
ARC
5
14E
100
AcDbEntity
8
CUTOUTS
100
AcDbCircle
10
-65.034875249999956
20
-20.075000500000037
30
0
40
0.49999999999999822
210
0
220
-0
230
1
100
AcDbArc
50
90
51
180
0
LINE
5
14F
100
AcDbEntity
8
CUTOUTS
100
AcDbLine
10
-65.034875249999956
20
-19.575000500000037
30
0
11
-58.996876249999971
21
-19.574999500000033
31
0
0
ARC
5
150
100
AcDbEntity
8
CUTOUTS
100
AcDbCircle
10
-58.996876249999971
20
-20.075000500000037
30
0
40
0.50000100000000103
210
0
220
-0
230
1
100
AcDbArc
50
0
51
90
0
LINE
5
151
100
AcDbEntity
8
CUTOUTS
100
AcDbLine
10
-58.496875249999967
20
-20.075000500000037
30
0
11
-58.496875249999967
21
-20.575000500000044
31
0
0
LINE
5
152
100
AcDbEntity
8
CUTOUTS
100
AcDbLine
10
-79.790625249999977
20
-20.575000500000044
30
0
11
-79.790625249999977
21
-20.075000500000037
31
0
0
ARC
5
153
100
AcDbEntity
8
CUTOUTS
100
AcDbCircle
10
-79.290625249999977
20
-20.075000500000037
30
0
40
0.49999999999999822
210
0
220
-0
230
1
100
AcDbArc
50
90
51
180
0
LINE
5
154
100
AcDbEntity
8
CUTOUTS
100
AcDbLine
10
-79.290625249999977
20
-19.575000500000037
30
0
11
-73.290625249999962
21
-19.575000500000037
31
0
0
ARC
5
155
100
AcDbEntity
8
CUTOUTS
100
AcDbCircle
10
-73.290625249999962
20
-20.075000500000037
30
0
40
0.49999999999999822
210
0
220
-0
230
1
100
AcDbArc
50
0
51
90
0
LINE
5
156
100
AcDbEntity
8
CUTOUTS
100
AcDbLine
10
-72.790625249999977
20
-20.075000500000037
30
0
11
-72.790625249999977
21
-34.075000500000037
31
0
0
ARC
5
157
100
AcDbEntity
8
CUTOUTS
100
AcDbCircle
10
-73.290625249999962
20
-34.075000500000037
30
0
40
0.49999999999999822
210
-0
220
0
230
1
100
AcDbArc
50
-90
51
0
0
LINE
5
158
100
AcDbEntity
8
CUTOUTS
100
AcDbLine
10
-73.290625249999962
20
-34.575000500000037
30
0
11
-75.520161687626882
21
-34.575000500000037
31
0
0
ARC
5
159
100
AcDbEntity
8
CUTOUTS
100
AcDbCircle
10
-75.520161687626882
20
-35.57500050000003
30
0
40
0.99999999999999645
210
0
220
-0
230
1
100
AcDbArc
50
90
51
160.52877936550965
0
ARC
5
15A
100
AcDbEntity
8
CUTOUTS
100
AcDbCircle
10
-76.934375249999945
20
-35.075000500000058
30
0
40
0.49999999999997158
210
0
220
0
230
1
100
AcDbArc
50
269.99999999999835
51
340.52877936551033
0
LINE
5
15B
100
AcDbEntity
8
CUTOUTS
100
AcDbLine
10
-76.93437524999996
20
-35.57500050000003
30
0
11
-89.934375249999974
21
-35.57500050000003
31
0
0
ARC
5
15C
100
AcDbEntity
8
CUTOUTS
100
AcDbCircle
10
-89.934375249999974
20
-35.075000500000037
30
0
40
0.50000000000000711
210
0
220
0
230
1
100
AcDbArc
50
180
51
270
0
LINE
5
15D
100
AcDbEntity
8
CUTOUTS
100
AcDbLine
10
-90.43437524999996
20
-35.075000500000037
30
0
11
-90.43437524999996
21
-22.075000500000037
31
0
0
ARC
5
15E
100
AcDbEntity
8
CUTOUTS
100
AcDbCircle
10
-89.934375249999974
20
-22.075000500000037
30
0
40
0.49999999999999822
210
0
220
-0
230
1
100
AcDbArc
50
90
51
180
0
LINE
5
15F
100
AcDbEntity
8
CUTOUTS
100
AcDbLine
10
-89.934375249999974
20
-21.575000500000037
30
0
11
-80.790625249999977
21
-21.575000500000037
31
0
0
ARC
5
160
100
AcDbEntity
8
CUTOUTS
100
AcDbCircle
10
-80.790625249999977
20
-20.575000500000044
30
0
40
0.99999999999999645
210
-0
220
0
230
1
100
AcDbArc
50
-90
51
0
0
LINE
5
161
100
AcDbEntity
8
CUTOUTS
100
AcDbLine
10
-106.60312524999996
20
16.524999499999975
30
0
11
-93.603125249999962
21
16.524999499999975
31
0
0
ARC
5
162
100
AcDbEntity
8
CUTOUTS
100
AcDbCircle
10
-93.603125249999977
20
16.024999499999968
30
0
40
0.50000000000000711
210
0
220
-0
230
1
100
AcDbArc
50
0
51
90
0
LINE
5
163
100
AcDbEntity
8
CUTOUTS
100
AcDbLine
10
-93.103125249999977
20
16.024999499999968
30
0
11
-93.103125249999977
21
3.0249994999999608
31
0
0
ARC
5
164
100
AcDbEntity
8
CUTOUTS
100
AcDbCircle
10
-93.603125249999977
20
3.0249994999999608
30
0
40
0.49999999999999822
210
-0
220
0
230
1
100
AcDbArc
50
-90
51
0
0
LINE
5
165
100
AcDbEntity
8
CUTOUTS
100
AcDbLine
10
-93.603125249999977
20
2.5249994999999625
30
0
11
-106.60312524999998
21
2.5249994999999625
31
0
0
ARC
5
166
100
AcDbEntity
8
CUTOUTS
100
AcDbCircle
10
-106.60312524999996
20
3.0249994999999608
30
0
40
0.49999999999998934
210
0
220
0
230
1
100
AcDbArc
50
180
51
270
0
LINE
5
167
100
AcDbEntity
8
CUTOUTS
100
AcDbLine
10
-107.10312524999998
20
3.0249994999999608
30
0
11
-107.10312524999999
21
16.024999499999968
31
0
0
ARC
5
168
100
AcDbEntity
8
CUTOUTS
100
AcDbCircle
10
-106.60312524999996
20
16.024999499999968
30
0
40
0.50000000000001155
210
0
220
-0
230
1
100
AcDbArc
50
90
51
180
0
LINE
5
169
100
AcDbEntity
8
CUTOUTS
100
AcDbLine
10
21.196874750000045
20
16.024999499999968
30
0
11
21.196874750000045
21
3.0249994999999608
31
0
0
ARC
5
16A
100
AcDbEntity
8
CUTOUTS
100
AcDbCircle
10
20.696874750000003
20
3.0249995000000141
30
0
40
0.50000000000004707
210
-0
220
0
230
1
100
AcDbArc
50
270.00000000000409
51
360
0
LINE
5
16B
100
AcDbEntity
8
CUTOUTS
100
AcDbLine
10
20.696874750000038
20
2.5249994999999625
30
0
11
7.6968747500000312
21
2.5249994999999537
31
0
0
ARC
5
16C
100
AcDbEntity
8
CUTOUTS
100
AcDbCircle
10
7.6968747500000312
20
3.0249994999999608
30
0
40
0.50000000000000711
210
0
220
0
230
1
100
AcDbArc
50
180
51
269.99999999999949
0
LINE
5
16D
100
AcDbEntity
8
CUTOUTS
100
AcDbLine
10
7.1968747500000241
20
3.0249994999999608
30
0
11
7.1968747500000241
21
16.024999499999968
31
0
0
ARC
5
16E
100
AcDbEntity
8
CUTOUTS
100
AcDbCircle
10
7.6968747500000312
20
16.024999499999968
30
0
40
0.50000000000001155
210
0
220
-0
230
1
100
AcDbArc
50
90
51
180
0
LINE
5
16F
100
AcDbEntity
8
CUTOUTS
100
AcDbLine
10
7.6968747500000312
20
16.524999499999975
30
0
11
20.696874750000038
21
16.525000500000981
31
0
0
ARC
5
170
100
AcDbEntity
8
CUTOUTS
100
AcDbCircle
10
20.696874750000074
20
16.02500049999998
30
0
40
0.50000000000097167
210
-0
220
0
230
1
100
AcDbArc
50
-0.0001145902915529748
51
90.000000000004476
0
ARC
5
171
100
AcDbEntity
8
CUTOUTS
100
AcDbCircle
10
2.9343747500000283
20
22.074999499999954
30
0
40
0.50000000000098932
210
0
220
0
230
1
100
AcDbArc
50
179.9998854097085
51
270.00000000000205
0
LINE
5
172
100
AcDbEntity
8
CUTOUTS
100
AcDbLine
10
15.934374750000035
20
21.574999499999965
30
0
11
2.9343747500000461
21
21.574999499998953
31
0
0
ARC
5
173
100
AcDbEntity
8
CUTOUTS
100
AcDbCircle
10
15.934374750000035
20
22.075000499999966
30
0
40
0.50000100000000103
210
-0
220
0
230
1
100
AcDbArc
50
-90
51
0
0
LINE
5
174
100
AcDbEntity
8
CUTOUTS
100
AcDbLine
10
16.434374750000043
20
35.074999499999961
30
0
11
16.434375750000036
21
22.075000499999966
31
0
0
ARC
5
175
100
AcDbEntity
8
CUTOUTS
100
AcDbCircle
10
15.934374750000053
20
35.075000499999973
30
0
40
0.50000000000098932
210
-0
220
0
230
1
100
AcDbArc
50
-0.0001145902915529748
51
90.000000000001634
0
LINE
5
176
100
AcDbEntity
8
CUTOUTS
100
AcDbLine
10
2.9343747500000461
20
35.574999499999969
30
0
11
15.934374750000035
21
35.575000500000975
31
0
0
ARC
5
177
100
AcDbEntity
8
CUTOUTS
100
AcDbCircle
10
2.9343747500000639
20
35.074999499999947
30
0
40
0.50000000000002487
210
0
220
0
230
1
100
AcDbArc
50
90.000000000002032
51
180
0
LINE
5
178
100
AcDbEntity
8
CUTOUTS
100
AcDbLine
10
2.434374750000039
20
22.075000499999966
30
0
11
2.434374750000039
21
35.074999499999961
31
0
0
LINE
5
179
100
AcDbEntity
8
CUTOUTS
100
AcDbLine
10
39.746874750000046
20
2.5249994999999625
30
0
11
26.746874750000043
21
2.5249994999999537
31
0
0
ARC
5
17A
100
AcDbEntity
8
CUTOUTS
100
AcDbCircle
10
26.746874750000007
20
3.0249994999999341
30
0
40
0.49999999999997158
210
0
220
0
230
1
100
AcDbArc
50
180
51
270.00000000000409
0
LINE
5
17B
100
AcDbEntity
8
CUTOUTS
100
AcDbLine
10
26.246874750000035
20
3.0249994999999608
30
0
11
26.246874750000035
21
16.024999499999968
31
0
0
ARC
5
17C
100
AcDbEntity
8
CUTOUTS
100
AcDbCircle
10
26.746874750000007
20
16.024999500000003
30
0
40
0.49999999999998046
210
0
220
-0
230
1
100
AcDbArc
50
89.999999999995936
51
180
0
LINE
5
17D
100
AcDbEntity
8
CUTOUTS
100
AcDbLine
10
26.746874750000043
20
16.524999499999975
30
0
11
39.746874750000046
21
16.525000500000981
31
0
0
ARC
5
17E
100
AcDbEntity
8
CUTOUTS
100
AcDbCircle
10
39.746874750000089
20
16.02500049999998
30
0
40
0.50000000000097167
210
-0
220
0
230
1
100
AcDbArc
50
-0.0001145902915529748
51
90.000000000004889
0
LINE
5
17F
100
AcDbEntity
8
CUTOUTS
100
AcDbLine
10
40.24687475000006
20
16.024999499999968
30
0
11
40.24687475000006
21
3.0249994999999608
31
0
0
ARC
5
180
100
AcDbEntity
8
CUTOUTS
100
AcDbCircle
10
39.746874750000018
20
3.0249995000000141
30
0
40
0.50000000000004707
210
-0
220
0
230
1
100
AcDbArc
50
270.00000000000324
51
360
0
LINE
5
181
100
AcDbEntity
8
CUTOUTS
100
AcDbLine
10
-74.053125249999979
20
16.024999499999968
30
0
11
-74.053125249999979
21
3.0249994999999608
31
0
0
ARC
5
182
100
AcDbEntity
8
CUTOUTS
100
AcDbCircle
10
-74.553125249999979
20
3.0249994999999608
30
0
40
0.49999999999999822
210
-0
220
0
230
1
100
AcDbArc
50
-90
51
0
0
LINE
5
183
100
AcDbEntity
8
CUTOUTS
100
AcDbLine
10
-74.553125249999979
20
2.5249994999999625
30
0
11
-87.553125249999965
21
2.5249994999999625
31
0
0
ARC
5
184
100
AcDbEntity
8
CUTOUTS
100
AcDbCircle
10
-87.553125249999965
20
3.0249994999999608
30
0
40
0.50000000000000711
210
0
220
0
230
1
100
AcDbArc
50
180
51
270
0
LINE
5
185
100
AcDbEntity
8
CUTOUTS
100
AcDbLine
10
-88.053125249999965
20
3.0249994999999608
30
0
11
-88.053125249999979
21
16.024999499999968
31
0
0
ARC
5
186
100
AcDbEntity
8
CUTOUTS
100
AcDbCircle
10
-87.553125249999965
20
16.024999499999968
30
0
40
0.50000000000000711
210
0
220
-0
230
1
100
AcDbArc
50
90
51
180
0
LINE
5
187
100
AcDbEntity
8
CUTOUTS
100
AcDbLine
10
-87.553125249999965
20
16.524999499999975
30
0
11
-74.553125249999979
21
16.524999499999975
31
0
0
ARC
5
188
100
AcDbEntity
8
CUTOUTS
100
AcDbCircle
10
-74.553125249999979
20
16.024999499999968
30
0
40
0.49999999999999822
210
0
220
-0
230
1
100
AcDbArc
50
0
51
90
0
ARC
5
189
100
AcDbEntity
8
CUTOUTS
100
AcDbCircle
10
-55.503125249999968
20
16.025000499999944
30
0
40
0.50000000000102485
210
-0
220
0
230
1
100
AcDbArc
50
-0.0001145902915529748
51
89.999885408441259
0
LINE
5
18A
100
AcDbEntity
8
CUTOUTS
100
AcDbLine
10
-68.503125249999954
20
16.524999499999975
30
0
11
-55.503124249999956
21
16.525000499999969
31
0
0
ARC
5
18B
100
AcDbEntity
8
CUTOUTS
100
AcDbCircle
10
-68.503125249999968
20
16.024999499999968
30
0
40
0.50000000000000711
210
0
220
-0
230
1
100
AcDbArc
50
89.99999999999838
51
180
0
LINE
5
18C
100
AcDbEntity
8
CUTOUTS
100
AcDbLine
10
-69.003125249999954
20
3.0249994999999608
30
0
11
-69.003125249999982
21
16.024999499999968
31
0
0
ARC
5
18D
100
AcDbEntity
8
CUTOUTS
100
AcDbCircle
10
-68.503125249999954
20
3.0249994999999608
30
0
40
0.49999999999999822
210
0
220
0
230
1
100
AcDbArc
50
180
51
270
0
LINE
5
18E
100
AcDbEntity
8
CUTOUTS
100
AcDbLine
10
-55.503125249999954
20
2.5249994999999625
30
0
11
-68.503125249999954
21
2.5249994999999625
31
0
0
ARC
5
18F
100
AcDbEntity
8
CUTOUTS
100
AcDbCircle
10
-55.503125249999954
20
3.0249994999999519
30
0
40
0.49999999999998934
210
-0
220
0
230
1
100
AcDbArc
50
-90
51
0
0
LINE
5
190
100
AcDbEntity
8
CUTOUTS
100
AcDbLine
10
-55.003125249999947
20
16.024999499999968
30
0
11
-55.003125249999968
21
3.0249994999999608
31
0
0
ARC
5
191
100
AcDbEntity
8
CUTOUTS
100
AcDbCircle
10
-22.16562524999997
20
35.074999499999961
30
0
40
0.50000000000000711
210
0
220
0
230
1
100
AcDbArc
50
0
51
90.000000000001634
0
LINE
5
192
100
AcDbEntity
8
CUTOUTS
100
AcDbLine
10
-35.165625249999962
20
35.574999499999969
30
0
11
-22.165625249999987
21
35.574999499999969
31
0
0
ARC
5
193
100
AcDbEntity
8
CUTOUTS
100
AcDbCircle
10
-35.165625249999962
20
35.074999499999961
30
0
40
0.50000000000000711
210
0
220
-0
230
1
100
AcDbArc
50
90
51
180
0
LINE
5
194
100
AcDbEntity
8
CUTOUTS
100
AcDbLine
10
-35.665625249999962
20
22.075000499999966
30
0
11
-35.665625249999962
21
35.074999499999961
31
0
0
ARC
5
195
100
AcDbEntity
8
CUTOUTS
100
AcDbCircle
10
-35.165625249999977
20
22.074999499999954
30
0
40
0.50000000000098932
210
0
220
0
230
1
100
AcDbArc
50
179.9998854097085
51
270.00000000000159
0
LINE
5
196
100
AcDbEntity
8
CUTOUTS
100
AcDbLine
10
-22.16562524999997
20
21.575000499999959
30
0
11
-35.165625249999962
21
21.574999499998953
31
0
0
ARC
5
197
100
AcDbEntity
8
CUTOUTS
100
AcDbCircle
10
-22.165625249999987
20
22.075000499999984
30
0
40
0.50000000000002487
210
-0
220
0
230
1
100
AcDbArc
50
270.00000000000205
51
360
0
LINE
5
198
100
AcDbEntity
8
CUTOUTS
100
AcDbLine
10
-21.665625249999962
20
35.074999499999961
30
0
11
-21.665625249999962
21
22.075000499999966
31
0
0
LINE
5
199
100
AcDbEntity
8
CUTOUTS
100
AcDbLine
10
-54.715625249999974
20
22.075000499999966
30
0
11
-54.715625249999974
21
35.074999499999961
31
0
0
ARC
5
19A
100
AcDbEntity
8
CUTOUTS
100
AcDbCircle
10
-54.215625249999974
20
35.074999499999961
30
0
40
0.50000000000000711
210
0
220
-0
230
1
100
AcDbArc
50
90
51
180
0
LINE
5
19B
100
AcDbEntity
8
CUTOUTS
100
AcDbLine
10
-54.215625249999974
20
35.574999499999969
30
0
11
-41.215625250000016
21
35.574999499999969
31
0
0
ARC
5
19C
100
AcDbEntity
8
CUTOUTS
100
AcDbCircle
10
-41.21562524999996
20
35.074999499999961
30
0
40
0.50000000000000711
210
0
220
0
230
1
100
AcDbArc
50
0
51
90.000000000005699
0
LINE
5
19D
100
AcDbEntity
8
CUTOUTS
100
AcDbLine
10
-40.71562524999996
20
35.074999499999961
30
0
11
-40.715624249999962
21
22.075000499999966
31
0
0
ARC
5
19E
100
AcDbEntity
8
CUTOUTS
100
AcDbCircle
10
-41.21562524999996
20
22.075000499999966
30
0
40
0.50000100000000103
210
-0
220
0
230
1
100
AcDbArc
50
-90
51
0
0
LINE
5
19F
100
AcDbEntity
8
CUTOUTS
100
AcDbLine
10
-41.21562524999996
20
21.574999499999965
30
0
11
-54.215625249999974
21
21.574999499998953
31
0
0
ARC
5
1A0
100
AcDbEntity
8
CUTOUTS
100
AcDbCircle
10
-54.215625249999988
20
22.074999499999954
30
0
40
0.50000000000098932
210
0
220
0
230
1
100
AcDbArc
50
179.9998854097085
51
270.00000000000159
0
LINE
5
1A1
100
AcDbEntity
8
CUTOUTS
100
AcDbLine
10
-78.02812524999996
20
-2.5250005000000364
30
0
11
-65.028125249999974
21
-2.5250005000000364
31
0
0
ARC
5
1A2
100
AcDbEntity
8
CUTOUTS
100
AcDbCircle
10
-65.028125249999974
20
-3.0250005000000346
30
0
40
0.49999999999999822
210
0
220
-0
230
1
100
AcDbArc
50
0
51
90
0
LINE
5
1A3
100
AcDbEntity
8
CUTOUTS
100
AcDbLine
10
-64.528125249999974
20
-3.0250005000000346
30
0
11
-64.528125249999974
21
-16.02500050000004
31
0
0
ARC
5
1A4
100
AcDbEntity
8
CUTOUTS
100
AcDbCircle
10
-65.028125249999974
20
-16.02500050000004
30
0
40
0.49999999999999822
210
-0
220
0
230
1
100
AcDbArc
50
-90
51
0
0
LINE
5
1A5
100
AcDbEntity
8
CUTOUTS
100
AcDbLine
10
-65.028125249999974
20
-16.52500050000004
30
0
11
-78.02812524999996
21
-16.52500050000004
31
0
0
ARC
5
1A6
100
AcDbEntity
8
CUTOUTS
100
AcDbCircle
10
-78.02812524999996
20
-16.02500050000004
30
0
40
0.49999999999999822
210
0
220
0
230
1
100
AcDbArc
50
180
51
270
0
LINE
5
1A7
100
AcDbEntity
8
CUTOUTS
100
AcDbLine
10
-78.52812524999996
20
-16.02500050000004
30
0
11
-78.52812524999996
21
-3.0250005000000346
31
0
0
ARC
5
1A8
100
AcDbEntity
8
CUTOUTS
100
AcDbCircle
10
-78.02812524999996
20
-3.0250005000000346
30
0
40
0.49999999999999822
210
0
220
-0
230
1
100
AcDbArc
50
90
51
180
0
LINE
5
1A9
100
AcDbEntity
8
CUTOUTS
100
AcDbLine
10
-35.953125249999957
20
16.024999499999968
30
0
11
-35.953125249999957
21
3.0249994999999608
31
0
0
ARC
5
1AA
100
AcDbEntity
8
CUTOUTS
100
AcDbCircle
10
-36.453125249999943
20
3.0249994999999608
30
0
40
0.49999999999999822
210
0
220
0
230
1
100
AcDbArc
50
-90.000000000001634
51
0
0
LINE
5
1AB
100
AcDbEntity
8
CUTOUTS
100
AcDbLine
10
-36.453125249999957
20
2.5249994999999625
30
0
11
-49.453125249999971
21
2.5249994999999537
31
0
0
ARC
5
1AC
100
AcDbEntity
8
CUTOUTS
100
AcDbCircle
10
-49.453125249999971
20
3.0249994999999608
30
0
40
0.50000000000000711
210
0
220
0
230
1
100
AcDbArc
50
180
51
269.9999999999992
0
LINE
5
1AD
100
AcDbEntity
8
CUTOUTS
100
AcDbLine
10
-49.953125249999971
20
3.0249994999999608
30
0
11
-49.953126250000963
21
16.024999499999968
31
0
0
ARC
5
1AE
100
AcDbEntity
8
CUTOUTS
100
AcDbCircle
10
-49.453126249999961
20
16.024999499999968
30
0
40
0.5000000000009982
210
0
220
-0
230
1
100
AcDbArc
50
89.999885408442083
51
180
0
LINE
5
1AF
100
AcDbEntity
8
CUTOUTS
100
AcDbLine
10
-49.453125249999971
20
16.524999499999975
30
0
11
-36.453125249999957
21
16.525000500000981
31
0
0
ARC
5
1B0
100
AcDbEntity
8
CUTOUTS
100
AcDbCircle
10
-36.453125249999943
20
16.02500049999998
30
0
40
0.50000000000098932
210
-0
220
0
230
1
100
AcDbArc
50
-0.0001145902915529748
51
90.000000000001634
0
LINE
5
1B1
100
AcDbEntity
8
CUTOUTS
100
AcDbLine
10
-7.878125249999961
20
-16.52500050000004
30
0
11
-20.87812524999995
21
-16.525000500000047
31
0
0
ARC
5
1B2
100
AcDbEntity
8
CUTOUTS
100
AcDbCircle
10
-20.87812524999995
20
-16.02500050000004
30
0
40
0.50000000000000711
210
0
220
0
230
1
100
AcDbArc
50
180
51
270
0
LINE
5
1B3
100
AcDbEntity
8
CUTOUTS
100
AcDbLine
10
-21.378125249999957
20
-16.02500050000004
30
0
11
-21.378125249999957
21
-3.0250005000000346
31
0
0
ARC
5
1B4
100
AcDbEntity
8
CUTOUTS
100
AcDbCircle
10
-20.87812524999995
20
-3.0250005000000435
30
0
40
0.50000000000000711
210
0
220
-0
230
1
100
AcDbArc
50
90
51
180
0
LINE
5
1B5
100
AcDbEntity
8
CUTOUTS
100
AcDbLine
10
-20.87812524999995
20
-2.5250005000000364
30
0
11
-7.878125249999961
21
-2.5250005000000275
31
0
0
ARC
5
1B6
100
AcDbEntity
8
CUTOUTS
100
AcDbCircle
10
-7.8781252499999788
20
-3.0250005000000524
30
0
40
0.50000000000002487
210
0
220
-0
230
1
100
AcDbArc
50
0
51
89.999999999997954
0
LINE
5
1B7
100
AcDbEntity
8
CUTOUTS
100
AcDbLine
10
-7.3781252499999539
20
-3.0250005000000346
30
0
11
-7.3781252499999717
21
-16.02500050000004
31
0
0
ARC
5
1B8
100
AcDbEntity
8
CUTOUTS
100
AcDbCircle
10
-7.878125249999961
20
-16.025000500000051
30
0
40
0.49999999999998934
210
-0
220
0
230
1
100
AcDbArc
50
-90
51
0
0
LINE
5
1B9
100
AcDbEntity
8
CUTOUTS
100
AcDbLine
10
-11.353125249999945
20
16.524999499999975
30
0
11
1.6468747500000269
21
16.525000500000964
31
0
0
ARC
5
1BA
100
AcDbEntity
8
CUTOUTS
100
AcDbCircle
10
1.6468747500000447
20
16.025000499999944
30
0
40
0.50000000000100708
210
-0
220
0
230
1
100
AcDbArc
50
-0.0001145902915529748
51
90.000000000003055
0
LINE
5
1BB
100
AcDbEntity
8
CUTOUTS
100
AcDbLine
10
2.1468747500000518
20
16.024999499999968
30
0
11
2.146874750000034
21
3.0249994999999608
31
0
0
ARC
5
1BC
100
AcDbEntity
8
CUTOUTS
100
AcDbCircle
10
1.6468747500000447
20
3.0249994999999519
30
0
40
0.49999999999998934
210
-0
220
0
230
1
100
AcDbArc
50
-90
51
0
0
LINE
5
1BD
100
AcDbEntity
8
CUTOUTS
100
AcDbLine
10
1.6468747500000447
20
2.5249994999999625
30
0
11
-11.353125249999945
21
2.5249994999999581
31
0
0
ARC
5
1BE
100
AcDbEntity
8
CUTOUTS
100
AcDbCircle
10
-11.353125249999945
20
3.0249994999999608
30
0
40
0.50000000000000711
210
0
220
0
230
1
100
AcDbArc
50
180
51
269.9999999999996
0
LINE
5
1BF
100
AcDbEntity
8
CUTOUTS
100
AcDbLine
10
-11.853125249999952
20
3.0249994999999608
30
0
11
-11.853125249999952
21
16.024999499999968
31
0
0
ARC
5
1C0
100
AcDbEntity
8
CUTOUTS
100
AcDbCircle
10
-11.353125249999945
20
16.024999499999968
30
0
40
0.50000000000001155
210
0
220
-0
230
1
100
AcDbArc
50
90
51
180
0
LINE
5
1C1
100
AcDbEntity
8
CUTOUTS
100
AcDbLine
10
-78.815625249999968
20
35.074999499999961
30
0
11
-78.815624249999971
21
22.075000499999966
31
0
0
ARC
5
1C2
100
AcDbEntity
8
CUTOUTS
100
AcDbCircle
10
-79.315625249999968
20
22.075000499999966
30
0
40
0.50000100000000103
210
-0
220
0
230
1
100
AcDbArc
50
270
51
360
0
LINE
5
1C3
100
AcDbEntity
8
CUTOUTS
100
AcDbLine
10
-79.315625249999968
20
21.574999499999965
30
0
11
-92.315625249999982
21
21.575000499999977
31
0
0
ARC
5
1C4
100
AcDbEntity
8
CUTOUTS
100
AcDbCircle
10
-92.315625249999982
20
22.075000499999966
30
0
40
0.50000000000000711
210
0
220
0
230
1
100
AcDbArc
50
180
51
270
0
LINE
5
1C5
100
AcDbEntity
8
CUTOUTS
100
AcDbLine
10
-92.815625249999968
20
22.075000499999966
30
0
11
-92.815625249999968
21
35.074999499999961
31
0
0
ARC
5
1C6
100
AcDbEntity
8
CUTOUTS
100
AcDbCircle
10
-92.315625249999982
20
35.074999499999961
30
0
40
0.50000000000000266
210
0
220
-0
230
1
100
AcDbArc
50
90
51
180
0
LINE
5
1C7
100
AcDbEntity
8
CUTOUTS
100
AcDbLine
10
-92.315625249999982
20
35.574999499999969
30
0
11
-79.315625249999982
21
35.574999499999947
31
0
0
ARC
5
1C8
100
AcDbEntity
8
CUTOUTS
100
AcDbCircle
10
-79.315625249999968
20
35.074999499999961
30
0
40
0.49999999999999822
210
-0
220
0
230
1
100
AcDbArc
50
0
51
90.000000000001634
0
LINE
5
1C9
100
AcDbEntity
8
CUTOUTS
100
AcDbLine
10
-45.978125249999962
20
-16.52500050000004
30
0
11
-58.978125250000005
21
-16.524999500000046
31
0
0
ARC
5
1CA
100
AcDbEntity
8
CUTOUTS
100
AcDbCircle
10
-58.978126249999967
20
-16.024999500000028
30
0
40
0.50000000000100708
210
0
220
0
230
1
100
AcDbArc
50
180.00011459029153
51
270.00011459155468
0
LINE
5
1CB
100
AcDbEntity
8
CUTOUTS
100
AcDbLine
10
-59.478126249999974
20
-16.02500050000004
30
0
11
-59.478124249999965
21
-3.0249995000000407
31
0
0
ARC
5
1CC
100
AcDbEntity
8
CUTOUTS
100
AcDbCircle
10
-58.978125249999955
20
-3.0249995000000407
30
0
40
0.4999990000000043
210
0
220
0
230
1
100
AcDbArc
50
90.000000000002444
51
180
0
LINE
5
1CD
100
AcDbEntity
8
CUTOUTS
100
AcDbLine
10
-58.978125249999977
20
-2.5250005000000364
30
0
11
-45.978125249999962
21
-2.5250005000000275
31
0
0
ARC
5
1CE
100
AcDbEntity
8
CUTOUTS
100
AcDbCircle
10
-45.978125249999962
20
-3.0250005000000346
30
0
40
0.50000000000000711
210
0
220
-0
230
1
100
AcDbArc
50
0
51
90
0
LINE
5
1CF
100
AcDbEntity
8
CUTOUTS
100
AcDbLine
10
-45.478125249999962
20
-3.0250005000000346
30
0
11
-45.478125249999962
21
-16.02500050000004
31
0
0
ARC
5
1D0
100
AcDbEntity
8
CUTOUTS
100
AcDbCircle
10
-45.978125249999962
20
-16.025000500000033
30
0
40
0.50000000000000711
210
-0
220
0
230
1
100
AcDbArc
50
270
51
360
0
LINE
5
1D1
100
AcDbEntity
8
CUTOUTS
100
AcDbLine
10
30.221874750000044
20
-16.52500050000004
30
0
11
17.221874750000037
21
-16.52500050000004
31
0
0
ARC
5
1D2
100
AcDbEntity
8
CUTOUTS
100
AcDbCircle
10
17.221874750000037
20
-16.02500050000004
30
0
40
0.50000000000000711
210
0
220
0
230
1
100
AcDbArc
50
180
51
270
0
LINE
5
1D3
100
AcDbEntity
8
CUTOUTS
100
AcDbLine
10
16.72187475000003
20
-16.02500050000004
30
0
11
16.72187475000003
21
-3.0250005000000346
31
0
0
ARC
5
1D4
100
AcDbEntity
8
CUTOUTS
100
AcDbCircle
10
17.221874750000037
20
-3.0250005000000435
30
0
40
0.50000000000000711
210
0
220
-0
230
1
100
AcDbArc
50
90
51
180
0
LINE
5
1D5
100
AcDbEntity
8
CUTOUTS
100
AcDbLine
10
17.221874750000037
20
-2.5250005000000364
30
0
11
30.221874750000044
21
-2.5250005000000542
31
0
0
ARC
5
1D6
100
AcDbEntity
8
CUTOUTS
100
AcDbCircle
10
30.22187475000008
20
-3.0250005000000257
30
0
40
0.49999999999997158
210
-0
220
0
230
1
100
AcDbArc
50
0
51
90.000000000004079
0
LINE
5
1D7
100
AcDbEntity
8
CUTOUTS
100
AcDbLine
10
30.721874750000051
20
-3.0250005000000346
30
0
11
30.721875749999032
21
-16.02500050000387
31
0
0
ARC
5
1D8
100
AcDbEntity
8
CUTOUTS
100
AcDbCircle
10
30.22187475000008
20
-16.024999500000074
30
0
40
0.5000009999999655
210
0
220
0
230
1
100
AcDbArc
50
269.99999999999591
51
359.99988540970844
0
LINE
5
1D9
100
AcDbEntity
8
CUTOUTS
100
AcDbLine
10
35.771874750000038
20
-16.02500050000004
30
0
11
35.771874750000038
21
-3.0250005000000346
31
0
0
ARC
5
1DA
100
AcDbEntity
8
CUTOUTS
100
AcDbCircle
10
36.271874750000052
20
-3.0250005000000701
30
0
40
0.50000000000003375
210
0
220
-0
230
1
100
AcDbArc
50
90
51
180
0
LINE
5
1DB
100
AcDbEntity
8
CUTOUTS
100
AcDbLine
10
36.271874750000052
20
-2.5250005000000364
30
0
11
49.271874750000052
21
-2.5250005000000275
31
0
0
ARC
5
1DC
100
AcDbEntity
8
CUTOUTS
100
AcDbCircle
10
49.271874750000094
20
-3.0250005000000257
30
0
40
0.49999999999997158
210
-0
220
0
230
1
100
AcDbArc
50
0
51
90.000000000004889
0
LINE
5
1DD
100
AcDbEntity
8
CUTOUTS
100
AcDbLine
10
49.771874750000066
20
-3.0250005000000346
30
0
11
49.77187574999904
21
-16.02500050000387
31
0
0
ARC
5
1DE
100
AcDbEntity
8
CUTOUTS
100
AcDbCircle
10
49.271874750000094
20
-16.024999500000074
30
0
40
0.5000009999999655
210
0
220
0
230
1
100
AcDbArc
50
269.99999999999511
51
359.99988540970844
0
LINE
5
1DF
100
AcDbEntity
8
CUTOUTS
100
AcDbLine
10
49.271874750000052
20
-16.52500050000004
30
0
11
36.271874750000052
21
-16.525000500000047
31
0
0
ARC
5
1E0
100
AcDbEntity
8
CUTOUTS
100
AcDbCircle
10
36.271874750000009
20
-16.025000500000068
30
0
40
0.49999999999997158
210
0
220
0
230
1
100
AcDbArc
50
180
51
270.00000000000489
0
LINE
5
1E1
100
AcDbEntity
8
CUTOUTS
100
AcDbLine
10
21.98437475000004
20
35.574999499999969
30
0
11
34.984374750000015
21
35.575000500000975
31
0
0
ARC
5
1E2
100
AcDbEntity
8
CUTOUTS
100
AcDbCircle
10
34.984374750000015
20
35.075000499999959
30
0
40
0.50000000000100708
210
-0
220
0
230
1
100
AcDbArc
50
-0.0001145902915529748
51
90.00000000000081
0
LINE
5
1E3
100
AcDbEntity
8
CUTOUTS
100
AcDbLine
10
35.484374750000015
20
35.074999499999961
30
0
11
35.484375749999998
21
22.075000499999966
31
0
0
ARC
5
1E4
100
AcDbEntity
8
CUTOUTS
100
AcDbCircle
10
34.984374750000015
20
22.075000499999984
30
0
40
0.50000100000000991
210
-0
220
0
230
1
100
AcDbArc
50
270
51
360
0
LINE
5
1E5
100
AcDbEntity
8
CUTOUTS
100
AcDbLine
10
34.984374750000015
20
21.574999499999965
30
0
11
21.98437475000004
21
21.575000499999959
31
0
0
ARC
5
1E6
100
AcDbEntity
8
CUTOUTS
100
AcDbCircle
10
21.984374750000004
20
22.075000499999931
30
0
40
0.49999999999997158
210
0
220
0
230
1
100
AcDbArc
50
180
51
270.00000000000369
0
LINE
5
1E7
100
AcDbEntity
8
CUTOUTS
100
AcDbLine
10
21.484374750000033
20
22.075000499999966
30
0
11
21.484374750000033
21
35.074999499999961
31
0
0
ARC
5
1E8
100
AcDbEntity
8
CUTOUTS
100
AcDbCircle
10
21.984374750000004
20
35.074999499999997
30
0
40
0.49999999999998046
210
0
220
-0
230
1
100
AcDbArc
50
89.999999999995936
51
180
0
LINE
5
1E9
100
AcDbEntity
8
CUTOUTS
100
AcDbLine
10
-40.428125249999965
20
-16.02500050000004
30
0
11
-40.428125249999965
21
-3.0250005000000346
31
0
0
ARC
5
1EA
100
AcDbEntity
8
CUTOUTS
100
AcDbCircle
10
-39.928125249999965
20
-3.0250005000000435
30
0
40
0.50000000000000711
210
0
220
-0
230
1
100
AcDbArc
50
90
51
180
0
LINE
5
1EB
100
AcDbEntity
8
CUTOUTS
100
AcDbLine
10
-39.928125249999965
20
-2.5250005000000364
30
0
11
-26.92812524999999
21
-2.5250005000000364
31
0
0
ARC
5
1EC
100
AcDbEntity
8
CUTOUTS
100
AcDbCircle
10
-26.928125249999955
20
-3.0250005000000257
30
0
40
0.49999999999998934
210
-0
220
0
230
1
100
AcDbArc
50
0
51
90.000000000004079
0
LINE
5
1ED
100
AcDbEntity
8
CUTOUTS
100
AcDbLine
10
-26.428125249999965
20
-3.0250005000000346
30
0
11
-26.428125249999983
21
-16.02500050000004
31
0
0
ARC
5
1EE
100
AcDbEntity
8
CUTOUTS
100
AcDbCircle
10
-26.928125249999972
20
-16.025000500000051
30
0
40
0.49999999999998934
210
-0
220
0
230
1
100
AcDbArc
50
-90
51
0
0
LINE
5
1EF
100
AcDbEntity
8
CUTOUTS
100
AcDbLine
10
-26.928125249999972
20
-16.52500050000004
30
0
11
-39.928125249999965
21
-16.52500050000004
31
0
0
ARC
5
1F0
100
AcDbEntity
8
CUTOUTS
100
AcDbCircle
10
-39.928125249999965
20
-16.02500050000004
30
0
40
0.50000000000000711
210
0
220
0
230
1
100
AcDbArc
50
180
51
270
0
LINE
5
1F1
100
AcDbEntity
8
CUTOUTS
100
AcDbLine
10
-73.265625249999971
20
35.574999499999969
30
0
11
-60.265624249999959
21
35.575000499999959
31
0
0
ARC
5
1F2
100
AcDbEntity
8
CUTOUTS
100
AcDbCircle
10
-60.265625249999971
20
35.075000499999959
30
0
40
0.50000000000102485
210
-0
220
0
230
1
100
AcDbArc
50
-0.0001145902915529748
51
89.999885408439638
0
LINE
5
1F3
100
AcDbEntity
8
CUTOUTS
100
AcDbLine
10
-59.76562524999995
20
35.074999499999961
30
0
11
-59.76562524999995
21
22.075000499999966
31
0
0
ARC
5
1F4
100
AcDbEntity
8
CUTOUTS
100
AcDbCircle
10
-60.265625249999971
20
22.075000499999984
30
0
40
0.50000000000002487
210
-0
220
0
230
1
100
AcDbArc
50
270.00000000000159
51
360
0
LINE
5
1F5
100
AcDbEntity
8
CUTOUTS
100
AcDbLine
10
-60.265625249999957
20
21.575000499999959
30
0
11
-73.265625249999971
21
21.575000499999962
31
0
0
ARC
5
1F6
100
AcDbEntity
8
CUTOUTS
100
AcDbCircle
10
-73.265625249999971
20
22.075000499999966
30
0
40
0.49999999999999822
210
0
220
0
230
1
100
AcDbArc
50
180
51
270.00000000000159
0
LINE
5
1F7
100
AcDbEntity
8
CUTOUTS
100
AcDbLine
10
-73.765625249999957
20
22.075000499999966
30
0
11
-73.765625249999971
21
35.074999499999961
31
0
0
ARC
5
1F8
100
AcDbEntity
8
CUTOUTS
100
AcDbCircle
10
-73.265625249999971
20
35.074999499999961
30
0
40
0.50000000000000266
210
0
220
-0
230
1
100
AcDbArc
50
90
51
180
0
LINE
5
1F9
100
AcDbEntity
8
CUTOUTS
100
AcDbLine
10
-114.24687524999996
20
-35.075000500000037
30
0
11
-114.24687524999996
21
-22.075000500000037
31
0
0
ARC
5
1FA
100
AcDbEntity
8
CUTOUTS
100
AcDbCircle
10
-113.74687524999997
20
-22.075000500000037
30
0
40
0.49999999999999822
210
0
220
-0
230
1
100
AcDbArc
50
90
51
180
0
LINE
5
1FB
100
AcDbEntity
8
CUTOUTS
100
AcDbLine
10
-113.74687524999997
20
-21.575000500000037
30
0
11
-93.603125249999977
21
-21.575000500000037
31
0
0
ARC
5
1FC
100
AcDbEntity
8
CUTOUTS
100
AcDbCircle
10
-93.603125249999977
20
-22.075000500000037
30
0
40
0.50000000000000711
210
0
220
-0
230
1
100
AcDbArc
50
0
51
90
0
LINE
5
1FD
100
AcDbEntity
8
CUTOUTS
100
AcDbLine
10
-93.103125249999977
20
-22.075000500000037
30
0
11
-93.103125249999977
21
-35.075000500000037
31
0
0
ARC
5
1FE
100
AcDbEntity
8
CUTOUTS
100
AcDbCircle
10
-93.603125249999977
20
-35.075000500000037
30
0
40
0.49999999999999822
210
-0
220
0
230
1
100
AcDbArc
50
-90
51
0
0
LINE
5
1FF
100
AcDbEntity
8
CUTOUTS
100
AcDbLine
10
-93.603125249999977
20
-35.57500050000003
30
0
11
-113.74687524999999
21
-35.57500050000003
31
0
0
ARC
5
200
100
AcDbEntity
8
CUTOUTS
100
AcDbCircle
10
-113.74687524999997
20
-35.075000500000037
30
0
40
0.49999999999998934
210
0
220
0
230
1
100
AcDbArc
50
180
51
270
0
LINE
5
201
100
AcDbEntity
8
CUTOUTS
100
AcDbLine
10
111.68437475000006
20
35.074999499999961
30
0
11
111.68437575000004
21
22.075000499999966
31
0
0
ARC
5
202
100
AcDbEntity
8
CUTOUTS
100
AcDbCircle
10
111.18437475000006
20
22.075000499999984
30
0
40
0.50000100000000991
210
-0
220
0
230
1
100
AcDbArc
50
270
51
360
0
LINE
5
203
100
AcDbEntity
8
CUTOUTS
100
AcDbLine
10
111.18437475000006
20
21.574999499999965
30
0
11
98.184374750000046
21
21.575000499999959
31
0
0
ARC
5
204
100
AcDbEntity
8
CUTOUTS
100
AcDbCircle
10
98.184374750000018
20
22.075000499999948
30
0
40
0.49999999999997158
210
0
220
0
230
1
100
AcDbArc
50
180
51
270.00000000000159
0
LINE
5
205
100
AcDbEntity
8
CUTOUTS
100
AcDbLine
10
97.684374750000046
20
22.075000499999966
30
0
11
97.684374750000046
21
35.074999499999961
31
0
0
ARC
5
206
100
AcDbEntity
8
CUTOUTS
100
AcDbCircle
10
98.184374750000046
20
35.074999499999976
30
0
40
0.49999999999999822
210
0
220
-0
230
1
100
AcDbArc
50
90
51
180
0
LINE
5
207
100
AcDbEntity
8
CUTOUTS
100
AcDbLine
10
98.184374750000046
20
35.574999499999969
30
0
11
111.18437575000003
21
35.575000499999959
31
0
0
ARC
5
208
100
AcDbEntity
8
CUTOUTS
100
AcDbCircle
10
111.18437475000009
20
35.075000499999973
30
0
40
0.50000000000097167
210
-0
220
0
230
1
100
AcDbArc
50
-0.0001145902915529748
51
89.999885408446147
0
ARC
5
209
100
AcDbEntity
8
CUTOUTS
100
AcDbCircle
10
-16.115625249999947
20
35.074999499999947
30
0
40
0.50000000000002487
210
0
220
0
230
1
100
AcDbArc
50
90.000000000002032
51
180
0
LINE
5
20A
100
AcDbEntity
8
CUTOUTS
100
AcDbLine
10
-16.615625249999972
20
22.075000499999966
30
0
11
-16.615625249999972
21
35.074999499999961
31
0
0
ARC
5
20B
100
AcDbEntity
8
CUTOUTS
100
AcDbCircle
10
-16.115625249999947
20
22.075000499999984
30
0
40
0.50000000000002487
210
0
220
0
230
1
100
AcDbArc
50
180
51
269.99999999999835
0
LINE
5
20C
100
AcDbEntity
8
CUTOUTS
100
AcDbLine
10
-3.1156252499999759
20
21.575000499999959
30
0
11
-16.115625249999965
21
21.575000499999959
31
0
0
ARC
5
20D
100
AcDbEntity
8
CUTOUTS
100
AcDbCircle
10
-3.1156252499999759
20
22.075000499999966
30
0
40
0.50000000000000711
210
-0
220
0
230
1
100
AcDbArc
50
-90
51
0
0
LINE
5
20E
100
AcDbEntity
8
CUTOUTS
100
AcDbLine
10
-2.6156252499999688
20
35.074999499999961
30
0
11
-2.6156252499999688
21
22.075000499999966
31
0
0
ARC
5
20F
100
AcDbEntity
8
CUTOUTS
100
AcDbCircle
10
-3.1156252499999937
20
35.075000499999938
30
0
40
0.50000000000102485
210
-0
220
0
230
1
100
AcDbArc
50
-0.0001145902915529748
51
89.999885408438203
0
LINE
5
210
100
AcDbEntity
8
CUTOUTS
100
AcDbLine
10
-16.115625249999965
20
35.574999499999969
30
0
11
-3.1156242499999642
21
35.575000499999959
31
0
0
LINE
5
211
100
AcDbEntity
8
CUTOUTS
100
AcDbLine
10
121.99687375000002
20
35.574999499999969
30
0
11
134.99687475000005
21
35.574999499999969
31
0
0
ARC
5
212
100
AcDbEntity
8
CUTOUTS
100
AcDbCircle
10
134.99687475000005
20
35.074999499999976
30
0
40
0.50000000000000711
210
-0
220
0
230
1
100
AcDbArc
50
0
51
90
0
LINE
5
213
100
AcDbEntity
8
CUTOUTS
100
AcDbLine
10
135.49687475000005
20
35.074999499999961
30
0
11
135.49687575000002
21
22.075000499999966
31
0
0
ARC
5
214
100
AcDbEntity
8
CUTOUTS
100
AcDbCircle
10
134.99687475000005
20
22.075000499999948
30
0
40
0.50000099999998326
210
-0
220
0
230
1
100
AcDbArc
50
-90
51
0
0
LINE
5
215
100
AcDbEntity
8
CUTOUTS
100
AcDbLine
10
134.99687475000005
20
21.574999499999965
30
0
11
121.99687375000002
21
21.575000499999962
31
0
0
ARC
5
216
100
AcDbEntity
8
CUTOUTS
100
AcDbCircle
10
121.99687374999998
20
22.075000499999931
30
0
40
0.49999999999997158
210
0
220
0
230
1
100
AcDbArc
50
180
51
270.00000000000159
0
LINE
5
217
100
AcDbEntity
8
CUTOUTS
100
AcDbLine
10
121.49687375000001
20
22.075000499999966
30
0
11
121.49687375000001
21
35.074999499999961
31
0
0
ARC
5
218
100
AcDbEntity
8
CUTOUTS
100
AcDbCircle
10
121.99687374999998
20
35.074999499999997
30
0
40
0.49999999999998046
210
0
220
-0
230
1
100
AcDbArc
50
89.999999999995111
51
180
0
LINE
5
219
100
AcDbEntity
8
CUTOUTS
100
AcDbLine
10
-1.8281252499999745
20
-2.5250005000000364
30
0
11
11.171874750000015
21
-2.5250005000000364
31
0
0
ARC
5
21A
100
AcDbEntity
8
CUTOUTS
100
AcDbCircle
10
11.171874750000033
20
-3.0250005000000346
30
0
40
0.50000000000000711
210
0
220
-0
230
1
100
AcDbArc
50
0
51
90.000000000002032
0
LINE
5
21B
100
AcDbEntity
8
CUTOUTS
100
AcDbLine
10
11.67187475000004
20
-3.0250005000000346
30
0
11
11.671875749999039
21
-16.02500050000387
31
0
0
ARC
5
21C
100
AcDbEntity
8
CUTOUTS
100
AcDbCircle
10
11.171874750000033
20
-16.024999500000028
30
0
40
0.50000100000000991
210
-0
220
0
230
1
100
AcDbArc
50
270
51
359.99988540970844
0
LINE
5
21D
100
AcDbEntity
8
CUTOUTS
100
AcDbLine
10
11.171874750000033
20
-16.52500050000004
30
0
11
-1.8281252499999745
21
-16.525000500000047
31
0
0
ARC
5
21E
100
AcDbEntity
8
CUTOUTS
100
AcDbCircle
10
-1.8281252499999745
20
-16.02500050000004
30
0
40
0.50000000000000711
210
0
220
0
230
1
100
AcDbArc
50
180
51
270
0
LINE
5
21F
100
AcDbEntity
8
CUTOUTS
100
AcDbLine
10
-2.3281252499999816
20
-16.02500050000004
30
0
11
-2.3281252499999816
21
-3.0250005000000346
31
0
0
ARC
5
220
100
AcDbEntity
8
CUTOUTS
100
AcDbCircle
10
-1.8281252499999745
20
-3.0250005000000435
30
0
40
0.50000000000000711
210
0
220
-0
230
1
100
AcDbArc
50
90
51
180
0
ARC
5
221
100
AcDbEntity
8
CUTOUTS
100
AcDbCircle
10
-111.36562524999997
20
22.075000499999966
30
0
40
0.49999999999998934
210
0
220
0
230
1
100
AcDbArc
50
180
51
270
0
LINE
5
222
100
AcDbEntity
8
CUTOUTS
100
AcDbLine
10
-98.365625249999979
20
21.574999499999965
30
0
11
-111.36562524999999
21
21.575000499999977
31
0
0
ARC
5
223
100
AcDbEntity
8
CUTOUTS
100
AcDbCircle
10
-98.365626249999977
20
22.074999499999972
30
0
40
0.50000000000101152
210
-0
220
0
230
1
100
AcDbArc
50
-89.999885408441259
51
0.00011459029153797541
0
LINE
5
224
100
AcDbEntity
8
CUTOUTS
100
AcDbLine
10
-97.865626249999991
20
35.074999499999961
30
0
11
-97.865626249999991
21
22.075000499999931
31
0
0
ARC
5
225
100
AcDbEntity
8
CUTOUTS
100
AcDbCircle
10
-98.365626249999977
20
35.075000499999959
30
0
40
0.50000000000098932
210
-0
220
0
230
1
100
AcDbArc
50
-0.0001145902915529748
51
89.999885408001589
0
LINE
5
226
100
AcDbEntity
8
CUTOUTS
100
AcDbLine
10
-111.36562524999997
20
35.574999499999969
30
0
11
-98.365625249996143
21
35.575000499999959
31
0
0
ARC
5
227
100
AcDbEntity
8
CUTOUTS
100
AcDbCircle
10
-111.36562524999997
20
35.074999499999961
30
0
40
0.50000000000000711
210
0
220
-0
230
1
100
AcDbArc
50
90
51
180
0
LINE
5
228
100
AcDbEntity
8
CUTOUTS
100
AcDbLine
10
-111.86562524999997
20
22.075000499999966
30
0
11
-111.86562524999997
21
35.074999499999961
31
0
0
ARC
5
229
100
AcDbEntity
8
CUTOUTS
100
AcDbCircle
10
-35.158876249999942
20
-34.074999500000047
30
0
40
0.50000100000099212
210
-0
220
0
230
1
100
AcDbArc
50
-89.999885408672895
51
0.00011459029153797541
0
LINE
5
22A
100
AcDbEntity
8
CUTOUTS
100
AcDbLine
10
-34.658875249999959
20
-20.075000500000037
30
0
11
-34.658875249999959
21
-34.074998500000042
31
0
0
ARC
5
22B
100
AcDbEntity
8
CUTOUTS
100
AcDbCircle
10
-35.158876249999963
20
-20.075000500000037
30
0
40
0.50000100000000103
210
0
220
-0
230
1
100
AcDbArc
50
0
51
90
0
LINE
5
22C
100
AcDbEntity
8
CUTOUTS
100
AcDbLine
10
-41.222376249999954
20
-19.575000500000037
30
0
11
-35.158876249999963
21
-19.574999500000033
31
0
0
ARC
5
22D
100
AcDbEntity
8
CUTOUTS
100
AcDbCircle
10
-41.222375249999956
20
-20.075000500000016
30
0
40
0.50000000000098044
210
0
220
0
230
1
100
AcDbArc
50
90.000114591558741
51
180.00011459029153
0
LINE
5
22E
100
AcDbEntity
8
CUTOUTS
100
AcDbLine
10
-41.722375249999963
20
-34.075000500000037
30
0
11
-41.722375249999942
21
-20.075001500000038
31
0
0
ARC
5
22F
100
AcDbEntity
8
CUTOUTS
100
AcDbCircle
10
-41.222375249999956
20
-34.074999500000025
30
0
40
0.50000000000100708
210
0
220
0
230
1
100
AcDbArc
50
180.00011459029153
51
270.00011459155382
0
LINE
5
230
100
AcDbEntity
8
CUTOUTS
100
AcDbLine
10
-35.158875249999966
20
-34.575000500000037
30
0
11
-41.222374250000001
21
-34.574999500000033
31
0
0
LINE
5
231
100
AcDbEntity
8
CUTOUTS
100
AcDbLine
10
-30.403125249999956
20
16.524999499999975
30
0
11
-17.403125249999967
21
16.524999499999975
31
0
0
ARC
5
232
100
AcDbEntity
8
CUTOUTS
100
AcDbCircle
10
-17.403125249999984
20
16.02499949999995
30
0
40
0.50000000000002487
210
0
220
-0
230
1
100
AcDbArc
50
0
51
89.999999999997556
0
LINE
5
233
100
AcDbEntity
8
CUTOUTS
100
AcDbLine
10
-16.90312524999996
20
16.024999499999968
30
0
11
-16.90312524999996
21
3.0249994999999608
31
0
0
ARC
5
234
100
AcDbEntity
8
CUTOUTS
100
AcDbCircle
10
-17.403125249999984
20
3.0249994999999785
30
0
40
0.50000000000002931
210
-0
220
0
230
1
100
AcDbArc
50
270.00000000000205
51
360
0
LINE
5
235
100
AcDbEntity
8
CUTOUTS
100
AcDbLine
10
-17.403125249999967
20
2.5249994999999537
30
0
11
-30.403124250000015
21
2.5250004999999565
31
0
0
ARC
5
236
100
AcDbEntity
8
CUTOUTS
100
AcDbCircle
10
-30.403125249999956
20
3.0250004999999636
30
0
40
0.50000000000100708
210
0
220
0
230
1
100
AcDbArc
50
180.00011459029153
51
270.00011459155223
0
LINE
5
237
100
AcDbEntity
8
CUTOUTS
100
AcDbLine
10
-30.903125249999963
20
3.0249994999999608
30
0
11
-30.903125249999963
21
16.024999499999968
31
0
0
ARC
5
238
100
AcDbEntity
8
CUTOUTS
100
AcDbCircle
10
-30.403125249999956
20
16.024999499999968
30
0
40
0.50000000000001155
210
0
220
-0
230
1
100
AcDbArc
50
90
51
180
0
ARC
5
239
100
AcDbEntity
8
CUTOUTS
100
AcDbCircle
10
-122.17812524999997
20
-22.075000500000037
30
0
40
0.49999999999998934
210
0
220
-0
230
1
100
AcDbArc
50
0
51
90
0
LINE
5
23A
100
AcDbEntity
8
CUTOUTS
100
AcDbLine
10
-137.55937524999996
20
-21.575000500000037
30
0
11
-122.17812524999997
21
-21.575000500000037
31
0
0
ARC
5
23B
100
AcDbEntity
8
CUTOUTS
100
AcDbCircle
10
-137.55937524999996
20
-22.075000500000037
30
0
40
0.49999999999999822
210
0
220
-0
230
1
100
AcDbArc
50
90
51
180
0
LINE
5
23C
100
AcDbEntity
8
CUTOUTS
100
AcDbLine
10
-138.05937524999996
20
-35.075000500000037
30
0
11
-138.05937524999996
21
-22.075000500000037
31
0
0
ARC
5
23D
100
AcDbEntity
8
CUTOUTS
100
AcDbCircle
10
-137.55937524999996
20
-35.075000500000037
30
0
40
0.50000000000000711
210
0
220
0
230
1
100
AcDbArc
50
180
51
270
0
LINE
5
23E
100
AcDbEntity
8
CUTOUTS
100
AcDbLine
10
-122.17812524999997
20
-35.57500050000003
30
0
11
-137.55937524999996
21
-35.57500050000003
31
0
0
ARC
5
23F
100
AcDbEntity
8
CUTOUTS
100
AcDbCircle
10
-122.17812524999997
20
-35.075000500000037
30
0
40
0.49999999999999822
210
-0
220
0
230
1
100
AcDbArc
50
-90
51
0
0
LINE
5
240
100
AcDbEntity
8
CUTOUTS
100
AcDbLine
10
-121.67812524999997
20
-22.075000500000037
30
0
11
-121.67812524999997
21
-35.075000500000037
31
0
0
LINE
5
241
100
AcDbEntity
8
CUTOUTS
100
AcDbLine
10
-97.078125249999971
20
-2.5250005000000364
30
0
11
-84.078124249999973
21
-2.5249995000000425
31
0
0
ARC
5
242
100
AcDbEntity
8
CUTOUTS
100
AcDbCircle
10
-84.078125249999957
20
-3.0249995000000407
30
0
40
0.50000000000098932
210
-0
220
0
230
1
100
AcDbArc
50
-0.0001145902915529748
51
89.999885408441259
0
LINE
5
243
100
AcDbEntity
8
CUTOUTS
100
AcDbLine
10
-83.578125249999971
20
-3.0250005000000346
30
0
11
-83.578125249999971
21
-16.02500050000004
31
0
0
ARC
5
244
100
AcDbEntity
8
CUTOUTS
100
AcDbCircle
10
-84.078125249999971
20
-16.02500050000004
30
0
40
0.49999999999999822
210
-0
220
0
230
1
100
AcDbArc
50
-90
51
0
0
LINE
5
245
100
AcDbEntity
8
CUTOUTS
100
AcDbLine
10
-84.078125249999971
20
-16.52500050000004
30
0
11
-97.078126249999997
21
-16.524999500000046
31
0
0
ARC
5
246
100
AcDbEntity
8
CUTOUTS
100
AcDbCircle
10
-97.078126249999997
20
-16.025000500000061
30
0
40
0.49999899999999542
210
0
220
0
230
1
100
AcDbArc
50
180
51
270
0
LINE
5
247
100
AcDbEntity
8
CUTOUTS
100
AcDbLine
10
-97.578125249999985
20
-16.02500050000004
30
0
11
-97.578125249999985
21
-3.0250005000000346
31
0
0
ARC
5
248
100
AcDbEntity
8
CUTOUTS
100
AcDbCircle
10
-97.078125249999971
20
-3.0250005000000346
30
0
40
0.49999999999999822
210
0
220
-0
230
1
100
AcDbArc
50
90
51
180
0
ARC
5
249
100
AcDbEntity
8
CUTOUTS
100
AcDbCircle
10
-106.59637524999997
20
-4.0250005000000399
30
0
40
0.49999999999998934
210
0
220
-0
230
1
100
AcDbArc
50
0
51
90
0
LINE
5
24A
100
AcDbEntity
8
CUTOUTS
100
AcDbLine
10
-112.59637524999997
20
-3.5250005000000417
30
0
11
-106.59637524999997
21
-3.5250005000000417
31
0
0
ARC
5
24B
100
AcDbEntity
8
CUTOUTS
100
AcDbCircle
10
-112.59637624999996
20
-4.0250005000000311
30
0
40
0.50000000000098932
210
0
220
-0
230
1
100
AcDbArc
50
89.999885408441259
51
179.9998854097085
0
LINE
5
24C
100
AcDbEntity
8
CUTOUTS
100
AcDbLine
10
-113.09637524999997
20
-18.025000500000044
30
0
11
-113.09637624999995
21
-4.0249995000000371
31
0
0
ARC
5
24D
100
AcDbEntity
8
CUTOUTS
100
AcDbCircle
10
-112.59637524999997
20
-18.025000500000044
30
0
40
0.49999999999998934
210
0
220
0
230
1
100
AcDbArc
50
180
51
270
0
LINE
5
24E
100
AcDbEntity
8
CUTOUTS
100
AcDbLine
10
-106.59637524999997
20
-18.52500050000004
30
0
11
-112.59637524999997
21
-18.52500050000004
31
0
0
ARC
5
24F
100
AcDbEntity
8
CUTOUTS
100
AcDbCircle
10
-106.59637524999997
20
-18.025000500000044
30
0
40
0.49999999999999822
210
-0
220
0
230
1
100
AcDbArc
50
-90
51
0
0
LINE
5
250
100
AcDbEntity
8
CUTOUTS
100
AcDbLine
10
-106.09637524999997
20
-4.0250005000000399
30
0
11
-106.09637524999997
21
-18.025000500000044
31
0
0
LINE
5
251
100
AcDbEntity
8
CUTOUTS
100
AcDbLine
10
64.346874750000026
20
3.0249994999999608
30
0
11
64.346874750000026
21
16.024999499999968
31
0
0
ARC
5
252
100
AcDbEntity
8
CUTOUTS
100
AcDbCircle
10
64.846874750000026
20
16.024999499999968
30
0
40
0.49999999999999822
210
0
220
-0
230
1
100
AcDbArc
50
90
51
180
0
LINE
5
253
100
AcDbEntity
8
CUTOUTS
100
AcDbLine
10
64.846874750000026
20
16.524999499999975
30
0
11
77.846875750000052
21
16.525000499999969
31
0
0
ARC
5
254
100
AcDbEntity
8
CUTOUTS
100
AcDbCircle
10
77.84687475000004
20
16.025000499999944
30
0
40
0.50000000000100708
210
-0
220
0
230
1
100
AcDbArc
50
-0.0001145902915529748
51
89.999885408439638
0
LINE
5
255
100
AcDbEntity
8
CUTOUTS
100
AcDbLine
10
78.34687475000004
20
16.024999499999968
30
0
11
78.346874750000083
21
3.0249994999999608
31
0
0
ARC
5
256
100
AcDbEntity
8
CUTOUTS
100
AcDbCircle
10
77.84687475000004
20
3.0249994999999963
30
0
40
0.50000000000002931
210
-0
220
0
230
1
100
AcDbArc
50
270
51
360
0
LINE
5
257
100
AcDbEntity
8
CUTOUTS
100
AcDbLine
10
77.84687475000004
20
2.5249994999999625
30
0
11
64.846874750000026
21
2.5249994999999537
31
0
0
ARC
5
258
100
AcDbEntity
8
CUTOUTS
100
AcDbCircle
10
64.846874750000026
20
3.0249994999999519
30
0
40
0.50000000000000711
210
0
220
0
230
1
100
AcDbArc
50
180
51
270
0
LINE
5
259
100
AcDbEntity
8
CUTOUTS
100
AcDbLine
10
83.396874750000038
20
3.0249994999999608
30
0
11
83.396874750000038
21
16.024999499999968
31
0
0
ARC
5
25A
100
AcDbEntity
8
CUTOUTS
100
AcDbCircle
10
83.896874750000038
20
16.024999499999968
30
0
40
0.49999999999999822
210
0
220
-0
230
1
100
AcDbArc
50
90
51
180
0
LINE
5
25B
100
AcDbEntity
8
CUTOUTS
100
AcDbLine
10
83.896874750000038
20
16.524999499999975
30
0
11
96.896874750000052
21
16.525000500000971
31
0
0
ARC
5
25C
100
AcDbEntity
8
CUTOUTS
100
AcDbCircle
10
96.896874750000052
20
16.025000499999962
30
0
40
0.50000000000100708
210
-0
220
0
230
1
100
AcDbArc
50
-0.0001145902915529748
51
90
0
LINE
5
25D
100
AcDbEntity
8
CUTOUTS
100
AcDbLine
10
97.396874750000052
20
16.024999499999968
30
0
11
97.396874750000052
21
3.0249994999999608
31
0
0
ARC
5
25E
100
AcDbEntity
8
CUTOUTS
100
AcDbCircle
10
96.896874750000052
20
3.0249994999999963
30
0
40
0.50000000000002931
210
-0
220
0
230
1
100
AcDbArc
50
270
51
360
0
LINE
5
25F
100
AcDbEntity
8
CUTOUTS
100
AcDbLine
10
96.896874750000052
20
2.5249994999999625
30
0
11
83.896874750000038
21
2.5249994999999625
31
0
0
ARC
5
260
100
AcDbEntity
8
CUTOUTS
100
AcDbCircle
10
83.896874750000038
20
3.0249994999999519
30
0
40
0.50000000000000711
210
0
220
0
230
1
100
AcDbArc
50
180
51
270
0
LINE
5
261
100
AcDbEntity
8
CUTOUTS
100
AcDbLine
10
128.35312475000006
20
16.024999499999968
30
0
11
128.35312475000006
21
3.0249994999999608
31
0
0
ARC
5
262
100
AcDbEntity
8
CUTOUTS
100
AcDbCircle
10
127.85312475000003
20
3.0249995000000141
30
0
40
0.50000000000004707
210
-0
220
0
230
1
100
AcDbArc
50
270.00000000000324
51
360
0
LINE
5
263
100
AcDbEntity
8
CUTOUTS
100
AcDbLine
10
127.85312475000006
20
2.5249994999999625
30
0
11
114.85312475000006
21
2.5249994999999537
31
0
0
ARC
5
264
100
AcDbEntity
8
CUTOUTS
100
AcDbCircle
10
114.85312475000002
20
3.0249994999999341
30
0
40
0.49999999999997158
210
0
220
0
230
1
100
AcDbArc
50
180
51
270.00000000000489
0
LINE
5
265
100
AcDbEntity
8
CUTOUTS
100
AcDbLine
10
114.35312475000005
20
3.0249994999999608
30
0
11
114.35312475000005
21
16.024999499999968
31
0
0
ARC
5
266
100
AcDbEntity
8
CUTOUTS
100
AcDbCircle
10
114.85312475000002
20
16.024999500000003
30
0
40
0.49999999999998046
210
0
220
-0
230
1
100
AcDbArc
50
89.999999999995111
51
180
0
LINE
5
267
100
AcDbEntity
8
CUTOUTS
100
AcDbLine
10
114.85312475000006
20
16.524999499999975
30
0
11
127.85312575000007
21
16.525000499999969
31
0
0
ARC
5
268
100
AcDbEntity
8
CUTOUTS
100
AcDbCircle
10
127.85312475000006
20
16.025000499999962
30
0
40
0.50000000000100708
210
-0
220
0
230
1
100
AcDbArc
50
-0.0001145902915529748
51
89.999885408438004
0
LINE
5
269
100
AcDbEntity
8
CUTOUTS
100
AcDbLine
10
105.91512475000003
20
1.024999499999959
30
0
11
105.91512475000003
21
15.024999499999954
31
0
0
ARC
5
26A
100
AcDbEntity
8
CUTOUTS
100
AcDbCircle
10
106.41512475
20
15.024999499999989
30
0
40
0.49999999999998046
210
0
220
-0
230
1
100
AcDbArc
50
89.999999999995111
51
180
0
LINE
5
26B
100
AcDbEntity
8
CUTOUTS
100
AcDbLine
10
106.41512475000005
20
15.524999499999961
30
0
11
112.41512475000006
21
15.524999499999961
31
0
0
ARC
5
26C
100
AcDbEntity
8
CUTOUTS
100
AcDbCircle
10
112.41512475000009
20
15.024999499999989
30
0
40
0.49999999999997158
210
-0
220
0
230
1
100
AcDbArc
50
0
51
90.000000000003254
0
LINE
5
26D
100
AcDbEntity
8
CUTOUTS
100
AcDbLine
10
112.91512475000006
20
15.024999499999954
30
0
11
112.91512475000006
21
1.0249994999999501
31
0
0
ARC
5
26E
100
AcDbEntity
8
CUTOUTS
100
AcDbCircle
10
112.41512475000006
20
1.0249994999999856
30
0
40
0.50000000000002487
210
-0
220
0
230
1
100
AcDbArc
50
270
51
360
0
LINE
5
26F
100
AcDbEntity
8
CUTOUTS
100
AcDbLine
10
112.41512475000006
20
0.52499949999996076
30
0
11
106.41512475000005
21
0.52499949999995188
31
0
0
ARC
5
270
100
AcDbEntity
8
CUTOUTS
100
AcDbCircle
10
106.41512475
20
1.0249994999999323
30
0
40
0.49999999999997158
210
0
220
0
230
1
100
AcDbArc
50
180
51
270.00000000000489
0
LINE
5
271
100
AcDbEntity
8
CUTOUTS
100
AcDbLine
10
136.29112475000005
20
0.52499949999996076
30
0
11
130.29112475000008
21
0.52499949999996076
31
0
0
ARC
5
272
100
AcDbEntity
8
CUTOUTS
100
AcDbCircle
10
130.29112475000008
20
1.0249994999999501
30
0
40
0.50000000000000711
210
0
220
0
230
1
100
AcDbArc
50
180
51
270
0
LINE
5
273
100
AcDbEntity
8
CUTOUTS
100
AcDbLine
10
129.79112475000005
20
1.024999499999959
30
0
11
129.79112475000005
21
15.024999499999954
31
0
0
ARC
5
274
100
AcDbEntity
8
CUTOUTS
100
AcDbCircle
10
130.29112475000008
20
15.024999499999954
30
0
40
0.49999999999999822
210
0
220
-0
230
1
100
AcDbArc
50
90
51
180
0
LINE
5
275
100
AcDbEntity
8
CUTOUTS
100
AcDbLine
10
130.29112475000008
20
15.524999499999961
30
0
11
136.29112475000005
21
15.524999499999952
31
0
0
ARC
5
276
100
AcDbEntity
8
CUTOUTS
100
AcDbCircle
10
136.29112475000008
20
15.024999499999989
30
0
40
0.49999999999997158
210
-0
220
0
230
1
100
AcDbArc
50
0
51
90.000000000003254
0
LINE
5
277
100
AcDbEntity
8
CUTOUTS
100
AcDbLine
10
136.79112475000005
20
15.024999499999954
30
0
11
136.79112475000005
21
1.0249994999999501
31
0
0
ARC
5
278
100
AcDbEntity
8
CUTOUTS
100
AcDbCircle
10
136.29112475000005
20
1.0249994999999856
30
0
40
0.50000000000002487
210
-0
220
0
230
1
100
AcDbArc
50
270
51
360
0
LINE
5
279
100
AcDbEntity
8
CUTOUTS
100
AcDbLine
10
68.321874750000035
20
-16.52500050000004
30
0
11
55.321874750000021
21
-16.525000500000047
31
0
0
ARC
5
27A
100
AcDbEntity
8
CUTOUTS
100
AcDbCircle
10
55.321874749999992
20
-16.025000500000051
30
0
40
0.49999999999997158
210
0
220
0
230
1
100
AcDbArc
50
180
51
270.00000000000324
0
LINE
5
27B
100
AcDbEntity
8
CUTOUTS
100
AcDbLine
10
54.821874750000021
20
-16.02500050000004
30
0
11
54.821874750000021
21
-3.0250005000000346
31
0
0
ARC
5
27C
100
AcDbEntity
8
CUTOUTS
100
AcDbCircle
10
55.321874750000092
20
-3.0250005000000879
30
0
40
0.50000000000005151
210
0
220
0
230
1
100
AcDbArc
50
90.000000000008143
51
180
0
LINE
5
27D
100
AcDbEntity
8
CUTOUTS
100
AcDbLine
10
55.321874750000021
20
-2.5250005000000364
30
0
11
68.321874749999992
21
-2.5250005000000275
31
0
0
ARC
5
27E
100
AcDbEntity
8
CUTOUTS
100
AcDbCircle
10
68.321874749999992
20
-3.0250005000000524
30
0
40
0.50000000000004263
210
0
220
-0
230
1
100
AcDbArc
50
0
51
90
0
LINE
5
27F
100
AcDbEntity
8
CUTOUTS
100
AcDbLine
10
68.821874750000035
20
-3.0250005000000346
30
0
11
68.821875749999023
21
-16.02500050000387
31
0
0
ARC
5
280
100
AcDbEntity
8
CUTOUTS
100
AcDbCircle
10
68.321874750000063
20
-16.024999500000074
30
0
40
0.5000009999999655
210
0
220
0
230
1
100
AcDbArc
50
269.99999999999676
51
359.99988540970844
0
LINE
5
281
100
AcDbEntity
8
CUTOUTS
100
AcDbLine
10
120.70937475000007
20
-35.57500050000003
30
0
11
69.609374750000029
21
-35.575000500000044
31
0
0
ARC
5
282
100
AcDbEntity
8
CUTOUTS
100
AcDbCircle
10
69.609374750000001
20
-35.075000500000044
30
0
40
0.49999999999997158
210
0
220
0
230
1
100
AcDbArc
50
180
51
270.00000000000324
0
LINE
5
283
100
AcDbEntity
8
CUTOUTS
100
AcDbLine
10
69.109374750000029
20
-35.075000500000037
30
0
11
69.109374750000057
21
-22.075000500000037
31
0
0
ARC
5
284
100
AcDbEntity
8
CUTOUTS
100
AcDbCircle
10
69.6093747500001
20
-22.07500050000009
30
0
40
0.50000000000005151
210
0
220
0
230
1
100
AcDbArc
50
90.000000000008143
51
180
0
LINE
5
285
100
AcDbEntity
8
CUTOUTS
100
AcDbLine
10
69.609374750000029
20
-21.575000500000037
30
0
11
120.70937475000007
21
-21.57500050000003
31
0
0
ARC
5
286
100
AcDbEntity
8
CUTOUTS
100
AcDbCircle
10
120.70937475000009
20
-22.075000500000002
30
0
40
0.49999999999997158
210
-0
220
0
230
1
100
AcDbArc
50
0
51
90.000000000003254
0
LINE
5
287
100
AcDbEntity
8
CUTOUTS
100
AcDbLine
10
121.20937475000007
20
-22.075000500000037
30
0
11
121.20937475000007
21
-35.075000500000037
31
0
0
ARC
5
288
100
AcDbEntity
8
CUTOUTS
100
AcDbCircle
10
120.70937475000007
20
-35.075000500000002
30
0
40
0.50000000000003375
210
-0
220
0
230
1
100
AcDbArc
50
270
51
360
0
LINE
5
289
100
AcDbEntity
8
CUTOUTS
100
AcDbLine
10
73.871874750000032
20
-16.02500050000004
30
0
11
73.871874750000032
21
-3.0250005000000346
31
0
0
ARC
5
28A
100
AcDbEntity
8
CUTOUTS
100
AcDbCircle
10
74.371874750000103
20
-3.0250005000000879
30
0
40
0.50000000000005151
210
0
220
0
230
1
100
AcDbArc
50
90.000000000008143
51
180
0
LINE
5
28B
100
AcDbEntity
8
CUTOUTS
100
AcDbLine
10
74.371874750000032
20
-2.5250005000000364
30
0
11
94.515624750000043
21
-2.5250005000000364
31
0
0
ARC
5
28C
100
AcDbEntity
8
CUTOUTS
100
AcDbCircle
10
94.515624750000086
20
-3.0250005000000257
30
0
40
0.49999999999997158
210
-0
220
0
230
1
100
AcDbArc
50
0
51
90.000000000003254
0
LINE
5
28D
100
AcDbEntity
8
CUTOUTS
100
AcDbLine
10
95.015624750000057
20
-3.0250005000000346
30
0
11
95.015624750000057
21
-16.02500050000004
31
0
0
ARC
5
28E
100
AcDbEntity
8
CUTOUTS
100
AcDbCircle
10
94.515624749999972
20
-16.02500049999999
30
0
40
0.50000000000005151
210
-0
220
0
230
1
100
AcDbArc
50
270.00000000000813
51
360
0
LINE
5
28F
100
AcDbEntity
8
CUTOUTS
100
AcDbLine
10
94.515624750000043
20
-16.52500050000004
30
0
11
74.371874750000032
21
-16.525000500000022
31
0
0
ARC
5
290
100
AcDbEntity
8
CUTOUTS
100
AcDbCircle
10
74.371874750000003
20
-16.025000500000051
30
0
40
0.49999999999997158
210
0
220
0
230
1
100
AcDbArc
50
180
51
270.00000000000324
0
LINE
5
291
100
AcDbEntity
8
CUTOUTS
100
AcDbLine
10
140.25937475000009
20
-22.075000500000037
30
0
11
140.25937475000009
21
-35.075000500000037
31
0
0
ARC
5
292
100
AcDbEntity
8
CUTOUTS
100
AcDbCircle
10
139.75937475000006
20
-35.075000500000002
30
0
40
0.50000000000003375
210
-0
220
0
230
1
100
AcDbArc
50
270
51
360
0
LINE
5
293
100
AcDbEntity
8
CUTOUTS
100
AcDbLine
10
139.75937475000006
20
-35.57500050000003
30
0
11
124.37812475000003
21
-35.575000500000044
31
0
0
ARC
5
294
100
AcDbEntity
8
CUTOUTS
100
AcDbCircle
10
124.37812475
20
-35.075000500000044
30
0
40
0.49999999999997158
210
0
220
0
230
1
100
AcDbArc
50
180
51
270.00000000000159
0
LINE
5
295
100
AcDbEntity
8
CUTOUTS
100
AcDbLine
10
123.87812475000003
20
-35.075000500000037
30
0
11
123.87812475000005
21
-22.075000500000037
31
0
0
ARC
5
296
100
AcDbEntity
8
CUTOUTS
100
AcDbCircle
10
124.3781247500001
20
-22.07500050000009
30
0
40
0.50000000000005151
210
0
220
0
230
1
100
AcDbArc
50
90.000000000008143
51
180
0
LINE
5
297
100
AcDbEntity
8
CUTOUTS
100
AcDbLine
10
124.37812475000003
20
-21.575000500000037
30
0
11
139.75937475000006
21
-21.57500050000003
31
0
0
ARC
5
298
100
AcDbEntity
8
CUTOUTS
100
AcDbCircle
10
139.75937475000012
20
-22.075000500000002
30
0
40
0.49999999999997158
210
-0
220
0
230
1
100
AcDbArc
50
0
51
90.000000000006523
0
ARC
5
299
100
AcDbEntity
8
CUTOUTS
100
AcDbCircle
10
65.940624750000069
20
-22.075000500000019
30
0
40
0.49999999999997158
210
-0
220
0
230
1
100
AcDbArc
50
0
51
90.000000000004889
0
LINE
5
29A
100
AcDbEntity
8
CUTOUTS
100
AcDbLine
10
50.55937475000006
20
-21.575000500000037
30
0
11
65.940624750000026
21
-21.57500050000003
31
0
0
ARC
5
29B
100
AcDbEntity
8
CUTOUTS
100
AcDbCircle
10
50.55937475000006
20
-22.075000500000073
30
0
40
0.50000000000003375
210
0
220
-0
230
1
100
AcDbArc
50
90
51
180
0
LINE
5
29C
100
AcDbEntity
8
CUTOUTS
100
AcDbLine
10
50.059374750000046
20
-35.075000500000037
30
0
11
50.059374750000018
21
-22.075000500000037
31
0
0
ARC
5
29D
100
AcDbEntity
8
CUTOUTS
100
AcDbCircle
10
50.559374750000018
20
-35.075000500000058
30
0
40
0.49999999999997158
210
0
220
0
230
1
100
AcDbArc
50
180
51
270.00000000000489
0
LINE
5
29E
100
AcDbEntity
8
CUTOUTS
100
AcDbLine
10
65.940624750000026
20
-35.57500050000003
30
0
11
50.55937475000006
21
-35.575000500000044
31
0
0
ARC
5
29F
100
AcDbEntity
8
CUTOUTS
100
AcDbCircle
10
65.940624749999955
20
-35.07500049999998
30
0
40
0.50000000000005151
210
-0
220
0
230
1
100
AcDbArc
50
270.00000000000813
51
360
0
LINE
5
2A0
100
AcDbEntity
8
CUTOUTS
100
AcDbLine
10
66.44062475000004
20
-22.075000500000037
30
0
11
66.44062475000004
21
-35.075000500000037
31
0
0
LINE
5
2A1
100
AcDbEntity
8
CUTOUTS
100
AcDbLine
10
59.584374750000052
20
22.075000499999966
30
0
11
59.584374750000052
21
35.074999499999961
31
0
0
ARC
5
2A2
100
AcDbEntity
8
CUTOUTS
100
AcDbCircle
10
60.084374750000023
20
35.074999499999997
30
0
40
0.49999999999998046
210
0
220
-0
230
1
100
AcDbArc
50
89.999999999995111
51
180
0
LINE
5
2A3
100
AcDbEntity
8
CUTOUTS
100
AcDbLine
10
60.084374750000066
20
35.574999499999969
30
0
11
73.084375750000049
21
35.575000499999973
31
0
0
ARC
5
2A4
100
AcDbEntity
8
CUTOUTS
100
AcDbCircle
10
73.084374750000066
20
35.075000499999973
30
0
40
0.50000000000100708
210
-0
220
0
230
1
100
AcDbArc
50
-0.0001145902915529748
51
89.999885408442893
0
LINE
5
2A5
100
AcDbEntity
8
CUTOUTS
100
AcDbLine
10
73.58437475000008
20
35.074999499999961
30
0
11
73.58437475000008
21
22.075000499999966
31
0
0
ARC
5
2A6
100
AcDbEntity
8
CUTOUTS
100
AcDbCircle
10
73.084374750000109
20
22.075000499999948
30
0
40
0.49999999999999378
210
0
220
0
230
1
100
AcDbArc
50
-90.000000000004889
51
0
0
LINE
5
2A7
100
AcDbEntity
8
CUTOUTS
100
AcDbLine
10
73.084374750000066
20
21.575000499999959
30
0
11
60.084374750000066
21
21.575000499999959
31
0
0
ARC
5
2A8
100
AcDbEntity
8
CUTOUTS
100
AcDbCircle
10
60.084374750000023
20
22.075000499999931
30
0
40
0.49999999999997158
210
0
220
0
230
1
100
AcDbArc
50
180
51
270.00000000000324
0
LINE
5
2A9
100
AcDbEntity
8
CUTOUTS
100
AcDbLine
10
79.134374750000035
20
35.574999499999969
30
0
11
92.134374750000049
21
35.574999499999969
31
0
0
ARC
5
2AA
100
AcDbEntity
8
CUTOUTS
100
AcDbCircle
10
92.134374750000077
20
35.074999499999997
30
0
40
0.49999999999997158
210
-0
220
0
230
1
100
AcDbArc
50
0
51
90.000000000001634
0
LINE
5
2AB
100
AcDbEntity
8
CUTOUTS
100
AcDbLine
10
92.634374750000049
20
35.074999499999961
30
0
11
92.634375750000061
21
22.075000499999966
31
0
0
ARC
5
2AC
100
AcDbEntity
8
CUTOUTS
100
AcDbCircle
10
92.134374750000049
20
22.075000499999984
30
0
40
0.50000100000000991
210
-0
220
0
230
1
100
AcDbArc
50
270
51
360
0
LINE
5
2AD
100
AcDbEntity
8
CUTOUTS
100
AcDbLine
10
92.134374750000049
20
21.574999499999965
30
0
11
79.134374750000035
21
21.575000499999959
31
0
0
ARC
5
2AE
100
AcDbEntity
8
CUTOUTS
100
AcDbCircle
10
79.134374750000006
20
22.075000499999948
30
0
40
0.49999999999997158
210
0
220
0
230
1
100
AcDbArc
50
180
51
270.00000000000324
0
LINE
5
2AF
100
AcDbEntity
8
CUTOUTS
100
AcDbLine
10
78.634374750000035
20
22.075000499999966
30
0
11
78.634374750000035
21
35.074999499999961
31
0
0
ARC
5
2B0
100
AcDbEntity
8
CUTOUTS
100
AcDbCircle
10
79.134374750000035
20
35.074999499999976
30
0
40
0.49999999999999822
210
0
220
-0
230
1
100
AcDbArc
50
90
51
180
0
LINE
5
2B1
100
AcDbEntity
8
CUTOUTS
100
AcDbLine
10
-128.53437524999998
20
-16.02500050000004
30
0
11
-128.53437524999998
21
-3.0250005000000346
31
0
0
ARC
5
2B2
100
AcDbEntity
8
CUTOUTS
100
AcDbCircle
10
-128.03437524999995
20
-3.0250005000000346
30
0
40
0.49999999999999822
210
0
220
-0
230
1
100
AcDbArc
50
90
51
180
0
LINE
5
2B3
100
AcDbEntity
8
CUTOUTS
100
AcDbLine
10
-128.03437524999995
20
-2.5250005000000364
30
0
11
-115.03437524999995
21
-2.5250005000000364
31
0
0
ARC
5
2B4
100
AcDbEntity
8
CUTOUTS
100
AcDbCircle
10
-115.03437524999997
20
-3.0250005000000346
30
0
40
0.49999999999998934
210
0
220
-0
230
1
100
AcDbArc
50
0
51
90
0
LINE
5
2B5
100
AcDbEntity
8
CUTOUTS
100
AcDbLine
10
-114.53437524999998
20
-3.0250005000000346
30
0
11
-114.53437524999998
21
-16.02500050000004
31
0
0
ARC
5
2B6
100
AcDbEntity
8
CUTOUTS
100
AcDbCircle
10
-115.03437524999997
20
-16.02500050000004
30
0
40
0.49999999999999822
210
-0
220
0
230
1
100
AcDbArc
50
-90
51
0
0
LINE
5
2B7
100
AcDbEntity
8
CUTOUTS
100
AcDbLine
10
-115.03437524999997
20
-16.52500050000004
30
0
11
-128.03437624999998
21
-16.524999500000046
31
0
0
ARC
5
2B8
100
AcDbEntity
8
CUTOUTS
100
AcDbCircle
10
-128.03437624999995
20
-16.02500050000004
30
0
40
0.49999900000001318
210
0
220
0
230
1
100
AcDbArc
50
180
51
270
0
LINE
5
2B9
100
AcDbEntity
8
CUTOUTS
100
AcDbLine
10
54.034374750000055
20
21.574999499999965
30
0
11
41.034374750000055
21
21.575000499999959
31
0
0
ARC
5
2BA
100
AcDbEntity
8
CUTOUTS
100
AcDbCircle
10
41.034374750000012
20
22.075000499999931
30
0
40
0.49999999999997158
210
0
220
0
230
1
100
AcDbArc
50
180
51
270.00000000000324
0
LINE
5
2BB
100
AcDbEntity
8
CUTOUTS
100
AcDbLine
10
40.53437475000004
20
22.075000499999966
30
0
11
40.53437475000004
21
35.074999499999961
31
0
0
ARC
5
2BC
100
AcDbEntity
8
CUTOUTS
100
AcDbCircle
10
41.034374750000012
20
35.074999499999997
30
0
40
0.49999999999998046
210
0
220
-0
230
1
100
AcDbArc
50
89.999999999995111
51
180
0
LINE
5
2BD
100
AcDbEntity
8
CUTOUTS
100
AcDbLine
10
41.034374750000055
20
35.574999499999969
30
0
11
54.034374750000055
21
35.575000500000975
31
0
0
ARC
5
2BE
100
AcDbEntity
8
CUTOUTS
100
AcDbCircle
10
54.034374750000055
20
35.075000499999973
30
0
40
0.50000000000100708
210
-0
220
0
230
1
100
AcDbArc
50
-0.0001145902915529748
51
90
0
LINE
5
2BF
100
AcDbEntity
8
CUTOUTS
100
AcDbLine
10
54.534374750000069
20
35.074999499999961
30
0
11
54.534375750000038
21
22.075000499999948
31
0
0
ARC
5
2C0
100
AcDbEntity
8
CUTOUTS
100
AcDbCircle
10
54.034374750000055
20
22.075000499999931
30
0
40
0.50000099999997438
210
-0
220
0
230
1
100
AcDbArc
50
-90
51
0
0
ARC
5
2C1
100
AcDbEntity
8
CUTOUTS
100
AcDbCircle
10
58.796874750000029
20
16.025000499999962
30
0
40
0.50000000000100708
210
-0
220
0
230
1
100
AcDbArc
50
-0.0001145902915529748
51
90.000000000001634
0
LINE
5
2C2
100
AcDbEntity
8
CUTOUTS
100
AcDbLine
10
45.796874750000015
20
16.524999499999975
30
0
11
58.796874750000029
21
16.525000500000981
31
0
0
ARC
5
2C3
100
AcDbEntity
8
CUTOUTS
100
AcDbCircle
10
45.796874750000015
20
16.024999499999968
30
0
40
0.49999999999999822
210
0
220
-0
230
1
100
AcDbArc
50
90
51
180
0
LINE
5
2C4
100
AcDbEntity
8
CUTOUTS
100
AcDbLine
10
45.296874750000015
20
3.0249994999999608
30
0
11
45.296874750000015
21
16.024999499999968
31
0
0
ARC
5
2C5
100
AcDbEntity
8
CUTOUTS
100
AcDbCircle
10
45.796874750000015
20
3.0249994999999519
30
0
40
0.50000000000000711
210
0
220
0
230
1
100
AcDbArc
50
180
51
270
0
LINE
5
2C6
100
AcDbEntity
8
CUTOUTS
100
AcDbLine
10
58.796874750000029
20
2.5249994999999625
30
0
11
45.796874750000015
21
2.5249994999999537
31
0
0
ARC
5
2C7
100
AcDbEntity
8
CUTOUTS
100
AcDbCircle
10
58.796874750000029
20
3.0249994999999963
30
0
40
0.50000000000002931
210
-0
220
0
230
1
100
AcDbArc
50
270
51
360
0
LINE
5
2C8
100
AcDbEntity
8
CUTOUTS
100
AcDbLine
10
59.296874750000029
20
16.024999499999968
30
0
11
59.296874750000029
21
3.0249994999999608
31
0
0
LINE
5
2C9
100
AcDbEntity
8
CUTOUTS
100
AcDbLine
10
-130.47237524999997
20
-18.52500050000004
30
0
11
-136.47237524999997
21
-18.52500050000004
31
0
0
ARC
5
2CA
100
AcDbEntity
8
CUTOUTS
100
AcDbCircle
10
-136.47237524999997
20
-18.025000500000044
30
0
40
0.50000000000000711
210
0
220
0
230
1
100
AcDbArc
50
180
51
270
0
LINE
5
2CB
100
AcDbEntity
8
CUTOUTS
100
AcDbLine
10
-136.97237524999997
20
-18.025000500000044
30
0
11
-136.97237624999997
21
-4.0249995000000371
31
0
0
ARC
5
2CC
100
AcDbEntity
8
CUTOUTS
100
AcDbCircle
10
-136.47237624999997
20
-4.0250005000000311
30
0
40
0.50000000000098932
210
0
220
-0
230
1
100
AcDbArc
50
89.999885408441259
51
179.9998854097085
0
LINE
5
2CD
100
AcDbEntity
8
CUTOUTS
100
AcDbLine
10
-136.47237524999997
20
-3.5250005000000417
30
0
11
-130.47237524999997
21
-3.5250005000000417
31
0
0
ARC
5
2CE
100
AcDbEntity
8
CUTOUTS
100
AcDbCircle
10
-130.47237524999997
20
-4.0250005000000399
30
0
40
0.50000000000000711
210
0
220
-0
230
1
100
AcDbArc
50
0
51
90
0
LINE
5
2CF
100
AcDbEntity
8
CUTOUTS
100
AcDbLine
10
-129.97237524999997
20
-4.0250005000000399
30
0
11
-129.97237524999997
21
-18.025000500000044
31
0
0
ARC
5
2D0
100
AcDbEntity
8
CUTOUTS
100
AcDbCircle
10
-130.47237524999997
20
-18.025000500000044
30
0
40
0.49999999999999822
210
-0
220
0
230
1
100
AcDbArc
50
-90
51
0
0
LINE
5
2D1
100
AcDbEntity
8
CUTOUTS
100
AcDbLine
10
-121.67812524999997
20
35.074999499999961
30
0
11
-121.67812424999997
21
22.075000499999966
31
0
0
ARC
5
2D2
100
AcDbEntity
8
CUTOUTS
100
AcDbCircle
10
-122.17812524999997
20
22.075000499999966
30
0
40
0.50000100000000103
210
-0
220
0
230
1
100
AcDbArc
50
270
51
360
0
LINE
5
2D3
100
AcDbEntity
8
CUTOUTS
100
AcDbLine
10
-122.17812524999997
20
21.574999499999965
30
0
11
-135.17812524999997
21
21.575000499999959
31
0
0
ARC
5
2D4
100
AcDbEntity
8
CUTOUTS
100
AcDbCircle
10
-135.17812524999997
20
22.075000499999966
30
0
40
0.50000000000000711
210
0
220
0
230
1
100
AcDbArc
50
180
51
270
0
LINE
5
2D5
100
AcDbEntity
8
CUTOUTS
100
AcDbLine
10
-135.67812524999997
20
22.075000499999966
30
0
11
-135.67812524999997
21
35.074999499999961
31
0
0
ARC
5
2D6
100
AcDbEntity
8
CUTOUTS
100
AcDbCircle
10
-135.17812524999997
20
35.074999499999961
30
0
40
0.50000000000000711
210
0
220
-0
230
1
100
AcDbArc
50
90
51
180
0
LINE
5
2D7
100
AcDbEntity
8
CUTOUTS
100
AcDbLine
10
-135.17812524999997
20
35.574999499999969
30
0
11
-122.17812524999997
21
35.574999499999947
31
0
0
ARC
5
2D8
100
AcDbEntity
8
CUTOUTS
100
AcDbCircle
10
-122.17812524999997
20
35.074999499999961
30
0
40
0.50000000000000711
210
-0
220
0
230
1
100
AcDbArc
50
0
51
90
0
LINE
5
2D9
100
AcDbEntity
8
CUTOUTS
100
AcDbLine
10
-138.05937524999996
20
3.0249994999999608
30
0
11
-138.05937524999996
21
16.024999499999968
31
0
0
ARC
5
2DA
100
AcDbEntity
8
CUTOUTS
100
AcDbCircle
10
-137.55937524999996
20
16.024999499999968
30
0
40
0.50000000000001155
210
0
220
-0
230
1
100
AcDbArc
50
90
51
180
0
LINE
5
2DB
100
AcDbEntity
8
CUTOUTS
100
AcDbLine
10
-137.55937524999996
20
16.524999499999975
30
0
11
-119.79687524999996
21
16.524998499999963
31
0
0
ARC
5
2DC
100
AcDbEntity
8
CUTOUTS
100
AcDbCircle
10
-119.79687524999997
20
16.024999499999968
30
0
40
0.49999900000001318
210
0
220
0
230
1
100
AcDbArc
50
0
51
89.99999999999838
0
LINE
5
2DD
100
AcDbEntity
8
CUTOUTS
100
AcDbLine
10
-119.29687624999997
20
16.024999499999968
30
0
11
-119.29687524999997
21
3.0249994999999608
31
0
0
ARC
5
2DE
100
AcDbEntity
8
CUTOUTS
100
AcDbCircle
10
-119.79687524999997
20
3.0249994999999608
30
0
40
0.49999999999999822
210
-0
220
0
230
1
100
AcDbArc
50
-90
51
0
0
LINE
5
2DF
100
AcDbEntity
8
CUTOUTS
100
AcDbLine
10
-119.79687524999997
20
2.5249994999999625
30
0
11
-137.55937524999996
21
2.5249994999999625
31
0
0
ARC
5
2E0
100
AcDbEntity
8
CUTOUTS
100
AcDbCircle
10
-137.55937524999996
20
3.0249994999999608
30
0
40
0.50000000000000711
210
0
220
0
230
1
100
AcDbArc
50
180
51
270
0
ARC
5
2E1
100
AcDbEntity
8
PERIMETER
100
AcDbCircle
10
-147.359375
20
37.758920216900421
30
0
40
2.0000000000000178
210
0
220
0
230
1
100
AcDbArc
50
99.594068226860657
51
180
0
LINE
5
2E2
100
AcDbEntity
8
PERIMETER
100
AcDbLine
10
-149.359375
20
37.758920216900421
30
0
11
-149.359375
21
5.9160797830996081
31
0
0
ARC
5
2E3
100
AcDbEntity
8
PERIMETER
100
AcDbCircle
10
-147.359375
20
5.9160797830996081
30
0
40
1.9999999999999929
210
0
220
0
230
1
100
AcDbArc
50
180
51
260.40593177313923
0
ARC
5
2E4
100
AcDbEntity
8
PERIMETER
100
AcDbCircle
10
-148.35937500000003
20
-1.7763568394002505e-14
30
0
40
4.0000000000000027
210
-0
220
0
230
1
100
AcDbArc
50
-80.405931773139258
51
80.405931773139272
0
ARC
5
2E5
100
AcDbEntity
8
PERIMETER
100
AcDbCircle
10
-147.359375
20
-5.9160797830996259
30
0
40
1.9999999999999978
210
0
220
0
230
1
100
AcDbArc
50
99.594068226860742
51
180
0
LINE
5
2E6
100
AcDbEntity
8
PERIMETER
100
AcDbLine
10
-149.359375
20
-5.9160797830996259
30
0
11
-149.359375
21
-37.758920216900435
31
0
0
ARC
5
2E7
100
AcDbEntity
8
PERIMETER
100
AcDbCircle
10
-147.359375
20
-37.758920216900435
30
0
40
1.9999999999999929
210
0
220
0
230
1
100
AcDbArc
50
180
51
260.40593177313923
0
ARC
5
2E8
100
AcDbEntity
8
PERIMETER
100
AcDbCircle
10
-148.35937500000003
20
-43.675000000000054
30
0
40
3.9999999999999947
210
0
220
-0
230
1
100
AcDbArc
50
9.5940682268604949
51
80.405931773139272
0
ARC
5
2E9
100
AcDbEntity
8
PERIMETER
100
AcDbCircle
10
-142.44329521690042
20
-42.67500000000004
30
0
40
2
210
0
220
0
230
1
100
AcDbArc
50
189.59406822686077
51
270
0
LINE
5
2EA
100
AcDbEntity
8
PERIMETER
100
AcDbLine
10
-142.44329521690042
20
-44.675000000000047
30
0
11
-80.095704783099606
21
-44.675000000000047
31
0
0
ARC
5
2EB
100
AcDbEntity
8
PERIMETER
100
AcDbCircle
10
-80.095704783099606
20
-42.67500000000004
30
0
40
2.0000000000000107
210
-0
220
0
230
1
100
AcDbArc
50
270
51
350.40593177313929
0
ARC
5
2EC
100
AcDbEntity
8
PERIMETER
100
AcDbCircle
10
-74.179625000000001
20
-43.675000000000054
30
0
40
3.9999999999999858
210
0
220
-0
230
1
100
AcDbArc
50
9.5940682268605322
51
170.40593177313946
0
ARC
5
2ED
100
AcDbEntity
8
PERIMETER
100
AcDbCircle
10
-68.263545216900383
20
-42.67500000000004
30
0
40
2.0000000000000089
210
0
220
0
230
1
100
AcDbArc
50
189.59406822686063
51
270
0
LINE
5
2EE
100
AcDbEntity
8
PERIMETER
100
AcDbLine
10
-68.263545216900383
20
-44.675000000000047
30
0
11
-5.9159547830996217
21
-44.675000000000047
31
0
0
ARC
5
2EF
100
AcDbEntity
8
PERIMETER
100
AcDbCircle
10
-5.9159547830996217
20
-42.67500000000004
30
0
40
2.0000000000000107
210
-0
220
0
230
1
100
AcDbArc
50
270
51
350.4059317731394
0
ARC
5
2F0
100
AcDbEntity
8
PERIMETER
100
AcDbCircle
10
0.000124999999986386
20
-43.675000000000054
30
0
40
4.0000000000000124
210
0
220
-0
230
1
100
AcDbArc
50
9.5940682268604949
51
170.40593177313946
0
ARC
5
2F1
100
AcDbEntity
8
PERIMETER
100
AcDbCircle
10
5.9162047830995945
20
-42.675000000000054
30
0
40
1.99999999999998
210
0
220
0
230
1
100
AcDbArc
50
189.5940682268604
51
270
0
LINE
5
2F2
100
AcDbEntity
8
PERIMETER
100
AcDbLine
10
5.9162047830995945
20
-44.675000000000047
30
0
11
68.263795216900419
21
-44.675000000000047
31
0
0
ARC
5
2F3
100
AcDbEntity
8
PERIMETER
100
AcDbCircle
10
68.263795216900419
20
-42.675000000000054
30
0
40
1.9999999999999929
210
-0
220
0
230
1
100
AcDbArc
50
270
51
350.40593177313968
0
ARC
5
2F4
100
AcDbEntity
8
PERIMETER
100
AcDbCircle
10
74.17987500000001
20
-43.675000000000033
30
0
40
3.9999999999999911
210
0
220
-0
230
1
100
AcDbArc
50
9.5940682268602266
51
170.40593177313977
0
ARC
5
2F5
100
AcDbEntity
8
PERIMETER
100
AcDbCircle
10
80.0959547830996
20
-42.675000000000054
30
0
40
1.9999999999999798
210
0
220
0
230
1
100
AcDbArc
50
189.59406822686034
51
270
0
LINE
5
2F6
100
AcDbEntity
8
PERIMETER
100
AcDbLine
10
80.0959547830996
20
-44.675000000000047
30
0
11
142.44354521690039
21
-44.675000000000047
31
0
0
ARC
5
2F7
100
AcDbEntity
8
PERIMETER
100
AcDbCircle
10
142.44354521690039
20
-42.675000000000054
30
0
40
1.9999999999999929
210
-0
220
0
230
1
100
AcDbArc
50
270
51
350.40593177313974
0
ARC
5
2F8
100
AcDbEntity
8
PERIMETER
100
AcDbCircle
10
148.35962500000002
20
-43.675000000000082
30
0
40
4.0000000000000266
210
0
220
0
230
1
100
AcDbArc
50
99.596489424099929
51
170.40593177313934
0
ARC
5
2F9
100
AcDbEntity
8
PERIMETER
100
AcDbCircle
10
147.35937500000003
20
-37.758962480046343
30
0
40
2.0000000000000102
210
-0
220
0
230
1
100
AcDbArc
50
-80.403510575900114
51
0
0
LINE
5
2FA
100
AcDbEntity
8
PERIMETER
100
AcDbLine
10
149.35937500000003
20
-37.758962480046343
30
0
11
149.35937500000003
21
-5.9160797830996081
31
0
0
ARC
5
2FB
100
AcDbEntity
8
PERIMETER
100
AcDbCircle
10
147.35937500000003
20
-5.9160797830996081
30
0
40
1.9999999999999929
210
0
220
-0
230
1
100
AcDbArc
50
0
51
80.405931773140068
0
ARC
5
2FC
100
AcDbEntity
8
PERIMETER
100
AcDbCircle
10
148.35937499999997
20
0
30
0
40
3.9999999999999662
210
0
220
0
230
1
100
AcDbArc
50
99.594068226859179
51
260.40593177313997
0
ARC
5
2FD
100
AcDbEntity
8
PERIMETER
100
AcDbCircle
10
147.35937500000003
20
5.9160797830995904
30
0
40
2.0000000000000044
210
-0
220
0
230
1
100
AcDbArc
50
279.59406822686151
51
360
0
LINE
5
2FE
100
AcDbEntity
8
PERIMETER
100
AcDbLine
10
149.35937500000003
20
5.9160797830995904
30
0
11
149.35937500000003
21
37.758920216900442
31
0
0
ARC
5
2FF
100
AcDbEntity
8
PERIMETER
100
AcDbCircle
10
147.35937500000003
20
37.758920216900442
30
0
40
1.9999999999999929
210
0
220
-0
230
1
100
AcDbArc
50
0
51
80.405931773138406
0
ARC
5
300
100
AcDbEntity
8
PERIMETER
100
AcDbCircle
10
148.35937500000003
20
43.675000000000033
30
0
40
3.9999999999999885
210
0
220
0
230
1
100
AcDbArc
50
189.59406822685995
51
260.40593177313963
0
ARC
5
301
100
AcDbEntity
8
PERIMETER
100
AcDbCircle
10
142.44329521690042
20
42.67500000000004
30
0
40
1.9999999999999858
210
0
220
-0
230
1
100
AcDbArc
50
9.5940682268613724
51
90
0
LINE
5
302
100
AcDbEntity
8
PERIMETER
100
AcDbLine
10
142.44329521690042
20
44.675000000000026
30
0
11
80.0959547830996
21
44.67500000000004
31
0
0
ARC
5
303
100
AcDbEntity
8
PERIMETER
100
AcDbCircle
10
80.095954783099558
20
42.67500000000009
30
0
40
1.9999999999999396
210
0
220
-0
230
1
100
AcDbArc
50
89.999999999998778
51
170.40593177314082
0
ARC
5
304
100
AcDbEntity
8
PERIMETER
100
AcDbCircle
10
74.17987500000001
20
43.675000000000033
30
0
40
3.9999999999999596
210
0
220
0
230
1
100
AcDbArc
50
189.59406822686049
51
350.40593177313974
0
ARC
5
305
100
AcDbEntity
8
PERIMETER
100
AcDbCircle
10
68.263795216900419
20
42.67500000000004
30
0
40
2.0000000000000147
210
0
220
-0
230
1
100
AcDbArc
50
9.5940682268602657
51
90
0
LINE
5
306
100
AcDbEntity
8
PERIMETER
100
AcDbLine
10
68.263795216900419
20
44.675000000000047
30
0
11
5.9162047830996123
21
44.675000000000018
31
0
0
ARC
5
307
100
AcDbEntity
8
PERIMETER
100
AcDbCircle
10
5.9162047830996123
20
42.67500000000004
30
0
40
1.9999999999999929
210
0
220
-0
230
1
100
AcDbArc
50
90
51
170.40593177313971
0
ARC
5
308
100
AcDbEntity
8
PERIMETER
100
AcDbCircle
10
0.000124999999986386
20
43.675000000000033
30
0
40
4.0000000000000311
210
0
220
0
230
1
100
AcDbArc
50
189.59406822686034
51
350.40593177313963
0
ARC
5
309
100
AcDbEntity
8
PERIMETER
100
AcDbCircle
10
-5.9159547830996395
20
42.67500000000004
30
0
40
1.99999999999998
210
0
220
-0
230
1
100
AcDbArc
50
9.5940682268604185
51
90.000000000000057
0
LINE
5
30A
100
AcDbEntity
8
PERIMETER
100
AcDbLine
10
-5.9159547830996395
20
44.675000000000011
30
0
11
-68.263545216900411
21
44.675000000000026
31
0
0
ARC
5
30B
100
AcDbEntity
8
PERIMETER
100
AcDbCircle
10
-68.263545216900411
20
42.67500000000004
30
0
40
1.9999999999999929
210
0
220
-0
230
1
100
AcDbArc
50
90
51
170.40593177313966
0
ARC
5
30C
100
AcDbEntity
8
PERIMETER
100
AcDbCircle
10
-74.179625000000016
20
43.675000000000033
30
0
40
3.9999999999999947
210
0
220
0
230
1
100
AcDbArc
50
189.59406822686037
51
350.40593177313951
0
ARC
5
30D
100
AcDbEntity
8
PERIMETER
100
AcDbCircle
10
-80.09570478309962
20
42.67500000000004
30
0
40
1.9999999999999973
210
0
220
-0
230
1
100
AcDbArc
50
9.5940682268603421
51
90
0
LINE
5
30E
100
AcDbEntity
8
PERIMETER
100
AcDbLine
10
-80.09570478309962
20
44.675000000000026
30
0
11
-142.44329521690042
21
44.675000000000026
31
0
0
ARC
5
30F
100
AcDbEntity
8
PERIMETER
100
AcDbCircle
10
-142.4432952169004
20
42.67500000000004
30
0
40
1.9999999999999929
210
0
220
-0
230
1
100
AcDbArc
50
90
51
170.4059317731392
0
ARC
5
310
100
AcDbEntity
8
PERIMETER
100
AcDbCircle
10
-148.35937500000003
20
43.675000000000033
30
0
40
3.9999999999999796
210
-0
220
0
230
1
100
AcDbArc
50
279.59406822686077
51
350.40593177313974
0
ENDSEC
0
SECTION
2
OBJECTS
0
DICTIONARY
5
C
100
AcDbDictionary
3
ACAD_GROUP
350
D
3
ACAD_MLINESTYLE
350
17
0
DICTIONARY
5
D
100
AcDbDictionary
0
DICTIONARY
5
1A
330
C
100
AcDbDictionary
0
DICTIONARY
5
17
100
AcDbDictionary
0
ENDSEC
0
EOF
