0
SECTION
2
HEADER
9
$INSUNITS
70
4
9
$ACADVER
1
AC1014
9
$HANDSEED
5
FFFF
0
ENDSEC
0
SECTION
2
TABLES
0
TABLE
2
VPORT
5
8
100
AcDbSymbolTable
0
ENDTAB
0
TABLE
2
LTYPE
5
5
100
AcDbSymbolTable
0
LTYPE
5
14
100
AcDbSymbolTableRecord
100
AcDbLinetypeTableRecord
2
BYBLOCK
70
0
0
LTYPE
5
15
100
AcDbSymbolTableRecord
100
AcDbLinetypeTableRecord
2
BYLAYER
70
0
0
ENDTAB
0
TABLE
2
LAYER
5
2
100
AcDbSymbolTable
70
2
0
LAYER
5
50
100
AcDbSymbolTableRecord
100
AcDbLayerTableRecord
2
0
70
0
6
CONTINUOUS
0
ENDTAB
0
TABLE
2
STYLE
5
3
100
AcDbSymbolTable
70
1
0
STYLE
5
11
100
AcDbSymbolTableRecord
100
AcDbTextStyleTableRecord
2
STANDARD
70
0
0
ENDTAB
0
TABLE
2
VIEW
5
6
100
AcDbSymbolTable
70
0
0
ENDTAB
0
TABLE
2
UCS
5
7
100
AcDbSymbolTable
70
0
0
ENDTAB
0
TABLE
2
APPID
5
9
100
AcDbSymbolTable
70
2
0
APPID
5
12
100
AcDbSymbolTableRecord
100
AcDbRegAppTableRecord
2
ACAD
70
0
0
ENDTAB
0
TABLE
2
DIMSTYLE
5
A
100
AcDbSymbolTable
70
1
0
ENDTAB
0
TABLE
2
BLOCK_RECORD
5
1
100
AcDbSymbolTable
70
1
0
BLOCK_RECORD
5
1F
100
AcDbSymbolTableRecord
100
AcDbBlockTableRecord
2
*MODEL_SPACE
0
BLOCK_RECORD
5
1B
100
AcDbSymbolTableRecord
100
AcDbBlockTableRecord
2
*PAPER_SPACE
0
ENDTAB
0
ENDSEC
0
SECTION
2
BLOCKS
0
BLOCK
5
20
100
AcDbEntity
100
AcDbBlockBegin
2
*MODEL_SPACE
0
ENDBLK
5
21
100
AcDbEntity
100
AcDbBlockEnd
0
BLOCK
5
1C
100
AcDbEntity
100
AcDbBlockBegin
2
*PAPER_SPACE
0
ENDBLK
5
1D
100
AcDbEntity
100
AcDbBlockEnd
0
ENDSEC
0
SECTION
2
ENTITIES
0
CIRCLE
5
100
100
AcDbEntity
8
0
100
AcDbCircle
10
-126.24395770000001
20
3.5527136788005009e-14
30
0
40
0.92499999999999361
210
0
220
0
230
1
0
CIRCLE
5
101
100
AcDbEntity
8
0
100
AcDbCircle
10
60.098957699999985
20
42.89990349999993
30
2.6645352591003757e-14
40
0.92500000000001137
210
0
220
0
230
1
0
CIRCLE
5
102
100
AcDbEntity
8
0
100
AcDbCircle
10
126.24395769999991
20
3.5527136788005009e-14
30
0
40
0.92500000000001137
210
0
220
0
230
1
0
CIRCLE
5
103
100
AcDbEntity
8
0
100
AcDbCircle
10
-60.098957700000014
20
-42.899903500000001
30
0
40
0.92499999999999361
210
0
220
0
230
1
0
CIRCLE
5
104
100
AcDbEntity
8
0
100
AcDbCircle
10
-60.098957700000014
20
42.899903500000001
30
2.6645352591003757e-14
40
0.92500000000000249
210
0
220
0
230
1
0
CIRCLE
5
105
100
AcDbEntity
8
0
100
AcDbCircle
10
60.098957699999985
20
-42.899903500000001
30
0
40
0.92500000000001137
210
0
220
0
230
1
0
LINE
5
106
100
AcDbEntity
8
0
100
AcDbLine
10
-85.944617300000075
20
35.074146499999976
30
0
11
-85.944617300000061
21
22.074146500000005
31
0
0
ARC
5
107
100
AcDbEntity
8
0
100
AcDbCircle
10
-86.36961730000003
20
22.074146500000005
30
0
40
0.42499999999996874
210
0
220
0
230
1
100
AcDbArc
50
-90.000000000001933
51
0
0
LINE
5
108
100
AcDbEntity
8
0
100
AcDbLine
10
-86.369617300000044
20
21.649146500000036
30
0
11
-99.369617300000044
21
21.649146500000036
31
0
0
ARC
5
109
100
AcDbEntity
8
0
100
AcDbCircle
10
-99.369617300000002
20
22.074146500000076
30
0
40
0.42500000000002203
210
0
220
0
230
1
100
AcDbArc
50
180
51
269.99999999999426
0
LINE
5
110
100
AcDbEntity
8
0
100
AcDbLine
10
-99.794617300000027
20
22.074146500000005
30
0
11
-99.794617300000041
21
35.074146499999905
31
0
0
ARC
5
111
100
AcDbEntity
8
0
100
AcDbCircle
10
-99.369617300000002
20
35.074146499999905
30
0
40
0.42500000000003979
210
0
220
0
230
1
100
AcDbArc
50
90.000000000007674
51
180
0
LINE
5
112
100
AcDbEntity
8
0
100
AcDbLine
10
-99.369617300000058
20
35.499146499999945
30
0
11
-86.369617300000044
21
35.499146499999945
31
0
0
ARC
5
113
100
AcDbEntity
8
0
100
AcDbCircle
10
-86.369617300000101
20
35.074146499999905
30
0
40
0.42500000000002203
210
0
220
-0
230
1
100
AcDbArc
50
0
51
89.999999999992355
0
LINE
5
114
100
AcDbEntity
8
0
100
AcDbLine
10
-61.694617300000004
20
22.074146500000005
30
0
11
-61.694617300000033
21
35.074146499999976
31
0
0
ARC
5
115
100
AcDbEntity
8
0
100
AcDbCircle
10
-61.269617300000057
20
35.074146499999976
30
0
40
0.42499999999996874
210
0
220
-0
230
1
100
AcDbArc
50
89.999999999997129
51
180
0
LINE
5
116
100
AcDbEntity
8
0
100
AcDbLine
10
-61.269617300000036
20
35.499146499999945
30
0
11
-48.26961730000005
21
35.499146500000087
31
0
0
ARC
5
117
100
AcDbEntity
8
0
100
AcDbCircle
10
-48.269617300000021
20
35.074146499999976
30
0
40
0.42500000000009308
210
0
220
-0
230
1
100
AcDbArc
50
0
51
90.000000000005755
0
LINE
5
118
100
AcDbEntity
8
0
100
AcDbLine
10
-47.844617299999932
20
35.074146499999976
30
0
11
-47.844617300000053
21
22.074146500000005
31
0
0
ARC
5
119
100
AcDbEntity
8
0
100
AcDbCircle
10
-48.269617300000021
20
22.074146500000005
30
0
40
0.42499999999996874
210
0
220
0
230
1
100
AcDbArc
50
-90.000000000002842
51
0
0
LINE
5
120
100
AcDbEntity
8
0
100
AcDbLine
10
-48.269617300000043
20
21.649146500000036
30
0
11
-61.269617300000021
21
21.649146500000036
31
0
0
ARC
5
121
100
AcDbEntity
8
0
100
AcDbCircle
10
-61.269617299999979
20
22.074146500000076
30
0
40
0.42500000000002203
210
0
220
0
230
1
100
AcDbArc
50
180
51
269.99999999999426
0
ARC
5
122
100
AcDbEntity
8
0
100
AcDbCircle
10
-118.41961729999997
20
22.074146500000076
30
0
40
0.42500000000002203
210
0
220
0
230
1
100
AcDbArc
50
180
51
269.99999999999233
0
LINE
5
123
100
AcDbEntity
8
0
100
AcDbLine
10
-105.41961730000003
20
21.649146500000036
30
0
11
-118.41961730000001
21
21.649146500000036
31
0
0
ARC
5
124
100
AcDbEntity
8
0
100
AcDbCircle
10
-105.41961730000008
20
22.074146500000076
30
0
40
0.42500000000003979
210
-0
220
0
230
1
100
AcDbArc
50
-89.999999999992369
51
0
0
LINE
5
125
100
AcDbEntity
8
0
100
AcDbLine
10
-104.99461730000009
20
35.074146499999976
30
0
11
-104.99461730000004
21
22.074146500000076
31
0
0
ARC
5
126
100
AcDbEntity
8
0
100
AcDbCircle
10
-105.41961730000011
20
35.074146499999905
30
0
40
0.42500000000002203
210
0
220
-0
230
1
100
AcDbArc
50
0
51
89.999999999996163
0
LINE
5
127
100
AcDbEntity
8
0
100
AcDbLine
10
-118.41961730000003
20
35.499146499999945
30
0
11
-105.41961730000008
21
35.499146499999945
31
0
0
ARC
5
128
100
AcDbEntity
8
0
100
AcDbCircle
10
-118.41961730000006
20
35.074146499999976
30
0
40
0.42499999999996874
210
0
220
-0
230
1
100
AcDbArc
50
89.999999999994273
51
180
0
LINE
5
129
100
AcDbEntity
8
0
100
AcDbLine
10
-118.8446173
20
22.074146500000005
30
0
11
-118.84461730000004
21
35.074146499999976
31
0
0
ARC
5
130
100
AcDbEntity
8
0
100
AcDbCircle
10
54.12413269999989
20
22.074146500000076
30
0
40
0.42500000000003979
210
-0
220
0
230
1
100
AcDbArc
50
270.00000000000961
51
360
0
LINE
5
131
100
AcDbEntity
8
0
100
AcDbLine
10
54.54913269999993
20
35.074146499999976
30
0
11
54.54913269999993
21
22.074146500000005
31
0
0
ARC
5
132
100
AcDbEntity
8
0
100
AcDbCircle
10
54.12413269999989
20
35.074146499999905
30
0
40
0.42500000000003979
210
0
220
-0
230
1
100
AcDbArc
50
0
51
89.999999999994273
0
LINE
5
133
100
AcDbEntity
8
0
100
AcDbLine
10
41.124132699999961
20
35.499146499999945
30
0
11
54.124132699999933
21
35.499146499999945
31
0
0
ARC
5
134
100
AcDbEntity
8
0
100
AcDbCircle
10
41.124132699999919
20
35.074146499999905
30
0
40
0.42500000000003979
210
0
220
-0
230
1
100
AcDbArc
50
89.999999999994273
51
180
0
LINE
5
135
100
AcDbEntity
8
0
100
AcDbLine
10
40.699132699999993
20
22.074146500000005
30
0
11
40.699132699999879
21
35.074146499999976
31
0
0
ARC
5
136
100
AcDbEntity
8
0
100
AcDbCircle
10
41.12413269999999
20
22.074146500000076
30
0
40
0.42500000000000426
210
0
220
0
230
1
100
AcDbArc
50
180
51
269.99999999999619
0
LINE
5
137
100
AcDbEntity
8
0
100
AcDbLine
10
54.124132699999961
20
21.649146500000036
30
0
11
41.124132699999961
21
21.649146500000107
31
0
0
LINE
5
138
100
AcDbEntity
8
0
100
AcDbLine
10
-80.744617300000073
20
22.074146500000005
30
0
11
-80.744617300000101
21
35.074146499999976
31
0
0
ARC
5
139
100
AcDbEntity
8
0
100
AcDbCircle
10
-80.319617300000061
20
35.074146499999976
30
0
40
0.42500000000003979
210
0
220
-0
230
1
100
AcDbArc
50
89.999999999996163
51
180
0
LINE
5
140
100
AcDbEntity
8
0
100
AcDbLine
10
-80.319617300000047
20
35.499146500000016
30
0
11
-67.319617300000033
21
35.499146500000016
31
0
0
ARC
5
141
100
AcDbEntity
8
0
100
AcDbCircle
10
-67.31961730000009
20
35.074146499999905
30
0
40
0.42500000000006644
210
0
220
-0
230
1
100
AcDbArc
50
0
51
89.999999999992355
0
LINE
5
142
100
AcDbEntity
8
0
100
AcDbLine
10
-66.894617300000021
20
35.074146499999976
30
0
11
-66.894617299999993
21
22.074146500000005
31
0
0
ARC
5
143
100
AcDbEntity
8
0
100
AcDbCircle
10
-67.319617300000019
20
22.074146500000005
30
0
40
0.42500000000003979
210
0
220
0
230
1
100
AcDbArc
50
-90.000000000001933
51
0
0
LINE
5
144
100
AcDbEntity
8
0
100
AcDbLine
10
-67.319617300000033
20
21.649146499999965
30
0
11
-80.319617300000047
21
21.649146499999965
31
0
0
ARC
5
145
100
AcDbEntity
8
0
100
AcDbCircle
10
-80.31961729999999
20
22.074146500000076
30
0
40
0.42500000000007532
210
0
220
0
230
1
100
AcDbArc
50
180
51
269.99999999999233
0
LINE
5
146
100
AcDbEntity
8
0
100
AcDbLine
10
111.69913270000008
20
35.074146499999976
30
0
11
111.69913270000004
21
22.074146500000005
31
0
0
ARC
5
147
100
AcDbEntity
8
0
100
AcDbCircle
10
111.2741327
20
22.074146500000076
30
0
40
0.42500000000003979
210
0
220
0
230
1
100
AcDbArc
50
269.99999999999619
51
360
0
LINE
5
148
100
AcDbEntity
8
0
100
AcDbLine
10
111.27413269999997
20
21.649146500000036
30
0
11
98.274132699999996
21
21.649146500000036
31
0
0
ARC
5
149
100
AcDbEntity
8
0
100
AcDbCircle
10
98.274132700000024
20
22.074146500000076
30
0
40
0.42500000000003979
210
0
220
0
230
1
100
AcDbArc
50
180
51
269.99999999999619
0
LINE
5
150
100
AcDbEntity
8
0
100
AcDbLine
10
97.849132699999984
20
22.074146500000005
30
0
11
97.849132699999913
21
35.074146499999976
31
0
0
ARC
5
151
100
AcDbEntity
8
0
100
AcDbCircle
10
98.274132699999953
20
35.074146499999905
30
0
40
0.42500000000003979
210
0
220
-0
230
1
100
AcDbArc
50
90
51
180
0
LINE
5
152
100
AcDbEntity
8
0
100
AcDbLine
10
98.274132699999953
20
35.499146499999945
30
0
11
111.27413269999997
21
35.499146500000016
31
0
0
ARC
5
153
100
AcDbEntity
8
0
100
AcDbCircle
10
111.2741327
20
35.074146499999976
30
0
40
0.42500000000007532
210
0
220
-0
230
1
100
AcDbArc
50
0
51
90.000000000003837
0
LINE
5
154
100
AcDbEntity
8
0
100
AcDbLine
10
56.915251355180715
20
-41.737963707477093
30
0
11
57.411322216251705
21
-43.270099171384864
31
0
0
ARC
5
155
100
AcDbEntity
8
0
100
AcDbCircle
10
60.098957699999985
20
-42.399903499999994
30
0
40
2.8249999999999682
210
0
220
0
230
1
100
AcDbArc
50
197.94078200365465
51
342.05921799634467
0
LINE
5
156
100
AcDbEntity
8
0
100
AcDbLine
10
62.786593183748266
20
-43.270099171384899
30
0
11
63.282664044819214
21
-41.737963707477093
31
0
0
ARC
5
157
100
AcDbEntity
8
0
100
AcDbCircle
10
64.400530130979959
20
-42.099903500000018
30
0
40
1.1749999999999972
210
0
220
0
230
1
100
AcDbArc
50
90.000000000001393
51
162.0592179963443
0
LINE
5
158
100
AcDbEntity
8
0
100
AcDbLine
10
64.400530130979931
20
-40.924903500000021
30
0
11
121.01895769999997
21
-40.924903500000028
31
0
0
ARC
5
159
100
AcDbEntity
8
0
100
AcDbCircle
10
121.01895769999993
20
-37.674903499999921
30
0
40
3.2500000000000995
210
-0
220
0
230
1
100
AcDbArc
50
270.00000000000074
51
360
0
LINE
5
160
100
AcDbEntity
8
0
100
AcDbLine
10
124.26895770000003
20
-37.674903499999992
30
0
11
124.2689577
21
-4.3015724309800518
31
0
0
ARC
5
161
100
AcDbEntity
8
0
100
AcDbCircle
10
125.4439577
20
-4.3015724309800518
30
0
40
1.1750000000000238
210
0
220
0
230
1
100
AcDbArc
50
107.94078200365516
51
180
0
LINE
5
162
100
AcDbEntity
8
0
100
AcDbLine
10
125.08201790747707
20
-3.1837063448192282
30
0
11
126.61415337138484
21
-2.6876354837482452
31
0
0
ARC
5
163
100
AcDbEntity
8
0
100
AcDbCircle
10
125.74395769999994
20
0
30
0
40
2.8249999999999451
210
-0
220
0
230
1
100
AcDbArc
50
-72.059217996344401
51
72.059217996344401
0
LINE
5
164
100
AcDbEntity
8
0
100
AcDbLine
10
126.61415337138484
20
2.6876354837482452
30
0
11
125.08201790747692
21
3.1837063448192637
31
0
0
ARC
5
165
100
AcDbEntity
8
0
100
AcDbCircle
10
125.44395769999996
20
4.3015724309800873
30
0
40
1.1750000000000327
210
0
220
0
230
1
100
AcDbArc
50
180
51
252.05921799633987
0
LINE
5
166
100
AcDbEntity
8
0
100
AcDbLine
10
124.26895769999993
20
4.3015724309800518
30
0
11
124.26895769999996
21
37.674903499999992
31
0
0
ARC
5
167
100
AcDbEntity
8
0
100
AcDbCircle
10
121.0189577
20
37.674903500000063
30
0
40
3.2499999999999574
210
-0
220
0
230
1
100
AcDbArc
50
0
51
90.000000000000512
0
LINE
5
168
100
AcDbEntity
8
0
100
AcDbLine
10
121.01895769999997
20
40.924903500000021
30
0
11
64.400530130979931
21
40.924903499999957
31
0
0
ARC
5
169
100
AcDbEntity
8
0
100
AcDbCircle
10
64.400530130979888
20
42.099903499999876
30
0
40
1.1749999999999234
210
0
220
0
230
1
100
AcDbArc
50
197.94078200365107
51
270.0000000000021
0
LINE
5
170
100
AcDbEntity
8
0
100
AcDbLine
10
63.282664044819143
20
41.737963707477057
30
0
11
62.786593183748224
21
43.270099171384864
31
0
0
ARC
5
171
100
AcDbEntity
8
0
100
AcDbCircle
10
60.098957699999985
20
42.399903500000029
30
0
40
2.8249999999999238
210
0
220
-0
230
1
100
AcDbArc
50
17.94078200365426
51
162.05921799634748
0
LINE
5
172
100
AcDbEntity
8
0
100
AcDbLine
10
57.411322216251705
20
43.270099171384793
30
0
11
56.915251355180686
21
41.737963707477128
31
0
0
ARC
5
173
100
AcDbEntity
8
0
100
AcDbCircle
10
55.797385269019927
20
42.099903499999947
30
0
40
1.1749999999999261
210
-0
220
0
230
1
100
AcDbArc
50
270
51
342.05921799634916
0
LINE
5
174
100
AcDbEntity
8
0
100
AcDbLine
10
55.797385269019927
20
40.924903500000021
30
0
11
-55.797385269019927
21
40.924903500000042
31
0
0
ARC
5
175
100
AcDbEntity
8
0
100
AcDbCircle
10
-55.797385269019955
20
42.099903499999876
30
0
40
1.1749999999999319
210
0
220
0
230
1
100
AcDbArc
50
197.94078200365084
51
270.00000000000171
0
LINE
5
176
100
AcDbEntity
8
0
100
AcDbLine
10
-56.915251355180715
20
41.737963707477057
30
0
11
-57.411322216251719
21
43.270099171384864
31
0
0
ARC
5
177
100
AcDbEntity
8
0
100
AcDbCircle
10
-60.098957700000007
20
42.399903500000029
30
0
40
2.824999999999966
210
0
220
-0
230
1
100
AcDbArc
50
17.940782003653972
51
162.05921799634754
0
LINE
5
178
100
AcDbEntity
8
0
100
AcDbLine
10
-62.786593183748309
20
43.270099171384793
30
0
11
-63.282664044819263
21
41.737963707477128
31
0
0
ARC
5
179
100
AcDbEntity
8
0
100
AcDbCircle
10
-64.400530130980115
20
42.099903500000018
30
0
40
1.1749999999999972
210
0
220
0
230
1
100
AcDbArc
50
269.99999999999864
51
342.05921799634706
0
LINE
5
180
100
AcDbEntity
8
0
100
AcDbLine
10
-64.400530130980144
20
40.924903500000021
30
0
11
-121.0189577
21
40.924903500000028
31
0
0
ARC
5
181
100
AcDbEntity
8
0
100
AcDbCircle
10
-121.01895770000002
20
37.674903500000063
30
0
40
3.2499999999999574
210
0
220
-0
230
1
100
AcDbArc
50
89.999999999999773
51
180
0
LINE
5
182
100
AcDbEntity
8
0
100
AcDbLine
10
-124.26895769999996
20
37.674903499999992
30
0
11
-124.26895770000002
21
4.3015724309800873
31
0
0
ARC
5
183
100
AcDbEntity
8
0
100
AcDbCircle
10
-125.44395770000001
20
4.3015724309801229
30
0
40
1.1750000000000347
210
-0
220
0
230
1
100
AcDbArc
50
-72.059217996343534
51
0
0
LINE
5
184
100
AcDbEntity
8
0
100
AcDbLine
10
-125.08201790747705
20
3.1837063448192993
30
0
11
-126.61415337138486
21
2.6876354837483518
31
0
0
ARC
5
185
100
AcDbEntity
8
0
100
AcDbCircle
10
-125.74395769999997
20
7.1054273576010019e-14
30
0
40
2.8249999999999735
210
0
220
0
230
1
100
AcDbArc
50
107.94078200365512
51
252.05921799634578
0
LINE
5
186
100
AcDbEntity
8
0
100
AcDbLine
10
-126.61415337138482
20
-2.6876354837482452
30
0
11
-125.08201790747712
21
-3.1837063448191927
31
0
0
ARC
5
187
100
AcDbEntity
8
0
100
AcDbCircle
10
-125.4439577
20
-4.3015724309799808
30
0
40
1.1749999999999794
210
-0
220
0
230
1
100
AcDbArc
50
0
51
72.059217996346973
0
LINE
5
188
100
AcDbEntity
8
0
100
AcDbLine
10
-124.26895770000002
20
-4.3015724309800163
30
0
11
-124.26895770000002
21
-37.674903499999992
31
0
0
ARC
5
189
100
AcDbEntity
8
0
100
AcDbCircle
10
-121.01895770000012
20
-37.674903500000028
30
0
40
3.2499999999999041
210
0
220
0
230
1
100
AcDbArc
50
180
51
270.00000000000102
0
LINE
5
190
100
AcDbEntity
8
0
100
AcDbLine
10
-121.01895770000007
20
-40.924903499999914
30
0
11
-64.400530130980101
21
-40.924903500000028
31
0
0
ARC
5
191
100
AcDbEntity
8
0
100
AcDbCircle
10
-64.400530130980115
20
-42.099903500000053
30
0
40
1.1750000000000433
210
0
220
-0
230
1
100
AcDbArc
50
17.940782003656473
51
89.999999999999318
0
LINE
5
192
100
AcDbEntity
8
0
100
AcDbLine
10
-63.282664044819292
20
-41.737963707477093
30
0
11
-62.786593183748387
21
-43.270099171384864
31
0
0
ARC
5
193
100
AcDbEntity
8
0
100
AcDbCircle
10
-60.098957700000014
20
-42.399903500000029
30
0
40
2.8250000000000419
210
0
220
0
230
1
100
AcDbArc
50
197.9407820036534
51
342.05921799634575
0
LINE
5
194
100
AcDbEntity
8
0
100
AcDbLine
10
-57.411322216251662
20
-43.270099171384899
30
0
11
-56.915251355180771
21
-41.737963707477057
31
0
0
ARC
5
195
100
AcDbEntity
8
0
100
AcDbCircle
10
-55.797385269020062
20
-42.099903499999876
30
0
40
1.1749999999998906
210
0
220
-0
230
1
100
AcDbArc
50
89.999999999997925
51
162.0592179963482
0
LINE
5
196
100
AcDbEntity
8
0
100
AcDbLine
10
-55.797385269020019
20
-40.924903499999985
30
0
11
55.797385269019898
21
-40.924903500000042
31
0
0
ARC
5
197
100
AcDbEntity
8
0
100
AcDbCircle
10
55.797385269019856
20
-42.099903500000089
30
0
40
1.1750000000000795
210
0
220
-0
230
1
100
AcDbArc
50
17.940782003657606
51
89.999999999997925
0
LINE
5
198
100
AcDbEntity
8
0
100
AcDbLine
10
-17.313367300000042
20
21.649146500000036
30
0
11
-30.313367300000049
21
21.649146500000036
31
0
0
ARC
5
199
100
AcDbEntity
8
0
100
AcDbCircle
10
-30.313367300000102
20
22.074146500000005
30
0
40
0.42499999999996874
210
0
220
0
230
1
100
AcDbArc
50
180
51
270.00000000000716
0
LINE
5
200
100
AcDbEntity
8
0
100
AcDbLine
10
-30.738367300000071
20
22.074146500000005
30
0
11
-30.738367300000071
21
35.074146499999976
31
0
0
ARC
5
201
100
AcDbEntity
8
0
100
AcDbCircle
10
-30.313367300000102
20
35.074146499999976
30
0
40
0.42499999999996874
210
0
220
-0
230
1
100
AcDbArc
50
89.999999999992824
51
180
0
LINE
5
202
100
AcDbEntity
8
0
100
AcDbLine
10
-30.313367300000049
20
35.499146499999945
30
0
11
-17.313367300000042
21
35.499146499999945
31
0
0
ARC
5
203
100
AcDbEntity
8
0
100
AcDbCircle
10
-17.313367299999989
20
35.074146499999976
30
0
40
0.42499999999996874
210
0
220
-0
230
1
100
AcDbArc
50
0
51
90.000000000007191
0
LINE
5
204
100
AcDbEntity
8
0
100
AcDbLine
10
-16.88836730000002
20
35.074146499999976
30
0
11
-16.888367300000024
21
22.074146500000005
31
0
0
ARC
5
205
100
AcDbEntity
8
0
100
AcDbCircle
10
-17.313367299999989
20
22.074146500000005
30
0
40
0.42499999999996874
210
0
220
0
230
1
100
AcDbArc
50
-90.000000000007162
51
0
0
ARC
5
206
100
AcDbEntity
8
0
100
AcDbCircle
10
31.605882699999999
20
21.074146500000133
30
0
40
0.42500000000003979
210
0
220
0
230
1
100
AcDbArc
50
269.99999999999523
51
360
0
LINE
5
207
100
AcDbEntity
8
0
100
AcDbLine
10
32.030882699999964
20
35.074146499999976
30
0
11
32.030882700000035
21
21.074146500000062
31
0
0
ARC
5
208
100
AcDbEntity
8
0
100
AcDbCircle
10
31.605882699999999
20
35.074146499999905
30
0
40
0.42499999999996874
210
0
220
-0
230
1
100
AcDbArc
50
0
51
90.000000000004803
0
LINE
5
209
100
AcDbEntity
8
0
100
AcDbLine
10
25.605882699999949
20
35.499146499999945
30
0
11
31.605882699999963
21
35.499146500000016
31
0
0
ARC
5
210
100
AcDbEntity
8
0
100
AcDbCircle
10
25.605882699999931
20
35.074146499999976
30
0
40
0.42499999999996874
210
0
220
-0
230
1
100
AcDbArc
50
89.999999999997613
51
180
0
LINE
5
211
100
AcDbEntity
8
0
100
AcDbLine
10
25.180882699999945
20
21.074146500000062
30
0
11
25.180882699999962
21
35.074146499999976
31
0
0
ARC
5
212
100
AcDbEntity
8
0
100
AcDbCircle
10
25.605882699999896
20
21.074146500000062
30
0
40
0.42499999999995097
210
0
220
0
230
1
100
AcDbArc
50
180
51
270.00000000000716
0
LINE
5
213
100
AcDbEntity
8
0
100
AcDbLine
10
31.605882699999963
20
20.649146500000093
30
0
11
25.605882699999949
21
20.649146500000022
31
0
0
ARC
5
214
100
AcDbEntity
8
0
100
AcDbCircle
10
105.41788269999989
20
3.0241464999999579
30
0
40
0.42499999999993321
210
0
220
0
230
1
100
AcDbArc
50
180
51
270.00000000000381
0
LINE
5
215
100
AcDbEntity
8
0
100
AcDbLine
10
118.41788269999996
20
2.5991465000000247
30
0
11
105.41788269999992
21
2.5991465000000264
31
0
0
ARC
5
216
100
AcDbEntity
8
0
100
AcDbCircle
10
118.41788269999994
20
3.0241465000000645
30
0
40
0.42500000000003979
210
-0
220
0
230
1
100
AcDbArc
50
270.00000000000381
51
360
0
LINE
5
217
100
AcDbEntity
8
0
100
AcDbLine
10
118.84288269999998
20
16.024146500000001
30
0
11
118.84288269999998
21
3.0241464999999934
31
0
0
ARC
5
218
100
AcDbEntity
8
0
100
AcDbCircle
10
118.41788269999996
20
16.024146500000001
30
0
40
0.42500000000000426
210
0
220
-0
230
1
100
AcDbArc
50
0
51
90
0
LINE
5
219
100
AcDbEntity
8
0
100
AcDbLine
10
105.41788269999996
20
16.449146500000005
30
0
11
118.41788269999996
21
16.449146500000001
31
0
0
ARC
5
220
100
AcDbEntity
8
0
100
AcDbCircle
10
105.41788269999996
20
16.024146500000001
30
0
40
0.42500000000000426
210
0
220
-0
230
1
100
AcDbArc
50
90
51
180
0
LINE
5
221
100
AcDbEntity
8
0
100
AcDbLine
10
104.99288269999995
20
3.0241465000000289
30
0
11
104.99288269999995
21
16.024146500000001
31
0
0
LINE
5
222
100
AcDbEntity
8
0
100
AcDbLine
10
29.217882699999951
20
16.449146500000005
30
0
11
42.217882699999961
21
16.449146500000001
31
0
0
ARC
5
223
100
AcDbEntity
8
0
100
AcDbCircle
10
42.217882699999961
20
16.024146500000001
30
0
40
0.42500000000000426
210
0
220
-0
230
1
100
AcDbArc
50
0
51
90
0
LINE
5
224
100
AcDbEntity
8
0
100
AcDbLine
10
42.642882699999959
20
16.024146500000001
30
0
11
42.642882699999959
21
3.0241465000000289
31
0
0
ARC
5
225
100
AcDbEntity
8
0
100
AcDbCircle
10
42.217882700000033
20
3.0241464999999579
30
0
40
0.42499999999993321
210
0
220
0
230
1
100
AcDbArc
50
-90.000000000009578
51
0
0
LINE
5
226
100
AcDbEntity
8
0
100
AcDbLine
10
42.217882699999961
20
2.5991465000000247
30
0
11
29.217882699999951
21
2.5991465000000264
31
0
0
ARC
5
227
100
AcDbEntity
8
0
100
AcDbCircle
10
29.217882699999915
20
3.0241464999999934
30
0
40
0.4249999999999865
210
0
220
0
230
1
100
AcDbArc
50
180
51
270.00000000000477
0
LINE
5
228
100
AcDbEntity
8
0
100
AcDbLine
10
28.792882699999929
20
3.0241465000000289
30
0
11
28.792882699999929
21
16.024146500000001
31
0
0
ARC
5
229
100
AcDbEntity
8
0
100
AcDbCircle
10
29.217882699999951
20
16.024146500000001
30
0
40
0.42500000000000426
210
0
220
-0
230
1
100
AcDbArc
50
90
51
180
0
ARC
5
230
100
AcDbEntity
8
0
100
AcDbCircle
10
-46.982117300000027
20
3.0241465000000289
30
0
40
0.42500000000002203
210
0
220
0
230
1
100
AcDbArc
50
180
51
269.99999999999807
0
LINE
5
231
100
AcDbEntity
8
0
100
AcDbLine
10
-33.982117300000034
20
2.5991465000000602
30
0
11
-46.982117300000041
21
2.5991464999999909
31
0
0
ARC
5
232
100
AcDbEntity
8
0
100
AcDbCircle
10
-33.982117299999963
20
3.0241464999999579
30
0
40
0.42499999999989768
210
0
220
0
230
1
100
AcDbArc
50
-90.000000000009578
51
0
0
LINE
5
233
100
AcDbEntity
8
0
100
AcDbLine
10
-33.55711730000003
20
16.024146500000001
30
0
11
-33.557117300000066
21
3.0241464999999934
31
0
0
ARC
5
234
100
AcDbEntity
8
0
100
AcDbCircle
10
-33.982117300000013
20
16.024146499999965
30
0
40
0.4249999999999865
210
0
220
-0
230
1
100
AcDbArc
50
0
51
90.000000000002885
0
LINE
5
235
100
AcDbEntity
8
0
100
AcDbLine
10
-46.982117300000041
20
16.449146500000005
30
0
11
-33.982117300000034
21
16.44914649999993
31
0
0
ARC
5
236
100
AcDbEntity
8
0
100
AcDbCircle
10
-46.982117300000098
20
16.024146500000072
30
0
40
0.42499999999996874
210
0
220
-0
230
1
100
AcDbArc
50
89.999999999992355
51
180
0
LINE
5
237
100
AcDbEntity
8
0
100
AcDbLine
10
-47.407117300000046
20
3.0241465000000289
30
0
11
-47.407117300000067
21
16.024146500000072
31
0
0
LINE
5
238
100
AcDbEntity
8
0
100
AcDbLine
10
-116.03836730000005
20
-2.6008534999999711
30
0
11
-103.03836730000003
21
-2.6008534999999728
31
0
0
ARC
5
239
100
AcDbEntity
8
0
100
AcDbCircle
10
-103.0383673
20
-3.0258534999999398
30
0
40
0.4249999999999865
210
-0
220
0
230
1
100
AcDbArc
50
0
51
90.000000000001918
0
LINE
5
240
100
AcDbEntity
8
0
100
AcDbLine
10
-102.61336730000004
20
-3.0258534999999753
30
0
11
-102.61336730000005
21
-16.025853499999982
31
0
0
ARC
5
241
100
AcDbEntity
8
0
100
AcDbCircle
10
-103.03836730000009
20
-16.025853499999947
30
0
40
0.42500000000003979
210
-0
220
0
230
1
100
AcDbArc
50
270.00000000000762
51
360
0
LINE
5
242
100
AcDbEntity
8
0
100
AcDbLine
10
-103.03836730000003
20
-16.450853499999987
30
0
11
-116.03836730000005
21
-16.450853500000019
31
0
0
ARC
5
243
100
AcDbEntity
8
0
100
AcDbCircle
10
-116.03836730000005
20
-16.025853500000018
30
0
40
0.42500000000000426
210
0
220
0
230
1
100
AcDbArc
50
180
51
270.00000000000193
0
LINE
5
244
100
AcDbEntity
8
0
100
AcDbLine
10
-116.46336730000004
20
-16.025853499999982
30
0
11
-116.46336730000002
21
-3.0258534999999753
31
0
0
ARC
5
245
100
AcDbEntity
8
0
100
AcDbCircle
10
-116.0383673
20
-3.0258534999999753
30
0
40
0.42500000000000426
210
0
220
0
230
1
100
AcDbArc
50
90.000000000005755
51
180
0
LINE
5
246
100
AcDbEntity
8
0
100
AcDbLine
10
-37.45711730000005
20
-2.6008534999999711
30
0
11
-24.457117300000029
21
-2.6008534999999728
31
0
0
ARC
5
247
100
AcDbEntity
8
0
100
AcDbCircle
10
-24.457117300000011
20
-3.0258534999999398
30
0
40
0.42499999999996874
210
-0
220
0
230
1
100
AcDbArc
50
0
51
90.000000000002416
0
LINE
5
248
100
AcDbEntity
8
0
100
AcDbLine
10
-24.032117300000042
20
-3.0258534999999753
30
0
11
-24.032117300000024
21
-16.025853499999982
31
0
0
ARC
5
249
100
AcDbEntity
8
0
100
AcDbCircle
10
-24.457117300000029
20
-16.025853499999982
30
0
40
0.42500000000000426
210
0
220
0
230
1
100
AcDbArc
50
-90.000000000002387
51
0
0
LINE
5
250
100
AcDbEntity
8
0
100
AcDbLine
10
-24.457117300000046
20
-16.450853499999987
30
0
11
-37.45711730000005
21
-16.450853499999948
31
0
0
ARC
5
251
100
AcDbEntity
8
0
100
AcDbCircle
10
-37.457117300000071
20
-16.025853499999982
30
0
40
0.4249999999999865
210
0
220
0
230
1
100
AcDbArc
50
180
51
270.00000000000284
0
LINE
5
252
100
AcDbEntity
8
0
100
AcDbLine
10
-37.882117300000061
20
-16.025853499999982
30
0
11
-37.882117300000061
21
-3.0258534999999753
31
0
0
ARC
5
253
100
AcDbEntity
8
0
100
AcDbCircle
10
-37.457117300000093
20
-3.0258534999999398
30
0
40
0.42499999999996874
210
0
220
-0
230
1
100
AcDbArc
50
89.999999999994273
51
180
0
LINE
5
254
100
AcDbEntity
8
0
100
AcDbLine
10
38.742882699999953
20
-2.6008534999999711
30
0
11
51.742882699999967
21
-2.6008534999999728
31
0
0
ARC
5
255
100
AcDbEntity
8
0
100
AcDbCircle
10
51.742882699999996
20
-3.0258534999999398
30
0
40
0.42499999999996874
210
-0
220
0
230
1
100
AcDbArc
50
0
51
90.000000000003837
0
LINE
5
256
100
AcDbEntity
8
0
100
AcDbLine
10
52.167882699999964
20
-3.0258534999999753
30
0
11
52.167882699999964
21
-16.025853499999982
31
0
0
ARC
5
257
100
AcDbEntity
8
0
100
AcDbCircle
10
51.742882700000038
20
-16.025853500000053
30
0
40
0.42499999999993321
210
0
220
0
230
1
100
AcDbArc
50
-90.000000000009578
51
0
0
LINE
5
258
100
AcDbEntity
8
0
100
AcDbLine
10
51.742882699999967
20
-16.450853499999987
30
0
11
38.742882699999953
21
-16.450853499999983
31
0
0
ARC
5
259
100
AcDbEntity
8
0
100
AcDbCircle
10
38.742882699999925
20
-16.025853500000018
30
0
40
0.42499999999996874
210
0
220
0
230
1
100
AcDbArc
50
180
51
270.00000000000381
0
LINE
5
260
100
AcDbEntity
8
0
100
AcDbLine
10
38.317882699999956
20
-16.025853499999982
30
0
11
38.317882699999956
21
-3.0258534999999753
31
0
0
ARC
5
261
100
AcDbEntity
8
0
100
AcDbCircle
10
38.742882699999925
20
-3.0258534999999398
30
0
40
0.42499999999996874
210
0
220
-0
230
1
100
AcDbArc
50
89.999999999996163
51
180
0
LINE
5
262
100
AcDbEntity
8
0
100
AcDbLine
10
97.849132699999956
20
-35.075853499999994
30
0
11
97.849132699999956
21
-22.075853499999987
31
0
0
ARC
5
263
100
AcDbEntity
8
0
100
AcDbCircle
10
98.274132699999925
20
-22.075853499999951
30
0
40
0.42499999999996874
210
0
220
-0
230
1
100
AcDbArc
50
89.999999999996163
51
180
0
LINE
5
264
100
AcDbEntity
8
0
100
AcDbLine
10
98.274132699999953
20
-21.650853499999982
30
0
11
111.27413269999997
21
-21.650853499999982
31
0
0
ARC
5
265
100
AcDbEntity
8
0
100
AcDbCircle
10
111.2741327
20
-22.075853499999951
30
0
40
0.42499999999996874
210
-0
220
0
230
1
100
AcDbArc
50
0
51
90.000000000003837
0
LINE
5
266
100
AcDbEntity
8
0
100
AcDbLine
10
111.69913269999996
20
-22.075853499999987
30
0
11
111.69913269999996
21
-35.075853500000029
31
0
0
ARC
5
267
100
AcDbEntity
8
0
100
AcDbCircle
10
111.27413270000004
20
-35.075853500000065
30
0
40
0.42499999999993321
210
0
220
0
230
1
100
AcDbArc
50
-90.000000000009578
51
0
0
LINE
5
268
100
AcDbEntity
8
0
100
AcDbLine
10
111.27413269999997
20
-35.500853499999998
30
0
11
98.274132699999953
21
-35.500853499999998
31
0
0
ARC
5
269
100
AcDbEntity
8
0
100
AcDbCircle
10
98.274132699999925
20
-35.075853500000029
30
0
40
0.42499999999996874
210
0
220
0
230
1
100
AcDbArc
50
180
51
270.00000000000381
0
LINE
5
270
100
AcDbEntity
8
0
100
AcDbLine
10
27.930382699999949
20
-35.500853499999998
30
0
11
14.93038269999996
21
-35.500853499999998
31
0
0
ARC
5
271
100
AcDbEntity
8
0
100
AcDbCircle
10
14.93038269999996
20
-35.075853499999994
30
0
40
0.42500000000000426
210
0
220
0
230
1
100
AcDbArc
50
180
51
270
0
LINE
5
272
100
AcDbEntity
8
0
100
AcDbLine
10
14.505382699999956
20
-35.075853499999994
30
0
11
14.505382699999958
21
-22.075853499999987
31
0
0
ARC
5
273
100
AcDbEntity
8
0
100
AcDbCircle
10
14.930382699999978
20
-22.075853499999987
30
0
40
0.42500000000000426
210
0
220
0
230
1
100
AcDbArc
50
90.000000000002416
51
180
0
LINE
5
274
100
AcDbEntity
8
0
100
AcDbLine
10
14.93038269999996
20
-21.650853499999982
30
0
11
27.930382699999949
21
-21.650853499999982
31
0
0
ARC
5
275
100
AcDbEntity
8
0
100
AcDbCircle
10
27.930382699999967
20
-22.075853499999987
30
0
40
0.4249999999999865
210
0
220
-0
230
1
100
AcDbArc
50
0
51
90.000000000002416
0
LINE
5
276
100
AcDbEntity
8
0
100
AcDbLine
10
28.355382699999954
20
-22.075853499999987
30
0
11
28.355382699999954
21
-35.075853499999994
31
0
0
ARC
5
277
100
AcDbEntity
8
0
100
AcDbCircle
10
27.930382699999985
20
-35.075853500000029
30
0
40
0.42499999999996874
210
0
220
0
230
1
100
AcDbArc
50
-90.000000000004775
51
0
0
ARC
5
278
100
AcDbEntity
8
0
100
AcDbCircle
10
-48.269617300000043
20
-35.075853499999958
30
0
40
0.42500000000000426
210
-0
220
0
230
1
100
AcDbArc
50
270
51
360
0
LINE
5
279
100
AcDbEntity
8
0
100
AcDbLine
10
-47.844617300000039
20
-22.075853499999987
30
0
11
-47.844617300000039
21
-35.075853499999994
31
0
0
ARC
5
280
100
AcDbEntity
8
0
100
AcDbCircle
10
-48.269617300000043
20
-22.075853499999987
30
0
40
0.42500000000000426
210
0
220
-0
230
1
100
AcDbArc
50
0
51
90
0
LINE
5
281
100
AcDbEntity
8
0
100
AcDbLine
10
-61.269617300000043
20
-21.650853499999982
30
0
11
-48.269617300000043
21
-21.650853499999982
31
0
0
ARC
5
282
100
AcDbEntity
8
0
100
AcDbCircle
10
-61.269617300000007
20
-22.075853499999987
30
0
40
0.42500000000000426
210
0
220
0
230
1
100
AcDbArc
50
90.000000000004803
51
180
0
LINE
5
283
100
AcDbEntity
8
0
100
AcDbLine
10
-61.694617300000047
20
-35.075853499999994
30
0
11
-61.694617300000012
21
-22.075853499999987
31
0
0
ARC
5
284
100
AcDbEntity
8
0
100
AcDbCircle
10
-61.26961730000005
20
-35.075853500000029
30
0
40
0.42499999999999538
210
0
220
0
230
1
100
AcDbArc
50
180
51
270.00000000000097
0
LINE
5
285
100
AcDbEntity
8
0
100
AcDbLine
10
-48.269617300000043
20
-35.500853499999963
30
0
11
-61.269617300000043
21
-35.500853500000034
31
0
0
ARC
5
286
100
AcDbEntity
8
0
100
AcDbCircle
10
-105.4196173
20
-22.075853499999951
30
0
40
0.42499999999996874
210
-0
220
0
230
1
100
AcDbArc
50
0
51
90.000000000003837
0
LINE
5
287
100
AcDbEntity
8
0
100
AcDbLine
10
-118.41961730000006
20
-21.650853499999982
30
0
11
-105.41961730000004
21
-21.650853499999982
31
0
0
ARC
5
288
100
AcDbEntity
8
0
100
AcDbCircle
10
-118.41961730000001
20
-22.075853499999987
30
0
40
0.42500000000000426
210
0
220
0
230
1
100
AcDbArc
50
90.000000000005755
51
180
0
LINE
5
289
100
AcDbEntity
8
0
100
AcDbLine
10
-118.84461730000005
20
-35.075853499999994
30
0
11
-118.84461730000001
21
-22.075853499999987
31
0
0
ARC
5
290
100
AcDbEntity
8
0
100
AcDbCircle
10
-118.41961730000006
20
-35.075853500000029
30
0
40
0.4249999999999865
210
0
220
0
230
1
100
AcDbArc
50
180
51
270.00000000000381
0
LINE
5
291
100
AcDbEntity
8
0
100
AcDbLine
10
-105.41961730000004
20
-35.500853499999998
30
0
11
-118.41961730000006
21
-35.500853500000034
31
0
0
ARC
5
292
100
AcDbEntity
8
0
100
AcDbCircle
10
-105.41961730000008
20
-35.075853499999958
30
0
40
0.42500000000003979
210
-0
220
0
230
1
100
AcDbArc
50
270.00000000000574
51
360
0
LINE
5
293
100
AcDbEntity
8
0
100
AcDbLine
10
-104.99461730000004
20
-22.075853499999987
30
0
11
-104.99461730000004
21
-35.075853499999994
31
0
0
LINE
5
294
100
AcDbEntity
8
0
100
AcDbLine
10
-29.219617300000049
20
-35.500853499999998
30
0
11
-42.219617300000053
21
-35.500853499999963
31
0
0
ARC
5
295
100
AcDbEntity
8
0
100
AcDbCircle
10
-42.219617300000074
20
-35.075853499999994
30
0
40
0.4249999999999865
210
0
220
0
230
1
100
AcDbArc
50
180
51
270.00000000000284
0
LINE
5
296
100
AcDbEntity
8
0
100
AcDbLine
10
-42.644617300000064
20
-35.075853499999994
30
0
11
-42.644617300000043
21
-22.075853499999951
31
0
0
ARC
5
297
100
AcDbEntity
8
0
100
AcDbCircle
10
-42.219617300000039
20
-22.075853499999987
30
0
40
0.42500000000000426
210
0
220
0
230
1
100
AcDbArc
50
90.000000000001918
51
180
0
LINE
5
298
100
AcDbEntity
8
0
100
AcDbLine
10
-42.219617300000053
20
-21.650853499999982
30
0
11
-29.219617300000031
21
-21.650853499999982
31
0
0
ARC
5
299
100
AcDbEntity
8
0
100
AcDbCircle
10
-29.219617300000014
20
-22.075853499999951
30
0
40
0.42499999999996874
210
-0
220
0
230
1
100
AcDbArc
50
0
51
90.000000000002416
0
LINE
5
300
100
AcDbEntity
8
0
100
AcDbLine
10
-28.794617300000045
20
-22.075853499999987
30
0
11
-28.794617300000027
21
-35.075853499999994
31
0
0
ARC
5
301
100
AcDbEntity
8
0
100
AcDbCircle
10
-29.219617300000031
20
-35.075853499999994
30
0
40
0.42500000000000426
210
0
220
0
230
1
100
AcDbArc
50
-90.000000000002387
51
0
0
ARC
5
302
100
AcDbEntity
8
0
100
AcDbCircle
10
46.980382700000035
20
-35.075853500000065
30
0
40
0.42499999999993321
210
0
220
0
230
1
100
AcDbArc
50
-90.000000000009578
51
0
0
LINE
5
303
100
AcDbEntity
8
0
100
AcDbLine
10
47.405382699999961
20
-22.075853499999987
30
0
11
47.405382699999961
21
-35.075853500000029
31
0
0
ARC
5
304
100
AcDbEntity
8
0
100
AcDbCircle
10
46.980382699999993
20
-22.075853499999951
30
0
40
0.42499999999996874
210
-0
220
0
230
1
100
AcDbArc
50
0
51
90.000000000003837
0
LINE
5
305
100
AcDbEntity
8
0
100
AcDbLine
10
33.980382699999993
20
-21.650853499999982
30
0
11
46.980382699999964
21
-21.650853499999982
31
0
0
ARC
5
306
100
AcDbEntity
8
0
100
AcDbCircle
10
33.98038269999995
20
-22.075853499999951
30
0
40
0.42499999999996874
210
0
220
-0
230
1
100
AcDbArc
50
89.999999999994273
51
180
0
LINE
5
307
100
AcDbEntity
8
0
100
AcDbLine
10
33.555382699999981
20
-35.075853499999994
30
0
11
33.555382699999981
21
-22.075853499999987
31
0
0
ARC
5
308
100
AcDbEntity
8
0
100
AcDbCircle
10
33.980382699999922
20
-35.075853500000065
30
0
40
0.42499999999993321
210
0
220
0
230
1
100
AcDbArc
50
180
51
270.00000000000381
0
LINE
5
309
100
AcDbEntity
8
0
100
AcDbLine
10
46.980382699999964
20
-35.500853499999998
30
0
11
33.98038269999995
21
-35.500853499999998
31
0
0
LINE
5
310
100
AcDbEntity
8
0
100
AcDbLine
10
100.65538269999996
20
-2.6008534999999711
30
0
11
113.65538269999996
21
-2.6008534999999728
31
0
0
ARC
5
311
100
AcDbEntity
8
0
100
AcDbCircle
10
113.6553827
20
-3.0258534999999398
30
0
40
0.42499999999996874
210
-0
220
0
230
1
100
AcDbArc
50
0
51
90.000000000005755
0
LINE
5
312
100
AcDbEntity
8
0
100
AcDbLine
10
114.08038269999997
20
-3.0258534999999753
30
0
11
114.08038269999997
21
-16.025853499999982
31
0
0
ARC
5
313
100
AcDbEntity
8
0
100
AcDbCircle
10
113.6553827
20
-16.025853500000018
30
0
40
0.42499999999996874
210
0
220
0
230
1
100
AcDbArc
50
-90.000000000005755
51
0
0
LINE
5
314
100
AcDbEntity
8
0
100
AcDbLine
10
113.65538269999996
20
-16.450853499999987
30
0
11
100.65538269999996
21
-16.450853499999983
31
0
0
ARC
5
315
100
AcDbEntity
8
0
100
AcDbCircle
10
100.65538269999989
20
-16.025853500000053
30
0
40
0.42499999999993321
210
0
220
0
230
1
100
AcDbArc
50
180
51
270.00000000000961
0
LINE
5
316
100
AcDbEntity
8
0
100
AcDbLine
10
100.23038269999995
20
-16.025853499999982
30
0
11
100.23038269999995
21
-3.0258534999999753
31
0
0
ARC
5
317
100
AcDbEntity
8
0
100
AcDbCircle
10
100.65538269999992
20
-3.0258534999999398
30
0
40
0.42499999999996874
210
0
220
-0
230
1
100
AcDbArc
50
89.999999999994273
51
180
0
LINE
5
318
100
AcDbEntity
8
0
100
AcDbLine
10
33.117882699999953
20
-3.0258534999999753
30
0
11
33.117882699999953
21
-16.025853499999982
31
0
0
ARC
5
319
100
AcDbEntity
8
0
100
AcDbCircle
10
32.692882700000027
20
-16.025853500000053
30
0
40
0.42499999999993321
210
0
220
0
230
1
100
AcDbArc
50
-90.000000000009578
51
0
0
LINE
5
320
100
AcDbEntity
8
0
100
AcDbLine
10
32.692882699999956
20
-16.450853499999987
30
0
11
19.692882699999945
21
-16.450853499999983
31
0
0
ARC
5
321
100
AcDbEntity
8
0
100
AcDbCircle
10
19.69288269999991
20
-16.025853500000018
30
0
40
0.42499999999996874
210
0
220
0
230
1
100
AcDbArc
50
180
51
270.00000000000477
0
LINE
5
322
100
AcDbEntity
8
0
100
AcDbLine
10
19.267882699999941
20
-16.025853499999982
30
0
11
19.267882699999927
21
-3.0258534999999753
31
0
0
ARC
5
323
100
AcDbEntity
8
0
100
AcDbCircle
10
19.692882699999927
20
-3.0258534999999753
30
0
40
0.42500000000000426
210
0
220
-0
230
1
100
AcDbArc
50
89.999999999997613
51
180
0
LINE
5
324
100
AcDbEntity
8
0
100
AcDbLine
10
19.692882699999945
20
-2.6008534999999711
30
0
11
32.692882699999956
21
-2.6008534999999728
31
0
0
ARC
5
325
100
AcDbEntity
8
0
100
AcDbCircle
10
32.692882699999984
20
-3.0258534999999398
30
0
40
0.42499999999996874
210
-0
220
0
230
1
100
AcDbArc
50
0
51
90.000000000003837
0
ARC
5
326
100
AcDbEntity
8
0
100
AcDbCircle
10
-56.507117300000004
20
-3.0258534999999753
30
0
40
0.42500000000000426
210
0
220
0
230
1
100
AcDbArc
50
90.000000000003837
51
180
0
LINE
5
327
100
AcDbEntity
8
0
100
AcDbLine
10
-56.93211730000003
20
-16.025853499999982
30
0
11
-56.932117300000023
21
-3.0258534999999753
31
0
0
ARC
5
328
100
AcDbEntity
8
0
100
AcDbCircle
10
-56.507117300000047
20
-16.025853500000018
30
0
40
0.4249999999999865
210
0
220
0
230
1
100
AcDbArc
50
180
51
270.00000000000097
0
LINE
5
329
100
AcDbEntity
8
0
100
AcDbLine
10
-43.50711730000004
20
-16.450853499999951
30
0
11
-56.50711730000004
21
-16.450853500000019
31
0
0
ARC
5
330
100
AcDbEntity
8
0
100
AcDbCircle
10
-43.50711730000004
20
-16.025853499999947
30
0
40
0.42500000000000426
210
-0
220
0
230
1
100
AcDbArc
50
270
51
360
0
LINE
5
331
100
AcDbEntity
8
0
100
AcDbLine
10
-43.08211730000005
20
-3.0258534999999753
30
0
11
-43.082117300000071
21
-16.025853499999982
31
0
0
ARC
5
332
100
AcDbEntity
8
0
100
AcDbCircle
10
-43.50711730000004
20
-3.0258534999999753
30
0
40
0.4249999999999865
210
0
220
-0
230
1
100
AcDbArc
50
0
51
90
0
LINE
5
333
100
AcDbEntity
8
0
100
AcDbLine
10
-56.507117300000033
20
-2.6008534999999711
30
0
11
-43.50711730000004
21
-2.6008534999999728
31
0
0
LINE
5
334
100
AcDbEntity
8
0
100
AcDbLine
10
-111.70086730000006
20
3.0241465000000289
30
0
11
-111.70086730000008
21
16.024146500000036
31
0
0
ARC
5
335
100
AcDbEntity
8
0
100
AcDbCircle
10
-111.27586730000007
20
16.024146500000036
30
0
40
0.42500000000000426
210
0
220
-0
230
1
100
AcDbArc
50
89.999999999996163
51
180
0
LINE
5
336
100
AcDbEntity
8
0
100
AcDbLine
10
-111.27586730000004
20
16.449146500000005
30
0
11
-98.275867300000044
21
16.44914649999993
31
0
0
ARC
5
337
100
AcDbEntity
8
0
100
AcDbCircle
10
-98.275867300000016
20
16.024146499999965
30
0
40
0.4249999999999865
210
0
220
-0
230
1
100
AcDbArc
50
0
51
90.000000000003837
0
LINE
5
338
100
AcDbEntity
8
0
100
AcDbLine
10
-97.850867300000033
20
16.024146500000001
30
0
11
-97.850867300000061
21
3.0241464999999934
31
0
0
ARC
5
339
100
AcDbEntity
8
0
100
AcDbCircle
10
-98.275867300000044
20
3.0241464999999934
30
0
40
0.42499999999996874
210
-0
220
0
230
1
100
AcDbArc
50
-90
51
0
0
LINE
5
340
100
AcDbEntity
8
0
100
AcDbLine
10
-98.275867300000044
20
2.5991465000000247
30
0
11
-111.27586730000004
21
2.5991464999999909
31
0
0
ARC
5
341
100
AcDbEntity
8
0
100
AcDbCircle
10
-111.27586730000006
20
3.0241464999999934
30
0
40
0.4249999999999865
210
0
220
0
230
1
100
AcDbArc
50
180
51
270.00000000000193
0
LINE
5
342
100
AcDbEntity
8
0
100
AcDbLine
10
-28.357117300000052
20
3.0241465000000289
30
0
11
-28.357117300000034
21
16.024146500000036
31
0
0
ARC
5
343
100
AcDbEntity
8
0
100
AcDbCircle
10
-27.932117300000083
20
16.024146500000036
30
0
40
0.42499999999993321
210
0
220
-0
230
1
100
AcDbArc
50
89.999999999995211
51
180
0
LINE
5
344
100
AcDbEntity
8
0
100
AcDbLine
10
-27.932117300000048
20
16.449146499999934
30
0
11
-14.932117300000041
21
16.449146500000001
31
0
0
ARC
5
345
100
AcDbEntity
8
0
100
AcDbCircle
10
-14.932117299999987
20
16.024146500000001
30
0
40
0.42499999999995097
210
0
220
-0
230
1
100
AcDbArc
50
0
51
90.000000000007191
0
LINE
5
346
100
AcDbEntity
8
0
100
AcDbLine
10
-14.507117300000036
20
16.024146500000001
30
0
11
-14.507117300000038
21
3.0241465000000289
31
0
0
ARC
5
347
100
AcDbEntity
8
0
100
AcDbCircle
10
-14.932117300000023
20
3.0241465000000289
30
0
40
0.42500000000000426
210
0
220
0
230
1
100
AcDbArc
50
-90.000000000002387
51
0
0
LINE
5
348
100
AcDbEntity
8
0
100
AcDbLine
10
-14.932117300000041
20
2.5991465000000247
30
0
11
-27.932117300000048
21
2.599146500000062
31
0
0
ARC
5
349
100
AcDbEntity
8
0
100
AcDbCircle
10
-27.932117300000066
20
3.0241465000000289
30
0
40
0.4249999999999865
210
0
220
0
230
1
100
AcDbArc
50
180
51
270.00000000000239
0
ARC
5
350
100
AcDbEntity
8
0
100
AcDbCircle
10
48.267882699999959
20
16.024146500000001
30
0
40
0.42500000000000426
210
0
220
-0
230
1
100
AcDbArc
50
90
51
180
0
LINE
5
351
100
AcDbEntity
8
0
100
AcDbLine
10
47.842882699999961
20
3.0241465000000289
30
0
11
47.842882699999961
21
16.024146500000001
31
0
0
ARC
5
352
100
AcDbEntity
8
0
100
AcDbCircle
10
48.26788269999993
20
3.0241464999999934
30
0
40
0.42499999999996874
210
0
220
0
230
1
100
AcDbArc
50
180
51
270.00000000000381
0
LINE
5
353
100
AcDbEntity
8
0
100
AcDbLine
10
61.267882699999973
20
2.5991465000000247
30
0
11
48.267882699999959
21
2.5991465000000264
31
0
0
ARC
5
354
100
AcDbEntity
8
0
100
AcDbCircle
10
61.267882700000044
20
3.0241464999999579
30
0
40
0.42499999999993321
210
0
220
0
230
1
100
AcDbArc
50
-90.000000000009578
51
0
0
LINE
5
355
100
AcDbEntity
8
0
100
AcDbLine
10
61.69288269999997
20
16.024146500000001
30
0
11
61.69288269999997
21
3.0241464999999934
31
0
0
ARC
5
356
100
AcDbEntity
8
0
100
AcDbCircle
10
61.267882699999973
20
16.024146500000001
30
0
40
0.42500000000000426
210
0
220
-0
230
1
100
AcDbArc
50
0
51
90
0
LINE
5
357
100
AcDbEntity
8
0
100
AcDbLine
10
48.267882699999959
20
16.449146500000005
30
0
11
61.267882699999973
21
16.449146500000001
31
0
0
LINE
5
358
100
AcDbEntity
8
0
100
AcDbLine
10
23.167882699999964
20
21.649146500000036
30
0
11
10.167882699999975
21
21.649146500000036
31
0
0
ARC
5
359
100
AcDbEntity
8
0
100
AcDbCircle
10
10.167882699999922
20
22.074146500000005
30
0
40
0.42499999999996874
210
0
220
0
230
1
100
AcDbArc
50
180
51
270.00000000000716
0
LINE
5
360
100
AcDbEntity
8
0
100
AcDbLine
10
9.7428826999999529
20
22.074146500000005
30
0
11
9.7428826999999547
21
35.074146499999976
31
0
0
ARC
5
361
100
AcDbEntity
8
0
100
AcDbCircle
10
10.167882699999922
20
35.074146499999976
30
0
40
0.42499999999996874
210
0
220
-0
230
1
100
AcDbArc
50
89.999999999992824
51
180
0
LINE
5
362
100
AcDbEntity
8
0
100
AcDbLine
10
10.167882699999975
20
35.499146499999945
30
0
11
23.167882699999964
21
35.499146499999945
31
0
0
ARC
5
363
100
AcDbEntity
8
0
100
AcDbCircle
10
23.167882699999982
20
35.074146499999976
30
0
40
0.42500000000000426
210
0
220
-0
230
1
100
AcDbArc
50
0
51
90.000000000002416
0
LINE
5
364
100
AcDbEntity
8
0
100
AcDbLine
10
23.592882699999986
20
35.074146499999976
30
0
11
23.592882699999986
21
22.074146500000005
31
0
0
ARC
5
365
100
AcDbEntity
8
0
100
AcDbCircle
10
23.167882699999982
20
22.074146500000005
30
0
40
0.42499999999996874
210
0
220
0
230
1
100
AcDbArc
50
-90.000000000002387
51
0
0
LINE
5
366
100
AcDbEntity
8
0
100
AcDbLine
10
-38.751367300000048
20
35.499146499999945
30
0
11
-32.751367300000034
21
35.499146500000016
31
0
0
ARC
5
367
100
AcDbEntity
8
0
100
AcDbCircle
10
-32.751367300000013
20
35.074146499999976
30
0
40
0.42500000000000426
210
0
220
-0
230
1
100
AcDbArc
50
0
51
90.000000000002885
0
LINE
5
368
100
AcDbEntity
8
0
100
AcDbLine
10
-32.326367300000015
20
35.074146499999976
30
0
11
-32.32636730000003
21
21.074146500000062
31
0
0
ARC
5
369
100
AcDbEntity
8
0
100
AcDbCircle
10
-32.751367300000013
20
21.074146500000062
30
0
40
0.42499999999996874
210
0
220
0
230
1
100
AcDbArc
50
-90.000000000002842
51
0
0
LINE
5
370
100
AcDbEntity
8
0
100
AcDbLine
10
-32.751367300000034
20
20.649146500000093
30
0
11
-38.751367300000048
21
20.649146500000093
31
0
0
ARC
5
371
100
AcDbEntity
8
0
100
AcDbCircle
10
-38.751367300000069
20
21.074146500000062
30
0
40
0.42500000000000426
210
0
220
0
230
1
100
AcDbArc
50
180
51
270.00000000000284
0
LINE
5
372
100
AcDbEntity
8
0
100
AcDbLine
10
-39.176367300000067
20
21.074146500000062
30
0
11
-39.176367300000067
21
35.074146499999976
31
0
0
ARC
5
373
100
AcDbEntity
8
0
100
AcDbCircle
10
-38.751367300000069
20
35.074146499999976
30
0
40
0.42499999999996874
210
0
220
-0
230
1
100
AcDbArc
50
89.999999999997129
51
180
0
LINE
5
374
100
AcDbEntity
8
0
100
AcDbLine
10
-8.8753673000000433
20
20.649146500000093
30
0
11
-14.87536730000004
21
20.649146500000022
31
0
0
ARC
5
375
100
AcDbEntity
8
0
100
AcDbCircle
10
-14.875367300000093
20
21.074146500000062
30
0
40
0.42499999999995097
210
0
220
0
230
1
100
AcDbArc
50
180
51
270.00000000000716
0
LINE
5
376
100
AcDbEntity
8
0
100
AcDbLine
10
-15.300367300000044
20
21.074146500000062
30
0
11
-15.300367300000042
21
35.074146499999976
31
0
0
ARC
5
377
100
AcDbEntity
8
0
100
AcDbCircle
10
-14.875367300000093
20
35.074146499999976
30
0
40
0.42499999999996874
210
0
220
-0
230
1
100
AcDbArc
50
89.999999999992824
51
180
0
LINE
5
378
100
AcDbEntity
8
0
100
AcDbLine
10
-14.87536730000004
20
35.499146499999945
30
0
11
-8.8753673000000433
21
35.499146500000016
31
0
0
ARC
5
379
100
AcDbEntity
8
0
100
AcDbCircle
10
-8.8753673000000255
20
35.074146499999976
30
0
40
0.4249999999999865
210
0
220
-0
230
1
100
AcDbArc
50
0
51
90.000000000002416
0
LINE
5
380
100
AcDbEntity
8
0
100
AcDbLine
10
-8.450367300000039
20
35.074146499999976
30
0
11
-8.4503673000000585
21
21.074146500000062
31
0
0
ARC
5
381
100
AcDbEntity
8
0
100
AcDbCircle
10
-8.8753673000000255
20
21.074146500000062
30
0
40
0.42499999999996874
210
0
220
0
230
1
100
AcDbArc
50
-90.000000000002387
51
0
0
LINE
5
382
100
AcDbEntity
8
0
100
AcDbLine
10
86.367882699999953
20
16.449146499999934
30
0
11
99.367882699999953
21
16.449146500000001
31
0
0
ARC
5
383
100
AcDbEntity
8
0
100
AcDbCircle
10
99.367882699999953
20
16.024146500000001
30
0
40
0.42500000000000426
210
0
220
-0
230
1
100
AcDbArc
50
0
51
90
0
LINE
5
384
100
AcDbEntity
8
0
100
AcDbLine
10
99.792882699999964
20
16.024146500000001
30
0
11
99.792882699999964
21
3.0241464999999934
31
0
0
ARC
5
385
100
AcDbEntity
8
0
100
AcDbCircle
10
99.367882699999925
20
3.0241465000000645
30
0
40
0.42500000000003979
210
-0
220
0
230
1
100
AcDbArc
50
270.00000000000381
51
360
0
LINE
5
386
100
AcDbEntity
8
0
100
AcDbLine
10
99.367882699999953
20
2.5991465000000247
30
0
11
86.367882699999953
21
2.5991465000000264
31
0
0
ARC
5
387
100
AcDbEntity
8
0
100
AcDbCircle
10
86.367882699999882
20
3.0241464999999579
30
0
40
0.42499999999993321
210
0
220
0
230
1
100
AcDbArc
50
180
51
270.00000000000961
0
LINE
5
388
100
AcDbEntity
8
0
100
AcDbLine
10
85.942882699999942
20
3.0241465000000289
30
0
11
85.942882699999984
21
16.024146500000036
31
0
0
ARC
5
389
100
AcDbEntity
8
0
100
AcDbCircle
10
86.367882699999953
20
16.024146499999965
30
0
40
0.42499999999996874
210
0
220
-0
230
1
100
AcDbArc
50
90
51
180
0
ARC
5
390
100
AcDbEntity
8
0
100
AcDbCircle
10
23.167882699999964
20
3.0241465000000289
30
0
40
0.42500000000003979
210
-0
220
0
230
1
100
AcDbArc
50
-90
51
0
0
LINE
5
391
100
AcDbEntity
8
0
100
AcDbLine
10
23.592882699999986
20
16.024146500000001
30
0
11
23.592882699999986
21
3.0241465000000289
31
0
0
ARC
5
392
100
AcDbEntity
8
0
100
AcDbCircle
10
23.167882699999911
20
16.024146499999965
30
0
40
0.42500000000007532
210
0
220
-0
230
1
100
AcDbArc
50
0
51
89.999999999992824
0
LINE
5
393
100
AcDbEntity
8
0
100
AcDbLine
10
10.167882699999975
20
16.449146499999934
30
0
11
23.167882699999964
21
16.449146500000001
31
0
0
ARC
5
394
100
AcDbEntity
8
0
100
AcDbCircle
10
10.167882699999939
20
16.024146500000036
30
0
40
0.42499999999993321
210
0
220
-0
230
1
100
AcDbArc
50
89.999999999995211
51
180
0
LINE
5
395
100
AcDbEntity
8
0
100
AcDbLine
10
9.7428826999999529
20
3.0241465000000289
30
0
11
9.7428826999999547
21
16.024146500000036
31
0
0
ARC
5
396
100
AcDbEntity
8
0
100
AcDbCircle
10
10.167882699999957
20
3.0241465000000289
30
0
40
0.42500000000000426
210
0
220
0
230
1
100
AcDbArc
50
180
51
270.00000000000239
0
LINE
5
397
100
AcDbEntity
8
0
100
AcDbLine
10
23.167882699999964
20
2.5991464999999891
30
0
11
10.167882699999975
21
2.5991464999999909
31
0
0
ARC
5
398
100
AcDbEntity
8
0
100
AcDbCircle
10
-66.032117300000053
20
3.0241464999999934
30
0
40
0.4249999999999865
210
0
220
0
230
1
100
AcDbArc
50
180
51
270.00000000000193
0
LINE
5
399
100
AcDbEntity
8
0
100
AcDbLine
10
-53.032117300000046
20
2.5991465000000247
30
0
11
-66.032117300000039
21
2.5991464999999909
31
0
0
ARC
5
400
100
AcDbEntity
8
0
100
AcDbCircle
10
-53.032117300000046
20
3.0241464999999934
30
0
40
0.42499999999996874
210
-0
220
0
230
1
100
AcDbArc
50
-90
51
0
0
LINE
5
401
100
AcDbEntity
8
0
100
AcDbLine
10
-52.607117300000041
20
16.024146500000001
30
0
11
-52.607117300000077
21
3.0241464999999934
31
0
0
ARC
5
402
100
AcDbEntity
8
0
100
AcDbCircle
10
-53.032117300000024
20
16.024146499999965
30
0
40
0.4249999999999865
210
0
220
-0
230
1
100
AcDbArc
50
0
51
90.000000000001918
0
LINE
5
403
100
AcDbEntity
8
0
100
AcDbLine
10
-66.032117300000039
20
16.449146499999934
30
0
11
-53.032117300000039
21
16.44914649999993
31
0
0
ARC
5
404
100
AcDbEntity
8
0
100
AcDbCircle
10
-66.032117300000053
20
16.024146500000001
30
0
40
0.42499999999996874
210
0
220
-0
230
1
100
AcDbArc
50
89.999999999998082
51
180
0
LINE
5
405
100
AcDbEntity
8
0
100
AcDbLine
10
-66.457117300000036
20
3.0241465000000289
30
0
11
-66.457117300000021
21
16.024146500000001
31
0
0
LINE
5
406
100
AcDbEntity
8
0
100
AcDbLine
10
-81.182117300000016
20
-3.0258534999999753
30
0
11
-81.182117300000016
21
-16.025853499999982
31
0
0
ARC
5
407
100
AcDbEntity
8
0
100
AcDbCircle
10
-81.607117300000027
20
-16.025853500000018
30
0
40
0.42499999999996874
210
0
220
0
230
1
100
AcDbArc
50
-90.000000000001933
51
0
0
LINE
5
408
100
AcDbEntity
8
0
100
AcDbLine
10
-81.607117300000041
20
-16.450853499999987
30
0
11
-94.607117300000027
21
-16.450853499999983
31
0
0
ARC
5
409
100
AcDbEntity
8
0
100
AcDbCircle
10
-94.607117300000056
20
-16.025853499999982
30
0
40
0.42500000000000426
210
0
220
0
230
1
100
AcDbArc
50
180
51
270
0
LINE
5
410
100
AcDbEntity
8
0
100
AcDbLine
10
-95.032117300000053
20
-16.025853499999982
30
0
11
-95.032117300000024
21
-3.0258534999999753
31
0
0
ARC
5
411
100
AcDbEntity
8
0
100
AcDbCircle
10
-94.607117300000013
20
-3.0258534999999753
30
0
40
0.42500000000000426
210
0
220
0
230
1
100
AcDbArc
50
90.000000000001918
51
180
0
LINE
5
412
100
AcDbEntity
8
0
100
AcDbLine
10
-94.607117300000027
20
-2.6008534999999711
30
0
11
-81.607117300000041
21
-2.6008534999999728
31
0
0
ARC
5
413
100
AcDbEntity
8
0
100
AcDbCircle
10
-81.607117300000013
20
-3.0258534999999398
30
0
40
0.4249999999999865
210
-0
220
0
230
1
100
AcDbArc
50
0
51
90.000000000003837
0
ARC
5
414
100
AcDbEntity
8
0
100
AcDbCircle
10
-18.40711730000006
20
-16.025853499999982
30
0
40
0.4249999999999865
210
0
220
0
230
1
100
AcDbArc
50
180
51
270.00000000000239
0
LINE
5
415
100
AcDbEntity
8
0
100
AcDbLine
10
-5.4071173000000528
20
-16.450853499999987
30
0
11
-18.407117300000042
21
-16.450853499999948
31
0
0
ARC
5
416
100
AcDbEntity
8
0
100
AcDbCircle
10
-5.4071173000000705
20
-16.025853499999982
30
0
40
0.42500000000000426
210
-0
220
0
230
1
100
AcDbArc
50
-89.999999999997613
51
0
0
LINE
5
417
100
AcDbEntity
8
0
100
AcDbLine
10
-4.9821173000000485
20
-3.0258534999999753
30
0
11
-4.982117300000068
21
-16.025853499999982
31
0
0
ARC
5
418
100
AcDbEntity
8
0
100
AcDbCircle
10
-5.4071173000000528
20
-3.0258534999999753
30
0
40
0.42500000000000426
210
0
220
-0
230
1
100
AcDbArc
50
0
51
90
0
LINE
5
419
100
AcDbEntity
8
0
100
AcDbLine
10
-18.407117300000042
20
-2.6008534999999711
30
0
11
-5.4071173000000528
21
-2.6008534999999728
31
0
0
ARC
5
420
100
AcDbEntity
8
0
100
AcDbCircle
10
-18.407117300000078
20
-3.0258534999999398
30
0
40
0.42499999999996874
210
0
220
-0
230
1
100
AcDbArc
50
89.999999999995211
51
180
0
LINE
5
421
100
AcDbEntity
8
0
100
AcDbLine
10
-18.832117300000046
20
-16.025853499999982
30
0
11
-18.832117300000043
21
-3.0258534999999753
31
0
0
ARC
5
422
100
AcDbEntity
8
0
100
AcDbCircle
10
70.79288270000005
20
-16.025853500000053
30
0
40
0.42499999999993321
210
0
220
0
230
1
100
AcDbArc
50
-90.000000000009578
51
0
0
LINE
5
423
100
AcDbEntity
8
0
100
AcDbLine
10
71.217882699999976
20
-3.0258534999999753
30
0
11
71.217882699999976
21
-16.025853500000018
31
0
0
ARC
5
424
100
AcDbEntity
8
0
100
AcDbCircle
10
70.792882700000007
20
-3.0258534999999398
30
0
40
0.42499999999996874
210
-0
220
0
230
1
100
AcDbArc
50
0
51
90.000000000003837
0
LINE
5
425
100
AcDbEntity
8
0
100
AcDbLine
10
57.792882699999964
20
-2.6008534999999711
30
0
11
70.792882699999979
21
-2.6008534999999728
31
0
0
ARC
5
426
100
AcDbEntity
8
0
100
AcDbCircle
10
57.792882699999936
20
-3.0258534999999398
30
0
40
0.42499999999996874
210
0
220
-0
230
1
100
AcDbArc
50
89.999999999996163
51
180
0
LINE
5
427
100
AcDbEntity
8
0
100
AcDbLine
10
57.367882699999967
20
-16.025853499999982
30
0
11
57.367882699999967
21
-3.0258534999999753
31
0
0
ARC
5
428
100
AcDbEntity
8
0
100
AcDbCircle
10
57.792882699999936
20
-16.025853500000018
30
0
40
0.42499999999996874
210
0
220
0
230
1
100
AcDbArc
50
180
51
270.00000000000381
0
LINE
5
429
100
AcDbEntity
8
0
100
AcDbLine
10
70.792882699999979
20
-16.450853499999987
30
0
11
57.792882699999964
21
-16.450853499999983
31
0
0
ARC
5
430
100
AcDbEntity
8
0
100
AcDbCircle
10
72.080382699999944
20
-22.075853499999951
30
0
40
0.42499999999996874
210
0
220
-0
230
1
100
AcDbArc
50
89.999999999996163
51
180
0
LINE
5
431
100
AcDbEntity
8
0
100
AcDbLine
10
71.655382699999976
20
-35.075853499999994
30
0
11
71.655382699999976
21
-22.075853499999987
31
0
0
ARC
5
432
100
AcDbEntity
8
0
100
AcDbCircle
10
72.080382699999944
20
-35.075853500000029
30
0
40
0.42499999999996874
210
0
220
0
230
1
100
AcDbArc
50
180
51
270.00000000000381
0
LINE
5
433
100
AcDbEntity
8
0
100
AcDbLine
10
85.080382699999987
20
-35.500853499999998
30
0
11
72.080382699999973
21
-35.500853499999998
31
0
0
ARC
5
434
100
AcDbEntity
8
0
100
AcDbCircle
10
85.080382700000058
20
-35.075853500000065
30
0
40
0.42499999999993321
210
0
220
0
230
1
100
AcDbArc
50
-90.000000000009578
51
0
0
LINE
5
435
100
AcDbEntity
8
0
100
AcDbLine
10
85.505382699999984
20
-22.075853499999987
30
0
11
85.505382699999984
21
-35.075853499999994
31
0
0
ARC
5
436
100
AcDbEntity
8
0
100
AcDbCircle
10
85.080382700000015
20
-22.075853499999951
30
0
40
0.42499999999996874
210
-0
220
0
230
1
100
AcDbArc
50
0
51
90.000000000003837
0
LINE
5
437
100
AcDbEntity
8
0
100
AcDbLine
10
72.080382699999973
20
-21.650853499999982
30
0
11
85.080382699999987
21
-21.650853499999982
31
0
0
LINE
5
438
100
AcDbEntity
8
0
100
AcDbLine
10
-4.5446173000000378
20
-35.075853499999994
30
0
11
-4.5446173000000361
21
-22.075853499999987
31
0
0
ARC
5
439
100
AcDbEntity
8
0
100
AcDbCircle
10
-4.1196173000000691
20
-22.075853499999951
30
0
40
0.42499999999996874
210
0
220
-0
230
1
100
AcDbArc
50
89.999999999995211
51
180
0
LINE
5
440
100
AcDbEntity
8
0
100
AcDbLine
10
-4.1196173000000336
20
-21.650853499999982
30
0
11
8.8803826999999558
21
-21.650853499999982
31
0
0
ARC
5
441
100
AcDbEntity
8
0
100
AcDbCircle
10
8.8803826999999735
20
-22.075853499999951
30
0
40
0.42499999999996874
210
-0
220
0
230
1
100
AcDbArc
50
0
51
90.000000000002416
0
LINE
5
442
100
AcDbEntity
8
0
100
AcDbLine
10
9.3053826999999423
20
-22.075853499999987
30
0
11
9.3053826999999583
21
-35.075853499999994
31
0
0
ARC
5
443
100
AcDbEntity
8
0
100
AcDbCircle
10
8.8803826999999558
20
-35.075853499999994
30
0
40
0.42500000000000426
210
0
220
0
230
1
100
AcDbArc
50
-90.000000000002387
51
0
0
LINE
5
444
100
AcDbEntity
8
0
100
AcDbLine
10
8.880382699999938
20
-35.500853499999998
30
0
11
-4.1196173000000336
21
-35.500853499999963
31
0
0
ARC
5
445
100
AcDbEntity
8
0
100
AcDbCircle
10
-4.1196173000000513
20
-35.075853499999994
30
0
40
0.4249999999999865
210
0
220
0
230
1
100
AcDbArc
50
180
51
270.00000000000239
0
ARC
5
446
100
AcDbEntity
8
0
100
AcDbCircle
10
-67.31961730000009
20
-35.075853499999923
30
0
40
0.42500000000007532
210
-0
220
0
230
1
100
AcDbArc
50
270.00000000000762
51
360
0
LINE
5
447
100
AcDbEntity
8
0
100
AcDbLine
10
-66.894617300000036
20
-22.075853499999987
30
0
11
-66.894617300000021
21
-35.075853499999994
31
0
0
ARC
5
448
100
AcDbEntity
8
0
100
AcDbCircle
10
-67.319617300000004
20
-22.075853499999951
30
0
40
0.42499999999996874
210
-0
220
0
230
1
100
AcDbArc
50
0
51
90.000000000003837
0
LINE
5
449
100
AcDbEntity
8
0
100
AcDbLine
10
-80.319617300000047
20
-21.650853499999982
30
0
11
-67.319617300000033
21
-21.650853499999982
31
0
0
ARC
5
450
100
AcDbEntity
8
0
100
AcDbCircle
10
-80.319617300000004
20
-22.075853499999987
30
0
40
0.42500000000000426
210
0
220
0
230
1
100
AcDbArc
50
90.000000000005755
51
180
0
LINE
5
451
100
AcDbEntity
8
0
100
AcDbLine
10
-80.744617300000044
20
-35.075853499999994
30
0
11
-80.744617300000016
21
-22.075853499999987
31
0
0
ARC
5
452
100
AcDbEntity
8
0
100
AcDbCircle
10
-80.319617300000061
20
-35.075853500000029
30
0
40
0.4249999999999865
210
0
220
0
230
1
100
AcDbArc
50
180
51
270.00000000000193
0
LINE
5
453
100
AcDbEntity
8
0
100
AcDbLine
10
-67.319617300000033
20
-35.500853499999998
30
0
11
-80.319617300000047
21
-35.500853500000034
31
0
0
ARC
5
454
100
AcDbEntity
8
0
100
AcDbCircle
10
-86.369617300000101
20
-35.075853499999923
30
0
40
0.42500000000007532
210
-0
220
0
230
1
100
AcDbArc
50
270.00000000000762
51
360
0
LINE
5
455
100
AcDbEntity
8
0
100
AcDbLine
10
-85.944617300000033
20
-22.075853499999987
30
0
11
-85.944617300000004
21
-35.075853499999994
31
0
0
ARC
5
456
100
AcDbEntity
8
0
100
AcDbCircle
10
-86.369617300000016
20
-22.075853499999951
30
0
40
0.4249999999999865
210
-0
220
0
230
1
100
AcDbArc
50
0
51
90.000000000003837
0
LINE
5
457
100
AcDbEntity
8
0
100
AcDbLine
10
-99.369617300000044
20
-21.650853499999982
30
0
11
-86.36961730000003
21
-21.650853499999982
31
0
0
ARC
5
458
100
AcDbEntity
8
0
100
AcDbCircle
10
-99.369617300000016
20
-22.075853499999987
30
0
40
0.42500000000000426
210
0
220
0
230
1
100
AcDbArc
50
90.000000000005755
51
180
0
LINE
5
459
100
AcDbEntity
8
0
100
AcDbLine
10
-99.794617300000056
20
-35.075853499999994
30
0
11
-99.794617300000027
21
-22.075853499999987
31
0
0
ARC
5
460
100
AcDbEntity
8
0
100
AcDbCircle
10
-99.369617300000058
20
-35.075853499999994
30
0
40
0.4249999999999865
210
0
220
0
230
1
100
AcDbArc
50
180
51
270
0
LINE
5
461
100
AcDbEntity
8
0
100
AcDbLine
10
-86.36961730000003
20
-35.500853499999998
30
0
11
-99.369617300000044
21
-35.500853499999998
31
0
0
LINE
5
462
100
AcDbEntity
8
0
100
AcDbLine
10
-10.169617300000038
20
-35.500853499999998
30
0
11
-23.169617300000045
21
-35.500853499999963
31
0
0
ARC
5
463
100
AcDbEntity
8
0
100
AcDbCircle
10
-23.169617300000063
20
-35.075853499999994
30
0
40
0.4249999999999865
210
0
220
0
230
1
100
AcDbArc
50
180
51
270.00000000000239
0
LINE
5
464
100
AcDbEntity
8
0
100
AcDbLine
10
-23.594617300000049
20
-35.075853499999994
30
0
11
-23.594617300000049
21
-22.075853499999987
31
0
0
ARC
5
465
100
AcDbEntity
8
0
100
AcDbCircle
10
-23.16961730000008
20
-22.075853499999951
30
0
40
0.42499999999996874
210
0
220
-0
230
1
100
AcDbArc
50
89.999999999995211
51
180
0
LINE
5
466
100
AcDbEntity
8
0
100
AcDbLine
10
-23.169617300000045
20
-21.650853499999982
30
0
11
-10.16961730000002
21
-21.650853499999982
31
0
0
ARC
5
467
100
AcDbEntity
8
0
100
AcDbCircle
10
-10.169617300000002
20
-22.075853499999951
30
0
40
0.42499999999996874
210
-0
220
0
230
1
100
AcDbArc
50
0
51
90.000000000002416
0
LINE
5
468
100
AcDbEntity
8
0
100
AcDbLine
10
-9.7446173000000336
20
-22.075853499999987
30
0
11
-9.7446173000000176
21
-35.075853499999994
31
0
0
ARC
5
469
100
AcDbEntity
8
0
100
AcDbCircle
10
-10.16961730000002
20
-35.075853499999994
30
0
40
0.42500000000000426
210
0
220
0
230
1
100
AcDbArc
50
-90.000000000002387
51
0
0
LINE
5
470
100
AcDbEntity
8
0
100
AcDbLine
10
52.605382699999964
20
-35.075853499999994
30
0
11
52.605382699999964
21
-22.075853499999987
31
0
0
ARC
5
471
100
AcDbEntity
8
0
100
AcDbCircle
10
53.030382699999933
20
-22.075853499999951
30
0
40
0.42499999999996874
210
0
220
-0
230
1
100
AcDbArc
50
89.999999999996163
51
180
0
LINE
5
472
100
AcDbEntity
8
0
100
AcDbLine
10
53.030382699999961
20
-21.650853499999982
30
0
11
66.030382699999933
21
-21.650853499999982
31
0
0
ARC
5
473
100
AcDbEntity
8
0
100
AcDbCircle
10
66.030382699999976
20
-22.075853499999951
30
0
40
0.42499999999996874
210
-0
220
0
230
1
100
AcDbArc
50
0
51
90.000000000005755
0
LINE
5
474
100
AcDbEntity
8
0
100
AcDbLine
10
66.455382699999944
20
-22.075853499999987
30
0
11
66.455382699999944
21
-35.075853499999994
31
0
0
ARC
5
475
100
AcDbEntity
8
0
100
AcDbCircle
10
66.030382699999976
20
-35.075853500000029
30
0
40
0.42499999999996874
210
0
220
0
230
1
100
AcDbArc
50
-90.000000000005755
51
0
0
LINE
5
476
100
AcDbEntity
8
0
100
AcDbLine
10
66.030382699999933
20
-35.500853499999998
30
0
11
53.030382699999961
21
-35.500853499999998
31
0
0
ARC
5
477
100
AcDbEntity
8
0
100
AcDbCircle
10
53.030382699999933
20
-35.075853500000029
30
0
40
0.42499999999996874
210
0
220
0
230
1
100
AcDbArc
50
180
51
270.00000000000381
0
ARC
5
478
100
AcDbEntity
8
0
100
AcDbCircle
10
76.842882699999876
20
-16.025853500000053
30
0
40
0.42499999999993321
210
0
220
0
230
1
100
AcDbArc
50
180
51
270.00000000000381
0
LINE
5
479
100
AcDbEntity
8
0
100
AcDbLine
10
89.842882699999947
20
-16.450853499999987
30
0
11
76.842882699999905
21
-16.450853499999983
31
0
0
ARC
5
480
100
AcDbEntity
8
0
100
AcDbCircle
10
89.84288269999999
20
-16.025853500000018
30
0
40
0.42499999999996874
210
0
220
0
230
1
100
AcDbArc
50
-90.000000000005755
51
0
0
LINE
5
481
100
AcDbEntity
8
0
100
AcDbLine
10
90.267882699999959
20
-3.0258534999999753
30
0
11
90.267882699999959
21
-16.025853499999982
31
0
0
ARC
5
482
100
AcDbEntity
8
0
100
AcDbCircle
10
89.84288269999999
20
-3.0258534999999398
30
0
40
0.42499999999996874
210
-0
220
0
230
1
100
AcDbArc
50
0
51
90.000000000005755
0
LINE
5
483
100
AcDbEntity
8
0
100
AcDbLine
10
76.842882699999947
20
-2.6008535000000066
30
0
11
89.842882699999947
21
-2.6008534999999728
31
0
0
ARC
5
484
100
AcDbEntity
8
0
100
AcDbCircle
10
76.842882699999905
20
-3.0258534999999753
30
0
40
0.42499999999996874
210
0
220
-0
230
1
100
AcDbArc
50
89.999999999994273
51
180
0
LINE
5
485
100
AcDbEntity
8
0
100
AcDbLine
10
76.417882699999936
20
-16.025853499999982
30
0
11
76.417882699999936
21
-3.0258534999999753
31
0
0
LINE
5
486
100
AcDbEntity
8
0
100
AcDbLine
10
14.067882699999963
20
-3.0258535000000109
30
0
11
14.067882699999961
21
-16.025853499999982
31
0
0
ARC
5
487
100
AcDbEntity
8
0
100
AcDbCircle
10
13.642882699999941
20
-16.025853499999982
30
0
40
0.42500000000000426
210
-0
220
0
230
1
100
AcDbArc
50
-89.999999999997613
51
0
0
LINE
5
488
100
AcDbEntity
8
0
100
AcDbLine
10
13.642882699999959
20
-16.450853499999987
30
0
11
0.64288269999996928
21
-16.450853499999983
31
0
0
ARC
5
489
100
AcDbEntity
8
0
100
AcDbCircle
10
0.64288269999995151
20
-16.025853499999982
30
0
40
0.4249999999999865
210
0
220
0
230
1
100
AcDbArc
50
180
51
270.00000000000239
0
LINE
5
490
100
AcDbEntity
8
0
100
AcDbLine
10
0.21788269999996501
20
-16.025853499999982
30
0
11
0.21788269999996662
21
-3.0258534999999753
31
0
0
ARC
5
491
100
AcDbEntity
8
0
100
AcDbCircle
10
0.64288269999993375
20
-3.0258534999999398
30
0
40
0.42499999999996874
210
0
220
-0
230
1
100
AcDbArc
50
89.999999999995211
51
180
0
LINE
5
492
100
AcDbEntity
8
0
100
AcDbLine
10
0.64288269999996928
20
-2.6008534999999711
30
0
11
13.642882699999959
21
-2.6008534999999728
31
0
0
ARC
5
493
100
AcDbEntity
8
0
100
AcDbCircle
10
13.642882699999959
20
-3.0258534999999753
30
0
40
0.42500000000000426
210
0
220
-0
230
1
100
AcDbArc
50
0
51
90
0
ARC
5
494
100
AcDbEntity
8
0
100
AcDbCircle
10
-75.557117300000058
20
-16.025853500000018
30
0
40
0.4249999999999865
210
0
220
0
230
1
100
AcDbArc
50
180
51
270.00000000000193
0
LINE
5
495
100
AcDbEntity
8
0
100
AcDbLine
10
-62.557117300000044
20
-16.450853499999987
30
0
11
-75.557117300000044
21
-16.450853499999983
31
0
0
ARC
5
496
100
AcDbEntity
8
0
100
AcDbCircle
10
-62.557117300000087
20
-16.025853499999911
30
0
40
0.42500000000007532
210
-0
220
0
230
1
100
AcDbArc
50
270.00000000000574
51
360
0
LINE
5
497
100
AcDbEntity
8
0
100
AcDbLine
10
-62.132117300000033
20
-3.0258534999999753
30
0
11
-62.132117300000012
21
-16.025853499999982
31
0
0
ARC
5
498
100
AcDbEntity
8
0
100
AcDbCircle
10
-62.557117300000002
20
-3.0258534999999398
30
0
40
0.42499999999996874
210
-0
220
0
230
1
100
AcDbArc
50
0
51
90.000000000003837
0
LINE
5
499
100
AcDbEntity
8
0
100
AcDbLine
10
-75.55711730000003
20
-2.6008534999999711
30
0
11
-62.55711730000003
21
-2.6008534999999728
31
0
0
ARC
5
500
100
AcDbEntity
8
0
100
AcDbCircle
10
-75.557117300000002
20
-3.0258534999999753
30
0
40
0.42500000000000426
210
0
220
0
230
1
100
AcDbArc
50
90.000000000003837
51
180
0
LINE
5
501
100
AcDbEntity
8
0
100
AcDbLine
10
-75.982117300000041
20
-16.025853499999982
30
0
11
-75.982117300000041
21
-3.0258534999999753
31
0
0
LINE
5
502
100
AcDbEntity
8
0
100
AcDbLine
10
-85.507117300000047
20
3.0241465000000289
30
0
11
-85.507117300000033
21
16.024146500000001
31
0
0
ARC
5
503
100
AcDbEntity
8
0
100
AcDbCircle
10
-85.082117300000064
20
16.024146500000001
30
0
40
0.42499999999996874
210
0
220
-0
230
1
100
AcDbArc
50
89.999999999998082
51
180
0
LINE
5
504
100
AcDbEntity
8
0
100
AcDbLine
10
-85.08211730000005
20
16.449146499999934
30
0
11
-72.082117300000036
21
16.449146500000001
31
0
0
ARC
5
505
100
AcDbEntity
8
0
100
AcDbCircle
10
-72.082117300000021
20
16.024146499999965
30
0
40
0.4249999999999865
210
0
220
-0
230
1
100
AcDbArc
50
0
51
90.000000000001918
0
LINE
5
506
100
AcDbEntity
8
0
100
AcDbLine
10
-71.657117300000039
20
16.024146500000001
30
0
11
-71.65711730000001
21
3.0241465000000289
31
0
0
ARC
5
507
100
AcDbEntity
8
0
100
AcDbCircle
10
-72.082117300000093
20
3.0241465000001
30
0
40
0.42500000000007532
210
-0
220
0
230
1
100
AcDbArc
50
270.00000000000574
51
360
0
LINE
5
508
100
AcDbEntity
8
0
100
AcDbLine
10
-72.08211730000005
20
2.5991465000000247
30
0
11
-85.08211730000005
21
2.5991465000000264
31
0
0
ARC
5
509
100
AcDbEntity
8
0
100
AcDbCircle
10
-85.082117300000064
20
3.0241464999999934
30
0
40
0.4249999999999865
210
0
220
0
230
1
100
AcDbArc
50
180
51
270.00000000000193
0
ARC
5
510
100
AcDbEntity
8
0
100
AcDbCircle
10
-8.8821173000000542
20
3.0241465000000289
30
0
40
0.4249999999999865
210
0
220
0
230
1
100
AcDbArc
50
180
51
270.00000000000239
0
LINE
5
511
100
AcDbEntity
8
0
100
AcDbLine
10
4.1178826999999529
20
2.5991465000000247
30
0
11
-8.8821173000000364
21
2.5991465000000264
31
0
0
ARC
5
512
100
AcDbEntity
8
0
100
AcDbCircle
10
4.1178826999999352
20
3.0241465000000289
30
0
40
0.42500000000000426
210
-0
220
0
230
1
100
AcDbArc
50
-89.999999999997613
51
0
0
LINE
5
513
100
AcDbEntity
8
0
100
AcDbLine
10
4.5428826999999572
20
16.024146500000001
30
0
11
4.5428826999999377
21
3.0241465000000289
31
0
0
ARC
5
514
100
AcDbEntity
8
0
100
AcDbCircle
10
4.1178826999999707
20
16.024146499999965
30
0
40
0.4249999999999865
210
0
220
-0
230
1
100
AcDbArc
50
0
51
90.000000000002416
0
LINE
5
515
100
AcDbEntity
8
0
100
AcDbLine
10
-8.8821173000000364
20
16.449146499999934
30
0
11
4.1178826999999529
21
16.449146500000001
31
0
0
ARC
5
516
100
AcDbEntity
8
0
100
AcDbCircle
10
-8.8821173000000897
20
16.024146500000001
30
0
40
0.42499999999996874
210
0
220
-0
230
1
100
AcDbArc
50
89.999999999992824
51
180
0
LINE
5
517
100
AcDbEntity
8
0
100
AcDbLine
10
-9.3071173000000407
20
3.0241465000000289
30
0
11
-9.3071173000000389
21
16.024146500000001
31
0
0
LINE
5
518
100
AcDbEntity
8
0
100
AcDbLine
10
80.317882699999942
20
2.5991464999999891
30
0
11
67.317882699999942
21
2.5991464999999909
31
0
0
ARC
5
519
100
AcDbEntity
8
0
100
AcDbCircle
10
67.317882699999871
20
3.0241464999999579
30
0
40
0.42499999999996874
210
0
220
0
230
1
100
AcDbArc
50
180
51
270.00000000000961
0
LINE
5
520
100
AcDbEntity
8
0
100
AcDbLine
10
66.892882699999902
20
3.0241465000000289
30
0
11
66.892882699999902
21
16.024146500000001
31
0
0
ARC
5
521
100
AcDbEntity
8
0
100
AcDbCircle
10
67.317882699999942
20
16.024146500000001
30
0
40
0.42500000000000426
210
0
220
-0
230
1
100
AcDbArc
50
90
51
180
0
LINE
5
522
100
AcDbEntity
8
0
100
AcDbLine
10
67.317882699999942
20
16.449146500000005
30
0
11
80.317882699999942
21
16.449146500000001
31
0
0
ARC
5
523
100
AcDbEntity
8
0
100
AcDbCircle
10
80.317882699999942
20
16.024146500000001
30
0
40
0.42500000000003979
210
0
220
-0
230
1
100
AcDbArc
50
0
51
90
0
LINE
5
524
100
AcDbEntity
8
0
100
AcDbLine
10
80.742882699999981
20
16.024146500000001
30
0
11
80.742882699999981
21
3.0241465000000289
31
0
0
ARC
5
525
100
AcDbEntity
8
0
100
AcDbCircle
10
80.317882699999984
20
3.0241464999999934
30
0
40
0.42500000000000426
210
0
220
0
230
1
100
AcDbArc
50
-90.000000000005755
51
0
0
ARC
5
526
100
AcDbEntity
8
0
100
AcDbCircle
10
80.317882699999942
20
22.074146500000076
30
0
40
0.42500000000003979
210
-0
220
0
230
1
100
AcDbArc
50
270
51
360
0
LINE
5
527
100
AcDbEntity
8
0
100
AcDbLine
10
80.742882699999981
20
35.074146499999976
30
0
11
80.742882699999981
21
22.074146500000005
31
0
0
ARC
5
528
100
AcDbEntity
8
0
100
AcDbCircle
10
80.317882699999942
20
35.074146499999905
30
0
40
0.42500000000003979
210
0
220
-0
230
1
100
AcDbArc
50
0
51
90
0
LINE
5
529
100
AcDbEntity
8
0
100
AcDbLine
10
67.317882699999942
20
35.499146499999945
30
0
11
80.317882699999942
21
35.499146499999945
31
0
0
ARC
5
530
100
AcDbEntity
8
0
100
AcDbCircle
10
67.317882699999899
20
35.074146499999905
30
0
40
0.42500000000003979
210
0
220
-0
230
1
100
AcDbArc
50
89.999999999994273
51
180
0
LINE
5
531
100
AcDbEntity
8
0
100
AcDbLine
10
66.892882699999902
20
22.074146500000005
30
0
11
66.892882699999902
21
35.074146499999976
31
0
0
ARC
5
532
100
AcDbEntity
8
0
100
AcDbCircle
10
67.317882699999899
20
22.074146500000076
30
0
40
0.42500000000000426
210
0
220
0
230
1
100
AcDbArc
50
180
51
270.00000000000574
0
LINE
5
533
100
AcDbEntity
8
0
100
AcDbLine
10
80.317882699999942
20
21.649146500000036
30
0
11
67.317882699999942
21
21.649146500000036
31
0
0
ARC
5
534
100
AcDbEntity
8
0
100
AcDbCircle
10
7.7298826999999726
20
35.074146499999976
30
0
40
0.4249999999999865
210
0
220
-0
230
1
100
AcDbArc
50
0
51
90.000000000002416
0
LINE
5
535
100
AcDbEntity
8
0
100
AcDbLine
10
1.7298826999999584
20
35.499146499999945
30
0
11
7.7298826999999548
21
35.499146499999945
31
0
0
ARC
5
536
100
AcDbEntity
8
0
100
AcDbCircle
10
1.7298826999999051
20
35.074146499999976
30
0
40
0.42499999999996874
210
0
220
-0
230
1
100
AcDbArc
50
89.999999999992824
51
180
0
LINE
5
537
100
AcDbEntity
8
0
100
AcDbLine
10
1.3048826999999541
20
21.074146500000062
30
0
11
1.3048826999999381
21
35.074146499999976
31
0
0
ARC
5
538
100
AcDbEntity
8
0
100
AcDbCircle
10
1.7298826999999051
20
21.074146500000062
30
0
40
0.42499999999995097
210
0
220
0
230
1
100
AcDbArc
50
180
51
270.00000000000716
0
LINE
5
539
100
AcDbEntity
8
0
100
AcDbLine
10
7.7298826999999548
20
20.649146500000093
30
0
11
1.7298826999999584
21
20.649146500000093
31
0
0
ARC
5
540
100
AcDbEntity
8
0
100
AcDbCircle
10
7.7298826999999726
20
21.074146500000062
30
0
40
0.42499999999996874
210
0
220
0
230
1
100
AcDbArc
50
-90.000000000002387
51
0
0
LINE
5
541
100
AcDbEntity
8
0
100
AcDbLine
10
8.1548826999999591
20
35.074146499999976
30
0
11
8.1548826999999395
21
21.074146500000062
31
0
0
ENDSEC
0
SECTION
2
OBJECTS
0
DICTIONARY
5
C
100
AcDbDictionary
3
ACAD_GROUP
350
D
3
ACAD_MLINESTYLE
350
17
0
DICTIONARY
5
D
100
AcDbDictionary
0
DICTIONARY
5
1A
330
C
100
AcDbDictionary
0
DICTIONARY
5
17
100
AcDbDictionary
0
ENDSEC
0
EOF
