0
SECTION
2
HEADER
9
$INSUNITS
70
4
9
$ACADVER
1
AC1014
9
$HANDSEED
5
FFFF
0
ENDSEC
0
SECTION
2
TABLES
0
TABLE
2
VPORT
5
8
100
AcDbSymbolTable
0
ENDTAB
0
TABLE
2
LTYPE
5
5
100
AcDbSymbolTable
70
2
0
LTYPE
5
14
100
AcDbSymbolTableRecord
100
AcDbLinetypeTableRecord
2
BYBLOCK
70
0
0
LTYPE
5
15
100
AcDbSymbolTableRecord
100
AcDbLinetypeTableRecord
2
BYLAYER
70
0
0
ENDTAB
0
TABLE
2
LAYER
5
2
100
AcDbSymbolTable
70
3
0
LAYER
5
50
100
AcDbSymbolTableRecord
100
AcDbLayerTableRecord
2
0
70
0
6
CONTINUOUS
0
LAYER
5
51
100
AcDbSymbolTableRecord
100
AcDbLayerTableRecord
2
CUTOUTS
70
0
62
1
6
CONTINUOUS
0
LAYER
5
52
100
AcDbSymbolTableRecord
100
AcDbLayerTableRecord
2
PERIMETER
70
0
62
5
6
CONTINUOUS
0
ENDTAB
0
TABLE
2
STYLE
5
3
100
AcDbSymbolTable
70
1
0
STYLE
5
11
100
AcDbSymbolTableRecord
100
AcDbTextStyleTableRecord
2
STANDARD
70
0
0
ENDTAB
0
TABLE
2
VIEW
5
6
100
AcDbSymbolTable
0
ENDTAB
0
TABLE
2
UCS
5
7
100
AcDbSymbolTable
0
ENDTAB
0
TABLE
2
APPID
5
9
100
AcDbSymbolTable
70
1
0
APPID
5
12
100
AcDbSymbolTableRecord
100
AcDbRegAppTableRecord
2
ACAD
70
0
0
ENDTAB
0
TABLE
2
DIMSTYLE
5
A
100
AcDbSymbolTable
0
ENDTAB
0
TABLE
2
BLOCK_RECORD
5
1
100
AcDbSymbolTable
70
2
0
BLOCK_RECORD
5
1F
100
AcDbSymbolTableRecord
100
AcDbBlockTableRecord
2
*MODEL_SPACE
0
BLOCK_RECORD
5
1B
100
AcDbSymbolTableRecord
100
AcDbBlockTableRecord
2
*PAPER_SPACE
0
ENDTAB
0
ENDSEC
0
SECTION
2
BLOCKS
0
BLOCK
5
20
100
AcDbEntity
100
AcDbBlockBegin
2
*MODEL_SPACE
0
ENDBLK
5
21
100
AcDbEntity
100
AcDbBlockEnd
0
BLOCK
5
1C
100
AcDbEntity
100
AcDbBlockBegin
2
*PAPER_SPACE
0
ENDBLK
5
1D
100
AcDbEntity
100
AcDbBlockEnd
0
ENDSEC
0
SECTION
2
ENTITIES
0
CIRCLE
5
100
100
AcDbEntity
8
CUTOUTS
100
AcDbCircle
10
60.098957699999985
20
-42.899903499999972
30
0
40
0.92500000000001137
210
0
220
0
230
1
0
CIRCLE
5
101
100
AcDbEntity
8
CUTOUTS
100
AcDbCircle
10
-60.098957700000014
20
42.899903500000008
30
2.6645352591003757e-14
40
0.92500000000000249
210
0
220
0
230
1
0
CIRCLE
5
102
100
AcDbEntity
8
CUTOUTS
100
AcDbCircle
10
-60.098957700000014
20
-42.899903499999972
30
0
40
0.92499999999999361
210
0
220
0
230
1
0
CIRCLE
5
103
100
AcDbEntity
8
CUTOUTS
100
AcDbCircle
10
126.24395769999991
20
2.6645352591003757e-14
30
0
40
0.92500000000001137
210
0
220
0
230
1
0
CIRCLE
5
104
100
AcDbEntity
8
CUTOUTS
100
AcDbCircle
10
60.098957699999985
20
42.899903499999972
30
2.6645352591003757e-14
40
0.92500000000001137
210
0
220
0
230
1
0
CIRCLE
5
105
100
AcDbEntity
8
CUTOUTS
100
AcDbCircle
10
-126.24395770000001
20
6.2172489379008766e-14
30
0
40
0.92499999999999361
210
0
220
0
230
1
0
LINE
5
106
100
AcDbEntity
8
CUTOUTS
100
AcDbLine
10
57.761632699999922
20
20.64914650000005
30
0
11
51.76163269999995
21
20.64914650000005
31
0
0
ARC
5
107
100
AcDbEntity
8
CUTOUTS
100
AcDbCircle
10
51.761632699999907
20
21.074146500000044
30
0
40
0.42499999999996874
210
0
220
0
230
1
100
AcDbArc
50
180
51
270.00000000000574
0
LINE
5
108
100
AcDbEntity
8
CUTOUTS
100
AcDbLine
10
51.336632699999939
20
21.074146500000058
30
0
11
51.336632699999939
21
35.074146500000047
31
0
0
ARC
5
109
100
AcDbEntity
8
CUTOUTS
100
AcDbCircle
10
51.76163269999995
20
35.074146500000055
30
0
40
0.42499999999999982
210
0
220
-0
230
1
100
AcDbArc
50
90
51
180
0
LINE
5
10A
100
AcDbEntity
8
CUTOUTS
100
AcDbLine
10
51.76163269999995
20
35.499146500000059
30
0
11
57.761632699999922
21
35.499146500000045
31
0
0
ARC
5
10B
100
AcDbEntity
8
CUTOUTS
100
AcDbCircle
10
57.761632699999964
20
35.074146500000076
30
0
40
0.42499999999996874
210
-0
220
0
230
1
100
AcDbArc
50
0
51
90.000000000005755
0
LINE
5
10C
100
AcDbEntity
8
CUTOUTS
100
AcDbLine
10
58.186632699999933
20
35.074146500000055
30
0
11
58.186632699999933
21
21.074146500000062
31
0
0
ARC
5
10D
100
AcDbEntity
8
CUTOUTS
100
AcDbCircle
10
57.761632699999964
20
21.074146500000026
30
0
40
0.42499999999997762
210
0
220
0
230
1
100
AcDbArc
50
-90.000000000005755
51
0
0
ARC
5
10E
100
AcDbEntity
8
CUTOUTS
100
AcDbCircle
10
-48.238367300000093
20
21.074146500000026
30
0
40
0.42500000000000426
210
0
220
0
230
1
100
AcDbArc
50
180
51
270
0
LINE
5
10F
100
AcDbEntity
8
CUTOUTS
100
AcDbLine
10
-42.238367300000078
20
20.649146500000015
30
0
11
-48.238367300000093
21
20.649146500000015
31
0
0
ARC
5
110
100
AcDbEntity
8
CUTOUTS
100
AcDbCircle
10
-42.238367300000078
20
21.074146500000026
30
0
40
0.4250000000000087
210
-0
220
0
230
1
100
AcDbArc
50
-90
51
0
0
LINE
5
111
100
AcDbEntity
8
CUTOUTS
100
AcDbLine
10
-41.813367300000067
20
35.074146500000012
30
0
11
-41.813367300000067
21
21.074146500000026
31
0
0
ARC
5
112
100
AcDbEntity
8
CUTOUTS
100
AcDbCircle
10
-42.238367300000078
20
35.074146500000012
30
0
40
0.42500000000000426
210
0
220
-0
230
1
100
AcDbArc
50
0
51
90
0
LINE
5
113
100
AcDbEntity
8
CUTOUTS
100
AcDbLine
10
-48.238367300000093
20
35.499146500000023
30
0
11
-42.238367300000078
21
35.499146500000023
31
0
0
ARC
5
114
100
AcDbEntity
8
CUTOUTS
100
AcDbCircle
10
-48.238367300000093
20
35.074146500000012
30
0
40
0.4250000000000087
210
0
220
-0
230
1
100
AcDbArc
50
90
51
180
0
LINE
5
115
100
AcDbEntity
8
CUTOUTS
100
AcDbLine
10
-48.66336730000009
20
21.074146500000026
30
0
11
-48.66336730000009
21
35.074146500000012
31
0
0
LINE
5
116
100
AcDbEntity
8
CUTOUTS
100
AcDbLine
10
-73.600867300000075
20
22.07414650000004
30
0
11
-73.600867300000075
21
35.074146500000047
31
0
0
ARC
5
117
100
AcDbEntity
8
CUTOUTS
100
AcDbCircle
10
-73.175867300000064
20
35.074146500000005
30
0
40
0.42500000000001315
210
0
220
0
230
1
100
AcDbArc
50
90.000000000001918
51
180
0
LINE
5
118
100
AcDbEntity
8
CUTOUTS
100
AcDbLine
10
-73.175867300000078
20
35.499146500000023
30
0
11
-60.175867300000064
21
35.499146500000023
31
0
0
ARC
5
119
100
AcDbEntity
8
CUTOUTS
100
AcDbCircle
10
-60.175867300000057
20
35.074146500000019
30
0
40
0.42499999999999538
210
-0
220
0
230
1
100
AcDbArc
50
0
51
90
0
LINE
5
11A
100
AcDbEntity
8
CUTOUTS
100
AcDbLine
10
-59.750867300000067
20
35.074146500000012
30
0
11
-59.750867300000095
21
22.074146500000037
31
0
0
ARC
5
11B
100
AcDbEntity
8
CUTOUTS
100
AcDbCircle
10
-60.175867300000064
20
22.074146500000037
30
0
40
0.42499999999997318
210
-0
220
0
230
1
100
AcDbArc
50
-90
51
0
0
LINE
5
11C
100
AcDbEntity
8
CUTOUTS
100
AcDbLine
10
-60.175867300000064
20
21.649146500000064
30
0
11
-73.175867300000078
21
21.649146500000029
31
0
0
ARC
5
11D
100
AcDbEntity
8
CUTOUTS
100
AcDbCircle
10
-73.175867300000078
20
22.074146500000033
30
0
40
0.42499999999999538
210
0
220
0
230
1
100
AcDbArc
50
180
51
270
0
ARC
5
11E
100
AcDbEntity
8
CUTOUTS
100
AcDbCircle
10
105.41788269999989
20
22.074146500000044
30
0
40
0.42499999999996874
210
0
220
0
230
1
100
AcDbArc
50
180
51
270.00000000000381
0
LINE
5
11F
100
AcDbEntity
8
CUTOUTS
100
AcDbLine
10
118.41788269999994
20
21.649146500000064
30
0
11
105.41788269999992
21
21.649146500000068
31
0
0
ARC
5
120
100
AcDbEntity
8
CUTOUTS
100
AcDbCircle
10
118.41788269999989
20
22.074146500000104
30
0
40
0.42500000000003979
210
-0
220
0
230
1
100
AcDbArc
50
270.00000000000574
51
360
0
LINE
5
121
100
AcDbEntity
8
CUTOUTS
100
AcDbLine
10
118.84288269999993
20
35.074146500000047
30
0
11
118.84288269999993
21
22.074146500000047
31
0
0
ARC
5
122
100
AcDbEntity
8
CUTOUTS
100
AcDbCircle
10
118.41788269999994
20
35.074146500000055
30
0
40
0.42500000000000426
210
-0
220
0
230
1
100
AcDbArc
50
0
51
89.999999999998082
0
LINE
5
123
100
AcDbEntity
8
CUTOUTS
100
AcDbLine
10
105.41788269999992
20
35.499146500000023
30
0
11
118.41788269999994
21
35.499146500000066
31
0
0
ARC
5
124
100
AcDbEntity
8
CUTOUTS
100
AcDbCircle
10
105.41788269999989
20
35.074146500000069
30
0
40
0.42499999999995097
210
0
220
-0
230
1
100
AcDbArc
50
89.999999999996163
51
180
0
LINE
5
125
100
AcDbEntity
8
CUTOUTS
100
AcDbLine
10
104.99288269999992
20
22.074146500000076
30
0
11
104.99288269999992
21
35.074146500000083
31
0
0
LINE
5
126
100
AcDbEntity
8
CUTOUTS
100
AcDbLine
10
-9.3071173000000407
20
3.0241465000000267
30
0
11
-9.3071173000000744
21
16.02414650000004
31
0
0
ARC
5
127
100
AcDbEntity
8
CUTOUTS
100
AcDbCircle
10
-8.8821173000000364
20
16.024146500000043
30
0
40
0.42500000000003313
210
0
220
-0
230
1
100
AcDbArc
50
90
51
180
0
LINE
5
128
100
AcDbEntity
8
CUTOUTS
100
AcDbLine
10
-8.8821173000000364
20
16.449146500000072
30
0
11
4.1178826999999352
21
16.449146500000037
31
0
0
ARC
5
129
100
AcDbEntity
8
CUTOUTS
100
AcDbCircle
10
4.1178826999999352
20
16.024146500000036
30
0
40
0.42500000000000426
210
0
220
-0
230
1
100
AcDbArc
50
0
51
90
0
LINE
5
12A
100
AcDbEntity
8
CUTOUTS
100
AcDbLine
10
4.5428826999999394
20
16.024146500000036
30
0
11
4.5428826999999377
21
3.0241465000000267
31
0
0
ARC
5
12B
100
AcDbEntity
8
CUTOUTS
100
AcDbCircle
10
4.1178826999999352
20
3.024146500000028
30
0
40
0.42500000000000537
210
-0
220
0
230
1
100
AcDbArc
50
270
51
360
0
LINE
5
12C
100
AcDbEntity
8
CUTOUTS
100
AcDbLine
10
4.1178826999999352
20
2.5991465000000225
30
0
11
-8.8821173000000364
21
2.5991465000000238
31
0
0
ARC
5
12D
100
AcDbEntity
8
CUTOUTS
100
AcDbCircle
10
-8.8821173000000364
20
3.024146500000028
30
0
40
0.42500000000000426
210
0
220
0
230
1
100
AcDbArc
50
180
51
270
0
ARC
5
12E
100
AcDbEntity
8
CUTOUTS
100
AcDbCircle
10
-72.082117300000064
20
16.02414650000004
30
0
40
0.42499999999999538
210
-0
220
0
230
1
100
AcDbArc
50
0
51
90
0
LINE
5
12F
100
AcDbEntity
8
CUTOUTS
100
AcDbLine
10
-85.082117300000078
20
16.44914650000004
30
0
11
-72.082117300000064
21
16.449146500000037
31
0
0
ARC
5
130
100
AcDbEntity
8
CUTOUTS
100
AcDbCircle
10
-85.082117300000107
20
16.02414650000004
30
0
40
0.42500000000000204
210
0
220
-0
230
1
100
AcDbArc
50
89.999999999996163
51
180
0
LINE
5
131
100
AcDbEntity
8
CUTOUTS
100
AcDbLine
10
-85.50711730000009
20
3.0241465000000267
30
0
11
-85.50711730000009
21
16.024146500000032
31
0
0
ARC
5
132
100
AcDbEntity
8
CUTOUTS
100
AcDbCircle
10
-85.082117300000107
20
3.0241465000000218
30
0
40
0.42500000000000426
210
0
220
0
230
1
100
AcDbArc
50
180
51
270.00000000000381
0
LINE
5
133
100
AcDbEntity
8
CUTOUTS
100
AcDbLine
10
-72.082117300000078
20
2.5991465000000198
30
0
11
-85.082117300000078
21
2.5991465000000238
31
0
0
ARC
5
134
100
AcDbEntity
8
CUTOUTS
100
AcDbCircle
10
-72.082117300000064
20
3.0241465000000218
30
0
40
0.42500000000000204
210
0
220
0
230
1
100
AcDbArc
50
-90.000000000001933
51
0
0
LINE
5
135
100
AcDbEntity
8
CUTOUTS
100
AcDbLine
10
-71.657117300000067
20
16.024146500000032
30
0
11
-71.657117300000067
21
3.0241465000000267
31
0
0
LINE
5
136
100
AcDbEntity
8
CUTOUTS
100
AcDbLine
10
-62.132117300000061
20
-3.0258534999999753
30
0
11
-62.132117300000061
21
-16.025853499999979
31
0
0
ARC
5
137
100
AcDbEntity
8
CUTOUTS
100
AcDbCircle
10
-62.557117300000058
20
-16.025853499999986
30
0
40
0.42500000000000426
210
0
220
0
230
1
100
AcDbArc
50
-90.000000000001933
51
0
0
LINE
5
138
100
AcDbEntity
8
CUTOUTS
100
AcDbLine
10
-62.557117300000073
20
-16.45085349999999
30
0
11
-75.557117300000073
21
-16.45085349999999
31
0
0
ARC
5
139
100
AcDbEntity
8
CUTOUTS
100
AcDbCircle
10
-75.557117300000087
20
-16.025853499999986
30
0
40
0.42499999999999538
210
0
220
0
230
1
100
AcDbArc
50
180
51
270
0
LINE
5
13A
100
AcDbEntity
8
CUTOUTS
100
AcDbLine
10
-75.982117300000084
20
-16.025853499999982
30
0
11
-75.982117300000084
21
-3.0258534999999753
31
0
0
ARC
5
13B
100
AcDbEntity
8
CUTOUTS
100
AcDbCircle
10
-75.557117300000087
20
-3.0258534999999718
30
0
40
0.42500000000000426
210
0
220
-0
230
1
100
AcDbArc
50
89.999999999998082
51
180
0
LINE
5
13C
100
AcDbEntity
8
CUTOUTS
100
AcDbLine
10
-75.557117300000073
20
-2.6008534999999675
30
0
11
-62.557117300000073
21
-2.6008534999999671
31
0
0
ARC
5
13D
100
AcDbEntity
8
CUTOUTS
100
AcDbCircle
10
-62.557117300000058
20
-3.0258534999999718
30
0
40
0.42499999999999538
210
-0
220
0
230
1
100
AcDbArc
50
0
51
90.000000000001918
0
LINE
5
13E
100
AcDbEntity
8
CUTOUTS
100
AcDbLine
10
0.64288269999996928
20
-2.6008534999999355
30
0
11
13.642882699999941
21
-2.6008534999999715
31
0
0
ARC
5
13F
100
AcDbEntity
8
CUTOUTS
100
AcDbCircle
10
13.642882699999941
20
-3.0258534999999798
30
0
40
0.42500000000000426
210
0
220
-0
230
1
100
AcDbArc
50
0
51
90
0
LINE
5
140
100
AcDbEntity
8
CUTOUTS
100
AcDbLine
10
14.067882699999945
20
-3.0258534999999775
30
0
11
14.067882699999943
21
-16.025853499999986
31
0
0
ARC
5
141
100
AcDbEntity
8
CUTOUTS
100
AcDbCircle
10
13.642882699999941
20
-16.025853499999982
30
0
40
0.42500000000000426
210
-0
220
0
230
1
100
AcDbArc
50
270
51
360
0
LINE
5
142
100
AcDbEntity
8
CUTOUTS
100
AcDbLine
10
13.642882699999941
20
-16.450853499999987
30
0
11
0.64288269999996928
21
-16.450853499999983
31
0
0
ARC
5
143
100
AcDbEntity
8
CUTOUTS
100
AcDbCircle
10
0.64288269999996928
20
-16.025853499999982
30
0
40
0.42500000000000426
210
0
220
0
230
1
100
AcDbArc
50
180
51
270
0
LINE
5
144
100
AcDbEntity
8
CUTOUTS
100
AcDbLine
10
0.21788269999996501
20
-16.025853499999982
30
0
11
0.2178826999999311
21
-3.0258534999999775
31
0
0
ARC
5
145
100
AcDbEntity
8
CUTOUTS
100
AcDbCircle
10
0.64288269999996928
20
-3.0258534999999687
30
0
40
0.42500000000003313
210
0
220
-0
230
1
100
AcDbArc
50
89.999999999999986
51
180
0
LINE
5
146
100
AcDbEntity
8
CUTOUTS
100
AcDbLine
10
76.417882699999936
20
-16.025853499999947
30
0
11
76.417882699999936
21
-3.025853499999942
31
0
0
ARC
5
147
100
AcDbEntity
8
CUTOUTS
100
AcDbCircle
10
76.842882699999876
20
-3.0258534999999389
30
0
40
0.42499999999997096
210
0
220
-0
230
1
100
AcDbArc
50
89.999999999996163
51
180
0
LINE
5
148
100
AcDbEntity
8
CUTOUTS
100
AcDbLine
10
76.842882699999905
20
-2.6008534999999675
30
0
11
89.842882699999919
21
-2.6008534999999329
31
0
0
ARC
5
149
100
AcDbEntity
8
CUTOUTS
100
AcDbCircle
10
89.842882699999919
20
-3.0258534999999309
30
0
40
0.42500000000000426
210
-0
220
0
230
1
100
AcDbArc
50
0
51
90
0
LINE
5
14A
100
AcDbEntity
8
CUTOUTS
100
AcDbLine
10
90.267882699999916
20
-3.0258534999999407
30
0
11
90.267882699999916
21
-16.025853499999943
31
0
0
ARC
5
14B
100
AcDbEntity
8
CUTOUTS
100
AcDbCircle
10
89.842882699999919
20
-16.025853499999961
30
0
40
0.42499999999999538
210
-0
220
0
230
1
100
AcDbArc
50
-90
51
0
0
LINE
5
14C
100
AcDbEntity
8
CUTOUTS
100
AcDbLine
10
89.842882699999919
20
-16.450853499999955
30
0
11
76.842882699999905
21
-16.450853499999919
31
0
0
ARC
5
14D
100
AcDbEntity
8
CUTOUTS
100
AcDbCircle
10
76.842882699999876
20
-16.02585349999995
30
0
40
0.42499999999993321
210
0
220
0
230
1
100
AcDbArc
50
180
51
270.00000000000381
0
ARC
5
14E
100
AcDbEntity
8
CUTOUTS
100
AcDbCircle
10
100.65538269999989
20
-16.025853499999979
30
0
40
0.42499999999996874
210
0
220
0
230
1
100
AcDbArc
50
180
51
270.00000000000381
0
LINE
5
14F
100
AcDbEntity
8
CUTOUTS
100
AcDbLine
10
113.65538269999993
20
-16.450853499999951
30
0
11
100.65538269999992
21
-16.450853499999948
31
0
0
ARC
5
150
100
AcDbEntity
8
CUTOUTS
100
AcDbCircle
10
113.65538269999993
20
-16.025853499999954
30
0
40
0.42499999999999538
210
-0
220
0
230
1
100
AcDbArc
50
-90
51
0
0
LINE
5
151
100
AcDbEntity
8
CUTOUTS
100
AcDbLine
10
114.08038269999993
20
-3.0258534999999376
30
0
11
114.08038269999993
21
-16.02585349999995
31
0
0
ARC
5
152
100
AcDbEntity
8
CUTOUTS
100
AcDbCircle
10
113.65538269999996
20
-3.0258534999999274
30
0
40
0.42499999999996874
210
-0
220
0
230
1
100
AcDbArc
50
0
51
90.000000000003837
0
LINE
5
153
100
AcDbEntity
8
CUTOUTS
100
AcDbLine
10
100.65538269999992
20
-2.6008534999999346
30
0
11
113.65538269999993
21
-2.6008534999999338
31
0
0
ARC
5
154
100
AcDbEntity
8
CUTOUTS
100
AcDbCircle
10
100.65538269999989
20
-3.0258534999999123
30
0
40
0.42499999999997762
210
0
220
-0
230
1
100
AcDbArc
50
89.999999999996163
51
180
0
LINE
5
155
100
AcDbEntity
8
CUTOUTS
100
AcDbLine
10
100.23038269999992
20
-16.02585349999995
30
0
11
100.23038269999992
21
-3.0258534999999398
31
0
0
LINE
5
156
100
AcDbEntity
8
CUTOUTS
100
AcDbLine
10
33.98038269999995
20
-21.650853499999915
30
0
11
46.980382699999922
21
-21.650853499999915
31
0
0
ARC
5
157
100
AcDbEntity
8
CUTOUTS
100
AcDbCircle
10
46.980382699999964
20
-22.075853499999887
30
0
40
0.42499999999996874
210
-0
220
0
230
1
100
AcDbArc
50
0
51
90.000000000005755
0
LINE
5
158
100
AcDbEntity
8
CUTOUTS
100
AcDbLine
10
47.405382699999933
20
-22.075853499999912
30
0
11
47.405382699999933
21
-35.075853499999887
31
0
0
ARC
5
159
100
AcDbEntity
8
CUTOUTS
100
AcDbCircle
10
46.980382699999922
20
-35.075853499999951
30
0
40
0.42500000000000426
210
-0
220
0
230
1
100
AcDbArc
50
-90
51
0
0
LINE
5
15A
100
AcDbEntity
8
CUTOUTS
100
AcDbLine
10
46.980382699999922
20
-35.500853499999955
30
0
11
33.98038269999995
21
-35.50085349999992
31
0
0
ARC
5
15B
100
AcDbEntity
8
CUTOUTS
100
AcDbCircle
10
33.980382699999922
20
-35.075853499999965
30
0
40
0.42499999999993321
210
0
220
0
230
1
100
AcDbArc
50
180
51
270.00000000000381
0
LINE
5
15C
100
AcDbEntity
8
CUTOUTS
100
AcDbLine
10
33.555382699999981
20
-35.075853499999958
30
0
11
33.555382699999953
21
-22.075853499999909
31
0
0
ARC
5
15D
100
AcDbEntity
8
CUTOUTS
100
AcDbCircle
10
33.980382699999922
20
-22.075853499999887
30
0
40
0.42499999999997318
210
0
220
-0
230
1
100
AcDbArc
50
89.999999999996163
51
180
0
LINE
5
15E
100
AcDbEntity
8
CUTOUTS
100
AcDbLine
10
-29.219617300000085
20
-35.50085349999997
30
0
11
-42.219617300000053
21
-35.500853499999934
31
0
0
ARC
5
15F
100
AcDbEntity
8
CUTOUTS
100
AcDbCircle
10
-42.219617300000053
20
-35.075853499999965
30
0
40
0.42499999999996874
210
0
220
0
230
1
100
AcDbArc
50
180
51
270
0
LINE
5
160
100
AcDbEntity
8
CUTOUTS
100
AcDbLine
10
-42.644617300000021
20
-35.075853499999958
30
0
11
-42.644617300000064
21
-22.075853499999951
31
0
0
ARC
5
161
100
AcDbEntity
8
CUTOUTS
100
AcDbCircle
10
-42.219617300000053
20
-22.075853499999951
30
0
40
0.4250000000000087
210
0
220
-0
230
1
100
AcDbArc
50
90
51
180
0
LINE
5
162
100
AcDbEntity
8
CUTOUTS
100
AcDbLine
10
-42.219617300000053
20
-21.650853499999943
30
0
11
-29.219617300000085
21
-21.650853499999943
31
0
0
ARC
5
163
100
AcDbEntity
8
CUTOUTS
100
AcDbCircle
10
-29.219617300000085
20
-22.075853499999955
30
0
40
0.42500000000000426
210
0
220
-0
230
1
100
AcDbArc
50
0
51
90
0
LINE
5
164
100
AcDbEntity
8
CUTOUTS
100
AcDbLine
10
-28.79461730000008
20
-22.075853499999951
30
0
11
-28.79461730000008
21
-35.075853499999887
31
0
0
ARC
5
165
100
AcDbEntity
8
CUTOUTS
100
AcDbCircle
10
-29.219617300000085
20
-35.075853499999958
30
0
40
0.42500000000001315
210
-0
220
0
230
1
100
AcDbArc
50
-90
51
0
0
LINE
5
166
100
AcDbEntity
8
CUTOUTS
100
AcDbLine
10
-105.41961730000006
20
-35.500853499999927
30
0
11
-118.4196173000001
21
-35.500853499999963
31
0
0
ARC
5
167
100
AcDbEntity
8
CUTOUTS
100
AcDbCircle
10
-118.41961730000011
20
-35.075853499999965
30
0
40
0.42500000000000426
210
0
220
0
230
1
100
AcDbArc
50
180
51
270
0
LINE
5
168
100
AcDbEntity
8
CUTOUTS
100
AcDbLine
10
-118.84461730000011
20
-35.075853499999958
30
0
11
-118.84461730000007
21
-22.075853499999987
31
0
0
ARC
5
169
100
AcDbEntity
8
CUTOUTS
100
AcDbCircle
10
-118.4196173000001
20
-22.075853499999948
30
0
40
0.42499999999996874
210
0
220
-0
230
1
100
AcDbArc
50
90
51
180
0
LINE
5
16A
100
AcDbEntity
8
CUTOUTS
100
AcDbLine
10
-118.4196173000001
20
-21.650853499999979
30
0
11
-105.41961730000006
21
-21.650853499999943
31
0
0
ARC
5
16B
100
AcDbEntity
8
CUTOUTS
100
AcDbCircle
10
-105.41961730000006
20
-22.075853499999955
30
0
40
0.42500000000000426
210
0
220
-0
230
1
100
AcDbArc
50
0
51
90
0
LINE
5
16C
100
AcDbEntity
8
CUTOUTS
100
AcDbLine
10
-104.99461730000006
20
-22.075853499999951
30
0
11
-104.99461730000009
21
-35.075853499999923
31
0
0
ARC
5
16D
100
AcDbEntity
8
CUTOUTS
100
AcDbCircle
10
-105.41961730000008
20
-35.075853499999951
30
0
40
0.42499999999997762
210
-0
220
0
230
1
100
AcDbArc
50
-90
51
0
0
ARC
5
16E
100
AcDbEntity
8
CUTOUTS
100
AcDbCircle
10
-61.269617300000078
20
-35.075853499999965
30
0
40
0.42499999999996874
210
0
220
0
230
1
100
AcDbArc
50
180
51
270
0
LINE
5
16F
100
AcDbEntity
8
CUTOUTS
100
AcDbLine
10
-48.269617300000064
20
-35.50085349999997
30
0
11
-61.269617300000064
21
-35.500853499999934
31
0
0
ARC
5
170
100
AcDbEntity
8
CUTOUTS
100
AcDbCircle
10
-48.269617300000064
20
-35.075853499999958
30
0
40
0.42500000000001315
210
-0
220
0
230
1
100
AcDbArc
50
-90
51
0
0
LINE
5
171
100
AcDbEntity
8
CUTOUTS
100
AcDbLine
10
-47.844617300000095
20
-22.075853499999951
30
0
11
-47.844617300000053
21
-35.075853499999951
31
0
0
ARC
5
172
100
AcDbEntity
8
CUTOUTS
100
AcDbCircle
10
-48.269617300000064
20
-22.075853499999948
30
0
40
0.42499999999996874
210
-0
220
0
230
1
100
AcDbArc
50
0
51
89.999999999998082
0
LINE
5
173
100
AcDbEntity
8
CUTOUTS
100
AcDbLine
10
-61.269617300000064
20
-21.650853499999943
30
0
11
-48.269617300000064
21
-21.650853499999975
31
0
0
ARC
5
174
100
AcDbEntity
8
CUTOUTS
100
AcDbCircle
10
-61.269617300000064
20
-22.075853499999955
30
0
40
0.42500000000001315
210
0
220
-0
230
1
100
AcDbArc
50
90
51
180
0
LINE
5
175
100
AcDbEntity
8
CUTOUTS
100
AcDbLine
10
-61.694617300000047
20
-35.075853499999958
30
0
11
-61.69461730000009
21
-22.075853499999983
31
0
0
ARC
5
176
100
AcDbEntity
8
CUTOUTS
100
AcDbCircle
10
27.930382699999949
20
-22.075853499999912
30
0
40
0.42499999999996874
210
-0
220
0
230
1
100
AcDbArc
50
0
51
90
0
LINE
5
177
100
AcDbEntity
8
CUTOUTS
100
AcDbLine
10
14.930382699999942
20
-21.650853499999943
30
0
11
27.930382699999949
21
-21.65085349999994
31
0
0
ARC
5
178
100
AcDbEntity
8
CUTOUTS
100
AcDbCircle
10
14.930382699999942
20
-22.075853499999955
30
0
40
0.42500000000001315
210
0
220
-0
230
1
100
AcDbArc
50
90
51
180
0
LINE
5
179
100
AcDbEntity
8
CUTOUTS
100
AcDbLine
10
14.505382699999974
20
-35.075853499999958
30
0
11
14.50538269999994
21
-22.075853499999983
31
0
0
ARC
5
17A
100
AcDbEntity
8
CUTOUTS
100
AcDbCircle
10
14.930382699999942
20
-35.075853499999965
30
0
40
0.42499999999996874
210
0
220
0
230
1
100
AcDbArc
50
180
51
269.99999999999761
0
LINE
5
17B
100
AcDbEntity
8
CUTOUTS
100
AcDbLine
10
27.930382699999949
20
-35.500853499999927
30
0
11
14.930382699999925
21
-35.500853499999948
31
0
0
ARC
5
17C
100
AcDbEntity
8
CUTOUTS
100
AcDbCircle
10
27.930382699999949
20
-35.075853499999937
30
0
40
0.4249999999999865
210
-0
220
0
230
1
100
AcDbArc
50
-90
51
0
0
LINE
5
17D
100
AcDbEntity
8
CUTOUTS
100
AcDbLine
10
28.355382699999918
20
-22.075853499999916
30
0
11
28.355382699999936
21
-35.075853499999901
31
0
0
LINE
5
17E
100
AcDbEntity
8
CUTOUTS
100
AcDbLine
10
111.27413269999992
20
-35.500853499999927
30
0
11
98.274132699999925
21
-35.500853499999899
31
0
0
ARC
5
17F
100
AcDbEntity
8
CUTOUTS
100
AcDbCircle
10
98.274132699999882
20
-35.07585349999993
30
0
40
0.42499999999996874
210
0
220
0
230
1
100
AcDbArc
50
180
51
270.00000000000574
0
LINE
5
180
100
AcDbEntity
8
CUTOUTS
100
AcDbLine
10
97.849132699999913
20
-35.075853499999923
30
0
11
97.849132699999913
21
-22.075853499999948
31
0
0
ARC
5
181
100
AcDbEntity
8
CUTOUTS
100
AcDbCircle
10
98.274132699999925
20
-22.07585349999993
30
0
40
0.42500000000001759
210
0
220
-0
230
1
100
AcDbArc
50
90
51
180
0
LINE
5
182
100
AcDbEntity
8
CUTOUTS
100
AcDbLine
10
98.274132699999925
20
-21.650853499999911
30
0
11
111.27413269999992
21
-21.650853499999975
31
0
0
ARC
5
183
100
AcDbEntity
8
CUTOUTS
100
AcDbCircle
10
111.27413269999997
20
-22.075853499999912
30
0
40
0.42499999999993321
210
-0
220
0
230
1
100
AcDbArc
50
0
51
90.000000000005755
0
LINE
5
184
100
AcDbEntity
8
CUTOUTS
100
AcDbLine
10
111.69913269999989
20
-22.075853499999916
30
0
11
111.69913269999994
21
-35.075853499999923
31
0
0
ARC
5
185
100
AcDbEntity
8
CUTOUTS
100
AcDbCircle
10
111.27413269999997
20
-35.075853499999951
30
0
40
0.42499999999997762
210
0
220
0
230
1
100
AcDbArc
50
-90.000000000005755
51
0
0
LINE
5
186
100
AcDbEntity
8
CUTOUTS
100
AcDbLine
10
66.892882699999902
20
3.0241465000000622
30
0
11
66.892882699999902
21
16.024146500000075
31
0
0
ARC
5
187
100
AcDbEntity
8
CUTOUTS
100
AcDbCircle
10
67.317882699999871
20
16.0241465000001
30
0
40
0.42499999999997762
210
0
220
-0
230
1
100
AcDbArc
50
89.999999999996163
51
180
0
LINE
5
188
100
AcDbEntity
8
CUTOUTS
100
AcDbLine
10
67.317882699999899
20
16.449146500000076
30
0
11
80.317882699999913
21
16.449146500000051
31
0
0
ARC
5
189
100
AcDbEntity
8
CUTOUTS
100
AcDbCircle
10
80.317882699999942
20
16.024146500000086
30
0
40
0.42499999999996874
210
-0
220
0
230
1
100
AcDbArc
50
0
51
90.000000000003837
0
LINE
5
18A
100
AcDbEntity
8
CUTOUTS
100
AcDbLine
10
80.74288269999991
20
16.024146500000072
30
0
11
80.74288269999991
21
3.0241465000000622
31
0
0
ARC
5
18B
100
AcDbEntity
8
CUTOUTS
100
AcDbCircle
10
80.317882699999913
20
3.0241465000000507
30
0
40
0.42499999999999205
210
-0
220
0
230
1
100
AcDbArc
50
-90
51
0
0
LINE
5
18C
100
AcDbEntity
8
CUTOUTS
100
AcDbLine
10
80.317882699999913
20
2.5991465000000584
30
0
11
67.317882699999899
21
2.5991465000000642
31
0
0
ARC
5
18D
100
AcDbEntity
8
CUTOUTS
100
AcDbCircle
10
67.317882699999871
20
3.0241465000000329
30
0
40
0.42499999999996874
210
0
220
0
230
1
100
AcDbArc
50
180
51
270.00000000000381
0
LINE
5
18E
100
AcDbEntity
8
CUTOUTS
100
AcDbLine
10
19.69288269999991
20
-2.6008535000000088
30
0
11
32.692882699999956
21
-2.6008534999999271
31
0
0
ARC
5
18F
100
AcDbEntity
8
CUTOUTS
100
AcDbCircle
10
32.692882699999956
20
-3.02585349999993
30
0
40
0.42500000000000426
210
-0
220
0
230
1
100
AcDbArc
50
0
51
90
0
LINE
5
190
100
AcDbEntity
8
CUTOUTS
100
AcDbLine
10
33.117882699999953
20
-3.0258534999999389
30
0
11
33.117882699999925
21
-16.025853499999947
31
0
0
ARC
5
191
100
AcDbEntity
8
CUTOUTS
100
AcDbCircle
10
32.692882699999956
20
-16.02585349999995
30
0
40
0.4249999999999643
210
-0
220
0
230
1
100
AcDbArc
50
-90
51
0
0
LINE
5
192
100
AcDbEntity
8
CUTOUTS
100
AcDbLine
10
32.692882699999956
20
-16.450853499999916
30
0
11
19.69288269999991
21
-16.450853499999948
31
0
0
ARC
5
193
100
AcDbEntity
8
CUTOUTS
100
AcDbCircle
10
19.69288269999991
20
-16.025853499999986
30
0
40
0.42499999999996874
210
0
220
0
230
1
100
AcDbArc
50
180
51
270
0
LINE
5
194
100
AcDbEntity
8
CUTOUTS
100
AcDbLine
10
19.267882699999941
20
-16.025853499999982
30
0
11
19.267882699999944
21
-3.0258534999999753
31
0
0
ARC
5
195
100
AcDbEntity
8
CUTOUTS
100
AcDbCircle
10
19.69288269999991
20
-3.0258534999999731
30
0
40
0.4249999999999643
210
0
220
-0
230
1
100
AcDbArc
50
90
51
180
0
ARC
5
196
100
AcDbEntity
8
CUTOUTS
100
AcDbCircle
10
-56.507117300000075
20
-16.025853499999986
30
0
40
0.42499999999995985
210
0
220
0
230
1
100
AcDbArc
50
180
51
270
0
LINE
5
197
100
AcDbEntity
8
CUTOUTS
100
AcDbLine
10
-43.507117300000061
20
-16.450853499999987
30
0
11
-56.507117300000061
21
-16.450853499999944
31
0
0
ARC
5
198
100
AcDbEntity
8
CUTOUTS
100
AcDbCircle
10
-43.507117300000061
20
-16.025853499999982
30
0
40
0.42500000000000426
210
-0
220
0
230
1
100
AcDbArc
50
-90
51
0
0
LINE
5
199
100
AcDbEntity
8
CUTOUTS
100
AcDbLine
10
-43.082117300000093
20
-3.0258534999999753
30
0
11
-43.08211730000005
21
-16.025853499999982
31
0
0
ARC
5
19A
100
AcDbEntity
8
CUTOUTS
100
AcDbCircle
10
-43.50711730000009
20
-3.0258534999999775
30
0
40
0.42500000000000426
210
0
220
-0
230
1
100
AcDbArc
50
0
51
90
0
LINE
5
19B
100
AcDbEntity
8
CUTOUTS
100
AcDbLine
10
-56.507117300000061
20
-2.600853499999972
30
0
11
-43.50711730000009
21
-2.6008534999999728
31
0
0
ARC
5
19C
100
AcDbEntity
8
CUTOUTS
100
AcDbCircle
10
-56.507117300000075
20
-3.0258534999999718
30
0
40
0.42499999999999982
210
0
220
-0
230
1
100
AcDbArc
50
89.999999999998082
51
180
0
LINE
5
19D
100
AcDbEntity
8
CUTOUTS
100
AcDbLine
10
-56.93211730000003
20
-16.025853499999982
30
0
11
-56.932117300000073
21
-3.0258534999999753
31
0
0
ARC
5
19E
100
AcDbEntity
8
CUTOUTS
100
AcDbCircle
10
-111.27586730000006
20
16.024146500000032
30
0
40
0.42500000000004645
210
-0
220
0
230
1
100
AcDbArc
50
90
51
180
0
LINE
5
19F
100
AcDbEntity
8
CUTOUTS
100
AcDbLine
10
-111.70086730000007
20
3.0241465000000267
30
0
11
-111.7008673000001
21
16.024146500000032
31
0
0
ARC
5
1A0
100
AcDbEntity
8
CUTOUTS
100
AcDbCircle
10
-111.27586730000006
20
3.0241465000000254
30
0
40
0.42500000000000426
210
0
220
0
230
1
100
AcDbArc
50
180
51
270
0
LINE
5
1A1
100
AcDbEntity
8
CUTOUTS
100
AcDbLine
10
-98.275867300000087
20
2.5991464999999825
30
0
11
-111.27586730000006
21
2.5991465000000193
31
0
0
ARC
5
1A2
100
AcDbEntity
8
CUTOUTS
100
AcDbCircle
10
-98.275867300000087
20
3.0241465000000272
30
0
40
0.42500000000004479
210
-0
220
0
230
1
100
AcDbArc
50
-90
51
0
0
LINE
5
1A3
100
AcDbEntity
8
CUTOUTS
100
AcDbLine
10
-97.85086730000009
20
16.024146500000032
30
0
11
-97.850867300000047
21
3.0241465000000267
31
0
0
ARC
5
1A4
100
AcDbEntity
8
CUTOUTS
100
AcDbCircle
10
-98.275867300000087
20
16.024146500000032
30
0
40
0.42500000000002203
210
0
220
-0
230
1
100
AcDbArc
50
0
51
90
0
LINE
5
1A5
100
AcDbEntity
8
CUTOUTS
100
AcDbLine
10
-111.27586730000006
20
16.449146500000079
30
0
11
-98.275867300000087
21
16.449146500000047
31
0
0
LINE
5
1A6
100
AcDbEntity
8
CUTOUTS
100
AcDbLine
10
-66.032117300000067
20
16.44914650000004
30
0
11
-53.032117300000088
21
16.44914650000004
31
0
0
ARC
5
1A7
100
AcDbEntity
8
CUTOUTS
100
AcDbCircle
10
-53.032117300000088
20
16.024146500000043
30
0
40
0.42499999999999538
210
-0
220
0
230
1
100
AcDbArc
50
0
51
90
0
LINE
5
1A8
100
AcDbEntity
8
CUTOUTS
100
AcDbLine
10
-52.607117300000098
20
16.024146500000036
30
0
11
-52.607117300000084
21
3.0241465000000245
31
0
0
ARC
5
1A9
100
AcDbEntity
8
CUTOUTS
100
AcDbCircle
10
-53.032117300000088
20
3.0241465000000218
30
0
40
0.42500000000000204
210
0
220
0
230
1
100
AcDbArc
50
-90.000000000000966
51
0
0
LINE
5
1AA
100
AcDbEntity
8
CUTOUTS
100
AcDbLine
10
-53.032117300000095
20
2.5991465000000198
30
0
11
-66.032117300000067
21
2.5991465000000238
31
0
0
ARC
5
1AB
100
AcDbEntity
8
CUTOUTS
100
AcDbCircle
10
-66.032117300000081
20
3.0241465000000218
30
0
40
0.42499999999999538
210
0
220
0
230
1
100
AcDbArc
50
180
51
270.00000000000193
0
LINE
5
1AC
100
AcDbEntity
8
CUTOUTS
100
AcDbLine
10
-66.457117300000078
20
3.0241465000000267
30
0
11
-66.457117300000078
21
16.02414650000004
31
0
0
ARC
5
1AD
100
AcDbEntity
8
CUTOUTS
100
AcDbCircle
10
-66.032117300000081
20
16.024146500000043
30
0
40
0.4249999999999976
210
0
220
-0
230
1
100
AcDbArc
50
89.999999999998082
51
180
0
LINE
5
1AE
100
AcDbEntity
8
CUTOUTS
100
AcDbLine
10
48.26788269999993
20
16.449146500000076
30
0
11
61.26788269999993
21
16.449146500000072
31
0
0
ARC
5
1AF
100
AcDbEntity
8
CUTOUTS
100
AcDbCircle
10
61.267882699999973
20
16.0241465000001
30
0
40
0.42499999999996874
210
-0
220
0
230
1
100
AcDbArc
50
0
51
90.000000000005755
0
LINE
5
1B0
100
AcDbEntity
8
CUTOUTS
100
AcDbLine
10
61.692882699999942
20
16.024146500000072
30
0
11
61.692882699999942
21
3.02414650000006
31
0
0
ARC
5
1B1
100
AcDbEntity
8
CUTOUTS
100
AcDbCircle
10
61.267882699999973
20
3.0241465000000329
30
0
40
0.42499999999997651
210
0
220
0
230
1
100
AcDbArc
50
-90.000000000005755
51
0
0
LINE
5
1B2
100
AcDbEntity
8
CUTOUTS
100
AcDbLine
10
61.26788269999993
20
2.5991465000000562
30
0
11
48.26788269999993
21
2.5991465000000447
31
0
0
ARC
5
1B3
100
AcDbEntity
8
CUTOUTS
100
AcDbCircle
10
48.26788269999993
20
3.0241465000000507
30
0
40
0.42500000000000426
210
0
220
0
230
1
100
AcDbArc
50
180
51
270
0
LINE
5
1B4
100
AcDbEntity
8
CUTOUTS
100
AcDbLine
10
47.842882699999919
20
3.0241465000000627
30
0
11
47.84288269999989
21
16.024146500000072
31
0
0
ARC
5
1B5
100
AcDbEntity
8
CUTOUTS
100
AcDbCircle
10
48.267882699999888
20
16.024146500000082
30
0
40
0.42499999999999316
210
0
220
-0
230
1
100
AcDbArc
50
89.999999999994273
51
180
0
LINE
5
1B6
100
AcDbEntity
8
CUTOUTS
100
AcDbLine
10
11.261632699999975
20
21.649146500000072
30
0
11
-1.7383673000000677
21
21.649146500000036
31
0
0
ARC
5
1B7
100
AcDbEntity
8
CUTOUTS
100
AcDbCircle
10
-1.7383673000000677
20
22.07414650000004
30
0
40
0.42500000000000426
210
0
220
0
230
1
100
AcDbArc
50
180
51
270
0
LINE
5
1B8
100
AcDbEntity
8
CUTOUTS
100
AcDbLine
10
-2.1633673000000719
20
22.07414650000004
30
0
11
-2.1633673000001057
21
35.074146500000012
31
0
0
ARC
5
1B9
100
AcDbEntity
8
CUTOUTS
100
AcDbCircle
10
-1.7383673000000677
20
35.074146500000019
30
0
40
0.42500000000003535
210
0
220
-0
230
1
100
AcDbArc
50
90
51
180
0
LINE
5
1BA
100
AcDbEntity
8
CUTOUTS
100
AcDbLine
10
-1.7383673000000677
20
35.499146500000052
30
0
11
11.261632699999939
21
35.499146500000016
31
0
0
ARC
5
1BB
100
AcDbEntity
8
CUTOUTS
100
AcDbCircle
10
11.261632699999939
20
35.074146500000012
30
0
40
0.42500000000000426
210
0
220
-0
230
1
100
AcDbArc
50
0
51
90
0
LINE
5
1BC
100
AcDbEntity
8
CUTOUTS
100
AcDbLine
10
11.686632699999944
20
35.074146500000012
30
0
11
11.686632699999942
21
22.07414650000004
31
0
0
ARC
5
1BD
100
AcDbEntity
8
CUTOUTS
100
AcDbCircle
10
11.261632699999975
20
22.074146500000037
30
0
40
0.4249999999999643
210
-0
220
0
230
1
100
AcDbArc
50
-90
51
0
0
ARC
5
1BE
100
AcDbEntity
8
CUTOUTS
100
AcDbCircle
10
-81.607117300000056
20
22.074146500000033
30
0
40
0.42500000000000426
210
0
220
0
230
1
100
AcDbArc
50
-90.000000000003823
51
0
0
LINE
5
1BF
100
AcDbEntity
8
CUTOUTS
100
AcDbLine
10
-81.182117300000073
20
35.074146500000012
30
0
11
-81.182117300000073
21
22.07414650000004
31
0
0
ARC
5
1C0
100
AcDbEntity
8
CUTOUTS
100
AcDbCircle
10
-81.607117300000056
20
35.074146500000012
30
0
40
0.42500000000000426
210
0
220
-0
230
1
100
AcDbArc
50
0
51
90
0
LINE
5
1C1
100
AcDbEntity
8
CUTOUTS
100
AcDbLine
10
-94.607117300000084
20
35.499146499999988
30
0
11
-81.607117300000084
21
35.499146500000009
31
0
0
ARC
5
1C2
100
AcDbEntity
8
CUTOUTS
100
AcDbCircle
10
-94.607117300000084
20
35.074146500000012
30
0
40
0.42499999999997318
210
0
220
-0
230
1
100
AcDbArc
50
90
51
180
0
LINE
5
1C3
100
AcDbEntity
8
CUTOUTS
100
AcDbLine
10
-95.032117300000095
20
22.07414650000004
30
0
11
-95.032117300000053
21
35.074146500000047
31
0
0
ARC
5
1C4
100
AcDbEntity
8
CUTOUTS
100
AcDbCircle
10
-94.607117300000084
20
22.07414650000004
30
0
40
0.42500000000002203
210
0
220
0
230
1
100
AcDbArc
50
180
51
270
0
LINE
5
1C5
100
AcDbEntity
8
CUTOUTS
100
AcDbLine
10
-81.607117300000084
20
21.649146500000029
30
0
11
-94.607117300000084
21
21.649146500000022
31
0
0
LINE
5
1C6
100
AcDbEntity
8
CUTOUTS
100
AcDbLine
10
99.792882699999922
20
35.074146500000047
30
0
11
99.792882699999922
21
22.074146500000076
31
0
0
ARC
5
1C7
100
AcDbEntity
8
CUTOUTS
100
AcDbCircle
10
99.367882699999953
20
22.074146500000062
30
0
40
0.42499999999999094
210
0
220
0
230
1
100
AcDbArc
50
-90.000000000003823
51
0
0
LINE
5
1C8
100
AcDbEntity
8
CUTOUTS
100
AcDbLine
10
99.367882699999925
20
21.649146500000072
30
0
11
86.36788269999991
21
21.649146500000072
31
0
0
ARC
5
1C9
100
AcDbEntity
8
CUTOUTS
100
AcDbCircle
10
86.367882699999882
20
22.07414650000004
30
0
40
0.42499999999996874
210
0
220
0
230
1
100
AcDbArc
50
180
51
270.00000000000381
0
LINE
5
1CA
100
AcDbEntity
8
CUTOUTS
100
AcDbLine
10
85.942882699999913
20
22.074146500000069
30
0
11
85.942882699999913
21
35.074146500000047
31
0
0
ARC
5
1CB
100
AcDbEntity
8
CUTOUTS
100
AcDbCircle
10
86.367882699999882
20
35.074146500000076
30
0
40
0.42499999999996874
210
0
220
-0
230
1
100
AcDbArc
50
89.999999999996163
51
180
0
LINE
5
1CC
100
AcDbEntity
8
CUTOUTS
100
AcDbLine
10
86.36788269999991
20
35.499146500000045
30
0
11
99.367882699999925
21
35.499146500000045
31
0
0
ARC
5
1CD
100
AcDbEntity
8
CUTOUTS
100
AcDbCircle
10
99.367882699999925
20
35.074146500000062
30
0
40
0.42500000000000426
210
-0
220
0
230
1
100
AcDbArc
50
0
51
90
0
LINE
5
1CE
100
AcDbEntity
8
CUTOUTS
100
AcDbLine
10
9.7428826999999707
20
3.0241465000000267
30
0
11
9.7428826999999547
21
16.024146500000036
31
0
0
ARC
5
1CF
100
AcDbEntity
8
CUTOUTS
100
AcDbCircle
10
10.167882699999975
20
16.024146500000043
30
0
40
0.42500000000002647
210
0
220
-0
230
1
100
AcDbArc
50
90
51
180
0
LINE
5
1D0
100
AcDbEntity
8
CUTOUTS
100
AcDbLine
10
10.167882699999975
20
16.449146500000072
30
0
11
23.167882699999947
21
16.44914650000004
31
0
0
ARC
5
1D1
100
AcDbEntity
8
CUTOUTS
100
AcDbCircle
10
23.167882699999964
20
16.024146500000054
30
0
40
0.4249999999999865
210
0
220
-0
230
1
100
AcDbArc
50
0
51
90.000000000002416
0
LINE
5
1D2
100
AcDbEntity
8
CUTOUTS
100
AcDbLine
10
23.592882699999951
20
16.024146500000072
30
0
11
23.592882699999951
21
3.02414650000006
31
0
0
ARC
5
1D3
100
AcDbEntity
8
CUTOUTS
100
AcDbCircle
10
23.167882699999947
20
3.0241465000000272
30
0
40
0.42500000000000426
210
-0
220
0
230
1
100
AcDbArc
50
-90
51
0
0
LINE
5
1D4
100
AcDbEntity
8
CUTOUTS
100
AcDbLine
10
23.167882699999947
20
2.5991465000000229
30
0
11
10.167882699999975
21
2.5991465000000229
31
0
0
ARC
5
1D5
100
AcDbEntity
8
CUTOUTS
100
AcDbCircle
10
10.167882699999975
20
3.0241465000000272
30
0
40
0.42500000000000426
210
0
220
0
230
1
100
AcDbArc
50
180
51
270
0
ARC
5
1D6
100
AcDbEntity
8
CUTOUTS
100
AcDbCircle
10
-33.982117300000056
20
3.0241465000000272
30
0
40
0.42500000000000759
210
-0
220
0
230
1
100
AcDbArc
50
-90
51
0
0
LINE
5
1D7
100
AcDbEntity
8
CUTOUTS
100
AcDbLine
10
-33.557117300000044
20
16.024146500000036
30
0
11
-33.557117300000044
21
3.0241465000000289
31
0
0
ARC
5
1D8
100
AcDbEntity
8
CUTOUTS
100
AcDbCircle
10
-33.982117300000056
20
16.024146500000036
30
0
40
0.42500000000000426
210
-0
220
0
230
1
100
AcDbArc
50
0
51
90
0
LINE
5
1D9
100
AcDbEntity
8
CUTOUTS
100
AcDbLine
10
-46.982117300000056
20
16.449146500000044
30
0
11
-33.982117300000056
21
16.449146500000044
31
0
0
ARC
5
1DA
100
AcDbEntity
8
CUTOUTS
100
AcDbCircle
10
-46.982117300000056
20
16.024146500000036
30
0
40
0.4250000000000087
210
0
220
-0
230
1
100
AcDbArc
50
90
51
180
0
LINE
5
1DB
100
AcDbEntity
8
CUTOUTS
100
AcDbLine
10
-47.407117300000067
20
3.0241465000000272
30
0
11
-47.407117300000067
21
16.024146500000032
31
0
0
ARC
5
1DC
100
AcDbEntity
8
CUTOUTS
100
AcDbCircle
10
-46.982117300000056
20
3.0241465000000272
30
0
40
0.42500000000000426
210
0
220
0
230
1
100
AcDbArc
50
180
51
270
0
LINE
5
1DD
100
AcDbEntity
8
CUTOUTS
100
AcDbLine
10
-33.982117300000056
20
2.5991465000000198
30
0
11
-46.982117300000056
21
2.5991465000000185
31
0
0
LINE
5
1DE
100
AcDbEntity
8
CUTOUTS
100
AcDbLine
10
-81.607117300000084
20
-16.45085349999999
30
0
11
-94.607117300000084
21
-16.450853499999955
31
0
0
ARC
5
1DF
100
AcDbEntity
8
CUTOUTS
100
AcDbCircle
10
-94.607117300000084
20
-16.025853499999986
30
0
40
0.42499999999996874
210
0
220
0
230
1
100
AcDbArc
50
180
51
270
0
LINE
5
1E0
100
AcDbEntity
8
CUTOUTS
100
AcDbLine
10
-95.032117300000053
20
-16.025853499999982
30
0
11
-95.032117300000053
21
-3.0258534999999753
31
0
0
ARC
5
1E1
100
AcDbEntity
8
CUTOUTS
100
AcDbCircle
10
-94.607117300000084
20
-3.0258534999999731
30
0
40
0.42499999999996763
210
0
220
-0
230
1
100
AcDbArc
50
90
51
180
0
LINE
5
1E2
100
AcDbEntity
8
CUTOUTS
100
AcDbLine
10
-94.607117300000084
20
-2.6008535000000057
30
0
11
-81.607117300000084
21
-2.6008534999999715
31
0
0
ARC
5
1E3
100
AcDbEntity
8
CUTOUTS
100
AcDbCircle
10
-81.607117300000056
20
-3.0258534999999687
30
0
40
0.42500000000000426
210
-0
220
0
230
1
100
AcDbArc
50
0
51
90.000000000003837
0
LINE
5
1E4
100
AcDbEntity
8
CUTOUTS
100
AcDbLine
10
-81.182117300000073
20
-3.0258534999999753
30
0
11
-81.182117300000073
21
-16.025853499999982
31
0
0
ARC
5
1E5
100
AcDbEntity
8
CUTOUTS
100
AcDbCircle
10
-81.607117300000056
20
-16.025853499999982
30
0
40
0.4250000000000087
210
0
220
0
230
1
100
AcDbArc
50
-90.000000000003823
51
0
0
LINE
5
1E6
100
AcDbEntity
8
CUTOUTS
100
AcDbLine
10
-4.9821173000000663
20
-3.0258534999999753
30
0
11
-4.982117300000068
21
-16.025853499999982
31
0
0
ARC
5
1E7
100
AcDbEntity
8
CUTOUTS
100
AcDbCircle
10
-5.4071173000000705
20
-16.025853499999979
30
0
40
0.42500000000001315
210
-0
220
0
230
1
100
AcDbArc
50
270
51
360
0
LINE
5
1E8
100
AcDbEntity
8
CUTOUTS
100
AcDbLine
10
-5.4071173000000705
20
-16.45085349999999
30
0
11
-18.407117300000042
21
-16.450853499999958
31
0
0
ARC
5
1E9
100
AcDbEntity
8
CUTOUTS
100
AcDbCircle
10
-18.407117300000042
20
-16.025853499999986
30
0
40
0.42499999999996874
210
0
220
0
230
1
100
AcDbArc
50
180
51
270
0
LINE
5
1EA
100
AcDbEntity
8
CUTOUTS
100
AcDbLine
10
-18.832117300000011
20
-16.025853499999982
30
0
11
-18.832117300000078
21
-3.0258534999999753
31
0
0
ARC
5
1EB
100
AcDbEntity
8
CUTOUTS
100
AcDbCircle
10
-18.407117300000042
20
-3.0258534999999673
30
0
40
0.42500000000003535
210
0
220
-0
230
1
100
AcDbArc
50
90
51
180
0
LINE
5
1EC
100
AcDbEntity
8
CUTOUTS
100
AcDbLine
10
-18.407117300000042
20
-2.600853499999932
30
0
11
-5.4071173000000705
21
-2.6008534999999684
31
0
0
ARC
5
1ED
100
AcDbEntity
8
CUTOUTS
100
AcDbCircle
10
-5.4071173000000705
20
-3.0258534999999775
30
0
40
0.42500000000000426
210
0
220
-0
230
1
100
AcDbArc
50
0
51
90
0
LINE
5
1EE
100
AcDbEntity
8
CUTOUTS
100
AcDbLine
10
70.792882699999936
20
-16.450853499999955
30
0
11
57.792882699999936
21
-16.450853499999926
31
0
0
ARC
5
1EF
100
AcDbEntity
8
CUTOUTS
100
AcDbCircle
10
57.792882699999936
20
-16.02585349999995
30
0
40
0.42499999999996874
210
0
220
0
230
1
100
AcDbArc
50
180
51
269.99999999999807
0
LINE
5
1F0
100
AcDbEntity
8
CUTOUTS
100
AcDbLine
10
57.367882699999967
20
-16.025853499999947
30
0
11
57.367882699999896
21
-3.0258534999999398
31
0
0
ARC
5
1F1
100
AcDbEntity
8
CUTOUTS
100
AcDbCircle
10
57.792882699999893
20
-3.0258534999999265
30
0
40
0.42499999999999427
210
0
220
-0
230
1
100
AcDbArc
50
89.999999999994273
51
180
0
LINE
5
1F2
100
AcDbEntity
8
CUTOUTS
100
AcDbLine
10
57.792882699999936
20
-2.600853499999932
30
0
11
70.792882699999936
21
-2.6008534999999395
31
0
0
ARC
5
1F3
100
AcDbEntity
8
CUTOUTS
100
AcDbCircle
10
70.792882699999979
20
-3.0258534999999123
30
0
40
0.42499999999996874
210
-0
220
0
230
1
100
AcDbArc
50
0
51
90.000000000005755
0
LINE
5
1F4
100
AcDbEntity
8
CUTOUTS
100
AcDbLine
10
71.217882699999947
20
-3.0258534999999398
30
0
11
71.217882699999947
21
-16.02585349999995
31
0
0
ARC
5
1F5
100
AcDbEntity
8
CUTOUTS
100
AcDbCircle
10
70.792882699999979
20
-16.025853499999979
30
0
40
0.42499999999997762
210
0
220
0
230
1
100
AcDbArc
50
-90.000000000005755
51
0
0
LINE
5
1F6
100
AcDbEntity
8
CUTOUTS
100
AcDbLine
10
105.41788269999992
20
16.449146500000079
30
0
11
118.41788269999994
21
16.449146500000076
31
0
0
ARC
5
1F7
100
AcDbEntity
8
CUTOUTS
100
AcDbCircle
10
118.41788269999996
20
16.024146500000086
30
0
40
0.42499999999996874
210
-0
220
0
230
1
100
AcDbArc
50
0
51
90.000000000003837
0
LINE
5
1F8
100
AcDbEntity
8
CUTOUTS
100
AcDbLine
10
118.84288269999993
20
16.024146500000072
30
0
11
118.84288269999993
21
3.0241465000000622
31
0
0
ARC
5
1F9
100
AcDbEntity
8
CUTOUTS
100
AcDbCircle
10
118.41788269999994
20
3.0241465000000511
30
0
40
0.42499999999999427
210
-0
220
0
230
1
100
AcDbArc
50
-90
51
0
0
LINE
5
1FA
100
AcDbEntity
8
CUTOUTS
100
AcDbLine
10
118.41788269999994
20
2.5991465000000566
30
0
11
105.41788269999992
21
2.5991465000000638
31
0
0
ARC
5
1FB
100
AcDbEntity
8
CUTOUTS
100
AcDbCircle
10
105.41788269999989
20
3.0241465000000334
30
0
40
0.42499999999996874
210
0
220
0
230
1
100
AcDbArc
50
180
51
270.00000000000381
0
LINE
5
1FC
100
AcDbEntity
8
CUTOUTS
100
AcDbLine
10
104.99288269999992
20
3.0241465000000578
30
0
11
104.99288269999992
21
16.024146500000068
31
0
0
ARC
5
1FD
100
AcDbEntity
8
CUTOUTS
100
AcDbCircle
10
105.41788269999989
20
16.0241465000001
30
0
40
0.42499999999997984
210
0
220
-0
230
1
100
AcDbArc
50
89.999999999996163
51
180
0
LINE
5
1FE
100
AcDbEntity
8
CUTOUTS
100
AcDbLine
10
66.030382699999905
20
-35.500853499999963
30
0
11
53.030382699999933
21
-35.500853499999934
31
0
0
ARC
5
1FF
100
AcDbEntity
8
CUTOUTS
100
AcDbCircle
10
53.030382699999933
20
-35.075853499999965
30
0
40
0.42499999999996874
210
0
220
0
230
1
100
AcDbArc
50
180
51
270
0
LINE
5
200
100
AcDbEntity
8
CUTOUTS
100
AcDbLine
10
52.605382699999964
20
-35.075853499999958
30
0
11
52.605382699999922
21
-22.075853499999916
31
0
0
ARC
5
201
100
AcDbEntity
8
CUTOUTS
100
AcDbCircle
10
53.030382699999933
20
-22.075853499999909
30
0
40
0.42499999999999538
210
0
220
-0
230
1
100
AcDbArc
50
90
51
180
0
LINE
5
202
100
AcDbEntity
8
CUTOUTS
100
AcDbLine
10
53.030382699999933
20
-21.650853499999911
30
0
11
66.030382699999905
21
-21.650853499999904
31
0
0
ARC
5
203
100
AcDbEntity
8
CUTOUTS
100
AcDbCircle
10
66.030382699999905
20
-22.075853499999909
30
0
40
0.42500000000000426
210
-0
220
0
230
1
100
AcDbArc
50
0
51
90
0
LINE
5
204
100
AcDbEntity
8
CUTOUTS
100
AcDbLine
10
66.455382699999902
20
-22.075853499999916
30
0
11
66.455382699999944
21
-35.075853499999958
31
0
0
ARC
5
205
100
AcDbEntity
8
CUTOUTS
100
AcDbCircle
10
66.030382699999933
20
-35.075853499999965
30
0
40
0.42499999999999538
210
0
220
0
230
1
100
AcDbArc
50
-90.000000000003823
51
0
0
LINE
5
206
100
AcDbEntity
8
CUTOUTS
100
AcDbLine
10
-10.169617300000073
20
-35.500853500000005
30
0
11
-23.169617300000045
21
-35.500853499999934
31
0
0
ARC
5
207
100
AcDbEntity
8
CUTOUTS
100
AcDbCircle
10
-23.169617300000045
20
-35.075853499999965
30
0
40
0.42499999999996874
210
0
220
0
230
1
100
AcDbArc
50
180
51
270
0
LINE
5
208
100
AcDbEntity
8
CUTOUTS
100
AcDbLine
10
-23.594617300000014
20
-35.075853499999958
30
0
11
-23.594617300000085
21
-22.075853499999951
31
0
0
ARC
5
209
100
AcDbEntity
8
CUTOUTS
100
AcDbCircle
10
-23.169617300000045
20
-22.075853499999944
30
0
40
0.42500000000003535
210
0
220
-0
230
1
100
AcDbArc
50
90
51
180
0
LINE
5
20A
100
AcDbEntity
8
CUTOUTS
100
AcDbLine
10
-23.169617300000045
20
-21.650853499999908
30
0
11
-10.169617300000073
21
-21.650853499999947
31
0
0
ARC
5
20B
100
AcDbEntity
8
CUTOUTS
100
AcDbCircle
10
-10.169617300000073
20
-22.075853499999955
30
0
40
0.42500000000000426
210
0
220
-0
230
1
100
AcDbArc
50
0
51
90
0
LINE
5
20C
100
AcDbEntity
8
CUTOUTS
100
AcDbLine
10
-9.7446173000000691
20
-22.075853499999951
30
0
11
-9.7446173000000353
21
-35.075853499999958
31
0
0
ARC
5
20D
100
AcDbEntity
8
CUTOUTS
100
AcDbCircle
10
-10.169617300000073
20
-35.075853499999958
30
0
40
0.42500000000004867
210
-0
220
0
230
1
100
AcDbArc
50
-90
51
0
0
LINE
5
20E
100
AcDbEntity
8
CUTOUTS
100
AcDbLine
10
-86.369617300000044
20
-35.500853499999927
30
0
11
-99.369617300000087
21
-35.500853499999963
31
0
0
ARC
5
20F
100
AcDbEntity
8
CUTOUTS
100
AcDbCircle
10
-99.369617300000087
20
-35.075853499999965
30
0
40
0.42500000000000426
210
0
220
0
230
1
100
AcDbArc
50
180
51
270
0
LINE
5
210
100
AcDbEntity
8
CUTOUTS
100
AcDbLine
10
-99.794617300000098
20
-35.075853499999958
30
0
11
-99.794617300000056
21
-22.075853499999951
31
0
0
ARC
5
211
100
AcDbEntity
8
CUTOUTS
100
AcDbCircle
10
-99.369617300000087
20
-22.075853499999948
30
0
40
0.4249999999999643
210
0
220
-0
230
1
100
AcDbArc
50
90
51
180
0
LINE
5
212
100
AcDbEntity
8
CUTOUTS
100
AcDbLine
10
-99.369617300000087
20
-21.650853499999982
30
0
11
-86.369617300000087
21
-21.650853499999947
31
0
0
ARC
5
213
100
AcDbEntity
8
CUTOUTS
100
AcDbCircle
10
-86.369617300000073
20
-22.075853499999951
30
0
40
0.42500000000000426
210
0
220
-0
230
1
100
AcDbArc
50
0
51
90
0
LINE
5
214
100
AcDbEntity
8
CUTOUTS
100
AcDbLine
10
-85.944617300000075
20
-22.075853499999951
30
0
11
-85.944617300000075
21
-35.075853499999958
31
0
0
ARC
5
215
100
AcDbEntity
8
CUTOUTS
100
AcDbCircle
10
-86.36961730000003
20
-35.075853499999965
30
0
40
0.42499999999995985
210
0
220
0
230
1
100
AcDbArc
50
-90.000000000001933
51
0
0
LINE
5
216
100
AcDbEntity
8
CUTOUTS
100
AcDbLine
10
-80.319617300000075
20
-21.650853499999982
30
0
11
-67.319617300000075
21
-21.650853499999982
31
0
0
ARC
5
217
100
AcDbEntity
8
CUTOUTS
100
AcDbCircle
10
-67.319617300000061
20
-22.075853499999948
30
0
40
0.42499999999995985
210
-0
220
0
230
1
100
AcDbArc
50
0
51
90
0
LINE
5
218
100
AcDbEntity
8
CUTOUTS
100
AcDbLine
10
-66.894617300000107
20
-22.075853499999951
30
0
11
-66.894617300000064
21
-35.075853499999951
31
0
0
ARC
5
219
100
AcDbEntity
8
CUTOUTS
100
AcDbCircle
10
-67.319617300000061
20
-35.075853499999965
30
0
40
0.42499999999999538
210
0
220
0
230
1
100
AcDbArc
50
-90.000000000001933
51
0
0
LINE
5
21A
100
AcDbEntity
8
CUTOUTS
100
AcDbLine
10
-67.319617300000075
20
-35.500853499999963
30
0
11
-80.319617300000075
21
-35.500853499999927
31
0
0
ARC
5
21B
100
AcDbEntity
8
CUTOUTS
100
AcDbCircle
10
-80.31961730000009
20
-35.075853499999965
30
0
40
0.42499999999996874
210
0
220
0
230
1
100
AcDbArc
50
180
51
270
0
LINE
5
21C
100
AcDbEntity
8
CUTOUTS
100
AcDbLine
10
-80.744617300000044
20
-35.075853499999958
30
0
11
-80.744617300000044
21
-22.075853499999951
31
0
0
ARC
5
21D
100
AcDbEntity
8
CUTOUTS
100
AcDbCircle
10
-80.31961730000009
20
-22.075853499999948
30
0
40
0.4249999999999643
210
0
220
-0
230
1
100
AcDbArc
50
89.999999999998082
51
180
0
LINE
5
21E
100
AcDbEntity
8
CUTOUTS
100
AcDbLine
10
-4.5446173000000023
20
-35.075853499999958
30
0
11
-4.5446173000000716
21
-22.075853499999983
31
0
0
ARC
5
21F
100
AcDbEntity
8
CUTOUTS
100
AcDbCircle
10
-4.1196173000000158
20
-22.075853499999965
30
0
40
0.42500000000005755
210
0
220
0
230
1
100
AcDbArc
50
90.000000000002416
51
180
0
LINE
5
220
100
AcDbEntity
8
CUTOUTS
100
AcDbLine
10
-4.1196173000000336
20
-21.650853499999908
30
0
11
8.880382699999938
21
-21.650853499999975
31
0
0
ARC
5
221
100
AcDbEntity
8
CUTOUTS
100
AcDbCircle
10
8.880382699999938
20
-22.075853499999948
30
0
40
0.42499999999996874
210
-0
220
0
230
1
100
AcDbArc
50
0
51
90
0
LINE
5
222
100
AcDbEntity
8
CUTOUTS
100
AcDbLine
10
9.3053826999999067
20
-22.075853499999951
30
0
11
9.3053826999999227
21
-35.075853499999901
31
0
0
ARC
5
223
100
AcDbEntity
8
CUTOUTS
100
AcDbCircle
10
8.880382699999938
20
-35.075853499999937
30
0
40
0.4249999999999865
210
-0
220
0
230
1
100
AcDbArc
50
-90
51
0
0
LINE
5
224
100
AcDbEntity
8
CUTOUTS
100
AcDbLine
10
8.880382699999938
20
-35.500853499999927
30
0
11
-4.1196173000000513
21
-35.500853499999948
31
0
0
ARC
5
225
100
AcDbEntity
8
CUTOUTS
100
AcDbCircle
10
-4.1196173000000336
20
-35.075853499999965
30
0
40
0.42499999999996874
210
0
220
0
230
1
100
AcDbArc
50
180
51
269.99999999999761
0
LINE
5
226
100
AcDbEntity
8
CUTOUTS
100
AcDbLine
10
85.505382699999913
20
-22.075853499999916
30
0
11
85.505382699999956
21
-35.075853499999965
31
0
0
ARC
5
227
100
AcDbEntity
8
CUTOUTS
100
AcDbCircle
10
85.080382699999987
20
-35.075853499999987
30
0
40
0.42499999999996874
210
0
220
0
230
1
100
AcDbArc
50
-90.000000000005755
51
0
0
LINE
5
228
100
AcDbEntity
8
CUTOUTS
100
AcDbLine
10
85.080382699999944
20
-35.500853499999955
30
0
11
72.080382699999944
21
-35.50085349999992
31
0
0
ARC
5
229
100
AcDbEntity
8
CUTOUTS
100
AcDbCircle
10
72.080382699999944
20
-35.075853499999965
30
0
40
0.42499999999996874
210
0
220
0
230
1
100
AcDbArc
50
180
51
270
0
LINE
5
22A
100
AcDbEntity
8
CUTOUTS
100
AcDbLine
10
71.655382699999976
20
-35.075853499999958
30
0
11
71.655382699999933
21
-22.075853499999916
31
0
0
ARC
5
22B
100
AcDbEntity
8
CUTOUTS
100
AcDbCircle
10
72.080382699999944
20
-22.075853499999901
30
0
40
0.4249999999999865
210
0
220
-0
230
1
100
AcDbArc
50
90
51
180
0
LINE
5
22C
100
AcDbEntity
8
CUTOUTS
100
AcDbLine
10
72.080382699999944
20
-21.650853499999915
30
0
11
85.080382699999944
21
-21.65085349999995
31
0
0
ARC
5
22D
100
AcDbEntity
8
CUTOUTS
100
AcDbCircle
10
85.080382699999987
20
-22.075853499999912
30
0
40
0.42499999999993321
210
-0
220
0
230
1
100
AcDbArc
50
0
51
90.000000000005755
0
LINE
5
22E
100
AcDbEntity
8
CUTOUTS
100
AcDbLine
10
99.367882699999925
20
2.599146500000058
30
0
11
86.36788269999991
21
2.5991465000000638
31
0
0
ARC
5
22F
100
AcDbEntity
8
CUTOUTS
100
AcDbCircle
10
86.367882699999882
20
3.0241465000000329
30
0
40
0.42499999999996874
210
0
220
0
230
1
100
AcDbArc
50
180
51
270.00000000000381
0
LINE
5
230
100
AcDbEntity
8
CUTOUTS
100
AcDbLine
10
85.942882699999913
20
3.0241465000000578
30
0
11
85.942882699999913
21
16.024146500000068
31
0
0
ARC
5
231
100
AcDbEntity
8
CUTOUTS
100
AcDbCircle
10
86.367882699999882
20
16.0241465000001
30
0
40
0.42499999999997318
210
0
220
-0
230
1
100
AcDbArc
50
89.999999999996163
51
180
0
LINE
5
232
100
AcDbEntity
8
CUTOUTS
100
AcDbLine
10
86.36788269999991
20
16.449146500000072
30
0
11
99.367882699999925
21
16.449146500000072
31
0
0
ARC
5
233
100
AcDbEntity
8
CUTOUTS
100
AcDbCircle
10
99.367882699999953
20
16.024146500000082
30
0
40
0.42499999999996874
210
-0
220
0
230
1
100
AcDbArc
50
0
51
90.000000000003837
0
LINE
5
234
100
AcDbEntity
8
CUTOUTS
100
AcDbLine
10
99.792882699999922
20
16.024146500000072
30
0
11
99.792882699999922
21
3.0241465000000622
31
0
0
ARC
5
235
100
AcDbEntity
8
CUTOUTS
100
AcDbCircle
10
99.367882699999925
20
3.0241465000000507
30
0
40
0.42499999999999261
210
-0
220
0
230
1
100
AcDbArc
50
-90
51
0
0
ARC
5
236
100
AcDbEntity
8
CUTOUTS
100
AcDbCircle
10
51.742882699999967
20
-3.0258534999999132
30
0
40
0.42499999999996874
210
-0
220
0
230
1
100
AcDbArc
50
0
51
90.000000000005755
0
LINE
5
237
100
AcDbEntity
8
CUTOUTS
100
AcDbLine
10
38.742882699999925
20
-2.6008534999999688
30
0
11
51.742882699999925
21
-2.6008534999999404
31
0
0
ARC
5
238
100
AcDbEntity
8
CUTOUTS
100
AcDbCircle
10
38.742882699999925
20
-3.0258534999999389
30
0
40
0.42499999999996985
210
0
220
-0
230
1
100
AcDbArc
50
90
51
180
0
LINE
5
239
100
AcDbEntity
8
CUTOUTS
100
AcDbLine
10
38.317882699999956
20
-16.025853499999947
30
0
11
38.317882699999956
21
-3.025853499999942
31
0
0
ARC
5
23A
100
AcDbEntity
8
CUTOUTS
100
AcDbCircle
10
38.742882699999925
20
-16.02585349999995
30
0
40
0.42499999999996874
210
0
220
0
230
1
100
AcDbArc
50
180
51
270
0
LINE
5
23B
100
AcDbEntity
8
CUTOUTS
100
AcDbLine
10
51.742882699999925
20
-16.450853499999955
30
0
11
38.742882699999925
21
-16.450853499999923
31
0
0
ARC
5
23C
100
AcDbEntity
8
CUTOUTS
100
AcDbCircle
10
51.742882699999967
20
-16.025853499999975
30
0
40
0.42499999999998206
210
0
220
0
230
1
100
AcDbArc
50
-90.000000000005755
51
0
0
LINE
5
23D
100
AcDbEntity
8
CUTOUTS
100
AcDbLine
10
52.167882699999936
20
-3.025853499999942
30
0
11
52.167882699999936
21
-16.02585349999995
31
0
0
ARC
5
23E
100
AcDbEntity
8
CUTOUTS
100
AcDbCircle
10
-37.45711730000005
20
-3.0258534999999775
30
0
40
0.42500000000000537
210
0
220
-0
230
1
100
AcDbArc
50
90
51
180
0
LINE
5
23F
100
AcDbEntity
8
CUTOUTS
100
AcDbLine
10
-37.882117300000019
20
-16.025853499999982
30
0
11
-37.882117300000061
21
-3.0258534999999753
31
0
0
ARC
5
240
100
AcDbEntity
8
CUTOUTS
100
AcDbCircle
10
-37.45711730000005
20
-16.025853499999986
30
0
40
0.42499999999996874
210
0
220
0
230
1
100
AcDbArc
50
180
51
270
0
LINE
5
241
100
AcDbEntity
8
CUTOUTS
100
AcDbLine
10
-24.457117300000082
20
-16.450853500000022
30
0
11
-37.45711730000005
21
-16.450853499999955
31
0
0
ARC
5
242
100
AcDbEntity
8
CUTOUTS
100
AcDbCircle
10
-24.457117300000082
20
-16.02585349999999
30
0
40
0.42500000000003091
210
-0
220
0
230
1
100
AcDbArc
50
-90
51
0
0
LINE
5
243
100
AcDbEntity
8
CUTOUTS
100
AcDbLine
10
-24.032117300000078
20
-3.0258534999999753
30
0
11
-24.032117300000042
21
-16.025853499999979
31
0
0
ARC
5
244
100
AcDbEntity
8
CUTOUTS
100
AcDbCircle
10
-24.457117300000082
20
-3.0258534999999775
30
0
40
0.42500000000000426
210
0
220
-0
230
1
100
AcDbArc
50
0
51
90
0
LINE
5
245
100
AcDbEntity
8
CUTOUTS
100
AcDbLine
10
-37.45711730000005
20
-2.600853499999972
30
0
11
-24.457117300000082
21
-2.6008534999999728
31
0
0
ARC
5
246
100
AcDbEntity
8
CUTOUTS
100
AcDbCircle
10
-116.03836730000006
20
-16.025853499999982
30
0
40
0.42499999999996874
210
0
220
0
230
1
100
AcDbArc
50
180
51
270
0
LINE
5
247
100
AcDbEntity
8
CUTOUTS
100
AcDbLine
10
-103.03836730000009
20
-16.450853500000026
30
0
11
-116.03836730000006
21
-16.450853499999955
31
0
0
ARC
5
248
100
AcDbEntity
8
CUTOUTS
100
AcDbCircle
10
-103.03836730000009
20
-16.025853499999986
30
0
40
0.42500000000003979
210
-0
220
0
230
1
100
AcDbArc
50
-90
51
0
0
LINE
5
249
100
AcDbEntity
8
CUTOUTS
100
AcDbLine
10
-102.61336730000009
20
-3.0258534999999775
30
0
11
-102.61336730000005
21
-16.025853499999979
31
0
0
ARC
5
24A
100
AcDbEntity
8
CUTOUTS
100
AcDbCircle
10
-103.03836730000009
20
-3.0258534999999798
30
0
40
0.42500000000002203
210
0
220
-0
230
1
100
AcDbArc
50
0
51
90
0
LINE
5
24B
100
AcDbEntity
8
CUTOUTS
100
AcDbLine
10
-116.03836730000006
20
-2.6008534999999333
30
0
11
-103.03836730000009
21
-2.6008534999999693
31
0
0
ARC
5
24C
100
AcDbEntity
8
CUTOUTS
100
AcDbCircle
10
-116.03836730000006
20
-3.0258534999999762
30
0
40
0.42500000000004312
210
0
220
-0
230
1
100
AcDbArc
50
90
51
180
0
LINE
5
24D
100
AcDbEntity
8
CUTOUTS
100
AcDbLine
10
-116.46336730000003
20
-16.025853499999982
30
0
11
-116.4633673000001
21
-3.0258534999999775
31
0
0
ARC
5
24E
100
AcDbEntity
8
CUTOUTS
100
AcDbCircle
10
-27.932117300000048
20
16.024146500000043
30
0
40
0.42500000000003091
210
0
220
-0
230
1
100
AcDbArc
50
90
51
180
0
LINE
5
24F
100
AcDbEntity
8
CUTOUTS
100
AcDbLine
10
-28.357117300000052
20
3.0241465000000267
30
0
11
-28.357117300000088
21
16.024146500000032
31
0
0
ARC
5
250
100
AcDbEntity
8
CUTOUTS
100
AcDbCircle
10
-27.932117300000048
20
3.0241465000000272
30
0
40
0.42500000000000426
210
0
220
0
230
1
100
AcDbArc
50
180
51
270
0
LINE
5
251
100
AcDbEntity
8
CUTOUTS
100
AcDbLine
10
-14.932117300000076
20
2.5991464999999883
30
0
11
-27.932117300000048
21
2.5991465000000229
31
0
0
ARC
5
252
100
AcDbEntity
8
CUTOUTS
100
AcDbCircle
10
-14.932117300000076
20
3.0241465000000183
30
0
40
0.42500000000003035
210
-0
220
0
230
1
100
AcDbArc
50
-90
51
0
0
LINE
5
253
100
AcDbEntity
8
CUTOUTS
100
AcDbLine
10
-14.507117300000072
20
16.024146500000036
30
0
11
-14.507117300000038
21
3.0241465000000289
31
0
0
ARC
5
254
100
AcDbEntity
8
CUTOUTS
100
AcDbCircle
10
-14.932117300000076
20
16.024146500000036
30
0
40
0.42500000000000426
210
0
220
-0
230
1
100
AcDbArc
50
0
51
90
0
LINE
5
255
100
AcDbEntity
8
CUTOUTS
100
AcDbLine
10
-27.932117300000048
20
16.449146500000072
30
0
11
-14.932117300000076
21
16.449146500000037
31
0
0
ARC
5
256
100
AcDbEntity
8
CUTOUTS
100
AcDbCircle
10
29.217882699999951
20
16.024146500000064
30
0
40
0.42499999999997984
210
0
220
0
230
1
100
AcDbArc
50
90.000000000004803
51
180
0
LINE
5
257
100
AcDbEntity
8
CUTOUTS
100
AcDbLine
10
28.792882699999911
20
3.0241465000000591
30
0
11
28.792882699999947
21
16.024146500000072
31
0
0
ARC
5
258
100
AcDbEntity
8
CUTOUTS
100
AcDbCircle
10
29.21788269999988
20
3.0241465000000418
30
0
40
0.42499999999996874
210
0
220
0
230
1
100
AcDbArc
50
180
51
270.00000000000477
0
LINE
5
259
100
AcDbEntity
8
CUTOUTS
100
AcDbLine
10
42.217882699999919
20
2.5991465000000535
30
0
11
29.217882699999915
21
2.5991465000000682
31
0
0
ARC
5
25A
100
AcDbEntity
8
CUTOUTS
100
AcDbCircle
10
42.217882699999961
20
3.0241465000000329
30
0
40
0.42499999999997928
210
0
220
0
230
1
100
AcDbArc
50
-90.000000000005755
51
0
0
LINE
5
25B
100
AcDbEntity
8
CUTOUTS
100
AcDbLine
10
42.64288269999993
20
16.024146500000075
30
0
11
42.64288269999993
21
3.0241465000000645
31
0
0
ARC
5
25C
100
AcDbEntity
8
CUTOUTS
100
AcDbCircle
10
42.217882699999961
20
16.024146500000104
30
0
40
0.42499999999996874
210
-0
220
0
230
1
100
AcDbArc
50
0
51
90.000000000005755
0
LINE
5
25D
100
AcDbEntity
8
CUTOUTS
100
AcDbLine
10
29.217882699999915
20
16.449146500000044
30
0
11
42.217882699999919
21
16.449146500000079
31
0
0
ARC
5
25E
100
AcDbEntity
8
CUTOUTS
100
AcDbCircle
10
80.317882699999913
20
35.074146500000062
30
0
40
0.42500000000000426
210
-0
220
0
230
1
100
AcDbArc
50
0
51
90
0
LINE
5
25F
100
AcDbEntity
8
CUTOUTS
100
AcDbLine
10
67.317882699999899
20
35.499146500000052
30
0
11
80.317882699999913
21
35.499146500000066
31
0
0
ARC
5
260
100
AcDbEntity
8
CUTOUTS
100
AcDbCircle
10
67.317882699999899
20
35.07414650000004
30
0
40
0.42500000000001315
210
0
220
-0
230
1
100
AcDbArc
50
90
51
180
0
LINE
5
261
100
AcDbEntity
8
CUTOUTS
100
AcDbLine
10
66.892882699999902
20
22.074146500000076
30
0
11
66.892882699999902
21
35.074146500000083
31
0
0
ARC
5
262
100
AcDbEntity
8
CUTOUTS
100
AcDbCircle
10
67.317882699999871
20
22.074146500000044
30
0
40
0.42499999999996874
210
0
220
0
230
1
100
AcDbArc
50
180
51
270.00000000000381
0
LINE
5
263
100
AcDbEntity
8
CUTOUTS
100
AcDbLine
10
80.317882699999913
20
21.649146500000072
30
0
11
67.317882699999899
21
21.649146500000075
31
0
0
ARC
5
264
100
AcDbEntity
8
CUTOUTS
100
AcDbCircle
10
80.317882699999942
20
22.074146500000058
30
0
40
0.42499999999999094
210
0
220
0
230
1
100
AcDbArc
50
-90.000000000003823
51
0
0
LINE
5
265
100
AcDbEntity
8
CUTOUTS
100
AcDbLine
10
80.74288269999991
20
35.074146500000047
30
0
11
80.742882699999953
21
22.074146500000072
31
0
0
LINE
5
266
100
AcDbEntity
8
CUTOUTS
100
AcDbLine
10
-116.46336730000007
20
22.07414650000004
30
0
11
-116.4633673000001
21
35.074146500000047
31
0
0
ARC
5
267
100
AcDbEntity
8
CUTOUTS
100
AcDbCircle
10
-116.03836730000006
20
35.074146500000012
30
0
40
0.42500000000004423
210
0
220
-0
230
1
100
AcDbArc
50
90
51
180
0
LINE
5
268
100
AcDbEntity
8
CUTOUTS
100
AcDbLine
10
-116.03836730000006
20
35.499146500000059
30
0
11
-103.03836730000009
21
35.499146500000023
31
0
0
ARC
5
269
100
AcDbEntity
8
CUTOUTS
100
AcDbCircle
10
-103.03836730000009
20
35.074146500000005
30
0
40
0.42500000000000426
210
0
220
-0
230
1
100
AcDbArc
50
0
51
90
0
LINE
5
26A
100
AcDbEntity
8
CUTOUTS
100
AcDbLine
10
-102.61336730000009
20
35.074146500000012
30
0
11
-102.61336730000005
21
22.074146500000037
31
0
0
ARC
5
26B
100
AcDbEntity
8
CUTOUTS
100
AcDbCircle
10
-103.03836730000009
20
22.07414650000004
30
0
40
0.42500000000004423
210
-0
220
0
230
1
100
AcDbArc
50
-90
51
0
0
LINE
5
26C
100
AcDbEntity
8
CUTOUTS
100
AcDbLine
10
-103.03836730000009
20
21.649146499999993
30
0
11
-116.03836730000006
21
21.649146500000029
31
0
0
ARC
5
26D
100
AcDbEntity
8
CUTOUTS
100
AcDbCircle
10
-116.03836730000006
20
22.074146500000037
30
0
40
0.42500000000000426
210
0
220
0
230
1
100
AcDbArc
50
180
51
270
0
LINE
5
26E
100
AcDbEntity
8
PERIMETER
100
AcDbLine
10
62.786593183748266
20
-43.270099171384892
30
0
11
63.282664044819242
21
-41.737963707477078
31
0
0
ARC
5
26F
100
AcDbEntity
8
PERIMETER
100
AcDbCircle
10
64.400530130979959
20
-42.099903500000025
30
0
40
1.175000000000006
210
0
220
0
230
1
100
AcDbArc
50
90.000000000001393
51
162.05921799634265
0
LINE
5
270
100
AcDbEntity
8
PERIMETER
100
AcDbLine
10
64.400530130979931
20
-40.924903500000021
30
0
11
121.01895769999997
21
-40.924903499999992
31
0
0
ARC
5
271
100
AcDbEntity
8
PERIMETER
100
AcDbCircle
10
121.01895769999993
20
-37.674903499999949
30
0
40
3.2500000000000373
210
-0
220
0
230
1
100
AcDbArc
50
270.00000000000074
51
360
0
LINE
5
272
100
AcDbEntity
8
PERIMETER
100
AcDbLine
10
124.26895769999996
20
-37.674903499999992
30
0
11
124.2689577
21
-4.3015724309800429
31
0
0
ARC
5
273
100
AcDbEntity
8
PERIMETER
100
AcDbCircle
10
125.44395770000007
20
-4.3015724309800829
30
0
40
1.1750000000000604
210
0
220
0
230
1
100
AcDbArc
50
107.94078200365824
51
180
0
LINE
5
274
100
AcDbEntity
8
PERIMETER
100
AcDbLine
10
125.08201790747707
20
-3.1837063448192437
30
0
11
126.61415337138484
21
-2.6876354837482621
31
0
0
ARC
5
275
100
AcDbEntity
8
PERIMETER
100
AcDbCircle
10
125.74395769999997
20
5.1070259132757201e-14
30
0
40
2.824999999999998
210
-0
220
0
230
1
100
AcDbArc
50
-72.059217996345367
51
72.059217996344742
0
LINE
5
276
100
AcDbEntity
8
PERIMETER
100
AcDbLine
10
126.61415337138487
20
2.6876354837483474
30
0
11
125.08201790747692
21
3.1837063448192993
31
0
0
ARC
5
277
100
AcDbEntity
8
PERIMETER
100
AcDbCircle
10
125.44395769999988
20
4.3015724309800678
30
0
40
1.1749999999999616
210
0
220
0
230
1
100
AcDbArc
50
180
51
252.05921799634237
0
LINE
5
278
100
AcDbEntity
8
PERIMETER
100
AcDbLine
10
124.26895769999993
20
4.3015724309800607
30
0
11
124.26895769999996
21
37.674903500000035
31
0
0
ARC
5
279
100
AcDbEntity
8
PERIMETER
100
AcDbCircle
10
121.01895769999997
20
37.674903500000056
30
0
40
3.2499999999999929
210
-0
220
0
230
1
100
AcDbArc
50
0
51
90
0
LINE
5
27A
100
AcDbEntity
8
PERIMETER
100
AcDbLine
10
121.01895769999997
20
40.924903500000049
30
0
11
64.400530130979931
21
40.924903499999985
31
0
0
ARC
5
27B
100
AcDbEntity
8
PERIMETER
100
AcDbCircle
10
64.400530130980002
20
42.099903500000018
30
0
40
1.1750000000000402
210
0
220
0
230
1
100
AcDbArc
50
197.94078200365735
51
269.99999999999653
0
LINE
5
27C
100
AcDbEntity
8
PERIMETER
100
AcDbLine
10
63.282664044819171
20
41.737963707477036
30
0
11
62.786593183748295
21
43.270099171384885
31
0
0
ARC
5
27D
100
AcDbEntity
8
PERIMETER
100
AcDbCircle
10
60.098957699999985
20
42.399903499999994
30
0
40
2.8250000000000046
210
0
220
-0
230
1
100
AcDbArc
50
17.940782003654633
51
162.05921799634604
0
LINE
5
27E
100
AcDbEntity
8
PERIMETER
100
AcDbLine
10
57.411322216251662
20
43.270099171384842
30
0
11
56.915251355180644
21
41.737963707477093
31
0
0
ARC
5
27F
100
AcDbEntity
8
PERIMETER
100
AcDbCircle
10
55.797385269019927
20
42.099903499999982
30
0
40
1.1749999999999616
210
0
220
0
230
1
100
AcDbArc
50
269.99999999999864
51
342.0592179963453
0
LINE
5
280
100
AcDbEntity
8
PERIMETER
100
AcDbLine
10
55.797385269019898
20
40.924903500000021
30
0
11
-55.797385269019927
21
40.924903500000021
31
0
0
ARC
5
281
100
AcDbEntity
8
PERIMETER
100
AcDbCircle
10
-55.797385269019941
20
42.099903499999982
30
0
40
1.1749999999999592
210
0
220
0
230
1
100
AcDbArc
50
197.94078200365482
51
270.00000000000074
0
LINE
5
282
100
AcDbEntity
8
PERIMETER
100
AcDbLine
10
-56.9152513551807
20
41.737963707477078
30
0
11
-57.411322216251712
21
43.270099171384899
31
0
0
ARC
5
283
100
AcDbEntity
8
PERIMETER
100
AcDbCircle
10
-60.098957700000014
20
42.39990350000005
30
0
40
2.8249999999999966
210
0
220
-0
230
1
100
AcDbArc
50
17.940782003654096
51
162.05921799634601
0
LINE
5
284
100
AcDbEntity
8
PERIMETER
100
AcDbLine
10
-62.786593183748337
20
43.270099171384899
30
0
11
-63.282664044819271
21
41.737963707477093
31
0
0
ARC
5
285
100
AcDbEntity
8
PERIMETER
100
AcDbCircle
10
-64.400530130980101
20
42.099903500000039
30
0
40
1.1750000000000149
210
-0
220
0
230
1
100
AcDbArc
50
270
51
342.05921799634388
0
LINE
5
286
100
AcDbEntity
8
PERIMETER
100
AcDbLine
10
-64.400530130980101
20
40.924903500000021
30
0
11
-121.0189577
21
40.924903500000021
31
0
0
ARC
5
287
100
AcDbEntity
8
PERIMETER
100
AcDbCircle
10
-121.0189577
20
37.674903500000042
30
0
40
3.2499999999999796
210
0
220
-0
230
1
100
AcDbArc
50
89.999999999999773
51
180
0
LINE
5
288
100
AcDbEntity
8
PERIMETER
100
AcDbLine
10
-124.2689577
20
37.674903500000035
30
0
11
-124.26895770000003
21
4.3015724309800962
31
0
0
ARC
5
289
100
AcDbEntity
8
PERIMETER
100
AcDbCircle
10
-125.44395769999996
20
4.3015724309800971
30
0
40
1.1749999999999698
210
-0
220
0
230
1
100
AcDbArc
50
-72.059217996345367
51
0
0
LINE
5
28A
100
AcDbEntity
8
PERIMETER
100
AcDbLine
10
-125.08201790747705
20
3.1837063448193255
30
0
11
-126.61415337138486
21
2.6876354837483869
31
0
0
ARC
5
28B
100
AcDbEntity
8
PERIMETER
100
AcDbCircle
10
-125.74395769999997
20
7.9936057773011271e-14
30
0
40
2.824999999999998
210
0
220
0
230
1
100
AcDbArc
50
107.94078200365495
51
252.05921799634507
0
LINE
5
28C
100
AcDbEntity
8
PERIMETER
100
AcDbLine
10
-126.61415337138484
20
-2.6876354837482328
30
0
11
-125.08201790747712
21
-3.1837063448192096
31
0
0
ARC
5
28D
100
AcDbEntity
8
PERIMETER
100
AcDbCircle
10
-125.44395770000003
20
-4.3015724309800074
30
0
40
1.1749999999999972
210
0
220
-0
230
1
100
AcDbArc
50
0
51
72.059217996345936
0
LINE
5
28E
100
AcDbEntity
8
PERIMETER
100
AcDbLine
10
-124.26895770000003
20
-4.3015724309800074
30
0
11
-124.26895770000003
21
-37.674903499999985
31
0
0
ARC
5
28F
100
AcDbEntity
8
PERIMETER
100
AcDbCircle
10
-121.01895770000007
20
-37.674903499999985
30
0
40
3.2499999999999396
210
0
220
0
230
1
100
AcDbArc
50
180
51
270
0
LINE
5
290
100
AcDbEntity
8
PERIMETER
100
AcDbLine
10
-121.01895770000007
20
-40.924903499999928
30
0
11
-64.400530130980101
21
-40.924903500000013
31
0
0
ARC
5
291
100
AcDbEntity
8
PERIMETER
100
AcDbCircle
10
-64.400530130980101
20
-42.099903499999989
30
0
40
1.1749999999999874
210
0
220
-0
230
1
100
AcDbArc
50
17.940782003654594
51
90
0
LINE
5
292
100
AcDbEntity
8
PERIMETER
100
AcDbLine
10
-63.282664044819306
20
-41.737963707477078
30
0
11
-62.786593183748394
21
-43.270099171384828
31
0
0
ARC
5
293
100
AcDbEntity
8
PERIMETER
100
AcDbCircle
10
-60.098957700000014
20
-42.399903500000008
30
0
40
2.8250000000000446
210
0
220
0
230
1
100
AcDbArc
50
197.94078200365311
51
342.05921799634609
0
LINE
5
294
100
AcDbEntity
8
PERIMETER
100
AcDbLine
10
-57.411322216251648
20
-43.270099171384864
30
0
11
-56.915251355180764
21
-41.737963707477036
31
0
0
ARC
5
295
100
AcDbEntity
8
PERIMETER
100
AcDbCircle
10
-55.797385269020019
20
-42.099903499999925
30
0
40
1.1749999999999439
210
0
220
-0
230
1
100
AcDbArc
50
89.999999999998977
51
162.05921799634561
0
LINE
5
296
100
AcDbEntity
8
PERIMETER
100
AcDbLine
10
-55.797385269019998
20
-40.924903499999985
30
0
11
55.797385269019898
21
-40.924903500000013
31
0
0
ARC
5
297
100
AcDbEntity
8
PERIMETER
100
AcDbCircle
10
55.797385269019927
20
-42.099903499999954
30
0
40
1.1749999999999425
210
0
220
-0
230
1
100
AcDbArc
50
17.940782003653478
51
90.000000000001393
0
LINE
5
298
100
AcDbEntity
8
PERIMETER
100
AcDbLine
10
56.915251355180686
20
-41.737963707477078
30
0
11
57.411322216251662
21
-43.270099171384842
31
0
0
ARC
5
299
100
AcDbEntity
8
PERIMETER
100
AcDbCircle
10
60.098957699999985
20
-42.399903500000008
30
0
40
2.8249999999999909
210
0
220
0
230
1
100
AcDbArc
50
197.94078200365371
51
342.05921799634501
0
ENDSEC
0
SECTION
2
OBJECTS
0
DICTIONARY
5
C
100
AcDbDictionary
3
ACAD_GROUP
350
D
3
ACAD_MLINESTYLE
350
17
0
DICTIONARY
5
D
100
AcDbDictionary
0
DICTIONARY
5
1A
330
C
100
AcDbDictionary
0
DICTIONARY
5
17
100
AcDbDictionary
0
ENDSEC
0
EOF
