0
SECTION
2
HEADER
9
$INSUNITS
70
4
9
$ACADVER
1
AC1014
9
$HANDSEED
5
FFFF
0
ENDSEC
0
SECTION
2
TABLES
0
TABLE
2
VPORT
5
8
100
AcDbSymbolTable
0
ENDTAB
0
TABLE
2
LTYPE
5
5
100
AcDbSymbolTable
0
LTYPE
5
14
100
AcDbSymbolTableRecord
100
AcDbLinetypeTableRecord
2
BYBLOCK
70
0
0
LTYPE
5
15
100
AcDbSymbolTableRecord
100
AcDbLinetypeTableRecord
2
BYLAYER
70
0
0
ENDTAB
0
TABLE
2
LAYER
5
2
100
AcDbSymbolTable
70
2
0
LAYER
5
50
100
AcDbSymbolTableRecord
100
AcDbLayerTableRecord
2
0
70
0
6
CONTINUOUS
0
ENDTAB
0
TABLE
2
STYLE
5
3
100
AcDbSymbolTable
70
1
0
STYLE
5
11
100
AcDbSymbolTableRecord
100
AcDbTextStyleTableRecord
2
STANDARD
70
0
0
ENDTAB
0
TABLE
2
VIEW
5
6
100
AcDbSymbolTable
70
0
0
ENDTAB
0
TABLE
2
UCS
5
7
100
AcDbSymbolTable
70
0
0
ENDTAB
0
TABLE
2
APPID
5
9
100
AcDbSymbolTable
70
2
0
APPID
5
12
100
AcDbSymbolTableRecord
100
AcDbRegAppTableRecord
2
ACAD
70
0
0
ENDTAB
0
TABLE
2
DIMSTYLE
5
A
100
AcDbSymbolTable
70
1
0
ENDTAB
0
TABLE
2
BLOCK_RECORD
5
1
100
AcDbSymbolTable
70
1
0
BLOCK_RECORD
5
1F
100
AcDbSymbolTableRecord
100
AcDbBlockTableRecord
2
*MODEL_SPACE
0
BLOCK_RECORD
5
1B
100
AcDbSymbolTableRecord
100
AcDbBlockTableRecord
2
*PAPER_SPACE
0
ENDTAB
0
ENDSEC
0
SECTION
2
BLOCKS
0
BLOCK
5
20
100
AcDbEntity
100
AcDbBlockBegin
2
*MODEL_SPACE
0
ENDBLK
5
21
100
AcDbEntity
100
AcDbBlockEnd
0
BLOCK
5
1C
100
AcDbEntity
100
AcDbBlockBegin
2
*PAPER_SPACE
0
ENDBLK
5
1D
100
AcDbEntity
100
AcDbBlockEnd
0
ENDSEC
0
SECTION
2
ENTITIES
0
CIRCLE
5
100
100
AcDbEntity
8
0
100
AcDbCircle
10
60.098957699999964
20
-42.899903499999979
30
0
40
0.92500000000001137
210
0
220
0
230
1
0
CIRCLE
5
101
100
AcDbEntity
8
0
100
AcDbCircle
10
-60.098957700000035
20
42.899903500000001
30
2.6645352591003757e-14
40
0.92500000000000249
210
0
220
0
230
1
0
CIRCLE
5
102
100
AcDbEntity
8
0
100
AcDbCircle
10
-60.098957700000035
20
-42.899903499999979
30
0
40
0.92499999999999361
210
0
220
0
230
1
0
CIRCLE
5
103
100
AcDbEntity
8
0
100
AcDbCircle
10
126.2439576999999
20
1.7763568394002505e-14
30
0
40
0.92500000000001137
210
0
220
0
230
1
0
CIRCLE
5
104
100
AcDbEntity
8
0
100
AcDbCircle
10
60.098957699999964
20
42.899903499999965
30
2.6645352591003757e-14
40
0.92500000000001137
210
0
220
0
230
1
0
CIRCLE
5
105
100
AcDbEntity
8
0
100
AcDbCircle
10
-126.24395770000004
20
5.3290705182007514e-14
30
0
40
0.92499999999999361
210
0
220
0
230
1
0
ARC
5
106
100
AcDbEntity
8
0
100
AcDbCircle
10
-50.650867300000058
20
22.074146500000005
30
0
40
0.42500000000000426
210
-0
220
0
230
1
100
AcDbArc
50
-90
51
0
0
LINE
5
107
100
AcDbEntity
8
0
100
AcDbLine
10
-50.225867300000061
20
35.074146500000012
30
0
11
-50.225867300000061
21
22.074146500000005
31
0
0
ARC
5
108
100
AcDbEntity
8
0
100
AcDbCircle
10
-50.650867300000058
20
35.074146500000012
30
0
40
0.42500000000000426
210
0
220
-0
230
1
100
AcDbArc
50
0
51
90
0
LINE
5
109
100
AcDbEntity
8
0
100
AcDbLine
10
-63.650867300000051
20
35.499146499999995
30
0
11
-50.650867300000058
21
35.499146500000037
31
0
0
ARC
5
110
100
AcDbEntity
8
0
100
AcDbCircle
10
-63.650867300000073
20
35.074146500000012
30
0
40
0.4249999999999865
210
0
220
-0
230
1
100
AcDbArc
50
89.999999999997129
51
180
0
LINE
5
111
100
AcDbEntity
8
0
100
AcDbLine
10
-64.075867300000056
20
22.074146500000005
30
0
11
-64.075867300000056
21
35.074146500000012
31
0
0
ARC
5
112
100
AcDbEntity
8
0
100
AcDbCircle
10
-63.650867300000044
20
22.074146500000023
30
0
40
0.42500000000001315
210
0
220
0
230
1
100
AcDbArc
50
180
51
269.99999999999903
0
LINE
5
113
100
AcDbEntity
8
0
100
AcDbLine
10
-50.650867300000058
20
21.649146500000001
30
0
11
-63.650867300000051
21
21.649146500000001
31
0
0
LINE
5
114
100
AcDbEntity
8
0
100
AcDbLine
10
1.7298826999999406
20
35.499146500000016
30
0
11
7.729882699999937
21
35.499146500000016
31
0
0
ARC
5
115
100
AcDbEntity
8
0
100
AcDbCircle
10
7.729882699999937
20
35.074146500000012
30
0
40
0.42500000000000426
210
0
220
-0
230
1
100
AcDbArc
50
0
51
90
0
LINE
5
116
100
AcDbEntity
8
0
100
AcDbLine
10
8.1548826999999413
20
35.074146500000012
30
0
11
8.1548826999999395
21
21.074146500000026
31
0
0
ARC
5
117
100
AcDbEntity
8
0
100
AcDbCircle
10
7.729882699999937
20
21.074146500000026
30
0
40
0.42500000000000426
210
-0
220
0
230
1
100
AcDbArc
50
-90
51
0
0
LINE
5
118
100
AcDbEntity
8
0
100
AcDbLine
10
7.729882699999937
20
20.649146500000022
30
0
11
1.7298826999999406
21
20.649146500000022
31
0
0
ARC
5
119
100
AcDbEntity
8
0
100
AcDbCircle
10
1.7298826999999584
20
21.074146500000044
30
0
40
0.42500000000002203
210
0
220
0
230
1
100
AcDbArc
50
180
51
269.99999999999761
0
LINE
5
120
100
AcDbEntity
8
0
100
AcDbLine
10
1.3048826999999363
20
21.074146500000026
30
0
11
1.3048826999999381
21
35.074146500000012
31
0
0
ARC
5
121
100
AcDbEntity
8
0
100
AcDbCircle
10
1.7298826999999584
20
35.074146499999998
30
0
40
0.42500000000002203
210
0
220
0
230
1
100
AcDbArc
50
90.000000000002416
51
180
0
LINE
5
122
100
AcDbEntity
8
0
100
AcDbLine
10
80.317882699999927
20
21.649146500000001
30
0
11
67.317882699999927
21
21.649146500000001
31
0
0
ARC
5
123
100
AcDbEntity
8
0
100
AcDbCircle
10
67.317882699999927
20
22.074146499999987
30
0
40
0.42500000000000426
210
0
220
0
230
1
100
AcDbArc
50
180
51
270
0
LINE
5
124
100
AcDbEntity
8
0
100
AcDbLine
10
66.892882699999916
20
22.074146500000005
30
0
11
66.892882699999916
21
35.074146500000012
31
0
0
ARC
5
125
100
AcDbEntity
8
0
100
AcDbCircle
10
67.317882699999927
20
35.074146500000026
30
0
40
0.4249999999999865
210
0
220
-0
230
1
100
AcDbArc
50
90
51
180
0
LINE
5
126
100
AcDbEntity
8
0
100
AcDbLine
10
67.317882699999927
20
35.499146500000016
30
0
11
80.317882699999927
21
35.499146500000016
31
0
0
ARC
5
127
100
AcDbEntity
8
0
100
AcDbCircle
10
80.317882699999956
20
35.074146500000047
30
0
40
0.42499999999996874
210
-0
220
0
230
1
100
AcDbArc
50
0
51
90.000000000003837
0
LINE
5
128
100
AcDbEntity
8
0
100
AcDbLine
10
80.742882699999939
20
35.074146500000012
30
0
11
80.742882699999939
21
22.074146500000005
31
0
0
ARC
5
129
100
AcDbEntity
8
0
100
AcDbCircle
10
80.317882699999956
20
22.074146499999969
30
0
40
0.42499999999996874
210
0
220
0
230
1
100
AcDbArc
50
-90.000000000003823
51
0
0
LINE
5
130
100
AcDbEntity
8
0
100
AcDbLine
10
80.317882699999927
20
2.5991465000000247
30
0
11
67.317882699999927
21
2.5991465000000264
31
0
0
ARC
5
131
100
AcDbEntity
8
0
100
AcDbCircle
10
67.317882699999927
20
3.0241465000000112
30
0
40
0.42500000000000426
210
0
220
0
230
1
100
AcDbArc
50
180
51
270
0
LINE
5
132
100
AcDbEntity
8
0
100
AcDbLine
10
66.892882699999916
20
3.0241465000000289
30
0
11
66.892882699999916
21
16.024146500000001
31
0
0
ARC
5
133
100
AcDbEntity
8
0
100
AcDbCircle
10
67.317882699999927
20
16.024146500000018
30
0
40
0.4249999999999865
210
0
220
-0
230
1
100
AcDbArc
50
90
51
180
0
LINE
5
134
100
AcDbEntity
8
0
100
AcDbLine
10
67.317882699999927
20
16.449146500000005
30
0
11
80.317882699999927
21
16.449146500000001
31
0
0
ARC
5
135
100
AcDbEntity
8
0
100
AcDbCircle
10
80.317882699999956
20
16.024146500000036
30
0
40
0.42499999999996874
210
-0
220
0
230
1
100
AcDbArc
50
0
51
90.000000000003837
0
LINE
5
136
100
AcDbEntity
8
0
100
AcDbLine
10
80.742882699999939
20
16.024146500000001
30
0
11
80.742882699999939
21
3.0241465000000289
31
0
0
ARC
5
137
100
AcDbEntity
8
0
100
AcDbCircle
10
80.317882699999956
20
3.0241464999999934
30
0
40
0.42499999999996874
210
0
220
0
230
1
100
AcDbArc
50
-90.000000000003823
51
0
0
LINE
5
138
100
AcDbEntity
8
0
100
AcDbLine
10
4.1178826999999352
20
2.5991465000000247
30
0
11
-8.8821173000000542
21
2.5991465000000264
31
0
0
ARC
5
139
100
AcDbEntity
8
0
100
AcDbCircle
10
-8.8821173000000364
20
3.0241465000000467
30
0
40
0.42500000000002203
210
0
220
0
230
1
100
AcDbArc
50
180
51
269.99999999999761
0
LINE
5
140
100
AcDbEntity
8
0
100
AcDbLine
10
-9.3071173000000584
20
3.0241465000000289
30
0
11
-9.3071173000000567
21
16.024146500000001
31
0
0
ARC
5
141
100
AcDbEntity
8
0
100
AcDbCircle
10
-8.8821173000000364
20
16.024146499999983
30
0
40
0.42500000000002203
210
0
220
0
230
1
100
AcDbArc
50
90.000000000002416
51
180
0
LINE
5
142
100
AcDbEntity
8
0
100
AcDbLine
10
-8.8821173000000542
20
16.449146500000005
30
0
11
4.1178826999999352
21
16.449146500000001
31
0
0
ARC
5
143
100
AcDbEntity
8
0
100
AcDbCircle
10
4.1178826999999352
20
16.024146500000001
30
0
40
0.42500000000000426
210
0
220
-0
230
1
100
AcDbArc
50
0
51
90
0
LINE
5
144
100
AcDbEntity
8
0
100
AcDbLine
10
4.5428826999999394
20
16.024146500000001
30
0
11
4.5428826999999377
21
3.0241465000000289
31
0
0
ARC
5
145
100
AcDbEntity
8
0
100
AcDbCircle
10
4.1178826999999352
20
3.0241465000000289
30
0
40
0.42500000000000426
210
-0
220
0
230
1
100
AcDbArc
50
-90
51
0
0
ARC
5
146
100
AcDbEntity
8
0
100
AcDbCircle
10
-85.08211730000005
20
3.0241465000000467
30
0
40
0.42500000000002203
210
0
220
0
230
1
100
AcDbArc
50
180
51
269.99999999999807
0
LINE
5
147
100
AcDbEntity
8
0
100
AcDbLine
10
-72.08211730000005
20
2.5991465000000424
30
0
11
-85.082117300000064
21
2.5991465000000264
31
0
0
ARC
5
148
100
AcDbEntity
8
0
100
AcDbCircle
10
-72.08211730000005
20
3.0241465000000289
30
0
40
0.4249999999999865
210
0
220
0
230
1
100
AcDbArc
50
270
51
360
0
LINE
5
149
100
AcDbEntity
8
0
100
AcDbLine
10
-71.657117300000053
20
16.024146500000001
30
0
11
-71.657117300000053
21
3.0241465000000112
31
0
0
ARC
5
150
100
AcDbEntity
8
0
100
AcDbCircle
10
-72.082117300000064
20
16.024146499999983
30
0
40
0.42500000000001315
210
0
220
-0
230
1
100
AcDbArc
50
0
51
89.999999999998082
0
LINE
5
151
100
AcDbEntity
8
0
100
AcDbLine
10
-85.082117300000064
20
16.449146499999987
30
0
11
-72.08211730000005
21
16.449146500000001
31
0
0
ARC
5
152
100
AcDbEntity
8
0
100
AcDbCircle
10
-85.082117300000078
20
16.024146500000001
30
0
40
0.4249999999999865
210
0
220
-0
230
1
100
AcDbArc
50
89.999999999998082
51
180
0
LINE
5
153
100
AcDbEntity
8
0
100
AcDbLine
10
-85.507117300000061
20
3.0241465000000289
30
0
11
-85.507117300000047
21
16.024146500000001
31
0
0
LINE
5
154
100
AcDbEntity
8
0
100
AcDbLine
10
-75.982117300000056
20
-16.025853499999982
30
0
11
-75.982117300000056
21
-3.0258534999999753
31
0
0
ARC
5
155
100
AcDbEntity
8
0
100
AcDbCircle
10
-75.557117300000073
20
-3.0258534999999753
30
0
40
0.4249999999999865
210
0
220
-0
230
1
100
AcDbArc
50
89.999999999998082
51
180
0
LINE
5
156
100
AcDbEntity
8
0
100
AcDbLine
10
-75.557117300000058
20
-2.6008534999999888
30
0
11
-62.557117300000051
21
-2.6008534999999728
31
0
0
ARC
5
157
100
AcDbEntity
8
0
100
AcDbCircle
10
-62.557117300000073
20
-3.0258534999999931
30
0
40
0.42500000000002203
210
0
220
-0
230
1
100
AcDbArc
50
0
51
89.999999999997129
0
LINE
5
158
100
AcDbEntity
8
0
100
AcDbLine
10
-62.132117300000047
20
-3.0258534999999753
30
0
11
-62.132117300000054
21
-16.0258535
31
0
0
ARC
5
159
100
AcDbEntity
8
0
100
AcDbCircle
10
-62.557117300000044
20
-16.025853499999982
30
0
40
0.4249999999999865
210
0
220
0
230
1
100
AcDbArc
50
269.99999999999903
51
360
0
LINE
5
160
100
AcDbEntity
8
0
100
AcDbLine
10
-62.557117300000051
20
-16.450853499999969
30
0
11
-75.557117300000058
21
-16.450853499999983
31
0
0
ARC
5
161
100
AcDbEntity
8
0
100
AcDbCircle
10
-75.557117300000044
20
-16.025853499999965
30
0
40
0.42500000000002203
210
0
220
0
230
1
100
AcDbArc
50
180
51
269.99999999999807
0
LINE
5
162
100
AcDbEntity
8
0
100
AcDbLine
10
13.642882699999941
20
-16.450853499999987
30
0
11
0.64288269999995151
21
-16.450853499999983
31
0
0
ARC
5
163
100
AcDbEntity
8
0
100
AcDbCircle
10
0.64288269999996928
20
-16.025853499999965
30
0
40
0.42500000000002203
210
0
220
0
230
1
100
AcDbArc
50
180
51
269.99999999999761
0
LINE
5
164
100
AcDbEntity
8
0
100
AcDbLine
10
0.21788269999994725
20
-16.025853499999982
30
0
11
0.21788269999994886
21
-3.0258534999999753
31
0
0
ARC
5
165
100
AcDbEntity
8
0
100
AcDbCircle
10
0.64288269999996928
20
-3.0258534999999931
30
0
40
0.42500000000002203
210
0
220
0
230
1
100
AcDbArc
50
90.000000000002373
51
180
0
LINE
5
166
100
AcDbEntity
8
0
100
AcDbLine
10
0.64288269999995151
20
-2.6008534999999711
30
0
11
13.642882699999941
21
-2.6008534999999728
31
0
0
ARC
5
167
100
AcDbEntity
8
0
100
AcDbCircle
10
13.642882699999941
20
-3.0258534999999753
30
0
40
0.42500000000000426
210
0
220
-0
230
1
100
AcDbArc
50
0
51
90
0
LINE
5
168
100
AcDbEntity
8
0
100
AcDbLine
10
14.067882699999945
20
-3.0258534999999753
30
0
11
14.067882699999943
21
-16.025853499999982
31
0
0
ARC
5
169
100
AcDbEntity
8
0
100
AcDbCircle
10
13.642882699999941
20
-16.025853499999982
30
0
40
0.42500000000000426
210
-0
220
0
230
1
100
AcDbArc
50
-90
51
0
0
LINE
5
170
100
AcDbEntity
8
0
100
AcDbLine
10
90.267882699999944
20
-3.0258534999999753
30
0
11
90.267882699999944
21
-16.025853499999982
31
0
0
ARC
5
171
100
AcDbEntity
8
0
100
AcDbCircle
10
89.842882699999933
20
-16.025853499999982
30
0
40
0.42500000000000426
210
-0
220
0
230
1
100
AcDbArc
50
-90
51
0
0
LINE
5
172
100
AcDbEntity
8
0
100
AcDbLine
10
89.842882699999933
20
-16.450853499999987
30
0
11
76.842882699999933
21
-16.450853500000019
31
0
0
ARC
5
173
100
AcDbEntity
8
0
100
AcDbCircle
10
76.842882699999933
20
-16.0258535
30
0
40
0.42500000000000426
210
0
220
0
230
1
100
AcDbArc
50
180
51
270
0
LINE
5
174
100
AcDbEntity
8
0
100
AcDbLine
10
76.417882699999922
20
-16.025853499999982
30
0
11
76.41788269999995
21
-3.0258534999999753
31
0
0
ARC
5
175
100
AcDbEntity
8
0
100
AcDbCircle
10
76.842882699999933
20
-3.0258534999999753
30
0
40
0.42499999999996874
210
0
220
-0
230
1
100
AcDbArc
50
90
51
180
0
LINE
5
176
100
AcDbEntity
8
0
100
AcDbLine
10
76.842882699999933
20
-2.6008535000000066
30
0
11
89.842882699999933
21
-2.6008534999999551
31
0
0
ARC
5
177
100
AcDbEntity
8
0
100
AcDbCircle
10
89.842882699999933
20
-3.0258534999999753
30
0
40
0.42500000000000426
210
0
220
-0
230
1
100
AcDbArc
50
0
51
90
0
ARC
5
178
100
AcDbEntity
8
0
100
AcDbCircle
10
53.030382699999912
20
-35.075853500000008
30
0
40
0.42499999999996874
210
0
220
0
230
1
100
AcDbArc
50
180
51
270.00000000000477
0
LINE
5
179
100
AcDbEntity
8
0
100
AcDbLine
10
66.030382699999919
20
-35.500853499999977
30
0
11
53.030382699999947
21
-35.500853499999977
31
0
0
ARC
5
180
100
AcDbEntity
8
0
100
AcDbCircle
10
66.030382699999961
20
-35.075853500000008
30
0
40
0.42499999999996874
210
0
220
0
230
1
100
AcDbArc
50
-90.000000000005755
51
0
0
LINE
5
181
100
AcDbEntity
8
0
100
AcDbLine
10
66.455382699999916
20
-22.075853499999987
30
0
11
66.455382699999916
21
-35.075853499999987
31
0
0
ARC
5
182
100
AcDbEntity
8
0
100
AcDbCircle
10
66.030382699999961
20
-22.075853499999951
30
0
40
0.42499999999996874
210
-0
220
0
230
1
100
AcDbArc
50
0
51
90.000000000005755
0
LINE
5
183
100
AcDbEntity
8
0
100
AcDbLine
10
53.030382699999947
20
-21.650853499999982
30
0
11
66.030382699999919
21
-21.650853499999982
31
0
0
ARC
5
184
100
AcDbEntity
8
0
100
AcDbCircle
10
53.030382699999912
20
-22.075853499999951
30
0
40
0.42499999999996874
210
0
220
-0
230
1
100
AcDbArc
50
89.999999999995211
51
180
0
LINE
5
185
100
AcDbEntity
8
0
100
AcDbLine
10
52.605382699999943
20
-35.075853499999987
30
0
11
52.605382699999943
21
-22.075853499999987
31
0
0
ARC
5
186
100
AcDbEntity
8
0
100
AcDbCircle
10
-10.169617300000073
20
-22.075853500000004
30
0
40
0.42500000000002203
210
0
220
-0
230
1
100
AcDbArc
50
0
51
89.999999999997613
0
LINE
5
187
100
AcDbEntity
8
0
100
AcDbLine
10
-23.169617300000063
20
-21.650853499999982
30
0
11
-10.169617300000056
21
-21.650853499999982
31
0
0
ARC
5
188
100
AcDbEntity
8
0
100
AcDbCircle
10
-23.169617300000045
20
-22.075853500000004
30
0
40
0.42500000000002203
210
0
220
0
230
1
100
AcDbArc
50
90.000000000002416
51
180
0
LINE
5
189
100
AcDbEntity
8
0
100
AcDbLine
10
-23.594617300000067
20
-35.07585349999998
30
0
11
-23.594617300000085
21
-22.075853499999969
31
0
0
ARC
5
190
100
AcDbEntity
8
0
100
AcDbCircle
10
-23.169617300000063
20
-35.075853499999987
30
0
40
0.42500000000000426
210
0
220
0
230
1
100
AcDbArc
50
180
51
270
0
LINE
5
191
100
AcDbEntity
8
0
100
AcDbLine
10
-10.169617300000056
20
-35.500853499999977
30
0
11
-23.169617300000063
21
-35.500853499999998
31
0
0
ARC
5
192
100
AcDbEntity
8
0
100
AcDbCircle
10
-10.169617300000056
20
-35.07585349999998
30
0
40
0.42500000000000426
210
-0
220
0
230
1
100
AcDbArc
50
-90
51
0
0
LINE
5
193
100
AcDbEntity
8
0
100
AcDbLine
10
-9.7446173000000513
20
-22.075853499999987
30
0
11
-9.7446173000000353
21
-35.075853499999987
31
0
0
ARC
5
194
100
AcDbEntity
8
0
100
AcDbCircle
10
-86.369617300000044
20
-35.075853499999987
30
0
40
0.42499999999999538
210
0
220
0
230
1
100
AcDbArc
50
-90.000000000003823
51
0
0
LINE
5
195
100
AcDbEntity
8
0
100
AcDbLine
10
-85.944617300000061
20
-22.075853499999987
30
0
11
-85.944617300000061
21
-35.075853499999987
31
0
0
ARC
5
196
100
AcDbEntity
8
0
100
AcDbCircle
10
-86.369617300000073
20
-22.075853500000004
30
0
40
0.42500000000000426
210
0
220
-0
230
1
100
AcDbArc
50
0
51
90
0
LINE
5
197
100
AcDbEntity
8
0
100
AcDbLine
10
-99.369617300000073
20
-21.6508535
30
0
11
-86.369617300000073
21
-21.650853499999982
31
0
0
ARC
5
198
100
AcDbEntity
8
0
100
AcDbCircle
10
-99.369617300000073
20
-22.075853499999987
30
0
40
0.4249999999999865
210
0
220
-0
230
1
100
AcDbArc
50
89.999999999998082
51
180
0
LINE
5
199
100
AcDbEntity
8
0
100
AcDbLine
10
-99.794617300000084
20
-35.07585349999998
30
0
11
-99.794617300000056
21
-22.075853499999958
31
0
0
ARC
5
200
100
AcDbEntity
8
0
100
AcDbCircle
10
-99.369617300000073
20
-35.07585349999998
30
0
40
0.42500000000000426
210
0
220
0
230
1
100
AcDbArc
50
180
51
270
0
LINE
5
201
100
AcDbEntity
8
0
100
AcDbLine
10
-86.369617300000073
20
-35.500853499999977
30
0
11
-99.369617300000073
21
-35.500853499999998
31
0
0
ARC
5
202
100
AcDbEntity
8
0
100
AcDbCircle
10
-67.319617300000061
20
-35.07585349999998
30
0
40
0.42499999999999538
210
-0
220
0
230
1
100
AcDbArc
50
270
51
360
0
LINE
5
203
100
AcDbEntity
8
0
100
AcDbLine
10
-66.89461730000005
20
-22.075853499999987
30
0
11
-66.894617300000064
21
-35.075853499999987
31
0
0
ARC
5
204
100
AcDbEntity
8
0
100
AcDbCircle
10
-67.319617300000075
20
-22.075853500000004
30
0
40
0.42500000000002203
210
0
220
-0
230
1
100
AcDbArc
50
0
51
89.999999999998082
0
LINE
5
205
100
AcDbEntity
8
0
100
AcDbLine
10
-80.319617300000061
20
-21.6508535
30
0
11
-67.319617300000061
21
-21.650853499999982
31
0
0
ARC
5
206
100
AcDbEntity
8
0
100
AcDbCircle
10
-80.319617300000061
20
-22.075853499999987
30
0
40
0.4249999999999865
210
0
220
-0
230
1
100
AcDbArc
50
89.999999999998082
51
180
0
LINE
5
207
100
AcDbEntity
8
0
100
AcDbLine
10
-80.744617300000073
20
-35.07585349999998
30
0
11
-80.744617300000044
21
-22.075853499999969
31
0
0
ARC
5
208
100
AcDbEntity
8
0
100
AcDbCircle
10
-80.319617300000061
20
-35.075853499999994
30
0
40
0.42500000000000426
210
0
220
0
230
1
100
AcDbArc
50
180
51
270.00000000000193
0
LINE
5
209
100
AcDbEntity
8
0
100
AcDbLine
10
-67.319617300000061
20
-35.50085349999997
30
0
11
-80.319617300000061
21
-35.500853499999991
31
0
0
ARC
5
210
100
AcDbEntity
8
0
100
AcDbCircle
10
-4.1196173000000336
20
-22.075853500000004
30
0
40
0.42500000000002203
210
0
220
0
230
1
100
AcDbArc
50
90.000000000002416
51
180
0
LINE
5
211
100
AcDbEntity
8
0
100
AcDbLine
10
-4.5446173000000556
20
-35.07585349999998
30
0
11
-4.5446173000000716
21
-22.07585349999998
31
0
0
ARC
5
212
100
AcDbEntity
8
0
100
AcDbCircle
10
-4.1196173000000513
20
-35.07585349999998
30
0
40
0.42500000000000426
210
0
220
0
230
1
100
AcDbArc
50
180
51
270
0
LINE
5
213
100
AcDbEntity
8
0
100
AcDbLine
10
8.8803826999999202
20
-35.500853499999977
30
0
11
-4.1196173000000513
21
-35.500853499999977
31
0
0
ARC
5
214
100
AcDbEntity
8
0
100
AcDbCircle
10
8.8803826999999202
20
-35.07585349999998
30
0
40
0.42500000000000426
210
-0
220
0
230
1
100
AcDbArc
50
-90
51
0
0
LINE
5
215
100
AcDbEntity
8
0
100
AcDbLine
10
9.3053826999999245
20
-22.075853499999987
30
0
11
9.3053826999999405
21
-35.075853499999987
31
0
0
ARC
5
216
100
AcDbEntity
8
0
100
AcDbCircle
10
8.8803826999999025
20
-22.075853500000004
30
0
40
0.42500000000002203
210
0
220
-0
230
1
100
AcDbArc
50
0
51
89.999999999997613
0
LINE
5
217
100
AcDbEntity
8
0
100
AcDbLine
10
-4.1196173000000513
20
-21.650853499999982
30
0
11
8.8803826999999202
21
-21.650853499999982
31
0
0
LINE
5
218
100
AcDbEntity
8
0
100
AcDbLine
10
85.080382699999973
20
-35.500853499999977
30
0
11
72.080382699999959
21
-35.500853499999977
31
0
0
ARC
5
219
100
AcDbEntity
8
0
100
AcDbCircle
10
72.080382699999916
20
-35.075853500000008
30
0
40
0.42499999999996874
210
0
220
0
230
1
100
AcDbArc
50
180
51
270.00000000000574
0
LINE
5
220
100
AcDbEntity
8
0
100
AcDbLine
10
71.655382699999961
20
-35.075853499999987
30
0
11
71.655382699999961
21
-22.075853499999987
31
0
0
ARC
5
221
100
AcDbEntity
8
0
100
AcDbCircle
10
72.080382699999916
20
-22.075853499999951
30
0
40
0.42499999999996874
210
0
220
-0
230
1
100
AcDbArc
50
89.999999999994273
51
180
0
LINE
5
222
100
AcDbEntity
8
0
100
AcDbLine
10
72.080382699999959
20
-21.650853499999982
30
0
11
85.080382699999973
21
-21.650853499999982
31
0
0
ARC
5
223
100
AcDbEntity
8
0
100
AcDbCircle
10
85.080382699999973
20
-22.075853499999969
30
0
40
0.42500000000000426
210
-0
220
0
230
1
100
AcDbArc
50
0
51
90
0
LINE
5
224
100
AcDbEntity
8
0
100
AcDbLine
10
85.50538269999997
20
-22.075853499999987
30
0
11
85.50538269999997
21
-35.075853499999987
31
0
0
ARC
5
225
100
AcDbEntity
8
0
100
AcDbCircle
10
85.080382700000001
20
-35.075853499999994
30
0
40
0.4249999999999865
210
0
220
0
230
1
100
AcDbArc
50
-90.000000000003823
51
0
0
ARC
5
226
100
AcDbEntity
8
0
100
AcDbCircle
10
70.79288269999995
20
-16.0258535
30
0
40
0.4249999999999865
210
-0
220
0
230
1
100
AcDbArc
50
-90
51
0
0
LINE
5
227
100
AcDbEntity
8
0
100
AcDbLine
10
71.217882699999961
20
-3.0258534999999753
30
0
11
71.217882699999933
21
-16.025853499999982
31
0
0
ARC
5
228
100
AcDbEntity
8
0
100
AcDbCircle
10
70.79288269999995
20
-3.0258534999999576
30
0
40
0.42500000000000426
210
-0
220
0
230
1
100
AcDbArc
50
0
51
90
0
LINE
5
229
100
AcDbEntity
8
0
100
AcDbLine
10
57.79288269999995
20
-2.6008534999999711
30
0
11
70.79288269999995
21
-2.6008534999999551
31
0
0
ARC
5
230
100
AcDbEntity
8
0
100
AcDbCircle
10
57.792882699999915
20
-3.0258534999999398
30
0
40
0.42499999999996874
210
0
220
-0
230
1
100
AcDbArc
50
89.999999999995211
51
180
0
LINE
5
231
100
AcDbEntity
8
0
100
AcDbLine
10
57.367882699999946
20
-16.025853499999982
30
0
11
57.367882699999946
21
-3.0258534999999576
31
0
0
ARC
5
232
100
AcDbEntity
8
0
100
AcDbCircle
10
57.792882699999915
20
-16.025853500000018
30
0
40
0.42499999999996874
210
0
220
0
230
1
100
AcDbArc
50
180
51
270.00000000000477
0
LINE
5
233
100
AcDbEntity
8
0
100
AcDbLine
10
70.79288269999995
20
-16.450853499999987
30
0
11
57.79288269999995
21
-16.450853499999983
31
0
0
ARC
5
234
100
AcDbEntity
8
0
100
AcDbCircle
10
-18.407117300000042
20
-16.025853499999965
30
0
40
0.42500000000002203
210
0
220
0
230
1
100
AcDbArc
50
180
51
269.99999999999761
0
LINE
5
235
100
AcDbEntity
8
0
100
AcDbLine
10
-5.4071173000000705
20
-16.450853499999987
30
0
11
-18.40711730000006
21
-16.450853499999983
31
0
0
ARC
5
236
100
AcDbEntity
8
0
100
AcDbCircle
10
-5.4071173000000705
20
-16.025853499999982
30
0
40
0.42500000000000426
210
-0
220
0
230
1
100
AcDbArc
50
-90
51
0
0
LINE
5
237
100
AcDbEntity
8
0
100
AcDbLine
10
-4.9821173000000663
20
-3.0258534999999753
30
0
11
-4.982117300000068
21
-16.025853499999982
31
0
0
ARC
5
238
100
AcDbEntity
8
0
100
AcDbCircle
10
-5.4071173000000705
20
-3.0258534999999753
30
0
40
0.42500000000000426
210
0
220
-0
230
1
100
AcDbArc
50
0
51
90
0
LINE
5
239
100
AcDbEntity
8
0
100
AcDbLine
10
-18.40711730000006
20
-2.6008534999999711
30
0
11
-5.4071173000000705
21
-2.6008534999999728
31
0
0
ARC
5
240
100
AcDbEntity
8
0
100
AcDbCircle
10
-18.407117300000042
20
-3.0258534999999931
30
0
40
0.42500000000002203
210
0
220
0
230
1
100
AcDbArc
50
90.000000000002416
51
180
0
LINE
5
241
100
AcDbEntity
8
0
100
AcDbLine
10
-18.832117300000064
20
-16.025853499999982
30
0
11
-18.832117300000061
21
-3.0258534999999753
31
0
0
LINE
5
242
100
AcDbEntity
8
0
100
AcDbLine
10
-81.182117300000058
20
-3.0258534999999753
30
0
11
-81.182117300000058
21
-16.025853499999982
31
0
0
ARC
5
243
100
AcDbEntity
8
0
100
AcDbCircle
10
-81.607117300000084
20
-16.025853499999965
30
0
40
0.42500000000002203
210
-0
220
0
230
1
100
AcDbArc
50
270.00000000000381
51
360
0
LINE
5
244
100
AcDbEntity
8
0
100
AcDbLine
10
-81.607117300000056
20
-16.450853499999987
30
0
11
-94.60711730000007
21
-16.450853499999983
31
0
0
ARC
5
245
100
AcDbEntity
8
0
100
AcDbCircle
10
-94.607117300000027
20
-16.025853499999965
30
0
40
0.42500000000003979
210
0
220
0
230
1
100
AcDbArc
50
180
51
269.99999999999619
0
LINE
5
246
100
AcDbEntity
8
0
100
AcDbLine
10
-95.032117300000067
20
-16.025853499999982
30
0
11
-95.032117300000067
21
-3.0258534999999753
31
0
0
ARC
5
247
100
AcDbEntity
8
0
100
AcDbCircle
10
-94.60711730000007
20
-3.0258534999999931
30
0
40
0.42500000000000426
210
0
220
-0
230
1
100
AcDbArc
50
90
51
180
0
LINE
5
248
100
AcDbEntity
8
0
100
AcDbLine
10
-94.60711730000007
20
-2.6008534999999888
30
0
11
-81.607117300000084
21
-2.6008534999999728
31
0
0
ARC
5
249
100
AcDbEntity
8
0
100
AcDbCircle
10
-81.607117300000084
20
-3.0258534999999931
30
0
40
0.42500000000002203
210
0
220
-0
230
1
100
AcDbArc
50
0
51
90
0
ARC
5
250
100
AcDbEntity
8
0
100
AcDbCircle
10
-66.032117300000039
20
3.0241465000000467
30
0
40
0.42500000000002203
210
0
220
0
230
1
100
AcDbArc
50
180
51
270
0
LINE
5
251
100
AcDbEntity
8
0
100
AcDbLine
10
-53.032117300000067
20
2.5991465000000247
30
0
11
-66.032117300000039
21
2.5991465000000087
31
0
0
ARC
5
252
100
AcDbEntity
8
0
100
AcDbCircle
10
-53.032117300000088
20
3.0241465000000467
30
0
40
0.42500000000002203
210
-0
220
0
230
1
100
AcDbArc
50
270.00000000000284
51
360
0
LINE
5
253
100
AcDbEntity
8
0
100
AcDbLine
10
-52.607117300000056
20
16.024146500000001
30
0
11
-52.607117300000056
21
3.0241464999999934
31
0
0
ARC
5
254
100
AcDbEntity
8
0
100
AcDbCircle
10
-53.032117300000053
20
16.024146500000001
30
0
40
0.42499999999999538
210
0
220
-0
230
1
100
AcDbArc
50
0
51
90.000000000001918
0
LINE
5
255
100
AcDbEntity
8
0
100
AcDbLine
10
-66.032117300000053
20
16.449146499999987
30
0
11
-53.032117300000067
21
16.449146500000019
31
0
0
ARC
5
256
100
AcDbEntity
8
0
100
AcDbCircle
10
-66.032117300000067
20
16.024146500000001
30
0
40
0.4249999999999865
210
0
220
-0
230
1
100
AcDbArc
50
89.999999999998082
51
180
0
LINE
5
257
100
AcDbEntity
8
0
100
AcDbLine
10
-66.45711730000005
20
3.0241465000000289
30
0
11
-66.457117300000064
21
16.024146500000001
31
0
0
LINE
5
258
100
AcDbEntity
8
0
100
AcDbLine
10
23.167882699999947
20
2.5991465000000247
30
0
11
10.167882699999957
21
2.5991465000000264
31
0
0
ARC
5
259
100
AcDbEntity
8
0
100
AcDbCircle
10
10.167882699999975
20
3.0241465000000467
30
0
40
0.42500000000002203
210
0
220
0
230
1
100
AcDbArc
50
180
51
269.99999999999761
0
LINE
5
260
100
AcDbEntity
8
0
100
AcDbLine
10
9.7428826999999529
20
3.0241465000000289
30
0
11
9.7428826999999547
21
16.024146500000036
31
0
0
ARC
5
261
100
AcDbEntity
8
0
100
AcDbCircle
10
10.167882699999957
20
16.024146500000001
30
0
40
0.42500000000000426
210
0
220
-0
230
1
100
AcDbArc
50
90
51
180
0
LINE
5
262
100
AcDbEntity
8
0
100
AcDbLine
10
10.167882699999957
20
16.449146500000005
30
0
11
23.167882699999947
21
16.449146500000001
31
0
0
ARC
5
263
100
AcDbEntity
8
0
100
AcDbCircle
10
23.167882699999947
20
16.024146500000001
30
0
40
0.42500000000000426
210
0
220
-0
230
1
100
AcDbArc
50
0
51
90
0
LINE
5
264
100
AcDbEntity
8
0
100
AcDbLine
10
23.592882699999951
20
16.024146500000001
30
0
11
23.592882699999951
21
3.0241465000000289
31
0
0
ARC
5
265
100
AcDbEntity
8
0
100
AcDbCircle
10
23.167882699999947
20
3.0241465000000289
30
0
40
0.42500000000000426
210
-0
220
0
230
1
100
AcDbArc
50
-90
51
0
0
LINE
5
266
100
AcDbEntity
8
0
100
AcDbLine
10
85.942882699999927
20
3.0241465000000289
30
0
11
85.942882699999956
21
16.024146500000036
31
0
0
ARC
5
267
100
AcDbEntity
8
0
100
AcDbCircle
10
86.367882699999939
20
16.024146500000018
30
0
40
0.42499999999995097
210
0
220
-0
230
1
100
AcDbArc
50
90
51
180
0
LINE
5
268
100
AcDbEntity
8
0
100
AcDbLine
10
86.367882699999939
20
16.449146499999969
30
0
11
99.367882699999939
21
16.449146500000001
31
0
0
ARC
5
269
100
AcDbEntity
8
0
100
AcDbCircle
10
99.367882699999939
20
16.024146500000001
30
0
40
0.42500000000000426
210
0
220
-0
230
1
100
AcDbArc
50
0
51
90
0
LINE
5
270
100
AcDbEntity
8
0
100
AcDbLine
10
99.79288269999995
20
16.024146500000001
30
0
11
99.79288269999995
21
3.0241464999999934
31
0
0
ARC
5
271
100
AcDbEntity
8
0
100
AcDbCircle
10
99.367882699999939
20
3.0241465000000467
30
0
40
0.42500000000002203
210
-0
220
0
230
1
100
AcDbArc
50
270
51
360
0
LINE
5
272
100
AcDbEntity
8
0
100
AcDbLine
10
99.367882699999939
20
2.5991465000000247
30
0
11
86.367882699999939
21
2.5991464999999909
31
0
0
ARC
5
273
100
AcDbEntity
8
0
100
AcDbCircle
10
86.367882699999939
20
3.0241465000000112
30
0
40
0.42500000000000426
210
0
220
0
230
1
100
AcDbArc
50
180
51
270
0
LINE
5
274
100
AcDbEntity
8
0
100
AcDbLine
10
54.549132699999952
20
35.074146500000012
30
0
11
54.549132699999952
21
22.074146500000005
31
0
0
ARC
5
275
100
AcDbEntity
8
0
100
AcDbCircle
10
54.124132699999983
20
22.074146499999969
30
0
40
0.42499999999996874
210
0
220
0
230
1
100
AcDbArc
50
-90.000000000004775
51
0
0
LINE
5
276
100
AcDbEntity
8
0
100
AcDbLine
10
54.124132699999947
20
21.649146500000001
30
0
11
41.12413269999994
21
21.649146500000001
31
0
0
ARC
5
277
100
AcDbEntity
8
0
100
AcDbCircle
10
41.12413269999994
20
22.074146499999987
30
0
40
0.42500000000000426
210
0
220
0
230
1
100
AcDbArc
50
180
51
270
0
LINE
5
278
100
AcDbEntity
8
0
100
AcDbLine
10
40.699132699999936
20
22.074146500000005
30
0
11
40.699132699999971
21
35.074146500000012
31
0
0
ARC
5
279
100
AcDbEntity
8
0
100
AcDbCircle
10
41.12413269999994
20
35.074146500000026
30
0
40
0.4249999999999865
210
0
220
-0
230
1
100
AcDbArc
50
90
51
180
0
LINE
5
280
100
AcDbEntity
8
0
100
AcDbLine
10
41.12413269999994
20
35.499146500000016
30
0
11
54.124132699999947
21
35.499146500000016
31
0
0
ARC
5
281
100
AcDbEntity
8
0
100
AcDbCircle
10
54.124132699999983
20
35.074146500000047
30
0
40
0.42499999999996874
210
-0
220
0
230
1
100
AcDbArc
50
0
51
90.000000000004803
0
LINE
5
282
100
AcDbEntity
8
0
100
AcDbLine
10
-8.4503673000000568
20
35.074146500000012
30
0
11
-8.4503673000000585
21
21.074146500000026
31
0
0
ARC
5
283
100
AcDbEntity
8
0
100
AcDbCircle
10
-8.875367300000061
20
21.074146500000026
30
0
40
0.42500000000000426
210
-0
220
0
230
1
100
AcDbArc
50
-90
51
0
0
LINE
5
284
100
AcDbEntity
8
0
100
AcDbLine
10
-8.875367300000061
20
20.649146500000022
30
0
11
-14.875367300000057
21
20.649146500000022
31
0
0
ARC
5
285
100
AcDbEntity
8
0
100
AcDbCircle
10
-14.87536730000004
20
21.074146500000044
30
0
40
0.42500000000002203
210
0
220
0
230
1
100
AcDbArc
50
180
51
269.99999999999761
0
LINE
5
286
100
AcDbEntity
8
0
100
AcDbLine
10
-15.300367300000062
20
21.074146500000026
30
0
11
-15.30036730000006
21
35.074146500000012
31
0
0
ARC
5
287
100
AcDbEntity
8
0
100
AcDbCircle
10
-14.87536730000004
20
35.074146499999998
30
0
40
0.42500000000002203
210
0
220
0
230
1
100
AcDbArc
50
90.000000000002416
51
180
0
LINE
5
288
100
AcDbEntity
8
0
100
AcDbLine
10
-14.875367300000057
20
35.499146500000016
30
0
11
-8.875367300000061
21
35.499146500000016
31
0
0
ARC
5
289
100
AcDbEntity
8
0
100
AcDbCircle
10
-8.875367300000061
20
35.074146500000012
30
0
40
0.42500000000000426
210
0
220
-0
230
1
100
AcDbArc
50
0
51
90
0
ARC
5
290
100
AcDbEntity
8
0
100
AcDbCircle
10
-89.844617300000039
20
22.074146500000023
30
0
40
0.42500000000002203
210
0
220
0
230
1
100
AcDbArc
50
180
51
270
0
LINE
5
291
100
AcDbEntity
8
0
100
AcDbLine
10
-76.844617300000067
20
21.649146500000001
30
0
11
-89.844617300000053
21
21.649146500000001
31
0
0
ARC
5
292
100
AcDbEntity
8
0
100
AcDbCircle
10
-76.844617300000067
20
22.074146500000023
30
0
40
0.42500000000002203
210
-0
220
0
230
1
100
AcDbArc
50
270
51
360
0
LINE
5
293
100
AcDbEntity
8
0
100
AcDbLine
10
-76.419617300000056
20
35.074146500000012
30
0
11
-76.419617300000041
21
22.074146499999987
31
0
0
ARC
5
294
100
AcDbEntity
8
0
100
AcDbCircle
10
-76.844617300000067
20
35.074146499999998
30
0
40
0.42500000000001315
210
0
220
-0
230
1
100
AcDbArc
50
0
51
90
0
LINE
5
295
100
AcDbEntity
8
0
100
AcDbLine
10
-89.844617300000067
20
35.499146499999995
30
0
11
-76.844617300000067
21
35.499146499999995
31
0
0
ARC
5
296
100
AcDbEntity
8
0
100
AcDbCircle
10
-89.844617300000067
20
35.074146500000012
30
0
40
0.4249999999999865
210
0
220
-0
230
1
100
AcDbArc
50
89.999999999998082
51
180
0
LINE
5
297
100
AcDbEntity
8
0
100
AcDbLine
10
-90.269617300000078
20
22.074146500000005
30
0
11
-90.26961730000005
21
35.074146500000026
31
0
0
ARC
5
298
100
AcDbEntity
8
0
100
AcDbCircle
10
-38.751367300000069
20
35.074146500000012
30
0
40
0.42500000000000426
210
0
220
-0
230
1
100
AcDbArc
50
90
51
180
0
LINE
5
299
100
AcDbEntity
8
0
100
AcDbLine
10
-39.176367300000067
20
21.074146500000026
30
0
11
-39.176367300000067
21
35.074146500000012
31
0
0
ARC
5
300
100
AcDbEntity
8
0
100
AcDbCircle
10
-38.751367300000069
20
21.074146500000026
30
0
40
0.42500000000000426
210
0
220
0
230
1
100
AcDbArc
50
180
51
270
0
LINE
5
301
100
AcDbEntity
8
0
100
AcDbLine
10
-32.751367300000055
20
20.64914650000004
30
0
11
-38.751367300000069
21
20.649146500000022
31
0
0
ARC
5
302
100
AcDbEntity
8
0
100
AcDbCircle
10
-32.751367300000013
20
21.074146499999991
30
0
40
0.42499999999995097
210
0
220
0
230
1
100
AcDbArc
50
-90.000000000005755
51
0
0
LINE
5
303
100
AcDbEntity
8
0
100
AcDbLine
10
-32.326367300000044
20
35.074146500000012
30
0
11
-32.326367300000065
21
21.074146500000026
31
0
0
ARC
5
304
100
AcDbEntity
8
0
100
AcDbCircle
10
-32.751367300000055
20
35.074146500000012
30
0
40
0.42500000000000426
210
0
220
-0
230
1
100
AcDbArc
50
0
51
90
0
LINE
5
305
100
AcDbEntity
8
0
100
AcDbLine
10
-38.751367300000069
20
35.499146500000016
30
0
11
-32.751367300000055
21
35.499146500000016
31
0
0
ARC
5
306
100
AcDbEntity
8
0
100
AcDbCircle
10
23.167882699999947
20
22.074146500000005
30
0
40
0.42500000000000426
210
-0
220
0
230
1
100
AcDbArc
50
-90
51
0
0
LINE
5
307
100
AcDbEntity
8
0
100
AcDbLine
10
23.592882699999951
20
35.074146500000012
30
0
11
23.592882699999951
21
22.074146500000005
31
0
0
ARC
5
308
100
AcDbEntity
8
0
100
AcDbCircle
10
23.167882699999947
20
35.074146500000012
30
0
40
0.42500000000000426
210
0
220
-0
230
1
100
AcDbArc
50
0
51
90
0
LINE
5
309
100
AcDbEntity
8
0
100
AcDbLine
10
10.167882699999957
20
35.499146500000016
30
0
11
23.167882699999947
21
35.499146500000016
31
0
0
ARC
5
310
100
AcDbEntity
8
0
100
AcDbCircle
10
10.167882699999975
20
35.074146499999998
30
0
40
0.42500000000002203
210
0
220
0
230
1
100
AcDbArc
50
90.000000000002416
51
180
0
LINE
5
311
100
AcDbEntity
8
0
100
AcDbLine
10
9.7428826999999529
20
22.074146500000005
30
0
11
9.7428826999999547
21
35.074146500000012
31
0
0
ARC
5
312
100
AcDbEntity
8
0
100
AcDbCircle
10
10.167882699999975
20
22.074146500000023
30
0
40
0.42500000000002203
210
0
220
0
230
1
100
AcDbArc
50
180
51
269.99999999999761
0
LINE
5
313
100
AcDbEntity
8
0
100
AcDbLine
10
23.167882699999947
20
21.649146500000001
30
0
11
10.167882699999957
21
21.649146500000001
31
0
0
ARC
5
314
100
AcDbEntity
8
0
100
AcDbCircle
10
111.27413269999994
20
22.074146500000023
30
0
40
0.42500000000002203
210
-0
220
0
230
1
100
AcDbArc
50
270
51
360
0
LINE
5
315
100
AcDbEntity
8
0
100
AcDbLine
10
111.69913269999995
20
35.074146500000012
30
0
11
111.69913269999998
21
22.074146500000005
31
0
0
ARC
5
316
100
AcDbEntity
8
0
100
AcDbCircle
10
111.27413269999994
20
35.074146499999998
30
0
40
0.42500000000000426
210
0
220
-0
230
1
100
AcDbArc
50
0
51
90
0
LINE
5
317
100
AcDbEntity
8
0
100
AcDbLine
10
98.274132699999939
20
35.499146500000016
30
0
11
111.27413269999994
21
35.499146499999995
31
0
0
ARC
5
318
100
AcDbEntity
8
0
100
AcDbCircle
10
98.274132699999939
20
35.074146500000012
30
0
40
0.42500000000000426
210
0
220
-0
230
1
100
AcDbArc
50
90
51
180
0
LINE
5
319
100
AcDbEntity
8
0
100
AcDbLine
10
97.849132699999927
20
22.074146500000005
30
0
11
97.849132699999927
21
35.074146500000012
31
0
0
ARC
5
320
100
AcDbEntity
8
0
100
AcDbCircle
10
98.274132699999939
20
22.074146500000005
30
0
40
0.42500000000000426
210
0
220
0
230
1
100
AcDbArc
50
180
51
270
0
LINE
5
321
100
AcDbEntity
8
0
100
AcDbLine
10
111.27413269999994
20
21.649146500000001
30
0
11
98.274132699999939
21
21.649146500000001
31
0
0
ARC
5
322
100
AcDbEntity
8
0
100
AcDbCircle
10
61.267882699999952
20
16.024146500000018
30
0
40
0.42500000000000426
210
-0
220
0
230
1
100
AcDbArc
50
0
51
90
0
LINE
5
323
100
AcDbEntity
8
0
100
AcDbLine
10
48.267882699999944
20
16.449146500000005
30
0
11
61.267882699999952
21
16.449146500000019
31
0
0
ARC
5
324
100
AcDbEntity
8
0
100
AcDbCircle
10
48.267882699999909
20
16.024146500000036
30
0
40
0.42499999999996874
210
0
220
-0
230
1
100
AcDbArc
50
89.999999999995211
51
180
0
LINE
5
325
100
AcDbEntity
8
0
100
AcDbLine
10
47.84288269999994
20
3.0241465000000289
30
0
11
47.84288269999994
21
16.024146500000018
31
0
0
ARC
5
326
100
AcDbEntity
8
0
100
AcDbCircle
10
48.267882699999909
20
3.0241464999999934
30
0
40
0.42499999999996874
210
0
220
0
230
1
100
AcDbArc
50
180
51
270.00000000000477
0
LINE
5
327
100
AcDbEntity
8
0
100
AcDbLine
10
61.267882699999952
20
2.5991465000000247
30
0
11
48.267882699999944
21
2.5991465000000264
31
0
0
ARC
5
328
100
AcDbEntity
8
0
100
AcDbCircle
10
61.267882699999952
20
3.0241465000000112
30
0
40
0.4249999999999865
210
-0
220
0
230
1
100
AcDbArc
50
-90
51
0
0
LINE
5
329
100
AcDbEntity
8
0
100
AcDbLine
10
61.692882699999956
20
16.024146500000001
30
0
11
61.69288269999992
21
3.0241465000000289
31
0
0
ARC
5
330
100
AcDbEntity
8
0
100
AcDbCircle
10
-14.932117300000076
20
3.0241465000000467
30
0
40
0.42500000000002203
210
-0
220
0
230
1
100
AcDbArc
50
270.00000000000239
51
360
0
LINE
5
331
100
AcDbEntity
8
0
100
AcDbLine
10
-14.507117300000054
20
16.024146500000001
30
0
11
-14.507117300000056
21
3.0241465000000289
31
0
0
ARC
5
332
100
AcDbEntity
8
0
100
AcDbCircle
10
-14.932117300000076
20
16.024146499999983
30
0
40
0.42500000000002203
210
0
220
-0
230
1
100
AcDbArc
50
0
51
89.999999999997613
0
LINE
5
333
100
AcDbEntity
8
0
100
AcDbLine
10
-27.932117300000066
20
16.449146499999987
30
0
11
-14.932117300000058
21
16.449146500000001
31
0
0
ARC
5
334
100
AcDbEntity
8
0
100
AcDbCircle
10
-27.932117300000048
20
16.024146499999983
30
0
40
0.42500000000000426
210
0
220
0
230
1
100
AcDbArc
50
90.000000000002416
51
180
0
LINE
5
335
100
AcDbEntity
8
0
100
AcDbLine
10
-28.35711730000007
20
3.0241465000000289
30
0
11
-28.357117300000052
21
16.024146500000036
31
0
0
ARC
5
336
100
AcDbEntity
8
0
100
AcDbCircle
10
-27.932117300000048
20
3.0241465000000467
30
0
40
0.42500000000002203
210
0
220
0
230
1
100
AcDbArc
50
180
51
269.99999999999761
0
LINE
5
337
100
AcDbEntity
8
0
100
AcDbLine
10
-14.932117300000058
20
2.5991465000000247
30
0
11
-27.932117300000066
21
2.5991465000000264
31
0
0
ARC
5
338
100
AcDbEntity
8
0
100
AcDbCircle
10
-111.27586730000006
20
16.024146500000001
30
0
40
0.42500000000000426
210
0
220
-0
230
1
100
AcDbArc
50
90
51
180
0
LINE
5
339
100
AcDbEntity
8
0
100
AcDbLine
10
-111.70086730000007
20
3.0241465000000289
30
0
11
-111.70086730000007
21
16.024146500000036
31
0
0
ARC
5
340
100
AcDbEntity
8
0
100
AcDbCircle
10
-111.27586730000004
20
3.0241465000000467
30
0
40
0.42500000000002203
210
0
220
0
230
1
100
AcDbArc
50
180
51
269.99999999999807
0
LINE
5
341
100
AcDbEntity
8
0
100
AcDbLine
10
-98.275867300000073
20
2.5991465000000424
30
0
11
-111.27586730000006
21
2.5991465000000264
31
0
0
ARC
5
342
100
AcDbEntity
8
0
100
AcDbCircle
10
-98.275867300000058
20
3.0241465000000289
30
0
40
0.4249999999999865
210
0
220
0
230
1
100
AcDbArc
50
269.99999999999807
51
360
0
LINE
5
343
100
AcDbEntity
8
0
100
AcDbLine
10
-97.850867300000061
20
16.024146500000001
30
0
11
-97.850867300000061
21
3.0241464999999934
31
0
0
ARC
5
344
100
AcDbEntity
8
0
100
AcDbCircle
10
-98.275867300000073
20
16.024146499999983
30
0
40
0.42500000000002203
210
0
220
-0
230
1
100
AcDbArc
50
0
51
89.999999999998082
0
LINE
5
345
100
AcDbEntity
8
0
100
AcDbLine
10
-111.27586730000006
20
16.449146500000005
30
0
11
-98.275867300000073
21
16.449146500000001
31
0
0
LINE
5
346
100
AcDbEntity
8
0
100
AcDbLine
10
-56.932117300000051
20
-16.025853499999982
30
0
11
-56.932117300000044
21
-3.0258534999999753
31
0
0
ARC
5
347
100
AcDbEntity
8
0
100
AcDbCircle
10
-56.507117300000054
20
-3.0258534999999576
30
0
40
0.4249999999999865
210
0
220
-0
230
1
100
AcDbArc
50
90
51
180
0
LINE
5
348
100
AcDbEntity
8
0
100
AcDbLine
10
-56.507117300000054
20
-2.6008534999999711
30
0
11
-43.507117300000068
21
-2.6008534999999728
31
0
0
ARC
5
349
100
AcDbEntity
8
0
100
AcDbCircle
10
-43.507117300000061
20
-3.0258534999999753
30
0
40
0.42500000000000426
210
0
220
-0
230
1
100
AcDbArc
50
0
51
90
0
LINE
5
350
100
AcDbEntity
8
0
100
AcDbLine
10
-43.08211730000005
20
-3.0258534999999753
30
0
11
-43.082117300000071
21
-16.025853499999982
31
0
0
ARC
5
351
100
AcDbEntity
8
0
100
AcDbCircle
10
-43.507117300000019
20
-16.025853500000018
30
0
40
0.42499999999995097
210
0
220
0
230
1
100
AcDbArc
50
-90.000000000005755
51
0
0
LINE
5
352
100
AcDbEntity
8
0
100
AcDbLine
10
-43.507117300000061
20
-16.450853499999969
30
0
11
-56.507117300000047
21
-16.450853499999983
31
0
0
ARC
5
353
100
AcDbEntity
8
0
100
AcDbCircle
10
-56.507117300000061
20
-16.025853499999982
30
0
40
0.4249999999999865
210
0
220
0
230
1
100
AcDbArc
50
180
51
270.00000000000097
0
ARC
5
354
100
AcDbEntity
8
0
100
AcDbCircle
10
19.692882699999945
20
-16.025853499999965
30
0
40
0.42500000000002203
210
0
220
0
230
1
100
AcDbArc
50
180
51
270
0
LINE
5
355
100
AcDbEntity
8
0
100
AcDbLine
10
32.692882699999934
20
-16.450853499999987
30
0
11
19.692882699999927
21
-16.450853499999983
31
0
0
ARC
5
356
100
AcDbEntity
8
0
100
AcDbCircle
10
32.692882699999934
20
-16.0258535
30
0
40
0.4249999999999865
210
-0
220
0
230
1
100
AcDbArc
50
-90
51
0
0
LINE
5
357
100
AcDbEntity
8
0
100
AcDbLine
10
33.117882699999939
20
-3.0258534999999753
30
0
11
33.117882699999939
21
-16.025853499999982
31
0
0
ARC
5
358
100
AcDbEntity
8
0
100
AcDbCircle
10
32.692882699999934
20
-3.0258534999999576
30
0
40
0.42500000000000426
210
-0
220
0
230
1
100
AcDbArc
50
0
51
90
0
LINE
5
359
100
AcDbEntity
8
0
100
AcDbLine
10
19.692882699999927
20
-2.6008534999999711
30
0
11
32.692882699999956
21
-2.6008534999999728
31
0
0
ARC
5
360
100
AcDbEntity
8
0
100
AcDbCircle
10
19.692882699999945
20
-3.0258534999999931
30
0
40
0.42500000000002203
210
0
220
0
230
1
100
AcDbArc
50
90.000000000002416
51
180
0
LINE
5
361
100
AcDbEntity
8
0
100
AcDbLine
10
19.267882699999923
20
-16.025853499999982
30
0
11
19.267882699999927
21
-3.0258534999999753
31
0
0
LINE
5
362
100
AcDbEntity
8
0
100
AcDbLine
10
100.23038269999994
20
-16.025853499999982
30
0
11
100.23038269999994
21
-3.0258534999999753
31
0
0
ARC
5
363
100
AcDbEntity
8
0
100
AcDbCircle
10
100.65538269999993
20
-3.0258534999999931
30
0
40
0.42500000000002203
210
0
220
-0
230
1
100
AcDbArc
50
90
51
180
0
LINE
5
364
100
AcDbEntity
8
0
100
AcDbLine
10
100.65538269999993
20
-2.6008534999999711
30
0
11
113.65538269999995
21
-2.6008534999999728
31
0
0
ARC
5
365
100
AcDbEntity
8
0
100
AcDbCircle
10
113.65538269999995
20
-3.0258534999999753
30
0
40
0.42500000000000426
210
0
220
-0
230
1
100
AcDbArc
50
0
51
90
0
LINE
5
366
100
AcDbEntity
8
0
100
AcDbLine
10
114.08038269999994
20
-3.0258534999999753
30
0
11
114.08038269999994
21
-16.025853499999982
31
0
0
ARC
5
367
100
AcDbEntity
8
0
100
AcDbCircle
10
113.65538269999995
20
-16.025853499999982
30
0
40
0.42500000000000426
210
-0
220
0
230
1
100
AcDbArc
50
-90
51
0
0
LINE
5
368
100
AcDbEntity
8
0
100
AcDbLine
10
113.65538269999995
20
-16.450853499999987
30
0
11
100.65538269999993
21
-16.450853499999983
31
0
0
ARC
5
369
100
AcDbEntity
8
0
100
AcDbCircle
10
100.65538269999993
20
-16.025853499999965
30
0
40
0.42500000000000426
210
0
220
0
230
1
100
AcDbArc
50
180
51
270
0
ARC
5
370
100
AcDbEntity
8
0
100
AcDbCircle
10
33.980382699999971
20
-22.075853499999969
30
0
40
0.4249999999999865
210
0
220
-0
230
1
100
AcDbArc
50
90
51
180
0
LINE
5
371
100
AcDbEntity
8
0
100
AcDbLine
10
33.555382699999967
20
-35.07585349999998
30
0
11
33.555382700000003
21
-22.07585349999998
31
0
0
ARC
5
372
100
AcDbEntity
8
0
100
AcDbCircle
10
33.980382699999936
20
-35.075853499999987
30
0
40
0.42499999999996874
210
0
220
0
230
1
100
AcDbArc
50
180
51
270.00000000000477
0
LINE
5
373
100
AcDbEntity
8
0
100
AcDbLine
10
46.980382699999943
20
-35.500853499999977
30
0
11
33.980382699999971
21
-35.500853499999955
31
0
0
ARC
5
374
100
AcDbEntity
8
0
100
AcDbCircle
10
46.980382699999979
20
-35.075853499999987
30
0
40
0.42499999999999538
210
0
220
0
230
1
100
AcDbArc
50
-90.000000000004775
51
0
0
LINE
5
375
100
AcDbEntity
8
0
100
AcDbLine
10
47.405382699999947
20
-22.075853499999987
30
0
11
47.405382699999983
21
-35.075853499999987
31
0
0
ARC
5
376
100
AcDbEntity
8
0
100
AcDbCircle
10
46.980382699999943
20
-22.075853499999969
30
0
40
0.42500000000000426
210
-0
220
0
230
1
100
AcDbArc
50
0
51
90
0
LINE
5
377
100
AcDbEntity
8
0
100
AcDbLine
10
33.980382699999971
20
-21.650853499999982
30
0
11
46.980382699999943
21
-21.650853499999965
31
0
0
LINE
5
378
100
AcDbEntity
8
0
100
AcDbLine
10
-42.644617300000078
20
-35.07585349999998
30
0
11
-42.644617300000064
21
-22.075853499999969
31
0
0
ARC
5
379
100
AcDbEntity
8
0
100
AcDbCircle
10
-42.219617300000095
20
-22.075853499999951
30
0
40
0.42499999999995097
210
0
220
-0
230
1
100
AcDbArc
50
89.999999999997129
51
180
0
LINE
5
380
100
AcDbEntity
8
0
100
AcDbLine
10
-42.219617300000074
20
-21.6508535
30
0
11
-29.219617300000067
21
-21.650853499999982
31
0
0
ARC
5
381
100
AcDbEntity
8
0
100
AcDbCircle
10
-29.219617300000085
20
-22.075853500000004
30
0
40
0.42500000000002203
210
0
220
-0
230
1
100
AcDbArc
50
0
51
89.999999999997613
0
LINE
5
382
100
AcDbEntity
8
0
100
AcDbLine
10
-28.794617300000063
20
-22.075853499999987
30
0
11
-28.794617300000045
21
-35.075853499999987
31
0
0
ARC
5
383
100
AcDbEntity
8
0
100
AcDbCircle
10
-29.219617300000067
20
-35.075853499999987
30
0
40
0.42499999999999538
210
-0
220
0
230
1
100
AcDbArc
50
-90
51
0
0
LINE
5
384
100
AcDbEntity
8
0
100
AcDbLine
10
-29.219617300000067
20
-35.500853499999977
30
0
11
-42.219617300000074
21
-35.500853499999991
31
0
0
ARC
5
385
100
AcDbEntity
8
0
100
AcDbCircle
10
-42.219617300000074
20
-35.075853499999987
30
0
40
0.42500000000000426
210
0
220
0
230
1
100
AcDbArc
50
180
51
270
0
ARC
5
386
100
AcDbEntity
8
0
100
AcDbCircle
10
-105.41961730000008
20
-22.075853500000004
30
0
40
0.42500000000002203
210
0
220
-0
230
1
100
AcDbArc
50
0
51
89.999999999996163
0
LINE
5
387
100
AcDbEntity
8
0
100
AcDbLine
10
-118.41961730000007
20
-21.650853499999982
30
0
11
-105.41961730000006
21
-21.650853499999982
31
0
0
ARC
5
388
100
AcDbEntity
8
0
100
AcDbCircle
10
-118.41961730000006
20
-22.075853500000004
30
0
40
0.42500000000002203
210
0
220
0
230
1
100
AcDbArc
50
90.000000000001918
51
180
0
LINE
5
389
100
AcDbEntity
8
0
100
AcDbLine
10
-118.84461730000007
20
-35.07585349999998
30
0
11
-118.84461730000007
21
-22.07585349999998
31
0
0
ARC
5
390
100
AcDbEntity
8
0
100
AcDbCircle
10
-118.41961730000007
20
-35.07585349999998
30
0
40
0.4249999999999865
210
0
220
0
230
1
100
AcDbArc
50
180
51
270
0
LINE
5
391
100
AcDbEntity
8
0
100
AcDbLine
10
-105.41961730000006
20
-35.50085349999997
30
0
11
-118.41961730000007
21
-35.50085349999997
31
0
0
ARC
5
392
100
AcDbEntity
8
0
100
AcDbCircle
10
-105.41961730000006
20
-35.07585349999998
30
0
40
0.42499999999999538
210
-0
220
0
230
1
100
AcDbArc
50
-90
51
0
0
LINE
5
393
100
AcDbEntity
8
0
100
AcDbLine
10
-104.99461730000006
20
-22.075853499999987
30
0
11
-104.99461730000007
21
-35.075853499999987
31
0
0
ARC
5
394
100
AcDbEntity
8
0
100
AcDbCircle
10
-48.269617300000064
20
-35.07585349999998
30
0
40
0.4249999999999865
210
-0
220
0
230
1
100
AcDbArc
50
-90
51
0
0
LINE
5
395
100
AcDbEntity
8
0
100
AcDbLine
10
-47.844617300000053
20
-22.075853499999987
30
0
11
-47.844617300000053
21
-35.075853499999987
31
0
0
ARC
5
396
100
AcDbEntity
8
0
100
AcDbCircle
10
-48.269617300000064
20
-22.075853499999987
30
0
40
0.42500000000000426
210
0
220
-0
230
1
100
AcDbArc
50
0
51
90
0
LINE
5
397
100
AcDbEntity
8
0
100
AcDbLine
10
-61.269617300000057
20
-21.6508535
30
0
11
-48.269617300000071
21
-21.650853499999965
31
0
0
ARC
5
398
100
AcDbEntity
8
0
100
AcDbCircle
10
-61.269617300000078
20
-22.075853499999987
30
0
40
0.4249999999999865
210
0
220
-0
230
1
100
AcDbArc
50
89.999999999997129
51
180
0
LINE
5
399
100
AcDbEntity
8
0
100
AcDbLine
10
-61.694617300000061
20
-35.07585349999998
30
0
11
-61.694617300000061
21
-22.075853499999969
31
0
0
ARC
5
400
100
AcDbEntity
8
0
100
AcDbCircle
10
-61.269617300000078
20
-35.075853499999994
30
0
40
0.4249999999999865
210
0
220
0
230
1
100
AcDbArc
50
180
51
270.00000000000284
0
LINE
5
401
100
AcDbEntity
8
0
100
AcDbLine
10
-48.269617300000064
20
-35.500853499999963
30
0
11
-61.269617300000064
21
-35.500853499999977
31
0
0
ARC
5
402
100
AcDbEntity
8
0
100
AcDbCircle
10
14.93038269999996
20
-35.075853499999958
30
0
40
0.42500000000002203
210
0
220
0
230
1
100
AcDbArc
50
180
51
269.99999999999761
0
LINE
5
403
100
AcDbEntity
8
0
100
AcDbLine
10
27.930382699999932
20
-35.50085349999997
30
0
11
14.930382699999942
21
-35.50085349999997
31
0
0
ARC
5
404
100
AcDbEntity
8
0
100
AcDbCircle
10
27.930382699999932
20
-35.07585349999998
30
0
40
0.42499999999999538
210
-0
220
0
230
1
100
AcDbArc
50
-90
51
0
0
LINE
5
405
100
AcDbEntity
8
0
100
AcDbLine
10
28.355382699999936
20
-22.075853499999987
30
0
11
28.355382699999954
21
-35.075853499999987
31
0
0
ARC
5
406
100
AcDbEntity
8
0
100
AcDbCircle
10
27.930382699999914
20
-22.075853500000004
30
0
40
0.42500000000002203
210
0
220
-0
230
1
100
AcDbArc
50
0
51
89.999999999997613
0
LINE
5
407
100
AcDbEntity
8
0
100
AcDbLine
10
14.930382699999942
20
-21.650853499999982
30
0
11
27.930382699999932
21
-21.650853499999982
31
0
0
ARC
5
408
100
AcDbEntity
8
0
100
AcDbCircle
10
14.930382699999942
20
-22.075853499999987
30
0
40
0.42500000000000426
210
0
220
-0
230
1
100
AcDbArc
50
90
51
180
0
LINE
5
409
100
AcDbEntity
8
0
100
AcDbLine
10
14.505382699999938
20
-35.07585349999998
30
0
11
14.50538269999994
21
-22.07585349999998
31
0
0
ARC
5
410
100
AcDbEntity
8
0
100
AcDbCircle
10
98.274132699999939
20
-22.075853499999987
30
0
40
0.42500000000000426
210
0
220
-0
230
1
100
AcDbArc
50
90
51
180
0
LINE
5
411
100
AcDbEntity
8
0
100
AcDbLine
10
97.849132699999927
20
-35.07585349999998
30
0
11
97.849132699999927
21
-22.075853499999987
31
0
0
ARC
5
412
100
AcDbEntity
8
0
100
AcDbCircle
10
98.27413269999991
20
-35.075853500000008
30
0
40
0.42499999999996874
210
0
220
0
230
1
100
AcDbArc
50
180
51
270.00000000000381
0
LINE
5
413
100
AcDbEntity
8
0
100
AcDbLine
10
111.27413269999994
20
-35.500853499999977
30
0
11
98.274132699999939
21
-35.500853499999977
31
0
0
ARC
5
414
100
AcDbEntity
8
0
100
AcDbCircle
10
111.27413269999998
20
-35.075853499999994
30
0
40
0.4249999999999865
210
0
220
0
230
1
100
AcDbArc
50
-90.000000000005755
51
0
0
LINE
5
415
100
AcDbEntity
8
0
100
AcDbLine
10
111.69913269999995
20
-22.075853499999987
30
0
11
111.69913269999998
21
-35.075853499999987
31
0
0
ARC
5
416
100
AcDbEntity
8
0
100
AcDbCircle
10
111.27413269999994
20
-22.075853500000004
30
0
40
0.42500000000000426
210
0
220
-0
230
1
100
AcDbArc
50
0
51
90
0
LINE
5
417
100
AcDbEntity
8
0
100
AcDbLine
10
98.274132699999939
20
-21.650853499999982
30
0
11
111.27413269999994
21
-21.6508535
31
0
0
ARC
5
418
100
AcDbEntity
8
0
100
AcDbCircle
10
51.742882699999946
20
-3.0258534999999576
30
0
40
0.42500000000000426
210
-0
220
0
230
1
100
AcDbArc
50
0
51
90
0
LINE
5
419
100
AcDbEntity
8
0
100
AcDbLine
10
38.742882699999939
20
-2.6008534999999711
30
0
11
51.742882699999946
21
-2.6008534999999728
31
0
0
ARC
5
420
100
AcDbEntity
8
0
100
AcDbCircle
10
38.742882699999903
20
-3.0258534999999398
30
0
40
0.42499999999996874
210
0
220
-0
230
1
100
AcDbArc
50
89.999999999995211
51
180
0
LINE
5
421
100
AcDbEntity
8
0
100
AcDbLine
10
38.317882699999934
20
-16.025853499999982
30
0
11
38.317882699999934
21
-3.0258534999999753
31
0
0
ARC
5
422
100
AcDbEntity
8
0
100
AcDbCircle
10
38.742882699999903
20
-16.025853500000018
30
0
40
0.42499999999996874
210
0
220
0
230
1
100
AcDbArc
50
180
51
270.00000000000477
0
LINE
5
423
100
AcDbEntity
8
0
100
AcDbLine
10
51.742882699999946
20
-16.450853499999987
30
0
11
38.742882699999939
21
-16.450853499999983
31
0
0
ARC
5
424
100
AcDbEntity
8
0
100
AcDbCircle
10
51.742882699999946
20
-16.0258535
30
0
40
0.4249999999999865
210
-0
220
0
230
1
100
AcDbArc
50
-90
51
0
0
LINE
5
425
100
AcDbEntity
8
0
100
AcDbLine
10
52.16788269999995
20
-3.0258534999999753
30
0
11
52.167882699999915
21
-16.025853499999982
31
0
0
ARC
5
426
100
AcDbEntity
8
0
100
AcDbCircle
10
-24.457117300000082
20
-16.025853499999965
30
0
40
0.42500000000002203
210
-0
220
0
230
1
100
AcDbArc
50
270.00000000000239
51
360
0
LINE
5
427
100
AcDbEntity
8
0
100
AcDbLine
10
-24.03211730000006
20
-3.0258534999999753
30
0
11
-24.03211730000006
21
-16.025853499999982
31
0
0
ARC
5
428
100
AcDbEntity
8
0
100
AcDbCircle
10
-24.457117300000082
20
-3.0258534999999931
30
0
40
0.42500000000002203
210
0
220
-0
230
1
100
AcDbArc
50
0
51
89.999999999997613
0
LINE
5
429
100
AcDbEntity
8
0
100
AcDbLine
10
-37.457117300000071
20
-2.6008534999999711
30
0
11
-24.457117300000064
21
-2.6008534999999728
31
0
0
ARC
5
430
100
AcDbEntity
8
0
100
AcDbCircle
10
-37.45711730000005
20
-3.0258534999999931
30
0
40
0.42500000000002203
210
0
220
0
230
1
100
AcDbArc
50
90.000000000002885
51
180
0
LINE
5
431
100
AcDbEntity
8
0
100
AcDbLine
10
-37.882117300000075
20
-16.025853499999982
30
0
11
-37.882117300000075
21
-3.0258534999999753
31
0
0
ARC
5
432
100
AcDbEntity
8
0
100
AcDbCircle
10
-37.45711730000005
20
-16.025853499999965
30
0
40
0.42500000000002203
210
0
220
0
230
1
100
AcDbArc
50
180
51
269.99999999999716
0
LINE
5
433
100
AcDbEntity
8
0
100
AcDbLine
10
-24.457117300000064
20
-16.450853499999987
30
0
11
-37.457117300000071
21
-16.450853499999983
31
0
0
LINE
5
434
100
AcDbEntity
8
0
100
AcDbLine
10
-102.61336730000005
20
-3.0258534999999753
30
0
11
-102.61336730000005
21
-16.0258535
31
0
0
ARC
5
435
100
AcDbEntity
8
0
100
AcDbCircle
10
-103.03836730000003
20
-16.025853499999982
30
0
40
0.4249999999999865
210
0
220
0
230
1
100
AcDbArc
50
269.99999999999619
51
360
0
LINE
5
436
100
AcDbEntity
8
0
100
AcDbLine
10
-103.03836730000006
20
-16.450853499999969
30
0
11
-116.03836730000006
21
-16.450853499999983
31
0
0
ARC
5
437
100
AcDbEntity
8
0
100
AcDbCircle
10
-116.03836730000005
20
-16.025853499999965
30
0
40
0.42500000000002203
210
0
220
0
230
1
100
AcDbArc
50
180
51
269.99999999999807
0
LINE
5
438
100
AcDbEntity
8
0
100
AcDbLine
10
-116.46336730000007
20
-16.025853499999982
30
0
11
-116.46336730000007
21
-3.0258534999999753
31
0
0
ARC
5
439
100
AcDbEntity
8
0
100
AcDbCircle
10
-116.03836730000005
20
-3.0258534999999931
30
0
40
0.42500000000002203
210
0
220
0
230
1
100
AcDbArc
50
90.000000000001918
51
180
0
LINE
5
440
100
AcDbEntity
8
0
100
AcDbLine
10
-116.03836730000006
20
-2.6008534999999711
30
0
11
-103.03836730000006
21
-2.6008534999999728
31
0
0
ARC
5
441
100
AcDbEntity
8
0
100
AcDbCircle
10
-103.03836730000008
20
-3.0258534999999931
30
0
40
0.42500000000002203
210
0
220
-0
230
1
100
AcDbArc
50
0
51
89.999999999998082
0
ARC
5
442
100
AcDbEntity
8
0
100
AcDbCircle
10
-46.982117300000041
20
16.024146499999983
30
0
40
0.42500000000000426
210
0
220
0
230
1
100
AcDbArc
50
90.000000000001918
51
180
0
LINE
5
443
100
AcDbEntity
8
0
100
AcDbLine
10
-47.407117300000067
20
3.0241465000000289
30
0
11
-47.407117300000046
21
16.024146500000018
31
0
0
ARC
5
444
100
AcDbEntity
8
0
100
AcDbCircle
10
-46.982117300000056
20
3.0241465000000289
30
0
40
0.42500000000000426
210
0
220
0
230
1
100
AcDbArc
50
180
51
270
0
LINE
5
445
100
AcDbEntity
8
0
100
AcDbLine
10
-33.982117300000056
20
2.5991465000000424
30
0
11
-46.982117300000056
21
2.5991465000000264
31
0
0
ARC
5
446
100
AcDbEntity
8
0
100
AcDbCircle
10
-33.98211730000007
20
3.0241465000000467
30
0
40
0.42500000000000426
210
-0
220
0
230
1
100
AcDbArc
50
270.00000000000193
51
360
0
LINE
5
447
100
AcDbEntity
8
0
100
AcDbLine
10
-33.557117300000044
20
16.024146500000001
30
0
11
-33.557117300000066
21
3.0241465000000112
31
0
0
ARC
5
448
100
AcDbEntity
8
0
100
AcDbCircle
10
-33.982117300000056
20
16.024146500000001
30
0
40
0.42500000000000426
210
0
220
-0
230
1
100
AcDbArc
50
0
51
90
0
LINE
5
449
100
AcDbEntity
8
0
100
AcDbLine
10
-46.982117300000056
20
16.449146499999987
30
0
11
-33.982117300000056
21
16.449146500000001
31
0
0
LINE
5
450
100
AcDbEntity
8
0
100
AcDbLine
10
29.217882699999933
20
16.449146500000023
30
0
11
42.21788269999994
21
16.449146500000019
31
0
0
ARC
5
451
100
AcDbEntity
8
0
100
AcDbCircle
10
42.21788269999994
20
16.024146500000018
30
0
40
0.42500000000003979
210
-0
220
0
230
1
100
AcDbArc
50
0
51
90
0
LINE
5
452
100
AcDbEntity
8
0
100
AcDbLine
10
42.64288269999998
20
16.024146500000001
30
0
11
42.64288269999998
21
3.0241465000000289
31
0
0
ARC
5
453
100
AcDbEntity
8
0
100
AcDbCircle
10
42.21788269999994
20
3.0241465000000112
30
0
40
0.42500000000000426
210
-0
220
0
230
1
100
AcDbArc
50
-90
51
0
0
LINE
5
454
100
AcDbEntity
8
0
100
AcDbLine
10
42.21788269999994
20
2.5991465000000069
30
0
11
29.217882699999933
21
2.5991465000000087
31
0
0
ARC
5
455
100
AcDbEntity
8
0
100
AcDbCircle
10
29.217882699999898
20
3.0241465000000112
30
0
40
0.4249999999999865
210
0
220
0
230
1
100
AcDbArc
50
180
51
270.00000000000477
0
LINE
5
456
100
AcDbEntity
8
0
100
AcDbLine
10
28.792882699999929
20
3.0241465000000289
30
0
11
28.792882699999911
21
16.024146500000001
31
0
0
ARC
5
457
100
AcDbEntity
8
0
100
AcDbCircle
10
29.217882699999898
20
16.024146500000018
30
0
40
0.42500000000000426
210
0
220
-0
230
1
100
AcDbArc
50
89.999999999995211
51
180
0
LINE
5
458
100
AcDbEntity
8
0
100
AcDbLine
10
105.41788269999995
20
16.449146500000005
30
0
11
118.41788269999995
21
16.449146500000001
31
0
0
ARC
5
459
100
AcDbEntity
8
0
100
AcDbCircle
10
118.41788269999995
20
16.024146500000001
30
0
40
0.42500000000000426
210
0
220
-0
230
1
100
AcDbArc
50
0
51
90
0
LINE
5
460
100
AcDbEntity
8
0
100
AcDbLine
10
118.84288269999996
20
16.024146500000001
30
0
11
118.84288269999996
21
3.0241464999999934
31
0
0
ARC
5
461
100
AcDbEntity
8
0
100
AcDbCircle
10
118.41788269999995
20
3.0241465000000467
30
0
40
0.42500000000002203
210
-0
220
0
230
1
100
AcDbArc
50
270
51
360
0
LINE
5
462
100
AcDbEntity
8
0
100
AcDbLine
10
118.41788269999995
20
2.5991465000000247
30
0
11
105.41788269999995
21
2.5991465000000442
31
0
0
ARC
5
463
100
AcDbEntity
8
0
100
AcDbCircle
10
105.41788269999995
20
3.0241465000000467
30
0
40
0.42500000000000426
210
0
220
0
230
1
100
AcDbArc
50
180
51
270
0
LINE
5
464
100
AcDbEntity
8
0
100
AcDbLine
10
104.99288269999994
20
3.0241465000000289
30
0
11
104.99288269999991
21
16.024146500000001
31
0
0
ARC
5
465
100
AcDbEntity
8
0
100
AcDbCircle
10
105.41788269999995
20
16.024146499999983
30
0
40
0.42500000000002203
210
0
220
-0
230
1
100
AcDbArc
50
90
51
180
0
LINE
5
466
100
AcDbEntity
8
0
100
AcDbLine
10
31.605882699999945
20
20.649146500000022
30
0
11
25.605882699999931
21
20.649146500000022
31
0
0
ARC
5
467
100
AcDbEntity
8
0
100
AcDbCircle
10
25.605882699999949
20
21.074146500000044
30
0
40
0.42500000000002203
210
0
220
0
230
1
100
AcDbArc
50
180
51
270
0
LINE
5
468
100
AcDbEntity
8
0
100
AcDbLine
10
25.180882699999927
20
21.074146500000026
30
0
11
25.180882699999945
21
35.074146500000012
31
0
0
ARC
5
469
100
AcDbEntity
8
0
100
AcDbCircle
10
25.605882699999913
20
35.074146500000047
30
0
40
0.42499999999995097
210
0
220
-0
230
1
100
AcDbArc
50
89.999999999997613
51
180
0
LINE
5
470
100
AcDbEntity
8
0
100
AcDbLine
10
25.605882699999931
20
35.499146499999995
30
0
11
31.605882699999963
21
35.499146500000016
31
0
0
ARC
5
471
100
AcDbEntity
8
0
100
AcDbCircle
10
31.605882699999945
20
35.074146500000026
30
0
40
0.42500000000000426
210
-0
220
0
230
1
100
AcDbArc
50
0
51
90
0
LINE
5
472
100
AcDbEntity
8
0
100
AcDbLine
10
32.03088269999995
20
35.074146500000012
30
0
11
32.030882699999914
21
21.074146500000026
31
0
0
ARC
5
473
100
AcDbEntity
8
0
100
AcDbCircle
10
31.605882699999945
20
21.074146500000008
30
0
40
0.4249999999999865
210
-0
220
0
230
1
100
AcDbArc
50
-90
51
0
0
LINE
5
474
100
AcDbEntity
8
0
100
AcDbLine
10
-17.31336730000006
20
21.649146500000001
30
0
11
-30.313367300000067
21
21.649146500000001
31
0
0
ARC
5
475
100
AcDbEntity
8
0
100
AcDbCircle
10
-30.313367300000049
20
22.074146500000023
30
0
40
0.42500000000002203
210
0
220
0
230
1
100
AcDbArc
50
180
51
269.99999999999761
0
LINE
5
476
100
AcDbEntity
8
0
100
AcDbLine
10
-30.738367300000071
20
22.074146500000005
30
0
11
-30.738367300000071
21
35.074146500000012
31
0
0
ARC
5
477
100
AcDbEntity
8
0
100
AcDbCircle
10
-30.313367300000049
20
35.074146499999998
30
0
40
0.42500000000002203
210
0
220
0
230
1
100
AcDbArc
50
90.000000000002416
51
180
0
LINE
5
478
100
AcDbEntity
8
0
100
AcDbLine
10
-30.313367300000067
20
35.499146500000016
30
0
11
-17.31336730000006
21
35.499146500000016
31
0
0
ARC
5
479
100
AcDbEntity
8
0
100
AcDbCircle
10
-17.313367300000078
20
35.074146499999998
30
0
40
0.42500000000002203
210
0
220
-0
230
1
100
AcDbArc
50
0
51
89.999999999997613
0
LINE
5
480
100
AcDbEntity
8
0
100
AcDbLine
10
-16.888367300000056
20
35.074146500000012
30
0
11
-16.888367300000059
21
22.074146500000005
31
0
0
ARC
5
481
100
AcDbEntity
8
0
100
AcDbCircle
10
-17.313367300000078
20
22.074146500000023
30
0
40
0.42500000000002203
210
-0
220
0
230
1
100
AcDbArc
50
270.00000000000239
51
360
0
ARC
5
482
100
AcDbEntity
8
0
100
AcDbCircle
10
-116.03836730000005
20
22.074146500000023
30
0
40
0.42500000000002203
210
0
220
0
230
1
100
AcDbArc
50
180
51
269.99999999999807
0
LINE
5
483
100
AcDbEntity
8
0
100
AcDbLine
10
-103.03836730000006
20
21.649146500000018
30
0
11
-116.03836730000006
21
21.649146500000001
31
0
0
ARC
5
484
100
AcDbEntity
8
0
100
AcDbCircle
10
-103.03836730000006
20
22.074146500000023
30
0
40
0.42500000000000426
210
-0
220
0
230
1
100
AcDbArc
50
270
51
360
0
LINE
5
485
100
AcDbEntity
8
0
100
AcDbLine
10
-102.61336730000005
20
35.074146500000012
30
0
11
-102.61336730000005
21
22.074146500000005
31
0
0
ARC
5
486
100
AcDbEntity
8
0
100
AcDbCircle
10
-103.03836730000008
20
35.074146499999998
30
0
40
0.42500000000002203
210
0
220
-0
230
1
100
AcDbArc
50
0
51
89.999999999998082
0
LINE
5
487
100
AcDbEntity
8
0
100
AcDbLine
10
-116.03836730000006
20
35.499146500000016
30
0
11
-103.03836730000006
21
35.499146500000016
31
0
0
ARC
5
488
100
AcDbEntity
8
0
100
AcDbCircle
10
-116.03836730000005
20
35.074146499999998
30
0
40
0.42500000000002203
210
0
220
0
230
1
100
AcDbArc
50
90.000000000001918
51
180
0
LINE
5
489
100
AcDbEntity
8
0
100
AcDbLine
10
-116.46336730000007
20
22.074146500000005
30
0
11
-116.46336730000007
21
35.074146500000012
31
0
0
LINE
5
490
100
AcDbEntity
8
0
100
AcDbLine
10
-64.400530130980115
20
40.924903500000021
30
0
11
-121.01895770000002
21
40.924903500000028
31
0
0
ARC
5
491
100
AcDbEntity
8
0
100
AcDbCircle
10
-121.0189577
20
37.674903500000013
30
0
40
3.2500000000000107
210
0
220
0
230
1
100
AcDbArc
50
90.000000000000256
51
180
0
LINE
5
492
100
AcDbEntity
8
0
100
AcDbLine
10
-124.26895770000002
20
37.674903500000028
30
0
11
-124.26895770000004
21
4.3015724309800873
31
0
0
ARC
5
493
100
AcDbEntity
8
0
100
AcDbCircle
10
-125.4439577
20
4.3015724309800873
30
0
40
1.1749999999999732
210
-0
220
0
230
1
100
AcDbArc
50
-72.059217996344046
51
0
0
LINE
5
494
100
AcDbEntity
8
0
100
AcDbLine
10
-125.08201790747707
20
3.183706344819317
30
0
11
-126.6141533713849
21
2.6876354837483873
31
0
0
ARC
5
495
100
AcDbEntity
8
0
100
AcDbCircle
10
-125.74395769999998
20
5.3290705182007514e-14
30
0
40
2.8250000000000246
210
0
220
0
230
1
100
AcDbArc
50
107.94078200365476
51
252.05921799634527
0
LINE
5
496
100
AcDbEntity
8
0
100
AcDbLine
10
-126.61415337138487
20
-2.6876354837482808
30
0
11
-125.08201790747717
21
-3.1837063448192282
31
0
0
ARC
5
497
100
AcDbEntity
8
0
100
AcDbCircle
10
-125.44395770000008
20
-4.3015724309800518
30
0
40
1.1750000000000327
210
0
220
-0
230
1
100
AcDbArc
50
0
51
72.059217996344287
0
LINE
5
498
100
AcDbEntity
8
0
100
AcDbLine
10
-124.26895770000004
20
-4.3015724309800163
30
0
11
-124.26895770000004
21
-37.674903499999992
31
0
0
ARC
5
499
100
AcDbEntity
8
0
100
AcDbCircle
10
-121.0189577000001
20
-37.674903499999992
30
0
40
3.2499999999999396
210
0
220
0
230
1
100
AcDbArc
50
180
51
270
0
LINE
5
500
100
AcDbEntity
8
0
100
AcDbLine
10
-121.0189577000001
20
-40.924903499999942
30
0
11
-64.400530130980115
21
-40.924903500000013
31
0
0
ARC
5
501
100
AcDbEntity
8
0
100
AcDbCircle
10
-64.400530130980115
20
-42.099903499999989
30
0
40
1.1749999999999874
210
0
220
-0
230
1
100
AcDbArc
50
17.940782003654714
51
90
0
LINE
5
502
100
AcDbEntity
8
0
100
AcDbLine
10
-63.282664044819327
20
-41.737963707477078
30
0
11
-62.786593183748415
21
-43.270099171384828
31
0
0
ARC
5
503
100
AcDbEntity
8
0
100
AcDbCircle
10
-60.098957700000035
20
-42.399903500000008
30
0
40
2.8250000000000446
210
0
220
0
230
1
100
AcDbArc
50
197.94078200365311
51
342.05921799634621
0
LINE
5
504
100
AcDbEntity
8
0
100
AcDbLine
10
-57.411322216251662
20
-43.270099171384864
30
0
11
-56.915251355180779
21
-41.737963707477036
31
0
0
ARC
5
505
100
AcDbEntity
8
0
100
AcDbCircle
10
-55.79738526902004
20
-42.099903499999918
30
0
40
1.174999999999935
210
0
220
-0
230
1
100
AcDbArc
50
89.999999999998977
51
162.05921799634589
0
LINE
5
506
100
AcDbEntity
8
0
100
AcDbLine
10
-55.797385269020019
20
-40.924903499999985
30
0
11
55.797385269019877
21
-40.924903500000013
31
0
0
ARC
5
507
100
AcDbEntity
8
0
100
AcDbCircle
10
55.797385269019912
20
-42.099903499999954
30
0
40
1.1749999999999425
210
0
220
-0
230
1
100
AcDbArc
50
17.940782003653602
51
90.00000000000172
0
LINE
5
508
100
AcDbEntity
8
0
100
AcDbLine
10
56.915251355180665
20
-41.737963707477078
30
0
11
57.411322216251648
21
-43.270099171384842
31
0
0
ARC
5
509
100
AcDbEntity
8
0
100
AcDbCircle
10
60.098957699999964
20
-42.399903500000022
30
0
40
2.8249999999999886
210
0
220
0
230
1
100
AcDbArc
50
197.94078200365345
51
342.0592179963453
0
LINE
5
510
100
AcDbEntity
8
0
100
AcDbLine
10
62.78659318374828
20
-43.270099171384899
30
0
11
63.282664044819228
21
-41.737963707477078
31
0
0
ARC
5
511
100
AcDbEntity
8
0
100
AcDbCircle
10
64.400530130979945
20
-42.099903500000018
30
0
40
1.1749999999999972
210
0
220
0
230
1
100
AcDbArc
50
90.000000000001393
51
162.05921799634288
0
LINE
5
512
100
AcDbEntity
8
0
100
AcDbLine
10
64.400530130979917
20
-40.924903500000021
30
0
11
121.01895769999996
21
-40.924903499999992
31
0
0
ARC
5
513
100
AcDbEntity
8
0
100
AcDbCircle
10
121.01895769999992
20
-37.674903499999949
30
0
40
3.2500000000000373
210
-0
220
0
230
1
100
AcDbArc
50
270.00000000000074
51
360
0
LINE
5
514
100
AcDbEntity
8
0
100
AcDbLine
10
124.26895769999994
20
-37.674903499999992
30
0
11
124.26895769999999
21
-4.3015724309800429
31
0
0
ARC
5
515
100
AcDbEntity
8
0
100
AcDbCircle
10
125.44395770000008
20
-4.3015724309801229
30
0
40
1.1750000000000904
210
0
220
0
230
1
100
AcDbArc
50
107.94078200365925
51
180
0
LINE
5
516
100
AcDbEntity
8
0
100
AcDbLine
10
125.08201790747705
20
-3.1837063448192637
30
0
11
126.61415337138482
21
-2.6876354837482808
31
0
0
ARC
5
517
100
AcDbEntity
8
0
100
AcDbCircle
10
125.74395769999995
20
3.5527136788005009e-14
30
0
40
2.825000000000002
210
-0
220
0
230
1
100
AcDbArc
50
-72.05921799634568
51
72.059217996345126
0
LINE
5
518
100
AcDbEntity
8
0
100
AcDbLine
10
126.61415337138482
20
2.6876354837483341
30
0
11
125.08201790747691
21
3.1837063448192993
31
0
0
ARC
5
519
100
AcDbEntity
8
0
100
AcDbCircle
10
125.44395769999987
20
4.3015724309800518
30
0
40
1.1749999999999616
210
0
220
0
230
1
100
AcDbArc
50
180
51
252.05921799634237
0
LINE
5
520
100
AcDbEntity
8
0
100
AcDbLine
10
124.2689576999999
20
4.3015724309800518
30
0
11
124.26895769999994
21
37.674903500000028
31
0
0
ARC
5
521
100
AcDbEntity
8
0
100
AcDbCircle
10
121.01895769999996
20
37.674903500000028
30
0
40
3.2499999999999929
210
0
220
-0
230
1
100
AcDbArc
50
0
51
90
0
LINE
5
522
100
AcDbEntity
8
0
100
AcDbLine
10
121.01895769999996
20
40.924903500000021
30
0
11
64.400530130979917
21
40.924903499999992
31
0
0
ARC
5
523
100
AcDbEntity
8
0
100
AcDbCircle
10
64.400530130979874
20
42.099903499999925
30
0
40
1.174999999999917
210
0
220
0
230
1
100
AcDbArc
50
197.94078200365547
51
270.00000000000347
0
LINE
5
524
100
AcDbEntity
8
0
100
AcDbLine
10
63.282664044819157
20
41.737963707477022
30
0
11
62.786593183748245
21
43.270099171384885
31
0
0
ARC
5
525
100
AcDbEntity
8
0
100
AcDbCircle
10
60.098957699999964
20
42.399903500000029
30
0
40
2.8249999999999624
210
0
220
-0
230
1
100
AcDbArc
50
17.940782003654409
51
162.05921799634754
0
LINE
5
526
100
AcDbEntity
8
0
100
AcDbLine
10
57.411322216251648
20
43.270099171384793
30
0
11
56.915251355180629
21
41.737963707477093
31
0
0
ARC
5
527
100
AcDbEntity
8
0
100
AcDbCircle
10
55.797385269019841
20
42.099903500000053
30
0
40
1.1750000000000327
210
-0
220
0
230
1
100
AcDbArc
50
270.00000000000171
51
342.05921799634308
0
LINE
5
528
100
AcDbEntity
8
0
100
AcDbLine
10
55.797385269019841
20
40.924903500000021
30
0
11
-55.797385269019948
21
40.924903500000021
31
0
0
ARC
5
529
100
AcDbEntity
8
0
100
AcDbCircle
10
-55.797385269019976
20
42.099903499999947
30
0
40
1.174999999999923
210
0
220
0
230
1
100
AcDbArc
50
197.94078200365357
51
270.00000000000244
0
LINE
5
530
100
AcDbEntity
8
0
100
AcDbLine
10
-56.915251355180708
20
41.737963707477078
30
0
11
-57.411322216251726
21
43.270099171384899
31
0
0
ARC
5
531
100
AcDbEntity
8
0
100
AcDbCircle
10
-60.098957700000028
20
42.399903500000029
30
0
40
2.8249999999999909
210
0
220
-0
230
1
100
AcDbArc
50
17.940782003654839
51
162.05921799634623
0
LINE
5
532
100
AcDbEntity
8
0
100
AcDbLine
10
-62.786593183748344
20
43.270099171384864
30
0
11
-63.282664044819292
21
41.737963707477078
31
0
0
ARC
5
533
100
AcDbEntity
8
0
100
AcDbCircle
10
-64.400530130980115
20
42.099903500000018
30
0
40
1.1749999999999972
210
0
220
0
230
1
100
AcDbArc
50
270
51
342.0592179963445
0
ENDSEC
0
SECTION
2
OBJECTS
0
DICTIONARY
5
C
100
AcDbDictionary
3
ACAD_GROUP
350
D
3
ACAD_MLINESTYLE
350
17
0
DICTIONARY
5
D
100
AcDbDictionary
0
DICTIONARY
5
1A
330
C
100
AcDbDictionary
0
DICTIONARY
5
17
100
AcDbDictionary
0
ENDSEC
0
EOF
