0
SECTION
2
HEADER
9
$INSUNITS
70
4
9
$ACADVER
1
AC1014
9
$HANDSEED
5
FFFF
0
ENDSEC
0
SECTION
2
TABLES
0
TABLE
2
VPORT
5
8
100
AcDbSymbolTable
0
ENDTAB
0
TABLE
2
LTYPE
5
5
100
AcDbSymbolTable
0
LTYPE
5
14
100
AcDbSymbolTableRecord
100
AcDbLinetypeTableRecord
2
BYBLOCK
70
0
0
LTYPE
5
15
100
AcDbSymbolTableRecord
100
AcDbLinetypeTableRecord
2
BYLAYER
70
0
0
ENDTAB
0
TABLE
2
LAYER
5
2
100
AcDbSymbolTable
70
2
0
LAYER
5
50
100
AcDbSymbolTableRecord
100
AcDbLayerTableRecord
2
0
70
0
6
CONTINUOUS
0
ENDTAB
0
TABLE
2
STYLE
5
3
100
AcDbSymbolTable
70
1
0
STYLE
5
11
100
AcDbSymbolTableRecord
100
AcDbTextStyleTableRecord
2
STANDARD
70
0
0
ENDTAB
0
TABLE
2
VIEW
5
6
100
AcDbSymbolTable
70
0
0
ENDTAB
0
TABLE
2
UCS
5
7
100
AcDbSymbolTable
70
0
0
ENDTAB
0
TABLE
2
APPID
5
9
100
AcDbSymbolTable
70
2
0
APPID
5
12
100
AcDbSymbolTableRecord
100
AcDbRegAppTableRecord
2
ACAD
70
0
0
ENDTAB
0
TABLE
2
DIMSTYLE
5
A
100
AcDbSymbolTable
70
1
0
ENDTAB
0
TABLE
2
BLOCK_RECORD
5
1
100
AcDbSymbolTable
70
1
0
BLOCK_RECORD
5
1F
100
AcDbSymbolTableRecord
100
AcDbBlockTableRecord
2
*MODEL_SPACE
0
BLOCK_RECORD
5
1B
100
AcDbSymbolTableRecord
100
AcDbBlockTableRecord
2
*PAPER_SPACE
0
ENDTAB
0
ENDSEC
0
SECTION
2
BLOCKS
0
BLOCK
5
20
100
AcDbEntity
100
AcDbBlockBegin
2
*MODEL_SPACE
0
ENDBLK
5
21
100
AcDbEntity
100
AcDbBlockEnd
0
BLOCK
5
1C
100
AcDbEntity
100
AcDbBlockBegin
2
*PAPER_SPACE
0
ENDBLK
5
1D
100
AcDbEntity
100
AcDbBlockEnd
0
ENDSEC
0
SECTION
2
ENTITIES
0
CIRCLE
5
100
100
AcDbEntity
8
0
100
AcDbCircle
10
-126.24395770000004
20
7.1054273576010019e-14
30
0
40
0.92499999999999361
210
0
220
0
230
1
0
CIRCLE
5
101
100
AcDbEntity
8
0
100
AcDbCircle
10
60.098957699999964
20
42.899903499999965
30
2.6645352591003757e-14
40
0.92500000000001137
210
0
220
0
230
1
0
CIRCLE
5
102
100
AcDbEntity
8
0
100
AcDbCircle
10
126.2439576999999
20
7.1054273576010019e-14
30
0
40
0.92500000000001137
210
0
220
0
230
1
0
CIRCLE
5
103
100
AcDbEntity
8
0
100
AcDbCircle
10
-60.098957700000035
20
-42.899903499999965
30
0
40
0.92499999999999361
210
0
220
0
230
1
0
CIRCLE
5
104
100
AcDbEntity
8
0
100
AcDbCircle
10
-60.098957700000035
20
42.899903500000036
30
2.6645352591003757e-14
40
0.92500000000000249
210
0
220
0
230
1
0
CIRCLE
5
105
100
AcDbEntity
8
0
100
AcDbCircle
10
60.098957699999964
20
-42.899903499999965
30
0
40
0.92500000000001137
210
0
220
0
230
1
0
LINE
5
106
100
AcDbEntity
8
0
100
AcDbLine
10
-80.744617300000044
20
22.074146500000111
30
0
11
-80.744617300000073
21
35.074146500000083
31
0
0
ARC
5
107
100
AcDbEntity
8
0
100
AcDbCircle
10
-80.319617300000175
20
35.074146500000154
30
0
40
0.42499999999989768
210
0
220
-0
230
1
100
AcDbArc
50
89.999999999986599
51
180
0
LINE
5
108
100
AcDbEntity
8
0
100
AcDbLine
10
-80.319617300000075
20
35.499146500000052
30
0
11
-67.319617300000075
21
35.499146500000123
31
0
0
ARC
5
109
100
AcDbEntity
8
0
100
AcDbCircle
10
-67.31961730000009
20
35.074146500000083
30
0
40
0.42500000000005755
210
0
220
-0
230
1
100
AcDbArc
50
0
51
89.999999999998082
0
LINE
5
110
100
AcDbEntity
8
0
100
AcDbLine
10
-66.894617300000036
20
35.074146500000083
30
0
11
-66.894617300000078
21
22.074146500000111
31
0
0
ARC
5
111
100
AcDbEntity
8
0
100
AcDbCircle
10
-67.319617299999976
20
22.07414650000004
30
0
40
0.42499999999989768
210
0
220
0
230
1
100
AcDbArc
50
-90.000000000013429
51
0
0
LINE
5
112
100
AcDbEntity
8
0
100
AcDbLine
10
-67.319617300000075
20
21.649146500000143
30
0
11
-80.319617300000061
21
21.649146500000143
31
0
0
ARC
5
113
100
AcDbEntity
8
0
100
AcDbCircle
10
-80.319617300000033
20
22.074146500000182
30
0
40
0.42500000000002203
210
0
220
0
230
1
100
AcDbArc
50
180
51
269.99999999999619
0
LINE
5
114
100
AcDbEntity
8
0
100
AcDbLine
10
-86.369617300000073
20
21.649146500000143
30
0
11
-99.369617300000073
21
21.649146500000143
31
0
0
ARC
5
115
100
AcDbEntity
8
0
100
AcDbCircle
10
-99.369617300000016
20
22.074146500000182
30
0
40
0.42500000000005755
210
0
220
0
230
1
100
AcDbArc
50
180
51
269.99999999999233
0
LINE
5
116
100
AcDbEntity
8
0
100
AcDbLine
10
-99.794617300000084
20
22.074146500000111
30
0
11
-99.794617300000112
21
35.074146500000083
31
0
0
ARC
5
117
100
AcDbEntity
8
0
100
AcDbCircle
10
-99.369617300000186
20
35.074146500000154
30
0
40
0.42499999999989768
210
0
220
-0
230
1
100
AcDbArc
50
89.999999999986599
51
180
0
LINE
5
118
100
AcDbEntity
8
0
100
AcDbLine
10
-99.369617300000087
20
35.499146500000052
30
0
11
-86.369617300000087
21
35.499146500000123
31
0
0
ARC
5
119
100
AcDbEntity
8
0
100
AcDbCircle
10
-86.369617300000101
20
35.074146500000083
30
0
40
0.42500000000007532
210
0
220
-0
230
1
100
AcDbArc
50
0
51
89.999999999998082
0
LINE
5
120
100
AcDbEntity
8
0
100
AcDbLine
10
-85.944617300000033
20
35.074146500000083
30
0
11
-85.944617300000061
21
22.074146500000111
31
0
0
ARC
5
121
100
AcDbEntity
8
0
100
AcDbCircle
10
-86.369617299999959
20
22.07414650000004
30
0
40
0.42499999999989768
210
0
220
0
230
1
100
AcDbArc
50
-90.000000000011497
51
0
0
LINE
5
122
100
AcDbEntity
8
0
100
AcDbLine
10
-118.84461730000005
20
22.074146500000111
30
0
11
-118.8446173000001
21
35.074146500000083
31
0
0
ARC
5
123
100
AcDbEntity
8
0
100
AcDbCircle
10
-118.4196173000002
20
35.074146500000154
30
0
40
0.42499999999989768
210
0
220
-0
230
1
100
AcDbArc
50
89.999999999984681
51
180
0
LINE
5
124
100
AcDbEntity
8
0
100
AcDbLine
10
-118.41961730000008
20
35.499146500000052
30
0
11
-105.41961730000008
21
35.499146500000123
31
0
0
ARC
5
125
100
AcDbEntity
8
0
100
AcDbCircle
10
-105.41961730000008
20
35.074146500000083
30
0
40
0.42500000000003979
210
0
220
-0
230
1
100
AcDbArc
50
0
51
90
0
LINE
5
126
100
AcDbEntity
8
0
100
AcDbLine
10
-104.99461730000004
20
35.074146500000083
30
0
11
-104.9946173000001
21
22.074146500000111
31
0
0
ARC
5
127
100
AcDbEntity
8
0
100
AcDbCircle
10
-105.41961730000008
20
22.07414650000004
30
0
40
0.42499999999996874
210
-0
220
0
230
1
100
AcDbArc
50
-90
51
0
0
LINE
5
128
100
AcDbEntity
8
0
100
AcDbLine
10
-105.41961730000008
20
21.649146500000072
30
0
11
-118.41961730000008
21
21.649146500000143
31
0
0
ARC
5
129
100
AcDbEntity
8
0
100
AcDbCircle
10
-118.41961730000003
20
22.074146500000182
30
0
40
0.42500000000002203
210
0
220
0
230
1
100
AcDbArc
50
180
51
269.99999999999233
0
LINE
5
130
100
AcDbEntity
8
0
100
AcDbLine
10
-61.694617300000047
20
22.074146500000111
30
0
11
-61.694617300000083
21
35.074146500000225
31
0
0
ARC
5
131
100
AcDbEntity
8
0
100
AcDbCircle
10
-61.269617300000185
20
35.074146500000154
30
0
40
0.42499999999989768
210
0
220
-0
230
1
100
AcDbArc
50
89.999999999985633
51
180
0
LINE
5
132
100
AcDbEntity
8
0
100
AcDbLine
10
-61.269617300000078
20
35.499146500000052
30
0
11
-48.269617300000078
21
35.499146500000052
31
0
0
ARC
5
133
100
AcDbEntity
8
0
100
AcDbCircle
10
-48.269617300000135
20
35.074146500000012
30
0
40
0.42500000000002203
210
0
220
-0
230
1
100
AcDbArc
50
0
51
89.999999999992355
0
LINE
5
134
100
AcDbEntity
8
0
100
AcDbLine
10
-47.84461730000011
20
35.074146500000083
30
0
11
-47.844617300000181
21
22.074146500000111
31
0
0
ARC
5
135
100
AcDbEntity
8
0
100
AcDbCircle
10
-48.269617300000078
20
22.07414650000004
30
0
40
0.42499999999989768
210
-0
220
0
230
1
100
AcDbArc
50
-90
51
0
0
LINE
5
136
100
AcDbEntity
8
0
100
AcDbLine
10
-48.269617300000078
20
21.649146500000143
30
0
11
-61.269617300000064
21
21.649146500000143
31
0
0
ARC
5
137
100
AcDbEntity
8
0
100
AcDbCircle
10
-61.269617300000021
20
22.074146500000182
30
0
40
0.42500000000002203
210
0
220
0
230
1
100
AcDbArc
50
180
51
269.99999999999426
0
ARC
5
138
100
AcDbEntity
8
0
100
AcDbCircle
10
86.367882699999939
20
35.074146499999941
30
0
40
0.42500000000003979
210
0
220
-0
230
1
100
AcDbArc
50
89.999999999996163
51
180
0
LINE
5
139
100
AcDbEntity
8
0
100
AcDbLine
10
85.942882699999956
20
22.07414650000004
30
0
11
85.942882699999856
21
35.074146500000012
31
0
0
ARC
5
140
100
AcDbEntity
8
0
100
AcDbCircle
10
86.367882699999967
20
22.074146500000111
30
0
40
0.42500000000000426
210
0
220
0
230
1
100
AcDbArc
50
180
51
270
0
LINE
5
141
100
AcDbEntity
8
0
100
AcDbLine
10
99.367882699999967
20
21.649146500000072
30
0
11
86.367882699999967
21
21.649146500000143
31
0
0
ARC
5
142
100
AcDbEntity
8
0
100
AcDbCircle
10
99.36788270000001
20
22.074146500000111
30
0
40
0.42500000000003979
210
0
220
0
230
1
100
AcDbArc
50
269.99999999999426
51
360
0
LINE
5
143
100
AcDbEntity
8
0
100
AcDbLine
10
99.792882699999979
20
35.074146500000012
30
0
11
99.792882700000092
21
22.07414650000004
31
0
0
ARC
5
144
100
AcDbEntity
8
0
100
AcDbCircle
10
99.367882699999967
20
35.074146499999941
30
0
40
0.42500000000000426
210
0
220
-0
230
1
100
AcDbArc
50
0
51
90
0
LINE
5
145
100
AcDbEntity
8
0
100
AcDbLine
10
86.367882699999967
20
35.499146499999981
30
0
11
99.367882699999967
21
35.49914649999991
31
0
0
LINE
5
146
100
AcDbEntity
8
0
100
AcDbLine
10
-64.400530130980144
20
40.924903500000056
30
0
11
-121.01895770000002
21
40.924903500000063
31
0
0
ARC
5
147
100
AcDbEntity
8
0
100
AcDbCircle
10
-121.01895770000004
20
37.674903500000099
30
0
40
3.2499999999999574
210
0
220
-0
230
1
100
AcDbArc
50
89.999999999999503
51
180
0
LINE
5
148
100
AcDbEntity
8
0
100
AcDbLine
10
-124.26895769999999
20
37.674903500000028
30
0
11
-124.26895770000003
21
4.3015724309800873
31
0
0
ARC
5
149
100
AcDbEntity
8
0
100
AcDbCircle
10
-125.44395769999987
20
4.3015724309800163
30
0
40
1.1749999999998895
210
-0
220
0
230
1
100
AcDbArc
50
-72.059217996348536
51
0
0
LINE
5
150
100
AcDbEntity
8
0
100
AcDbLine
10
-125.08201790747707
20
3.1837063448192993
30
0
11
-126.6141533713849
21
2.6876354837483518
31
0
0
ARC
5
151
100
AcDbEntity
8
0
100
AcDbCircle
10
-125.74395769999994
20
1.4210854715202004e-13
30
0
40
2.8249999999999225
210
0
220
0
230
1
100
AcDbArc
50
107.94078200365638
51
252.05921799634547
0
LINE
5
152
100
AcDbEntity
8
0
100
AcDbLine
10
-126.6141533713848
20
-2.6876354837481387
30
0
11
-125.08201790747714
21
-3.1837063448191572
31
0
0
ARC
5
153
100
AcDbEntity
8
0
100
AcDbCircle
10
-125.44395770000008
20
-4.3015724309798742
30
0
40
1.1750000000000504
210
-0
220
0
230
1
100
AcDbArc
50
0
51
72.059217996343051
0
LINE
5
154
100
AcDbEntity
8
0
100
AcDbLine
10
-124.26895770000003
20
-4.3015724309799452
30
0
11
-124.26895770000003
21
-37.674903499999957
31
0
0
ARC
5
155
100
AcDbEntity
8
0
100
AcDbCircle
10
-121.01895770000006
20
-37.674903499999957
30
0
40
3.2499999999999751
210
0
220
0
230
1
100
AcDbArc
50
180
51
269.9999999999992
0
LINE
5
156
100
AcDbEntity
8
0
100
AcDbLine
10
-121.0189577000001
20
-40.924903499999914
30
0
11
-64.400530130980115
21
-40.924903499999992
31
0
0
ARC
5
157
100
AcDbEntity
8
0
100
AcDbCircle
10
-64.400530130980101
20
-42.099903499999911
30
0
40
1.1749999999999572
210
0
220
-0
230
1
100
AcDbArc
50
17.940782003650298
51
90.000000000000711
0
LINE
5
158
100
AcDbEntity
8
0
100
AcDbLine
10
-63.282664044819306
20
-41.737963707477093
30
0
11
-62.786593183748408
21
-43.270099171384828
31
0
0
ARC
5
159
100
AcDbEntity
8
0
100
AcDbCircle
10
-60.098957700000042
20
-42.399903499999994
30
0
40
2.8250000000000335
210
0
220
0
230
1
100
AcDbArc
50
197.94078200365345
51
342.05921799634632
0
LINE
5
160
100
AcDbEntity
8
0
100
AcDbLine
10
-57.411322216251691
20
-43.270099171384828
30
0
11
-56.915251355180786
21
-41.737963707477022
31
0
0
ARC
5
161
100
AcDbEntity
8
0
100
AcDbCircle
10
-55.797385269020126
20
-42.09990349999984
30
0
40
1.174999999999855
210
0
220
-0
230
1
100
AcDbArc
50
89.999999999996206
51
162.05921799634754
0
LINE
5
162
100
AcDbEntity
8
0
100
AcDbLine
10
-55.797385269020047
20
-40.924903499999985
30
0
11
55.797385269019884
21
-40.924903499999999
31
0
0
ARC
5
163
100
AcDbEntity
8
0
100
AcDbCircle
10
55.797385269019877
20
-42.099903499999982
30
0
40
1.1750000000000129
210
0
220
-0
230
1
100
AcDbArc
50
17.94078200365319
51
90
0
LINE
5
164
100
AcDbEntity
8
0
100
AcDbLine
10
56.9152513551807
20
-41.737963707477093
30
0
11
57.411322216251683
21
-43.270099171384828
31
0
0
ARC
5
165
100
AcDbEntity
8
0
100
AcDbCircle
10
60.098957699999964
20
-42.399903499999994
30
0
40
2.8249999999999571
210
0
220
0
230
1
100
AcDbArc
50
197.94078200365396
51
342.05921799634609
0
LINE
5
166
100
AcDbEntity
8
0
100
AcDbLine
10
62.78659318374828
20
-43.270099171384828
30
0
11
63.282664044819192
21
-41.737963707477022
31
0
0
ARC
5
167
100
AcDbEntity
8
0
100
AcDbCircle
10
64.400530130979774
20
-42.09990349999984
30
0
40
1.174999999999784
210
0
220
-0
230
1
100
AcDbArc
50
89.999999999993079
51
162.0592179963466
0
LINE
5
168
100
AcDbEntity
8
0
100
AcDbLine
10
64.400530130979917
20
-40.924903500000056
30
0
11
121.01895769999996
21
-40.924903499999992
31
0
0
ARC
5
169
100
AcDbEntity
8
0
100
AcDbCircle
10
121.01895769999996
20
-37.674903499999957
30
0
40
3.2500000000000284
210
-0
220
0
230
1
100
AcDbArc
50
-90
51
0
0
LINE
5
170
100
AcDbEntity
8
0
100
AcDbLine
10
124.26895769999999
20
-37.674903499999957
30
0
11
124.26895769999999
21
-4.3015724309800163
31
0
0
ARC
5
171
100
AcDbEntity
8
0
100
AcDbCircle
10
125.44395769999991
20
-4.3015724309800163
30
0
40
1.1749999999999792
210
0
220
0
230
1
100
AcDbArc
50
107.94078200365374
51
180
0
LINE
5
172
100
AcDbEntity
8
0
100
AcDbLine
10
125.08201790747702
20
-3.1837063448192282
30
0
11
126.61415337138482
21
-2.6876354837482097
31
0
0
ARC
5
173
100
AcDbEntity
8
0
100
AcDbCircle
10
125.74395769999998
20
7.1054273576010019e-14
30
0
40
2.8249999999999571
210
-0
220
0
230
1
100
AcDbArc
50
-72.059217996345978
51
72.059217996345097
0
LINE
5
174
100
AcDbEntity
8
0
100
AcDbLine
10
126.61415337138486
20
2.6876354837483518
30
0
11
125.08201790747691
21
3.1837063448192993
31
0
0
ARC
5
175
100
AcDbEntity
8
0
100
AcDbCircle
10
125.44395769999991
20
4.3015724309800873
30
0
40
1.1749999999999972
210
0
220
0
230
1
100
AcDbArc
50
180
51
252.05921799634081
0
LINE
5
176
100
AcDbEntity
8
0
100
AcDbLine
10
124.2689576999999
20
4.3015724309800873
30
0
11
124.26895769999994
21
37.674903500000028
31
0
0
ARC
5
177
100
AcDbEntity
8
0
100
AcDbCircle
10
121.01895769999999
20
37.674903500000099
30
0
40
3.2499999999999929
210
-0
220
0
230
1
100
AcDbArc
50
0
51
90.000000000000512
0
LINE
5
178
100
AcDbEntity
8
0
100
AcDbLine
10
121.01895769999996
20
40.924903500000056
30
0
11
64.400530130979917
21
40.924903499999992
31
0
0
ARC
5
179
100
AcDbEntity
8
0
100
AcDbCircle
10
64.400530130979874
20
42.099903499999911
30
0
40
1.1749999999999234
210
0
220
0
230
1
100
AcDbArc
50
197.94078200365098
51
270.0000000000021
0
LINE
5
180
100
AcDbEntity
8
0
100
AcDbLine
10
63.282664044819121
20
41.737963707477093
30
0
11
62.786593183748209
21
43.270099171384899
31
0
0
ARC
5
181
100
AcDbEntity
8
0
100
AcDbCircle
10
60.098957699999929
20
42.399903499999994
30
0
40
2.8249999999999793
210
0
220
-0
230
1
100
AcDbArc
50
17.940782003655354
51
162.05921799634618
0
LINE
5
182
100
AcDbEntity
8
0
100
AcDbLine
10
57.411322216251612
20
43.270099171384828
30
0
11
56.915251355180665
21
41.737963707477164
31
0
0
ARC
5
183
100
AcDbEntity
8
0
100
AcDbCircle
10
55.797385269019912
20
42.099903499999982
30
0
40
1.1749999999999261
210
-0
220
0
230
1
100
AcDbArc
50
270
51
342.05921799634899
0
LINE
5
184
100
AcDbEntity
8
0
100
AcDbLine
10
55.797385269019912
20
40.924903500000056
30
0
11
-55.797385269019948
21
40.92490350000007
31
0
0
ARC
5
185
100
AcDbEntity
8
0
100
AcDbCircle
10
-55.797385269019983
20
42.099903499999911
30
0
40
1.1749999999999234
210
0
220
0
230
1
100
AcDbArc
50
197.94078200365098
51
270.00000000000074
0
LINE
5
186
100
AcDbEntity
8
0
100
AcDbLine
10
-56.915251355180736
20
41.737963707477093
30
0
11
-57.411322216251733
21
43.270099171384899
31
0
0
ARC
5
187
100
AcDbEntity
8
0
100
AcDbCircle
10
-60.098957700000014
20
42.399903500000065
30
0
40
2.8249999999999571
210
0
220
-0
230
1
100
AcDbArc
50
17.940782003653993
51
162.05921799634754
0
LINE
5
188
100
AcDbEntity
8
0
100
AcDbLine
10
-62.786593183748309
20
43.270099171384828
30
0
11
-63.282664044819285
21
41.737963707477164
31
0
0
ARC
5
189
100
AcDbEntity
8
0
100
AcDbCircle
10
-64.400530130980144
20
42.099903500000053
30
0
40
1.1749999999999972
210
0
220
0
230
1
100
AcDbArc
50
270
51
342.05921799634734
0
ARC
5
190
100
AcDbEntity
8
0
100
AcDbCircle
10
-30.313367300000085
20
22.07414650000004
30
0
40
0.42500000000000426
210
0
220
0
230
1
100
AcDbArc
50
180
51
270.00000000000239
0
LINE
5
191
100
AcDbEntity
8
0
100
AcDbLine
10
-17.31336730000006
20
21.649146500000072
30
0
11
-30.313367300000067
21
21.649146500000072
31
0
0
ARC
5
192
100
AcDbEntity
8
0
100
AcDbCircle
10
-17.313367300000042
20
22.07414650000004
30
0
40
0.42499999999996874
210
0
220
0
230
1
100
AcDbArc
50
-90.000000000002387
51
0
0
LINE
5
193
100
AcDbEntity
8
0
100
AcDbLine
10
-16.888367300000038
20
35.074146500000012
30
0
11
-16.888367300000041
21
22.07414650000004
31
0
0
ARC
5
194
100
AcDbEntity
8
0
100
AcDbCircle
10
-17.313367300000042
20
35.074146500000012
30
0
40
0.42500000000000426
210
0
220
-0
230
1
100
AcDbArc
50
0
51
90.000000000002416
0
LINE
5
195
100
AcDbEntity
8
0
100
AcDbLine
10
-30.313367300000067
20
35.499146499999981
30
0
11
-17.31336730000006
21
35.499146499999981
31
0
0
ARC
5
196
100
AcDbEntity
8
0
100
AcDbCircle
10
-30.313367300000085
20
35.074146500000012
30
0
40
0.42499999999996874
210
0
220
-0
230
1
100
AcDbArc
50
89.999999999997613
51
180
0
LINE
5
197
100
AcDbEntity
8
0
100
AcDbLine
10
-30.738367300000089
20
22.07414650000004
30
0
11
-30.738367300000089
21
35.074146500000012
31
0
0
LINE
5
198
100
AcDbEntity
8
0
100
AcDbLine
10
25.180882699999927
20
21.074146500000097
30
0
11
25.180882699999945
21
35.074146500000012
31
0
0
ARC
5
199
100
AcDbEntity
8
0
100
AcDbCircle
10
25.605882699999913
20
35.074146500000012
30
0
40
0.42499999999996874
210
0
220
-0
230
1
100
AcDbArc
50
89.999999999997613
51
180
0
LINE
5
200
100
AcDbEntity
8
0
100
AcDbLine
10
25.605882699999931
20
35.499146499999981
30
0
11
31.605882699999928
21
35.499146500000052
31
0
0
ARC
5
201
100
AcDbEntity
8
0
100
AcDbCircle
10
31.605882699999945
20
35.074146499999941
30
0
40
0.42500000000000426
210
0
220
-0
230
1
100
AcDbArc
50
0
51
90
0
LINE
5
202
100
AcDbEntity
8
0
100
AcDbLine
10
32.03088269999995
20
35.074146500000012
30
0
11
32.030882700000056
21
21.074146500000097
31
0
0
ARC
5
203
100
AcDbEntity
8
0
100
AcDbCircle
10
31.605882699999981
20
21.074146500000168
30
0
40
0.42500000000003979
210
0
220
0
230
1
100
AcDbArc
50
269.99999999999523
51
360
0
LINE
5
204
100
AcDbEntity
8
0
100
AcDbLine
10
31.605882699999945
20
20.649146500000128
30
0
11
25.605882699999931
21
20.649146500000057
31
0
0
ARC
5
205
100
AcDbEntity
8
0
100
AcDbCircle
10
25.605882699999913
20
21.074146500000097
30
0
40
0.4249999999999865
210
0
220
0
230
1
100
AcDbArc
50
180
51
270.00000000000477
0
ARC
5
206
100
AcDbEntity
8
0
100
AcDbCircle
10
118.41788269999995
20
3.0241465000001
30
0
40
0.42500000000003979
210
0
220
0
230
1
100
AcDbArc
50
269.99999999999619
51
360
0
LINE
5
207
100
AcDbEntity
8
0
100
AcDbLine
10
118.84288269999996
20
16.024146500000001
30
0
11
118.84288269999999
21
3.0241465000000289
31
0
0
ARC
5
208
100
AcDbEntity
8
0
100
AcDbCircle
10
118.41788269999995
20
16.024146499999929
30
0
40
0.42500000000000426
210
0
220
-0
230
1
100
AcDbArc
50
0
51
90
0
LINE
5
209
100
AcDbEntity
8
0
100
AcDbLine
10
105.41788269999995
20
16.449146499999969
30
0
11
118.41788269999995
21
16.449146499999895
31
0
0
ARC
5
210
100
AcDbEntity
8
0
100
AcDbCircle
10
105.41788269999991
20
16.024146499999929
30
0
40
0.42500000000003979
210
0
220
-0
230
1
100
AcDbArc
50
89.999999999994273
51
180
0
LINE
5
211
100
AcDbEntity
8
0
100
AcDbLine
10
104.99288269999994
20
3.0241465000000289
30
0
11
104.99288269999987
21
16.024146500000001
31
0
0
ARC
5
212
100
AcDbEntity
8
0
100
AcDbCircle
10
105.41788269999991
20
3.0241465000001
30
0
40
0.42499999999996874
210
0
220
0
230
1
100
AcDbArc
50
180
51
270.00000000000574
0
LINE
5
213
100
AcDbEntity
8
0
100
AcDbLine
10
118.41788269999992
20
2.5991465000000602
30
0
11
105.41788269999995
21
2.599146500000133
31
0
0
LINE
5
214
100
AcDbEntity
8
0
100
AcDbLine
10
42.642882699999944
20
16.024146500000001
30
0
11
42.642882699999944
21
3.0241465000000289
31
0
0
ARC
5
215
100
AcDbEntity
8
0
100
AcDbCircle
10
42.217882699999976
20
3.0241465000001
30
0
40
0.42500000000003979
210
0
220
0
230
1
100
AcDbArc
50
269.99999999999523
51
360
0
LINE
5
216
100
AcDbEntity
8
0
100
AcDbLine
10
42.21788269999994
20
2.5991465000000602
30
0
11
29.217882699999933
21
2.599146500000062
31
0
0
ARC
5
217
100
AcDbEntity
8
0
100
AcDbCircle
10
29.217882699999933
20
3.0241465000001
30
0
40
0.42500000000000426
210
0
220
0
230
1
100
AcDbArc
50
180
51
270
0
LINE
5
218
100
AcDbEntity
8
0
100
AcDbLine
10
28.792882699999947
20
3.0241465000000289
30
0
11
28.792882699999911
21
16.024146500000001
31
0
0
ARC
5
219
100
AcDbEntity
8
0
100
AcDbCircle
10
29.217882699999933
20
16.024146499999929
30
0
40
0.42500000000003979
210
0
220
-0
230
1
100
AcDbArc
50
90
51
180
0
LINE
5
220
100
AcDbEntity
8
0
100
AcDbLine
10
29.217882699999933
20
16.449146499999969
30
0
11
42.21788269999994
21
16.449146500000037
31
0
0
ARC
5
221
100
AcDbEntity
8
0
100
AcDbCircle
10
42.217882699999976
20
16.024146499999929
30
0
40
0.42499999999996874
210
0
220
-0
230
1
100
AcDbArc
50
0
51
90.000000000004803
0
ARC
5
222
100
AcDbEntity
8
0
100
AcDbCircle
10
-33.982117299999999
20
16.024146500000001
30
0
40
0.42499999999995097
210
0
220
-0
230
1
100
AcDbArc
50
0
51
90.000000000007674
0
LINE
5
223
100
AcDbEntity
8
0
100
AcDbLine
10
-46.982117300000056
20
16.44914650000004
30
0
11
-33.982117300000056
21
16.449146499999966
31
0
0
ARC
5
224
100
AcDbEntity
8
0
100
AcDbCircle
10
-46.982117300000077
20
16.024146500000001
30
0
40
0.42500000000003979
210
0
220
-0
230
1
100
AcDbArc
50
89.999999999997129
51
180
0
LINE
5
225
100
AcDbEntity
8
0
100
AcDbLine
10
-47.407117300000067
20
3.0241465000000289
30
0
11
-47.407117300000117
21
16.024146500000072
31
0
0
ARC
5
226
100
AcDbEntity
8
0
100
AcDbCircle
10
-46.982117300000112
20
3.0241465000000289
30
0
40
0.42499999999995097
210
0
220
0
230
1
100
AcDbArc
50
180
51
270.00000000000762
0
LINE
5
227
100
AcDbEntity
8
0
100
AcDbLine
10
-33.982117300000084
20
2.5991465000000602
30
0
11
-46.982117300000056
21
2.599146500000062
31
0
0
ARC
5
228
100
AcDbEntity
8
0
100
AcDbCircle
10
-33.982117300000034
20
3.0241465000000289
30
0
40
0.42499999999996874
210
0
220
0
230
1
100
AcDbArc
50
-90.000000000006722
51
0
0
LINE
5
229
100
AcDbEntity
8
0
100
AcDbLine
10
-33.557117300000044
20
16.024146500000001
30
0
11
-33.557117300000066
21
3.0241465000000289
31
0
0
LINE
5
230
100
AcDbEntity
8
0
100
AcDbLine
10
-116.03836730000006
20
-2.6008534999999711
30
0
11
-103.03836730000006
21
-2.6008534999998307
31
0
0
ARC
5
231
100
AcDbEntity
8
0
100
AcDbCircle
10
-103.03836730000006
20
-3.0258534999998687
30
0
40
0.42500000000000426
210
-0
220
0
230
1
100
AcDbArc
50
0
51
90
0
LINE
5
232
100
AcDbEntity
8
0
100
AcDbLine
10
-102.61336730000005
20
-3.0258534999999398
30
0
11
-102.61336730000008
21
-16.025853499999982
31
0
0
ARC
5
233
100
AcDbEntity
8
0
100
AcDbCircle
10
-103.03836730000003
20
-16.025853499999982
30
0
40
0.42499999999996874
210
0
220
0
230
1
100
AcDbArc
50
-90.000000000005755
51
0
0
LINE
5
234
100
AcDbEntity
8
0
100
AcDbLine
10
-103.03836730000006
20
-16.450853499999951
30
0
11
-116.03836730000006
21
-16.450853499999948
31
0
0
ARC
5
235
100
AcDbEntity
8
0
100
AcDbCircle
10
-116.03836730000009
20
-16.025853499999982
30
0
40
0.4249999999999865
210
0
220
0
230
1
100
AcDbArc
50
180
51
270.00000000000381
0
LINE
5
236
100
AcDbEntity
8
0
100
AcDbLine
10
-116.46336730000007
20
-16.025853499999982
30
0
11
-116.46336730000007
21
-3.0258534999999398
31
0
0
ARC
5
237
100
AcDbEntity
8
0
100
AcDbCircle
10
-116.03836730000015
20
-3.0258534999998687
30
0
40
0.42499999999989768
210
0
220
-0
230
1
100
AcDbArc
50
89.999999999986599
51
180
0
ARC
5
238
100
AcDbEntity
8
0
100
AcDbCircle
10
-37.457117300000071
20
-3.0258534999998687
30
0
40
0.42499999999996874
210
0
220
-0
230
1
100
AcDbArc
50
90
51
180
0
LINE
5
239
100
AcDbEntity
8
0
100
AcDbLine
10
-37.882117300000075
20
-16.025853499999982
30
0
11
-37.88211730000004
21
-3.0258534999999398
31
0
0
ARC
5
240
100
AcDbEntity
8
0
100
AcDbCircle
10
-37.457117300000093
20
-16.025853499999982
30
0
40
0.4249999999999865
210
0
220
0
230
1
100
AcDbArc
50
180
51
270.00000000000284
0
LINE
5
241
100
AcDbEntity
8
0
100
AcDbLine
10
-24.457117300000064
20
-16.450853499999951
30
0
11
-37.457117300000071
21
-16.450853499999948
31
0
0
ARC
5
242
100
AcDbEntity
8
0
100
AcDbCircle
10
-24.457117300000046
20
-16.025853499999982
30
0
40
0.42499999999996874
210
0
220
0
230
1
100
AcDbArc
50
-90.000000000002387
51
0
0
LINE
5
243
100
AcDbEntity
8
0
100
AcDbLine
10
-24.03211730000006
20
-3.0258534999999398
30
0
11
-24.032117300000078
21
-16.025853499999982
31
0
0
ARC
5
244
100
AcDbEntity
8
0
100
AcDbCircle
10
-24.457117300000064
20
-3.0258534999998687
30
0
40
0.42500000000000426
210
-0
220
0
230
1
100
AcDbArc
50
0
51
90
0
LINE
5
245
100
AcDbEntity
8
0
100
AcDbLine
10
-37.457117300000071
20
-2.6008534999999
30
0
11
-24.457117300000064
21
-2.6008534999998307
31
0
0
LINE
5
246
100
AcDbEntity
8
0
100
AcDbLine
10
38.317882699999934
20
-16.025853499999982
30
0
11
38.317882699999934
21
-3.0258534999999398
31
0
0
ARC
5
247
100
AcDbEntity
8
0
100
AcDbCircle
10
38.742882699999939
20
-3.0258534999998687
30
0
40
0.42499999999996874
210
0
220
-0
230
1
100
AcDbArc
50
90
51
180
0
LINE
5
248
100
AcDbEntity
8
0
100
AcDbLine
10
38.742882699999939
20
-2.6008534999999
30
0
11
51.742882699999946
21
-2.6008534999999018
31
0
0
ARC
5
249
100
AcDbEntity
8
0
100
AcDbCircle
10
51.742882699999946
20
-3.0258534999998687
30
0
40
0.42500000000000426
210
-0
220
0
230
1
100
AcDbArc
50
0
51
90
0
LINE
5
250
100
AcDbEntity
8
0
100
AcDbLine
10
52.16788269999995
20
-3.0258534999999398
30
0
11
52.167882700000021
21
-16.025853499999982
31
0
0
ARC
5
251
100
AcDbEntity
8
0
100
AcDbCircle
10
51.742882699999981
20
-16.025853499999911
30
0
40
0.42500000000003979
210
0
220
0
230
1
100
AcDbArc
50
269.99999999999523
51
360
0
LINE
5
252
100
AcDbEntity
8
0
100
AcDbLine
10
51.742882699999946
20
-16.450853499999951
30
0
11
38.742882699999939
21
-16.450853499999948
31
0
0
ARC
5
253
100
AcDbEntity
8
0
100
AcDbCircle
10
38.742882699999939
20
-16.025853499999911
30
0
40
0.42500000000000426
210
0
220
0
230
1
100
AcDbArc
50
180
51
270
0
LINE
5
254
100
AcDbEntity
8
0
100
AcDbLine
10
111.69913269999995
20
-22.075853499999951
30
0
11
111.69913270000002
21
-35.075853499999994
31
0
0
ARC
5
255
100
AcDbEntity
8
0
100
AcDbCircle
10
111.27413269999998
20
-35.075853499999923
30
0
40
0.42500000000003979
210
0
220
0
230
1
100
AcDbArc
50
269.99999999999426
51
360
0
LINE
5
256
100
AcDbEntity
8
0
100
AcDbLine
10
111.27413269999994
20
-35.500853499999963
30
0
11
98.274132699999939
21
-35.500853499999891
31
0
0
ARC
5
257
100
AcDbEntity
8
0
100
AcDbCircle
10
98.274132699999939
20
-35.075853499999923
30
0
40
0.42500000000000426
210
0
220
0
230
1
100
AcDbArc
50
180
51
270
0
LINE
5
258
100
AcDbEntity
8
0
100
AcDbLine
10
97.849132699999927
20
-35.075853499999994
30
0
11
97.84913269999997
21
-22.075853499999951
31
0
0
ARC
5
259
100
AcDbEntity
8
0
100
AcDbCircle
10
98.274132699999939
20
-22.07585349999988
30
0
40
0.42499999999996874
210
0
220
-0
230
1
100
AcDbArc
50
90
51
180
0
LINE
5
260
100
AcDbEntity
8
0
100
AcDbLine
10
98.274132699999939
20
-21.650853499999911
30
0
11
111.27413269999994
21
-21.65085349999984
31
0
0
ARC
5
261
100
AcDbEntity
8
0
100
AcDbCircle
10
111.27413269999994
20
-22.07585349999988
30
0
40
0.42500000000000426
210
-0
220
0
230
1
100
AcDbArc
50
0
51
90
0
LINE
5
262
100
AcDbEntity
8
0
100
AcDbLine
10
27.930382699999932
20
-35.500853499999963
30
0
11
14.930382699999942
21
-35.500853499999963
31
0
0
ARC
5
263
100
AcDbEntity
8
0
100
AcDbCircle
10
14.930382699999889
20
-35.075853499999994
30
0
40
0.42499999999995097
210
0
220
0
230
1
100
AcDbArc
50
180
51
270.00000000000716
0
LINE
5
264
100
AcDbEntity
8
0
100
AcDbLine
10
14.505382699999938
20
-35.075853499999994
30
0
11
14.50538269999994
21
-22.075853499999951
31
0
0
ARC
5
265
100
AcDbEntity
8
0
100
AcDbCircle
10
14.930382699999942
20
-22.07585349999988
30
0
40
0.42499999999996874
210
0
220
-0
230
1
100
AcDbArc
50
90
51
180
0
LINE
5
266
100
AcDbEntity
8
0
100
AcDbLine
10
14.930382699999942
20
-21.650853499999911
30
0
11
27.930382699999932
21
-21.650853499999911
31
0
0
ARC
5
267
100
AcDbEntity
8
0
100
AcDbCircle
10
27.930382699999932
20
-22.07585349999988
30
0
40
0.42500000000000426
210
-0
220
0
230
1
100
AcDbArc
50
0
51
90
0
LINE
5
268
100
AcDbEntity
8
0
100
AcDbLine
10
28.355382699999936
20
-22.075853499999951
30
0
11
28.355382699999918
21
-35.075853499999994
31
0
0
ARC
5
269
100
AcDbEntity
8
0
100
AcDbCircle
10
27.930382699999949
20
-35.075853499999994
30
0
40
0.42499999999996874
210
0
220
0
230
1
100
AcDbArc
50
-90.000000000002387
51
0
0
LINE
5
270
100
AcDbEntity
8
0
100
AcDbLine
10
-48.269617300000064
20
-35.500853499999963
30
0
11
-61.269617300000057
21
-35.500853499999963
31
0
0
ARC
5
271
100
AcDbEntity
8
0
100
AcDbCircle
10
-61.269617300000078
20
-35.075853499999994
30
0
40
0.4249999999999865
210
0
220
0
230
1
100
AcDbArc
50
180
51
270.00000000000193
0
LINE
5
272
100
AcDbEntity
8
0
100
AcDbLine
10
-61.694617300000061
20
-35.075853499999994
30
0
11
-61.694617300000047
21
-22.075853499999951
31
0
0
ARC
5
273
100
AcDbEntity
8
0
100
AcDbCircle
10
-61.269617300000149
20
-22.07585349999988
30
0
40
0.42499999999989768
210
0
220
-0
230
1
100
AcDbArc
50
89.999999999987551
51
180
0
LINE
5
274
100
AcDbEntity
8
0
100
AcDbLine
10
-61.269617300000057
20
-21.650853499999982
30
0
11
-48.269617300000071
21
-21.65085349999984
31
0
0
ARC
5
275
100
AcDbEntity
8
0
100
AcDbCircle
10
-48.269617300000064
20
-22.07585349999988
30
0
40
0.42500000000000426
210
-0
220
0
230
1
100
AcDbArc
50
0
51
90
0
LINE
5
276
100
AcDbEntity
8
0
100
AcDbLine
10
-47.844617300000053
20
-22.075853499999951
30
0
11
-47.844617300000074
21
-35.075853499999994
31
0
0
ARC
5
277
100
AcDbEntity
8
0
100
AcDbCircle
10
-48.269617300000043
20
-35.075853499999994
30
0
40
0.42499999999996874
210
0
220
0
230
1
100
AcDbArc
50
-90.000000000002842
51
0
0
ARC
5
278
100
AcDbEntity
8
0
100
AcDbCircle
10
-105.41961730000006
20
-22.07585349999988
30
0
40
0.42500000000000426
210
-0
220
0
230
1
100
AcDbArc
50
0
51
90
0
LINE
5
279
100
AcDbEntity
8
0
100
AcDbLine
10
-118.41961730000007
20
-21.650853499999982
30
0
11
-105.41961730000006
21
-21.65085349999984
31
0
0
ARC
5
280
100
AcDbEntity
8
0
100
AcDbCircle
10
-118.41961730000016
20
-22.07585349999988
30
0
40
0.42499999999989768
210
0
220
-0
230
1
100
AcDbArc
50
89.999999999988518
51
180
0
LINE
5
281
100
AcDbEntity
8
0
100
AcDbLine
10
-118.84461730000007
20
-35.075853499999994
30
0
11
-118.84461730000005
21
-22.075853499999951
31
0
0
ARC
5
282
100
AcDbEntity
8
0
100
AcDbCircle
10
-118.41961730000008
20
-35.075853499999994
30
0
40
0.4249999999999865
210
0
220
0
230
1
100
AcDbArc
50
180
51
270.00000000000193
0
LINE
5
283
100
AcDbEntity
8
0
100
AcDbLine
10
-105.41961730000006
20
-35.500853499999963
30
0
11
-118.41961730000007
21
-35.500853499999963
31
0
0
ARC
5
284
100
AcDbEntity
8
0
100
AcDbCircle
10
-105.41961730000004
20
-35.075853499999994
30
0
40
0.42499999999996874
210
0
220
0
230
1
100
AcDbArc
50
-90.000000000005755
51
0
0
LINE
5
285
100
AcDbEntity
8
0
100
AcDbLine
10
-104.99461730000006
20
-22.075853499999951
30
0
11
-104.99461730000006
21
-35.075853499999994
31
0
0
ARC
5
286
100
AcDbEntity
8
0
100
AcDbCircle
10
-29.219617300000049
20
-35.075853499999994
30
0
40
0.42499999999996874
210
0
220
0
230
1
100
AcDbArc
50
-90.000000000002387
51
0
0
LINE
5
287
100
AcDbEntity
8
0
100
AcDbLine
10
-28.794617300000063
20
-22.075853499999951
30
0
11
-28.79461730000008
21
-35.075853499999994
31
0
0
ARC
5
288
100
AcDbEntity
8
0
100
AcDbCircle
10
-29.219617300000067
20
-22.07585349999988
30
0
40
0.42500000000000426
210
-0
220
0
230
1
100
AcDbArc
50
0
51
90
0
LINE
5
289
100
AcDbEntity
8
0
100
AcDbLine
10
-42.219617300000074
20
-21.650853499999982
30
0
11
-29.219617300000067
21
-21.65085349999984
31
0
0
ARC
5
290
100
AcDbEntity
8
0
100
AcDbCircle
10
-42.219617300000166
20
-22.07585349999988
30
0
40
0.42499999999989768
210
0
220
-0
230
1
100
AcDbArc
50
89.999999999987551
51
180
0
LINE
5
291
100
AcDbEntity
8
0
100
AcDbLine
10
-42.644617300000078
20
-35.075853499999994
30
0
11
-42.644617300000064
21
-22.075853499999951
31
0
0
ARC
5
292
100
AcDbEntity
8
0
100
AcDbCircle
10
-42.219617300000095
20
-35.075853499999994
30
0
40
0.4249999999999865
210
0
220
0
230
1
100
AcDbArc
50
180
51
270.00000000000284
0
LINE
5
293
100
AcDbEntity
8
0
100
AcDbLine
10
-29.219617300000067
20
-35.500853499999963
30
0
11
-42.219617300000074
21
-35.500853499999963
31
0
0
ARC
5
294
100
AcDbEntity
8
0
100
AcDbCircle
10
33.980382699999936
20
-35.075853499999923
30
0
40
0.42499999999996874
210
0
220
0
230
1
100
AcDbArc
50
180
51
270.00000000000477
0
LINE
5
295
100
AcDbEntity
8
0
100
AcDbLine
10
46.980382699999943
20
-35.500853499999963
30
0
11
33.980382699999971
21
-35.500853499999891
31
0
0
ARC
5
296
100
AcDbEntity
8
0
100
AcDbCircle
10
46.980382699999979
20
-35.075853499999923
30
0
40
0.42500000000003979
210
0
220
0
230
1
100
AcDbArc
50
269.99999999999523
51
360
0
LINE
5
297
100
AcDbEntity
8
0
100
AcDbLine
10
47.405382699999947
20
-22.075853499999951
30
0
11
47.405382700000018
21
-35.075853499999994
31
0
0
ARC
5
298
100
AcDbEntity
8
0
100
AcDbCircle
10
46.980382699999943
20
-22.07585349999988
30
0
40
0.42500000000000426
210
-0
220
0
230
1
100
AcDbArc
50
0
51
90
0
LINE
5
299
100
AcDbEntity
8
0
100
AcDbLine
10
33.980382699999971
20
-21.650853499999911
30
0
11
46.980382699999943
21
-21.65085349999984
31
0
0
ARC
5
300
100
AcDbEntity
8
0
100
AcDbCircle
10
33.980382699999971
20
-22.07585349999988
30
0
40
0.42499999999996874
210
0
220
-0
230
1
100
AcDbArc
50
90
51
180
0
LINE
5
301
100
AcDbEntity
8
0
100
AcDbLine
10
33.555382699999967
20
-35.075853499999994
30
0
11
33.555382700000003
21
-22.075853499999951
31
0
0
ARC
5
302
100
AcDbEntity
8
0
100
AcDbCircle
10
113.65538269999995
20
-3.0258534999998687
30
0
40
0.42500000000000426
210
-0
220
0
230
1
100
AcDbArc
50
0
51
90
0
LINE
5
303
100
AcDbEntity
8
0
100
AcDbLine
10
100.65538269999993
20
-2.6008534999999
30
0
11
113.65538269999995
21
-2.6008534999999018
31
0
0
ARC
5
304
100
AcDbEntity
8
0
100
AcDbCircle
10
100.65538269999993
20
-3.0258534999998687
30
0
40
0.42499999999996874
210
0
220
-0
230
1
100
AcDbArc
50
90
51
180
0
LINE
5
305
100
AcDbEntity
8
0
100
AcDbLine
10
100.23038269999994
20
-16.025853499999982
30
0
11
100.23038269999994
21
-3.0258534999999398
31
0
0
ARC
5
306
100
AcDbEntity
8
0
100
AcDbCircle
10
100.6553826999999
20
-16.025853499999911
30
0
40
0.42499999999996874
210
0
220
0
230
1
100
AcDbArc
50
180
51
270.00000000000381
0
LINE
5
307
100
AcDbEntity
8
0
100
AcDbLine
10
113.65538269999995
20
-16.450853499999951
30
0
11
100.65538269999993
21
-16.450853499999948
31
0
0
ARC
5
308
100
AcDbEntity
8
0
100
AcDbCircle
10
113.65538269999995
20
-16.025853499999911
30
0
40
0.42500000000003979
210
-0
220
0
230
1
100
AcDbArc
50
270
51
360
0
LINE
5
309
100
AcDbEntity
8
0
100
AcDbLine
10
114.08038269999994
20
-3.0258534999999398
30
0
11
114.08038269999999
21
-16.025853499999982
31
0
0
ARC
5
310
100
AcDbEntity
8
0
100
AcDbCircle
10
19.692882699999927
20
-3.0258534999998687
30
0
40
0.42499999999996874
210
0
220
-0
230
1
100
AcDbArc
50
90
51
180
0
LINE
5
311
100
AcDbEntity
8
0
100
AcDbLine
10
19.267882699999905
20
-16.025853499999982
30
0
11
19.267882699999944
21
-3.0258534999999398
31
0
0
ARC
5
312
100
AcDbEntity
8
0
100
AcDbCircle
10
19.69288269999991
20
-16.025853499999982
30
0
40
0.42500000000000426
210
0
220
0
230
1
100
AcDbArc
50
180
51
270.00000000000477
0
LINE
5
313
100
AcDbEntity
8
0
100
AcDbLine
10
32.692882699999934
20
-16.450853499999951
30
0
11
19.692882699999927
21
-16.450853499999948
31
0
0
ARC
5
314
100
AcDbEntity
8
0
100
AcDbCircle
10
32.69288269999997
20
-16.025853499999911
30
0
40
0.42500000000003979
210
0
220
0
230
1
100
AcDbArc
50
269.99999999999523
51
360
0
LINE
5
315
100
AcDbEntity
8
0
100
AcDbLine
10
33.117882699999939
20
-3.0258534999999398
30
0
11
33.117882699999939
21
-16.025853499999982
31
0
0
ARC
5
316
100
AcDbEntity
8
0
100
AcDbCircle
10
32.692882699999934
20
-3.0258534999998687
30
0
40
0.42500000000000426
210
-0
220
0
230
1
100
AcDbArc
50
0
51
90.000000000004803
0
LINE
5
317
100
AcDbEntity
8
0
100
AcDbLine
10
19.692882699999927
20
-2.6008534999999
30
0
11
32.692882699999913
21
-2.6008534999999018
31
0
0
LINE
5
318
100
AcDbEntity
8
0
100
AcDbLine
10
-56.93211730000008
20
-16.025853499999982
30
0
11
-56.932117300000073
21
-3.0258534999999398
31
0
0
ARC
5
319
100
AcDbEntity
8
0
100
AcDbCircle
10
-56.507117300000161
20
-3.0258534999998687
30
0
40
0.42499999999989768
210
0
220
-0
230
1
100
AcDbArc
50
89.999999999988518
51
180
0
LINE
5
320
100
AcDbEntity
8
0
100
AcDbLine
10
-56.507117300000075
20
-2.6008534999999711
30
0
11
-43.507117300000061
21
-2.6008534999999018
31
0
0
ARC
5
321
100
AcDbEntity
8
0
100
AcDbCircle
10
-43.507117300000061
20
-3.0258534999998687
30
0
40
0.42500000000002203
210
-0
220
0
230
1
100
AcDbArc
50
0
51
90
0
LINE
5
322
100
AcDbEntity
8
0
100
AcDbLine
10
-43.082117300000036
20
-3.0258534999999398
30
0
11
-43.08211730000005
21
-16.025853499999982
31
0
0
ARC
5
323
100
AcDbEntity
8
0
100
AcDbCircle
10
-43.50711730000004
20
-16.025853499999982
30
0
40
0.42499999999996874
210
0
220
0
230
1
100
AcDbArc
50
-90.000000000002842
51
0
0
LINE
5
324
100
AcDbEntity
8
0
100
AcDbLine
10
-43.507117300000061
20
-16.450853499999951
30
0
11
-56.507117300000047
21
-16.450853499999948
31
0
0
ARC
5
325
100
AcDbEntity
8
0
100
AcDbCircle
10
-56.507117300000075
20
-16.025853499999982
30
0
40
0.42500000000000426
210
0
220
0
230
1
100
AcDbArc
50
180
51
270.00000000000284
0
ARC
5
326
100
AcDbEntity
8
0
100
AcDbCircle
10
-111.27586730000007
20
3.0241465000000289
30
0
40
0.4249999999999865
210
0
220
0
230
1
100
AcDbArc
50
180
51
270.00000000000193
0
LINE
5
327
100
AcDbEntity
8
0
100
AcDbLine
10
-98.275867300000101
20
2.5991465000000602
30
0
11
-111.27586730000007
21
2.599146500000062
31
0
0
ARC
5
328
100
AcDbEntity
8
0
100
AcDbCircle
10
-98.275867300000073
20
3.0241465000001
30
0
40
0.42500000000003979
210
0
220
0
230
1
100
AcDbArc
50
269.99999999999619
51
360
0
LINE
5
329
100
AcDbEntity
8
0
100
AcDbLine
10
-97.850867300000061
20
16.024146500000001
30
0
11
-97.850867300000033
21
3.0241465000000289
31
0
0
ARC
5
330
100
AcDbEntity
8
0
100
AcDbCircle
10
-98.275867300000044
20
16.024146500000001
30
0
40
0.4249999999999865
210
0
220
-0
230
1
100
AcDbArc
50
0
51
90.000000000001918
0
LINE
5
331
100
AcDbEntity
8
0
100
AcDbLine
10
-111.27586730000006
20
16.44914650000004
30
0
11
-98.275867300000058
21
16.449146499999966
31
0
0
ARC
5
332
100
AcDbEntity
8
0
100
AcDbCircle
10
-111.27586730000007
20
16.024146500000001
30
0
40
0.42500000000003979
210
0
220
-0
230
1
100
AcDbArc
50
89.999999999998082
51
180
0
LINE
5
333
100
AcDbEntity
8
0
100
AcDbLine
10
-111.70086730000007
20
3.0241465000000289
30
0
11
-111.70086730000011
21
16.024146500000072
31
0
0
LINE
5
334
100
AcDbEntity
8
0
100
AcDbLine
10
-27.932117300000101
20
16.449146499999969
30
0
11
-14.932117300000058
21
16.449146500000037
31
0
0
ARC
5
335
100
AcDbEntity
8
0
100
AcDbCircle
10
-14.932117300000041
20
16.024146500000001
30
0
40
0.42500000000000426
210
0
220
-0
230
1
100
AcDbArc
50
0
51
90.000000000002416
0
LINE
5
336
100
AcDbEntity
8
0
100
AcDbLine
10
-14.507117300000036
20
16.024146500000001
30
0
11
-14.507117300000038
21
3.0241465000000289
31
0
0
ARC
5
337
100
AcDbEntity
8
0
100
AcDbCircle
10
-14.932117300000041
20
3.0241465000000289
30
0
40
0.42499999999996874
210
0
220
0
230
1
100
AcDbArc
50
-90.000000000002387
51
0
0
LINE
5
338
100
AcDbEntity
8
0
100
AcDbLine
10
-14.932117300000058
20
2.5991465000000602
30
0
11
-27.932117300000066
21
2.599146500000062
31
0
0
ARC
5
339
100
AcDbEntity
8
0
100
AcDbCircle
10
-27.932117300000083
20
3.0241465000000289
30
0
40
0.42500000000000426
210
0
220
0
230
1
100
AcDbArc
50
180
51
270.00000000000239
0
LINE
5
340
100
AcDbEntity
8
0
100
AcDbLine
10
-28.357117300000088
20
3.0241465000000289
30
0
11
-28.35711730000007
21
16.024146500000072
31
0
0
ARC
5
341
100
AcDbEntity
8
0
100
AcDbCircle
10
-27.932117300000083
20
16.024146500000001
30
0
40
0.42499999999996874
210
0
220
0
230
1
100
AcDbArc
50
90.000000000002416
51
180
0
LINE
5
342
100
AcDbEntity
8
0
100
AcDbLine
10
48.267882699999944
20
16.449146499999969
30
0
11
61.267882699999952
21
16.449146499999895
31
0
0
ARC
5
343
100
AcDbEntity
8
0
100
AcDbCircle
10
61.267882699999987
20
16.024146499999929
30
0
40
0.42499999999996874
210
0
220
-0
230
1
100
AcDbArc
50
0
51
90.000000000004803
0
LINE
5
344
100
AcDbEntity
8
0
100
AcDbLine
10
61.692882699999956
20
16.024146500000001
30
0
11
61.692882700000027
21
3.0241465000000289
31
0
0
ARC
5
345
100
AcDbEntity
8
0
100
AcDbCircle
10
61.267882699999987
20
3.0241465000001
30
0
40
0.42500000000003979
210
0
220
0
230
1
100
AcDbArc
50
269.99999999999523
51
360
0
LINE
5
346
100
AcDbEntity
8
0
100
AcDbLine
10
61.267882699999952
20
2.5991465000000602
30
0
11
48.267882699999944
21
2.599146500000133
31
0
0
ARC
5
347
100
AcDbEntity
8
0
100
AcDbCircle
10
48.267882699999944
20
3.0241465000001
30
0
40
0.42500000000000426
210
0
220
0
230
1
100
AcDbArc
50
180
51
270
0
LINE
5
348
100
AcDbEntity
8
0
100
AcDbLine
10
47.84288269999994
20
3.0241465000000289
30
0
11
47.842882699999905
21
16.024146500000001
31
0
0
ARC
5
349
100
AcDbEntity
8
0
100
AcDbCircle
10
48.267882699999944
20
16.024146499999929
30
0
40
0.42500000000003979
210
0
220
-0
230
1
100
AcDbArc
50
90
51
180
0
ARC
5
350
100
AcDbEntity
8
0
100
AcDbCircle
10
23.1678827
20
22.07414650000004
30
0
40
0.42499999999996874
210
0
220
0
230
1
100
AcDbArc
50
-90.000000000007162
51
0
0
LINE
5
351
100
AcDbEntity
8
0
100
AcDbLine
10
23.592882699999969
20
35.074146500000012
30
0
11
23.592882699999969
21
22.07414650000004
31
0
0
ARC
5
352
100
AcDbEntity
8
0
100
AcDbCircle
10
23.1678827
20
35.074146500000012
30
0
40
0.42499999999996874
210
0
220
-0
230
1
100
AcDbArc
50
0
51
90.000000000007191
0
LINE
5
353
100
AcDbEntity
8
0
100
AcDbLine
10
10.167882699999957
20
35.499146499999981
30
0
11
23.167882699999947
21
35.499146499999981
31
0
0
ARC
5
354
100
AcDbEntity
8
0
100
AcDbCircle
10
10.167882699999939
20
35.074146500000012
30
0
40
0.42499999999996874
210
0
220
-0
230
1
100
AcDbArc
50
89.999999999997613
51
180
0
LINE
5
355
100
AcDbEntity
8
0
100
AcDbLine
10
9.7428826999999352
20
22.07414650000004
30
0
11
9.7428826999999369
21
35.074146500000012
31
0
0
ARC
5
356
100
AcDbEntity
8
0
100
AcDbCircle
10
10.167882699999939
20
22.07414650000004
30
0
40
0.42500000000000426
210
0
220
0
230
1
100
AcDbArc
50
180
51
270.00000000000239
0
LINE
5
357
100
AcDbEntity
8
0
100
AcDbLine
10
23.167882699999947
20
21.649146500000072
30
0
11
10.167882699999957
21
21.649146500000072
31
0
0
LINE
5
358
100
AcDbEntity
8
0
100
AcDbLine
10
-38.751367300000069
20
35.499146499999981
30
0
11
-32.751367300000055
21
35.499146500000052
31
0
0
ARC
5
359
100
AcDbEntity
8
0
100
AcDbCircle
10
-32.751367299999998
20
35.074146500000012
30
0
40
0.42499999999996874
210
0
220
-0
230
1
100
AcDbArc
50
0
51
90.000000000007674
0
LINE
5
360
100
AcDbEntity
8
0
100
AcDbLine
10
-32.32636730000003
20
35.074146500000012
30
0
11
-32.326367300000044
21
21.074146500000097
31
0
0
ARC
5
361
100
AcDbEntity
8
0
100
AcDbCircle
10
-32.751367300000034
20
21.074146500000097
30
0
40
0.42499999999996874
210
0
220
0
230
1
100
AcDbArc
50
-90.000000000002842
51
0
0
LINE
5
362
100
AcDbEntity
8
0
100
AcDbLine
10
-32.751367300000055
20
20.649146500000128
30
0
11
-38.751367300000069
21
20.649146500000128
31
0
0
ARC
5
363
100
AcDbEntity
8
0
100
AcDbCircle
10
-38.751367300000119
20
21.074146500000097
30
0
40
0.42499999999996874
210
0
220
0
230
1
100
AcDbArc
50
180
51
270.00000000000671
0
LINE
5
364
100
AcDbEntity
8
0
100
AcDbLine
10
-39.176367300000088
20
21.074146500000097
30
0
11
-39.176367300000088
21
35.074146500000012
31
0
0
ARC
5
365
100
AcDbEntity
8
0
100
AcDbCircle
10
-38.751367300000119
20
35.074146500000012
30
0
40
0.42499999999996874
210
0
220
-0
230
1
100
AcDbArc
50
89.999999999993292
51
180
0
ARC
5
366
100
AcDbEntity
8
0
100
AcDbCircle
10
-14.875367300000075
20
21.074146500000097
30
0
40
0.4249999999999865
210
0
220
0
230
1
100
AcDbArc
50
180
51
270.00000000000239
0
LINE
5
367
100
AcDbEntity
8
0
100
AcDbLine
10
-8.875367300000061
20
20.649146500000128
30
0
11
-14.875367300000057
21
20.649146500000057
31
0
0
ARC
5
368
100
AcDbEntity
8
0
100
AcDbCircle
10
-8.8753673000000077
20
21.074146500000097
30
0
40
0.42499999999996874
210
0
220
0
230
1
100
AcDbArc
50
-90.000000000007162
51
0
0
LINE
5
369
100
AcDbEntity
8
0
100
AcDbLine
10
-8.4503673000000568
20
35.074146500000012
30
0
11
-8.4503673000000408
21
21.074146500000097
31
0
0
ARC
5
370
100
AcDbEntity
8
0
100
AcDbCircle
10
-8.8753673000000077
20
35.074146500000012
30
0
40
0.42499999999995097
210
0
220
-0
230
1
100
AcDbArc
50
0
51
90.000000000007191
0
LINE
5
371
100
AcDbEntity
8
0
100
AcDbLine
10
-14.875367300000057
20
35.499146499999981
30
0
11
-8.875367300000061
21
35.499146500000052
31
0
0
ARC
5
372
100
AcDbEntity
8
0
100
AcDbCircle
10
-14.875367300000075
20
35.074146500000012
30
0
40
0.42499999999996874
210
0
220
-0
230
1
100
AcDbArc
50
89.999999999997613
51
180
0
LINE
5
373
100
AcDbEntity
8
0
100
AcDbLine
10
-15.300367300000062
20
21.074146500000097
30
0
11
-15.30036730000006
21
35.074146500000012
31
0
0
LINE
5
374
100
AcDbEntity
8
0
100
AcDbLine
10
43.505382699999977
20
35.499146500000052
30
0
11
56.505382699999949
21
35.49914649999991
31
0
0
ARC
5
375
100
AcDbEntity
8
0
100
AcDbCircle
10
56.505382699999949
20
35.074146499999941
30
0
40
0.42500000000000426
210
0
220
-0
230
1
100
AcDbArc
50
0
51
90
0
LINE
5
376
100
AcDbEntity
8
0
100
AcDbLine
10
56.930382699999953
20
35.074146500000012
30
0
11
56.93038270000006
21
22.07414650000004
31
0
0
ARC
5
377
100
AcDbEntity
8
0
100
AcDbCircle
10
56.505382699999984
20
22.074146500000111
30
0
40
0.42500000000003979
210
0
220
0
230
1
100
AcDbArc
50
269.99999999999523
51
360
0
LINE
5
378
100
AcDbEntity
8
0
100
AcDbLine
10
56.505382699999949
20
21.649146500000072
30
0
11
43.505382699999977
21
21.649146500000143
31
0
0
ARC
5
379
100
AcDbEntity
8
0
100
AcDbCircle
10
43.505382699999942
20
22.074146500000111
30
0
40
0.42499999999996874
210
0
220
0
230
1
100
AcDbArc
50
180
51
270.00000000000477
0
LINE
5
380
100
AcDbEntity
8
0
100
AcDbLine
10
43.080382699999973
20
22.07414650000004
30
0
11
43.080382699999831
21
35.074146500000012
31
0
0
ARC
5
381
100
AcDbEntity
8
0
100
AcDbCircle
10
43.505382699999977
20
35.074146499999941
30
0
40
0.42500000000011084
210
0
220
-0
230
1
100
AcDbArc
50
90
51
180
0
LINE
5
382
100
AcDbEntity
8
0
100
AcDbLine
10
85.942882699999956
20
3.0241465000000289
30
0
11
85.942882699999998
21
16.024146500000072
31
0
0
ARC
5
383
100
AcDbEntity
8
0
100
AcDbCircle
10
86.367882699999939
20
16.024146500000072
30
0
40
0.42499999999989768
210
0
220
0
230
1
100
AcDbArc
50
90.000000000005755
51
180
0
LINE
5
384
100
AcDbEntity
8
0
100
AcDbLine
10
86.367882699999896
20
16.449146499999969
30
0
11
99.367882699999939
21
16.449146500000037
31
0
0
ARC
5
385
100
AcDbEntity
8
0
100
AcDbCircle
10
99.367882699999939
20
16.024146499999929
30
0
40
0.42499999999996874
210
0
220
-0
230
1
100
AcDbArc
50
0
51
90
0
LINE
5
386
100
AcDbEntity
8
0
100
AcDbLine
10
99.792882699999907
20
16.024146500000001
30
0
11
99.792882699999907
21
3.0241465000000289
31
0
0
ARC
5
387
100
AcDbEntity
8
0
100
AcDbCircle
10
99.367882699999939
20
3.0241465000001
30
0
40
0.42500000000003979
210
0
220
0
230
1
100
AcDbArc
50
269.99999999999619
51
360
0
LINE
5
388
100
AcDbEntity
8
0
100
AcDbLine
10
99.36788269999991
20
2.5991465000000602
30
0
11
86.367882699999939
21
2.599146500000133
31
0
0
ARC
5
389
100
AcDbEntity
8
0
100
AcDbCircle
10
86.367882699999896
20
3.0241465000001
30
0
40
0.42499999999993321
210
0
220
0
230
1
100
AcDbArc
50
180
51
270.00000000000574
0
LINE
5
390
100
AcDbEntity
8
0
100
AcDbLine
10
23.167882699999947
20
2.5991465000000602
30
0
11
10.167882699999957
21
2.599146500000062
31
0
0
ARC
5
391
100
AcDbEntity
8
0
100
AcDbCircle
10
10.167882699999939
20
3.0241465000000289
30
0
40
0.42500000000000426
210
0
220
0
230
1
100
AcDbArc
50
180
51
270.00000000000239
0
LINE
5
392
100
AcDbEntity
8
0
100
AcDbLine
10
9.7428826999999352
20
3.0241465000000289
30
0
11
9.7428826999999369
21
16.024146500000072
31
0
0
ARC
5
393
100
AcDbEntity
8
0
100
AcDbCircle
10
10.167882699999939
20
16.024146500000001
30
0
40
0.42499999999996874
210
0
220
0
230
1
100
AcDbArc
50
90.000000000002416
51
180
0
LINE
5
394
100
AcDbEntity
8
0
100
AcDbLine
10
10.167882699999922
20
16.449146499999969
30
0
11
23.167882699999947
21
16.449146499999966
31
0
0
ARC
5
395
100
AcDbEntity
8
0
100
AcDbCircle
10
23.1678827
20
16.024146500000001
30
0
40
0.42499999999996874
210
0
220
-0
230
1
100
AcDbArc
50
0
51
90.000000000007191
0
LINE
5
396
100
AcDbEntity
8
0
100
AcDbLine
10
23.592882699999969
20
16.024146500000001
30
0
11
23.592882699999969
21
3.0241465000000289
31
0
0
ARC
5
397
100
AcDbEntity
8
0
100
AcDbCircle
10
23.1678827
20
3.0241465000000289
30
0
40
0.42499999999996874
210
0
220
0
230
1
100
AcDbArc
50
-90.000000000007162
51
0
0
ARC
5
398
100
AcDbEntity
8
0
100
AcDbCircle
10
-66.032117300000067
20
3.0241465000000289
30
0
40
0.4249999999999865
210
0
220
0
230
1
100
AcDbArc
50
180
51
270.00000000000193
0
LINE
5
399
100
AcDbEntity
8
0
100
AcDbLine
10
-53.032117300000095
20
2.5991465000000602
30
0
11
-66.032117300000053
21
2.599146500000062
31
0
0
ARC
5
400
100
AcDbEntity
8
0
100
AcDbCircle
10
-53.032117300000067
20
3.0241465000001
30
0
40
0.42500000000003979
210
0
220
0
230
1
100
AcDbArc
50
269.99999999999619
51
360
0
LINE
5
401
100
AcDbEntity
8
0
100
AcDbLine
10
-52.607117300000056
20
16.024146500000001
30
0
11
-52.607117300000027
21
3.0241465000000289
31
0
0
ARC
5
402
100
AcDbEntity
8
0
100
AcDbCircle
10
-53.032117300000046
20
16.024146500000001
30
0
40
0.4249999999999865
210
0
220
-0
230
1
100
AcDbArc
50
0
51
90.000000000002885
0
LINE
5
403
100
AcDbEntity
8
0
100
AcDbLine
10
-66.032117300000053
20
16.449146499999969
30
0
11
-53.032117300000067
21
16.449146499999966
31
0
0
ARC
5
404
100
AcDbEntity
8
0
100
AcDbCircle
10
-66.032117300000067
20
16.024146500000001
30
0
40
0.42499999999996874
210
0
220
-0
230
1
100
AcDbArc
50
89.999999999998082
51
180
0
LINE
5
405
100
AcDbEntity
8
0
100
AcDbLine
10
-66.45711730000005
20
3.0241465000000289
30
0
11
-66.457117300000036
21
16.024146500000001
31
0
0
LINE
5
406
100
AcDbEntity
8
0
100
AcDbLine
10
-81.182117300000044
20
-3.0258534999999398
30
0
11
-81.182117300000044
21
-16.025853499999982
31
0
0
ARC
5
407
100
AcDbEntity
8
0
100
AcDbCircle
10
-81.607117300000027
20
-16.025853499999982
30
0
40
0.42499999999996874
210
0
220
0
230
1
100
AcDbArc
50
-90.000000000003823
51
0
0
LINE
5
408
100
AcDbEntity
8
0
100
AcDbLine
10
-81.607117300000056
20
-16.450853499999951
30
0
11
-94.60711730000007
21
-16.450853499999948
31
0
0
ARC
5
409
100
AcDbEntity
8
0
100
AcDbCircle
10
-94.607117300000084
20
-16.025853499999982
30
0
40
0.4249999999999865
210
0
220
0
230
1
100
AcDbArc
50
180
51
270.00000000000381
0
LINE
5
410
100
AcDbEntity
8
0
100
AcDbLine
10
-95.032117300000067
20
-16.025853499999982
30
0
11
-95.032117300000053
21
-3.0258534999999398
31
0
0
ARC
5
411
100
AcDbEntity
8
0
100
AcDbCircle
10
-94.607117300000155
20
-3.0258534999998687
30
0
40
0.42499999999989768
210
0
220
-0
230
1
100
AcDbArc
50
89.999999999988518
51
180
0
LINE
5
412
100
AcDbEntity
8
0
100
AcDbLine
10
-94.60711730000007
20
-2.6008534999999711
30
0
11
-81.607117300000056
21
-2.6008534999999018
31
0
0
ARC
5
413
100
AcDbEntity
8
0
100
AcDbCircle
10
-81.607117300000056
20
-3.0258534999998687
30
0
40
0.42500000000002203
210
-0
220
0
230
1
100
AcDbArc
50
0
51
90
0
ARC
5
414
100
AcDbEntity
8
0
100
AcDbCircle
10
-18.407117300000078
20
-16.025853499999982
30
0
40
0.4249999999999865
210
0
220
0
230
1
100
AcDbArc
50
180
51
270.00000000000239
0
LINE
5
415
100
AcDbEntity
8
0
100
AcDbLine
10
-5.4071173000000705
20
-16.450853499999951
30
0
11
-18.40711730000006
21
-16.450853499999948
31
0
0
ARC
5
416
100
AcDbEntity
8
0
100
AcDbCircle
10
-5.4071173000000172
20
-16.025853499999982
30
0
40
0.42499999999996874
210
0
220
0
230
1
100
AcDbArc
50
-90.000000000007162
51
0
0
LINE
5
417
100
AcDbEntity
8
0
100
AcDbLine
10
-4.9821173000000663
20
-3.0258534999999398
30
0
11
-4.9821173000000503
21
-16.025853499999982
31
0
0
ARC
5
418
100
AcDbEntity
8
0
100
AcDbCircle
10
-5.4071173000000705
20
-3.0258534999998687
30
0
40
0.42500000000000426
210
-0
220
0
230
1
100
AcDbArc
50
0
51
90
0
LINE
5
419
100
AcDbEntity
8
0
100
AcDbLine
10
-18.40711730000006
20
-2.6008534999999
30
0
11
-5.4071173000000705
21
-2.6008534999998307
31
0
0
ARC
5
420
100
AcDbEntity
8
0
100
AcDbCircle
10
-18.40711730000006
20
-3.0258534999998687
30
0
40
0.42499999999996874
210
0
220
-0
230
1
100
AcDbArc
50
90
51
180
0
LINE
5
421
100
AcDbEntity
8
0
100
AcDbLine
10
-18.832117300000064
20
-16.025853499999982
30
0
11
-18.832117300000025
21
-3.0258534999999398
31
0
0
ARC
5
422
100
AcDbEntity
8
0
100
AcDbCircle
10
70.792882699999993
20
-16.025853499999911
30
0
40
0.42500000000003979
210
0
220
0
230
1
100
AcDbArc
50
269.99999999999426
51
360
0
LINE
5
423
100
AcDbEntity
8
0
100
AcDbLine
10
71.217882699999961
20
-3.0258534999999398
30
0
11
71.217882700000033
21
-16.025853499999982
31
0
0
ARC
5
424
100
AcDbEntity
8
0
100
AcDbCircle
10
70.79288269999995
20
-3.0258534999998687
30
0
40
0.42500000000000426
210
-0
220
0
230
1
100
AcDbArc
50
0
51
90
0
LINE
5
425
100
AcDbEntity
8
0
100
AcDbLine
10
57.79288269999995
20
-2.6008534999999
30
0
11
70.79288269999995
21
-2.6008534999998307
31
0
0
ARC
5
426
100
AcDbEntity
8
0
100
AcDbCircle
10
57.79288269999995
20
-3.0258534999998687
30
0
40
0.42499999999996874
210
0
220
-0
230
1
100
AcDbArc
50
90
51
180
0
LINE
5
427
100
AcDbEntity
8
0
100
AcDbLine
10
57.367882699999946
20
-16.025853499999982
30
0
11
57.367882699999981
21
-3.0258534999999398
31
0
0
ARC
5
428
100
AcDbEntity
8
0
100
AcDbCircle
10
57.79288269999995
20
-16.025853499999911
30
0
40
0.42500000000000426
210
0
220
0
230
1
100
AcDbArc
50
180
51
270
0
LINE
5
429
100
AcDbEntity
8
0
100
AcDbLine
10
70.79288269999995
20
-16.450853499999951
30
0
11
57.79288269999995
21
-16.450853499999877
31
0
0
LINE
5
430
100
AcDbEntity
8
0
100
AcDbLine
10
72.080382699999959
20
-21.650853499999911
30
0
11
85.080382699999973
21
-21.650853499999911
31
0
0
ARC
5
431
100
AcDbEntity
8
0
100
AcDbCircle
10
85.080382699999973
20
-22.07585349999988
30
0
40
0.42500000000003979
210
-0
220
0
230
1
100
AcDbArc
50
0
51
90
0
LINE
5
432
100
AcDbEntity
8
0
100
AcDbLine
10
85.505382700000013
20
-22.075853499999951
30
0
11
85.505382700000013
21
-35.075853499999994
31
0
0
ARC
5
433
100
AcDbEntity
8
0
100
AcDbCircle
10
85.080382700000001
20
-35.075853499999923
30
0
40
0.42500000000003979
210
0
220
0
230
1
100
AcDbArc
50
269.99999999999619
51
360
0
LINE
5
434
100
AcDbEntity
8
0
100
AcDbLine
10
85.080382699999973
20
-35.500853499999963
30
0
11
72.080382699999959
21
-35.500853499999963
31
0
0
ARC
5
435
100
AcDbEntity
8
0
100
AcDbCircle
10
72.080382699999959
20
-35.075853499999923
30
0
40
0.42500000000003979
210
0
220
0
230
1
100
AcDbArc
50
180
51
270
0
LINE
5
436
100
AcDbEntity
8
0
100
AcDbLine
10
71.655382699999919
20
-35.075853499999994
30
0
11
71.655382699999919
21
-22.075853499999951
31
0
0
ARC
5
437
100
AcDbEntity
8
0
100
AcDbCircle
10
72.080382699999959
20
-22.07585349999988
30
0
40
0.42499999999996874
210
0
220
-0
230
1
100
AcDbArc
50
90
51
180
0
ARC
5
438
100
AcDbEntity
8
0
100
AcDbCircle
10
-4.1196173000000691
20
-35.075853499999994
30
0
40
0.4249999999999865
210
0
220
0
230
1
100
AcDbArc
50
180
51
270.00000000000239
0
LINE
5
439
100
AcDbEntity
8
0
100
AcDbLine
10
8.8803826999999202
20
-35.500853499999963
30
0
11
-4.1196173000000513
21
-35.500853499999963
31
0
0
ARC
5
440
100
AcDbEntity
8
0
100
AcDbCircle
10
8.880382699999938
20
-35.075853499999994
30
0
40
0.42499999999996874
210
0
220
0
230
1
100
AcDbArc
50
-90.000000000002387
51
0
0
LINE
5
441
100
AcDbEntity
8
0
100
AcDbLine
10
9.3053826999999245
20
-22.075853499999951
30
0
11
9.305382699999905
21
-35.075853499999994
31
0
0
ARC
5
442
100
AcDbEntity
8
0
100
AcDbCircle
10
8.8803826999999202
20
-22.07585349999988
30
0
40
0.42500000000000426
210
-0
220
0
230
1
100
AcDbArc
50
0
51
90
0
LINE
5
443
100
AcDbEntity
8
0
100
AcDbLine
10
-4.1196173000000513
20
-21.650853499999911
30
0
11
8.8803826999999202
21
-21.65085349999984
31
0
0
ARC
5
444
100
AcDbEntity
8
0
100
AcDbCircle
10
-4.1196173000000513
20
-22.07585349999988
30
0
40
0.42499999999996874
210
0
220
-0
230
1
100
AcDbArc
50
90
51
180
0
LINE
5
445
100
AcDbEntity
8
0
100
AcDbLine
10
-4.5446173000000556
20
-35.075853499999994
30
0
11
-4.5446173000000183
21
-22.075853499999951
31
0
0
ARC
5
446
100
AcDbEntity
8
0
100
AcDbCircle
10
-67.319617300000019
20
-35.075853499999994
30
0
40
0.42499999999996874
210
0
220
0
230
1
100
AcDbArc
50
-90.000000000005755
51
0
0
LINE
5
447
100
AcDbEntity
8
0
100
AcDbLine
10
-66.89461730000005
20
-22.075853499999951
30
0
11
-66.89461730000005
21
-35.075853499999994
31
0
0
ARC
5
448
100
AcDbEntity
8
0
100
AcDbCircle
10
-67.319617300000061
20
-22.07585349999988
30
0
40
0.42500000000000426
210
-0
220
0
230
1
100
AcDbArc
50
0
51
90
0
LINE
5
449
100
AcDbEntity
8
0
100
AcDbLine
10
-80.319617300000061
20
-21.650853499999982
30
0
11
-67.319617300000061
21
-21.65085349999984
31
0
0
ARC
5
450
100
AcDbEntity
8
0
100
AcDbCircle
10
-80.319617300000175
20
-22.07585349999988
30
0
40
0.42499999999989768
210
0
220
-0
230
1
100
AcDbArc
50
89.999999999984681
51
180
0
LINE
5
451
100
AcDbEntity
8
0
100
AcDbLine
10
-80.744617300000073
20
-35.075853499999994
30
0
11
-80.744617300000073
21
-22.075853499999809
31
0
0
ARC
5
452
100
AcDbEntity
8
0
100
AcDbCircle
10
-80.31961730000009
20
-35.075853499999994
30
0
40
0.42499999999996874
210
0
220
0
230
1
100
AcDbArc
50
180
51
270.00000000000381
0
LINE
5
453
100
AcDbEntity
8
0
100
AcDbLine
10
-67.319617300000061
20
-35.500853499999963
30
0
11
-80.319617300000061
21
-35.500853499999963
31
0
0
ARC
5
454
100
AcDbEntity
8
0
100
AcDbCircle
10
-86.36961730000003
20
-35.075853499999994
30
0
40
0.42499999999996874
210
0
220
0
230
1
100
AcDbArc
50
-90.000000000001933
51
0
0
LINE
5
455
100
AcDbEntity
8
0
100
AcDbLine
10
-85.944617300000061
20
-22.075853499999951
30
0
11
-85.944617300000075
21
-35.075853499999994
31
0
0
ARC
5
456
100
AcDbEntity
8
0
100
AcDbCircle
10
-86.369617300000073
20
-22.07585349999988
30
0
40
0.42500000000000426
210
-0
220
0
230
1
100
AcDbArc
50
0
51
90
0
LINE
5
457
100
AcDbEntity
8
0
100
AcDbLine
10
-99.369617300000073
20
-21.650853499999982
30
0
11
-86.369617300000073
21
-21.65085349999984
31
0
0
ARC
5
458
100
AcDbEntity
8
0
100
AcDbCircle
10
-99.369617300000158
20
-22.07585349999988
30
0
40
0.42499999999989768
210
0
220
-0
230
1
100
AcDbArc
50
89.999999999986599
51
180
0
LINE
5
459
100
AcDbEntity
8
0
100
AcDbLine
10
-99.794617300000084
20
-35.075853499999994
30
0
11
-99.794617300000084
21
-22.075853499999951
31
0
0
ARC
5
460
100
AcDbEntity
8
0
100
AcDbCircle
10
-99.369617300000087
20
-35.075853499999994
30
0
40
0.4249999999999865
210
0
220
0
230
1
100
AcDbArc
50
180
51
270.00000000000193
0
LINE
5
461
100
AcDbEntity
8
0
100
AcDbLine
10
-86.369617300000073
20
-35.500853499999963
30
0
11
-99.369617300000073
21
-35.500853499999963
31
0
0
ARC
5
462
100
AcDbEntity
8
0
100
AcDbCircle
10
-23.16961730000008
20
-35.075853499999994
30
0
40
0.4249999999999865
210
0
220
0
230
1
100
AcDbArc
50
180
51
270.00000000000239
0
LINE
5
463
100
AcDbEntity
8
0
100
AcDbLine
10
-10.169617300000056
20
-35.500853499999963
30
0
11
-23.169617300000063
21
-35.500853499999963
31
0
0
ARC
5
464
100
AcDbEntity
8
0
100
AcDbCircle
10
-10.169617300000038
20
-35.075853499999994
30
0
40
0.42499999999996874
210
0
220
0
230
1
100
AcDbArc
50
-90.000000000002387
51
0
0
LINE
5
465
100
AcDbEntity
8
0
100
AcDbLine
10
-9.7446173000000513
20
-22.075853499999951
30
0
11
-9.7446173000000709
21
-35.075853499999994
31
0
0
ARC
5
466
100
AcDbEntity
8
0
100
AcDbCircle
10
-10.169617300000056
20
-22.07585349999988
30
0
40
0.42500000000000426
210
-0
220
0
230
1
100
AcDbArc
50
0
51
90
0
LINE
5
467
100
AcDbEntity
8
0
100
AcDbLine
10
-23.169617300000063
20
-21.650853499999911
30
0
11
-10.169617300000056
21
-21.65085349999984
31
0
0
ARC
5
468
100
AcDbEntity
8
0
100
AcDbCircle
10
-23.169617300000063
20
-22.07585349999988
30
0
40
0.42499999999996874
210
0
220
-0
230
1
100
AcDbArc
50
90
51
180
0
LINE
5
469
100
AcDbEntity
8
0
100
AcDbLine
10
-23.594617300000067
20
-35.075853499999994
30
0
11
-23.594617300000031
21
-22.075853499999951
31
0
0
LINE
5
470
100
AcDbEntity
8
0
100
AcDbLine
10
53.030382699999947
20
-21.650853499999911
30
0
11
66.030382699999919
21
-21.650853499999911
31
0
0
ARC
5
471
100
AcDbEntity
8
0
100
AcDbCircle
10
66.030382699999919
20
-22.07585349999988
30
0
40
0.42500000000003979
210
-0
220
0
230
1
100
AcDbArc
50
0
51
90
0
LINE
5
472
100
AcDbEntity
8
0
100
AcDbLine
10
66.455382699999959
20
-22.075853499999951
30
0
11
66.455382699999959
21
-35.075853499999994
31
0
0
ARC
5
473
100
AcDbEntity
8
0
100
AcDbCircle
10
66.030382699999919
20
-35.075853499999923
30
0
40
0.42500000000003979
210
-0
220
0
230
1
100
AcDbArc
50
270
51
360
0
LINE
5
474
100
AcDbEntity
8
0
100
AcDbLine
10
66.030382699999919
20
-35.500853499999963
30
0
11
53.030382699999947
21
-35.500853499999963
31
0
0
ARC
5
475
100
AcDbEntity
8
0
100
AcDbCircle
10
53.030382699999947
20
-35.075853499999923
30
0
40
0.42500000000003979
210
0
220
0
230
1
100
AcDbArc
50
180
51
270
0
LINE
5
476
100
AcDbEntity
8
0
100
AcDbLine
10
52.605382699999907
20
-35.075853499999994
30
0
11
52.605382699999907
21
-22.075853499999951
31
0
0
ARC
5
477
100
AcDbEntity
8
0
100
AcDbCircle
10
53.030382699999947
20
-22.07585349999988
30
0
40
0.42499999999996874
210
0
220
-0
230
1
100
AcDbArc
50
90
51
180
0
ARC
5
478
100
AcDbEntity
8
0
100
AcDbCircle
10
76.84288269999989
20
-16.025853499999911
30
0
40
0.42499999999996874
210
0
220
0
230
1
100
AcDbArc
50
180
51
270.00000000000574
0
LINE
5
479
100
AcDbEntity
8
0
100
AcDbLine
10
89.842882699999933
20
-16.450853499999951
30
0
11
76.842882699999933
21
-16.450853499999877
31
0
0
ARC
5
480
100
AcDbEntity
8
0
100
AcDbCircle
10
89.842882699999933
20
-16.025853499999911
30
0
40
0.42500000000003979
210
-0
220
0
230
1
100
AcDbArc
50
270
51
360
0
LINE
5
481
100
AcDbEntity
8
0
100
AcDbLine
10
90.267882699999944
20
-3.0258534999999398
30
0
11
90.267882699999973
21
-16.025853499999982
31
0
0
ARC
5
482
100
AcDbEntity
8
0
100
AcDbCircle
10
89.842882699999933
20
-3.0258534999998687
30
0
40
0.42500000000000426
210
-0
220
0
230
1
100
AcDbArc
50
0
51
90
0
LINE
5
483
100
AcDbEntity
8
0
100
AcDbLine
10
76.842882699999933
20
-2.6008534999999711
30
0
11
89.842882699999933
21
-2.6008534999998307
31
0
0
ARC
5
484
100
AcDbEntity
8
0
100
AcDbCircle
10
76.842882699999961
20
-3.0258535000000109
30
0
40
0.42500000000003979
210
0
220
0
230
1
100
AcDbArc
50
90.000000000003837
51
180
0
LINE
5
485
100
AcDbEntity
8
0
100
AcDbLine
10
76.417882699999922
20
-16.025853499999982
30
0
11
76.417882699999922
21
-3.0258534999998687
31
0
0
LINE
5
486
100
AcDbEntity
8
0
100
AcDbLine
10
13.642882699999941
20
-16.450853499999951
30
0
11
0.64288269999995151
21
-16.450853499999948
31
0
0
ARC
5
487
100
AcDbEntity
8
0
100
AcDbCircle
10
0.64288269999993375
20
-16.025853499999982
30
0
40
0.42500000000000426
210
0
220
0
230
1
100
AcDbArc
50
180
51
270.00000000000239
0
LINE
5
488
100
AcDbEntity
8
0
100
AcDbLine
10
0.21788269999992949
20
-16.025853499999982
30
0
11
0.2178826999999311
21
-3.0258534999999398
31
0
0
ARC
5
489
100
AcDbEntity
8
0
100
AcDbCircle
10
0.64288269999995151
20
-3.0258534999998687
30
0
40
0.42499999999996874
210
0
220
-0
230
1
100
AcDbArc
50
89.999999999999986
51
180
0
LINE
5
490
100
AcDbEntity
8
0
100
AcDbLine
10
0.64288269999995151
20
-2.6008534999999
30
0
11
13.642882699999941
21
-2.6008534999999018
31
0
0
ARC
5
491
100
AcDbEntity
8
0
100
AcDbCircle
10
13.642882699999941
20
-3.0258534999998687
30
0
40
0.42500000000002203
210
-0
220
0
230
1
100
AcDbArc
50
0
51
90
0
LINE
5
492
100
AcDbEntity
8
0
100
AcDbLine
10
14.067882699999963
20
-3.0258534999999398
30
0
11
14.067882699999961
21
-16.025853499999982
31
0
0
ARC
5
493
100
AcDbEntity
8
0
100
AcDbCircle
10
13.642882699999994
20
-16.025853499999982
30
0
40
0.42499999999996874
210
0
220
0
230
1
100
AcDbArc
50
-90.000000000007162
51
0
0
LINE
5
494
100
AcDbEntity
8
0
100
AcDbLine
10
-75.557117300000073
20
-2.6008534999999711
30
0
11
-62.557117300000051
21
-2.6008534999999018
31
0
0
ARC
5
495
100
AcDbEntity
8
0
100
AcDbCircle
10
-62.557117300000051
20
-3.0258534999998687
30
0
40
0.42500000000000426
210
-0
220
0
230
1
100
AcDbArc
50
0
51
90
0
LINE
5
496
100
AcDbEntity
8
0
100
AcDbLine
10
-62.132117300000047
20
-3.0258534999999398
30
0
11
-62.13211730000004
21
-16.025853499999982
31
0
0
ARC
5
497
100
AcDbEntity
8
0
100
AcDbCircle
10
-62.557117300000016
20
-16.025853499999982
30
0
40
0.42499999999996874
210
0
220
0
230
1
100
AcDbArc
50
-90.000000000003823
51
0
0
LINE
5
498
100
AcDbEntity
8
0
100
AcDbLine
10
-62.557117300000044
20
-16.450853499999951
30
0
11
-75.557117300000058
21
-16.450853499999948
31
0
0
ARC
5
499
100
AcDbEntity
8
0
100
AcDbCircle
10
-75.557117300000087
20
-16.025853499999982
30
0
40
0.42499999999997762
210
0
220
0
230
1
100
AcDbArc
50
180
51
270.00000000000381
0
LINE
5
500
100
AcDbEntity
8
0
100
AcDbLine
10
-75.982117300000056
20
-16.025853499999982
30
0
11
-75.982117300000056
21
-3.0258534999999398
31
0
0
ARC
5
501
100
AcDbEntity
8
0
100
AcDbCircle
10
-75.557117300000144
20
-3.0258534999998687
30
0
40
0.42499999999989768
210
0
220
-0
230
1
100
AcDbArc
50
89.999999999990408
51
180
0
LINE
5
502
100
AcDbEntity
8
0
100
AcDbLine
10
-85.507117300000061
20
3.0241465000000289
30
0
11
-85.507117300000047
21
16.024146500000001
31
0
0
ARC
5
503
100
AcDbEntity
8
0
100
AcDbCircle
10
-85.082117300000078
20
16.024146500000001
30
0
40
0.42499999999996874
210
0
220
-0
230
1
100
AcDbArc
50
89.999999999998082
51
180
0
LINE
5
504
100
AcDbEntity
8
0
100
AcDbLine
10
-85.082117300000064
20
16.449146499999969
30
0
11
-72.08211730000005
21
16.449146500000037
31
0
0
ARC
5
505
100
AcDbEntity
8
0
100
AcDbCircle
10
-72.082117300000036
20
16.024146500000001
30
0
40
0.4249999999999865
210
0
220
-0
230
1
100
AcDbArc
50
0
51
90.000000000001918
0
LINE
5
506
100
AcDbEntity
8
0
100
AcDbLine
10
-71.657117300000053
20
16.024146500000001
30
0
11
-71.657117300000067
21
3.0241465000000289
31
0
0
ARC
5
507
100
AcDbEntity
8
0
100
AcDbCircle
10
-72.082117300000036
20
3.0241465000000289
30
0
40
0.42499999999996874
210
0
220
0
230
1
100
AcDbArc
50
-90.000000000001933
51
0
0
LINE
5
508
100
AcDbEntity
8
0
100
AcDbLine
10
-72.08211730000005
20
2.5991465000000602
30
0
11
-85.082117300000064
21
2.599146500000062
31
0
0
ARC
5
509
100
AcDbEntity
8
0
100
AcDbCircle
10
-85.082117300000078
20
3.0241465000000289
30
0
40
0.4249999999999865
210
0
220
0
230
1
100
AcDbArc
50
180
51
270.00000000000193
0
LINE
5
510
100
AcDbEntity
8
0
100
AcDbLine
10
-9.3071173000000584
20
3.0241465000000289
30
0
11
-9.3071173000000567
21
16.024146500000001
31
0
0
ARC
5
511
100
AcDbEntity
8
0
100
AcDbCircle
10
-8.8821173000000719
20
16.024146500000001
30
0
40
0.42499999999996874
210
0
220
-0
230
1
100
AcDbArc
50
89.999999999997613
51
180
0
LINE
5
512
100
AcDbEntity
8
0
100
AcDbLine
10
-8.8821173000000542
20
16.449146499999969
30
0
11
4.1178826999999352
21
16.449146500000037
31
0
0
ARC
5
513
100
AcDbEntity
8
0
100
AcDbCircle
10
4.1178826999999885
20
16.024146500000001
30
0
40
0.42499999999995097
210
0
220
-0
230
1
100
AcDbArc
50
0
51
90.000000000007191
0
LINE
5
514
100
AcDbEntity
8
0
100
AcDbLine
10
4.5428826999999394
20
16.024146500000001
30
0
11
4.5428826999999554
21
3.0241465000000289
31
0
0
ARC
5
515
100
AcDbEntity
8
0
100
AcDbCircle
10
4.1178826999999885
20
3.0241465000000289
30
0
40
0.42499999999996874
210
0
220
0
230
1
100
AcDbArc
50
-90.000000000007162
51
0
0
LINE
5
516
100
AcDbEntity
8
0
100
AcDbLine
10
4.1178826999999352
20
2.5991465000000602
30
0
11
-8.8821173000000542
21
2.599146500000062
31
0
0
ARC
5
517
100
AcDbEntity
8
0
100
AcDbCircle
10
-8.8821173000000719
20
3.0241465000000289
30
0
40
0.4249999999999865
210
0
220
0
230
1
100
AcDbArc
50
180
51
270.00000000000239
0
ARC
5
518
100
AcDbEntity
8
0
100
AcDbCircle
10
80.317882699999927
20
3.0241465000001
30
0
40
0.42500000000003979
210
-0
220
0
230
1
100
AcDbArc
50
270
51
360
0
LINE
5
519
100
AcDbEntity
8
0
100
AcDbLine
10
80.742882699999967
20
16.024146500000001
30
0
11
80.742882699999967
21
3.0241465000000289
31
0
0
ARC
5
520
100
AcDbEntity
8
0
100
AcDbCircle
10
80.317882699999927
20
16.024146499999929
30
0
40
0.42500000000003979
210
0
220
-0
230
1
100
AcDbArc
50
0
51
90
0
LINE
5
521
100
AcDbEntity
8
0
100
AcDbLine
10
67.317882699999927
20
16.449146499999969
30
0
11
80.317882699999927
21
16.449146499999966
31
0
0
ARC
5
522
100
AcDbEntity
8
0
100
AcDbCircle
10
67.317882699999885
20
16.024146499999929
30
0
40
0.42500000000003979
210
0
220
-0
230
1
100
AcDbArc
50
89.999999999994273
51
180
0
LINE
5
523
100
AcDbEntity
8
0
100
AcDbLine
10
66.892882699999888
20
3.0241465000000289
30
0
11
66.892882699999888
21
16.024146500000001
31
0
0
ARC
5
524
100
AcDbEntity
8
0
100
AcDbCircle
10
67.317882699999885
20
3.0241465000001
30
0
40
0.42500000000000426
210
0
220
0
230
1
100
AcDbArc
50
180
51
270.00000000000574
0
LINE
5
525
100
AcDbEntity
8
0
100
AcDbLine
10
80.317882699999927
20
2.5991465000000602
30
0
11
67.317882699999927
21
2.599146500000062
31
0
0
ARC
5
526
100
AcDbEntity
8
0
100
AcDbCircle
10
80.317882699999927
20
22.074146500000111
30
0
40
0.42500000000003979
210
-0
220
0
230
1
100
AcDbArc
50
270
51
360
0
LINE
5
527
100
AcDbEntity
8
0
100
AcDbLine
10
80.742882699999896
20
35.074146500000012
30
0
11
80.742882699999896
21
22.07414650000004
31
0
0
ARC
5
528
100
AcDbEntity
8
0
100
AcDbCircle
10
80.317882699999956
20
35.074146499999941
30
0
40
0.42499999999993321
210
0
220
-0
230
1
100
AcDbArc
50
0
51
90.000000000003837
0
LINE
5
529
100
AcDbEntity
8
0
100
AcDbLine
10
67.317882699999927
20
35.499146499999981
30
0
11
80.317882699999927
21
35.49914649999991
31
0
0
ARC
5
530
100
AcDbEntity
8
0
100
AcDbCircle
10
67.317882699999927
20
35.074146499999941
30
0
40
0.42500000000003979
210
0
220
-0
230
1
100
AcDbArc
50
90
51
180
0
LINE
5
531
100
AcDbEntity
8
0
100
AcDbLine
10
66.892882699999944
20
22.07414650000004
30
0
11
66.892882699999944
21
35.074146500000012
31
0
0
ARC
5
532
100
AcDbEntity
8
0
100
AcDbCircle
10
67.317882699999885
20
22.074146500000111
30
0
40
0.42499999999993321
210
0
220
0
230
1
100
AcDbArc
50
180
51
270.00000000000574
0
LINE
5
533
100
AcDbEntity
8
0
100
AcDbLine
10
80.317882699999927
20
21.649146500000072
30
0
11
67.317882699999927
21
21.649146500000072
31
0
0
ARC
5
534
100
AcDbEntity
8
0
100
AcDbCircle
10
1.7298826999999228
20
35.074146500000012
30
0
40
0.42499999999996874
210
0
220
-0
230
1
100
AcDbArc
50
89.999999999997613
51
180
0
LINE
5
535
100
AcDbEntity
8
0
100
AcDbLine
10
1.3048826999999363
20
21.074146500000097
30
0
11
1.3048826999999559
21
35.074146500000012
31
0
0
ARC
5
536
100
AcDbEntity
8
0
100
AcDbCircle
10
1.7298826999999228
20
21.074146500000097
30
0
40
0.4249999999999865
210
0
220
0
230
1
100
AcDbArc
50
180
51
270.00000000000239
0
LINE
5
537
100
AcDbEntity
8
0
100
AcDbLine
10
7.729882699999937
20
20.649146500000128
30
0
11
1.7298826999999406
21
20.649146500000128
31
0
0
ARC
5
538
100
AcDbEntity
8
0
100
AcDbCircle
10
7.7298826999999903
20
21.074146500000097
30
0
40
0.42499999999996874
210
0
220
0
230
1
100
AcDbArc
50
-90.000000000007162
51
0
0
LINE
5
539
100
AcDbEntity
8
0
100
AcDbLine
10
8.1548826999999413
20
35.074146500000012
30
0
11
8.1548826999999573
21
21.074146500000097
31
0
0
ARC
5
540
100
AcDbEntity
8
0
100
AcDbCircle
10
7.7298826999999903
20
35.074146500000012
30
0
40
0.42499999999995097
210
0
220
-0
230
1
100
AcDbArc
50
0
51
90.000000000007191
0
LINE
5
541
100
AcDbEntity
8
0
100
AcDbLine
10
1.7298826999999406
20
35.499146499999981
30
0
11
7.729882699999937
21
35.499146499999981
31
0
0
LINE
5
542
100
AcDbEntity
8
0
100
AcDbLine
10
105.41788269999998
20
35.499146499999981
30
0
11
118.41788269999998
21
35.499146499999981
31
0
0
ARC
5
543
100
AcDbEntity
8
0
100
AcDbCircle
10
118.41788269999998
20
35.074146499999941
30
0
40
0.42500000000003979
210
0
220
-0
230
1
100
AcDbArc
50
0
51
90
0
LINE
5
544
100
AcDbEntity
8
0
100
AcDbLine
10
118.84288270000002
20
35.074146500000012
30
0
11
118.84288270000002
21
22.07414650000004
31
0
0
ARC
5
545
100
AcDbEntity
8
0
100
AcDbCircle
10
118.41788270000002
20
22.074146500000111
30
0
40
0.42500000000003979
210
0
220
0
230
1
100
AcDbArc
50
269.99999999999426
51
360
0
LINE
5
546
100
AcDbEntity
8
0
100
AcDbLine
10
118.41788269999998
20
21.649146500000072
30
0
11
105.41788269999998
21
21.649146500000072
31
0
0
ARC
5
547
100
AcDbEntity
8
0
100
AcDbCircle
10
105.41788269999998
20
22.074146500000111
30
0
40
0.42500000000003979
210
0
220
0
230
1
100
AcDbArc
50
180
51
270
0
LINE
5
548
100
AcDbEntity
8
0
100
AcDbLine
10
104.99288269999994
20
22.07414650000004
30
0
11
104.99288269999994
21
35.074146500000012
31
0
0
ARC
5
549
100
AcDbEntity
8
0
100
AcDbCircle
10
105.41788269999995
20
35.074146499999941
30
0
40
0.42500000000003979
210
0
220
-0
230
1
100
AcDbArc
50
89.999999999996163
51
180
0
ENDSEC
0
SECTION
2
OBJECTS
0
DICTIONARY
5
C
100
AcDbDictionary
3
ACAD_GROUP
350
D
3
ACAD_MLINESTYLE
350
17
0
DICTIONARY
5
D
100
AcDbDictionary
0
DICTIONARY
5
1A
330
C
100
AcDbDictionary
0
DICTIONARY
5
17
100
AcDbDictionary
0
ENDSEC
0
EOF
