0
SECTION
2
HEADER
9
$INSUNITS
70
4
9
$ACADVER
1
AC1014
9
$HANDSEED
5
FFFF
0
ENDSEC
0
SECTION
2
TABLES
0
TABLE
2
VPORT
5
8
100
AcDbSymbolTable
0
ENDTAB
0
TABLE
2
LTYPE
5
5
100
AcDbSymbolTable
70
2
0
LTYPE
5
14
100
AcDbSymbolTableRecord
100
AcDbLinetypeTableRecord
2
BYBLOCK
70
0
0
LTYPE
5
15
100
AcDbSymbolTableRecord
100
AcDbLinetypeTableRecord
2
BYLAYER
70
0
0
ENDTAB
0
TABLE
2
LAYER
5
2
100
AcDbSymbolTable
70
3
0
LAYER
5
50
100
AcDbSymbolTableRecord
100
AcDbLayerTableRecord
2
0
70
0
6
CONTINUOUS
0
LAYER
5
51
100
AcDbSymbolTableRecord
100
AcDbLayerTableRecord
2
CUTOUTS
70
0
62
1
6
CONTINUOUS
0
LAYER
5
52
100
AcDbSymbolTableRecord
100
AcDbLayerTableRecord
2
PERIMETER
70
0
62
5
6
CONTINUOUS
0
ENDTAB
0
TABLE
2
STYLE
5
3
100
AcDbSymbolTable
70
1
0
STYLE
5
11
100
AcDbSymbolTableRecord
100
AcDbTextStyleTableRecord
2
STANDARD
70
0
0
ENDTAB
0
TABLE
2
VIEW
5
6
100
AcDbSymbolTable
0
ENDTAB
0
TABLE
2
UCS
5
7
100
AcDbSymbolTable
0
ENDTAB
0
TABLE
2
APPID
5
9
100
AcDbSymbolTable
70
1
0
APPID
5
12
100
AcDbSymbolTableRecord
100
AcDbRegAppTableRecord
2
ACAD
70
0
0
ENDTAB
0
TABLE
2
DIMSTYLE
5
A
100
AcDbSymbolTable
0
ENDTAB
0
TABLE
2
BLOCK_RECORD
5
1
100
AcDbSymbolTable
70
2
0
BLOCK_RECORD
5
1F
100
AcDbSymbolTableRecord
100
AcDbBlockTableRecord
2
*MODEL_SPACE
0
BLOCK_RECORD
5
1B
100
AcDbSymbolTableRecord
100
AcDbBlockTableRecord
2
*PAPER_SPACE
0
ENDTAB
0
ENDSEC
0
SECTION
2
BLOCKS
0
BLOCK
5
20
100
AcDbEntity
100
AcDbBlockBegin
2
*MODEL_SPACE
0
ENDBLK
5
21
100
AcDbEntity
100
AcDbBlockEnd
0
BLOCK
5
1C
100
AcDbEntity
100
AcDbBlockBegin
2
*PAPER_SPACE
0
ENDBLK
5
1D
100
AcDbEntity
100
AcDbBlockEnd
0
ENDSEC
0
SECTION
2
ENTITIES
0
CIRCLE
5
100
100
AcDbEntity
8
CUTOUTS
100
AcDbCircle
10
-126.2439577
20
0
30
0
40
0.92499999999999361
210
0
220
0
230
1
0
CIRCLE
5
101
100
AcDbEntity
8
CUTOUTS
100
AcDbCircle
10
60.0989577
20
42.899903499999894
30
2.6645352591003757e-14
40
0.92500000000001137
210
0
220
0
230
1
0
CIRCLE
5
102
100
AcDbEntity
8
CUTOUTS
100
AcDbCircle
10
126.24395769999992
20
0
30
0
40
0.92500000000001137
210
0
220
0
230
1
0
CIRCLE
5
103
100
AcDbEntity
8
CUTOUTS
100
AcDbCircle
10
-60.0989577
20
-42.899903500000036
30
0
40
0.92499999999999361
210
0
220
0
230
1
0
CIRCLE
5
104
100
AcDbEntity
8
CUTOUTS
100
AcDbCircle
10
-60.0989577
20
42.899903499999965
30
2.6645352591003757e-14
40
0.92500000000000249
210
0
220
0
230
1
0
CIRCLE
5
105
100
AcDbEntity
8
CUTOUTS
100
AcDbCircle
10
60.0989577
20
-42.899903500000036
30
0
40
0.92500000000001137
210
0
220
0
230
1
0
ARC
5
106
100
AcDbEntity
8
CUTOUTS
100
AcDbCircle
10
-79.819650531570616
20
21.773796499999918
30
0
40
0.92499999999986926
210
0
220
0
230
1
100
AcDbArc
50
180
51
270.00000000000438
0
LINE
5
107
100
AcDbEntity
8
CUTOUTS
100
AcDbLine
10
-67.819650531570517
20
20.848796499999906
30
0
11
-79.819650531570545
21
20.848796500000049
31
0
0
ARC
5
108
100
AcDbEntity
8
CUTOUTS
100
AcDbCircle
10
-67.819650531570588
20
21.77379650000006
30
0
40
0.92500000000015348
210
-0
220
0
230
1
100
AcDbArc
50
270.00000000000438
51
360
0
LINE
5
109
100
AcDbEntity
8
CUTOUTS
100
AcDbLine
10
-66.894650531570434
20
22.068831828746411
30
0
11
-66.894650531570434
21
21.773796499999989
31
0
0
ARC
5
10A
100
AcDbEntity
8
CUTOUTS
100
AcDbCircle
10
-67.319617297551133
20
22.07414649998114
30
0
40
0.42499999755109091
210
-0
220
0
230
1
100
AcDbArc
50
-0.71650863517136465
51
0
0
LINE
5
10B
100
AcDbEntity
8
CUTOUTS
100
AcDbLine
10
-66.89461730000005
20
35.074146499999941
30
0
11
-66.89461730000005
21
22.074146499997127
31
0
0
ARC
5
10C
100
AcDbEntity
8
CUTOUTS
100
AcDbCircle
10
-67.319617302597763
20
35.07414649998708
30
0
40
0.42500000259771298
210
0
220
-0
230
1
100
AcDbArc
50
0
51
0.71650863261219777
0
LINE
5
10D
100
AcDbEntity
8
CUTOUTS
100
AcDbLine
10
-66.894650531570434
20
35.373796500000054
30
0
11
-66.894650531570576
21
35.079461171265933
31
0
0
ARC
5
10E
100
AcDbEntity
8
CUTOUTS
100
AcDbCircle
10
-67.819650531570588
20
35.373796499999912
30
0
40
0.92500000000015348
210
0
220
-0
230
1
100
AcDbArc
50
0
51
89.999999999995609
0
LINE
5
10F
100
AcDbEntity
8
CUTOUTS
100
AcDbLine
10
-79.819650531570545
20
36.298796499999924
30
0
11
-67.819650531570517
21
36.298796500000066
31
0
0
ARC
5
110
100
AcDbEntity
8
CUTOUTS
100
AcDbCircle
10
-79.819650531570616
20
35.373796500000054
30
0
40
0.92499999999986926
210
0
220
-0
230
1
100
AcDbArc
50
89.999999999995609
51
180
0
LINE
5
111
100
AcDbEntity
8
CUTOUTS
100
AcDbLine
10
-80.744650531570485
20
21.773796499999989
30
0
11
-80.744650531570485
21
35.373796499999983
31
0
0
LINE
5
112
100
AcDbEntity
8
CUTOUTS
100
AcDbLine
10
110.77409946842948
20
20.848796500000049
30
0
11
98.774099468429597
21
20.848796500000049
31
0
0
ARC
5
113
100
AcDbEntity
8
CUTOUTS
100
AcDbCircle
10
98.774099468429668
20
21.773796500000202
30
0
40
0.92500000000015348
210
0
220
0
230
1
100
AcDbArc
50
180
51
269.99999999999562
0
LINE
5
114
100
AcDbEntity
8
CUTOUTS
100
AcDbLine
10
97.849099468429515
20
21.773796500000131
30
0
11
97.849099468429444
21
35.373796500000125
31
0
0
ARC
5
115
100
AcDbEntity
8
CUTOUTS
100
AcDbCircle
10
98.774099468429526
20
35.373796500000125
30
0
40
0.92500000000008242
210
0
220
0
230
1
100
AcDbArc
50
90.000000000004405
51
180
0
LINE
5
116
100
AcDbEntity
8
CUTOUTS
100
AcDbLine
10
98.774099468429455
20
36.298796500000208
30
0
11
110.77409946842948
21
36.298796500000208
31
0
0
ARC
5
117
100
AcDbEntity
8
CUTOUTS
100
AcDbCircle
10
110.77409946842941
20
35.373796500000054
30
0
40
0.92500000000015348
210
0
220
-0
230
1
100
AcDbArc
50
0
51
89.999999999995609
0
LINE
5
118
100
AcDbEntity
8
CUTOUTS
100
AcDbLine
10
111.69909946842957
20
35.373796500000125
30
0
11
111.69909946842964
21
35.079461171255062
31
0
0
ARC
5
119
100
AcDbEntity
8
CUTOUTS
100
AcDbCircle
10
111.27413270006471
20
35.074146499997312
30
0
40
0.4249999999353804
210
0
220
-0
230
1
100
AcDbArc
50
0
51
0.71650863425523681
0
LINE
5
11A
100
AcDbEntity
8
CUTOUTS
100
AcDbLine
10
111.69913270000009
20
35.074146499999941
30
0
11
111.69913269999995
21
22.074146499997127
31
0
0
ARC
5
11B
100
AcDbEntity
8
CUTOUTS
100
AcDbCircle
10
111.27413270238726
20
22.074146499981353
30
0
40
0.42499999761269547
210
-0
220
0
230
1
100
AcDbArc
50
-0.71650863512505569
51
0
0
LINE
5
11C
100
AcDbEntity
8
CUTOUTS
100
AcDbLine
10
111.69909946842957
20
22.068831828746198
30
0
11
111.69909946842957
21
21.773796500000131
31
0
0
ARC
5
11D
100
AcDbEntity
8
CUTOUTS
100
AcDbCircle
10
110.77409946842941
20
21.773796500000202
30
0
40
0.92500000000015348
210
-0
220
0
230
1
100
AcDbArc
50
270.00000000000438
51
360
0
ARC
5
11E
100
AcDbEntity
8
CUTOUTS
100
AcDbCircle
10
-98.869650531570528
20
21.773796499999918
30
0
40
0.92499999999994031
210
0
220
0
230
1
100
AcDbArc
50
180
51
270
0
LINE
5
11F
100
AcDbEntity
8
CUTOUTS
100
AcDbLine
10
-86.8696505315705
20
20.848796499999978
30
0
11
-98.869650531570528
21
20.848796499999978
31
0
0
ARC
5
120
100
AcDbEntity
8
CUTOUTS
100
AcDbCircle
10
-86.869650531570528
20
21.773796499999989
30
0
40
0.92500000000001137
210
-0
220
0
230
1
100
AcDbArc
50
270.00000000000171
51
360
0
LINE
5
121
100
AcDbEntity
8
CUTOUTS
100
AcDbLine
10
-85.944650531570517
20
22.068831828742219
30
0
11
-85.944650531570517
21
21.773796499999918
31
0
0
ARC
5
122
100
AcDbEntity
8
CUTOUTS
100
AcDbCircle
10
-86.369617300382302
20
22.074146500001248
30
0
40
0.42500000038225988
210
-0
220
0
230
1
100
AcDbArc
50
359.28349136632568
51
360
0
LINE
5
123
100
AcDbEntity
8
CUTOUTS
100
AcDbLine
10
-85.944617300000061
20
35.074146499999941
30
0
11
-85.944617300000033
21
22.074146500000182
31
0
0
ARC
5
124
100
AcDbEntity
8
CUTOUTS
100
AcDbCircle
10
-86.369617299701105
20
35.074146500000296
30
0
40
0.42499999970104341
210
-0
220
0
230
1
100
AcDbArc
50
0
51
0.71650863421962918
0
LINE
5
125
100
AcDbEntity
8
CUTOUTS
100
AcDbLine
10
-85.944650531570403
20
35.373796499999983
30
0
11
-85.944650531570545
21
35.079461171254849
31
0
0
ARC
5
126
100
AcDbEntity
8
CUTOUTS
100
AcDbCircle
10
-86.869650531570528
20
35.373796499999983
30
0
40
0.92500000000011795
210
0
220
-0
230
1
100
AcDbArc
50
0
51
89.999999999998252
0
LINE
5
127
100
AcDbEntity
8
CUTOUTS
100
AcDbLine
10
-98.869650531570528
20
36.298796499999995
30
0
11
-86.8696505315705
21
36.298796500000066
31
0
0
ARC
5
128
100
AcDbEntity
8
CUTOUTS
100
AcDbCircle
10
-98.869650531570485
20
35.373796499999983
30
0
40
0.92500000000001137
210
0
220
0
230
1
100
AcDbArc
50
90.000000000002643
51
180
0
LINE
5
129
100
AcDbEntity
8
CUTOUTS
100
AcDbLine
10
-99.794650531570454
20
21.773796499999989
30
0
11
-99.794650531570497
21
35.373796500000054
31
0
0
ARC
5
12A
100
AcDbEntity
8
CUTOUTS
100
AcDbCircle
10
-60.769650531570605
20
21.773796499999918
30
0
40
0.92499999999986926
210
0
220
0
230
1
100
AcDbArc
50
180
51
270.00000000000438
0
LINE
5
12B
100
AcDbEntity
8
CUTOUTS
100
AcDbLine
10
-48.769650531570505
20
20.848796500000049
30
0
11
-60.769650531570534
21
20.848796500000049
31
0
0
ARC
5
12C
100
AcDbEntity
8
CUTOUTS
100
AcDbCircle
10
-48.769650531570434
20
21.773796499999918
30
0
40
0.92499999999986926
210
0
220
0
230
1
100
AcDbArc
50
-90.000000000004377
51
0
0
LINE
5
12D
100
AcDbEntity
8
CUTOUTS
100
AcDbLine
10
-47.844650531570494
20
22.068831828740016
30
0
11
-47.844650531570565
21
21.773796499999989
31
0
0
ARC
5
12E
100
AcDbEntity
8
CUTOUTS
100
AcDbCircle
10
-48.269617299972651
20
22.074146499996559
30
0
40
0.42499999997263294
210
-0
220
0
230
1
100
AcDbArc
50
-0.7165086340298763
51
0
0
LINE
5
12F
100
AcDbEntity
8
CUTOUTS
100
AcDbLine
10
-47.844617299999896
20
35.074146499999941
30
0
11
-47.844617300000039
21
22.074146499999472
31
0
0
ARC
5
130
100
AcDbEntity
8
CUTOUTS
100
AcDbCircle
10
-48.26961729933835
20
35.074146500003707
30
0
40
0.42499999933845345
210
-0
220
0
230
1
100
AcDbArc
50
0
51
0.71650863643951224
0
LINE
5
131
100
AcDbEntity
8
CUTOUTS
100
AcDbLine
10
-47.844650531570565
20
35.373796499999983
30
0
11
-47.844650531570494
21
35.079461171270196
31
0
0
ARC
5
132
100
AcDbEntity
8
CUTOUTS
100
AcDbCircle
10
-48.769650531570434
20
35.373796500000054
30
0
40
0.92499999999986926
210
-0
220
0
230
1
100
AcDbArc
50
0
51
90.000000000004405
0
LINE
5
133
100
AcDbEntity
8
CUTOUTS
100
AcDbLine
10
-60.769650531570534
20
36.298796499999924
30
0
11
-48.769650531570505
21
36.298796499999924
31
0
0
ARC
5
134
100
AcDbEntity
8
CUTOUTS
100
AcDbCircle
10
-60.769650531570605
20
35.373796500000054
30
0
40
0.92499999999986926
210
0
220
-0
230
1
100
AcDbArc
50
89.999999999995609
51
180
0
LINE
5
135
100
AcDbEntity
8
CUTOUTS
100
AcDbLine
10
-61.694650531570474
20
21.773796499999989
30
0
11
-61.694650531570474
21
35.373796499999983
31
0
0
LINE
5
136
100
AcDbEntity
8
CUTOUTS
100
AcDbLine
10
54.549132699999987
20
35.074146499999941
30
0
11
54.549132699999987
21
22.074146499998051
31
0
0
ARC
5
137
100
AcDbEntity
8
CUTOUTS
100
AcDbCircle
10
54.124132702393837
20
22.074146499987464
30
0
40
0.42499999760614748
210
-0
220
0
230
1
100
AcDbArc
50
-0.71650863577821444
51
0
0
LINE
5
138
100
AcDbEntity
8
CUTOUTS
100
AcDbLine
10
54.549099468429532
20
22.068831828747548
30
0
11
54.549099468429532
21
21.773796500000131
31
0
0
ARC
5
139
100
AcDbEntity
8
CUTOUTS
100
AcDbCircle
10
53.624099468429236
20
21.773796500000202
30
0
40
0.92500000000029559
210
-0
220
0
230
1
100
AcDbArc
50
270.00000000001324
51
360
0
LINE
5
13A
100
AcDbEntity
8
CUTOUTS
100
AcDbLine
10
53.624099468429449
20
20.848796499999906
30
0
11
41.624099468429563
21
20.848796499999978
31
0
0
ARC
5
13B
100
AcDbEntity
8
CUTOUTS
100
AcDbCircle
10
41.624099468429563
20
21.77379650000006
30
0
40
0.92500000000008242
210
0
220
0
230
1
100
AcDbArc
50
180
51
270
0
LINE
5
13C
100
AcDbEntity
8
CUTOUTS
100
AcDbLine
10
40.69909946842948
20
21.773796499999989
30
0
11
40.699099468429409
21
35.373796500000125
31
0
0
ARC
5
13D
100
AcDbEntity
8
CUTOUTS
100
AcDbCircle
10
41.624099468429492
20
35.373796500000125
30
0
40
0.92500000000008242
210
0
220
0
230
1
100
AcDbArc
50
90.000000000004405
51
180
0
LINE
5
13E
100
AcDbEntity
8
CUTOUTS
100
AcDbLine
10
41.624099468429421
20
36.298796500000208
30
0
11
53.624099468429449
21
36.298796500000208
31
0
0
ARC
5
13F
100
AcDbEntity
8
CUTOUTS
100
AcDbCircle
10
53.624099468429378
20
35.373796500000054
30
0
40
0.92500000000015348
210
0
220
-0
230
1
100
AcDbArc
50
0
51
89.999999999995609
0
LINE
5
140
100
AcDbEntity
8
CUTOUTS
100
AcDbLine
10
54.549099468429532
20
35.373796500000125
30
0
11
54.549099468429532
21
35.079461171253428
31
0
0
ARC
5
141
100
AcDbEntity
8
CUTOUTS
100
AcDbCircle
10
54.124132702393837
20
35.074146500012446
30
0
40
0.42499999760615026
210
-0
220
0
230
1
100
AcDbArc
50
0
51
0.71650863592167524
0
LINE
5
142
100
AcDbEntity
8
CUTOUTS
100
AcDbLine
10
-104.9946505315705
20
22.068831828747832
30
0
11
-104.9946505315705
21
21.773796499999989
31
0
0
ARC
5
143
100
AcDbEntity
8
CUTOUTS
100
AcDbCircle
10
-105.91965053157043
20
21.773796499999918
30
0
40
0.92499999999994031
210
0
220
0
230
1
100
AcDbArc
50
-90.000000000005286
51
0
0
LINE
5
144
100
AcDbEntity
8
CUTOUTS
100
AcDbLine
10
-105.91965053157051
20
20.848796499999978
30
0
11
-117.9196505315705
21
20.848796499999906
31
0
0
ARC
5
145
100
AcDbEntity
8
CUTOUTS
100
AcDbCircle
10
-117.9196505315705
20
21.773796499999989
30
0
40
0.92499999999997584
210
0
220
0
230
1
100
AcDbArc
50
180
51
270
0
LINE
5
146
100
AcDbEntity
8
CUTOUTS
100
AcDbLine
10
-118.84465053157047
20
21.773796499999918
30
0
11
-118.84465053157055
21
35.373796499999983
31
0
0
ARC
5
147
100
AcDbEntity
8
CUTOUTS
100
AcDbCircle
10
-117.91965053157054
20
35.373796499999912
30
0
40
0.92500000000001137
210
0
220
-0
230
1
100
AcDbArc
50
90
51
180
0
LINE
5
148
100
AcDbEntity
8
CUTOUTS
100
AcDbLine
10
-117.91965053157054
20
36.298796499999924
30
0
11
-105.91965053157051
21
36.298796500000137
31
0
0
ARC
5
149
100
AcDbEntity
8
CUTOUTS
100
AcDbCircle
10
-105.91965053157054
20
35.373796499999983
30
0
40
0.92500000000011795
210
0
220
-0
230
1
100
AcDbArc
50
0
51
89.999999999998252
0
LINE
5
14A
100
AcDbEntity
8
CUTOUTS
100
AcDbLine
10
-104.99465053157041
20
35.373796499999983
30
0
11
-104.99465053157053
21
35.07946117125698
31
0
0
ARC
5
14B
100
AcDbEntity
8
CUTOUTS
100
AcDbCircle
10
-105.41961730118018
20
35.074146499994612
30
0
40
0.42500000118010917
210
0
220
-0
230
1
100
AcDbArc
50
0
51
0.71650863277955357
0
LINE
5
14C
100
AcDbEntity
8
CUTOUTS
100
AcDbLine
10
-104.99461730000007
20
35.074146499999941
30
0
11
-104.99461730000004
21
22.074146499999898
31
0
0
ARC
5
14D
100
AcDbEntity
8
CUTOUTS
100
AcDbCircle
10
-105.41961729970112
20
22.074146499999614
30
0
40
0.42499999970106073
210
-0
220
0
230
1
100
AcDbArc
50
-0.71650863384576036
51
0
0
LINE
5
14E
100
AcDbEntity
8
CUTOUTS
100
AcDbLine
10
-17.313367300000024
20
21.649146499999858
30
0
11
-30.313367300000067
21
21.649146499999929
31
0
0
ARC
5
14F
100
AcDbEntity
8
CUTOUTS
100
AcDbCircle
10
-30.313367300000067
20
22.074146499999969
30
0
40
0.42500000000011084
210
0
220
0
230
1
100
AcDbArc
50
180
51
270
0
LINE
5
150
100
AcDbEntity
8
CUTOUTS
100
AcDbLine
10
-30.738367300000178
20
22.074146499999969
30
0
11
-30.738367300000107
21
35.074146499999941
31
0
0
ARC
5
151
100
AcDbEntity
8
CUTOUTS
100
AcDbCircle
10
-30.313367300000067
20
35.074146499999941
30
0
40
0.42500000000011084
210
0
220
-0
230
1
100
AcDbArc
50
90
51
180
0
LINE
5
152
100
AcDbEntity
8
CUTOUTS
100
AcDbLine
10
-30.313367300000067
20
35.499146500000052
30
0
11
-17.313367300000024
21
35.499146500000052
31
0
0
ARC
5
153
100
AcDbEntity
8
CUTOUTS
100
AcDbCircle
10
-17.313367300000166
20
35.07414649999987
30
0
40
0.4250000000001819
210
0
220
-0
230
1
100
AcDbArc
50
0
51
89.999999999980844
0
LINE
5
154
100
AcDbEntity
8
CUTOUTS
100
AcDbLine
10
-16.888367299999985
20
35.074146499999941
30
0
11
-16.888367299999917
21
22.074146499999969
31
0
0
ARC
5
155
100
AcDbEntity
8
CUTOUTS
100
AcDbCircle
10
-17.313367300000166
20
22.07414650000004
30
0
40
0.4250000000001819
210
-0
220
0
230
1
100
AcDbArc
50
270.00000000001916
51
360
0
LINE
5
156
100
AcDbEntity
8
CUTOUTS
100
AcDbLine
10
25.180882699999856
20
21.074146500000026
30
0
11
25.180882699999927
21
35.074146499999941
31
0
0
ARC
5
157
100
AcDbEntity
8
CUTOUTS
100
AcDbCircle
10
25.605882699999754
20
35.074146500000154
30
0
40
0.42499999999982663
210
0
220
-0
230
1
100
AcDbArc
50
89.999999999971266
51
180
0
LINE
5
158
100
AcDbEntity
8
CUTOUTS
100
AcDbLine
10
25.605882699999967
20
35.499146499999981
30
0
11
31.605882699999981
21
35.499146500000052
31
0
0
ARC
5
159
100
AcDbEntity
8
CUTOUTS
100
AcDbCircle
10
31.605882699999839
20
35.07414649999987
30
0
40
0.4250000000001819
210
0
220
-0
230
1
100
AcDbArc
50
0
51
89.999999999980844
0
LINE
5
15A
100
AcDbEntity
8
CUTOUTS
100
AcDbLine
10
32.030882700000021
20
35.074146499999941
30
0
11
32.030882700000021
21
21.074146500000026
31
0
0
ARC
5
15B
100
AcDbEntity
8
CUTOUTS
100
AcDbCircle
10
31.605882699999839
20
21.074146500000097
30
0
40
0.4250000000001819
210
-0
220
0
230
1
100
AcDbArc
50
270.00000000001916
51
360
0
LINE
5
15C
100
AcDbEntity
8
CUTOUTS
100
AcDbLine
10
31.605882699999981
20
20.649146499999915
30
0
11
25.605882699999967
21
20.649146499999915
31
0
0
ARC
5
15D
100
AcDbEntity
8
CUTOUTS
100
AcDbCircle
10
25.605882699999967
20
21.074146500000026
30
0
40
0.42500000000011084
210
0
220
0
230
1
100
AcDbArc
50
180
51
270
0
ARC
5
15E
100
AcDbEntity
8
CUTOUTS
100
AcDbCircle
10
105.41788269999998
20
16.024146499999965
30
0
40
0.42500000000003979
210
0
220
-0
230
1
100
AcDbArc
50
90
51
180
0
LINE
5
15F
100
AcDbEntity
8
CUTOUTS
100
AcDbLine
10
104.99288269999994
20
3.0241464999999934
30
0
11
104.99288269999994
21
16.024146499999965
31
0
0
ARC
5
160
100
AcDbEntity
8
CUTOUTS
100
AcDbCircle
10
105.41788269999991
20
3.0241464999999934
30
0
40
0.42499999999996874
210
0
220
0
230
1
100
AcDbArc
50
180
51
270.00000000000961
0
LINE
5
161
100
AcDbEntity
8
CUTOUTS
100
AcDbLine
10
118.41788270000002
20
2.5991464999999891
30
0
11
105.41788269999998
21
2.5991465000000264
31
0
0
ARC
5
162
100
AcDbEntity
8
CUTOUTS
100
AcDbCircle
10
118.41788269999995
20
3.0241464999999934
30
0
40
0.42500000000000426
210
-0
220
0
230
1
100
AcDbArc
50
270.00000000000961
51
360
0
LINE
5
163
100
AcDbEntity
8
CUTOUTS
100
AcDbLine
10
118.84288269999999
20
16.024146499999965
30
0
11
118.84288269999992
21
3.0241464999999579
31
0
0
ARC
5
164
100
AcDbEntity
8
CUTOUTS
100
AcDbCircle
10
118.41788269999995
20
16.024146499999965
30
0
40
0.42500000000003979
210
0
220
-0
230
1
100
AcDbArc
50
0
51
90
0
LINE
5
165
100
AcDbEntity
8
CUTOUTS
100
AcDbLine
10
105.41788269999998
20
16.449146499999969
30
0
11
118.41788269999995
21
16.449146499999966
31
0
0
LINE
5
166
100
AcDbEntity
8
CUTOUTS
100
AcDbLine
10
42.642882699999944
20
16.024146499999965
30
0
11
42.642882700000015
21
3.0241464999999934
31
0
0
ARC
5
167
100
AcDbEntity
8
CUTOUTS
100
AcDbCircle
10
42.217882699999905
20
3.0241464999999934
30
0
40
0.42500000000000426
210
-0
220
0
230
1
100
AcDbArc
50
-89.999999999990436
51
0
0
LINE
5
168
100
AcDbEntity
8
CUTOUTS
100
AcDbLine
10
42.217882699999976
20
2.5991464999999891
30
0
11
29.217882699999933
21
2.5991464999999909
31
0
0
ARC
5
169
100
AcDbEntity
8
CUTOUTS
100
AcDbCircle
10
29.217882699999862
20
3.0241464999999934
30
0
40
0.42499999999996874
210
0
220
0
230
1
100
AcDbArc
50
180
51
270.00000000000961
0
LINE
5
16A
100
AcDbEntity
8
CUTOUTS
100
AcDbLine
10
28.792882699999893
20
3.0241464999999934
30
0
11
28.792882699999822
21
16.024146499999965
31
0
0
ARC
5
16B
100
AcDbEntity
8
CUTOUTS
100
AcDbCircle
10
29.217882699999791
20
16.024146500000001
30
0
40
0.42499999999996874
210
0
220
-0
230
1
100
AcDbArc
50
89.999999999980844
51
180
0
LINE
5
16C
100
AcDbEntity
8
CUTOUTS
100
AcDbLine
10
29.217882699999933
20
16.449146499999898
30
0
11
42.217882699999976
21
16.449146499999966
31
0
0
ARC
5
16D
100
AcDbEntity
8
CUTOUTS
100
AcDbCircle
10
42.217882699999834
20
16.024146499999894
30
0
40
0.42500000000011084
210
0
220
-0
230
1
100
AcDbArc
50
0
51
89.999999999980844
0
ARC
5
16E
100
AcDbEntity
8
CUTOUTS
100
AcDbCircle
10
-46.98211729999997
20
3.0241464999999579
30
0
40
0.42500000000003979
210
0
220
0
230
1
100
AcDbArc
50
180
51
269.99999999999045
0
LINE
5
16F
100
AcDbEntity
8
CUTOUTS
100
AcDbLine
10
-33.982117299999999
20
2.5991464999999891
30
0
11
-46.982117300000041
21
2.5991464999999199
31
0
0
ARC
5
170
100
AcDbEntity
8
CUTOUTS
100
AcDbCircle
10
-33.982117299999928
20
3.0241464999999224
30
0
40
0.42499999999993321
210
0
220
0
230
1
100
AcDbArc
50
-90.000000000009578
51
0
0
LINE
5
171
100
AcDbEntity
8
CUTOUTS
100
AcDbLine
10
-33.557117299999959
20
16.024146499999965
30
0
11
-33.55711730000003
21
3.0241464999999579
31
0
0
ARC
5
172
100
AcDbEntity
8
CUTOUTS
100
AcDbCircle
10
-33.982117299999857
20
16.024146500000001
30
0
40
0.42499999999989768
210
-0
220
0
230
1
100
AcDbArc
50
0
51
90.000000000009578
0
LINE
5
173
100
AcDbEntity
8
CUTOUTS
100
AcDbLine
10
-46.982117300000041
20
16.449146499999969
30
0
11
-33.982117299999928
21
16.449146499999824
31
0
0
ARC
5
174
100
AcDbEntity
8
CUTOUTS
100
AcDbCircle
10
-46.98211729999997
20
16.024146499999965
30
0
40
0.42500000000007532
210
0
220
0
230
1
100
AcDbArc
50
90.000000000009578
51
180
0
LINE
5
175
100
AcDbEntity
8
CUTOUTS
100
AcDbLine
10
-47.40711730000001
20
3.0241464999999934
30
0
11
-47.407117300000081
21
16.024146500000001
31
0
0
LINE
5
176
100
AcDbEntity
8
CUTOUTS
100
AcDbLine
10
-102.61336730000004
20
-3.0258535000000109
30
0
11
-102.61336729999999
21
-16.025853500000018
31
0
0
ARC
5
177
100
AcDbEntity
8
CUTOUTS
100
AcDbCircle
10
-103.03836730000003
20
-16.025853499999982
30
0
40
0.42500000000003979
210
-0
220
0
230
1
100
AcDbArc
50
270.00000000000381
51
360
0
LINE
5
178
100
AcDbEntity
8
CUTOUTS
100
AcDbLine
10
-103.0383673
20
-16.450853500000022
30
0
11
-116.0383673
21
-16.450853500000019
31
0
0
ARC
5
179
100
AcDbEntity
8
CUTOUTS
100
AcDbCircle
10
-116.03836730000005
20
-16.025853500000053
30
0
40
0.42499999999996874
210
0
220
0
230
1
100
AcDbArc
50
180
51
270.00000000000574
0
LINE
5
17A
100
AcDbEntity
8
CUTOUTS
100
AcDbLine
10
-116.46336730000002
20
-16.025853500000018
30
0
11
-116.46336730000002
21
-3.0258535000000109
31
0
0
ARC
5
17B
100
AcDbEntity
8
CUTOUTS
100
AcDbCircle
10
-116.03836730000005
20
-3.0258534999999753
30
0
40
0.42499999999996874
210
0
220
-0
230
1
100
AcDbArc
50
89.999999999994273
51
180
0
LINE
5
17C
100
AcDbEntity
8
CUTOUTS
100
AcDbLine
10
-116.0383673
20
-2.6008535000000066
30
0
11
-103.0383673
21
-2.6008535000000439
31
0
0
ARC
5
17D
100
AcDbEntity
8
CUTOUTS
100
AcDbCircle
10
-103.03836729999998
20
-3.0258534999999753
30
0
40
0.42499999999993321
210
-0
220
0
230
1
100
AcDbArc
50
0
51
90.000000000003837
0
ARC
5
17E
100
AcDbEntity
8
CUTOUTS
100
AcDbCircle
10
-37.457117300000107
20
-16.025853500000018
30
0
40
0.42499999999996874
210
0
220
0
230
1
100
AcDbArc
50
180
51
270.00000000000961
0
LINE
5
17F
100
AcDbEntity
8
CUTOUTS
100
AcDbLine
10
-24.457117299999993
20
-16.450853500000022
30
0
11
-37.457117300000036
21
-16.450853499999983
31
0
0
ARC
5
180
100
AcDbEntity
8
CUTOUTS
100
AcDbCircle
10
-24.457117300000064
20
-16.025853500000053
30
0
40
0.42499999999996874
210
-0
220
0
230
1
100
AcDbArc
50
-89.999999999990436
51
0
0
LINE
5
181
100
AcDbEntity
8
CUTOUTS
100
AcDbLine
10
-24.032117299999953
20
-3.0258535000000109
30
0
11
-24.032117300000024
21
-16.025853500000018
31
0
0
ARC
5
182
100
AcDbEntity
8
CUTOUTS
100
AcDbCircle
10
-24.457117299999922
20
-3.0258535000000109
30
0
40
0.42499999999996874
210
0
220
-0
230
1
100
AcDbArc
50
0
51
90.000000000009578
0
LINE
5
183
100
AcDbEntity
8
CUTOUTS
100
AcDbLine
10
-37.457117300000036
20
-2.6008535000000066
30
0
11
-24.457117299999993
21
-2.6008535000000439
31
0
0
ARC
5
184
100
AcDbEntity
8
CUTOUTS
100
AcDbCircle
10
-37.457117299999965
20
-3.0258535000000109
30
0
40
0.42500000000000426
210
0
220
0
230
1
100
AcDbArc
50
90.000000000009578
51
180
0
LINE
5
185
100
AcDbEntity
8
CUTOUTS
100
AcDbLine
10
-37.882117300000075
20
-16.025853500000018
30
0
11
-37.882117300000004
21
-3.0258535000000109
31
0
0
LINE
5
186
100
AcDbEntity
8
CUTOUTS
100
AcDbLine
10
52.16788269999995
20
-3.0258535000000109
30
0
11
52.167882700000092
21
-16.025853500000018
31
0
0
ARC
5
187
100
AcDbEntity
8
CUTOUTS
100
AcDbCircle
10
51.742882700000052
20
-16.025853500000018
30
0
40
0.42500000000003979
210
0
220
0
230
1
100
AcDbArc
50
-90.000000000009578
51
0
0
LINE
5
188
100
AcDbEntity
8
CUTOUTS
100
AcDbLine
10
51.742882699999981
20
-16.450853500000058
30
0
11
38.742882699999939
21
-16.450853500000054
31
0
0
ARC
5
189
100
AcDbEntity
8
CUTOUTS
100
AcDbCircle
10
38.74288270000001
20
-16.025853500000018
30
0
40
0.42500000000003979
210
0
220
0
230
1
100
AcDbArc
50
180
51
269.99999999999045
0
LINE
5
18A
100
AcDbEntity
8
CUTOUTS
100
AcDbLine
10
38.31788269999997
20
-16.025853500000018
30
0
11
38.31788269999997
21
-3.0258535000000109
31
0
0
ARC
5
18B
100
AcDbEntity
8
CUTOUTS
100
AcDbCircle
10
38.742882699999868
20
-3.0258535000000109
30
0
40
0.42500000000003979
210
0
220
-0
230
1
100
AcDbArc
50
89.999999999990408
51
180
0
LINE
5
18C
100
AcDbEntity
8
CUTOUTS
100
AcDbLine
10
38.742882699999939
20
-2.6008534999999711
30
0
11
51.742882699999981
21
-2.6008534999999728
31
0
0
ARC
5
18D
100
AcDbEntity
8
CUTOUTS
100
AcDbCircle
10
51.74288269999991
20
-3.0258534999999753
30
0
40
0.42500000000003979
210
-0
220
0
230
1
100
AcDbArc
50
0
51
89.999999999990408
0
ARC
5
18E
100
AcDbEntity
8
CUTOUTS
100
AcDbCircle
10
98.27413270000001
20
-35.075853500000029
30
0
40
0.42500000000003979
210
0
220
0
230
1
100
AcDbArc
50
180
51
269.99999999999045
0
LINE
5
18F
100
AcDbEntity
8
CUTOUTS
100
AcDbLine
10
111.27413269999998
20
-35.500853500000034
30
0
11
98.274132699999939
21
-35.500853500000069
31
0
0
ARC
5
190
100
AcDbEntity
8
CUTOUTS
100
AcDbCircle
10
111.27413270000005
20
-35.075853500000029
30
0
40
0.42500000000000426
210
0
220
0
230
1
100
AcDbArc
50
-90.000000000009578
51
0
0
LINE
5
191
100
AcDbEntity
8
CUTOUTS
100
AcDbLine
10
111.69913270000002
20
-22.075853500000022
30
0
11
111.69913270000009
21
-35.075853500000029
31
0
0
ARC
5
192
100
AcDbEntity
8
CUTOUTS
100
AcDbCircle
10
111.27413270000005
20
-22.075853500000022
30
0
40
0.42499999999996874
210
0
220
-0
230
1
100
AcDbArc
50
0
51
90.000000000009578
0
LINE
5
193
100
AcDbEntity
8
CUTOUTS
100
AcDbLine
10
98.274132699999939
20
-21.650853500000018
30
0
11
111.27413269999998
21
-21.650853500000053
31
0
0
ARC
5
194
100
AcDbEntity
8
CUTOUTS
100
AcDbCircle
10
98.27413270000001
20
-22.075853499999987
30
0
40
0.42499999999996874
210
0
220
0
230
1
100
AcDbArc
50
90.000000000009578
51
180
0
LINE
5
195
100
AcDbEntity
8
CUTOUTS
100
AcDbLine
10
97.84913269999997
20
-35.075853500000029
30
0
11
97.849132700000041
21
-22.075853500000022
31
0
0
ARC
5
196
100
AcDbEntity
8
CUTOUTS
100
AcDbCircle
10
14.930382700000067
20
-35.075853500000065
30
0
40
0.42500000000003979
210
0
220
0
230
1
100
AcDbArc
50
180
51
269.99999999999045
0
LINE
5
197
100
AcDbEntity
8
CUTOUTS
100
AcDbLine
10
27.930382699999967
20
-35.500853499999998
30
0
11
14.930382699999996
21
-35.500853499999998
31
0
0
ARC
5
198
100
AcDbEntity
8
CUTOUTS
100
AcDbCircle
10
27.930382699999896
20
-35.075853500000065
30
0
40
0.42499999999993321
210
-0
220
0
230
1
100
AcDbArc
50
-89.999999999990436
51
0
0
LINE
5
199
100
AcDbEntity
8
CUTOUTS
100
AcDbLine
10
28.355382699999936
20
-22.075853500000022
30
0
11
28.355382699999865
21
-35.075853500000029
31
0
0
ARC
5
19A
100
AcDbEntity
8
CUTOUTS
100
AcDbCircle
10
27.930382699999896
20
-22.075853500000022
30
0
40
0.42500000000003979
210
0
220
-0
230
1
100
AcDbArc
50
0
51
89.999999999990408
0
LINE
5
19B
100
AcDbEntity
8
CUTOUTS
100
AcDbLine
10
14.930382699999996
20
-21.650853500000053
30
0
11
27.930382699999967
21
-21.650853500000053
31
0
0
ARC
5
19C
100
AcDbEntity
8
CUTOUTS
100
AcDbCircle
10
14.930382700000067
20
-22.075853500000022
30
0
40
0.42499999999996874
210
0
220
0
230
1
100
AcDbArc
50
90.000000000009578
51
180
0
LINE
5
19D
100
AcDbEntity
8
CUTOUTS
100
AcDbLine
10
14.505382700000027
20
-35.075853500000029
30
0
11
14.505382699999958
21
-22.075853500000022
31
0
0
ARC
5
19E
100
AcDbEntity
8
CUTOUTS
100
AcDbCircle
10
-48.269617299999936
20
-35.075853500000136
30
0
40
0.42499999999989768
210
0
220
0
230
1
100
AcDbArc
50
-90.000000000009578
51
0
0
LINE
5
19F
100
AcDbEntity
8
CUTOUTS
100
AcDbLine
10
-47.844617299999967
20
-22.075853500000022
30
0
11
-47.844617300000039
21
-35.075853500000065
31
0
0
ARC
5
1A0
100
AcDbEntity
8
CUTOUTS
100
AcDbCircle
10
-48.269617299999936
20
-22.075853500000022
30
0
40
0.42499999999996874
210
0
220
-0
230
1
100
AcDbArc
50
0
51
90.000000000009578
0
LINE
5
1A1
100
AcDbEntity
8
CUTOUTS
100
AcDbLine
10
-61.26961730000005
20
-21.650853500000018
30
0
11
-48.269617300000007
21
-21.650853500000053
31
0
0
ARC
5
1A2
100
AcDbEntity
8
CUTOUTS
100
AcDbCircle
10
-61.269617299999979
20
-22.075853500000022
30
0
40
0.42500000000000426
210
0
220
0
230
1
100
AcDbArc
50
90.000000000009578
51
180
0
LINE
5
1A3
100
AcDbEntity
8
CUTOUTS
100
AcDbLine
10
-61.694617300000019
20
-35.075853500000029
30
0
11
-61.694617299999948
21
-22.075853500000022
31
0
0
ARC
5
1A4
100
AcDbEntity
8
CUTOUTS
100
AcDbCircle
10
-61.269617299999979
20
-35.075853500000065
30
0
40
0.42500000000003979
210
0
220
0
230
1
100
AcDbArc
50
180
51
269.99999999999045
0
LINE
5
1A5
100
AcDbEntity
8
CUTOUTS
100
AcDbLine
10
-48.269617300000007
20
-35.500853500000034
30
0
11
-61.26961730000005
21
-35.500853500000105
31
0
0
LINE
5
1A6
100
AcDbEntity
8
CUTOUTS
100
AcDbLine
10
-104.99461730000004
20
-22.075853500000022
30
0
11
-104.99461730000004
21
-35.075853500000029
31
0
0
ARC
5
1A7
100
AcDbEntity
8
CUTOUTS
100
AcDbCircle
10
-105.41961730000008
20
-35.075853499999994
30
0
40
0.42500000000003979
210
-0
220
0
230
1
100
AcDbArc
50
270.00000000000574
51
360
0
LINE
5
1A8
100
AcDbEntity
8
CUTOUTS
100
AcDbLine
10
-105.41961730000004
20
-35.500853500000034
30
0
11
-118.41961730000006
21
-35.500853500000034
31
0
0
ARC
5
1A9
100
AcDbEntity
8
CUTOUTS
100
AcDbCircle
10
-118.41961730000008
20
-35.0758535000001
30
0
40
0.42499999999993321
210
0
220
0
230
1
100
AcDbArc
50
180
51
270.00000000000381
0
LINE
5
1AA
100
AcDbEntity
8
CUTOUTS
100
AcDbLine
10
-118.84461730000001
20
-35.075853500000029
30
0
11
-118.84461730000001
21
-22.075853500000022
31
0
0
ARC
5
1AB
100
AcDbEntity
8
CUTOUTS
100
AcDbCircle
10
-118.41961730000006
20
-22.075853499999987
30
0
40
0.42499999999996874
210
0
220
-0
230
1
100
AcDbArc
50
89.999999999994273
51
180
0
LINE
5
1AC
100
AcDbEntity
8
CUTOUTS
100
AcDbLine
10
-118.41961730000001
20
-21.650853500000018
30
0
11
-105.41961730000004
21
-21.650853500000018
31
0
0
ARC
5
1AD
100
AcDbEntity
8
CUTOUTS
100
AcDbCircle
10
-105.4196173
20
-22.075853499999987
30
0
40
0.42499999999996874
210
-0
220
0
230
1
100
AcDbArc
50
0
51
90.000000000005755
0
LINE
5
1AE
100
AcDbEntity
8
CUTOUTS
100
AcDbLine
10
-28.794617300000098
20
-22.075853500000022
30
0
11
-28.794617300000169
21
-35.075853500000029
31
0
0
ARC
5
1AF
100
AcDbEntity
8
CUTOUTS
100
AcDbCircle
10
-29.219617300000138
20
-35.075853500000065
30
0
40
0.42499999999996874
210
-0
220
0
230
1
100
AcDbArc
50
-89.999999999990436
51
0
0
LINE
5
1B0
100
AcDbEntity
8
CUTOUTS
100
AcDbLine
10
-29.219617300000067
20
-35.500853500000034
30
0
11
-42.219617300000039
21
-35.500853500000105
31
0
0
ARC
5
1B1
100
AcDbEntity
8
CUTOUTS
100
AcDbCircle
10
-42.219617299999967
20
-35.075853500000065
30
0
40
0.42500000000003979
210
0
220
0
230
1
100
AcDbArc
50
180
51
269.99999999999045
0
LINE
5
1B2
100
AcDbEntity
8
CUTOUTS
100
AcDbLine
10
-42.644617300000007
20
-35.075853500000029
30
0
11
-42.644617300000007
21
-22.075853500000022
31
0
0
ARC
5
1B3
100
AcDbEntity
8
CUTOUTS
100
AcDbCircle
10
-42.219617300000039
20
-22.075853500000022
30
0
40
0.42499999999996874
210
0
220
-0
230
1
100
AcDbArc
50
90
51
180
0
LINE
5
1B4
100
AcDbEntity
8
CUTOUTS
100
AcDbLine
10
-42.219617300000039
20
-21.650853500000053
30
0
11
-29.219617300000067
21
-21.650853499999982
31
0
0
ARC
5
1B5
100
AcDbEntity
8
CUTOUTS
100
AcDbCircle
10
-29.219617300000138
20
-22.075853500000022
30
0
40
0.42500000000003979
210
0
220
-0
230
1
100
AcDbArc
50
0
51
89.999999999990408
0
ARC
5
1B6
100
AcDbEntity
8
CUTOUTS
100
AcDbCircle
10
46.980382699999907
20
-35.075853500000029
30
0
40
0.42500000000000426
210
-0
220
0
230
1
100
AcDbArc
50
-89.999999999990436
51
0
0
LINE
5
1B7
100
AcDbEntity
8
CUTOUTS
100
AcDbLine
10
47.405382699999947
20
-22.075853500000022
30
0
11
47.405382699999876
21
-35.075853500000029
31
0
0
ARC
5
1B8
100
AcDbEntity
8
CUTOUTS
100
AcDbCircle
10
46.980382699999907
20
-22.075853499999987
30
0
40
0.42500000000003979
210
-0
220
0
230
1
100
AcDbArc
50
0
51
89.999999999990408
0
LINE
5
1B9
100
AcDbEntity
8
CUTOUTS
100
AcDbLine
10
33.980382700000007
20
-21.650853500000018
30
0
11
46.980382699999979
21
-21.650853499999947
31
0
0
ARC
5
1BA
100
AcDbEntity
8
CUTOUTS
100
AcDbCircle
10
33.980382700000078
20
-22.075853499999987
30
0
40
0.42499999999996874
210
0
220
0
230
1
100
AcDbArc
50
90.000000000009578
51
180
0
LINE
5
1BB
100
AcDbEntity
8
CUTOUTS
100
AcDbLine
10
33.555382700000038
20
-35.075853499999994
30
0
11
33.555382700000109
21
-22.075853500000022
31
0
0
ARC
5
1BC
100
AcDbEntity
8
CUTOUTS
100
AcDbCircle
10
33.980382700000078
20
-35.075853500000029
30
0
40
0.42500000000003979
210
0
220
0
230
1
100
AcDbArc
50
180
51
269.99999999999045
0
LINE
5
1BD
100
AcDbEntity
8
CUTOUTS
100
AcDbLine
10
46.980382699999979
20
-35.500853500000034
30
0
11
33.980382700000007
21
-35.500853500000069
31
0
0
LINE
5
1BE
100
AcDbEntity
8
CUTOUTS
100
AcDbLine
10
113.65538270000002
20
-16.450853500000058
30
0
11
100.65538269999998
21
-16.450853500000054
31
0
0
ARC
5
1BF
100
AcDbEntity
8
CUTOUTS
100
AcDbCircle
10
100.6553826999999
20
-16.025853500000018
30
0
40
0.42499999999996874
210
0
220
0
230
1
100
AcDbArc
50
180
51
270.00000000000961
0
LINE
5
1C0
100
AcDbEntity
8
CUTOUTS
100
AcDbLine
10
100.23038269999994
20
-16.025853500000018
30
0
11
100.23038269999994
21
-3.0258535000000109
31
0
0
ARC
5
1C1
100
AcDbEntity
8
CUTOUTS
100
AcDbCircle
10
100.65538270000005
20
-3.0258534999999753
30
0
40
0.42500000000000426
210
0
220
0
230
1
100
AcDbArc
50
90.000000000009578
51
180
0
LINE
5
1C2
100
AcDbEntity
8
CUTOUTS
100
AcDbLine
10
100.65538269999998
20
-2.6008534999999711
30
0
11
113.65538270000002
21
-2.6008534999999728
31
0
0
ARC
5
1C3
100
AcDbEntity
8
CUTOUTS
100
AcDbCircle
10
113.65538270000009
20
-3.0258535000000109
30
0
40
0.42499999999996874
210
0
220
-0
230
1
100
AcDbArc
50
0
51
90.000000000009578
0
LINE
5
1C4
100
AcDbEntity
8
CUTOUTS
100
AcDbLine
10
114.08038270000006
20
-3.0258535000000109
30
0
11
114.08038270000006
21
-16.025853500000018
31
0
0
ARC
5
1C5
100
AcDbEntity
8
CUTOUTS
100
AcDbCircle
10
113.65538269999995
20
-16.025853500000018
30
0
40
0.42500000000003979
210
-0
220
0
230
1
100
AcDbArc
50
-89.999999999990436
51
0
0
ARC
5
1C6
100
AcDbEntity
8
CUTOUTS
100
AcDbCircle
10
32.692882699999899
20
-3.0258535000000109
30
0
40
0.42500000000003979
210
0
220
-0
230
1
100
AcDbArc
50
0
51
89.999999999990408
0
LINE
5
1C7
100
AcDbEntity
8
CUTOUTS
100
AcDbLine
10
19.692882699999927
20
-2.6008534999999711
30
0
11
32.69288269999997
21
-2.6008534999999728
31
0
0
ARC
5
1C8
100
AcDbEntity
8
CUTOUTS
100
AcDbCircle
10
19.692882699999856
20
-3.0258535000000109
30
0
40
0.42500000000003979
210
0
220
-0
230
1
100
AcDbArc
50
89.999999999990408
51
180
0
LINE
5
1C9
100
AcDbEntity
8
CUTOUTS
100
AcDbLine
10
19.267882699999959
20
-16.025853500000018
30
0
11
19.26788269999982
21
-3.0258535000000109
31
0
0
ARC
5
1CA
100
AcDbEntity
8
CUTOUTS
100
AcDbCircle
10
19.692882699999998
20
-16.025853500000053
30
0
40
0.42500000000003979
210
0
220
0
230
1
100
AcDbArc
50
180
51
269.99999999999045
0
LINE
5
1CB
100
AcDbEntity
8
CUTOUTS
100
AcDbLine
10
32.69288269999997
20
-16.450853500000058
30
0
11
19.692882699999927
21
-16.450853500000054
31
0
0
ARC
5
1CC
100
AcDbEntity
8
CUTOUTS
100
AcDbCircle
10
32.692882700000041
20
-16.025853500000018
30
0
40
0.42500000000003979
210
0
220
0
230
1
100
AcDbArc
50
-90.000000000009578
51
0
0
LINE
5
1CD
100
AcDbEntity
8
CUTOUTS
100
AcDbLine
10
33.117882699999939
20
-3.0258535000000109
30
0
11
33.11788270000001
21
-16.025853500000018
31
0
0
LINE
5
1CE
100
AcDbEntity
8
CUTOUTS
100
AcDbLine
10
-56.507117300000047
20
-2.6008535000000421
30
0
11
-43.507117300000004
21
-2.6008535000000439
31
0
0
ARC
5
1CF
100
AcDbEntity
8
CUTOUTS
100
AcDbCircle
10
-43.507117299999933
20
-3.0258535000000109
30
0
40
0.42499999999996874
210
0
220
-0
230
1
100
AcDbArc
50
0
51
90.000000000009578
0
LINE
5
1D0
100
AcDbEntity
8
CUTOUTS
100
AcDbLine
10
-43.082117299999965
20
-3.0258535000000109
30
0
11
-43.082117300000036
21
-16.025853500000018
31
0
0
ARC
5
1D1
100
AcDbEntity
8
CUTOUTS
100
AcDbCircle
10
-43.507117300000075
20
-16.025853500000053
30
0
40
0.42499999999993321
210
-0
220
0
230
1
100
AcDbArc
50
-89.999999999990436
51
0
0
LINE
5
1D2
100
AcDbEntity
8
CUTOUTS
100
AcDbLine
10
-43.507117300000004
20
-16.450853499999987
30
0
11
-56.507117300000047
21
-16.450853499999948
31
0
0
ARC
5
1D3
100
AcDbEntity
8
CUTOUTS
100
AcDbCircle
10
-56.507117300000118
20
-16.025853500000018
30
0
40
0.42499999999996874
210
0
220
0
230
1
100
AcDbArc
50
180
51
270.00000000000961
0
LINE
5
1D4
100
AcDbEntity
8
CUTOUTS
100
AcDbLine
10
-56.932117300000087
20
-16.025853500000018
30
0
11
-56.932117300000016
21
-3.0258535000000109
31
0
0
ARC
5
1D5
100
AcDbEntity
8
CUTOUTS
100
AcDbCircle
10
-56.507117299999976
20
-3.0258535000000109
30
0
40
0.42499999999996874
210
0
220
0
230
1
100
AcDbArc
50
90.000000000009578
51
180
0
ARC
5
1D6
100
AcDbEntity
8
CUTOUTS
100
AcDbCircle
10
-111.27586729999997
20
16.024146499999894
30
0
40
0.42500000000007532
210
0
220
0
230
1
100
AcDbArc
50
90.000000000009578
51
180
0
LINE
5
1D7
100
AcDbEntity
8
CUTOUTS
100
AcDbLine
10
-111.70086730000006
20
3.0241464999999934
30
0
11
-111.70086730000006
21
16.024146499999965
31
0
0
ARC
5
1D8
100
AcDbEntity
8
CUTOUTS
100
AcDbCircle
10
-111.27586730000012
20
3.0241464999999224
30
0
40
0.42499999999993321
210
0
220
0
230
1
100
AcDbArc
50
180
51
270.00000000000574
0
LINE
5
1D9
100
AcDbEntity
8
CUTOUTS
100
AcDbLine
10
-98.275867300000044
20
2.5991464999999891
30
0
11
-111.27586730000007
21
2.5991464999999909
31
0
0
ARC
5
1DA
100
AcDbEntity
8
CUTOUTS
100
AcDbCircle
10
-98.275867300000073
20
3.0241465000000289
30
0
40
0.42500000000003979
210
-0
220
0
230
1
100
AcDbArc
50
270.00000000000381
51
360
0
LINE
5
1DB
100
AcDbEntity
8
CUTOUTS
100
AcDbLine
10
-97.850867300000033
20
16.024146499999965
30
0
11
-97.850867300000033
21
3.0241464999999579
31
0
0
ARC
5
1DC
100
AcDbEntity
8
CUTOUTS
100
AcDbCircle
10
-98.275867300000044
20
16.024146499999965
30
0
40
0.42500000000000426
210
0
220
-0
230
1
100
AcDbArc
50
0
51
90
0
LINE
5
1DD
100
AcDbEntity
8
CUTOUTS
100
AcDbLine
10
-111.27586730000004
20
16.449146499999969
30
0
11
-98.275867300000044
21
16.449146499999966
31
0
0
ARC
5
1DE
100
AcDbEntity
8
CUTOUTS
100
AcDbCircle
10
-27.932117299999959
20
16.024146499999965
30
0
40
0.42500000000000426
210
0
220
0
230
1
100
AcDbArc
50
90.000000000009578
51
180
0
LINE
5
1DF
100
AcDbEntity
8
CUTOUTS
100
AcDbLine
10
-28.357117299999999
20
3.0241464999999934
30
0
11
-28.357117299999999
21
16.024146500000001
31
0
0
ARC
5
1E0
100
AcDbEntity
8
CUTOUTS
100
AcDbCircle
10
-27.932117299999959
20
3.0241464999999579
30
0
40
0.42500000000003979
210
0
220
0
230
1
100
AcDbArc
50
180
51
269.99999999999045
0
LINE
5
1E1
100
AcDbEntity
8
CUTOUTS
100
AcDbLine
10
-14.932117299999987
20
2.5991464999999891
30
0
11
-27.93211730000003
21
2.5991464999999199
31
0
0
ARC
5
1E2
100
AcDbEntity
8
CUTOUTS
100
AcDbCircle
10
-14.932117299999916
20
3.0241464999999934
30
0
40
0.42500000000000426
210
0
220
0
230
1
100
AcDbArc
50
-90.000000000009578
51
0
0
LINE
5
1E3
100
AcDbEntity
8
CUTOUTS
100
AcDbLine
10
-14.507117299999948
20
16.024146499999965
30
0
11
-14.50711730000002
21
3.0241464999999934
31
0
0
ARC
5
1E4
100
AcDbEntity
8
CUTOUTS
100
AcDbCircle
10
-14.932117299999845
20
16.024146500000001
30
0
40
0.42499999999989768
210
-0
220
0
230
1
100
AcDbArc
50
0
51
90.00000000001917
0
LINE
5
1E5
100
AcDbEntity
8
CUTOUTS
100
AcDbLine
10
-27.93211730000003
20
16.449146499999898
30
0
11
-14.932117299999987
21
16.449146499999966
31
0
0
ARC
5
1E6
100
AcDbEntity
8
CUTOUTS
100
AcDbCircle
10
48.267882699999944
20
16.024146499999965
30
0
40
0.42500000000003979
210
0
220
-0
230
1
100
AcDbArc
50
90
51
180
0
LINE
5
1E7
100
AcDbEntity
8
CUTOUTS
100
AcDbLine
10
47.842882699999905
20
3.0241464999999934
30
0
11
47.842882699999905
21
16.024146499999965
31
0
0
ARC
5
1E8
100
AcDbEntity
8
CUTOUTS
100
AcDbCircle
10
48.267882699999873
20
3.0241464999999934
30
0
40
0.42499999999996874
210
0
220
0
230
1
100
AcDbArc
50
180
51
270.00000000000961
0
LINE
5
1E9
100
AcDbEntity
8
CUTOUTS
100
AcDbLine
10
61.267882699999987
20
2.5991464999999891
30
0
11
48.267882699999944
21
2.5991465000000264
31
0
0
ARC
5
1EA
100
AcDbEntity
8
CUTOUTS
100
AcDbCircle
10
61.267882699999916
20
3.0241464999999934
30
0
40
0.42500000000000426
210
-0
220
0
230
1
100
AcDbArc
50
-89.999999999990436
51
0
0
LINE
5
1EB
100
AcDbEntity
8
CUTOUTS
100
AcDbLine
10
61.692882700000027
20
16.024146499999965
30
0
11
61.692882699999885
21
3.0241464999999934
31
0
0
ARC
5
1EC
100
AcDbEntity
8
CUTOUTS
100
AcDbCircle
10
61.267882699999845
20
16.024146499999894
30
0
40
0.4250000000001819
210
0
220
-0
230
1
100
AcDbArc
50
0
51
89.999999999980844
0
LINE
5
1ED
100
AcDbEntity
8
CUTOUTS
100
AcDbLine
10
48.267882699999944
20
16.449146499999969
30
0
11
61.267882699999987
21
16.449146500000037
31
0
0
LINE
5
1EE
100
AcDbEntity
8
CUTOUTS
100
AcDbLine
10
23.167882699999964
20
21.649146499999858
30
0
11
10.167882699999993
21
21.649146499999929
31
0
0
ARC
5
1EF
100
AcDbEntity
8
CUTOUTS
100
AcDbCircle
10
10.167882700000135
20
22.07414650000004
30
0
40
0.4250000000001819
210
0
220
0
230
1
100
AcDbArc
50
180
51
269.9999999999809
0
LINE
5
1F0
100
AcDbEntity
8
CUTOUTS
100
AcDbLine
10
9.7428826999999529
20
22.074146499999969
30
0
11
9.7428826999998837
21
35.074146499999941
31
0
0
ARC
5
1F1
100
AcDbEntity
8
CUTOUTS
100
AcDbCircle
10
10.167882700000135
20
35.07414649999987
30
0
40
0.4250000000001819
210
0
220
0
230
1
100
AcDbArc
50
90.00000000001917
51
180
0
LINE
5
1F2
100
AcDbEntity
8
CUTOUTS
100
AcDbLine
10
10.167882699999993
20
35.499146500000052
30
0
11
23.167882699999964
21
35.499146500000052
31
0
0
ARC
5
1F3
100
AcDbEntity
8
CUTOUTS
100
AcDbCircle
10
23.167882699999822
20
35.07414649999987
30
0
40
0.4250000000001819
210
0
220
-0
230
1
100
AcDbArc
50
0
51
89.999999999980844
0
LINE
5
1F4
100
AcDbEntity
8
CUTOUTS
100
AcDbLine
10
23.592882700000004
20
35.074146499999941
30
0
11
23.592882700000075
21
22.074146499999969
31
0
0
ARC
5
1F5
100
AcDbEntity
8
CUTOUTS
100
AcDbCircle
10
23.167882699999822
20
22.07414650000004
30
0
40
0.4250000000001819
210
-0
220
0
230
1
100
AcDbArc
50
270.00000000001916
51
360
0
LINE
5
1F6
100
AcDbEntity
8
CUTOUTS
100
AcDbLine
10
-38.751367300000013
20
35.499146500000052
30
0
11
-32.751367299999998
21
35.499146500000052
31
0
0
ARC
5
1F7
100
AcDbEntity
8
CUTOUTS
100
AcDbCircle
10
-32.751367299999998
20
35.074146499999941
30
0
40
0.42500000000011084
210
0
220
-0
230
1
100
AcDbArc
50
0
51
90
0
LINE
5
1F8
100
AcDbEntity
8
CUTOUTS
100
AcDbLine
10
-32.326367299999887
20
35.074146499999941
30
0
11
-32.326367299999959
21
21.074146500000026
31
0
0
ARC
5
1F9
100
AcDbEntity
8
CUTOUTS
100
AcDbCircle
10
-32.751367299999785
20
21.074146499999813
30
0
40
0.42499999999982663
210
0
220
0
230
1
100
AcDbArc
50
-90.000000000028749
51
0
0
LINE
5
1FA
100
AcDbEntity
8
CUTOUTS
100
AcDbLine
10
-32.751367299999998
20
20.649146499999986
30
0
11
-38.751367300000013
21
20.649146499999915
31
0
0
ARC
5
1FB
100
AcDbEntity
8
CUTOUTS
100
AcDbCircle
10
-38.75136729999987
20
21.074146500000097
30
0
40
0.4250000000001819
210
0
220
0
230
1
100
AcDbArc
50
180
51
269.9999999999809
0
LINE
5
1FC
100
AcDbEntity
8
CUTOUTS
100
AcDbLine
10
-39.176367300000052
20
21.074146500000026
30
0
11
-39.176367300000123
21
35.074146499999941
31
0
0
ARC
5
1FD
100
AcDbEntity
8
CUTOUTS
100
AcDbCircle
10
-38.75136729999987
20
35.07414649999987
30
0
40
0.4250000000001819
210
0
220
0
230
1
100
AcDbArc
50
90.00000000001917
51
180
0
ARC
5
1FE
100
AcDbEntity
8
CUTOUTS
100
AcDbCircle
10
-14.875367300000022
20
21.074146500000026
30
0
40
0.42500000000011084
210
0
220
0
230
1
100
AcDbArc
50
180
51
270
0
LINE
5
1FF
100
AcDbEntity
8
CUTOUTS
100
AcDbLine
10
-8.8753673000000077
20
20.649146499999915
30
0
11
-14.875367300000022
21
20.649146499999915
31
0
0
ARC
5
200
100
AcDbEntity
8
CUTOUTS
100
AcDbCircle
10
-8.8753673000001498
20
21.074146500000097
30
0
40
0.4250000000001819
210
-0
220
0
230
1
100
AcDbArc
50
270.00000000001916
51
360
0
LINE
5
201
100
AcDbEntity
8
CUTOUTS
100
AcDbLine
10
-8.4503672999999679
20
35.074146499999941
30
0
11
-8.4503672999999697
21
21.074146500000026
31
0
0
ARC
5
202
100
AcDbEntity
8
CUTOUTS
100
AcDbCircle
10
-8.8753673000001498
20
35.07414649999987
30
0
40
0.4250000000001819
210
0
220
-0
230
1
100
AcDbArc
50
0
51
89.999999999980844
0
LINE
5
203
100
AcDbEntity
8
CUTOUTS
100
AcDbLine
10
-14.875367300000022
20
35.499146500000052
30
0
11
-8.8753673000000077
21
35.499146500000052
31
0
0
ARC
5
204
100
AcDbEntity
8
CUTOUTS
100
AcDbCircle
10
-14.875367300000022
20
35.074146499999941
30
0
40
0.42500000000011084
210
0
220
-0
230
1
100
AcDbArc
50
90
51
180
0
LINE
5
205
100
AcDbEntity
8
CUTOUTS
100
AcDbLine
10
-15.300367300000133
20
21.074146500000026
30
0
11
-15.30036730000006
21
35.074146499999941
31
0
0
LINE
5
206
100
AcDbEntity
8
CUTOUTS
100
AcDbLine
10
86.367882699999967
20
16.449146499999898
30
0
11
99.367882699999939
21
16.449146499999966
31
0
0
ARC
5
207
100
AcDbEntity
8
CUTOUTS
100
AcDbCircle
10
99.367882699999939
20
16.024146499999965
30
0
40
0.42500000000003979
210
0
220
-0
230
1
100
AcDbArc
50
0
51
90
0
LINE
5
208
100
AcDbEntity
8
CUTOUTS
100
AcDbLine
10
99.792882699999979
20
16.024146499999965
30
0
11
99.792882699999979
21
3.0241464999999579
31
0
0
ARC
5
209
100
AcDbEntity
8
CUTOUTS
100
AcDbCircle
10
99.367882699999939
20
3.0241464999999934
30
0
40
0.42499999999996874
210
-0
220
0
230
1
100
AcDbArc
50
270.00000000000961
51
360
0
LINE
5
20A
100
AcDbEntity
8
CUTOUTS
100
AcDbLine
10
99.36788270000001
20
2.5991465000000247
30
0
11
86.367882699999967
21
2.599146500000062
31
0
0
ARC
5
20B
100
AcDbEntity
8
CUTOUTS
100
AcDbCircle
10
86.367882699999896
20
3.0241464999999934
30
0
40
0.42499999999996874
210
0
220
0
230
1
100
AcDbArc
50
180
51
270.00000000000961
0
LINE
5
20C
100
AcDbEntity
8
CUTOUTS
100
AcDbLine
10
85.942882699999927
20
3.0241464999999934
30
0
11
85.942882699999998
21
16.024146500000001
31
0
0
ARC
5
20D
100
AcDbEntity
8
CUTOUTS
100
AcDbCircle
10
86.367882699999967
20
16.024146500000001
30
0
40
0.42499999999993321
210
0
220
-0
230
1
100
AcDbArc
50
90
51
180
0
LINE
5
20E
100
AcDbEntity
8
CUTOUTS
100
AcDbLine
10
23.167882699999964
20
2.5991464999999891
30
0
11
10.167882699999993
21
2.5991464999999909
31
0
0
ARC
5
20F
100
AcDbEntity
8
CUTOUTS
100
AcDbCircle
10
10.167882700000064
20
3.0241464999999579
30
0
40
0.42500000000003979
210
0
220
0
230
1
100
AcDbArc
50
180
51
269.99999999999045
0
LINE
5
210
100
AcDbEntity
8
CUTOUTS
100
AcDbLine
10
9.742882700000024
20
3.0241464999999934
30
0
11
9.7428826999999547
21
16.024146500000001
31
0
0
ARC
5
211
100
AcDbEntity
8
CUTOUTS
100
AcDbCircle
10
10.167882699999993
20
16.024146500000001
30
0
40
0.42499999999996874
210
0
220
0
230
1
100
AcDbArc
50
90.000000000009578
51
180
0
LINE
5
212
100
AcDbEntity
8
CUTOUTS
100
AcDbLine
10
10.167882699999922
20
16.449146499999898
30
0
11
23.167882699999964
21
16.449146499999966
31
0
0
ARC
5
213
100
AcDbEntity
8
CUTOUTS
100
AcDbCircle
10
23.167882699999893
20
16.024146500000001
30
0
40
0.42500000000003979
210
-0
220
0
230
1
100
AcDbArc
50
0
51
89.999999999990408
0
LINE
5
214
100
AcDbEntity
8
CUTOUTS
100
AcDbLine
10
23.592882699999933
20
16.024146499999965
30
0
11
23.592882700000004
21
3.0241464999999934
31
0
0
ARC
5
215
100
AcDbEntity
8
CUTOUTS
100
AcDbCircle
10
23.167882699999893
20
3.0241464999999579
30
0
40
0.42499999999996874
210
-0
220
0
230
1
100
AcDbArc
50
-89.999999999990436
51
0
0
ARC
5
216
100
AcDbEntity
8
CUTOUTS
100
AcDbCircle
10
-53.032117299999868
20
16.024146500000001
30
0
40
0.42499999999989768
210
-0
220
0
230
1
100
AcDbArc
50
0
51
90.000000000009578
0
LINE
5
217
100
AcDbEntity
8
CUTOUTS
100
AcDbLine
10
-66.032117299999982
20
16.449146499999898
30
0
11
-53.032117299999939
21
16.449146499999824
31
0
0
ARC
5
218
100
AcDbEntity
8
CUTOUTS
100
AcDbCircle
10
-66.032117300000053
20
16.024146500000072
30
0
40
0.42499999999989768
210
0
220
-0
230
1
100
AcDbArc
50
89.999999999990408
51
180
0
LINE
5
219
100
AcDbEntity
8
CUTOUTS
100
AcDbLine
10
-66.457117300000021
20
3.0241464999999934
30
0
11
-66.45711729999995
21
16.024146500000001
31
0
0
ARC
5
21A
100
AcDbEntity
8
CUTOUTS
100
AcDbCircle
10
-66.032117300000053
20
3.0241464999999934
30
0
40
0.42499999999996874
210
0
220
0
230
1
100
AcDbArc
50
180
51
270.00000000000961
0
LINE
5
21B
100
AcDbEntity
8
CUTOUTS
100
AcDbLine
10
-53.03211730000001
20
2.5991464999999891
30
0
11
-66.032117299999982
21
2.5991465000000264
31
0
0
ARC
5
21C
100
AcDbEntity
8
CUTOUTS
100
AcDbCircle
10
-53.032117299999939
20
3.0241464999999224
30
0
40
0.42499999999993321
210
0
220
0
230
1
100
AcDbArc
50
-90.000000000009578
51
0
0
LINE
5
21D
100
AcDbEntity
8
CUTOUTS
100
AcDbLine
10
-52.60711729999997
20
16.024146499999965
30
0
11
-52.607117300000041
21
3.0241464999999579
31
0
0
ARC
5
21E
100
AcDbEntity
8
CUTOUTS
100
AcDbCircle
10
-81.607117299999999
20
-3.0258534999999753
30
0
40
0.42499999999996874
210
-0
220
0
230
1
100
AcDbArc
50
0
51
90.000000000003837
0
LINE
5
21F
100
AcDbEntity
8
CUTOUTS
100
AcDbLine
10
-94.607117300000027
20
-2.6008535000000066
30
0
11
-81.607117300000027
21
-2.6008535000000084
31
0
0
ARC
5
220
100
AcDbEntity
8
CUTOUTS
100
AcDbCircle
10
-94.607117299999928
20
-3.0258535000001174
30
0
40
0.42500000000011084
210
0
220
0
230
1
100
AcDbArc
50
90.000000000013415
51
180
0
LINE
5
221
100
AcDbEntity
8
CUTOUTS
100
AcDbLine
10
-95.032117300000039
20
-16.025853500000018
30
0
11
-95.032117300000039
21
-3.0258535000000109
31
0
0
ARC
5
222
100
AcDbEntity
8
CUTOUTS
100
AcDbCircle
10
-94.60711730000007
20
-16.025853500000053
30
0
40
0.42499999999996874
210
0
220
0
230
1
100
AcDbArc
50
180
51
270.00000000000574
0
LINE
5
223
100
AcDbEntity
8
CUTOUTS
100
AcDbLine
10
-81.607117300000027
20
-16.450853500000022
30
0
11
-94.607117300000027
21
-16.450853500000019
31
0
0
ARC
5
224
100
AcDbEntity
8
CUTOUTS
100
AcDbCircle
10
-81.607117299999956
20
-16.025853500000089
30
0
40
0.42499999999993321
210
0
220
0
230
1
100
AcDbArc
50
-90.000000000009578
51
0
0
LINE
5
225
100
AcDbEntity
8
CUTOUTS
100
AcDbLine
10
-81.182117299999987
20
-3.0258535000000109
30
0
11
-81.182117300000058
21
-16.025853500000018
31
0
0
ARC
5
226
100
AcDbEntity
8
CUTOUTS
100
AcDbCircle
10
-5.4071172999999817
20
-16.025853500000018
30
0
40
0.42500000000000426
210
0
220
0
230
1
100
AcDbArc
50
-90.000000000009578
51
0
0
LINE
5
227
100
AcDbEntity
8
CUTOUTS
100
AcDbLine
10
-4.982117300000084
20
-3.0258535000000109
30
0
11
-4.9821172999998726
21
-16.025853500000018
31
0
0
ARC
5
228
100
AcDbEntity
8
CUTOUTS
100
AcDbCircle
10
-5.4071173000001238
20
-3.0258535000000109
30
0
40
0.42500000000003979
210
0
220
-0
230
1
100
AcDbArc
50
0
51
89.999999999990408
0
LINE
5
229
100
AcDbEntity
8
CUTOUTS
100
AcDbLine
10
-18.407117300000024
20
-2.6008535000000066
30
0
11
-5.4071173000000528
21
-2.6008534999999728
31
0
0
ARC
5
22A
100
AcDbEntity
8
CUTOUTS
100
AcDbCircle
10
-18.407117299999953
20
-3.0258535000000109
30
0
40
0.42500000000000426
210
0
220
0
230
1
100
AcDbArc
50
90.000000000009578
51
180
0
LINE
5
22B
100
AcDbEntity
8
CUTOUTS
100
AcDbLine
10
-18.832117300000064
20
-16.025853500000018
30
0
11
-18.83211729999999
21
-3.0258535000000109
31
0
0
ARC
5
22C
100
AcDbEntity
8
CUTOUTS
100
AcDbCircle
10
-18.407117300000095
20
-16.025853500000018
30
0
40
0.42499999999996874
210
0
220
0
230
1
100
AcDbArc
50
180
51
270.00000000000961
0
LINE
5
22D
100
AcDbEntity
8
CUTOUTS
100
AcDbLine
10
-5.4071173000000528
20
-16.450853500000022
30
0
11
-18.407117300000024
21
-16.450853499999983
31
0
0
ARC
5
22E
100
AcDbEntity
8
CUTOUTS
100
AcDbCircle
10
70.792882699999922
20
-3.0258534999999753
30
0
40
0.42500000000003979
210
-0
220
0
230
1
100
AcDbArc
50
0
51
89.999999999990408
0
LINE
5
22F
100
AcDbEntity
8
CUTOUTS
100
AcDbLine
10
57.79288269999995
20
-2.6008535000000066
30
0
11
70.792882699999993
21
-2.6008534999999373
31
0
0
ARC
5
230
100
AcDbEntity
8
CUTOUTS
100
AcDbCircle
10
57.792882699999879
20
-3.0258535000000109
30
0
40
0.42500000000000426
210
0
220
-0
230
1
100
AcDbArc
50
89.999999999990408
51
180
0
LINE
5
231
100
AcDbEntity
8
CUTOUTS
100
AcDbLine
10
57.367882699999981
20
-16.025853500000018
30
0
11
57.367882699999768
21
-3.0258535000000109
31
0
0
ARC
5
232
100
AcDbEntity
8
CUTOUTS
100
AcDbCircle
10
57.792882700000021
20
-16.025853500000018
30
0
40
0.42500000000003979
210
0
220
0
230
1
100
AcDbArc
50
180
51
269.99999999999045
0
LINE
5
233
100
AcDbEntity
8
CUTOUTS
100
AcDbLine
10
70.792882699999993
20
-16.450853500000022
30
0
11
57.79288269999995
21
-16.450853500000054
31
0
0
ARC
5
234
100
AcDbEntity
8
CUTOUTS
100
AcDbCircle
10
70.792882700000064
20
-16.025853500000018
30
0
40
0.42500000000000426
210
0
220
0
230
1
100
AcDbArc
50
-90.000000000009578
51
0
0
LINE
5
235
100
AcDbEntity
8
CUTOUTS
100
AcDbLine
10
71.217882699999961
20
-3.0258535000000109
30
0
11
71.217882700000175
21
-16.025853500000018
31
0
0
ARC
5
236
100
AcDbEntity
8
CUTOUTS
100
AcDbCircle
10
72.080382700000101
20
-22.075853499999987
30
0
40
0.42499999999996874
210
0
220
0
230
1
100
AcDbArc
50
90.000000000009578
51
180
0
LINE
5
237
100
AcDbEntity
8
CUTOUTS
100
AcDbLine
10
71.655382700000061
20
-35.075853500000029
30
0
11
71.65538269999999
21
-22.075853500000022
31
0
0
ARC
5
238
100
AcDbEntity
8
CUTOUTS
100
AcDbCircle
10
72.080382700000101
20
-35.075853500000029
30
0
40
0.42500000000003979
210
0
220
0
230
1
100
AcDbArc
50
180
51
269.99999999999045
0
LINE
5
239
100
AcDbEntity
8
CUTOUTS
100
AcDbLine
10
85.080382700000001
20
-35.500853500000034
30
0
11
72.08038270000003
21
-35.500853500000069
31
0
0
ARC
5
23A
100
AcDbEntity
8
CUTOUTS
100
AcDbCircle
10
85.08038269999993
20
-35.075853500000029
30
0
40
0.42500000000000426
210
-0
220
0
230
1
100
AcDbArc
50
-89.999999999990436
51
0
0
LINE
5
23B
100
AcDbEntity
8
CUTOUTS
100
AcDbLine
10
85.50538269999997
20
-22.075853500000022
30
0
11
85.50538269999997
21
-35.075853500000029
31
0
0
ARC
5
23C
100
AcDbEntity
8
CUTOUTS
100
AcDbCircle
10
85.08038269999993
20
-22.075853499999987
30
0
40
0.42500000000003979
210
-0
220
0
230
1
100
AcDbArc
50
0
51
89.999999999990408
0
LINE
5
23D
100
AcDbEntity
8
CUTOUTS
100
AcDbLine
10
72.08038270000003
20
-21.650853500000018
30
0
11
85.080382700000001
21
-21.650853500000018
31
0
0
ARC
5
23E
100
AcDbEntity
8
CUTOUTS
100
AcDbCircle
10
-4.1196172999999447
20
-22.075853500000022
30
0
40
0.42500000000000426
210
0
220
0
230
1
100
AcDbArc
50
90.000000000009578
51
180
0
LINE
5
23F
100
AcDbEntity
8
CUTOUTS
100
AcDbLine
10
-4.5446172999999845
20
-35.075853500000029
30
0
11
-4.5446172999999117
21
-22.075853500000022
31
0
0
ARC
5
240
100
AcDbEntity
8
CUTOUTS
100
AcDbCircle
10
-4.1196172999999447
20
-35.075853500000065
30
0
40
0.42500000000003979
210
0
220
0
230
1
100
AcDbArc
50
180
51
269.99999999999045
0
LINE
5
241
100
AcDbEntity
8
CUTOUTS
100
AcDbLine
10
8.8803826999999558
20
-35.500853500000034
30
0
11
-4.1196173000000158
21
-35.500853500000105
31
0
0
ARC
5
242
100
AcDbEntity
8
CUTOUTS
100
AcDbCircle
10
8.8803826999998847
20
-35.075853500000065
30
0
40
0.42499999999996874
210
-0
220
0
230
1
100
AcDbArc
50
-89.999999999990436
51
0
0
LINE
5
243
100
AcDbEntity
8
CUTOUTS
100
AcDbLine
10
9.3053826999999245
20
-22.075853500000022
30
0
11
9.3053826999998517
21
-35.075853500000029
31
0
0
ARC
5
244
100
AcDbEntity
8
CUTOUTS
100
AcDbCircle
10
8.8803826999998847
20
-22.075853500000022
30
0
40
0.42500000000003979
210
0
220
-0
230
1
100
AcDbArc
50
0
51
89.999999999990408
0
LINE
5
245
100
AcDbEntity
8
CUTOUTS
100
AcDbLine
10
-4.1196173000000158
20
-21.650853500000018
30
0
11
8.8803826999999558
21
-21.650853499999982
31
0
0
ARC
5
246
100
AcDbEntity
8
CUTOUTS
100
AcDbCircle
10
-67.319617299999948
20
-35.075853500000136
30
0
40
0.42499999999989768
210
0
220
0
230
1
100
AcDbArc
50
-90.000000000009578
51
0
0
LINE
5
247
100
AcDbEntity
8
CUTOUTS
100
AcDbLine
10
-66.894617299999979
20
-22.075853500000022
30
0
11
-66.89461730000005
21
-35.075853500000065
31
0
0
ARC
5
248
100
AcDbEntity
8
CUTOUTS
100
AcDbCircle
10
-67.319617299999948
20
-22.075853500000022
30
0
40
0.42499999999996874
210
0
220
-0
230
1
100
AcDbArc
50
0
51
90.000000000009578
0
LINE
5
249
100
AcDbEntity
8
CUTOUTS
100
AcDbLine
10
-80.319617300000061
20
-21.650853500000018
30
0
11
-67.319617300000019
21
-21.650853500000053
31
0
0
ARC
5
24A
100
AcDbEntity
8
CUTOUTS
100
AcDbCircle
10
-80.31961729999999
20
-22.075853500000022
30
0
40
0.42500000000000426
210
0
220
0
230
1
100
AcDbArc
50
90.000000000009578
51
180
0
LINE
5
24B
100
AcDbEntity
8
CUTOUTS
100
AcDbLine
10
-80.74461730000003
20
-35.075853500000029
30
0
11
-80.744617299999959
21
-22.075853500000022
31
0
0
ARC
5
24C
100
AcDbEntity
8
CUTOUTS
100
AcDbCircle
10
-80.31961729999999
20
-35.075853500000065
30
0
40
0.42500000000003979
210
0
220
0
230
1
100
AcDbArc
50
180
51
269.99999999999045
0
LINE
5
24D
100
AcDbEntity
8
CUTOUTS
100
AcDbLine
10
-67.319617300000019
20
-35.500853500000034
30
0
11
-80.319617300000061
21
-35.500853500000105
31
0
0
ARC
5
24E
100
AcDbEntity
8
CUTOUTS
100
AcDbCircle
10
-99.369617300000073
20
-35.075853500000065
30
0
40
0.42499999999996874
210
0
220
0
230
1
100
AcDbArc
50
180
51
270.00000000000381
0
LINE
5
24F
100
AcDbEntity
8
CUTOUTS
100
AcDbLine
10
-86.36961730000003
20
-35.500853500000034
30
0
11
-99.369617300000044
21
-35.500853500000034
31
0
0
ARC
5
250
100
AcDbEntity
8
CUTOUTS
100
AcDbCircle
10
-86.369617300000073
20
-35.075853499999994
30
0
40
0.42500000000003979
210
-0
220
0
230
1
100
AcDbArc
50
270.00000000000574
51
360
0
LINE
5
251
100
AcDbEntity
8
CUTOUTS
100
AcDbLine
10
-85.944617300000033
20
-22.075853500000022
30
0
11
-85.944617300000033
21
-35.075853500000029
31
0
0
ARC
5
252
100
AcDbEntity
8
CUTOUTS
100
AcDbCircle
10
-86.369617299999987
20
-22.075853499999987
30
0
40
0.42499999999996874
210
-0
220
0
230
1
100
AcDbArc
50
0
51
90.000000000005755
0
LINE
5
253
100
AcDbEntity
8
CUTOUTS
100
AcDbLine
10
-99.369617300000044
20
-21.650853500000018
30
0
11
-86.36961730000003
21
-21.650853500000018
31
0
0
ARC
5
254
100
AcDbEntity
8
CUTOUTS
100
AcDbCircle
10
-99.369617299999931
20
-22.075853500000129
30
0
40
0.42500000000011084
210
0
220
0
230
1
100
AcDbArc
50
90.000000000015334
51
180
0
LINE
5
255
100
AcDbEntity
8
CUTOUTS
100
AcDbLine
10
-99.794617300000041
20
-35.075853500000029
30
0
11
-99.794617300000041
21
-22.075853500000058
31
0
0
ARC
5
256
100
AcDbEntity
8
CUTOUTS
100
AcDbCircle
10
-10.169617300000127
20
-22.075853500000022
30
0
40
0.42500000000003979
210
0
220
-0
230
1
100
AcDbArc
50
0
51
89.999999999990408
0
LINE
5
257
100
AcDbEntity
8
CUTOUTS
100
AcDbLine
10
-23.169617300000027
20
-21.650853500000018
30
0
11
-10.169617300000056
21
-21.650853499999982
31
0
0
ARC
5
258
100
AcDbEntity
8
CUTOUTS
100
AcDbCircle
10
-23.169617299999956
20
-22.075853500000022
30
0
40
0.42500000000000426
210
0
220
0
230
1
100
AcDbArc
50
90.000000000009578
51
180
0
LINE
5
259
100
AcDbEntity
8
CUTOUTS
100
AcDbLine
10
-23.594617299999996
20
-35.075853500000029
30
0
11
-23.594617299999925
21
-22.075853500000022
31
0
0
ARC
5
25A
100
AcDbEntity
8
CUTOUTS
100
AcDbCircle
10
-23.169617299999956
20
-35.075853500000065
30
0
40
0.42500000000003979
210
0
220
0
230
1
100
AcDbArc
50
180
51
269.99999999999045
0
LINE
5
25B
100
AcDbEntity
8
CUTOUTS
100
AcDbLine
10
-10.169617300000056
20
-35.500853500000034
30
0
11
-23.169617300000027
21
-35.500853500000105
31
0
0
ARC
5
25C
100
AcDbEntity
8
CUTOUTS
100
AcDbCircle
10
-10.169617300000127
20
-35.075853500000065
30
0
40
0.42499999999996874
210
-0
220
0
230
1
100
AcDbArc
50
-89.999999999990436
51
0
0
LINE
5
25D
100
AcDbEntity
8
CUTOUTS
100
AcDbLine
10
-9.7446173000000869
20
-22.075853500000022
30
0
11
-9.7446173000001597
21
-35.075853500000029
31
0
0
ARC
5
25E
100
AcDbEntity
8
CUTOUTS
100
AcDbCircle
10
66.030382699999919
20
-22.075853499999987
30
0
40
0.42500000000003979
210
-0
220
0
230
1
100
AcDbArc
50
0
51
89.999999999990408
0
LINE
5
25F
100
AcDbEntity
8
CUTOUTS
100
AcDbLine
10
53.030382700000018
20
-21.650853500000018
30
0
11
66.03038269999999
21
-21.650853500000018
31
0
0
ARC
5
260
100
AcDbEntity
8
CUTOUTS
100
AcDbCircle
10
53.030382700000089
20
-22.075853499999987
30
0
40
0.42499999999996874
210
0
220
0
230
1
100
AcDbArc
50
90.000000000009578
51
180
0
LINE
5
261
100
AcDbEntity
8
CUTOUTS
100
AcDbLine
10
52.60538270000005
20
-35.075853500000029
30
0
11
52.605382699999979
21
-22.075853500000022
31
0
0
ARC
5
262
100
AcDbEntity
8
CUTOUTS
100
AcDbCircle
10
53.030382700000089
20
-35.075853500000029
30
0
40
0.42500000000003979
210
0
220
0
230
1
100
AcDbArc
50
180
51
269.99999999999045
0
LINE
5
263
100
AcDbEntity
8
CUTOUTS
100
AcDbLine
10
66.03038269999999
20
-35.500853500000034
30
0
11
53.030382700000018
21
-35.500853500000069
31
0
0
ARC
5
264
100
AcDbEntity
8
CUTOUTS
100
AcDbCircle
10
66.030382699999919
20
-35.075853500000029
30
0
40
0.42500000000000426
210
-0
220
0
230
1
100
AcDbArc
50
-89.999999999990436
51
0
0
LINE
5
265
100
AcDbEntity
8
CUTOUTS
100
AcDbLine
10
66.455382699999959
20
-22.075853500000022
30
0
11
66.455382699999959
21
-35.075853500000029
31
0
0
ARC
5
266
100
AcDbEntity
8
CUTOUTS
100
AcDbCircle
10
76.842882700000033
20
-16.025853500000018
30
0
40
0.42500000000003979
210
0
220
0
230
1
100
AcDbArc
50
180
51
269.99999999999045
0
LINE
5
267
100
AcDbEntity
8
CUTOUTS
100
AcDbLine
10
89.842882699999933
20
-16.450853500000022
30
0
11
76.842882699999961
21
-16.450853500000054
31
0
0
ARC
5
268
100
AcDbEntity
8
CUTOUTS
100
AcDbCircle
10
89.842882699999862
20
-16.025853500000018
30
0
40
0.42500000000000426
210
-0
220
0
230
1
100
AcDbArc
50
-89.999999999990436
51
0
0
LINE
5
269
100
AcDbEntity
8
CUTOUTS
100
AcDbLine
10
90.267882699999973
20
-3.0258535000000109
30
0
11
90.267882699999902
21
-16.025853500000018
31
0
0
ARC
5
26A
100
AcDbEntity
8
CUTOUTS
100
AcDbCircle
10
89.842882700000004
20
-3.0258535000000109
30
0
40
0.42499999999996874
210
0
220
-0
230
1
100
AcDbArc
50
0
51
90.000000000009578
0
LINE
5
26B
100
AcDbEntity
8
CUTOUTS
100
AcDbLine
10
76.842882699999961
20
-2.6008535000000421
30
0
11
89.842882699999933
21
-2.6008535000000439
31
0
0
ARC
5
26C
100
AcDbEntity
8
CUTOUTS
100
AcDbCircle
10
76.842882700000033
20
-3.0258535000000464
30
0
40
0.42500000000000426
210
0
220
0
230
1
100
AcDbArc
50
90.000000000009578
51
180
0
LINE
5
26D
100
AcDbEntity
8
CUTOUTS
100
AcDbLine
10
76.417882699999993
20
-16.025853500000018
30
0
11
76.417882699999922
21
-3.0258535000000109
31
0
0
ARC
5
26E
100
AcDbEntity
8
CUTOUTS
100
AcDbCircle
10
13.64288270000003
20
-16.025853500000018
30
0
40
0.42500000000000426
210
0
220
0
230
1
100
AcDbArc
50
-90.000000000009578
51
0
0
LINE
5
26F
100
AcDbEntity
8
CUTOUTS
100
AcDbLine
10
14.067882699999927
20
-3.0258535000000109
30
0
11
14.067882699999997
21
-16.025853500000018
31
0
0
ARC
5
270
100
AcDbEntity
8
CUTOUTS
100
AcDbCircle
10
13.642882699999888
20
-3.0258535000000109
30
0
40
0.42500000000003979
210
0
220
-0
230
1
100
AcDbArc
50
0
51
89.999999999990408
0
LINE
5
271
100
AcDbEntity
8
CUTOUTS
100
AcDbLine
10
0.64288269999998704
20
-2.6008535000000066
30
0
11
13.642882699999959
21
-2.6008534999999728
31
0
0
ARC
5
272
100
AcDbEntity
8
CUTOUTS
100
AcDbCircle
10
0.64288270000005809
20
-3.0258535000000109
30
0
40
0.42500000000000426
210
0
220
0
230
1
100
AcDbArc
50
90.000000000009578
51
180
0
LINE
5
273
100
AcDbEntity
8
CUTOUTS
100
AcDbLine
10
0.21788269999994725
20
-16.025853500000018
30
0
11
0.21788269999994886
21
-3.0258535000000109
31
0
0
ARC
5
274
100
AcDbEntity
8
CUTOUTS
100
AcDbCircle
10
0.64288269999991599
20
-16.025853500000018
30
0
40
0.42499999999996874
210
0
220
0
230
1
100
AcDbArc
50
180
51
270.00000000000961
0
LINE
5
275
100
AcDbEntity
8
CUTOUTS
100
AcDbLine
10
13.642882699999959
20
-16.450853500000022
30
0
11
0.64288269999998704
21
-16.450853500000019
31
0
0
ARC
5
276
100
AcDbEntity
8
CUTOUTS
100
AcDbCircle
10
-75.557117299999916
20
-16.025853500000053
30
0
40
0.42500000000003979
210
0
220
0
230
1
100
AcDbArc
50
180
51
269.99999999999045
0
LINE
5
277
100
AcDbEntity
8
CUTOUTS
100
AcDbLine
10
-62.557117300000016
20
-16.450853499999987
30
0
11
-75.557117299999987
21
-16.450853499999983
31
0
0
ARC
5
278
100
AcDbEntity
8
CUTOUTS
100
AcDbCircle
10
-62.557117300000087
20
-16.025853500000053
30
0
40
0.42499999999993321
210
-0
220
0
230
1
100
AcDbArc
50
-89.999999999990436
51
0
0
LINE
5
279
100
AcDbEntity
8
CUTOUTS
100
AcDbLine
10
-62.132117299999976
20
-3.0258535000000109
30
0
11
-62.132117300000047
21
-16.025853500000018
31
0
0
ARC
5
27A
100
AcDbEntity
8
CUTOUTS
100
AcDbCircle
10
-62.557117299999945
20
-3.0258535000000109
30
0
40
0.42499999999996874
210
0
220
-0
230
1
100
AcDbArc
50
0
51
90.000000000009578
0
LINE
5
27B
100
AcDbEntity
8
CUTOUTS
100
AcDbLine
10
-75.557117299999987
20
-2.6008535000000421
30
0
11
-62.557117300000016
21
-2.6008535000000439
31
0
0
ARC
5
27C
100
AcDbEntity
8
CUTOUTS
100
AcDbCircle
10
-75.557117300000058
20
-3.0258534999999398
30
0
40
0.42499999999989768
210
0
220
-0
230
1
100
AcDbArc
50
89.999999999990408
51
180
0
LINE
5
27D
100
AcDbEntity
8
CUTOUTS
100
AcDbLine
10
-75.982117299999956
20
-16.025853500000018
30
0
11
-75.982117300000027
21
-3.0258535000000109
31
0
0
LINE
5
27E
100
AcDbEntity
8
CUTOUTS
100
AcDbLine
10
-85.507117300000004
20
3.0241464999999934
30
0
11
-85.507117300000004
21
16.024146499999965
31
0
0
ARC
5
27F
100
AcDbEntity
8
CUTOUTS
100
AcDbCircle
10
-85.082117299999922
20
16.024146499999894
30
0
40
0.42500000000007532
210
0
220
0
230
1
100
AcDbArc
50
90.000000000013415
51
180
0
LINE
5
280
100
AcDbEntity
8
CUTOUTS
100
AcDbLine
10
-85.082117300000021
20
16.449146499999898
30
0
11
-72.082117299999993
21
16.449146499999966
31
0
0
ARC
5
281
100
AcDbEntity
8
CUTOUTS
100
AcDbCircle
10
-72.082117299999879
20
16.024146500000001
30
0
40
0.42499999999989768
210
-0
220
0
230
1
100
AcDbArc
50
0
51
90.000000000009578
0
LINE
5
282
100
AcDbEntity
8
CUTOUTS
100
AcDbLine
10
-71.657117299999982
20
16.024146499999965
30
0
11
-71.657117300000053
21
3.0241464999999934
31
0
0
ARC
5
283
100
AcDbEntity
8
CUTOUTS
100
AcDbCircle
10
-72.08211729999995
20
3.0241464999998868
30
0
40
0.42499999999986215
210
0
220
0
230
1
100
AcDbArc
50
-90.000000000009578
51
0
0
LINE
5
284
100
AcDbEntity
8
CUTOUTS
100
AcDbLine
10
-72.082117300000021
20
2.5991465000000247
30
0
11
-85.082117300000021
21
2.5991465000000264
31
0
0
ARC
5
285
100
AcDbEntity
8
CUTOUTS
100
AcDbCircle
10
-85.082117300000064
20
3.0241464999999579
30
0
40
0.42499999999993321
210
0
220
0
230
1
100
AcDbArc
50
180
51
270
0
ARC
5
286
100
AcDbEntity
8
CUTOUTS
100
AcDbCircle
10
4.1178826999998819
20
16.024146500000001
30
0
40
0.42500000000003979
210
-0
220
0
230
1
100
AcDbArc
50
0
51
89.999999999990408
0
LINE
5
287
100
AcDbEntity
8
CUTOUTS
100
AcDbLine
10
-8.8821173000000186
20
16.449146499999898
30
0
11
4.1178826999999529
21
16.449146499999966
31
0
0
ARC
5
288
100
AcDbEntity
8
CUTOUTS
100
AcDbCircle
10
-8.8821172999999476
20
16.024146500000001
30
0
40
0.42499999999996874
210
0
220
0
230
1
100
AcDbArc
50
90.000000000009578
51
180
0
LINE
5
289
100
AcDbEntity
8
CUTOUTS
100
AcDbLine
10
-9.3071172999999874
20
3.0241464999999934
30
0
11
-9.3071173000000567
21
16.024146499999965
31
0
0
ARC
5
28A
100
AcDbEntity
8
CUTOUTS
100
AcDbCircle
10
-8.8821172999999476
20
3.0241464999999579
30
0
40
0.42500000000003979
210
0
220
0
230
1
100
AcDbArc
50
180
51
269.99999999999045
0
LINE
5
28B
100
AcDbEntity
8
CUTOUTS
100
AcDbLine
10
4.1178826999999529
20
2.5991465000000247
30
0
11
-8.8821173000000186
21
2.5991465000000264
31
0
0
ARC
5
28C
100
AcDbEntity
8
CUTOUTS
100
AcDbCircle
10
4.1178826999998819
20
3.0241464999999579
30
0
40
0.42499999999993321
210
-0
220
0
230
1
100
AcDbArc
50
-89.999999999990436
51
0
0
LINE
5
28D
100
AcDbEntity
8
CUTOUTS
100
AcDbLine
10
4.5428826999999217
20
16.024146499999965
30
0
11
4.5428826999998488
21
3.0241464999999934
31
0
0
LINE
5
28E
100
AcDbEntity
8
CUTOUTS
100
AcDbLine
10
80.317882699999927
20
2.5991464999999536
30
0
11
67.317882699999956
21
2.5991464999999554
31
0
0
ARC
5
28F
100
AcDbEntity
8
CUTOUTS
100
AcDbCircle
10
67.317882699999885
20
3.0241464999999934
30
0
40
0.42500000000003979
210
0
220
0
230
1
100
AcDbArc
50
180
51
270.00000000000961
0
LINE
5
290
100
AcDbEntity
8
CUTOUTS
100
AcDbLine
10
66.892882699999845
20
3.0241464999999934
30
0
11
66.892882699999916
21
16.024146499999965
31
0
0
ARC
5
291
100
AcDbEntity
8
CUTOUTS
100
AcDbCircle
10
67.317882699999956
20
16.024146499999965
30
0
40
0.42500000000011084
210
0
220
-0
230
1
100
AcDbArc
50
90
51
180
0
LINE
5
292
100
AcDbEntity
8
CUTOUTS
100
AcDbLine
10
67.317882699999956
20
16.44914650000004
30
0
11
80.317882699999927
21
16.449146500000037
31
0
0
ARC
5
293
100
AcDbEntity
8
CUTOUTS
100
AcDbCircle
10
80.317882699999927
20
16.024146499999965
30
0
40
0.42500000000011084
210
0
220
-0
230
1
100
AcDbArc
50
0
51
90
0
LINE
5
294
100
AcDbEntity
8
CUTOUTS
100
AcDbLine
10
80.742882700000038
20
16.024146499999965
30
0
11
80.742882700000038
21
3.0241464999999934
31
0
0
ARC
5
295
100
AcDbEntity
8
CUTOUTS
100
AcDbCircle
10
80.317882699999998
20
3.0241464999999934
30
0
40
0.42500000000003979
210
0
220
0
230
1
100
AcDbArc
50
-90.000000000009578
51
0
0
ARC
5
296
100
AcDbEntity
8
CUTOUTS
100
AcDbCircle
10
67.317882699999956
20
35.074146499999941
30
0
40
0.42500000000003979
210
0
220
-0
230
1
100
AcDbArc
50
90
51
180
0
LINE
5
297
100
AcDbEntity
8
CUTOUTS
100
AcDbLine
10
66.892882699999916
20
22.074146499999969
30
0
11
66.892882699999987
21
35.074146499999941
31
0
0
ARC
5
298
100
AcDbEntity
8
CUTOUTS
100
AcDbCircle
10
67.317882699999956
20
22.074146499999969
30
0
40
0.42500000000003979
210
0
220
0
230
1
100
AcDbArc
50
180
51
270
0
LINE
5
299
100
AcDbEntity
8
CUTOUTS
100
AcDbLine
10
80.317882699999927
20
21.649146499999929
30
0
11
67.317882699999956
21
21.649146500000001
31
0
0
ARC
5
29A
100
AcDbEntity
8
CUTOUTS
100
AcDbCircle
10
80.317882699999927
20
22.074146499999969
30
0
40
0.42500000000003979
210
-0
220
0
230
1
100
AcDbArc
50
-90
51
0
0
LINE
5
29B
100
AcDbEntity
8
CUTOUTS
100
AcDbLine
10
80.742882699999967
20
35.074146499999941
30
0
11
80.742882699999967
21
22.074146499999969
31
0
0
ARC
5
29C
100
AcDbEntity
8
CUTOUTS
100
AcDbCircle
10
80.317882699999927
20
35.074146499999941
30
0
40
0.42500000000003979
210
0
220
-0
230
1
100
AcDbArc
50
0
51
90
0
LINE
5
29D
100
AcDbEntity
8
CUTOUTS
100
AcDbLine
10
67.317882699999956
20
35.499146499999981
30
0
11
80.317882699999927
21
35.499146499999981
31
0
0
ARC
5
29E
100
AcDbEntity
8
CUTOUTS
100
AcDbCircle
10
1.7298827000001182
20
35.07414649999987
30
0
40
0.42500000000011084
210
0
220
0
230
1
100
AcDbArc
50
90.00000000001917
51
180
0
LINE
5
29F
100
AcDbEntity
8
CUTOUTS
100
AcDbLine
10
1.3048827000000074
20
21.074146500000026
30
0
11
1.3048827000000092
21
35.074146499999941
31
0
0
ARC
5
2A0
100
AcDbEntity
8
CUTOUTS
100
AcDbCircle
10
1.7298827000001182
20
21.074146500000097
30
0
40
0.42500000000011084
210
0
220
0
230
1
100
AcDbArc
50
180
51
269.9999999999809
0
LINE
5
2A1
100
AcDbEntity
8
CUTOUTS
100
AcDbLine
10
7.7298826999999903
20
20.649146499999986
30
0
11
1.7298826999999761
21
20.649146499999986
31
0
0
ARC
5
2A2
100
AcDbEntity
8
CUTOUTS
100
AcDbCircle
10
7.7298826999999903
20
21.074146500000026
30
0
40
0.42500000000003979
210
-0
220
0
230
1
100
AcDbArc
50
-90
51
0
0
LINE
5
2A3
100
AcDbEntity
8
CUTOUTS
100
AcDbLine
10
8.1548826999999591
20
35.074146499999941
30
0
11
8.1548827000000284
21
21.074146500000026
31
0
0
ARC
5
2A4
100
AcDbEntity
8
CUTOUTS
100
AcDbCircle
10
7.7298826999999903
20
35.074146499999941
30
0
40
0.42499999999996874
210
0
220
-0
230
1
100
AcDbArc
50
0
51
90
0
LINE
5
2A5
100
AcDbEntity
8
CUTOUTS
100
AcDbLine
10
1.7298826999999761
20
35.499146499999981
30
0
11
7.7298826999999903
21
35.49914649999991
31
0
0
LINE
5
2A6
100
AcDbEntity
8
PERIMETER
100
AcDbLine
10
-124.26895770000002
20
37.674903499999957
30
0
11
-124.26895769999999
21
4.3015724309800518
31
0
0
ARC
5
2A7
100
AcDbEntity
8
PERIMETER
100
AcDbCircle
10
-125.44395769999994
20
4.3015724309800518
30
0
40
1.1749999999999901
210
-0
220
0
230
1
100
AcDbArc
50
-72.059217996344969
51
0
0
LINE
5
2A8
100
AcDbEntity
8
PERIMETER
100
AcDbLine
10
-125.08201790747702
20
3.1837063448192637
30
0
11
-126.61415337138482
21
2.6876354837483163
31
0
0
ARC
5
2A9
100
AcDbEntity
8
PERIMETER
100
AcDbCircle
10
-125.74395769999998
20
3.5527136788005009e-14
30
0
40
2.8249999999999571
210
0
220
0
230
1
100
AcDbArc
50
107.94078200365401
51
252.0592179963466
0
LINE
5
2AA
100
AcDbEntity
8
PERIMETER
100
AcDbLine
10
-126.61415337138479
20
-2.6876354837482452
30
0
11
-125.08201790747712
21
-3.1837063448192282
31
0
0
ARC
5
2AB
100
AcDbEntity
8
PERIMETER
100
AcDbCircle
10
-125.44395770000001
20
-4.3015724309800518
30
0
40
1.1750000000000327
210
0
220
-0
230
1
100
AcDbArc
50
0
51
72.059217996347087
0
LINE
5
2AC
100
AcDbEntity
8
PERIMETER
100
AcDbLine
10
-124.26895769999999
20
-4.3015724309800518
30
0
11
-124.26895769999999
21
-37.674903500000028
31
0
0
ARC
5
2AD
100
AcDbEntity
8
PERIMETER
100
AcDbCircle
10
-121.01895770000013
20
-37.674903500000099
30
0
40
3.2499999999998508
210
0
220
0
230
1
100
AcDbArc
50
180
51
270.00000000000119
0
LINE
5
2AE
100
AcDbEntity
8
PERIMETER
100
AcDbLine
10
-121.01895770000006
20
-40.924903499999949
30
0
11
-64.400530130980059
21
-40.924903500000028
31
0
0
ARC
5
2AF
100
AcDbEntity
8
PERIMETER
100
AcDbCircle
10
-64.400530130980016
20
-42.099903499999982
30
0
40
1.1749999999999114
210
0
220
-0
230
1
100
AcDbArc
50
17.940782003654778
51
90.000000000003482
0
LINE
5
2B0
100
AcDbEntity
8
PERIMETER
100
AcDbLine
10
-63.282664044819299
20
-41.737963707477093
30
0
11
-62.786593183748352
21
-43.270099171384864
31
0
0
ARC
5
2B1
100
AcDbEntity
8
PERIMETER
100
AcDbCircle
10
-60.0989577
20
-42.399903499999994
30
0
40
2.8250000000000357
210
0
220
0
230
1
100
AcDbArc
50
197.94078200365422
51
342.05921799634439
0
LINE
5
2B2
100
AcDbEntity
8
PERIMETER
100
AcDbLine
10
-57.411322216251648
20
-43.270099171384935
30
0
11
-56.915251355180771
21
-41.737963707477057
31
0
0
ARC
5
2B3
100
AcDbEntity
8
PERIMETER
100
AcDbCircle
10
-55.797385269020054
20
-42.099903499999876
30
0
40
1.1749999999998906
210
0
220
-0
230
1
100
AcDbArc
50
89.999999999996547
51
162.05921799634862
0
LINE
5
2B4
100
AcDbEntity
8
PERIMETER
100
AcDbLine
10
-55.797385269019983
20
-40.924903499999985
30
0
11
55.797385269019912
21
-40.924903500000042
31
0
0
ARC
5
2B5
100
AcDbEntity
8
PERIMETER
100
AcDbCircle
10
55.797385269019983
20
-42.099903499999947
30
0
40
1.1749999999999006
210
0
220
-0
230
1
100
AcDbArc
50
17.940782003653148
51
90.000000000003482
0
LINE
5
2B6
100
AcDbEntity
8
PERIMETER
100
AcDbLine
10
56.9152513551807
20
-41.737963707477093
30
0
11
57.411322216251719
21
-43.270099171384899
31
0
0
ARC
5
2B7
100
AcDbEntity
8
PERIMETER
100
AcDbCircle
10
60.0989577
20
-42.399903499999994
30
0
40
2.8249999999999793
210
0
220
0
230
1
100
AcDbArc
50
197.94078200365536
51
342.05921799634336
0
LINE
5
2B8
100
AcDbEntity
8
PERIMETER
100
AcDbLine
10
62.78659318374828
20
-43.27009917138497
30
0
11
63.282664044819228
21
-41.737963707477093
31
0
0
ARC
5
2B9
100
AcDbEntity
8
PERIMETER
100
AcDbCircle
10
64.400530130979874
20
-42.099903499999947
30
0
40
1.1749999999999261
210
0
220
-0
230
1
100
AcDbArc
50
89.999999999996547
51
162.05921799634541
0
LINE
5
2BA
100
AcDbEntity
8
PERIMETER
100
AcDbLine
10
64.400530130979945
20
-40.924903500000021
30
0
11
121.01895769999999
21
-40.924903500000028
31
0
0
ARC
5
2BB
100
AcDbEntity
8
PERIMETER
100
AcDbCircle
10
121.01895770000006
20
-37.674903500000099
30
0
40
3.2499999999999218
210
0
220
0
230
1
100
AcDbArc
50
-90.000000000001265
51
0
0
LINE
5
2BC
100
AcDbEntity
8
PERIMETER
100
AcDbLine
10
124.26895770000002
20
-37.674903500000028
30
0
11
124.26895770000002
21
-4.3015724309800873
31
0
0
ARC
5
2BD
100
AcDbEntity
8
PERIMETER
100
AcDbCircle
10
125.44395770000001
20
-4.3015724309800873
30
0
40
1.1750000000000129
210
0
220
0
230
1
100
AcDbArc
50
107.9407820036532
51
180
0
LINE
5
2BE
100
AcDbEntity
8
PERIMETER
100
AcDbLine
10
125.08201790747712
20
-3.1837063448192637
30
0
11
126.61415337138486
21
-2.6876354837482808
31
0
0
ARC
5
2BF
100
AcDbEntity
8
PERIMETER
100
AcDbCircle
10
125.74395769999995
20
3.5527136788005009e-14
30
0
40
2.8250000000000131
210
-0
220
0
230
1
100
AcDbArc
50
-72.05921799634487
51
72.059217996344842
0
LINE
5
2C0
100
AcDbEntity
8
PERIMETER
100
AcDbLine
10
126.61415337138486
20
2.6876354837483518
30
0
11
125.08201790747698
21
3.1837063448192282
31
0
0
ARC
5
2C1
100
AcDbEntity
8
PERIMETER
100
AcDbCircle
10
125.44395769999994
20
4.3015724309800518
30
0
40
1.1749999999999972
210
0
220
0
230
1
100
AcDbArc
50
180
51
252.05921799634362
0
LINE
5
2C2
100
AcDbEntity
8
PERIMETER
100
AcDbLine
10
124.26895769999994
20
4.3015724309800163
30
0
11
124.26895769999994
21
37.674903499999921
31
0
0
ARC
5
2C3
100
AcDbEntity
8
PERIMETER
100
AcDbCircle
10
121.01895769999992
20
37.674903499999886
30
0
40
3.2500000000000284
210
0
220
-0
230
1
100
AcDbArc
50
0
51
89.999999999998749
0
LINE
5
2C4
100
AcDbEntity
8
PERIMETER
100
AcDbLine
10
121.01895769999999
20
40.924903499999914
30
0
11
64.400530130979945
21
40.924903499999921
31
0
0
ARC
5
2C5
100
AcDbEntity
8
PERIMETER
100
AcDbCircle
10
64.400530130980016
20
42.09990349999984
30
0
40
1.1750000000000247
210
0
220
0
230
1
100
AcDbArc
50
197.94078200364933
51
269.99999999999653
0
LINE
5
2C6
100
AcDbEntity
8
PERIMETER
100
AcDbLine
10
63.282664044819157
20
41.737963707477022
30
0
11
62.78659318374828
21
43.270099171384828
31
0
0
ARC
5
2C7
100
AcDbEntity
8
PERIMETER
100
AcDbCircle
10
60.0989577
20
42.399903499999922
30
0
40
2.8249999999999793
210
0
220
-0
230
1
100
AcDbArc
50
17.940782003655354
51
162.05921799634646
0
LINE
5
2C8
100
AcDbEntity
8
PERIMETER
100
AcDbLine
10
57.411322216251648
20
43.270099171384757
30
0
11
56.9152513551807
21
41.737963707477093
31
0
0
ARC
5
2C9
100
AcDbEntity
8
PERIMETER
100
AcDbCircle
10
55.797385269019841
20
42.099903500000053
30
0
40
1.1750000000000682
210
-0
220
0
230
1
100
AcDbArc
50
270.00000000000347
51
342.05921799634399
0
LINE
5
2CA
100
AcDbEntity
8
PERIMETER
100
AcDbLine
10
55.797385269019912
20
40.924903499999985
30
0
11
-55.797385269019912
21
40.924903499999999
31
0
0
ARC
5
2CB
100
AcDbEntity
8
PERIMETER
100
AcDbCircle
10
-55.797385269019841
20
42.09990349999984
30
0
40
1.1750000000000247
210
0
220
0
230
1
100
AcDbArc
50
197.94078200364933
51
269.99999999999653
0
LINE
5
2CC
100
AcDbEntity
8
PERIMETER
100
AcDbLine
10
-56.9152513551807
20
41.737963707477022
30
0
11
-57.411322216251719
21
43.270099171384828
31
0
0
ARC
5
2CD
100
AcDbEntity
8
PERIMETER
100
AcDbCircle
10
-60.0989577
20
42.399903500000065
30
0
40
2.8249999999999353
210
0
220
-0
230
1
100
AcDbArc
50
17.940782003652629
51
162.05921799634737
0
LINE
5
2CE
100
AcDbEntity
8
PERIMETER
100
AcDbLine
10
-62.78659318374828
20
43.270099171384828
30
0
11
-63.282664044819228
21
41.737963707477093
31
0
0
ARC
5
2CF
100
AcDbEntity
8
PERIMETER
100
AcDbCircle
10
-64.400530130980016
20
42.099903499999911
30
0
40
1.1749999999999261
210
0
220
0
230
1
100
AcDbArc
50
269.99999999999307
51
342.0592179963495
0
LINE
5
2D0
100
AcDbEntity
8
PERIMETER
100
AcDbLine
10
-64.400530130980158
20
40.924903499999985
30
0
11
-121.01895769999999
21
40.924903499999992
31
0
0
ARC
5
2D1
100
AcDbEntity
8
PERIMETER
100
AcDbCircle
10
-121.01895770000002
20
37.674903500000028
30
0
40
3.2500000000000284
210
0
220
-0
230
1
100
AcDbArc
50
90
51
180
0
ENDSEC
0
SECTION
2
OBJECTS
0
DICTIONARY
5
C
100
AcDbDictionary
3
ACAD_GROUP
350
D
3
ACAD_MLINESTYLE
350
17
0
DICTIONARY
5
D
100
AcDbDictionary
0
DICTIONARY
5
1A
330
C
100
AcDbDictionary
0
DICTIONARY
5
17
100
AcDbDictionary
0
ENDSEC
0
EOF
