0
SECTION
2
HEADER
9
$INSUNITS
70
4
9
$ACADVER
1
AC1014
9
$HANDSEED
5
FFFF
0
ENDSEC
0
SECTION
2
TABLES
0
TABLE
2
VPORT
5
8
100
AcDbSymbolTable
0
ENDTAB
0
TABLE
2
LTYPE
5
5
100
AcDbSymbolTable
0
LTYPE
5
14
100
AcDbSymbolTableRecord
100
AcDbLinetypeTableRecord
2
BYBLOCK
70
0
0
LTYPE
5
15
100
AcDbSymbolTableRecord
100
AcDbLinetypeTableRecord
2
BYLAYER
70
0
0
ENDTAB
0
TABLE
2
LAYER
5
2
100
AcDbSymbolTable
70
2
0
LAYER
5
50
100
AcDbSymbolTableRecord
100
AcDbLayerTableRecord
2
0
70
0
6
CONTINUOUS
0
ENDTAB
0
TABLE
2
STYLE
5
3
100
AcDbSymbolTable
70
1
0
STYLE
5
11
100
AcDbSymbolTableRecord
100
AcDbTextStyleTableRecord
2
STANDARD
70
0
0
ENDTAB
0
TABLE
2
VIEW
5
6
100
AcDbSymbolTable
70
0
0
ENDTAB
0
TABLE
2
UCS
5
7
100
AcDbSymbolTable
70
0
0
ENDTAB
0
TABLE
2
APPID
5
9
100
AcDbSymbolTable
70
2
0
APPID
5
12
100
AcDbSymbolTableRecord
100
AcDbRegAppTableRecord
2
ACAD
70
0
0
ENDTAB
0
TABLE
2
DIMSTYLE
5
A
100
AcDbSymbolTable
70
1
0
ENDTAB
0
TABLE
2
BLOCK_RECORD
5
1
100
AcDbSymbolTable
70
1
0
BLOCK_RECORD
5
1F
100
AcDbSymbolTableRecord
100
AcDbBlockTableRecord
2
*MODEL_SPACE
0
BLOCK_RECORD
5
1B
100
AcDbSymbolTableRecord
100
AcDbBlockTableRecord
2
*PAPER_SPACE
0
ENDTAB
0
ENDSEC
0
SECTION
2
BLOCKS
0
BLOCK
5
20
100
AcDbEntity
100
AcDbBlockBegin
2
*MODEL_SPACE
0
ENDBLK
5
21
100
AcDbEntity
100
AcDbBlockEnd
0
BLOCK
5
1C
100
AcDbEntity
100
AcDbBlockBegin
2
*PAPER_SPACE
0
ENDBLK
5
1D
100
AcDbEntity
100
AcDbBlockEnd
0
ENDSEC
0
SECTION
2
ENTITIES
0
CIRCLE
5
100
100
AcDbEntity
8
0
100
AcDbCircle
10
-140.5796650831503
20
21.527576960379761
30
-5.5511151231257827e-16
40
2.5
210
0
220
0
230
1
0
CIRCLE
5
101
100
AcDbEntity
8
0
100
AcDbCircle
10
-141.37812524999998
20
-36.512500500000066
30
0
40
1.0999999999999943
210
0
220
0
230
1
0
CIRCLE
5
102
100
AcDbEntity
8
0
100
AcDbCircle
10
141.19687475000012
20
-36.512500500000073
30
0
40
1.0999999999999943
210
0
220
0
230
1
0
CIRCLE
5
103
100
AcDbEntity
8
0
100
AcDbCircle
10
-57.240625249999972
20
36.51249949999994
30
0
40
1.0999999999999943
210
0
220
0
230
1
0
CIRCLE
5
104
100
AcDbEntity
8
0
100
AcDbCircle
10
57.059374750000046
20
36.51249949999994
30
0
40
1.0999999999999943
210
0
220
0
230
1
0
CIRCLE
5
105
100
AcDbEntity
8
0
100
AcDbCircle
10
-141.37812524999998
20
36.512499499999961
30
0
40
1.0999999999999943
210
0
220
0
230
1
0
CIRCLE
5
106
100
AcDbEntity
8
0
100
AcDbCircle
10
-2.4718752499999574
20
-36.512500500000058
30
0
40
1.0999999999999943
210
0
220
0
230
1
0
CIRCLE
5
107
100
AcDbEntity
8
0
100
AcDbCircle
10
141.19687475000012
20
36.512499499999961
30
0
40
1.0999999999999943
210
0
220
0
230
1
0
CIRCLE
5
108
100
AcDbEntity
8
0
100
AcDbCircle
10
138.87812524999998
20
40.600000499999986
30
0
40
1.25
210
0
220
0
230
1
0
CIRCLE
5
109
100
AcDbEntity
8
0
100
AcDbCircle
10
-138.87812524999995
20
-40.600000500000064
30
0
40
1.25
210
0
220
0
230
1
0
CIRCLE
5
110
100
AcDbEntity
8
0
100
AcDbCircle
10
-145.46562524999996
20
-5.0000006801553809e-07
30
0
40
1.25
210
0
220
0
230
1
0
CIRCLE
5
111
100
AcDbEntity
8
0
100
AcDbCircle
10
138.87812524999998
20
-40.600000500000064
30
0
40
1.25
210
0
220
0
230
1
0
CIRCLE
5
112
100
AcDbEntity
8
0
100
AcDbCircle
10
-2.4845390956262925
20
40.600000499999965
30
0
40
1.25
210
0
220
0
230
1
0
CIRCLE
5
113
100
AcDbEntity
8
0
100
AcDbCircle
10
-2.4845390956262925
20
-40.60000050000005
30
0
40
1.25
210
0
220
0
230
1
0
CIRCLE
5
114
100
AcDbEntity
8
0
100
AcDbCircle
10
-138.87812524999995
20
40.600000499999986
30
0
40
1.25
210
0
220
0
230
1
0
CIRCLE
5
115
100
AcDbEntity
8
0
100
AcDbCircle
10
145.46562525000002
20
-5.0000006801553809e-07
30
0
40
1.25
210
0
220
0
230
1
0
ARC
5
116
100
AcDbEntity
8
0
100
AcDbCircle
10
-144.96562524999996
20
0.49999949999993021
30
0
40
2.0000000000000084
210
0
220
0
230
1
100
AcDbArc
50
104.4775121859299
51
180
0
LINE
5
117
100
AcDbEntity
8
0
100
AcDbLine
10
-146.96562524999996
20
0.49999949999993909
30
0
11
-146.96562524999996
21
-0.50000050000006624
31
0
0
ARC
5
118
100
AcDbEntity
8
0
100
AcDbCircle
10
-144.96562524999999
20
-0.50000050000007512
30
0
40
1.9999999999999929
210
0
220
0
230
1
100
AcDbArc
50
180
51
255.52248781407084
0
ARC
5
119
100
AcDbEntity
8
0
100
AcDbCircle
10
-145.96562524999996
20
-4.3729838462074699
30
0
40
1.9999999999999929
210
-0
220
0
230
1
100
AcDbArc
50
0
51
75.522487814070018
0
LINE
5
120
100
AcDbEntity
8
0
100
AcDbLine
10
-143.96562524999996
20
-4.3729838462074788
30
0
11
-143.96562524999999
21
-36.512500500000058
31
0
0
ARC
5
121
100
AcDbEntity
8
0
100
AcDbCircle
10
-141.37812524999998
20
-36.512500500000066
30
0
40
2.5875000000000092
210
0
220
0
230
1
100
AcDbArc
50
180
51
244.69844811669955
0
ARC
5
122
100
AcDbEntity
8
0
100
AcDbCircle
10
-143.33874178399267
20
-40.659926093863618
30
0
40
1.9999999999999969
210
0
220
-0
230
1
100
AcDbArc
50
8.0467698585184824
51
64.698448116699126
0
ARC
5
123
100
AcDbEntity
8
0
100
AcDbCircle
10
-139.37812524999995
20
-40.100000500000057
30
0
40
1.9999999999999993
210
0
220
0
230
1
100
AcDbArc
50
188.04676985851913
51
270
0
LINE
5
124
100
AcDbEntity
8
0
100
AcDbLine
10
-139.37812524999995
20
-42.100000500000064
30
0
11
-138.37812524999998
21
-42.100000500000064
31
0
0
ARC
5
125
100
AcDbEntity
8
0
100
AcDbCircle
10
-138.37812524999998
20
-40.100000500000057
30
0
40
2.0000000000000107
210
-0
220
0
230
1
100
AcDbArc
50
270
51
345.52248781407002
0
ARC
5
126
100
AcDbEntity
8
0
100
AcDbCircle
10
-134.50514190379255
20
-41.100000500000071
30
0
40
2.0000000000000018
210
0
220
-0
230
1
100
AcDbArc
50
90
51
165.52248781406976
0
LINE
5
127
100
AcDbEntity
8
0
100
AcDbLine
10
-134.50514190379255
20
-39.100000500000071
30
0
11
-6.8575224418337122
21
-39.100000500000043
31
0
0
ARC
5
128
100
AcDbEntity
8
0
100
AcDbCircle
10
-6.8575224418337122
20
-41.100000500000043
30
0
40
1.9999999999999973
210
0
220
-0
230
1
100
AcDbArc
50
14.47751218592974
51
90
0
ARC
5
129
100
AcDbEntity
8
0
100
AcDbCircle
10
-2.9845390956262818
20
-40.10000050000005
30
0
40
2.0000000000000147
210
0
220
0
230
1
100
AcDbArc
50
194.47751218592981
51
269.99999999999949
0
LINE
5
130
100
AcDbEntity
8
0
100
AcDbLine
10
-2.9845390956262996
20
-42.100000500000064
30
0
11
-1.9845390956262854
21
-42.10000050000005
31
0
0
ARC
5
131
100
AcDbEntity
8
0
100
AcDbCircle
10
-1.9845390956262676
20
-40.100000500000078
30
0
40
1.9999999999999751
210
0
220
0
230
1
100
AcDbArc
50
269.99999999999949
51
345.52248781407081
0
ARC
5
132
100
AcDbEntity
8
0
100
AcDbCircle
10
1.8884442505811272
20
-41.100000500000029
30
0
40
1.999999999999984
210
0
220
-0
230
1
100
AcDbArc
50
90
51
165.52248781407022
0
LINE
5
133
100
AcDbEntity
8
0
100
AcDbLine
10
1.8884442505811272
20
-39.100000500000043
30
0
11
134.50514190379255
21
-39.100000500000014
31
0
0
ARC
5
134
100
AcDbEntity
8
0
100
AcDbCircle
10
134.50514190379255
20
-41.100000500000021
30
0
40
2.000000000000008
210
0
220
-0
230
1
100
AcDbArc
50
14.477512185929053
51
90
0
ARC
5
135
100
AcDbEntity
8
0
100
AcDbCircle
10
138.37812524999998
20
-40.100000500000064
30
0
40
2.000000000000008
210
0
220
0
230
1
100
AcDbArc
50
194.47751218592904
51
270
0
LINE
5
136
100
AcDbEntity
8
0
100
AcDbLine
10
138.37812524999998
20
-42.100000500000064
30
0
11
139.37812525000001
21
-42.100000500000064
31
0
0
ARC
5
137
100
AcDbEntity
8
0
100
AcDbCircle
10
139.37812525000001
20
-40.100000500000078
30
0
40
1.9999999999999929
210
-0
220
0
230
1
100
AcDbArc
50
270
51
353.35819709126196
0
ARC
5
138
100
AcDbEntity
8
0
100
AcDbCircle
10
143.35127982301748
20
-40.56264803204833
30
0
40
2.0000000000000178
210
0
220
0
230
1
100
AcDbArc
50
118.00996268236021
51
173.35819709126184
0
ARC
5
139
100
AcDbEntity
8
0
100
AcDbCircle
10
141.19687475000012
20
-36.512500500000073
30
0
40
2.5874999999999364
210
-0
220
0
230
1
100
AcDbArc
50
-61.990037317640038
51
0
0
LINE
5
140
100
AcDbEntity
8
0
100
AcDbLine
10
143.78437475000004
20
-36.512500500000051
30
0
11
143.7843747500001
21
-4.5000005000000698
31
0
0
ARC
5
141
100
AcDbEntity
8
0
100
AcDbCircle
10
145.78437475000007
20
-4.5000005000000698
30
0
40
1.9999999999999964
210
0
220
0
230
1
100
AcDbArc
50
101.8111988952712
51
180
0
ARC
5
142
100
AcDbEntity
8
0
100
AcDbCircle
10
144.96562524999996
20
-0.58469090097092113
30
0
40
2.0000000000000298
210
-0
220
0
230
1
100
AcDbArc
50
281.81119889527184
51
360
0
LINE
5
143
100
AcDbEntity
8
0
100
AcDbLine
10
146.96562524999999
20
-0.5846909009709389
30
0
11
146.96562524999999
21
0.58468990097081175
31
0
0
ARC
5
144
100
AcDbEntity
8
0
100
AcDbCircle
10
144.96562524999996
20
0.58468990097079399
30
0
40
2.0000000000000284
210
0
220
-0
230
1
100
AcDbArc
50
0
51
78.188801104727318
0
ARC
5
145
100
AcDbEntity
8
0
100
AcDbCircle
10
145.7843747500001
20
4.4999994999999338
30
0
40
1.9999999999999929
210
0
220
0
230
1
100
AcDbArc
50
180
51
258.18880110472878
0
LINE
5
146
100
AcDbEntity
8
0
100
AcDbLine
10
143.7843747500001
20
4.4999994999999338
30
0
11
143.78437475000015
21
36.512499499999926
31
0
0
ARC
5
147
100
AcDbEntity
8
0
100
AcDbCircle
10
141.19687475000012
20
36.512499499999961
30
0
40
2.587500000000027
210
-0
220
0
230
1
100
AcDbArc
50
0
51
61.990037317641082
0
ARC
5
148
100
AcDbEntity
8
0
100
AcDbCircle
10
143.35127982301748
20
40.562647032048289
30
0
40
2.0000000000000258
210
0
220
0
230
1
100
AcDbArc
50
186.64180290873983
51
241.9900373176398
0
ARC
5
149
100
AcDbEntity
8
0
100
AcDbCircle
10
139.37812525000007
20
40.099999500000038
30
0
40
1.9999999999999052
210
0
220
-0
230
1
100
AcDbArc
50
6.6418029087363539
51
90.000000000001634
0
LINE
5
150
100
AcDbEntity
8
0
100
AcDbLine
10
139.37812525000001
20
42.099999499999939
30
0
11
138.25110859620742
21
42.099999499999939
31
0
0
ARC
5
151
100
AcDbEntity
8
0
100
AcDbCircle
10
138.25110859620744
20
40.09999949999991
30
0
40
2.0000000000000284
210
0
220
0
230
1
100
AcDbArc
50
90.00000000000081
51
165.52248781406959
0
ARC
5
152
100
AcDbEntity
8
0
100
AcDbCircle
10
134.37812525000001
20
41.099999499999925
30
0
40
1.9999999999999929
210
-0
220
0
230
1
100
AcDbArc
50
270
51
345.5224878140703
0
LINE
5
153
100
AcDbEntity
8
0
100
AcDbLine
10
134.37812525000001
20
39.099999499999932
30
0
11
1.8884445087799229
21
39.099999499999932
31
0
0
ARC
5
154
100
AcDbEntity
8
0
100
AcDbCircle
10
1.8884445087799229
20
41.099999499999925
30
0
40
1.9999999999999969
210
0
220
0
230
1
100
AcDbArc
50
194.47749739222107
51
270
0
ARC
5
155
100
AcDbEntity
8
0
100
AcDbCircle
10
-1.9845390956262854
20
40.100000500000064
30
0
40
2.0000000000000067
210
0
220
-0
230
1
100
AcDbArc
50
14.47749739222227
51
89.999999999999943
0
LINE
5
156
100
AcDbEntity
8
0
100
AcDbLine
10
-1.9845390956262854
20
42.100000500000078
30
0
11
-3.1115554912200771
21
42.100000500000078
31
0
0
ARC
5
157
100
AcDbEntity
8
0
100
AcDbCircle
10
-3.1115554912200771
20
40.100000500000064
30
0
40
2.0000000000000107
210
0
220
-0
230
1
100
AcDbArc
50
89.999999999999986
51
165.52250260777839
0
ARC
5
158
100
AcDbEntity
8
0
100
AcDbCircle
10
-6.9845390956262854
20
41.09999949999991
30
0
40
1.9999999999999929
210
-0
220
0
230
1
100
AcDbArc
50
270
51
345.52250260777868
0
LINE
5
159
100
AcDbEntity
8
0
100
AcDbLine
10
-6.9845390956262854
20
39.099999499999917
30
0
11
-109.80187499998301
21
39.099999499999932
31
0
0
ARC
5
160
100
AcDbEntity
8
0
100
AcDbCircle
10
-109.80187499998301
20
38.099999499999939
30
0
40
0.99999999999999645
210
0
220
-0
230
1
100
AcDbArc
50
90
51
180
0
LINE
5
161
100
AcDbEntity
8
0
100
AcDbLine
10
-110.80187499998303
20
38.099999499999939
30
0
11
-110.80187499998303
21
30.30000000000652
31
0
0
ARC
5
162
100
AcDbEntity
8
0
100
AcDbCircle
10
-111.801874999983
20
30.299999999998064
30
0
40
0.99999999999999645
210
0
220
0
230
1
100
AcDbArc
50
-90.000000000048857
51
0
0
LINE
5
163
100
AcDbEntity
8
0
100
AcDbLine
10
-111.80187499998385
20
29.299999999998072
30
0
11
-121.80187499998598
21
29.300000000006456
31
0
0
ARC
5
164
100
AcDbEntity
8
0
100
AcDbCircle
10
-121.80187499998516
20
30.300000000006449
30
0
40
0.99999999999999645
210
0
220
0
230
1
100
AcDbArc
50
180
51
269.99999999995276
0
LINE
5
165
100
AcDbEntity
8
0
100
AcDbLine
10
-122.80187499998516
20
30.30000000000652
30
0
11
-122.80187499998517
21
38.099999499999939
31
0
0
ARC
5
166
100
AcDbEntity
8
0
100
AcDbCircle
10
-123.80187499998516
20
38.099999499999939
30
0
40
0.99999999999997868
210
0
220
-0
230
1
100
AcDbArc
50
0
51
90
0
LINE
5
167
100
AcDbEntity
8
0
100
AcDbLine
10
-123.80187499998516
20
39.099999499999917
30
0
11
-134.50514190379255
21
39.099999499999932
31
0
0
ARC
5
168
100
AcDbEntity
8
0
100
AcDbCircle
10
-134.50514190379255
20
41.099999499999925
30
0
40
1.9999999999999951
210
0
220
0
230
1
100
AcDbArc
50
194.4775121859297
51
270
0
ARC
5
169
100
AcDbEntity
8
0
100
AcDbCircle
10
-138.37812524999995
20
40.099999499999967
30
0
40
1.9999999999999909
210
0
220
-0
230
1
100
AcDbArc
50
14.477512185929053
51
90.00000000000081
0
LINE
5
170
100
AcDbEntity
8
0
100
AcDbLine
10
-138.37812524999995
20
42.099999499999939
30
0
11
-139.41488987915179
21
42.099999499999939
31
0
0
ARC
5
171
100
AcDbEntity
8
0
100
AcDbCircle
10
-139.41488987915179
20
40.099999499999932
30
0
40
2.0000000000000107
210
0
220
0
230
1
100
AcDbArc
50
90.00000000000081
51
172.22579604003192
0
ARC
5
172
100
AcDbEntity
8
0
100
AcDbCircle
10
-143.37812524999995
20
40.641077493692201
30
0
40
2.0000000000000009
210
-0
220
0
230
1
100
AcDbArc
50
295.84686081840545
51
352.22579604003209
0
ARC
5
173
100
AcDbEntity
8
0
100
AcDbCircle
10
-141.37812524999998
20
36.512499499999961
30
0
40
2.5874999999999702
210
0
220
0
230
1
100
AcDbArc
50
115.84686081840549
51
180
0
LINE
5
174
100
AcDbEntity
8
0
100
AcDbLine
10
-143.96562524999996
20
36.512499499999926
30
0
11
-143.96562524999999
21
4.3729828462073517
31
0
0
ARC
5
175
100
AcDbEntity
8
0
100
AcDbCircle
10
-145.96562524999999
20
4.3729828462073517
30
0
40
2
210
-0
220
0
230
1
100
AcDbArc
50
-75.522487814069308
51
0
0
ENDSEC
0
SECTION
2
OBJECTS
0
DICTIONARY
5
C
100
AcDbDictionary
3
ACAD_GROUP
350
D
3
ACAD_MLINESTYLE
350
17
0
DICTIONARY
5
D
100
AcDbDictionary
0
DICTIONARY
5
1A
330
C
100
AcDbDictionary
0
DICTIONARY
5
17
100
AcDbDictionary
0
ENDSEC
0
EOF
