0
SECTION
2
HEADER
9
$INSUNITS
70
4
9
$ACADVER
1
AC1014
9
$HANDSEED
5
FFFF
0
ENDSEC
0
SECTION
2
TABLES
0
TABLE
2
VPORT
5
8
100
AcDbSymbolTable
0
ENDTAB
0
TABLE
2
LTYPE
5
5
100
AcDbSymbolTable
0
LTYPE
5
14
100
AcDbSymbolTableRecord
100
AcDbLinetypeTableRecord
2
BYBLOCK
70
0
0
LTYPE
5
15
100
AcDbSymbolTableRecord
100
AcDbLinetypeTableRecord
2
BYLAYER
70
0
0
ENDTAB
0
TABLE
2
LAYER
5
2
100
AcDbSymbolTable
70
2
0
LAYER
5
50
100
AcDbSymbolTableRecord
100
AcDbLayerTableRecord
2
0
70
0
6
CONTINUOUS
0
ENDTAB
0
TABLE
2
STYLE
5
3
100
AcDbSymbolTable
70
1
0
STYLE
5
11
100
AcDbSymbolTableRecord
100
AcDbTextStyleTableRecord
2
STANDARD
70
0
0
ENDTAB
0
TABLE
2
VIEW
5
6
100
AcDbSymbolTable
70
0
0
ENDTAB
0
TABLE
2
UCS
5
7
100
AcDbSymbolTable
70
0
0
ENDTAB
0
TABLE
2
APPID
5
9
100
AcDbSymbolTable
70
2
0
APPID
5
12
100
AcDbSymbolTableRecord
100
AcDbRegAppTableRecord
2
ACAD
70
0
0
ENDTAB
0
TABLE
2
DIMSTYLE
5
A
100
AcDbSymbolTable
70
1
0
ENDTAB
0
TABLE
2
BLOCK_RECORD
5
1
100
AcDbSymbolTable
70
1
0
BLOCK_RECORD
5
1F
100
AcDbSymbolTableRecord
100
AcDbBlockTableRecord
2
*MODEL_SPACE
0
BLOCK_RECORD
5
1B
100
AcDbSymbolTableRecord
100
AcDbBlockTableRecord
2
*PAPER_SPACE
0
ENDTAB
0
ENDSEC
0
SECTION
2
BLOCKS
0
BLOCK
5
20
100
AcDbEntity
100
AcDbBlockBegin
2
*MODEL_SPACE
0
ENDBLK
5
21
100
AcDbEntity
100
AcDbBlockEnd
0
BLOCK
5
1C
100
AcDbEntity
100
AcDbBlockBegin
2
*PAPER_SPACE
0
ENDBLK
5
1D
100
AcDbEntity
100
AcDbBlockEnd
0
ENDSEC
0
SECTION
2
ENTITIES
0
CIRCLE
5
100
100
AcDbEntity
8
0
100
AcDbCircle
10
-57.150000000000048
20
36.512499999999989
30
0
40
1.1000000000000032
210
0
220
0
230
1
0
CIRCLE
5
101
100
AcDbEntity
8
0
100
AcDbCircle
10
-2.3812500000000369
20
-36.51250000000001
30
0
40
1.1000000000000001
210
0
220
0
230
1
0
CIRCLE
5
102
100
AcDbEntity
8
0
100
AcDbCircle
10
141.28749999999999
20
-36.51250000000001
30
0
40
1.0999999999999943
210
0
220
0
230
1
0
CIRCLE
5
103
100
AcDbEntity
8
0
100
AcDbCircle
10
141.28749999999999
20
36.512499999999989
30
0
40
1.0999999999999943
210
0
220
0
230
1
0
CIRCLE
5
104
100
AcDbEntity
8
0
100
AcDbCircle
10
57.149999999999963
20
36.512499999999989
30
0
40
1.1000000000000032
210
0
220
0
230
1
0
CIRCLE
5
105
100
AcDbEntity
8
0
100
AcDbCircle
10
-141.28750000000005
20
36.512499999999989
30
0
40
1.0999999999999943
210
0
220
0
230
1
0
CIRCLE
5
106
100
AcDbEntity
8
0
100
AcDbCircle
10
-141.28750000000005
20
-36.51250000000001
30
0
40
1.0999999999999943
210
0
220
0
230
1
0
LINE
5
107
100
AcDbEntity
8
0
100
AcDbLine
10
141.28749999999999
20
38.099999999999966
30
0
11
-141.28750000000002
21
38.099999999999994
31
0
0
ARC
5
108
100
AcDbEntity
8
0
100
AcDbCircle
10
-141.28750000000005
20
36.512499999999989
30
0
40
1.5874999999999995
210
0
220
-0
230
1
100
AcDbArc
50
89.999999999998991
51
180
0
LINE
5
109
100
AcDbEntity
8
0
100
AcDbLine
10
-142.87500000000006
20
36.512499999999989
30
0
11
-142.87500000000006
21
-36.512500000000003
31
0
0
ARC
5
110
100
AcDbEntity
8
0
100
AcDbCircle
10
-141.28750000000005
20
-36.51250000000001
30
0
40
1.587499999999995
210
0
220
0
230
1
100
AcDbArc
50
180
51
270
0
LINE
5
111
100
AcDbEntity
8
0
100
AcDbLine
10
-141.28750000000005
20
-38.100000000000016
30
0
11
141.28749999999999
21
-38.100000000000023
31
0
0
ARC
5
112
100
AcDbEntity
8
0
100
AcDbCircle
10
141.28749999999999
20
-36.51250000000001
30
0
40
1.5875000000000128
210
-0
220
0
230
1
100
AcDbArc
50
-90
51
0
0
LINE
5
113
100
AcDbEntity
8
0
100
AcDbLine
10
142.875
20
-36.51250000000001
30
0
11
142.87499999999997
21
36.512499999999982
31
0
0
ARC
5
114
100
AcDbEntity
8
0
100
AcDbCircle
10
141.28749999999999
20
36.512499999999989
30
0
40
1.5874999999999773
210
-0
220
0
230
1
100
AcDbArc
50
0
51
90
0
ARC
5
115
100
AcDbEntity
8
0
100
AcDbCircle
10
-87.462500000000034
20
3.0249999999999844
30
0
40
0.50000000000000711
210
0
220
0
230
1
100
AcDbArc
50
180
51
270
0
LINE
5
116
100
AcDbEntity
8
0
100
AcDbLine
10
-74.462500000000048
20
2.5249999999999861
30
0
11
-87.462500000000034
21
2.5249999999999817
31
0
0
ARC
5
117
100
AcDbEntity
8
0
100
AcDbCircle
10
-74.462500000000048
20
3.0249999999999844
30
0
40
0.49999999999999822
210
-0
220
0
230
1
100
AcDbArc
50
-90
51
0
0
LINE
5
118
100
AcDbEntity
8
0
100
AcDbLine
10
-73.962500000000063
20
16.024999999999991
30
0
11
-73.962500000000063
21
3.0249999999999888
31
0
0
ARC
5
119
100
AcDbEntity
8
0
100
AcDbCircle
10
-74.462500000000048
20
16.024999999999991
30
0
40
0.49999999999999822
210
0
220
-0
230
1
100
AcDbArc
50
0
51
90
0
LINE
5
120
100
AcDbEntity
8
0
100
AcDbLine
10
-87.462500000000034
20
16.524999999999981
30
0
11
-74.462500000000048
21
16.524999999999981
31
0
0
ARC
5
121
100
AcDbEntity
8
0
100
AcDbCircle
10
-87.462500000000034
20
16.024999999999991
30
0
40
0.49999999999999822
210
0
220
-0
230
1
100
AcDbArc
50
90
51
180
0
LINE
5
122
100
AcDbEntity
8
0
100
AcDbLine
10
-87.962500000000034
20
3.0249999999999844
30
0
11
-87.962500000000034
21
16.024999999999988
31
0
0
LINE
5
123
100
AcDbEntity
8
0
100
AcDbLine
10
-55.412500000000037
20
2.5249999999999861
30
0
11
-68.412500000000037
21
2.5249999999999861
31
0
0
ARC
5
124
100
AcDbEntity
8
0
100
AcDbCircle
10
-68.412500000000037
20
3.0249999999999844
30
0
40
0.49999999999999822
210
0
220
0
230
1
100
AcDbArc
50
180
51
270
0
LINE
5
125
100
AcDbEntity
8
0
100
AcDbLine
10
-68.912500000000037
20
3.0249999999999844
30
0
11
-68.912500000000037
21
16.024999999999988
31
0
0
ARC
5
126
100
AcDbEntity
8
0
100
AcDbCircle
10
-68.412500000000037
20
16.024999999999991
30
0
40
0.49999999999999822
210
0
220
-0
230
1
100
AcDbArc
50
90
51
180
0
LINE
5
127
100
AcDbEntity
8
0
100
AcDbLine
10
-68.412500000000037
20
16.524999999999981
30
0
11
-55.412499000000039
21
16.525000999999993
31
0
0
ARC
5
128
100
AcDbEntity
8
0
100
AcDbCircle
10
-55.412500000000037
20
16.025000999999985
30
0
40
0.50000000000100708
210
-0
220
0
230
1
100
AcDbArc
50
-0.0001145902915529748
51
89.999885408442083
0
LINE
5
129
100
AcDbEntity
8
0
100
AcDbLine
10
-54.912500000000023
20
16.024999999999991
30
0
11
-54.912500000000044
21
3.0249999999999888
31
0
0
ARC
5
130
100
AcDbEntity
8
0
100
AcDbCircle
10
-55.412500000000037
20
3.0249999999999844
30
0
40
0.49999999999999822
210
-0
220
0
230
1
100
AcDbArc
50
-90
51
0
0
LINE
5
131
100
AcDbEntity
8
0
100
AcDbLine
10
-59.675000000000026
20
35.074999999999989
30
0
11
-59.675000000000026
21
22.075000999999979
31
0
0
ARC
5
132
100
AcDbEntity
8
0
100
AcDbCircle
10
-60.17500000000004
20
22.07500099999999
30
0
40
0.49999999999999822
210
-0
220
0
230
1
100
AcDbArc
50
-90
51
0
0
LINE
5
133
100
AcDbEntity
8
0
100
AcDbLine
10
-60.17500000000004
20
21.575000999999983
30
0
11
-73.17500000000004
21
21.575000999999983
31
0
0
ARC
5
134
100
AcDbEntity
8
0
100
AcDbCircle
10
-73.17500000000004
20
22.07500099999999
30
0
40
0.49999999999999822
210
0
220
0
230
1
100
AcDbArc
50
180
51
270
0
LINE
5
135
100
AcDbEntity
8
0
100
AcDbLine
10
-73.67500000000004
20
22.07500099999999
30
0
11
-73.67500000000004
21
35.074999999999996
31
0
0
ARC
5
136
100
AcDbEntity
8
0
100
AcDbCircle
10
-73.17500000000004
20
35.074999999999989
30
0
40
0.49999999999999822
210
0
220
-0
230
1
100
AcDbArc
50
90
51
180
0
LINE
5
137
100
AcDbEntity
8
0
100
AcDbLine
10
-73.17500000000004
20
35.574999999999989
30
0
11
-60.174999000000042
21
35.575001
31
0
0
ARC
5
138
100
AcDbEntity
8
0
100
AcDbCircle
10
-60.17500000000004
20
35.075000999999979
30
0
40
0.50000000000100708
210
-0
220
0
230
1
100
AcDbArc
50
-0.0001145902915529748
51
89.999885408441259
0
LINE
5
139
100
AcDbEntity
8
0
100
AcDbLine
10
-78.725000000000051
20
35.074999999999989
30
0
11
-78.724999000000054
21
22.075000999999979
31
0
0
ARC
5
140
100
AcDbEntity
8
0
100
AcDbCircle
10
-79.225000000000051
20
22.07500099999999
30
0
40
0.50000100000000103
210
-0
220
0
230
1
100
AcDbArc
50
270
51
360
0
LINE
5
141
100
AcDbEntity
8
0
100
AcDbLine
10
-79.225000000000051
20
21.574999999999989
30
0
11
-92.225000000000037
21
21.575000999999993
31
0
0
ARC
5
142
100
AcDbEntity
8
0
100
AcDbCircle
10
-92.225000000000037
20
22.07500099999999
30
0
40
0.50000000000000711
210
0
220
0
230
1
100
AcDbArc
50
180
51
270
0
LINE
5
143
100
AcDbEntity
8
0
100
AcDbLine
10
-92.725000000000051
20
22.07500099999999
30
0
11
-92.725000000000051
21
35.074999999999996
31
0
0
ARC
5
144
100
AcDbEntity
8
0
100
AcDbCircle
10
-92.225000000000037
20
35.074999999999989
30
0
40
0.49999999999999822
210
0
220
-0
230
1
100
AcDbArc
50
90
51
180
0
LINE
5
145
100
AcDbEntity
8
0
100
AcDbLine
10
-92.225000000000037
20
35.574999999999989
30
0
11
-79.225000000000037
21
35.574999999999989
31
0
0
ARC
5
146
100
AcDbEntity
8
0
100
AcDbCircle
10
-79.225000000000051
20
35.074999999999989
30
0
40
0.49999999999999822
210
0
220
-0
230
1
100
AcDbArc
50
0
51
90
0
LINE
5
147
100
AcDbEntity
8
0
100
AcDbLine
10
-35.575000000000045
20
22.07500099999999
30
0
11
-35.575000000000045
21
35.074999999999996
31
0
0
ARC
5
148
100
AcDbEntity
8
0
100
AcDbCircle
10
-35.075000000000038
20
35.074999999999989
30
0
40
0.49999999999999822
210
0
220
-0
230
1
100
AcDbArc
50
90
51
180
0
LINE
5
149
100
AcDbEntity
8
0
100
AcDbLine
10
-35.075000000000038
20
35.574999999999989
30
0
11
-22.075000000000067
21
35.575000500228612
31
0
0
ARC
5
150
100
AcDbEntity
8
0
100
AcDbCircle
10
-22.075000000000049
20
35.074999999999989
30
0
40
0.50000000000000711
210
0
220
-0
230
1
100
AcDbArc
50
0
51
90.000000000002032
0
LINE
5
151
100
AcDbEntity
8
0
100
AcDbLine
10
-21.575000000000042
20
35.074999999999989
30
0
11
-21.575000000000042
21
22.075000999999979
31
0
0
ARC
5
152
100
AcDbEntity
8
0
100
AcDbCircle
10
-22.075000000000049
20
22.07500099999999
30
0
40
0.49999999999999822
210
-0
220
0
230
1
100
AcDbArc
50
-90
51
0
0
LINE
5
153
100
AcDbEntity
8
0
100
AcDbLine
10
-22.075000000000049
20
21.575000999999983
30
0
11
-35.075000000000038
21
21.574999999999989
31
0
0
ARC
5
154
100
AcDbEntity
8
0
100
AcDbCircle
10
-35.075000000000038
20
22.074999999999996
30
0
40
0.50000000000100708
210
0
220
0
230
1
100
AcDbArc
50
179.9998854097085
51
270.0000000000008
0
LINE
5
155
100
AcDbEntity
8
0
100
AcDbLine
10
-16.812500000000039
20
16.024999999999991
30
0
11
-16.812500000000039
21
3.0249999999999888
31
0
0
ARC
5
156
100
AcDbEntity
8
0
100
AcDbCircle
10
-17.312500000000046
20
3.0249999999999844
30
0
40
0.50000000000000266
210
-0
220
0
230
1
100
AcDbArc
50
-90
51
0
0
LINE
5
157
100
AcDbEntity
8
0
100
AcDbLine
10
-17.312500000000046
20
2.5249999999999773
30
0
11
-30.312499000000095
21
2.5250009999999756
31
0
0
ARC
5
158
100
AcDbEntity
8
0
100
AcDbCircle
10
-30.312500000000036
20
3.0250009999999872
30
0
40
0.50000000000100708
210
0
220
0
230
1
100
AcDbArc
50
180.00011459029153
51
270.00011459155223
0
LINE
5
159
100
AcDbEntity
8
0
100
AcDbLine
10
-30.812500000000043
20
3.0249999999999844
30
0
11
-30.812500000000043
21
16.024999999999988
31
0
0
ARC
5
160
100
AcDbEntity
8
0
100
AcDbCircle
10
-30.312500000000036
20
16.024999999999991
30
0
40
0.49999999999999822
210
0
220
-0
230
1
100
AcDbArc
50
90
51
180
0
LINE
5
161
100
AcDbEntity
8
0
100
AcDbLine
10
-30.312500000000036
20
16.524999999999981
30
0
11
-17.312500000000046
21
16.524999999999991
31
0
0
ARC
5
162
100
AcDbEntity
8
0
100
AcDbCircle
10
-17.312500000000046
20
16.024999999999991
30
0
40
0.50000000000000711
210
0
220
-0
230
1
100
AcDbArc
50
0
51
90
0
LINE
5
163
100
AcDbEntity
8
0
100
AcDbLine
10
-49.362500000000047
20
16.524999999999981
30
0
11
-36.36250000000004
21
16.525000999999982
31
0
0
ARC
5
164
100
AcDbEntity
8
0
100
AcDbCircle
10
-36.36250000000004
20
16.025000999999985
30
0
40
0.50000000000100708
210
-0
220
0
230
1
100
AcDbArc
50
-0.0001145902915529748
51
90.00000000000081
0
LINE
5
165
100
AcDbEntity
8
0
100
AcDbLine
10
-35.862500000000033
20
16.024999999999991
30
0
11
-35.862500000000033
21
3.0249999999999888
31
0
0
ARC
5
166
100
AcDbEntity
8
0
100
AcDbCircle
10
-36.36250000000004
20
3.0249999999999844
30
0
40
0.49999999999999822
210
-0
220
0
230
1
100
AcDbArc
50
-90
51
0
0
LINE
5
167
100
AcDbEntity
8
0
100
AcDbLine
10
-36.36250000000004
20
2.5249999999999861
30
0
11
-49.362500000000047
21
2.5249999999999817
31
0
0
ARC
5
168
100
AcDbEntity
8
0
100
AcDbCircle
10
-49.362500000000047
20
3.0249999999999844
30
0
40
0.50000000000000711
210
0
220
0
230
1
100
AcDbArc
50
180
51
270
0
LINE
5
169
100
AcDbEntity
8
0
100
AcDbLine
10
-49.862500000000054
20
3.0249999999999844
30
0
11
-49.862501000000051
21
16.024999999999988
31
0
0
ARC
5
170
100
AcDbEntity
8
0
100
AcDbCircle
10
-49.362501000000037
20
16.024999999999991
30
0
40
0.5000000000009982
210
0
220
-0
230
1
100
AcDbArc
50
89.999885408442083
51
180
0
LINE
5
171
100
AcDbEntity
8
0
100
AcDbLine
10
-54.625000000000057
20
22.07500099999999
30
0
11
-54.625000000000043
21
35.074999999999996
31
0
0
ARC
5
172
100
AcDbEntity
8
0
100
AcDbCircle
10
-54.12500000000005
20
35.074999999999989
30
0
40
0.49999999999999822
210
0
220
-0
230
1
100
AcDbArc
50
90
51
180
0
LINE
5
173
100
AcDbEntity
8
0
100
AcDbLine
10
-54.12500000000005
20
35.574999999999989
30
0
11
-41.125000000000099
21
35.575000500228612
31
0
0
ARC
5
174
100
AcDbEntity
8
0
100
AcDbCircle
10
-41.125000000000043
20
35.074999999999989
30
0
40
0.50000000000000711
210
0
220
-0
230
1
100
AcDbArc
50
0
51
90.000000000006523
0
LINE
5
175
100
AcDbEntity
8
0
100
AcDbLine
10
-40.625000000000036
20
35.074999999999989
30
0
11
-40.624999000000045
21
22.075000999999979
31
0
0
ARC
5
176
100
AcDbEntity
8
0
100
AcDbCircle
10
-41.125000000000043
20
22.07500099999999
30
0
40
0.50000100000000103
210
-0
220
0
230
1
100
AcDbArc
50
270
51
360
0
LINE
5
177
100
AcDbEntity
8
0
100
AcDbLine
10
-41.125000000000043
20
21.574999999999989
30
0
11
-54.12500000000005
21
21.574999999999992
31
0
0
ARC
5
178
100
AcDbEntity
8
0
100
AcDbCircle
10
-54.12500000000005
20
22.074999999999996
30
0
40
0.50000000000100708
210
0
220
0
230
1
100
AcDbArc
50
179.9998854097085
51
270.0000000000008
0
LINE
5
179
100
AcDbEntity
8
0
100
AcDbLine
10
-64.437500000000057
20
-3.025000000000011
30
0
11
-64.437500000000057
21
-16.02500000000002
31
0
0
ARC
5
180
100
AcDbEntity
8
0
100
AcDbCircle
10
-64.937500000000043
20
-16.02500000000002
30
0
40
0.49999999999999822
210
-0
220
0
230
1
100
AcDbArc
50
-90
51
0
0
LINE
5
181
100
AcDbEntity
8
0
100
AcDbLine
10
-64.937500000000043
20
-16.525000000000016
30
0
11
-77.937500000000043
21
-16.525000000000016
31
0
0
ARC
5
182
100
AcDbEntity
8
0
100
AcDbCircle
10
-77.937500000000043
20
-16.02500000000002
30
0
40
0.49999999999999822
210
0
220
0
230
1
100
AcDbArc
50
180
51
270
0
LINE
5
183
100
AcDbEntity
8
0
100
AcDbLine
10
-78.437500000000043
20
-16.02500000000002
30
0
11
-78.437500000000043
21
-3.025000000000011
31
0
0
ARC
5
184
100
AcDbEntity
8
0
100
AcDbCircle
10
-77.937500000000043
20
-3.025000000000011
30
0
40
0.49999999999999822
210
0
220
-0
230
1
100
AcDbArc
50
90
51
180
0
LINE
5
185
100
AcDbEntity
8
0
100
AcDbLine
10
-77.937500000000043
20
-2.5250000000000128
30
0
11
-64.937500000000043
21
-2.5250000000000128
31
0
0
ARC
5
186
100
AcDbEntity
8
0
100
AcDbCircle
10
-64.937500000000043
20
-3.025000000000011
30
0
40
0.49999999999999822
210
0
220
-0
230
1
100
AcDbArc
50
0
51
90
0
LINE
5
187
100
AcDbEntity
8
0
100
AcDbLine
10
11.262499999999953
20
-16.525000000000016
30
0
11
-1.737500000000054
21
-16.525000000000016
31
0
0
ARC
5
188
100
AcDbEntity
8
0
100
AcDbCircle
10
-1.737500000000054
20
-16.02500000000002
30
0
40
0.50000000000000711
210
0
220
0
230
1
100
AcDbArc
50
180
51
270
0
LINE
5
189
100
AcDbEntity
8
0
100
AcDbLine
10
-2.2375000000000611
20
-16.02500000000002
30
0
11
-2.2375000000000611
21
-3.025000000000011
31
0
0
ARC
5
190
100
AcDbEntity
8
0
100
AcDbCircle
10
-1.737500000000054
20
-3.025000000000011
30
0
40
0.49999999999999822
210
0
220
-0
230
1
100
AcDbArc
50
90
51
180
0
LINE
5
191
100
AcDbEntity
8
0
100
AcDbLine
10
-1.737500000000054
20
-2.5250000000000128
30
0
11
11.262499999999935
21
-2.5250000000000128
31
0
0
ARC
5
192
100
AcDbEntity
8
0
100
AcDbCircle
10
11.262499999999953
20
-3.025000000000011
30
0
40
0.50000000000000711
210
0
220
-0
230
1
100
AcDbArc
50
0
51
90.000000000002032
0
LINE
5
193
100
AcDbEntity
8
0
100
AcDbLine
10
11.76249999999996
20
-3.025000000000011
30
0
11
11.762500499770816
21
-16.025000000002841
31
0
0
ARC
5
194
100
AcDbEntity
8
0
100
AcDbCircle
10
11.262499999999953
20
-16.024999000000015
30
0
40
0.50000100000000103
210
-0
220
0
230
1
100
AcDbArc
50
270
51
359.99988540970844
0
ARC
5
195
100
AcDbEntity
8
0
100
AcDbCircle
10
-20.78750000000003
20
-16.02500000000002
30
0
40
0.50000000000000711
210
0
220
0
230
1
100
AcDbArc
50
180
51
270
0
LINE
5
196
100
AcDbEntity
8
0
100
AcDbLine
10
-7.7875000000000405
20
-16.525000000000016
30
0
11
-20.78750000000003
21
-16.525000000000027
31
0
0
ARC
5
197
100
AcDbEntity
8
0
100
AcDbCircle
10
-7.7875000000000405
20
-16.02500000000002
30
0
40
0.49999999999999822
210
-0
220
0
230
1
100
AcDbArc
50
-90
51
0
0
LINE
5
198
100
AcDbEntity
8
0
100
AcDbLine
10
-7.2875000000000334
20
-3.025000000000011
30
0
11
-7.2875000000000512
21
-16.02500000000002
31
0
0
ARC
5
199
100
AcDbEntity
8
0
100
AcDbCircle
10
-7.7875000000000405
20
-3.025000000000011
30
0
40
0.50000000000000711
210
0
220
-0
230
1
100
AcDbArc
50
0
51
90
0
LINE
5
200
100
AcDbEntity
8
0
100
AcDbLine
10
-20.78750000000003
20
-2.5250000000000128
30
0
11
-7.7875000000000405
21
-2.5250000000000039
31
0
0
ARC
5
201
100
AcDbEntity
8
0
100
AcDbCircle
10
-20.78750000000003
20
-3.025000000000011
30
0
40
0.49999999999999822
210
0
220
-0
230
1
100
AcDbArc
50
90
51
180
0
LINE
5
202
100
AcDbEntity
8
0
100
AcDbLine
10
-21.287500000000037
20
-16.02500000000002
30
0
11
-21.287500000000037
21
-3.025000000000011
31
0
0
ARC
5
203
100
AcDbEntity
8
0
100
AcDbCircle
10
-16.025000000000045
20
22.07500099999999
30
0
40
0.50000000000000711
210
0
220
0
230
1
100
AcDbArc
50
180
51
270
0
LINE
5
204
100
AcDbEntity
8
0
100
AcDbLine
10
-3.0250000000000554
20
21.575000999999983
30
0
11
-16.025000000000045
21
21.575000999999972
31
0
0
ARC
5
205
100
AcDbEntity
8
0
100
AcDbCircle
10
-3.0250000000000554
20
22.07500099999999
30
0
40
0.49999999999999822
210
-0
220
0
230
1
100
AcDbArc
50
-90
51
0
0
LINE
5
206
100
AcDbEntity
8
0
100
AcDbLine
10
-2.5250000000000483
20
35.074999999999989
30
0
11
-2.5250000000000483
21
22.075000999999979
31
0
0
ARC
5
207
100
AcDbEntity
8
0
100
AcDbCircle
10
-3.0250000000000554
20
35.075000999999979
30
0
40
0.50000000000100708
210
-0
220
0
230
1
100
AcDbArc
50
-0.0001145902915529748
51
89.99988540844025
0
LINE
5
208
100
AcDbEntity
8
0
100
AcDbLine
10
-16.025000000000045
20
35.574999999999989
30
0
11
-3.0249990000000437
21
35.575001
31
0
0
ARC
5
209
100
AcDbEntity
8
0
100
AcDbCircle
10
-16.025000000000045
20
35.074999999999989
30
0
40
0.49999999999999822
210
0
220
-0
230
1
100
AcDbArc
50
90
51
180
0
LINE
5
210
100
AcDbEntity
8
0
100
AcDbLine
10
-16.525000000000052
20
22.07500099999999
30
0
11
-16.525000000000052
21
35.074999999999996
31
0
0
ARC
5
211
100
AcDbEntity
8
0
100
AcDbCircle
10
-11.262500000000024
20
16.024999999999991
30
0
40
0.49999999999999822
210
0
220
-0
230
1
100
AcDbArc
50
90
51
180
0
LINE
5
212
100
AcDbEntity
8
0
100
AcDbLine
10
-11.762500000000031
20
3.0249999999999844
30
0
11
-11.762500000000031
21
16.024999999999988
31
0
0
ARC
5
213
100
AcDbEntity
8
0
100
AcDbCircle
10
-11.262500000000024
20
3.0249999999999844
30
0
40
0.50000000000000711
210
0
220
0
230
1
100
AcDbArc
50
180
51
270
0
LINE
5
214
100
AcDbEntity
8
0
100
AcDbLine
10
1.7374999999999652
20
2.5249999999999861
30
0
11
-11.262500000000024
21
2.5249999999999817
31
0
0
ARC
5
215
100
AcDbEntity
8
0
100
AcDbCircle
10
1.7374999999999652
20
3.0249999999999844
30
0
40
0.49999999999999822
210
-0
220
0
230
1
100
AcDbArc
50
-90
51
0
0
LINE
5
216
100
AcDbEntity
8
0
100
AcDbLine
10
2.2374999999999723
20
16.024999999999991
30
0
11
2.2374999999999723
21
3.0249999999999888
31
0
0
ARC
5
217
100
AcDbEntity
8
0
100
AcDbCircle
10
1.7374999999999652
20
16.025000999999985
30
0
40
0.50000000000100708
210
-0
220
0
230
1
100
AcDbArc
50
-0.0001145902915529748
51
90.000000000001009
0
LINE
5
218
100
AcDbEntity
8
0
100
AcDbLine
10
-11.262500000000024
20
16.524999999999981
30
0
11
1.7374999999999652
21
16.525001000000984
31
0
0
LINE
5
219
100
AcDbEntity
8
0
100
AcDbLine
10
-40.337500000000048
20
-16.02500000000002
30
0
11
-40.337500000000048
21
-3.025000000000011
31
0
0
ARC
5
220
100
AcDbEntity
8
0
100
AcDbCircle
10
-39.837500000000041
20
-3.025000000000011
30
0
40
0.49999999999999822
210
0
220
-0
230
1
100
AcDbArc
50
90
51
180
0
LINE
5
221
100
AcDbEntity
8
0
100
AcDbLine
10
-39.837500000000041
20
-2.5250000000000128
30
0
11
-26.837500000000087
21
-2.5249994997713898
31
0
0
ARC
5
222
100
AcDbEntity
8
0
100
AcDbCircle
10
-26.837500000000052
20
-3.025000000000011
30
0
40
0.50000000000000711
210
0
220
-0
230
1
100
AcDbArc
50
0
51
90.000000000004079
0
LINE
5
223
100
AcDbEntity
8
0
100
AcDbLine
10
-26.337500000000045
20
-3.025000000000011
30
0
11
-26.337500000000045
21
-16.02500000000002
31
0
0
ARC
5
224
100
AcDbEntity
8
0
100
AcDbCircle
10
-26.837500000000052
20
-16.02500000000002
30
0
40
0.49999999999999822
210
-0
220
0
230
1
100
AcDbArc
50
-90
51
0
0
LINE
5
225
100
AcDbEntity
8
0
100
AcDbLine
10
-26.837500000000052
20
-16.525000000000016
30
0
11
-39.837500000000041
21
-16.525000000000016
31
0
0
ARC
5
226
100
AcDbEntity
8
0
100
AcDbCircle
10
-39.837500000000041
20
-16.02500000000002
30
0
40
0.50000000000000711
210
0
220
0
230
1
100
AcDbArc
50
180
51
270
0
ARC
5
227
100
AcDbEntity
8
0
100
AcDbCircle
10
-58.887500000000053
20
-3.0249990000000171
30
0
40
0.4999990000000043
210
0
220
-0
230
1
100
AcDbArc
50
90
51
180
0
LINE
5
228
100
AcDbEntity
8
0
100
AcDbLine
10
-59.387501000000057
20
-16.02500000000002
30
0
11
-59.387499000000048
21
-3.0249990000000171
31
0
0
ARC
5
229
100
AcDbEntity
8
0
100
AcDbCircle
10
-58.887501000000043
20
-16.024999000000015
30
0
40
0.50000000000100708
210
0
220
0
230
1
100
AcDbArc
50
180.00011459029153
51
270.00011459155223
0
LINE
5
230
100
AcDbEntity
8
0
100
AcDbLine
10
-45.887500000000045
20
-16.525000000000016
30
0
11
-58.887500000000102
21
-16.524999000000022
31
0
0
ARC
5
231
100
AcDbEntity
8
0
100
AcDbCircle
10
-45.887500000000045
20
-16.02500000000002
30
0
40
0.49999999999999822
210
-0
220
0
230
1
100
AcDbArc
50
-90
51
0
0
LINE
5
232
100
AcDbEntity
8
0
100
AcDbLine
10
-45.387500000000038
20
-3.025000000000011
30
0
11
-45.387500000000038
21
-16.02500000000002
31
0
0
ARC
5
233
100
AcDbEntity
8
0
100
AcDbCircle
10
-45.887500000000045
20
-3.025000000000011
30
0
40
0.50000000000000711
210
0
220
-0
230
1
100
AcDbArc
50
0
51
90
0
LINE
5
234
100
AcDbEntity
8
0
100
AcDbLine
10
-58.887500000000053
20
-2.5250000000000128
30
0
11
-45.887500000000045
21
-2.5250000000000039
31
0
0
ARC
5
235
100
AcDbEntity
8
0
100
AcDbCircle
10
17.312499999999957
20
-3.025000000000011
30
0
40
0.49999999999999822
210
0
220
-0
230
1
100
AcDbArc
50
90
51
180
0
LINE
5
236
100
AcDbEntity
8
0
100
AcDbLine
10
16.81249999999995
20
-16.02500000000002
30
0
11
16.81249999999995
21
-3.025000000000011
31
0
0
ARC
5
237
100
AcDbEntity
8
0
100
AcDbCircle
10
17.312499999999957
20
-16.02500000000002
30
0
40
0.50000000000000711
210
0
220
0
230
1
100
AcDbArc
50
180
51
270
0
LINE
5
238
100
AcDbEntity
8
0
100
AcDbLine
10
30.312499999999964
20
-16.525000000000016
30
0
11
17.312499999999957
21
-16.525000000000016
31
0
0
ARC
5
239
100
AcDbEntity
8
0
100
AcDbCircle
10
30.312499999999964
20
-16.024999000000015
30
0
40
0.50000100000000103
210
-0
220
0
230
1
100
AcDbArc
50
270
51
359.99988540970844
0
LINE
5
240
100
AcDbEntity
8
0
100
AcDbLine
10
30.812499999999972
20
-3.025000000000011
30
0
11
30.812500499770863
21
-16.025000000002841
31
0
0
ARC
5
241
100
AcDbEntity
8
0
100
AcDbCircle
10
30.312499999999964
20
-3.025000000000011
30
0
40
0.50000000000000711
210
0
220
-0
230
1
100
AcDbArc
50
0
51
90
0
LINE
5
242
100
AcDbEntity
8
0
100
AcDbLine
10
17.312499999999957
20
-2.5250000000000128
30
0
11
30.312499999999964
21
-2.5249994997713898
31
0
0
ARC
5
243
100
AcDbEntity
8
0
100
AcDbCircle
10
49.362499999999976
20
-3.025000000000011
30
0
40
0.50000000000000711
210
0
220
-0
230
1
100
AcDbArc
50
0
51
90
0
LINE
5
244
100
AcDbEntity
8
0
100
AcDbLine
10
36.362499999999969
20
-2.5250000000000128
30
0
11
49.362499999999976
21
-2.5249994997713898
31
0
0
ARC
5
245
100
AcDbEntity
8
0
100
AcDbCircle
10
36.362499999999969
20
-3.025000000000011
30
0
40
0.49999999999999822
210
0
220
-0
230
1
100
AcDbArc
50
90
51
180
0
LINE
5
246
100
AcDbEntity
8
0
100
AcDbLine
10
35.862499999999962
20
-16.02500000000002
30
0
11
35.862499999999962
21
-3.025000000000011
31
0
0
ARC
5
247
100
AcDbEntity
8
0
100
AcDbCircle
10
36.362499999999969
20
-16.02500000000002
30
0
40
0.50000000000000711
210
0
220
0
230
1
100
AcDbArc
50
180
51
270
0
LINE
5
248
100
AcDbEntity
8
0
100
AcDbLine
10
49.362499999999976
20
-16.525000000000016
30
0
11
36.362499999999969
21
-16.525000000000016
31
0
0
ARC
5
249
100
AcDbEntity
8
0
100
AcDbCircle
10
49.362499999999976
20
-16.024999000000015
30
0
40
0.50000100000000103
210
-0
220
0
230
1
100
AcDbArc
50
270
51
359.99988540970844
0
LINE
5
250
100
AcDbEntity
8
0
100
AcDbLine
10
49.862499999999983
20
-3.025000000000011
30
0
11
49.862500499770874
21
-16.025000000002841
31
0
0
LINE
5
251
100
AcDbEntity
8
0
100
AcDbLine
10
35.574999999999939
20
35.074999999999989
30
0
11
35.575000999999915
21
22.075000999999979
31
0
0
ARC
5
252
100
AcDbEntity
8
0
100
AcDbCircle
10
35.074999999999932
20
22.07500099999999
30
0
40
0.50000100000000103
210
-0
220
0
230
1
100
AcDbArc
50
270
51
360
0
LINE
5
253
100
AcDbEntity
8
0
100
AcDbLine
10
35.074999999999932
20
21.574999999999989
30
0
11
22.07499999999996
21
21.57500049977137
31
0
0
ARC
5
254
100
AcDbEntity
8
0
100
AcDbCircle
10
22.07499999999996
20
22.07500099999999
30
0
40
0.50000000000000711
210
0
220
0
230
1
100
AcDbArc
50
180
51
270
0
LINE
5
255
100
AcDbEntity
8
0
100
AcDbLine
10
21.574999999999953
20
22.07500099999999
30
0
11
21.574999999999953
21
35.074999999999996
31
0
0
ARC
5
256
100
AcDbEntity
8
0
100
AcDbCircle
10
22.07499999999996
20
35.074999999999989
30
0
40
0.49999999999999822
210
0
220
-0
230
1
100
AcDbArc
50
90
51
180
0
LINE
5
257
100
AcDbEntity
8
0
100
AcDbLine
10
22.07499999999996
20
35.574999999999989
30
0
11
35.074999999999932
21
35.575000999999993
31
0
0
ARC
5
258
100
AcDbEntity
8
0
100
AcDbCircle
10
35.074999999999932
20
35.075000999999979
30
0
40
0.50000000000100708
210
-0
220
0
230
1
100
AcDbArc
50
-0.0001145902915529748
51
90.00000000000081
0
ARC
5
259
100
AcDbEntity
8
0
100
AcDbCircle
10
39.83749999999997
20
16.025000999999985
30
0
40
0.50000000000100708
210
-0
220
0
230
1
100
AcDbArc
50
-0.0001145902915529748
51
90.00000000000081
0
LINE
5
260
100
AcDbEntity
8
0
100
AcDbLine
10
26.837499999999963
20
16.524999999999981
30
0
11
39.83749999999997
21
16.525000999999982
31
0
0
ARC
5
261
100
AcDbEntity
8
0
100
AcDbCircle
10
26.837499999999963
20
16.024999999999991
30
0
40
0.49999999999999822
210
0
220
-0
230
1
100
AcDbArc
50
90
51
180
0
LINE
5
262
100
AcDbEntity
8
0
100
AcDbLine
10
26.337499999999956
20
3.0249999999999844
30
0
11
26.337499999999956
21
16.024999999999988
31
0
0
ARC
5
263
100
AcDbEntity
8
0
100
AcDbCircle
10
26.837499999999963
20
3.0249999999999844
30
0
40
0.50000000000000711
210
0
220
0
230
1
100
AcDbArc
50
180
51
270
0
LINE
5
264
100
AcDbEntity
8
0
100
AcDbLine
10
39.83749999999997
20
2.5249999999999861
30
0
11
26.837499999999963
21
2.5249999999999817
31
0
0
ARC
5
265
100
AcDbEntity
8
0
100
AcDbCircle
10
39.83749999999997
20
3.0249999999999844
30
0
40
0.49999999999999822
210
-0
220
0
230
1
100
AcDbArc
50
-90
51
0
0
LINE
5
266
100
AcDbEntity
8
0
100
AcDbLine
10
40.337499999999977
20
16.024999999999991
30
0
11
40.337499999999977
21
3.0249999999999888
31
0
0
LINE
5
267
100
AcDbEntity
8
0
100
AcDbLine
10
21.287499999999966
20
16.024999999999991
30
0
11
21.287499999999966
21
3.0249999999999888
31
0
0
ARC
5
268
100
AcDbEntity
8
0
100
AcDbCircle
10
20.787499999999959
20
3.0249999999999844
30
0
40
0.49999999999999822
210
-0
220
0
230
1
100
AcDbArc
50
-90
51
0
0
LINE
5
269
100
AcDbEntity
8
0
100
AcDbLine
10
20.787499999999959
20
2.5249999999999861
30
0
11
7.7874999999999517
21
2.5249999999999817
31
0
0
ARC
5
270
100
AcDbEntity
8
0
100
AcDbCircle
10
7.7874999999999517
20
3.0249999999999844
30
0
40
0.50000000000000711
210
0
220
0
230
1
100
AcDbArc
50
180
51
270
0
LINE
5
271
100
AcDbEntity
8
0
100
AcDbLine
10
7.2874999999999446
20
3.0249999999999844
30
0
11
7.2874999999999446
21
16.024999999999988
31
0
0
ARC
5
272
100
AcDbEntity
8
0
100
AcDbCircle
10
7.7874999999999517
20
16.024999999999991
30
0
40
0.49999999999999822
210
0
220
-0
230
1
100
AcDbArc
50
90
51
180
0
LINE
5
273
100
AcDbEntity
8
0
100
AcDbLine
10
7.7874999999999517
20
16.524999999999981
30
0
11
20.787499999999959
21
16.525000999999982
31
0
0
ARC
5
274
100
AcDbEntity
8
0
100
AcDbCircle
10
20.787499999999959
20
16.025000999999985
30
0
40
0.50000000000100708
210
-0
220
0
230
1
100
AcDbArc
50
-0.0001145902915529748
51
90.00000000000081
0
LINE
5
275
100
AcDbEntity
8
0
100
AcDbLine
10
16.024999999999956
20
21.574999999999989
30
0
11
3.0249999999999666
21
21.574999999999992
31
0
0
ARC
5
276
100
AcDbEntity
8
0
100
AcDbCircle
10
3.0249999999999666
20
22.074999999999996
30
0
40
0.50000000000100708
210
0
220
0
230
1
100
AcDbArc
50
179.9998854097085
51
270.00000000000051
0
LINE
5
277
100
AcDbEntity
8
0
100
AcDbLine
10
2.5249999999999595
20
22.07500099999999
30
0
11
2.5249999999999595
21
35.074999999999996
31
0
0
ARC
5
278
100
AcDbEntity
8
0
100
AcDbCircle
10
3.0249999999999666
20
35.074999999999989
30
0
40
0.49999999999999822
210
0
220
-0
230
1
100
AcDbArc
50
90
51
180
0
LINE
5
279
100
AcDbEntity
8
0
100
AcDbLine
10
3.0249999999999666
20
35.574999999999989
30
0
11
16.024999999999956
21
35.575000999999993
31
0
0
ARC
5
280
100
AcDbEntity
8
0
100
AcDbCircle
10
16.024999999999956
20
35.075000999999979
30
0
40
0.50000000000100708
210
-0
220
0
230
1
100
AcDbArc
50
-0.0001145902915529748
51
90.00000000000081
0
LINE
5
281
100
AcDbEntity
8
0
100
AcDbLine
10
16.524999999999963
20
35.074999999999989
30
0
11
16.525000999999957
21
22.075000999999979
31
0
0
ARC
5
282
100
AcDbEntity
8
0
100
AcDbCircle
10
16.024999999999956
20
22.07500099999999
30
0
40
0.50000100000000103
210
-0
220
0
230
1
100
AcDbArc
50
270
51
360
0
ARC
5
283
100
AcDbEntity
8
0
100
AcDbCircle
10
-93.512500000000045
20
3.0249999999999844
30
0
40
0.49999999999999822
210
-0
220
0
230
1
100
AcDbArc
50
-90
51
0
0
LINE
5
284
100
AcDbEntity
8
0
100
AcDbLine
10
-93.012500000000045
20
16.024999999999991
30
0
11
-93.012500000000045
21
3.0249999999999888
31
0
0
ARC
5
285
100
AcDbEntity
8
0
100
AcDbCircle
10
-93.512500000000045
20
16.024999999999991
30
0
40
0.50000000000000711
210
0
220
-0
230
1
100
AcDbArc
50
0
51
90
0
LINE
5
286
100
AcDbEntity
8
0
100
AcDbLine
10
-106.51250000000005
20
16.524999999999981
30
0
11
-93.512500000000045
21
16.524999999999981
31
0
0
ARC
5
287
100
AcDbEntity
8
0
100
AcDbCircle
10
-106.51250000000005
20
16.024999999999991
30
0
40
0.49999999999999822
210
0
220
-0
230
1
100
AcDbArc
50
90
51
180
0
LINE
5
288
100
AcDbEntity
8
0
100
AcDbLine
10
-107.01250000000005
20
3.0249999999999844
30
0
11
-107.01250000000005
21
16.024999999999988
31
0
0
ARC
5
289
100
AcDbEntity
8
0
100
AcDbCircle
10
-106.51250000000005
20
3.0249999999999844
30
0
40
0.50000000000000711
210
0
220
0
230
1
100
AcDbArc
50
180
51
270
0
LINE
5
290
100
AcDbEntity
8
0
100
AcDbLine
10
-93.512500000000045
20
2.5249999999999861
30
0
11
-106.51250000000005
21
2.5249999999999817
31
0
0
LINE
5
291
100
AcDbEntity
8
0
100
AcDbLine
10
-112.50575000000005
20
-3.5250000000000181
30
0
11
-106.50575000000005
21
-3.5250000000000181
31
0
0
ARC
5
292
100
AcDbEntity
8
0
100
AcDbCircle
10
-106.50575000000005
20
-4.0250000000000163
30
0
40
0.49999999999998934
210
0
220
-0
230
1
100
AcDbArc
50
0
51
90
0
LINE
5
293
100
AcDbEntity
8
0
100
AcDbLine
10
-106.00575000000005
20
-4.0250000000000163
30
0
11
-106.00575000000005
21
-18.02500000000002
31
0
0
ARC
5
294
100
AcDbEntity
8
0
100
AcDbCircle
10
-106.50575000000005
20
-18.02500000000002
30
0
40
0.49999999999999822
210
-0
220
0
230
1
100
AcDbArc
50
-90
51
0
0
LINE
5
295
100
AcDbEntity
8
0
100
AcDbLine
10
-106.50575000000005
20
-18.52500000000002
30
0
11
-112.50575000000005
21
-18.52500000000002
31
0
0
ARC
5
296
100
AcDbEntity
8
0
100
AcDbCircle
10
-112.50575000000005
20
-18.02500000000002
30
0
40
0.50000000000000711
210
0
220
0
230
1
100
AcDbArc
50
180
51
270
0
LINE
5
297
100
AcDbEntity
8
0
100
AcDbLine
10
-113.00575000000006
20
-18.02500000000002
30
0
11
-113.00575100000006
21
-4.0249990000000135
31
0
0
ARC
5
298
100
AcDbEntity
8
0
100
AcDbCircle
10
-112.50575100000005
20
-4.0250000000000163
30
0
40
0.5000000000009982
210
0
220
-0
230
1
100
AcDbArc
50
89.999885408441259
51
179.9998854097085
0
ARC
5
299
100
AcDbEntity
8
0
100
AcDbCircle
10
-96.987501000000051
20
-16.02500000000002
30
0
40
0.49999899999999542
210
0
220
0
230
1
100
AcDbArc
50
180
51
270
0
LINE
5
300
100
AcDbEntity
8
0
100
AcDbLine
10
-83.98750000000004
20
-16.525000000000016
30
0
11
-96.987501000000051
21
-16.524999000000022
31
0
0
ARC
5
301
100
AcDbEntity
8
0
100
AcDbCircle
10
-83.98750000000004
20
-16.02500000000002
30
0
40
0.49999999999999822
210
-0
220
0
230
1
100
AcDbArc
50
-90
51
0
0
LINE
5
302
100
AcDbEntity
8
0
100
AcDbLine
10
-83.48750000000004
20
-3.025000000000011
30
0
11
-83.48750000000004
21
-16.02500000000002
31
0
0
ARC
5
303
100
AcDbEntity
8
0
100
AcDbCircle
10
-83.98750000000004
20
-3.0249990000000171
30
0
40
0.50000000000100708
210
-0
220
0
230
1
100
AcDbArc
50
-0.0001145902915529748
51
89.999885408441259
0
LINE
5
304
100
AcDbEntity
8
0
100
AcDbLine
10
-96.98750000000004
20
-2.5250000000000128
30
0
11
-83.987499000000042
21
-2.5249990000000189
31
0
0
ARC
5
305
100
AcDbEntity
8
0
100
AcDbCircle
10
-96.98750000000004
20
-3.025000000000011
30
0
40
0.49999999999999822
210
0
220
-0
230
1
100
AcDbArc
50
90
51
180
0
LINE
5
306
100
AcDbEntity
8
0
100
AcDbLine
10
-97.48750000000004
20
-16.02500000000002
30
0
11
-97.48750000000004
21
-3.025000000000011
31
0
0
LINE
5
307
100
AcDbEntity
8
0
100
AcDbLine
10
-97.775001000000046
20
35.074999999999989
30
0
11
-97.775001000000046
21
22.075000999999979
31
0
0
ARC
5
308
100
AcDbEntity
8
0
100
AcDbCircle
10
-98.27500100000006
20
22.074999999999996
30
0
40
0.5000000000009982
210
-0
220
0
230
1
100
AcDbArc
50
-89.999885408441259
51
0.00011459029153797541
0
LINE
5
309
100
AcDbEntity
8
0
100
AcDbLine
10
-98.275000000000034
20
21.574999999999989
30
0
11
-111.27500000000005
21
21.575000999999986
31
0
0
ARC
5
310
100
AcDbEntity
8
0
100
AcDbCircle
10
-111.27500000000005
20
22.07500099999999
30
0
40
0.50000000000000711
210
0
220
0
230
1
100
AcDbArc
50
180
51
270
0
LINE
5
311
100
AcDbEntity
8
0
100
AcDbLine
10
-111.77500000000006
20
22.07500099999999
30
0
11
-111.77500000000006
21
35.074999999999996
31
0
0
ARC
5
312
100
AcDbEntity
8
0
100
AcDbCircle
10
-111.27500000000005
20
35.074999999999989
30
0
40
0.49999999999999822
210
0
220
-0
230
1
100
AcDbArc
50
90
51
180
0
LINE
5
313
100
AcDbEntity
8
0
100
AcDbLine
10
-111.27500000000005
20
35.574999999999989
30
0
11
-98.274999999997235
21
35.57500049977137
31
0
0
ARC
5
314
100
AcDbEntity
8
0
100
AcDbCircle
10
-98.27500100000006
20
35.075000999999979
30
0
40
0.50000000000100708
210
-0
220
0
230
1
100
AcDbArc
50
-0.0001145902915529748
51
89.999885408003209
0
ARC
5
315
100
AcDbEntity
8
0
100
AcDbCircle
10
-66.031250000000043
20
-35.07500000000001
30
0
40
0.49999999999999822
210
0
220
0
230
1
100
AcDbArc
50
180
51
270
0
LINE
5
316
100
AcDbEntity
8
0
100
AcDbLine
10
-43.506250000000044
20
-35.57500000000001
30
0
11
-66.031250000000043
21
-35.57500000000001
31
0
0
ARC
5
317
100
AcDbEntity
8
0
100
AcDbCircle
10
-43.506250000000044
20
-35.07500000000001
30
0
40
0.49999999999999822
210
-0
220
0
230
1
100
AcDbArc
50
-90
51
0
0
LINE
5
318
100
AcDbEntity
8
0
100
AcDbLine
10
-43.006250000000037
20
-22.075000000000014
30
0
11
-43.006250000000037
21
-35.07500000000001
31
0
0
ARC
5
319
100
AcDbEntity
8
0
100
AcDbCircle
10
-43.506250000000044
20
-22.075000000000014
30
0
40
0.50000000000000711
210
0
220
-0
230
1
100
AcDbArc
50
0
51
90
0
LINE
5
320
100
AcDbEntity
8
0
100
AcDbLine
10
-58.406250000000043
20
-21.575000000000017
30
0
11
-43.506250000000044
21
-21.575000000000017
31
0
0
LINE
5
321
100
AcDbEntity
8
0
100
AcDbLine
10
-58.406250000000043
20
-20.07500000000001
30
0
11
-58.406250000000043
21
-21.575000000000017
31
0
0
ARC
5
322
100
AcDbEntity
8
0
100
AcDbCircle
10
-58.906251000000047
20
-20.07500000000001
30
0
40
0.50000100000000103
210
0
220
-0
230
1
100
AcDbArc
50
0
51
90
0
LINE
5
323
100
AcDbEntity
8
0
100
AcDbLine
10
-64.944250000000039
20
-19.575000000000014
30
0
11
-58.906251000000047
21
-19.57499900000002
31
0
0
ARC
5
324
100
AcDbEntity
8
0
100
AcDbCircle
10
-64.944250000000039
20
-20.07500000000001
30
0
40
0.49999999999999822
210
0
220
-0
230
1
100
AcDbArc
50
90
51
180
0
LINE
5
325
100
AcDbEntity
8
0
100
AcDbLine
10
-65.444250000000039
20
-21.575000000000017
30
0
11
-65.444250000000039
21
-20.07500000000001
31
0
0
LINE
5
326
100
AcDbEntity
8
0
100
AcDbLine
10
-66.031250000000043
20
-21.575000000000017
30
0
11
-65.444250000000039
21
-21.575000000000017
31
0
0
ARC
5
327
100
AcDbEntity
8
0
100
AcDbCircle
10
-66.031250000000043
20
-22.075000000000014
30
0
40
0.49999999999999822
210
0
220
-0
230
1
100
AcDbArc
50
90
51
180
0
LINE
5
328
100
AcDbEntity
8
0
100
AcDbLine
10
-66.531250000000043
20
-35.07500000000001
30
0
11
-66.531250000000043
21
-22.075000000000014
31
0
0
LINE
5
329
100
AcDbEntity
8
0
100
AcDbLine
10
-41.631750000000039
20
-34.075000000000017
30
0
11
-41.631750000000025
21
-20.075001000000015
31
0
0
ARC
5
330
100
AcDbEntity
8
0
100
AcDbCircle
10
-41.131750000000039
20
-20.07500000000001
30
0
40
0.5000000000009982
210
0
220
0
230
1
100
AcDbArc
50
90.000114591557931
51
180.00011459029153
0
LINE
5
331
100
AcDbEntity
8
0
100
AcDbLine
10
-41.13175100000003
20
-19.575000000000014
30
0
11
-35.068251000000039
21
-19.574999000000012
31
0
0
ARC
5
332
100
AcDbEntity
8
0
100
AcDbCircle
10
-35.068251000000039
20
-20.07500000000001
30
0
40
0.50000100000000103
210
0
220
-0
230
1
100
AcDbArc
50
0
51
90
0
LINE
5
333
100
AcDbEntity
8
0
100
AcDbLine
10
-34.568250000000035
20
-20.07500000000001
30
0
11
-34.568250000000035
21
-34.074998000000022
31
0
0
ARC
5
334
100
AcDbEntity
8
0
100
AcDbCircle
10
-35.068251000000039
20
-34.074999000000012
30
0
40
0.50000100000100101
210
-0
220
0
230
1
100
AcDbArc
50
-89.999885408671275
51
0.00011459029153797541
0
LINE
5
335
100
AcDbEntity
8
0
100
AcDbLine
10
-35.068250000000049
20
-34.575000000000017
30
0
11
-41.131749000000099
21
-34.57499900000002
31
0
0
ARC
5
336
100
AcDbEntity
8
0
100
AcDbCircle
10
-41.131750000000039
20
-34.074999000000012
30
0
40
0.50000000000100708
210
0
220
0
230
1
100
AcDbArc
50
180.00011459029153
51
270.00011459155223
0
LINE
5
337
100
AcDbEntity
8
0
100
AcDbLine
10
-76.843750000000043
20
-35.57500000000001
30
0
11
-89.843750000000028
21
-35.57500000000001
31
0
0
ARC
5
338
100
AcDbEntity
8
0
100
AcDbCircle
10
-89.843750000000028
20
-35.07500000000001
30
0
40
0.50000000000000711
210
0
220
0
230
1
100
AcDbArc
50
180
51
270
0
LINE
5
339
100
AcDbEntity
8
0
100
AcDbLine
10
-90.343750000000043
20
-35.07500000000001
30
0
11
-90.343750000000043
21
-22.075000000000014
31
0
0
ARC
5
340
100
AcDbEntity
8
0
100
AcDbCircle
10
-89.843750000000028
20
-22.075000000000014
30
0
40
0.49999999999999822
210
0
220
-0
230
1
100
AcDbArc
50
90
51
180
0
LINE
5
341
100
AcDbEntity
8
0
100
AcDbLine
10
-89.843750000000028
20
-21.575000000000017
30
0
11
-79.700000000000045
21
-21.575000000000017
31
0
0
LINE
5
342
100
AcDbEntity
8
0
100
AcDbLine
10
-79.700000000000045
20
-21.575000000000017
30
0
11
-79.700000000000045
21
-20.07500000000001
31
0
0
ARC
5
343
100
AcDbEntity
8
0
100
AcDbCircle
10
-79.200000000000045
20
-20.07500000000001
30
0
40
0.49999999999999822
210
0
220
-0
230
1
100
AcDbArc
50
90
51
180
0
LINE
5
344
100
AcDbEntity
8
0
100
AcDbLine
10
-79.200000000000045
20
-19.575000000000014
30
0
11
-73.200000000000045
21
-19.575000000000014
31
0
0
ARC
5
345
100
AcDbEntity
8
0
100
AcDbCircle
10
-73.200000000000045
20
-20.07500000000001
30
0
40
0.49999999999999822
210
0
220
-0
230
1
100
AcDbArc
50
0
51
90
0
LINE
5
346
100
AcDbEntity
8
0
100
AcDbLine
10
-72.700000000000045
20
-20.07500000000001
30
0
11
-72.700000000000045
21
-34.075000000000017
31
0
0
ARC
5
347
100
AcDbEntity
8
0
100
AcDbCircle
10
-73.200000000000045
20
-34.075000000000017
30
0
40
0.49999999999999822
210
-0
220
0
230
1
100
AcDbArc
50
-90
51
0
0
LINE
5
348
100
AcDbEntity
8
0
100
AcDbLine
10
-73.200000000000045
20
-34.575000000000017
30
0
11
-76.343750000000043
21
-34.575000000000017
31
0
0
LINE
5
349
100
AcDbEntity
8
0
100
AcDbLine
10
-76.343750000000043
20
-34.575000000000017
30
0
11
-76.343750000000043
21
-35.07500000000001
31
0
0
ARC
5
350
100
AcDbEntity
8
0
100
AcDbCircle
10
-76.843750000000043
20
-35.07500000000001
30
0
40
0.49999999999999822
210
-0
220
0
230
1
100
AcDbArc
50
-90
51
0
0
ARC
5
351
100
AcDbEntity
8
0
100
AcDbCircle
10
-5.4062500000000391
20
-22.075000000000014
30
0
40
0.50000000000000711
210
0
220
-0
230
1
100
AcDbArc
50
0
51
90
0
LINE
5
352
100
AcDbEntity
8
0
100
AcDbLine
10
-10.755750000000042
20
-21.575000000000017
30
0
11
-5.4062500000000391
21
-21.575000000000017
31
0
0
LINE
5
353
100
AcDbEntity
8
0
100
AcDbLine
10
-10.755750000000042
20
-20.07500000000001
30
0
11
-10.755750000000042
21
-21.575000000000017
31
0
0
ARC
5
354
100
AcDbEntity
8
0
100
AcDbCircle
10
-11.255750000000049
20
-20.07500000000001
30
0
40
0.50000000000000711
210
0
220
-0
230
1
100
AcDbArc
50
0
51
90
0
LINE
5
355
100
AcDbEntity
8
0
100
AcDbLine
10
-17.255750000000045
20
-19.575000000000014
30
0
11
-11.255750000000049
21
-19.575000000000014
31
0
0
ARC
5
356
100
AcDbEntity
8
0
100
AcDbCircle
10
-17.255750000000045
20
-20.07500000000001
30
0
40
0.49999999999999822
210
0
220
-0
230
1
100
AcDbArc
50
90
51
180
0
LINE
5
357
100
AcDbEntity
8
0
100
AcDbLine
10
-17.755750000000052
20
-21.575000000000017
30
0
11
-17.755750000000052
21
-20.07500000000001
31
0
0
LINE
5
358
100
AcDbEntity
8
0
100
AcDbLine
10
-32.693750000000037
20
-21.575000000000017
30
0
11
-17.755750000000052
21
-21.575000000000017
31
0
0
ARC
5
359
100
AcDbEntity
8
0
100
AcDbCircle
10
-32.693750000000037
20
-22.075000000000014
30
0
40
0.49999999999999822
210
0
220
-0
230
1
100
AcDbArc
50
90
51
180
0
LINE
5
360
100
AcDbEntity
8
0
100
AcDbLine
10
-33.193750000000044
20
-35.07500000000001
30
0
11
-33.193750000000044
21
-22.075000000000014
31
0
0
ARC
5
361
100
AcDbEntity
8
0
100
AcDbCircle
10
-32.693750000000037
20
-35.07500000000001
30
0
40
0.50000000000000711
210
0
220
0
230
1
100
AcDbArc
50
180
51
270
0
LINE
5
362
100
AcDbEntity
8
0
100
AcDbLine
10
-5.4062500000000391
20
-35.57500000000001
30
0
11
-32.693750000000037
21
-35.57500000000001
31
0
0
ARC
5
363
100
AcDbEntity
8
0
100
AcDbCircle
10
-5.4062500000000391
20
-35.07500000000001
30
0
40
0.49999999999999822
210
-0
220
0
230
1
100
AcDbArc
50
-90
51
0
0
LINE
5
364
100
AcDbEntity
8
0
100
AcDbLine
10
-4.906250000000032
20
-22.075000000000014
30
0
11
-4.9062500000000497
21
-35.07500000000001
31
0
0
ARC
5
365
100
AcDbEntity
8
0
100
AcDbCircle
10
6.4932499999999393
20
-20.07500000000001
30
0
40
0.49999999999999822
210
0
220
-0
230
1
100
AcDbArc
50
90
51
180
0
LINE
5
366
100
AcDbEntity
8
0
100
AcDbLine
10
5.99324999999995
20
-21.575000000000017
30
0
11
5.9932499999999322
21
-20.07500000000001
31
0
0
LINE
5
367
100
AcDbEntity
8
0
100
AcDbLine
10
0.64374999999996518
20
-21.575000000000017
30
0
11
5.99324999999995
21
-21.575000000000017
31
0
0
ARC
5
368
100
AcDbEntity
8
0
100
AcDbCircle
10
0.64374999999996518
20
-22.075000000000014
30
0
40
0.49999999999999822
210
0
220
-0
230
1
100
AcDbArc
50
89.999999999999986
51
180
0
LINE
5
369
100
AcDbEntity
8
0
100
AcDbLine
10
0.14374999999995808
20
-35.07500000000001
30
0
11
0.14374999999997584
21
-22.075000000000014
31
0
0
ARC
5
370
100
AcDbEntity
8
0
100
AcDbCircle
10
0.64374999999996518
20
-35.07500000000001
30
0
40
0.50000000000000711
210
0
220
0
230
1
100
AcDbArc
50
180
51
270
0
LINE
5
371
100
AcDbEntity
8
0
100
AcDbLine
10
39.83749999999997
20
-35.57500000000001
30
0
11
0.64374999999996518
21
-35.575000000000017
31
0
0
ARC
5
372
100
AcDbEntity
8
0
100
AcDbCircle
10
39.83749999999997
20
-35.07500000000001
30
0
40
0.49999999999999822
210
-0
220
0
230
1
100
AcDbArc
50
-90
51
0
0
LINE
5
373
100
AcDbEntity
8
0
100
AcDbLine
10
40.337499999999977
20
-34.575000000000017
30
0
11
40.337499999999977
21
-35.07500000000001
31
0
0
LINE
5
374
100
AcDbEntity
8
0
100
AcDbLine
10
41.093749999999964
20
-34.57499900000002
30
0
11
40.337499999999977
21
-34.575000000000017
31
0
0
ARC
5
375
100
AcDbEntity
8
0
100
AcDbCircle
10
41.093749999999964
20
-34.075000000000017
30
0
40
0.4999990000000043
210
-0
220
0
230
1
100
AcDbArc
50
-90
51
0
0
LINE
5
376
100
AcDbEntity
8
0
100
AcDbLine
10
41.593749999999972
20
-20.07500000000001
30
0
11
41.59374899999996
21
-34.075000000000017
31
0
0
ARC
5
377
100
AcDbEntity
8
0
100
AcDbCircle
10
41.093749999999964
20
-20.07499900000002
30
0
40
0.50000000000100708
210
-0
220
0
230
1
100
AcDbArc
50
-0.0001145902915529748
51
90
0
LINE
5
378
100
AcDbEntity
8
0
100
AcDbLine
10
30.369249999999965
20
-19.575000000000014
30
0
11
41.093749999999964
21
-19.574998999999018
31
0
0
ARC
5
379
100
AcDbEntity
8
0
100
AcDbCircle
10
30.369248999999954
20
-20.07499900000002
30
0
40
0.49999900000100428
210
0
220
-0
230
1
100
AcDbArc
50
89.99988540821046
51
179.9998854097085
0
LINE
5
380
100
AcDbEntity
8
0
100
AcDbLine
10
29.869249999999958
20
-21.575000000000017
30
0
11
29.869249999999958
21
-20.074998000000015
31
0
0
LINE
5
381
100
AcDbEntity
8
0
100
AcDbLine
10
12.993249999999943
20
-21.575000000000017
30
0
11
29.869249999999958
21
-21.575000000000017
31
0
0
LINE
5
382
100
AcDbEntity
8
0
100
AcDbLine
10
12.993249999999961
20
-20.07500000000001
30
0
11
12.993249999999943
21
-21.575000000000017
31
0
0
ARC
5
383
100
AcDbEntity
8
0
100
AcDbCircle
10
12.493249999999954
20
-20.07500000000001
30
0
40
0.50000000000000711
210
0
220
-0
230
1
100
AcDbArc
50
0
51
90
0
LINE
5
384
100
AcDbEntity
8
0
100
AcDbLine
10
6.4932499999999393
20
-19.575000000000014
30
0
11
12.493249999999954
21
-19.575000000000003
31
0
0
ARC
5
385
100
AcDbEntity
8
0
100
AcDbCircle
10
-93.512500000000045
20
-35.07500000000001
30
0
40
0.49999999999999822
210
-0
220
0
230
1
100
AcDbArc
50
-90
51
0
0
LINE
5
386
100
AcDbEntity
8
0
100
AcDbLine
10
-93.012500000000045
20
-22.075000000000014
30
0
11
-93.012500000000045
21
-35.07500000000001
31
0
0
ARC
5
387
100
AcDbEntity
8
0
100
AcDbCircle
10
-93.512500000000045
20
-22.075000000000014
30
0
40
0.50000000000000711
210
0
220
-0
230
1
100
AcDbArc
50
0
51
90
0
LINE
5
388
100
AcDbEntity
8
0
100
AcDbLine
10
-113.65625000000006
20
-21.575000000000017
30
0
11
-93.512500000000045
21
-21.575000000000017
31
0
0
ARC
5
389
100
AcDbEntity
8
0
100
AcDbCircle
10
-113.65625000000006
20
-22.075000000000014
30
0
40
0.49999999999999822
210
0
220
-0
230
1
100
AcDbArc
50
90
51
180
0
LINE
5
390
100
AcDbEntity
8
0
100
AcDbLine
10
-114.15625000000006
20
-35.07500000000001
30
0
11
-114.15625000000006
21
-22.075000000000014
31
0
0
ARC
5
391
100
AcDbEntity
8
0
100
AcDbCircle
10
-113.65625000000006
20
-35.07500000000001
30
0
40
0.50000000000000711
210
0
220
0
230
1
100
AcDbArc
50
180
51
270
0
LINE
5
392
100
AcDbEntity
8
0
100
AcDbLine
10
-93.512500000000045
20
-35.57500000000001
30
0
11
-113.65625000000006
21
-35.57500000000001
31
0
0
LINE
5
393
100
AcDbEntity
8
0
100
AcDbLine
10
64.937499999999943
20
16.524999999999981
30
0
11
77.937500999999969
21
16.525000999999993
31
0
0
ARC
5
394
100
AcDbEntity
8
0
100
AcDbCircle
10
77.937499999999957
20
16.025000999999985
30
0
40
0.50000000000100708
210
-0
220
0
230
1
100
AcDbArc
50
-0.0001145902915529748
51
89.999885408441259
0
LINE
5
395
100
AcDbEntity
8
0
100
AcDbLine
10
78.437499999999972
20
16.024999999999991
30
0
11
78.437499999999972
21
3.0249999999999888
31
0
0
ARC
5
396
100
AcDbEntity
8
0
100
AcDbCircle
10
77.937499999999957
20
3.0249999999999844
30
0
40
0.49999999999999822
210
-0
220
0
230
1
100
AcDbArc
50
-90
51
0
0
LINE
5
397
100
AcDbEntity
8
0
100
AcDbLine
10
77.937499999999957
20
2.5249999999999861
30
0
11
64.937499999999943
21
2.5249999999999773
31
0
0
ARC
5
398
100
AcDbEntity
8
0
100
AcDbCircle
10
64.937499999999943
20
3.0249999999999844
30
0
40
0.50000000000000711
210
0
220
0
230
1
100
AcDbArc
50
180
51
270
0
LINE
5
399
100
AcDbEntity
8
0
100
AcDbLine
10
64.437499999999943
20
3.0249999999999844
30
0
11
64.437499999999943
21
16.024999999999988
31
0
0
ARC
5
400
100
AcDbEntity
8
0
100
AcDbCircle
10
64.937499999999943
20
16.024999999999991
30
0
40
0.49999999999999822
210
0
220
-0
230
1
100
AcDbArc
50
90
51
180
0
ARC
5
401
100
AcDbEntity
8
0
100
AcDbCircle
10
83.987499999999955
20
16.024999999999991
30
0
40
0.49999999999999822
210
0
220
-0
230
1
100
AcDbArc
50
90
51
180
0
LINE
5
402
100
AcDbEntity
8
0
100
AcDbLine
10
83.487499999999955
20
3.0249999999999844
30
0
11
83.487499999999983
21
16.024999999999988
31
0
0
ARC
5
403
100
AcDbEntity
8
0
100
AcDbCircle
10
83.987499999999955
20
3.0249999999999844
30
0
40
0.50000000000000711
210
0
220
0
230
1
100
AcDbArc
50
180
51
270
0
LINE
5
404
100
AcDbEntity
8
0
100
AcDbLine
10
96.987499999999969
20
2.5249999999999861
30
0
11
83.987499999999955
21
2.5249999999999861
31
0
0
ARC
5
405
100
AcDbEntity
8
0
100
AcDbCircle
10
96.987499999999969
20
3.0249999999999844
30
0
40
0.49999999999999822
210
-0
220
0
230
1
100
AcDbArc
50
-90
51
0
0
LINE
5
406
100
AcDbEntity
8
0
100
AcDbLine
10
97.487499999999983
20
16.024999999999991
30
0
11
97.487499999999983
21
3.0249999999999888
31
0
0
ARC
5
407
100
AcDbEntity
8
0
100
AcDbCircle
10
96.987499999999969
20
16.025000999999985
30
0
40
0.50000000000100708
210
-0
220
0
230
1
100
AcDbArc
50
-0.0001145902915529748
51
90.000000000001634
0
LINE
5
408
100
AcDbEntity
8
0
100
AcDbLine
10
83.987499999999955
20
16.524999999999981
30
0
11
96.987499999999969
21
16.525000999999982
31
0
0
LINE
5
409
100
AcDbEntity
8
0
100
AcDbLine
10
114.44374999999997
20
3.0249999999999844
30
0
11
114.44374999999997
21
16.024999999999988
31
0
0
ARC
5
410
100
AcDbEntity
8
0
100
AcDbCircle
10
114.94374999999998
20
16.024999999999991
30
0
40
0.49999999999999822
210
0
220
-0
230
1
100
AcDbArc
50
90
51
180
0
LINE
5
411
100
AcDbEntity
8
0
100
AcDbLine
10
114.94374999999998
20
16.524999999999981
30
0
11
127.94375099999999
21
16.525000999999993
31
0
0
ARC
5
412
100
AcDbEntity
8
0
100
AcDbCircle
10
127.94374999999999
20
16.025000999999985
30
0
40
0.50000000000100708
210
-0
220
0
230
1
100
AcDbArc
50
-0.0001145902915529748
51
89.999885408442893
0
LINE
5
413
100
AcDbEntity
8
0
100
AcDbLine
10
128.44374999999999
20
16.024999999999991
30
0
11
128.44374999999999
21
3.0249999999999888
31
0
0
ARC
5
414
100
AcDbEntity
8
0
100
AcDbCircle
10
127.94374999999999
20
3.0249999999999844
30
0
40
0.49999999999999822
210
-0
220
0
230
1
100
AcDbArc
50
-90
51
0
0
LINE
5
415
100
AcDbEntity
8
0
100
AcDbLine
10
127.94374999999999
20
2.5249999999999861
30
0
11
114.94374999999998
21
2.5249999999999773
31
0
0
ARC
5
416
100
AcDbEntity
8
0
100
AcDbCircle
10
114.94374999999998
20
3.0249999999999844
30
0
40
0.50000000000000711
210
0
220
0
230
1
100
AcDbArc
50
180
51
270
0
LINE
5
417
100
AcDbEntity
8
0
100
AcDbLine
10
106.50574999999996
20
15.524999999999984
30
0
11
112.50574999999998
21
15.524999999999993
31
0
0
ARC
5
418
100
AcDbEntity
8
0
100
AcDbCircle
10
112.50574999999998
20
15.024999999999977
30
0
40
0.50000000000000711
210
0
220
-0
230
1
100
AcDbArc
50
0
51
90
0
LINE
5
419
100
AcDbEntity
8
0
100
AcDbLine
10
113.00574999999998
20
15.024999999999977
30
0
11
113.00574999999998
21
1.0249999999999737
31
0
0
ARC
5
420
100
AcDbEntity
8
0
100
AcDbCircle
10
112.50574999999998
20
1.0249999999999826
30
0
40
0.49999999999999822
210
-0
220
0
230
1
100
AcDbArc
50
-90
51
0
0
LINE
5
421
100
AcDbEntity
8
0
100
AcDbLine
10
112.50574999999998
20
0.52499999999998437
30
0
11
106.50574999999996
21
0.52499999999997549
31
0
0
ARC
5
422
100
AcDbEntity
8
0
100
AcDbCircle
10
106.50574999999996
20
1.0249999999999826
30
0
40
0.50000000000000711
210
0
220
0
230
1
100
AcDbArc
50
180
51
270
0
LINE
5
423
100
AcDbEntity
8
0
100
AcDbLine
10
106.00574999999995
20
1.0249999999999826
30
0
11
106.00574999999995
21
15.024999999999986
31
0
0
ARC
5
424
100
AcDbEntity
8
0
100
AcDbCircle
10
106.50574999999996
20
15.024999999999977
30
0
40
0.49999999999999822
210
0
220
-0
230
1
100
AcDbArc
50
90
51
180
0
LINE
5
425
100
AcDbEntity
8
0
100
AcDbLine
10
136.88174999999998
20
15.024999999999977
30
0
11
136.88174999999998
21
1.0249999999999737
31
0
0
ARC
5
426
100
AcDbEntity
8
0
100
AcDbCircle
10
136.38174999999995
20
1.0249999999999826
30
0
40
0.49999999999999822
210
-0
220
0
230
1
100
AcDbArc
50
-90
51
0
0
LINE
5
427
100
AcDbEntity
8
0
100
AcDbLine
10
136.38174999999995
20
0.52499999999998437
30
0
11
130.38174999999998
21
0.52499999999998437
31
0
0
ARC
5
428
100
AcDbEntity
8
0
100
AcDbCircle
10
130.38174999999998
20
1.0249999999999826
30
0
40
0.50000000000000711
210
0
220
0
230
1
100
AcDbArc
50
180
51
270
0
LINE
5
429
100
AcDbEntity
8
0
100
AcDbLine
10
129.88174999999998
20
1.0249999999999826
30
0
11
129.88174999999998
21
15.024999999999986
31
0
0
ARC
5
430
100
AcDbEntity
8
0
100
AcDbCircle
10
130.38174999999998
20
15.024999999999977
30
0
40
0.49999999999999822
210
0
220
-0
230
1
100
AcDbArc
50
90
51
180
0
LINE
5
431
100
AcDbEntity
8
0
100
AcDbLine
10
130.38174999999998
20
15.524999999999984
30
0
11
136.38174999999995
21
15.524999999999988
31
0
0
ARC
5
432
100
AcDbEntity
8
0
100
AcDbCircle
10
136.38174999999995
20
15.024999999999977
30
0
40
0.50000000000000711
210
0
220
-0
230
1
100
AcDbArc
50
0
51
90
0
LINE
5
433
100
AcDbEntity
8
0
100
AcDbLine
10
68.912499999999966
20
-3.025000000000011
30
0
11
68.912500499770815
21
-16.025000000002841
31
0
0
ARC
5
434
100
AcDbEntity
8
0
100
AcDbCircle
10
68.412499999999952
20
-16.024999000000015
30
0
40
0.50000100000000103
210
-0
220
0
230
1
100
AcDbArc
50
270
51
359.99988540970844
0
LINE
5
435
100
AcDbEntity
8
0
100
AcDbLine
10
68.412499999999952
20
-16.525000000000016
30
0
11
55.412499999999945
21
-16.525000000000016
31
0
0
ARC
5
436
100
AcDbEntity
8
0
100
AcDbCircle
10
55.412499999999945
20
-16.02500000000002
30
0
40
0.50000000000000711
210
0
220
0
230
1
100
AcDbArc
50
180
51
270
0
LINE
5
437
100
AcDbEntity
8
0
100
AcDbLine
10
54.912499999999937
20
-16.02500000000002
30
0
11
54.912499999999937
21
-3.025000000000011
31
0
0
ARC
5
438
100
AcDbEntity
8
0
100
AcDbCircle
10
55.412499999999945
20
-3.025000000000011
30
0
40
0.49999999999999822
210
0
220
-0
230
1
100
AcDbArc
50
90
51
180
0
LINE
5
439
100
AcDbEntity
8
0
100
AcDbLine
10
55.412499999999945
20
-2.5250000000000128
30
0
11
68.412499999999909
21
-2.5249994997713898
31
0
0
ARC
5
440
100
AcDbEntity
8
0
100
AcDbCircle
10
68.412499999999952
20
-3.025000000000011
30
0
40
0.50000000000000711
210
0
220
-0
230
1
100
AcDbArc
50
0
51
90.000000000004889
0
LINE
5
441
100
AcDbEntity
8
0
100
AcDbLine
10
69.199999999999946
20
-35.07500000000001
30
0
11
69.199999999999946
21
-22.075000000000014
31
0
0
ARC
5
442
100
AcDbEntity
8
0
100
AcDbCircle
10
69.69999999999996
20
-22.075000000000014
30
0
40
0.49999999999999822
210
0
220
-0
230
1
100
AcDbArc
50
90
51
180
0
LINE
5
443
100
AcDbEntity
8
0
100
AcDbLine
10
69.69999999999996
20
-21.575000000000017
30
0
11
120.79999999999998
21
-21.575000000000017
31
0
0
ARC
5
444
100
AcDbEntity
8
0
100
AcDbCircle
10
120.79999999999998
20
-22.075000000000014
30
0
40
0.50000000000000711
210
0
220
-0
230
1
100
AcDbArc
50
0
51
90
0
LINE
5
445
100
AcDbEntity
8
0
100
AcDbLine
10
121.29999999999998
20
-22.075000000000014
30
0
11
121.29999999999998
21
-35.07500000000001
31
0
0
ARC
5
446
100
AcDbEntity
8
0
100
AcDbCircle
10
120.79999999999998
20
-35.07500000000001
30
0
40
0.49999999999999822
210
-0
220
0
230
1
100
AcDbArc
50
-90
51
0
0
LINE
5
447
100
AcDbEntity
8
0
100
AcDbLine
10
120.79999999999998
20
-35.57500000000001
30
0
11
69.69999999999996
21
-35.57500000000001
31
0
0
ARC
5
448
100
AcDbEntity
8
0
100
AcDbCircle
10
69.69999999999996
20
-35.07500000000001
30
0
40
0.50000000000000711
210
0
220
0
230
1
100
AcDbArc
50
180
51
270
0
LINE
5
449
100
AcDbEntity
8
0
100
AcDbLine
10
94.60624999999996
20
-16.525000000000016
30
0
11
74.462499999999949
21
-16.525000000000016
31
0
0
ARC
5
450
100
AcDbEntity
8
0
100
AcDbCircle
10
74.462499999999949
20
-16.02500000000002
30
0
40
0.50000000000000711
210
0
220
0
230
1
100
AcDbArc
50
180
51
270
0
LINE
5
451
100
AcDbEntity
8
0
100
AcDbLine
10
73.962499999999949
20
-16.02500000000002
30
0
11
73.962499999999977
21
-3.025000000000011
31
0
0
ARC
5
452
100
AcDbEntity
8
0
100
AcDbCircle
10
74.462499999999949
20
-3.025000000000011
30
0
40
0.49999999999999822
210
0
220
-0
230
1
100
AcDbArc
50
90
51
180
0
LINE
5
453
100
AcDbEntity
8
0
100
AcDbLine
10
74.462499999999949
20
-2.5250000000000128
30
0
11
94.60624999999996
21
-2.5250000000000128
31
0
0
ARC
5
454
100
AcDbEntity
8
0
100
AcDbCircle
10
94.60624999999996
20
-3.025000000000011
30
0
40
0.50000000000000711
210
0
220
-0
230
1
100
AcDbArc
50
0
51
90
0
LINE
5
455
100
AcDbEntity
8
0
100
AcDbLine
10
95.106249999999974
20
-3.025000000000011
30
0
11
95.106249999999932
21
-16.02500000000002
31
0
0
ARC
5
456
100
AcDbEntity
8
0
100
AcDbCircle
10
94.60624999999996
20
-16.02500000000002
30
0
40
0.49999999999999822
210
-0
220
0
230
1
100
AcDbArc
50
-90
51
0
0
LINE
5
457
100
AcDbEntity
8
0
100
AcDbLine
10
123.18124899999994
20
-16.525000000000016
30
0
11
108.24324999999995
21
-16.525000000000016
31
0
0
LINE
5
458
100
AcDbEntity
8
0
100
AcDbLine
10
108.24324999999995
20
-16.525000000000016
30
0
11
108.24324999999995
21
-18.02500000000002
31
0
0
ARC
5
459
100
AcDbEntity
8
0
100
AcDbCircle
10
107.74324999999993
20
-18.02500000000002
30
0
40
0.49999999999999822
210
-0
220
0
230
1
100
AcDbArc
50
-90
51
0
0
LINE
5
460
100
AcDbEntity
8
0
100
AcDbLine
10
107.74324999999993
20
-18.52500000000002
30
0
11
101.74324999999996
21
-18.52500000000002
31
0
0
ARC
5
461
100
AcDbEntity
8
0
100
AcDbCircle
10
101.74324999999996
20
-18.02500000000002
30
0
40
0.50000000000000711
210
0
220
0
230
1
100
AcDbArc
50
180
51
270
0
LINE
5
462
100
AcDbEntity
8
0
100
AcDbLine
10
101.24324999999996
20
-18.02500000000002
30
0
11
101.24324999999996
21
-4.0250000000000163
31
0
0
ARC
5
463
100
AcDbEntity
8
0
100
AcDbCircle
10
101.74324999999996
20
-4.0250000000000163
30
0
40
0.49999999999999822
210
0
220
-0
230
1
100
AcDbArc
50
90
51
180
0
LINE
5
464
100
AcDbEntity
8
0
100
AcDbLine
10
101.74324999999996
20
-3.5250000000000181
30
0
11
107.29999999999997
21
-3.5250000000000181
31
0
0
LINE
5
465
100
AcDbEntity
8
0
100
AcDbLine
10
107.29999999999997
20
-3.5250000000000181
30
0
11
107.29999999999997
21
-3.025000000000011
31
0
0
ARC
5
466
100
AcDbEntity
8
0
100
AcDbCircle
10
107.79999999999998
20
-3.025000000000011
30
0
40
0.49999999999999822
210
0
220
-0
230
1
100
AcDbArc
50
90
51
180
0
LINE
5
467
100
AcDbEntity
8
0
100
AcDbLine
10
107.79999999999998
20
-2.5250000000000128
30
0
11
123.18124899999994
21
-2.5250000000000128
31
0
0
ARC
5
468
100
AcDbEntity
8
0
100
AcDbCircle
10
123.18124899999994
20
-3.025000000000011
30
0
40
0.50000000000000711
210
0
220
-0
230
1
100
AcDbArc
50
0
51
90
0
LINE
5
469
100
AcDbEntity
8
0
100
AcDbLine
10
123.68124899999995
20
-3.025000000000011
30
0
11
123.68124899999995
21
-16.02500000000002
31
0
0
ARC
5
470
100
AcDbEntity
8
0
100
AcDbCircle
10
123.18124899999994
20
-16.02500000000002
30
0
40
0.49999999999999822
210
-0
220
0
230
1
100
AcDbArc
50
-90
51
0
0
LINE
5
471
100
AcDbEntity
8
0
100
AcDbLine
10
139.84999999999999
20
-16.525000000000016
30
0
11
132.11924999999997
21
-16.525000000000016
31
0
0
LINE
5
472
100
AcDbEntity
8
0
100
AcDbLine
10
132.11924999999997
20
-16.525000000000016
30
0
11
132.11925000000002
21
-18.02500000000002
31
0
0
ARC
5
473
100
AcDbEntity
8
0
100
AcDbCircle
10
131.61924999999999
20
-18.02500000000002
30
0
40
0.49999999999999822
210
-0
220
0
230
1
100
AcDbArc
50
-90
51
0
0
LINE
5
474
100
AcDbEntity
8
0
100
AcDbLine
10
131.61924999999999
20
-18.52500000000002
30
0
11
125.61924999999999
21
-18.525000000000027
31
0
0
ARC
5
475
100
AcDbEntity
8
0
100
AcDbCircle
10
125.61924999999999
20
-18.02500000000002
30
0
40
0.50000000000000711
210
0
220
0
230
1
100
AcDbArc
50
180
51
270
0
LINE
5
476
100
AcDbEntity
8
0
100
AcDbLine
10
125.11924999999998
20
-18.02500000000002
30
0
11
125.11924999999998
21
-4.0250000000000163
31
0
0
ARC
5
477
100
AcDbEntity
8
0
100
AcDbCircle
10
125.61924999999999
20
-4.0250000000000163
30
0
40
0.49999999999999822
210
0
220
-0
230
1
100
AcDbArc
50
90
51
180
0
LINE
5
478
100
AcDbEntity
8
0
100
AcDbLine
10
125.61924999999999
20
-3.5250000000000181
30
0
11
126.34999999999998
21
-3.5250000000000181
31
0
0
LINE
5
479
100
AcDbEntity
8
0
100
AcDbLine
10
126.34999999999998
20
-3.5250000000000181
30
0
11
126.34999999999998
21
-3.025000000000011
31
0
0
ARC
5
480
100
AcDbEntity
8
0
100
AcDbCircle
10
126.84999999999999
20
-3.025000000000011
30
0
40
0.49999999999999822
210
0
220
-0
230
1
100
AcDbArc
50
90
51
180
0
LINE
5
481
100
AcDbEntity
8
0
100
AcDbLine
10
126.84999999999999
20
-2.5250000000000128
30
0
11
139.84999999999999
21
-2.5250000000000039
31
0
0
ARC
5
482
100
AcDbEntity
8
0
100
AcDbCircle
10
139.84999999999999
20
-3.025000000000011
30
0
40
0.50000000000000711
210
0
220
-0
230
1
100
AcDbArc
50
0
51
90
0
LINE
5
483
100
AcDbEntity
8
0
100
AcDbLine
10
140.34999999999999
20
-3.025000000000011
30
0
11
140.34999999999999
21
-16.02500000000002
31
0
0
ARC
5
484
100
AcDbEntity
8
0
100
AcDbCircle
10
139.84999999999999
20
-16.02500000000002
30
0
40
0.49999999999999822
210
-0
220
0
230
1
100
AcDbArc
50
-90
51
0
0
LINE
5
485
100
AcDbEntity
8
0
100
AcDbLine
10
123.96874999999994
20
-35.07500000000001
30
0
11
123.96874999999997
21
-22.075000000000014
31
0
0
ARC
5
486
100
AcDbEntity
8
0
100
AcDbCircle
10
124.46874999999994
20
-22.075000000000014
30
0
40
0.49999999999999822
210
0
220
-0
230
1
100
AcDbArc
50
90
51
180
0
LINE
5
487
100
AcDbEntity
8
0
100
AcDbLine
10
124.46874999999994
20
-21.575000000000017
30
0
11
139.84999999999999
21
-21.575000000000017
31
0
0
ARC
5
488
100
AcDbEntity
8
0
100
AcDbCircle
10
139.84999999999999
20
-22.075000000000014
30
0
40
0.50000000000000711
210
0
220
-0
230
1
100
AcDbArc
50
0
51
90
0
LINE
5
489
100
AcDbEntity
8
0
100
AcDbLine
10
140.34999999999999
20
-22.075000000000014
30
0
11
140.34999999999999
21
-35.07500000000001
31
0
0
ARC
5
490
100
AcDbEntity
8
0
100
AcDbCircle
10
139.84999999999999
20
-35.07500000000001
30
0
40
0.49999999999999822
210
-0
220
0
230
1
100
AcDbArc
50
-90
51
0
0
LINE
5
491
100
AcDbEntity
8
0
100
AcDbLine
10
139.84999999999999
20
-35.57500000000001
30
0
11
124.46874999999994
21
-35.57500000000001
31
0
0
ARC
5
492
100
AcDbEntity
8
0
100
AcDbCircle
10
124.46874999999994
20
-35.07500000000001
30
0
40
0.50000000000000711
210
0
220
0
230
1
100
AcDbArc
50
180
51
270
0
ARC
5
493
100
AcDbEntity
8
0
100
AcDbCircle
10
50.649999999999977
20
-22.075000000000014
30
0
40
0.49999999999999822
210
0
220
-0
230
1
100
AcDbArc
50
90
51
180
0
LINE
5
494
100
AcDbEntity
8
0
100
AcDbLine
10
50.14999999999997
20
-35.07500000000001
30
0
11
50.14999999999997
21
-22.075000000000014
31
0
0
ARC
5
495
100
AcDbEntity
8
0
100
AcDbCircle
10
50.649999999999977
20
-35.07500000000001
30
0
40
0.50000000000000711
210
0
220
0
230
1
100
AcDbArc
50
180
51
270
0
LINE
5
496
100
AcDbEntity
8
0
100
AcDbLine
10
66.031249999999943
20
-35.57500000000001
30
0
11
50.649999999999977
21
-35.57500000000001
31
0
0
ARC
5
497
100
AcDbEntity
8
0
100
AcDbCircle
10
66.031249999999943
20
-35.07500000000001
30
0
40
0.49999999999999822
210
-0
220
0
230
1
100
AcDbArc
50
-90
51
0
0
LINE
5
498
100
AcDbEntity
8
0
100
AcDbLine
10
66.531249999999957
20
-22.075000000000014
30
0
11
66.531249999999957
21
-35.07500000000001
31
0
0
ARC
5
499
100
AcDbEntity
8
0
100
AcDbCircle
10
66.031249999999943
20
-22.075000000000014
30
0
40
0.50000000000000711
210
0
220
-0
230
1
100
AcDbArc
50
0
51
90
0
LINE
5
500
100
AcDbEntity
8
0
100
AcDbLine
10
50.649999999999977
20
-21.575000000000017
30
0
11
66.031249999999943
21
-21.575000000000017
31
0
0
ARC
5
501
100
AcDbEntity
8
0
100
AcDbCircle
10
60.174999999999983
20
22.07500099999999
30
0
40
0.50000000000000711
210
0
220
0
230
1
100
AcDbArc
50
180
51
270
0
LINE
5
502
100
AcDbEntity
8
0
100
AcDbLine
10
73.174999999999983
20
21.575000999999983
30
0
11
60.174999999999983
21
21.575000999999972
31
0
0
ARC
5
503
100
AcDbEntity
8
0
100
AcDbCircle
10
73.174999999999983
20
22.07500099999999
30
0
40
0.49999999999999822
210
-0
220
0
230
1
100
AcDbArc
50
-90
51
0
0
LINE
5
504
100
AcDbEntity
8
0
100
AcDbLine
10
73.674999999999997
20
35.074999999999989
30
0
11
73.674999999999997
21
22.075000999999979
31
0
0
ARC
5
505
100
AcDbEntity
8
0
100
AcDbCircle
10
73.174999999999983
20
35.075000999999979
30
0
40
0.50000000000100708
210
-0
220
0
230
1
100
AcDbArc
50
-0.0001145902915529748
51
89.999885408442893
0
LINE
5
506
100
AcDbEntity
8
0
100
AcDbLine
10
60.174999999999983
20
35.574999999999989
30
0
11
73.175000999999966
21
35.575001
31
0
0
ARC
5
507
100
AcDbEntity
8
0
100
AcDbCircle
10
60.174999999999983
20
35.074999999999989
30
0
40
0.49999999999999822
210
0
220
-0
230
1
100
AcDbArc
50
90
51
180
0
LINE
5
508
100
AcDbEntity
8
0
100
AcDbLine
10
59.674999999999976
20
22.07500099999999
30
0
11
59.674999999999976
21
35.074999999999996
31
0
0
LINE
5
509
100
AcDbEntity
8
0
100
AcDbLine
10
92.724999999999966
20
35.074999999999989
30
0
11
92.725000999999992
21
22.075000999999979
31
0
0
ARC
5
510
100
AcDbEntity
8
0
100
AcDbCircle
10
92.224999999999966
20
22.07500099999999
30
0
40
0.50000100000000103
210
-0
220
0
230
1
100
AcDbArc
50
-90
51
0
0
LINE
5
511
100
AcDbEntity
8
0
100
AcDbLine
10
92.224999999999966
20
21.574999999999989
30
0
11
79.224999999999966
21
21.575000999999983
31
0
0
ARC
5
512
100
AcDbEntity
8
0
100
AcDbCircle
10
79.224999999999966
20
22.07500099999999
30
0
40
0.50000000000000711
210
0
220
0
230
1
100
AcDbArc
50
180
51
270
0
LINE
5
513
100
AcDbEntity
8
0
100
AcDbLine
10
78.724999999999952
20
22.07500099999999
30
0
11
78.724999999999952
21
35.074999999999996
31
0
0
ARC
5
514
100
AcDbEntity
8
0
100
AcDbCircle
10
79.224999999999966
20
35.074999999999989
30
0
40
0.49999999999999822
210
0
220
-0
230
1
100
AcDbArc
50
90
51
180
0
LINE
5
515
100
AcDbEntity
8
0
100
AcDbLine
10
79.224999999999966
20
35.574999999999989
30
0
11
92.224999999999966
21
35.575000000000003
31
0
0
ARC
5
516
100
AcDbEntity
8
0
100
AcDbCircle
10
92.224999999999966
20
35.074999999999989
30
0
40
0.50000000000000711
210
0
220
-0
230
1
100
AcDbArc
50
0
51
90
0
ARC
5
517
100
AcDbEntity
8
0
100
AcDbCircle
10
122.08749899999994
20
22.07500099999999
30
0
40
0.50000000000000711
210
0
220
0
230
1
100
AcDbArc
50
180
51
270
0
LINE
5
518
100
AcDbEntity
8
0
100
AcDbLine
10
135.08749999999995
20
21.574999999999989
30
0
11
122.08749899999994
21
21.575000999999993
31
0
0
ARC
5
519
100
AcDbEntity
8
0
100
AcDbCircle
10
135.08749999999995
20
22.07500099999999
30
0
40
0.50000100000000103
210
-0
220
0
230
1
100
AcDbArc
50
-90
51
0
0
LINE
5
520
100
AcDbEntity
8
0
100
AcDbLine
10
135.58749999999998
20
35.074999999999989
30
0
11
135.58750099999995
21
22.075000999999979
31
0
0
ARC
5
521
100
AcDbEntity
8
0
100
AcDbCircle
10
135.08749999999995
20
35.074999999999989
30
0
40
0.50000000000000711
210
0
220
-0
230
1
100
AcDbArc
50
0
51
90
0
LINE
5
522
100
AcDbEntity
8
0
100
AcDbLine
10
122.08749899999994
20
35.574999999999989
30
0
11
135.08749999999995
21
35.574999999999989
31
0
0
ARC
5
523
100
AcDbEntity
8
0
100
AcDbCircle
10
122.08749899999994
20
35.074999999999989
30
0
40
0.49999999999999822
210
0
220
-0
230
1
100
AcDbArc
50
90
51
180
0
LINE
5
524
100
AcDbEntity
8
0
100
AcDbLine
10
121.58749899999992
20
22.07500099999999
30
0
11
121.58749899999992
21
35.074999999999996
31
0
0
LINE
5
525
100
AcDbEntity
8
0
100
AcDbLine
10
111.77499999999998
20
35.074999999999989
30
0
11
111.77500099999996
21
22.075000999999979
31
0
0
ARC
5
526
100
AcDbEntity
8
0
100
AcDbCircle
10
111.27499999999998
20
22.07500099999999
30
0
40
0.50000100000000103
210
-0
220
0
230
1
100
AcDbArc
50
-90
51
0
0
LINE
5
527
100
AcDbEntity
8
0
100
AcDbLine
10
111.27499999999998
20
21.574999999999989
30
0
11
98.274999999999977
21
21.575000999999993
31
0
0
ARC
5
528
100
AcDbEntity
8
0
100
AcDbCircle
10
98.274999999999977
20
22.07500099999999
30
0
40
0.50000000000000711
210
0
220
0
230
1
100
AcDbArc
50
180
51
270
0
LINE
5
529
100
AcDbEntity
8
0
100
AcDbLine
10
97.774999999999963
20
22.07500099999999
30
0
11
97.774999999999963
21
35.074999999999996
31
0
0
ARC
5
530
100
AcDbEntity
8
0
100
AcDbCircle
10
98.274999999999977
20
35.074999999999989
30
0
40
0.49999999999999822
210
0
220
-0
230
1
100
AcDbArc
50
90
51
180
0
LINE
5
531
100
AcDbEntity
8
0
100
AcDbLine
10
98.274999999999977
20
35.574999999999989
30
0
11
111.27500099999995
21
35.575000999999993
31
0
0
ARC
5
532
100
AcDbEntity
8
0
100
AcDbCircle
10
111.27499999999998
20
35.075000999999979
30
0
40
0.50000000000100708
210
-0
220
0
230
1
100
AcDbArc
50
-0.0001145902915529748
51
89.999885408446147
0
LINE
5
533
100
AcDbEntity
8
0
100
AcDbLine
10
54.124999999999979
20
21.574999999999989
30
0
11
41.124999999999972
21
21.57500049977137
31
0
0
ARC
5
534
100
AcDbEntity
8
0
100
AcDbCircle
10
41.124999999999972
20
22.07500099999999
30
0
40
0.50000000000000711
210
0
220
0
230
1
100
AcDbArc
50
180
51
270
0
LINE
5
535
100
AcDbEntity
8
0
100
AcDbLine
10
40.624999999999964
20
22.07500099999999
30
0
11
40.624999999999964
21
35.074999999999996
31
0
0
ARC
5
536
100
AcDbEntity
8
0
100
AcDbCircle
10
41.124999999999972
20
35.074999999999989
30
0
40
0.49999999999999822
210
0
220
-0
230
1
100
AcDbArc
50
90
51
180
0
LINE
5
537
100
AcDbEntity
8
0
100
AcDbLine
10
41.124999999999972
20
35.574999999999989
30
0
11
54.124999999999979
21
35.575000999999993
31
0
0
ARC
5
538
100
AcDbEntity
8
0
100
AcDbCircle
10
54.124999999999979
20
35.075000999999979
30
0
40
0.50000000000100708
210
-0
220
0
230
1
100
AcDbArc
50
-0.0001145902915529748
51
90
0
LINE
5
539
100
AcDbEntity
8
0
100
AcDbLine
10
54.624999999999986
20
35.074999999999989
30
0
11
54.625000499771339
21
22.075000999999979
31
0
0
ARC
5
540
100
AcDbEntity
8
0
100
AcDbCircle
10
54.124999999999979
20
22.07500099999999
30
0
40
0.50000100000000103
210
-0
220
0
230
1
100
AcDbArc
50
270
51
360
0
ARC
5
541
100
AcDbEntity
8
0
100
AcDbCircle
10
58.887499999999946
20
16.025000999999985
30
0
40
0.50000000000100708
210
-0
220
0
230
1
100
AcDbArc
50
-0.0001145902915529748
51
90.00000000000081
0
LINE
5
542
100
AcDbEntity
8
0
100
AcDbLine
10
45.887499999999939
20
16.524999999999981
30
0
11
58.887499999999946
21
16.525000999999982
31
0
0
ARC
5
543
100
AcDbEntity
8
0
100
AcDbCircle
10
45.887499999999939
20
16.024999999999991
30
0
40
0.49999999999999822
210
0
220
-0
230
1
100
AcDbArc
50
90
51
180
0
LINE
5
544
100
AcDbEntity
8
0
100
AcDbLine
10
45.387499999999932
20
3.0249999999999844
30
0
11
45.387499999999932
21
16.024999999999988
31
0
0
ARC
5
545
100
AcDbEntity
8
0
100
AcDbCircle
10
45.887499999999939
20
3.0249999999999844
30
0
40
0.50000000000000711
210
0
220
0
230
1
100
AcDbArc
50
180
51
270
0
LINE
5
546
100
AcDbEntity
8
0
100
AcDbLine
10
58.887499999999946
20
2.5249999999999861
30
0
11
45.887499999999939
21
2.5249999999999817
31
0
0
ARC
5
547
100
AcDbEntity
8
0
100
AcDbCircle
10
58.887499999999946
20
3.0249999999999844
30
0
40
0.49999999999999822
210
-0
220
0
230
1
100
AcDbArc
50
-90
51
0
0
LINE
5
548
100
AcDbEntity
8
0
100
AcDbLine
10
59.387499999999953
20
16.024999999999991
30
0
11
59.387499999999953
21
3.0249999999999888
31
0
0
LINE
5
549
100
AcDbEntity
8
0
100
AcDbLine
10
-121.58750000000005
20
-22.075000000000014
30
0
11
-121.58750000000005
21
-35.07500000000001
31
0
0
ARC
5
550
100
AcDbEntity
8
0
100
AcDbCircle
10
-122.08750000000006
20
-35.07500000000001
30
0
40
0.49999999999999822
210
-0
220
0
230
1
100
AcDbArc
50
-90
51
0
0
LINE
5
551
100
AcDbEntity
8
0
100
AcDbLine
10
-122.08750000000006
20
-35.57500000000001
30
0
11
-137.46875000000006
21
-35.57500000000001
31
0
0
ARC
5
552
100
AcDbEntity
8
0
100
AcDbCircle
10
-137.46875000000006
20
-35.07500000000001
30
0
40
0.50000000000000711
210
0
220
0
230
1
100
AcDbArc
50
180
51
270
0
LINE
5
553
100
AcDbEntity
8
0
100
AcDbLine
10
-137.96875000000006
20
-35.07500000000001
30
0
11
-137.96875000000006
21
-22.075000000000014
31
0
0
ARC
5
554
100
AcDbEntity
8
0
100
AcDbCircle
10
-137.46875000000006
20
-22.075000000000014
30
0
40
0.49999999999999822
210
0
220
-0
230
1
100
AcDbArc
50
90
51
180
0
LINE
5
555
100
AcDbEntity
8
0
100
AcDbLine
10
-137.46875000000006
20
-21.575000000000017
30
0
11
-122.08750000000003
21
-21.575000000000017
31
0
0
ARC
5
556
100
AcDbEntity
8
0
100
AcDbCircle
10
-122.08750000000006
20
-22.075000000000014
30
0
40
0.50000000000000711
210
0
220
-0
230
1
100
AcDbArc
50
0
51
90
0
ARC
5
557
100
AcDbEntity
8
0
100
AcDbCircle
10
-127.94375100000005
20
-16.02500000000002
30
0
40
0.49999899999999542
210
0
220
0
230
1
100
AcDbArc
50
180
51
270
0
LINE
5
558
100
AcDbEntity
8
0
100
AcDbLine
10
-114.94375000000005
20
-16.525000000000016
30
0
11
-127.94375100000005
21
-16.524999000000022
31
0
0
ARC
5
559
100
AcDbEntity
8
0
100
AcDbCircle
10
-114.94375000000005
20
-16.02500000000002
30
0
40
0.49999999999999822
210
-0
220
0
230
1
100
AcDbArc
50
-90
51
0
0
LINE
5
560
100
AcDbEntity
8
0
100
AcDbLine
10
-114.44375000000005
20
-3.025000000000011
30
0
11
-114.44375000000005
21
-16.02500000000002
31
0
0
ARC
5
561
100
AcDbEntity
8
0
100
AcDbCircle
10
-114.94375000000005
20
-3.025000000000011
30
0
40
0.50000000000000711
210
0
220
-0
230
1
100
AcDbArc
50
0
51
90
0
LINE
5
562
100
AcDbEntity
8
0
100
AcDbLine
10
-127.94375000000005
20
-2.5250000000000128
30
0
11
-114.94375000000005
21
-2.5250000000000128
31
0
0
ARC
5
563
100
AcDbEntity
8
0
100
AcDbCircle
10
-127.94375000000005
20
-3.025000000000011
30
0
40
0.49999999999999822
210
0
220
-0
230
1
100
AcDbArc
50
90
51
180
0
LINE
5
564
100
AcDbEntity
8
0
100
AcDbLine
10
-128.44375000000005
20
-16.02500000000002
30
0
11
-128.44375000000005
21
-3.025000000000011
31
0
0
ARC
5
565
100
AcDbEntity
8
0
100
AcDbCircle
10
-136.38175100000007
20
-4.0250000000000163
30
0
40
0.5000000000009982
210
0
220
-0
230
1
100
AcDbArc
50
89.999885408441259
51
179.9998854097085
0
LINE
5
566
100
AcDbEntity
8
0
100
AcDbLine
10
-136.88175000000004
20
-18.02500000000002
30
0
11
-136.88175100000004
21
-4.0249990000000135
31
0
0
ARC
5
567
100
AcDbEntity
8
0
100
AcDbCircle
10
-136.38175000000007
20
-18.02500000000002
30
0
40
0.50000000000000711
210
0
220
0
230
1
100
AcDbArc
50
180
51
270
0
LINE
5
568
100
AcDbEntity
8
0
100
AcDbLine
10
-130.38175000000004
20
-18.52500000000002
30
0
11
-136.38175000000004
21
-18.52500000000002
31
0
0
ARC
5
569
100
AcDbEntity
8
0
100
AcDbCircle
10
-130.38175000000004
20
-18.02500000000002
30
0
40
0.49999999999999822
210
-0
220
0
230
1
100
AcDbArc
50
-90
51
0
0
LINE
5
570
100
AcDbEntity
8
0
100
AcDbLine
10
-129.88175000000007
20
-4.0250000000000163
30
0
11
-129.88175000000007
21
-18.02500000000002
31
0
0
ARC
5
571
100
AcDbEntity
8
0
100
AcDbCircle
10
-130.38175000000004
20
-4.0250000000000163
30
0
40
0.50000000000000711
210
0
220
-0
230
1
100
AcDbArc
50
0
51
90
0
LINE
5
572
100
AcDbEntity
8
0
100
AcDbLine
10
-136.38175000000007
20
-3.5250000000000181
30
0
11
-130.38175000000007
21
-3.5250000000000181
31
0
0
ARC
5
573
100
AcDbEntity
8
0
100
AcDbCircle
10
-135.08750000000003
20
22.07500099999999
30
0
40
0.50000000000000711
210
0
220
0
230
1
100
AcDbArc
50
180
51
270
0
LINE
5
574
100
AcDbEntity
8
0
100
AcDbLine
10
-122.08750000000006
20
21.574999999999989
30
0
11
-135.08750000000006
21
21.575000999999993
31
0
0
ARC
5
575
100
AcDbEntity
8
0
100
AcDbCircle
10
-122.08750000000006
20
22.07500099999999
30
0
40
0.50000100000000103
210
-0
220
0
230
1
100
AcDbArc
50
-90
51
0
0
LINE
5
576
100
AcDbEntity
8
0
100
AcDbLine
10
-121.58750000000005
20
35.074999999999989
30
0
11
-121.58749900000004
21
22.075000999999979
31
0
0
ARC
5
577
100
AcDbEntity
8
0
100
AcDbCircle
10
-122.08750000000006
20
35.074999999999989
30
0
40
0.50000000000000711
210
0
220
-0
230
1
100
AcDbArc
50
0
51
90
0
LINE
5
578
100
AcDbEntity
8
0
100
AcDbLine
10
-135.08750000000003
20
35.574999999999989
30
0
11
-122.08750000000003
21
35.574999999999989
31
0
0
ARC
5
579
100
AcDbEntity
8
0
100
AcDbCircle
10
-135.08750000000003
20
35.074999999999989
30
0
40
0.49999999999999822
210
0
220
-0
230
1
100
AcDbArc
50
90
51
180
0
LINE
5
580
100
AcDbEntity
8
0
100
AcDbLine
10
-135.58750000000006
20
22.07500099999999
30
0
11
-135.58750000000006
21
35.074999999999996
31
0
0
LINE
5
581
100
AcDbEntity
8
0
100
AcDbLine
10
-137.96875000000006
20
3.0249999999999844
30
0
11
-137.96875000000006
21
16.024999999999988
31
0
0
ARC
5
582
100
AcDbEntity
8
0
100
AcDbCircle
10
-137.46875000000006
20
16.024999999999991
30
0
40
0.49999999999999822
210
0
220
-0
230
1
100
AcDbArc
50
90
51
180
0
LINE
5
583
100
AcDbEntity
8
0
100
AcDbLine
10
-137.46875000000006
20
16.524999999999981
30
0
11
-119.70625000000005
21
16.524998999999983
31
0
0
ARC
5
584
100
AcDbEntity
8
0
100
AcDbCircle
10
-119.70625000000005
20
16.024999999999991
30
0
40
0.49999899999999542
210
0
220
-0
230
1
100
AcDbArc
50
0
51
90
0
LINE
5
585
100
AcDbEntity
8
0
100
AcDbLine
10
-119.20625100000007
20
16.024999999999991
30
0
11
-119.20625000000007
21
3.0249999999999888
31
0
0
ARC
5
586
100
AcDbEntity
8
0
100
AcDbCircle
10
-119.70625000000005
20
3.0249999999999844
30
0
40
0.49999999999999822
210
-0
220
0
230
1
100
AcDbArc
50
-90
51
0
0
LINE
5
587
100
AcDbEntity
8
0
100
AcDbLine
10
-119.70625000000005
20
2.5249999999999861
30
0
11
-137.46875000000006
21
2.5249999999999817
31
0
0
ARC
5
588
100
AcDbEntity
8
0
100
AcDbCircle
10
-137.46875000000006
20
3.0249999999999844
30
0
40
0.50000000000000711
210
0
220
0
230
1
100
AcDbArc
50
180
51
270
0
ENDSEC
0
SECTION
2
OBJECTS
0
DICTIONARY
5
C
100
AcDbDictionary
3
ACAD_GROUP
350
D
3
ACAD_MLINESTYLE
350
17
0
DICTIONARY
5
D
100
AcDbDictionary
0
DICTIONARY
5
1A
330
C
100
AcDbDictionary
0
DICTIONARY
5
17
100
AcDbDictionary
0
ENDSEC
0
EOF
